<svg width="17" height="16" viewBox="0 0 17 16" fill="none" xmlns="http://www.w3.org/2000/svg">
<path d="M7.71092 2.83333C7.89758 2.83333 8.04425 2.98 8.04425 3.16667V4.5H12.0443V8.5H13.3776C13.5643 8.5 13.7109 8.64667 13.7109 8.83333C13.7109 9.02 13.5643 9.16667 13.3776 9.16667H12.0443V13.1667H10.6309C10.1776 12 9.03758 11.1667 7.71092 11.1667C6.38425 11.1667 5.24425 12 4.79092 13.1667H3.37758V11.7533C4.54425 11.3 5.37758 10.16 5.37758 8.83333C5.37758 7.50667 4.55092 6.36667 3.38425 5.91333L3.37758 4.5H7.37758V3.16667C7.37758 2.98 7.52425 2.83333 7.71092 2.83333ZM7.71092 1.5C6.79092 1.5 6.04425 2.24667 6.04425 3.16667H3.37758C2.64425 3.16667 2.05092 3.76667 2.05092 4.5V7.03333H2.24425C3.23758 7.03333 4.04425 7.84 4.04425 8.83333C4.04425 9.82667 3.23758 10.6333 2.24425 10.6333H2.04425V13.1667C2.04425 13.9 2.64425 14.5 3.37758 14.5H5.91092V14.3C5.91092 13.3067 6.71758 12.5 7.71092 12.5C8.70425 12.5 9.51092 13.3067 9.51092 14.3V14.5H12.0443C12.7776 14.5 13.3776 13.9 13.3776 13.1667V10.5C14.2976 10.5 15.0443 9.75333 15.0443 8.83333C15.0443 7.91333 14.2976 7.16667 13.3776 7.16667V4.5C13.3776 3.76667 12.7776 3.16667 12.0443 3.16667H9.37758C9.37758 2.24667 8.63092 1.5 7.71092 1.5Z" fill="white"/>
</svg>
