<svg width="16" height="16" viewBox="0 0 16 16" fill="none" xmlns="http://www.w3.org/2000/svg">
<path d="M12.9548 8.65331C12.9815 8.43998 13.0015 8.22665 13.0015 7.99998C13.0015 7.77331 12.9815 7.55998 12.9548 7.34665L14.3615 6.24665C14.4881 6.14665 14.5215 5.96665 14.4415 5.81998L13.1081 3.51331C13.0481 3.40665 12.9348 3.34665 12.8148 3.34665C12.7748 3.34665 12.7348 3.35331 12.7015 3.36665L11.0415 4.03331C10.6948 3.76665 10.3215 3.54665 9.91481 3.37998L9.66148 1.61331C9.64148 1.45331 9.50148 1.33331 9.33481 1.33331H6.66815C6.50148 1.33331 6.36148 1.45331 6.34148 1.61331L6.08815 3.37998C5.68148 3.54665 5.30815 3.77331 4.96148 4.03331L3.30148 3.36665C3.26148 3.35331 3.22148 3.34665 3.18148 3.34665C3.06815 3.34665 2.95481 3.40665 2.89481 3.51331L1.56148 5.81998C1.47481 5.96665 1.51481 6.14665 1.64148 6.24665L3.04815 7.34665C3.02148 7.55998 3.00148 7.77998 3.00148 7.99998C3.00148 8.21998 3.02148 8.43998 3.04815 8.65331L1.64148 9.75331C1.51481 9.85331 1.48148 10.0333 1.56148 10.18L2.89481 12.4866C2.95481 12.5933 3.06815 12.6533 3.18815 12.6533C3.22815 12.6533 3.26815 12.6466 3.30148 12.6333L4.96148 11.9666C5.30815 12.2333 5.68148 12.4533 6.08815 12.62L6.34148 14.3866C6.36148 14.5466 6.50148 14.6666 6.66815 14.6666H9.33481C9.50148 14.6666 9.64148 14.5466 9.66148 14.3866L9.91481 12.62C10.3215 12.4533 10.6948 12.2266 11.0415 11.9666L12.7015 12.6333C12.7415 12.6466 12.7815 12.6533 12.8215 12.6533C12.9348 12.6533 13.0481 12.5933 13.1081 12.4866L14.4415 10.18C14.5215 10.0333 14.4881 9.85331 14.3615 9.75331L12.9548 8.65331ZM11.6348 7.51331C11.6615 7.71998 11.6681 7.85998 11.6681 7.99998C11.6681 8.13998 11.6548 8.28665 11.6348 8.48665L11.5415 9.23998L12.1348 9.70665L12.8548 10.2666L12.3881 11.0733L11.5415 10.7333L10.8481 10.4533L10.2481 10.9066C9.96148 11.12 9.68815 11.28 9.41481 11.3933L8.70815 11.68L8.60148 12.4333L8.46815 13.3333H7.53481L7.30148 11.68L6.59481 11.3933C6.30815 11.2733 6.04148 11.12 5.77481 10.92L5.16815 10.4533L4.46148 10.74L3.61481 11.08L3.14815 10.2733L3.86815 9.71331L4.46148 9.24665L4.36815 8.49331C4.34815 8.28665 4.33481 8.13331 4.33481 7.99998C4.33481 7.86665 4.34815 7.71331 4.36815 7.51331L4.46148 6.75998L3.86815 6.29331L3.14815 5.73331L3.61481 4.92665L4.46148 5.26665L5.15481 5.54665L5.75481 5.09331C6.04148 4.87998 6.31481 4.71998 6.58815 4.60665L7.29481 4.31998L7.40148 3.56665L7.53481 2.66665H8.46148L8.69481 4.31998L9.40148 4.60665C9.68815 4.72665 9.95481 4.87998 10.2215 5.07998L10.8281 5.54665L11.5348 5.25998L12.3815 4.91998L12.8481 5.72665L12.1348 6.29331L11.5415 6.75998L11.6348 7.51331ZM8.00148 5.33331C6.52815 5.33331 5.33481 6.52665 5.33481 7.99998C5.33481 9.47331 6.52815 10.6666 8.00148 10.6666C9.47481 10.6666 10.6681 9.47331 10.6681 7.99998C10.6681 6.52665 9.47481 5.33331 8.00148 5.33331ZM8.00148 9.33331C7.26815 9.33331 6.66815 8.73331 6.66815 7.99998C6.66815 7.26665 7.26815 6.66665 8.00148 6.66665C8.73481 6.66665 9.33481 7.26665 9.33481 7.99998C9.33481 8.73331 8.73481 9.33331 8.00148 9.33331Z" fill="white"/>
</svg>
