<svg width="16" height="16" viewBox="0 0 16 16" fill="none" xmlns="http://www.w3.org/2000/svg">
<path d="M12 10.7467C11.4933 10.7467 11.04 10.9467 10.6933 11.26L5.94 8.49332C5.97333 8.33999 6 8.18665 6 8.02665C6 7.86665 5.97333 7.71332 5.94 7.55999L10.64 4.81999C11 5.15332 11.4733 5.35999 12 5.35999C13.1067 5.35999 14 4.46665 14 3.35999C14 2.25332 13.1067 1.35999 12 1.35999C10.8933 1.35999 10 2.25332 10 3.35999C10 3.51999 10.0267 3.67332 10.06 3.82665L5.36 6.56665C5 6.23332 4.52667 6.02665 4 6.02665C2.89333 6.02665 2 6.91999 2 8.02665C2 9.13332 2.89333 10.0267 4 10.0267C4.52667 10.0267 5 9.81999 5.36 9.48665L10.1067 12.26C10.0733 12.4 10.0533 12.5467 10.0533 12.6933C10.0533 13.7667 10.9267 14.64 12 14.64C13.0733 14.64 13.9467 13.7667 13.9467 12.6933C13.9467 11.62 13.0733 10.7467 12 10.7467ZM12 2.69332C12.3667 2.69332 12.6667 2.99332 12.6667 3.35999C12.6667 3.72665 12.3667 4.02665 12 4.02665C11.6333 4.02665 11.3333 3.72665 11.3333 3.35999C11.3333 2.99332 11.6333 2.69332 12 2.69332ZM4 8.69332C3.63333 8.69332 3.33333 8.39332 3.33333 8.02665C3.33333 7.65999 3.63333 7.35999 4 7.35999C4.36667 7.35999 4.66667 7.65999 4.66667 8.02665C4.66667 8.39332 4.36667 8.69332 4 8.69332ZM12 13.3733C11.6333 13.3733 11.3333 13.0733 11.3333 12.7067C11.3333 12.34 11.6333 12.04 12 12.04C12.3667 12.04 12.6667 12.34 12.6667 12.7067C12.6667 13.0733 12.3667 13.3733 12 13.3733Z" fill="white"/>
</svg>
