<svg width="16" height="16" viewBox="0 0 16 16" fill="none" xmlns="http://www.w3.org/2000/svg">
<path d="M11.6667 2.66665V1.99998C11.6667 1.63331 11.3667 1.33331 11 1.33331H3.00004C2.63337 1.33331 2.33337 1.63331 2.33337 1.99998V4.66665C2.33337 5.03331 2.63337 5.33331 3.00004 5.33331H11C11.3667 5.33331 11.6667 5.03331 11.6667 4.66665V3.99998H12.3334V6.66665H5.66671V14C5.66671 14.3666 5.96671 14.6666 6.33337 14.6666H7.66671C8.03337 14.6666 8.33337 14.3666 8.33337 14V7.99998H13.6667V2.66665H11.6667ZM10.3334 3.99998H3.66671V2.66665H10.3334V3.99998Z" fill="white"/>
</svg>
