<?xml version="1.0" encoding="utf-8"?>
<!-- Generator: Adobe Illustrator 27.6.1, SVG Export Plug-In . SVG Version: 6.00 Build 0)  -->
<svg version="1.1" id="Layer_1" xmlns="http://www.w3.org/2000/svg" xmlns:xlink="http://www.w3.org/1999/xlink" x="0px" y="0px"
	 viewBox="0 0 172.8999939 90" style="enable-background:new 0 0 172.8999939 90;" xml:space="preserve">
<style type="text/css">
	.st0{fill:#888888;}
	.st1{fill:#666666;}
	.st2{fill:#CCCCCC;}
	.st3{fill:none;stroke:#000000;stroke-linecap:round;stroke-linejoin:round;stroke-miterlimit:10;}
	.st4{fill:#FFFFFF;}
	.st5{fill:#808080;}
	.st6{fill:#0099FF;}
	.st7{fill:#3751A0;}
	.st8{fill:#F79420;}
	.st9{fill:#797979;}
	.st10{fill:#BABABA;}
	.st11{fill:#C1272D;}
	.st12{enable-background:new    ;}
	.st13{clip-path:url(#SVGID_00000038394760819201104410000004131685347730070957_);}
</style>
<g>
	<path class="st0" d="M137.8132324,45.4385223L60.6080475,90l-12.3705521-7.1448059l-3.7101364,2.1355438l-3.8676338-2.2339401
		l3.7101402-2.1355438l-9.9397125-5.7375107l80.8366394-45.3291283l0.5805969-0.3247795l21.9658432,13.6105652
		C138.8170624,43.4210052,138.8170624,44.8677101,137.8132324,45.4385223z"/>
	<path d="M138.6380005,36.4042282c0-1.2799644-0.6704865-2.4176979-1.77771-3.0576782l-0.2539673-0.142231
		c-0.071106-0.9548912-0.4469604-1.828495-1.0971069-2.5090885c-0.0304565-0.0406742-0.0609589-0.0711155-0.1015625-0.1117897
		c-0.1828461-0.1726742-0.3656921-0.3149071-0.5790405-0.457077c-0.2031708-0.1320629-0.4165192-0.2539597-0.6399841-0.3454113
		l-12.9113007-5.9934616c0,0-1.3815231-0.6399212-1.4018631-0.6500893
		c-0.4981079-0.2311764-0.9962158-0.4623508-1.4943314-0.6935272c-0.4063187-0.1885757-0.8126373-0.3771515-1.2189636-0.5657291
		c-0.3118286-0.144722-0.6329803-0.326889-0.9651184-0.4476986c-0.3710709-0.1349735-0.7195206-0.1359196-1.1075439-0.1396656
		c-0.3433075-0.003315-0.6866074-0.0066299-1.0299072-0.0099449c-0.4152145-0.0040092-0.8949203,0.0592289-1.3050995-0.0126038
		c-1.7138901-0.9894524-3.4277802-1.9789028-5.1416702-2.9683552c-1.4014969-0.809103-2.7929153-1.6354885-4.1927567-2.4474287
		c-0.7118301-0.412879-1.4257278-0.8222656-2.1442184-1.2234631c-0.4522018-0.2525043-0.946373-0.5831013-1.4882965-0.54879
		c-0.5650482,0.0357761-1.1327972,0.4778147-1.61866,0.735817c-1.1119614,0.5904808-2.2239304,1.1809607-3.3358917,1.7714415
		c-2.288002,1.2149868-4.576004,2.4299717-6.8640137,3.6449585c-0.3186035,0.1691895-0.6372147,0.3383789-0.9558258,0.5075684
		l-0.1930084,0.1016197l-4.2157516-2.4278641c-0.1930084-0.1117287-0.4266357-0.1117287-0.5993042,0
		c0,0-3.9008408,2.2450218-3.9211197,2.265295c-0.0609436,0.0508423-0.1117859,0.1016216-0.1523972,0.152401
		c-0.02034,0.0305042-0.0304413,0.0406113-0.0406113,0.0609474c-0.0508423,0.0914536-0.0812836,0.1828442-0.0812836,0.2844639
		v3.0779533c0,0.2235165,0.1218948,0.4266338,0.2945709,0.5384235l0.7822113,0.4368019l-0.8126602,3.0677853l-13.6771469,7.9290829
		c-0.0507812,0.0203362-0.0812836,0.0609474-0.1117859,0.0812836c-0.0304413,0.0202751-0.0609512,0.0507812-0.0812225,0.0710564
		c-0.1117249,0.0812836-0.1930161,0.1930122-0.2844658,0.3352432l-2.5497589,4.8658981l-17.2539406,4.1832466l-1.4831467-0.8533287
		c-0.132061-0.0710564-0.2844009-0.1015587-0.4368019-0.0609474l-4.215683,0.9244461
		c-0.1727371,0.0507774-0.3250771,0.1625061-0.3961945,0.3047371l-1.7675438,3.1999092
		c-0.1727371,0.2945709-0.0609474,0.6500893,0.2234535,0.8126602l1.7675476,1.0056686
		c0.0305023,0.0406113,0.0711136,0.0609474,0.1117897,0.0914497l1.8792725,0.8431015
		c0.0609474,0.0203362,0.1218948,0.0305061,0.1930122,0.0305061c0.1015587,0,0.1930084-0.0305061,0.2844009-0.0914536
		l0.609539-0.4875832l2.645504,1.5064774l-2.3114166,1.3140068l-0.2945709-0.1828423
		c-0.1828423-0.1117897-0.4266319-0.1117897-0.599369,0l-2.1941795,1.2697945c-0.0305061,0-0.0305061,0.0304451-0.0406113,0.0304451
		c-0.0609474,0.0507774-0.1117897,0.0914497-0.152401,0.1523972c-0.0203362,0.0304451-0.0305061,0.0406113-0.0406113,0.0609474
		c-0.0508423,0.0913925-0.0711174,0.1828461-0.0711174,0.2742958v0.4875832
		c-0.5282555,0.0609474-0.9650574,0.4368019-1.0565109,0.9650574L34.281105,71.2677536
		c-0.0914497,0.4977493,0.1523399,1.0056686,0.5789757,1.2596283l14.7601357,8.5127182l5.7699471,3.3319168
		c0.1218948,0.0609436,0.2437897,0.1016159,0.3656883,0.1218948c0.0101662,0.0101624,0.0203362,0.0101624,0.0406723,0.0101624
		c0.0609474,0.01017,0.1015587,0.01017,0.1625061,0.0305099h0.0406113c0.1320648,0,0.2539597-0.0305099,0.3759155-0.0609512
		c0.0304451-0.0305023,0.0710564-0.0406723,0.1015587-0.0508423c0.0507812-0.0202713,0.0812836-0.0406113,0.1218948-0.0507736
		l4.3782539-2.5395966c0.2336235-0.1320648,0.4063606-0.3453522,0.5180893-0.5993042
		c0.2133484,0.9142151,0.609478,1.6354752,1.1885109,2.0926208c0.0203362,0.0101624,0.0406723,0.0202713,0.0507812,0.0406113
		l0.609539,0.3454056l2.2043457,1.2799072c0.1117249,0.0711136,0.2235184,0.1219559,0.3250732,0.1829071
		c1.0666199,0.4875793,2.4786453,0.3555145,4.0024033-0.5384293c3.2811356-1.8996048,5.9426193-6.4912109,5.9324493-10.2599258
		c0-0.3758545-0.0507736-0.7212677-0.1015549-1.0463409c0.0406113-0.02034,0.0914536-0.0304413,0.1218948-0.0507812
		l30.1601944-17.4114571c0.01017-0.0101662,0.01017-0.0101662,0.0305099-0.0101662l11.4891129-6.6333847
		c0.1015549-0.0609474,0.1828384-0.132061,0.264122-0.2031784c0.2336273,0.8024902,0.6094818,1.4424706,1.1377335,1.8691673
		c0.0202789,0.0101051,0.0304413,0.0202751,0.0507812,0.0304413l0.6094742,0.3555183l2.2043533,1.2799644
		c0.1117859,0.0711174,0.2133484,0.1117897,0.3250732,0.1727371c1.0666809,0.4977493,2.4684753,0.3656883,4.0023956-0.5282555
		c2.0215073-1.1682358,3.8093948-3.3725853,4.8760757-5.7699432l0.5180206,0.2641258
		c0.0508423,0.0202751,0.1016235,0.0406113,0.1625671,0.0609474c0.0304413,0.01017,0.0609436,0.0202751,0.0913849,0.0406113
		c0.1016235,0.0203362,0.1930237,0.0305061,0.294632,0.0305061c0.1015625,0,0.2132874-0.01017,0.3149109-0.0508423
		c0.0304413,0,0.0711212-0.0202751,0.1015625-0.0304413c0.0609436-0.0305061,0.1218872-0.0507812,0.1828461-0.0711174
		l4.215744-2.4380341c1.1072235-0.6399803,1.77771-1.7777138,1.77771-3.0677834V36.536293
		c0-0.01017-0.02034-0.0305061-0.02034-0.0508423C138.6176605,36.4651756,138.6380005,36.4245033,138.6380005,36.4042282z
		 M60.5872803,43.0837898l-14.8972511,3.6042137c-0.01017,0-0.02034-0.0101051-0.0406113-0.0202751
		c-0.01017-0.01017-0.01017-0.0203362-0.0305061-0.0406723l-0.3453484-0.1930122l15.5371704-3.787056L60.5872803,43.0837898z"/>
	<g>
		<path class="st1" d="M106.6230011,50.7315292v1.988224l9.0974808-5.2536354
			c0.0482483-0.7109604,0.1445923-1.4459724,0.3253632-2.1689949L106.6230011,50.7315292z"/>
		<path class="st2" d="M134.2394104,33.5293922v3.2506905L132.339798,37.88731
			c-0.5892029-2.7020988-2.4380341-4.3477478-5.0080643-4.3477478c-1.229187,0-2.5091476,0.3860207-3.8398895,1.1377296
			c-2.5903702,1.513588-4.8455048,4.1750755-6.2270279,7.141304l-10.6460114,6.1255226V32.6862297
			c0-0.1015587-0.0101624-0.2031784-0.0304413-0.2945709c-0.01017-0.0101662-0.01017-0.0305023-0.01017-0.0406113
			c-0.0305023-0.0711136-0.0609436-0.1523972-0.1016159-0.2235146l10.6561813-5.6480503l6.6473312,4.9988213
			c0.0202789,0.0202751,0.0406113,0.0304432,0.0609512,0.0406113c0.0507812,0.0406723,0.1015549,0.0812836,0.1625061,0.1016216
			c0.0914536,0.0507793,0.1828384,0.0812206,0.284462,0.1015587c0.0913925,0.0304432,0.1930084,0.0406113,0.2844009,0.0406113
			l7.9299545,0.0702553c0.0507812,0,0.1015625,0,0.1523438,0.0101681c0.1219025-0.0101681,0.2437897,0.0202751,0.3656921,0.0609493
			c0.2641296,0.0710526,0.5079193,0.2132835,0.7009277,0.4062958
			C134.0565643,32.6354523,134.2394104,33.0620842,134.2394104,33.5293922z"/>
	</g>
	<g>
		<g>
			<path class="st3" d="M98.6832581,30.951582"/>
		</g>
		<g>
			<path class="st3" d="M95.3033829,32.9029541"/>
		</g>
	</g>
	<g>
		<g>
			<polygon class="st2" points="64.4523163,40.8979111 67.6455078,40.1870232 65.4765091,38.9458733 			"/>
			<path class="st4" d="M133.020401,31.9040794c-0.1219025-0.0406742-0.2437897-0.0711174-0.3656921-0.0609493
				c-0.0507812-0.0101681-0.1015625-0.0101681-0.1523438-0.0101681l-7.9337387-0.0711155
				c-0.1015549,0-0.1929474-0.0101681-0.2844009-0.0406723c-0.1015625-0.0202751-0.1930084-0.0507793-0.284462-0.1015606
				c-0.0507812-0.0203362-0.1117325-0.0507793-0.1625061-0.1015587c-0.02034-0.0101681-0.0406113-0.0203362-0.0609512-0.0406723
				l-6.6435471-4.9979l-10.6561813,5.6480503l10.6460114-5.6582184l-5.8512268-3.3827534
				c0.4667206,0.0047817,0.9334488,0.0095654,1.400177,0.014349c0.695549,0.0071297,1.3993454,0.0236015,2.0673218,0.2393246
				c0.6792603,0.219368,1.2916946,0.6113167,1.9353561,0.9125996c1.1723099,0.5487289,2.3446198,1.0974598,3.5169296,1.6461887
				c1.3832245,0.6474514,2.7664413,1.2949028,4.1496658,1.9423561c1.3407898,0.6275902,2.6815796,1.2551823,4.022377,1.8827724
				c1.0450134,0.4891491,2.0900421,0.9782963,3.1350555,1.4674454c0.4959106,0.2321224,0.9918213,0.4642448,1.4877167,0.6963673
				C132.9974365,31.8933353,133.0089264,31.8987064,133.020401,31.9040794z"/>
			<path class="st2" d="M133.7213287,32.3103752l-1.0666199-0.4672451c0.1219025-0.0101681,0.2437897,0.0202751,0.3656921,0.0609493
				L133.7213287,32.3103752z"/>
		</g>
		<polygon class="st2" points="51.6112061,79.4101028 55.1175499,81.4223709 57.1418114,70.047493 53.6475296,68.0352173 		"/>
		<path class="st2" d="M57.6479492,80.9765396l1.5665169-0.9037247c0.4337692-4.8921585,3.8318558-10.3988571,7.9527473-12.7726059
			c2.3496246-1.349556,4.6271744-1.5544586,6.4104309-0.5663757c1.2772598,0.6988983,2.1689224,1.9399796,2.5906296,3.5667267
			l28.0395813-16.1947479V39.7908096L86.5152435,50.0436363l-3.4582443,6.3742447
			c-0.1084824,0.204895-0.2651291,0.3614731-0.4578934,0.4699516l-23.0353012,13.304245L57.6479492,80.9765396z
			 M85.9981003,53.7349739c0-0.202755,0.1013412-0.3942375,0.2816162-0.4956474l5.3844681-3.1090584l5.3845444-3.1090584
			l5.395752-3.1089935c0.180275-0.1014099,0.3943024-0.1014099,0.5632324,0
			c0.180275,0.0900688,0.2816162,0.28162,0.2816162,0.484375v7.5473404c0,0.202755-0.1013412,0.3829575-0.2816162,0.4843712
			l-5.395752,3.120266l-5.3845367,3.1090584l-5.3844757,3.1090584c-0.0901413,0.0563087-0.1914825,0.0788612-0.2816162,0.0788612
			c-0.1014175,0-0.2027588-0.0225525-0.2816162-0.0788612c-0.180275-0.1014137-0.2816162-0.2816162-0.2816162-0.4843712V53.7349739z
			"/>
		<polygon class="st2" points="97.8935776,47.8322983 97.8935776,54.0841751 102.1628647,51.6172104 102.1628647,45.3653336 		"/>
		<polygon class="st2" points="92.5090408,50.9413567 92.5090408,57.1932335 96.7671127,54.737545 96.7671127,48.4856682 		"/>
		<polygon class="st2" points="87.1245651,54.050415 87.1245651,60.3022919 91.3825684,57.8466034 91.3825684,51.5947266 		"/>
		<path class="st2" d="M55.1778603,66.1313477l3.3015938,1.9038696l22.6255035-13.0633125l2.8918762-5.3379898l-3.6389465-2.0966301
			l-3.0244751,5.5910606c-0.1084824,0.1927643-0.2651291,0.3614769-0.4578934,0.4699554L55.1778603,66.1313477z"/>
		<polygon class="st5" points="70.8382034,48.5734711 57.8970718,56.0741272 53.823555,58.4308739 54.0063972,57.0391846 
			54.148632,55.9014511 63.143692,50.7116051 		"/>
		<polygon class="st5" points="53.575161,60.4800568 56.8646927,62.3718643 75.3812943,51.682373 78.0563583,46.7420387 
			75.3812943,47.3324623 53.6475296,59.9258194 		"/>
		<polygon class="st5" points="53.057106,64.576973 55.659729,63.0707626 53.4065933,61.7693787 		"/>
		<polygon class="st1" points="50.5868683,62.9261742 50.5868683,63.7093582 51.5750198,63.1430588 51.5750198,62.3598022 		"/>
		<path class="st6" d="M48.357708,74.011879l1.7712669-0.4578934h0.0842819l1.361763-7.6395187
			c0-0.0120621,0.0120621-0.0241241,0.0241241-0.0361099c0.0120621-0.0843582,0.0480995-0.1446686,0.0722237-0.2169571
			c0.0239754-0.0361099,0.0239754-0.0842819,0.0480957-0.1204681l0.1447372-1.1808472l-1.5906372,0.9157867
			c-0.0844307,0.048172-0.192688,0.0842819-0.2891808,0.0842819c-0.1084061,0-0.2168083-0.0361099-0.301239-0.0842819
			l-0.2288742-0.1325989L48.357708,74.011879z"/>
		<polygon class="st7" points="47.3938255,71.9874725 48.3215256,64.4926147 47.526207,64.0347214 		"/>
		<polygon class="st6" points="44.8391571,75.469841 46.1406136,74.7227631 46.3333015,63.3478813 45.0561142,62.600811 		"/>
		<path class="st6" d="M42.8269577,74.3371658l0.819294,0.4699554l0.2168121-12.820858c0-0.0240479,0-0.048172,0.0120583-0.0602303
			l-0.831356-0.4820175L42.8269577,74.3371658z"/>
		<polygon class="st2" points="36.802124,70.8547974 40.031353,72.7225571 41.8146782,62.7574615 41.8508644,60.7572479 
			38.9108162,59.0582047 		"/>
		<path class="st1" d="M39.0312843,57.7396545l0.096344,0.0533524l7.9528923,4.5909195
			c0.1203194,0.0361099,0.2288742,0.0843544,0.3012428,0.1807709l2.0001373,1.1446609v-0.7831841l-10.3506165-5.9766579V57.7396545z
			"/>
		<polygon class="st1" points="39.6337662,55.9132614 49.9843826,61.8898468 50.972538,61.3114853 40.6217728,55.3349037 		"/>
		<polygon class="st2" points="43.6341896,55.6843147 46.6707268,57.4435921 46.899601,57.3109894 47.3817635,53.5274544 		"/>
		<polygon class="st7" points="47.9963074,58.2147141 49.0203514,58.793148 49.8397942,52.2140083 48.7432327,52.4188309 		"/>
		<path class="st7" d="M41.4291534,50.1376877v0.2650566l1.7833252,1.0362549v-0.9760208l-0.5302582-0.3132286l-0.6505814,0.1445923
			c-0.0361862,0.0119858-0.0842857,0.0119858-0.1204681,0.0119858c-0.0964928,0-0.1928368-0.0119858-0.2891808-0.0722961
			L41.4291534,50.1376877z"/>
		<polygon class="st7" points="38.9590607,50.6558151 39.9229469,51.0895844 40.0675354,50.9811058 39.2482414,50.4148064 		"/>
		<polygon class="st2" points="39.9710464,49.8123245 40.2241898,49.9930992 40.2241898,49.607502 		"/>
		<polygon class="st6" points="37.1516113,49.3423691 38.0432777,49.8485069 40.1759415,48.0771713 38.4046783,47.0649681 		"/>
		<polygon class="st6" points="41.9833908,48.5109406 42.2365341,49.0170784 44.718689,48.4748306 44.718689,47.9084587 		"/>
		<polygon class="st6" points="39.5374222,46.6673813 40.9833221,47.4988098 43.670372,46.90839 42.2365341,46.0769577 		"/>
		<polygon class="st2" points="63.6690636,42.3920555 69.3082199,41.1509819 68.8022308,40.8497391 63.897934,41.9462242 		"/>
		<path class="st6" d="M45.9115944,49.029068l29.5661201-6.8658829l-1.4458237-0.8314323L45.9236526,47.884407v1.0723648
			C45.9236526,48.980896,45.9115944,49.0050163,45.9115944,49.029068z"/>
		<path class="st6" d="M50.9484177,51.0211029c0.1444397,0.1325302,0.2047501,0.3252907,0.1806259,0.5181274l-0.9759483,7.9166336
			l2.180912,1.2531395l1.0409622-8.2244339c0.0361862-0.2529945,0.2169609-0.4578934,0.4699554-0.5060654l24.9705734-6.646328
			l0.0120544-0.0119858c0-0.0120621,0.0120621-0.0120621,0.0120621-0.0241241c0,0,0-0.0120621,0.0120621-0.0120621
			c0-0.0120621,0.0119934-0.0120621,0.0119934-0.0241203c0.0361786-0.048172,0.0603027-0.0963478,0.0964127-0.1325302
			c0.0241241-0.0361099,0.0722961-0.0602341,0.0964203-0.0964165c0.0722961-0.0602341,0.1325302-0.1204681,0.2168884-0.1686401
			c0.0361099-0.0120621,0.0602264-0.0482483,0.0964127-0.0722961l5.4630203-3.1691017l-4.258049-0.2891464
			c-0.4578934,0.674778-1.0242691,1.2531395-1.6508026,1.6025543c-0.4097214,0.2289467-0.8073807,0.3494873-1.1447296,0.3494873
			c-0.2048264,0-0.3855972-0.0361862-0.5422516-0.1205406l-0.0964203-0.0361099c-0.0120621,0-0.0120621,0-0.0120621-0.0120621
			l-0.1083984-0.0602341l-32.6026649,7.5407333v1.1446609l6.0007095-0.8757896
			C50.6109886,50.8282661,50.8036804,50.8885727,50.9484177,51.0211029z"/>
		<path class="st6" d="M77.6225891,41.512455c0,0.3976593,0.1084061,0.5543098,0.1204681,0.5543098
			c0.0361862,0.0120621,0.2410049,0.0240517,0.5904236-0.1807747c1.1206818-0.6385918,2.1207504-2.3616829,2.1207504-3.6751289
			c0-0.385601-0.1084061-0.5662994-0.1566544-0.5662994c-0.048172,0-0.2529907,0.0119858-0.5421753,0.1806984
			C78.6227341,38.4879799,77.6225891,40.211071,77.6225891,41.512455z"/>
		<path class="st6" d="M74.1041107,38.7410469l0.2409363-0.048172c0.3855209-1.2411499,1.2411499-2.4581757,2.2532806-3.1088333
			c-0.0842819,0-0.2288742,0.0361137-0.4578247,0.1687126C75.2006683,36.2949333,74.3571091,37.5842552,74.1041107,38.7410469z"/>
		<path class="st6" d="M75.0078354,40.054493c0,0.2288742,0.0360336,0.3855247,0.0722198,0.4940033l0.2290192,0.1325302
			c0.0119171-0.4337692,0.096344-0.8796005,0.2409363-1.3374939l-0.4699554,0.1084785
			C75.043869,39.6568336,75.0078354,39.8616562,75.0078354,40.054493z"/>
		<path class="st6" d="M75.3812943,38.4518661l0.6145477-0.1325264c0.4699554-0.8676147,1.1326675-1.6388092,1.8798141-2.0967026
			l-0.2410049-0.1445923c-0.1084824,0.0241241-0.253067,0.0722961-0.4217834,0.1687126
			C76.4657974,36.6925926,75.7789536,37.5481415,75.3812943,38.4518661z"/>
		<path class="st6" d="M76.2127991,40.7533226c0,0.2168846,0.0240479,0.3735352,0.0722961,0.4820137l0.1445923,0.0964165
			c0.0843582-1.6388092,1.1929016-3.5667229,2.5906296-4.4583893l-0.1927643-0.1084785
			c-0.1084747,0.0241241-0.2410049,0.0843582-0.4217758,0.1807747
			C77.2249298,37.6324997,76.2127991,39.3796425,76.2127991,40.7533226z"/>
		<path class="st6" d="M81.2013016,40.211071l2.2534866,0.3479881L81.41819,39.6447716
			C81.3579559,39.8375359,81.2856598,40.0183105,81.2013016,40.211071z"/>
		<polygon class="st8" points="79.0120468,22.2218208 79.0120468,23.9207916 83.3980713,26.4511909 83.3980713,24.7401581 		"/>
		<polygon class="st8" points="79.6145325,21.1735058 84.0005569,23.7039051 86.6756134,22.1615143 82.3015823,19.631115 		"/>
		<polygon class="st8" points="85.2055206,24.4028072 90.1700439,27.2706318 92.8571014,25.7282391 87.8805847,22.8483524 		"/>
		<polygon class="st8" points="84.603035,25.4390602 84.603035,27.1380291 89.5675659,30.0058556 89.5675659,28.3068848 		"/>
		<polygon class="st8" points="91.3750153,27.9694595 95.7730942,30.4999313 98.4481583,28.9575405 94.0620651,26.4150791 		"/>
		<polygon class="st8" points="96.3755798,31.5482464 96.3755798,33.2472153 99.0506439,31.7048988 99.0506439,29.9937935 		"/>
		<polygon class="st8" points="90.7725296,29.0057869 90.7725296,30.7047558 95.1706161,33.2472153 95.1706161,31.5482464 		"/>
		<polygon class="st2" points="78.5662155,32.163353 80.3133621,33.17556 81.7472763,26.8850346 79.9880676,25.8728294 		"/>
		<polygon class="st5" points="81.5906219,32.9466133 84.4464569,31.2958145 84.856102,28.6804218 82.8438339,27.5236282 		"/>
		<polygon class="st2" points="91.2665329,39.5016289 93.0258102,40.5137596 94.4476624,34.2232361 92.688385,33.2111053 		"/>
		<path class="st5" d="M94.291008,40.2848129l2.8557663-1.650795l0.6266098-4.8083687l-1.6990509,0.9880104
			c-0.0120544,0-0.0241165,0-0.0361099,0.0120583c-0.0843506,0.0361862-0.1687088,0.0602341-0.2651291,0.0602341
			c-0.0843582,0-0.1566467-0.0119858-0.2168808-0.0361099L94.291008,40.2848129z"/>
		<path class="st2" d="M104.2090378,33.3904724v2.2145767l-4.7642746-2.7427711l0.5079193-0.294632
			c0.1930084-0.1015587,0.3047333-0.3047371,0.3047333-0.5281944v-0.9244442L104.2090378,33.3904724z"/>
		<path class="st2" d="M103.0001907,37.6976738L85.6090698,47.7747574l-3.3116379-1.8996124l5.8207855-3.3725853
			c0.3758545-0.2133484,0.6094742-0.6196442,0.6094742-1.0463409c0-0.4368019-0.2336197-0.8329315-0.6094742-1.0361099
			l-9.3558807-5.4144287c-0.2539597-0.142231-0.5485306-0.1930122-0.8329926-0.142231L77.31987,34.5079308
			c-0.01017-0.01017-0.02034-0.01017-0.02034-0.01017v-0.0101662c-0.2336197-0.1117287-0.4469681-0.1218987-0.6196442-0.1218987
			c-0.3454132,0-0.751709,0.1117287-1.1377335,0.3352432c-0.9752274,0.5688667-1.8284912,1.6558189-2.3059692,2.8138885
			l-2.7021027,1.5643692l-3.1287918-1.8082199l10.0770874-5.8410625L77.29953,32.3645287v0.0202751
			c0,0.0406723,0,0.0914536,0.01017,0.1320648v0.0914497c0.0203323,0.0507812,0.0406113,0.0812874,0.0507812,0.1218987
			c0.0101624,0.0203362,0.0203323,0.0609474,0.0507736,0.0913887c0.02034,0.0305061,0.0507812,0.0508423,0.0711212,0.0812836
			c0.0305023,0.0203362,0.0609436,0.0507812,0.0914536,0.0812836c0.0202713,0,0.0202713,0.01017,0.0304413,0.01017
			l2.8544998,1.6558189c0.0812836,0.0406113,0.1930084,0.0812225,0.3047333,0.0812225
			c0.0914536,0,0.203186-0.0406113,0.2844696-0.0812225c0,0,0,0,0.0101624,0l4.2563629-2.4583702
			c0.1726761-0.1015587,0.274231-0.2742329,0.2844009-0.4672451l0.3860245-2.3770847l5.6074371,3.2201843l-1.5948715,7.1311951
			c0,0.0101662,0.02034,0.0101662,0,0.0203362c0,0.0304413,0,0.0812836,0.02034,0.1320648v0.0913887
			c0.0101624,0.0406723,0.0304413,0.0812836,0.0406113,0.1117897c0.0101624,0.0406113,0.0305023,0.0710564,0.0507736,0.1015587
			c0.02034,0.0304451,0.0507812,0.0406113,0.0711212,0.0711174c0.0406723,0.0304413,0.0609436,0.0711136,0.1016159,0.0913887
			c0.0101089,0,0.0101089,0,0.0202789,0.01017l2.8544998,1.645649c0.1016159,0.0609474,0.1930084,0.0812874,0.3047333,0.0812874
			c0.0914536,0,0.203186-0.02034,0.2844696-0.0711174c0.0101624-0.01017,0.0101624-0.01017,0.0101624-0.01017l4.2563629-2.4481392
			c0.1726761-0.1016197,0.274231-0.2742958,0.3047409-0.467308l0.3961868-3.8499985L103.0001907,37.6976738z"/>
		<path class="st4" d="M117.1225891,26.4693146l-10.6460114,5.6582184
			c-0.0202789-0.0406113-0.0507812-0.0609474-0.0609512-0.0812836c-0.0304413-0.0507793-0.0507812-0.0913906-0.0913925-0.1218967
			c-0.0812836-0.1015587-0.1726685-0.1930103-0.294632-0.2641277c-0.0101013,0-0.0101013,0-0.0101013-0.0202732
			l-16.4769058-9.5082188l1.77771-0.9447823l8.665123-4.6118774l15.0140305,8.6651192L117.1225891,26.4693146z"/>
	</g>
	<polygon class="st9" points="110.2350082,33.122776 110.2350082,39.2139969 119.3430328,34.0916481 115.0075607,30.4999313 	"/>
	<polygon class="st5" points="46.0200005,76.1808014 49.3939629,78.132843 49.5025139,77.5424194 46.5862961,75.8554382 	"/>
	<path class="st1" d="M133.2475891,41.550087v1.9881516l2.4099274-1.397728
		c0.506073-0.2891808,0.5662994-0.7711983,0.5662994-0.9760208v-1.3255081L133.2475891,41.550087z"/>
	<g>
		<g>
			<path class="st0" d="M127.0895538,44.322979c-0.4462357,0.2576332-0.8089752,0.0508919-0.8104324-0.4618454
				c-0.0014267-0.503891,0.3589554-1.1281319,0.8051987-1.3857689c0.4461823-0.2576065,0.8012543-0.0464325,0.8026886,0.4574585
				C127.8884583,43.4455566,127.5357437,44.0653725,127.0895538,44.322979L127.0895538,44.322979z M126.0667343,42.3456383
				c-1.4540253,0.8394814-2.6272507,2.8804779-2.6225204,4.5512619c0.0047379,1.670784,1.1856613,2.3437576,2.6396866,1.5042763
				c1.454071-0.8395119,2.6350021-2.8760948,2.6302567-4.5468788
				C128.7094269,42.1835136,127.5208054,41.5061302,126.0667343,42.3456383L126.0667343,42.3456383z"/>
			<path class="st10" d="M127.0843201,42.4753647c0.4461823-0.2576065,0.8012543-0.0464325,0.8026886,0.4574585
				c0.0014496,0.5127335-0.351265,1.1325493-0.7974548,1.3901558c-0.4462357,0.2576332-0.8089752,0.0508919-0.8104324-0.4618454
				C126.2776947,43.3572426,126.6380768,42.7330017,127.0843201,42.4753647L127.0843201,42.4753647z"/>
		</g>
	</g>
	<g>
		<g>
			<path class="st0" d="M70.868103,76.7596893c-0.4462357,0.257637-0.8089752,0.0508957-0.8104324-0.4618378
				c-0.0014267-0.503891,0.3589554-1.1281357,0.8051987-1.3857727c0.4461899-0.2576065,0.8012543-0.0464325,0.8026886,0.4574585
				C71.6670074,75.8822708,71.3142929,76.5020828,70.868103,76.7596893L70.868103,76.7596893z M69.8452835,74.7823563
				c-1.4540253,0.8394775-2.6272507,2.8804703-2.6225128,4.5512619c0.0047302,1.670784,1.1856537,2.34375,2.639679,1.5042725
				c1.454071-0.8395157,2.6349945-2.876091,2.6302567-4.546875C72.4879761,74.620224,71.2993546,73.9428406,69.8452835,74.7823563
				L69.8452835,74.7823563z"/>
			<path class="st10" d="M70.8628693,74.9120789c0.4461899-0.2576065,0.8012543-0.0464325,0.8026886,0.4574585
				c0.0014496,0.5127335-0.351265,1.1325455-0.7974548,1.390152c-0.4462357,0.257637-0.8089752,0.0508957-0.8104324-0.4618378
				C70.0562439,75.7939606,70.416626,75.1697159,70.8628693,74.9120789L70.8628693,74.9120789z"/>
		</g>
	</g>
	<polygon class="st11" points="55.1778603,76.9136581 54.7046089,79.5688248 52.4906235,78.3014374 52.9639244,75.6462173 	"/>
	<polygon class="st11" points="40.2336197,68.4136276 39.7603683,71.0687943 37.5463829,69.8014069 38.0196838,67.1461945 	"/>
	<g>
		<g class="st12">
			<defs>
				<polygon id="SVGID_1_" class="st12" points="108.6862717,43.0608406 108.6823044,41.6624832 118.3395233,35.785183 
					118.343483,37.1835403 				"/>
			</defs>
			<clipPath id="SVGID_00000103230126006126179500000006107737767588506796_">
				<use xlink:href="#SVGID_1_"  style="overflow:visible;"/>
			</clipPath>
			<g style="clip-path:url(#SVGID_00000103230126006126179500000006107737767588506796_);">
				<path d="M109.4816895,41.1759834c-0.1944733,0.1183586-0.3527145,0.2809639-0.4891891,0.4800644
					c-0.1293106,0.2030373-0.2296448,0.429863-0.2866364,0.6883507c-0.0427094,0.1917572-0.0495377,0.3368034-0.0204163,0.4268379
					c0.0363007,0.0856667,0.0869598,0.129425,0.151886,0.1313667c0.0721283,0.0058212,0.173027-0.0390015,0.3026428-0.1178856
					c0.1007996-0.061348,0.1943741-0.1348763,0.2734985-0.2161674c0.0719223-0.0852242,0.1437683-0.178669,0.2083893-0.2843246
					c0.064621-0.105629,0.1219864-0.2317162,0.1649323-0.3573151l-0.288353,0.0677338
					c-0.0358124,0.1046753-0.0787964,0.1971626-0.1291275,0.2692223l-0.1726532,0.171402l-0.1442566,0.0048866
					c-0.0289307-0.0404053-0.0220337-0.1440659,0.0207672-0.3192978c0.0284653-0.1416588,0.0642242-0.2463074,0.1144562-0.3349152
					c0.0645981-0.1139069,0.1365204-0.1991043,0.2157364-0.2473145l0.093689-0.0321732l0.0577927,0.0394478l0.0146637,0.0822487
					l0.3382645-0.2887459c-0.0076218-0.1362801-0.0367432-0.2263145-0.1089172-0.2486877
					C109.7338562,41.0639725,109.6257095,41.0883331,109.4816895,41.1759834"/>
				<polyline points="111.1668701,40.1752701 110.1947021,40.7669258 109.8528442,42.3260002 110.8394241,41.7255745 
					110.9177704,41.3712349 110.291275,41.7525139 110.3625107,41.4439316 110.9242477,41.1020622 110.9954681,40.7851753 
					110.4337769,41.1270142 110.4835663,40.8812256 111.0957031,40.5086861 111.1668701,40.1752701 				"/>
				<path d="M111.6149445,40.4496155l0.0640411-0.3124886l0.1656036-0.1007919l0.1225357-0.0414047l0.0146866,0.0904961
					l-0.042984,0.1090736l-0.0718689,0.0851669l-0.1008072,0.0779305L111.6149445,40.4496155 M111.9950714,39.6712341
					l-0.6049118,0.368145l-0.3490829,1.5634727l0.3672638-0.2235146l0.1352997-0.6293831l0.0359955-0.021904l0.0793076-0.0151024
					l0.0363235,0.0773582l0.0947952,0.35672l0.4104843-0.2498169l-0.0803146-0.3406601l-0.0290527-0.0652313l-0.0362015-0.0525589
					l-0.086586,0.0029755l0.1438828-0.13731l0.1508789-0.2244225l0.0858307-0.2511673
					c0.0214005-0.0959091,0.0283661-0.1747665,0.0066147-0.2195396l-0.1156082-0.053978
					C112.1895447,39.5694656,112.1031036,39.6054878,111.9950714,39.6712341"/>
				<polyline points="113.6658249,38.6544304 112.5639877,39.3249969 112.4784775,39.7085648 112.8457947,39.4850235 
					112.5893936,40.6605568 112.9494781,40.4414139 113.2130585,39.2615089 113.5803223,39.0379982 113.6658249,38.6544304 				"/>
				<polyline points="114.205925,38.3257256 113.8458405,38.5448723 113.4968109,40.1083145 113.8640747,39.8848 
					114.205925,38.3257256 				"/>
				<polyline points="115.3653488,37.6201134 114.4723892,38.1635628 114.1233063,39.7270317 114.4906158,39.5034904 
					114.6330948,38.8697395 115.0867538,38.593647 115.1580124,38.2767563 114.6971283,38.5572472 114.7612534,38.2778625 
					115.2941818,37.9535294 115.3653488,37.6201134 				"/>
				<polyline points="115.9414902,37.2694778 115.5741806,37.4930229 115.2323761,39.052063 115.5924072,38.8329506 
					115.9414902,37.2694778 				"/>
				<polyline points="117.1729431,36.5200272 116.2007217,37.1117134 115.8588715,38.670784 116.8454971,38.0703316 
					116.9238434,37.715992 116.2973022,38.0973015 116.3685837,37.7886887 116.930275,37.4468498 117.0015335,37.1299286 
					116.4326172,37.4761658 116.4895935,37.2260132 117.1017303,36.8534698 117.1729431,36.5200272 				"/>
				<path d="M117.4855347,37.3741531l0.1923828-0.8547668l0.0863953-0.052578
					c0.0936279-0.0569801,0.1585007-0.0716171,0.1874847-0.0312157c0.0217285,0.0364952,0.0220032,0.135788-0.0207672,0.3027382
					c-0.0213318,0.1207123-0.0570908,0.2253838-0.0857849,0.2842751l-0.100502,0.1689186
					c-0.0359955,0.0384903-0.0935516,0.08181-0.1655884,0.1256485L117.4855347,37.3741531 M117.9291077,36.0598335
					l-0.5401535,0.3287277l-0.3418045,1.5590439l0.5401001-0.328701c0.0648117-0.0394402,0.1367722-0.0915031,0.2231522-0.1689415
					l0.1941147-0.2258949l0.1651001-0.2994041c0.0501633-0.1134148,0.0930786-0.2472878,0.1286545-0.4181213
					c0.0285568-0.108551,0.0354767-0.2039375,0.0424957-0.2828293l-0.0366821-0.2014542l-0.1300125-0.0617943
					C118.1163483,35.9624596,118.0370865,35.9941139,117.9291077,36.0598335"/>
			</g>
		</g>
	</g>
</g>
</svg>
