<?xml version="1.0" encoding="utf-8"?>
<!-- Generator: Adobe Illustrator 27.6.1, SVG Export Plug-In . SVG Version: 6.00 Build 0)  -->
<svg version="1.1" id="Layer_1" xmlns="http://www.w3.org/2000/svg" xmlns:xlink="http://www.w3.org/1999/xlink" x="0px" y="0px"
	 viewBox="0 0 172.9100037 90" style="enable-background:new 0 0 172.9100037 90;" xml:space="preserve">
<style type="text/css">
	.st0{fill:#888888;}
	.st1{fill:#FFFFFF;}
	.st2{fill:#CCCCCC;}
	.st3{fill:#F79420;}
	.st4{fill:#808080;}
	.st5{fill:#0073BF;}
	.st6{fill:#666666;}
	.st7{fill:#0099FF;}
	.st8{fill:#C1272D;}
</style>
<g>
	<polygon class="st0" points="102.1574173,82.6872253 70.7525864,82.6872253 70.7525864,87.9365234 84.4846115,87.9365234 
		84.4846115,90 88.4253922,90 88.4253922,87.9365234 102.1574173,87.9365234 	"/>
	<rect x="72.4694977" y="83.4313049" width="27.9906349" height="1.8743198"/>
	<g>
		<polygon class="st1" points="80.5521011,52.2257843 79.3628387,67.9363632 70.9859848,67.9363632 73.541832,52.2257843 		"/>
		<path class="st2" d="M75.6938171,70.7064743c-0.4073105,0-0.5634384-0.3819046-0.4771576-0.6837082h-4.4080048v12.6644516
			h8.4290085V70.7064743H75.6938171z"/>
		<path class="st2" d="M97.2494049,70.0227661c0.2786331,0.2848053,0.163063,0.8986588-0.3534393,0.8986588h-3.230835v11.7657928
			h8.4395065V70.0227661H97.2494049z"/>
		<polygon class="st1" points="101.9272461,67.9363632 93.5503922,67.9363632 92.3611298,52.2257843 99.37146,52.2257843 		"/>
		<polygon class="st2" points="74.094696,43.1395569 73.7504883,50.1393852 80.6981659,50.1393852 81.1276932,43.1233215 
			74.097374,43.1233215 		"/>
		<path class="st1" d="M97.3997955,34.4705734H75.5134354l-1.4160614,8.6527481h7.0303192l0.0085983-0.1402702l0.2503586-2.5454063
			c0.0104446-0.0521469,0.0313263-0.093853,0.0522079-0.1460648c0.0103836-0.0625877,0.0312653-0.1356201,0.0625916-0.1982117
			c0.0208206-0.0625877,0.0625916-0.1042938,0.1042938-0.1564407c0.0417099-0.0625877,0.0730362-0.1147346,0.1251831-0.1565056
			c0.0521469-0.0417023,0.1043549-0.0730324,0.1565018-0.1042938c0.0625916-0.0417671,0.1251831-0.0730324,0.187767-0.1043587
			c0.0625916-0.0208206,0.1251831-0.0312614,0.1982117-0.0417061c0.0521469,0,0.0938492-0.0312614,0.1564407-0.0312614h8.116127
			c0.0625839,0,0.1147308,0.0312614,0.1773224,0.0417061c0.0625916,0.0104408,0.1147385,0.0104408,0.17733,0.0312614
			c0.0730286,0.0313263,0.1460571,0.0730324,0.2086487,0.1252441c0.0417709,0.0312614,0.0939178,0.0521469,0.1251755,0.0834084
			c0.0625916,0.0521469,0.1043625,0.1147385,0.1460648,0.1773911c0.0313263,0.0521469,0.0730362,0.093853,0.0939178,0.1459999
			c0.0312653,0.0625877,0.0417023,0.1356201,0.0625916,0.2086525c0.010437,0.0521469,0.0417023,0.093914,0.0417023,0.1565056
			l0.1982117,2.4931984l0.0098724,0.1611519h7.0186691L97.3997955,34.4705734z"/>
		<polygon class="st2" points="98.805481,43.1233215 91.7868118,43.1233215 92.215065,50.1393852 99.1628113,50.1393852 
			98.8080902,43.1395569 		"/>
		<rect x="75.6699371" y="28.3678188" class="st2" width="21.5733566" height="4.016356"/>
		<polygon class="st1" points="96.7216949,26.2814198 76.1915359,26.2814198 77.8606339,22.2651272 95.052597,22.2651272 		"/>
		<polygon class="st3" points="96.5808487,26.0050201 90.4259491,26.0050201 90.290329,25.316473 96.3409348,25.316473 		"/>
		<polygon class="st3" points="89.3619308,26.0050201 83.5513,26.0050201 83.6869202,25.316473 89.2263107,25.316473 		"/>
		<polygon class="st3" points="82.6228409,25.316473 82.4872208,26.0050201 76.3323135,26.0050201 76.5722961,25.316473 		"/>
		<path d="M104.1685715,68.8992767c0-0.0417023,0.0208206-0.0834732,0.010376-0.1251755l-2.8896179-17.703064l-0.3964233-8.0952377
			c0-0.0313263-0.010437-0.0730324-0.010437-0.1147346l-1.5543594-9.5244179v-6.0088387
			c0-0.0208836-0.0104446-0.0313263-0.0104446-0.041769c0-0.1251774-0.0208817-0.2503567-0.0730286-0.3650932l-2.5349655-6.0923138
			c-0.1669464-0.3963566-0.5424881-0.6467781-0.9701691-0.6467781H77.1601257c-0.417305,0-0.7928467,0.2504215-0.9597931,0.6467781
			l-2.5349655,6.0923138c-0.0521469,0.1147366-0.0730286,0.2399158-0.0730286,0.3650932
			c0,0.0104427-0.0103836,0.0208855-0.0103836,0.041769v6.0088387l-1.5544205,9.5244179
			c-0.010376,0.0417023-0.010376,0.0834084-0.010376,0.1147346l-0.4068604,8.0952377l-2.8792419,17.703064
			c-0.0104446,0.0417023,0,0.0834732,0,0.1251755c0,0.0313263-0.0104446,0.0521469-0.0104446,0.0834732v14.7508621
			c0,0.5841827,0.4590073,1.0431976,1.0431976,1.0431976h10.5154724c0.5841904,0,1.0431976-0.4590149,1.0431976-1.0431976
			v-0.1460648h2.3471985l0.0312653,1.2831116h5.4976807l0.0417023-1.2831116h2.3368225v0.1460648
			c0,0.5841827,0.4693832,1.0431976,1.0431976,1.0431976h10.5258484c0.5737457,0,1.0431976-0.4590149,1.0431976-1.0431976
			V68.9827499C104.1893921,68.9514236,104.1789474,68.930603,104.1685715,68.8992767z M99.369812,52.2289734l2.5558548,15.7105789
			h-3.8911133v-0.8658676c0-0.0730362-0.0104446-0.1460648-0.0417709-0.2086563l-0.0417023-0.0834122l-0.6989288-1.627388
			c-0.0834732-0.1878281-0.2712402-0.3130112-0.4798889-0.3130112h-3.4634323l-0.1251831-1.6899757l-0.3338242-4.4544182
			l-0.4902802-6.4678497H99.369812z M96.7201157,66.5520782h-5.4976883l0.1251831-0.6676636h5.0803757L96.7201157,66.5520782z
			 M96.7722626,28.3710079v0.3338318h-6.2696457v-0.3338318H96.7722626z M97.2417145,29.7480392v2.6392593h-1.4500656
			l-0.1251755-2.6392593H97.2417145z M92.7559662,35.1622467l-0.0313263-0.688549h2.1281052l0.1460648,3.2547798v0.0104408
			h-2.1281052v-0.0104408L92.7559662,35.1622467z M92.630722,32.3872986l-0.0521469-1.0536404l-0.0730286-1.585619h2.1281662
			l0.1251831,2.6392593H92.630722z M89.4594193,28.3710079v0.3338318h-6.0192795v-0.3338318H89.4594193z M83.5444946,26.0133667
			l0.1356277-0.698925h5.5393829l0.1356201,0.6884842v0.0104408H83.5444946z M91.4310837,29.7480392v2.6392593H81.468544v-2.6392593
			H91.4310837z M96.3549576,25.4082947l0.010437,0.0208836v0.0104427l0.0313263,0.0625896l0.0208206,0.0521469v0.0104408
			l0.1565094,0.4381275v0.0104408h-6.1549072l-0.1356201-0.698925h6.0297241L96.3549576,25.4082947z M77.8590469,22.2682533
			h17.1919098l0.83461,2.0029888H77.0245056L77.8590469,22.2682533z M76.3359528,26.0029259l0.0834732-0.2712421
			l0.0104446-0.0312634l0.0521469-0.1251793l0.0208817-0.041769v-0.0104408l0.0417099-0.1042957v-0.0104408l0.0313263-0.0521488
			l0.0208206-0.0417042h6.0192795l-0.1356201,0.6884842v0.0104408h-6.1548386L76.3359528,26.0029259z M76.1377411,28.3710079
			h6.259201v0.3338318h-6.259201V28.3710079z M78.1407318,32.3872986l0.1251831-2.6392593h2.1280975l-0.0312576,0.6675987
			l-0.0939178,1.9716606H78.1407318z M80.1749878,34.4736977l-0.1460648,3.2547798v0.0104408h-2.1281662v-0.0104408
			l0.1460571-3.2547798H80.1749878z M75.6683578,29.7480392h1.5647964l-0.1251755,2.6392593h-1.439621V29.7480392z
			 M74.0931168,43.1426849v-0.0208206l1.4187317-8.6481667h1.5022125l-0.17733,3.7659378
			c-0.010437,0.1356201,0.0417099,0.2816811,0.1460037,0.3755989c0.0939178,0.1042938,0.229538,0.1668854,0.3755951,0.1668854
			h3.1713104c0.0730286,0,0.1356201-0.0104446,0.187767-0.0417061c0.0208817,0,0.0417633-0.0208855,0.0625839-0.0313263
			c0.0313263-0.0208206,0.0730362-0.0417061,0.0939178-0.0625916c0.0208206-0.0208817,0.0417099-0.0417023,0.0521469-0.0625877
			c0.0208893-0.0312653,0.0521469-0.0521469,0.0625916-0.093853c0.0208817-0.0208855,0.0208817-0.0417671,0.0313263-0.0730324
			c0.010376-0.0208817,0.0208206-0.0522118,0.0312653-0.0834732l0.417305-2.8792419v-0.9806099h9.9625397v0.9806099
			l0.417244,2.8792419c0.010437,0.0312614,0.0208817,0.0625916,0.0313263,0.0834732
			c0.010437,0.0312653,0.010437,0.0521469,0.0313263,0.0730324c0.010376,0.0417061,0.0417023,0.0625877,0.0625839,0.093853
			c0.0103836,0.0208855,0.0312653,0.0417061,0.0521469,0.0625877c0.0208206,0.0208855,0.0625916,0.0417709,0.0938568,0.0625916
			c0.0208817,0.0104408,0.0417709,0.0313263,0.0625916,0.0313263c0.0522079,0.0312614,0.1147995,0.0417061,0.187767,0.0417061
			h3.1713638c0.1460648,0,0.2816849-0.0625916,0.3755341-0.1668854c0.1043015-0.0939178,0.1565094-0.2399788,0.1460648-0.3755989
			l-0.1773224-3.7659378h1.5125885l1.4083557,8.6481667v0.0208206l0.3546524,6.9998894h-6.9476776l-0.4277496-7.02071
			l-0.010376-0.1565056l-0.1982117-2.4932632c0-0.0625877-0.0313263-0.1042938-0.0417709-0.1564407
			c-0.0208206-0.0730324-0.0312653-0.1460648-0.0625916-0.2086525c-0.0208206-0.0521469-0.0625839-0.0939178-0.0938492-0.1460648
			c-0.0417709-0.0625877-0.0834732-0.1251793-0.1460648-0.1773262c-0.0313263-0.0313263-0.0834732-0.0521469-0.1251755-0.0834732
			c-0.0625916-0.0521469-0.1356201-0.093914-0.2086563-0.1251793c-0.0625916-0.0208817-0.1147385-0.0208817-0.1773224-0.0313263
			c-0.0625916-0.0103798-0.1147385-0.0417061-0.1773911-0.0417061h-8.1160583c-0.0625916,0-0.1042938,0.0313263-0.1565094,0.0313263
			c-0.0730286,0.0103798-0.1356201,0.0208244-0.198204,0.0417061c-0.0625916,0.0312653-0.1251831,0.0625916-0.1877747,0.1042938
			c-0.0521469,0.0313263-0.1042938,0.0625916-0.1564407,0.1043587c-0.0522079,0.0417061-0.0834732,0.093853-0.1251755,0.1564445
			c-0.0417709,0.0522079-0.0834732,0.093914-0.1043625,0.1565018c-0.0312576,0.0625916-0.0521469,0.1356239-0.0625839,0.1982117
			c-0.0208893,0.0521469-0.0417099,0.093853-0.0521469,0.1460648l-0.2503586,2.5454063l-0.0104446,0.1356239l-0.427681,7.02071
			h-6.9477463L74.0931168,43.1426849z M82.073555,63.3286324l0.3025665-3.4008408h8.1682053l0.2921219,3.4008408H82.073555z
			 M90.7947464,64.2570267l-0.7615814,4.1415405h-7.1563263l-0.7615204-4.1415405H90.7947464z M88.4788132,46.6165543
			l1.4709473,12.2993011h-6.9894485l1.4708786-12.2993011H88.4788132z M84.493782,45.2916718v-2.4619331h3.9224396v2.4619331
			H84.493782z M89.4489822,45.8967438c0-0.0313263,0.010437-0.0521469,0.010437-0.0834732V42.308136
			c0-0.2921257-0.2294693-0.5215988-0.5215988-0.5215988h-4.9656372c-0.2920609,0-0.5215988,0.2294731-0.5215988,0.5215988
			v3.5051346c0,0.0313263,0.010437,0.0521469,0.0208817,0.0834732L82.3343506,56.151413l0.3756027-4.9030495l0.5007172-8.0952377
			l0.1565018-1.5648003h6.1966095l0.6258926,9.6704788l0.5215988,6.1652832L89.4489822,45.8967438z M81.6875763,66.5520782
			h-5.4976196l0.2920609-0.6676636h5.0803757L81.6875763,66.5520782z M73.5401917,52.2289734h7.0103302l-0.4903412,6.4678497
			l-0.3338242,4.4544182l-0.1251831,1.6899757h-3.4634323c-0.198204,0-0.3859787,0.1251831-0.4693832,0.3130112l-0.7093735,1.627388
			l-0.0417633,0.0834122c-0.0312653,0.0625916-0.0417099,0.1356201-0.0417099,0.2086563v0.8658676h-3.8911743L73.5401917,52.2289734
			z M79.2360764,82.6904068h-8.4290695V70.0259552h4.0685043v0.9597244c0,0.2921219,0.2294769,0.5215988,0.5215988,0.5215988
			h3.8389664V82.6904068z M81.3224792,81.5011444v-7.521492h2.0863953l0.1982117,7.521492H81.3224792z M81.3224792,71.8932571
			v-0.3859787h2.0133667l0.0104446,0.3859787H81.3224792z M88.1867523,83.8274612h-3.473877l-0.3338318-12.3201828h4.1415329
			L88.1867523,83.8274612z M91.5771484,81.5011444h-2.2846146l0.1982117-7.521492h2.0864029V81.5011444z M91.5771484,71.8932571
			h-2.0238113l0.0104446-0.3859787h2.0133667V71.8932571z M75.9187164,70.4640808v-2.8687973h5.9670639l0.2503586,1.2727356
			c0.0417709,0.2085876,0.2190933,0.3546524,0.4277496,0.3546524h7.7822876c0.2085953,0,0.3859787-0.1460648,0.4276886-0.3546524
			l0.2503586-1.2727356h5.9671326v2.8687973H75.9187164z M102.1029968,82.6904068h-8.4394531V71.5072784h3.849411
			c0.2920609,0,0.5215988-0.2294769,0.5215988-0.5215988v-0.9597244h4.0684433V82.6904068z"/>
		<polygon class="st4" points="91.5771484,71.5072784 91.5771484,71.8932571 89.5533371,71.8932571 89.5637817,71.5072784 		"/>
		<polygon class="st4" points="83.3462906,71.8932571 81.3224792,71.8932571 81.3224792,71.5072784 83.3358459,71.5072784 		"/>
		<polygon class="st5" points="88.5205765,71.5072784 88.1867523,83.8274612 84.7128754,83.8274612 84.3790436,71.5072784 		"/>
		<polygon class="st4" points="83.6070862,81.5011444 81.3224792,81.5011444 81.3224792,73.9796524 83.4088745,73.9796524 		"/>
		<polygon class="st4" points="91.5771484,73.9796524 91.5771484,81.5011444 89.2925339,81.5011444 89.4907455,73.9796524 		"/>
		<polygon class="st6" points="96.7201157,66.5520782 91.2224274,66.5520782 91.3476105,65.8844147 96.4279861,65.8844147 		"/>
		<polygon class="st6" points="81.6875763,66.5520782 76.1899567,66.5520782 76.4820175,65.8844147 81.5623932,65.8844147 		"/>
		<path class="st6" d="M96.9913559,67.5952835v2.8687973H75.9187164v-2.8687973h5.9670639l0.2503586,1.2727356
			c0.0417709,0.2085876,0.2190933,0.3546524,0.4277496,0.3546524h7.7822876c0.2085953,0,0.3859787-0.1460648,0.4276886-0.3546524
			l0.2503586-1.2727356H96.9913559z"/>
		<path class="st4" d="M89.4594193,45.8132706V42.308136c0-0.2921257-0.2294693-0.5215988-0.5215988-0.5215988h-4.9656372
			c-0.2920609,0-0.5215988,0.2294731-0.5215988,0.5215988v3.5051346c0,0.0313263,0.010437,0.0521469,0.0208817,0.0834732
			L82.3343506,56.151413l0.3756027-4.9030495l0.5007172-8.0952377l0.1565018-1.5648003h6.1966095l0.6258926,9.6704788
			l0.5215988,6.1652832l-1.262291-11.5273438C89.4489822,45.8654175,89.4594193,45.8445969,89.4594193,45.8132706z"/>
		<polygon class="st5" points="90.7947464,64.2570267 90.033165,68.3985672 82.8768387,68.3985672 82.1153183,64.2570267 		"/>
		<polygon class="st7" points="90.8364487,63.3286324 82.073555,63.3286324 82.3761215,59.9277916 90.5443268,59.9277916 		"/>
		<polygon class="st7" points="89.9497604,58.9158554 82.9603119,58.9158554 84.4311905,46.6165543 88.4788132,46.6165543 		"/>
		<rect x="84.493782" y="42.8297386" class="st7" width="3.9224401" height="2.4619353"/>
		<polygon class="st2" points="80.3924789,29.7396927 80.0273209,37.7305717 77.8992157,37.7305717 78.2643051,29.7396927 		"/>
		<polygon class="st2" points="92.510376,29.7396927 92.8755341,37.7305717 95.0036392,37.7305717 94.6385422,29.7396927 		"/>
		<rect x="76.1341705" y="27.0482197" class="st3" width="6.2695751" height="1.6482729"/>
		<rect x="83.4469452" y="27.0482197" class="st3" width="6.0192809" height="1.6482729"/>
		<rect x="90.5094223" y="27.0482197" class="st3" width="6.2696385" height="1.6482729"/>
	</g>
	<g>
		<rect x="84.7965088" y="42.4885902" width="0.8150249" height="3.2370708"/>
		<rect x="87.2984695" y="42.4885902" width="0.8150249" height="3.2370708"/>
	</g>
	<rect x="85.933403" y="42.4885902" width="1.0431994" height="17.0752258"/>
	<g>
		<rect x="72.4694977" y="78.0440979" class="st3" width="1.6257554" height="2.8938446"/>
		<rect x="74.095253" y="78.0440979" class="st8" width="3.4815669" height="2.8938446"/>
	</g>
	<g>
		
			<rect x="98.8127899" y="78.0440979" transform="matrix(-1 -4.251678e-11 4.251678e-11 -1 199.2513275 158.9820404)" class="st3" width="1.6257554" height="2.8938446"/>
		
			<rect x="95.3312225" y="78.0440979" transform="matrix(-1 -4.597668e-11 4.597668e-11 -1 194.1440125 158.9820404)" class="st8" width="3.4815669" height="2.8938446"/>
	</g>
	<g>
		<rect x="70.7525864" y="84.7768097" width="4.2944446" height="1.8184838"/>
		<rect x="75.6405487" y="84.7768097" width="4.2944446" height="1.8184838"/>
		<rect x="92.9750061" y="84.7768097" width="4.2944446" height="1.8184838"/>
		<rect x="97.8629684" y="84.7768097" width="4.2944446" height="1.8184838"/>
	</g>
</g>
</svg>
