<?xml version="1.0" encoding="utf-8"?>
<!-- Generator: Adobe Illustrator 27.6.1, SVG Export Plug-In . SVG Version: 6.00 Build 0)  -->
<svg version="1.1" id="Layer_1" xmlns="http://www.w3.org/2000/svg" xmlns:xlink="http://www.w3.org/1999/xlink" x="0px" y="0px"
	 viewBox="0 0 172.8999939 90" style="enable-background:new 0 0 172.8999939 90;" xml:space="preserve">
<style type="text/css">
	.st0{fill:#888888;}
	.st1{fill:#666666;}
	.st2{fill:#CCCCCC;}
	.st3{fill:none;stroke:#000000;stroke-linecap:round;stroke-linejoin:round;stroke-miterlimit:10;}
	.st4{fill:#FFFFFF;}
	.st5{fill:#808080;}
	.st6{fill:#0099FF;}
	.st7{fill:#3751A0;}
	.st8{fill:#F79420;}
	.st9{fill:#797979;}
	.st10{fill:#BABABA;}
	.st11{fill:#C1272D;}
	.st12{enable-background:new    ;}
	.st13{clip-path:url(#SVGID_00000054246966098492641210000010370780274822408124_);}
</style>
<g>
	<path class="st0" d="M35.0867615,45.4385223L112.2919464,90l12.3705521-7.1448059l3.7101364,2.1355438l3.86763-2.2339401
		l-3.7101288-2.1355438l9.9396973-5.7375107L57.6332054,29.554615l-0.5806046-0.3247795L35.0867615,42.8404007
		C34.0829277,43.4210052,34.0829277,44.8677101,35.0867615,45.4385223z"/>
	<path d="M34.2823257,36.4854507c0,0.0203362-0.0203362,0.0406723-0.0203362,0.0508423v4.6322136
		c0,1.2900696,0.6704865,2.427803,1.7777138,3.0677834l4.2157478,2.4380341
		c0.0609474,0.0203362,0.1218948,0.0406113,0.1828423,0.0711174c0.0304451,0.0101662,0.0711174,0.0304413,0.1015587,0.0304413
		c0.1016235,0.0406723,0.2133484,0.0508423,0.3149071,0.0508423c0.1016235,0,0.1930122-0.01017,0.2946358-0.0305061
		c0.0304413-0.0203362,0.0609474-0.0304413,0.0913887-0.0406113c0.0609474-0.0203362,0.1117287-0.0406723,0.1625671-0.0609474
		l0.5180244-0.2641258c1.0666809,2.3973579,2.8545647,4.6017075,4.8760681,5.7699432
		c1.5339241,0.8939438,2.9357224,1.0260048,4.0023994,0.5282555c0.1117287-0.0609474,0.2132874-0.1016197,0.3250771-0.1727371
		l2.2043457-1.2799644l0.609478-0.3555183c0.0203362-0.0101662,0.0305061-0.0203362,0.0507812-0.0304413
		c0.5282555-0.4266968,0.90411-1.0666771,1.1377296-1.8691673c0.0812874,0.0711174,0.162571,0.142231,0.2641296,0.2031784
		l11.489109,6.6333847c0.02034,0,0.02034,0,0.0305099,0.0101662l30.1601944,17.4114571
		c0.0304413,0.02034,0.0812836,0.0304413,0.1218948,0.0507812c-0.0507812,0.3250732-0.1015549,0.6704865-0.1015549,1.0463409
		c-0.01017,3.7687149,2.6513138,8.360321,5.9324493,10.2599258c1.5237579,0.8939438,2.9357834,1.0260086,4.0024033,0.5384293
		c0.1015549-0.0609512,0.2133484-0.1117935,0.3250732-0.1829071l2.2043457-1.2799072l0.6095428-0.3454056
		c0.0101013-0.02034,0.0304413-0.0304489,0.0507812-0.0406113c0.5790329-0.4571457,0.9751587-1.1784058,1.1885071-2.0926208
		c0.1117249,0.253952,0.284462,0.4672394,0.5180893,0.5993042l4.3782501,2.5395966
		c0.0406113,0.0101624,0.0711212,0.0305023,0.1218948,0.0507736c0.0305099,0.01017,0.0711212,0.02034,0.1015625,0.0508423
		c0.1219559,0.0304413,0.2438507,0.0609512,0.3759155,0.0609512h0.0406113c0.0609512-0.02034,0.1015625-0.02034,0.1625061-0.0305099
		c0.02034,0,0.0305023,0,0.0406723-0.0101624c0.1218948-0.0202789,0.2437897-0.0609512,0.3656845-0.1218948l5.7699509-3.3319168
		l14.7601395-8.5127182c0.4266357-0.2539597,0.6704254-0.761879,0.5789642-1.2596283l-2.488739-13.9068069
		c-0.0914612-0.5282555-0.5282593-0.90411-1.0565186-0.9650574v-0.4875832c0-0.0914497-0.0202789-0.1829033-0.071106-0.2742958
		c-0.0101166-0.0203362-0.0202789-0.0305023-0.0406189-0.0609474c-0.0406036-0.0609474-0.0914459-0.1016197-0.1524048-0.1523972
		c-0.0101013,0-0.0101013-0.0304451-0.0406036-0.0304451l-2.1941833-1.2697945
		c-0.1727295-0.1117897-0.4165344-0.1117897-0.5993652,0l-0.2945709,0.1828423l-2.3114166-1.3140068l2.6455078-1.5064774
		l0.6095276,0.4875832c0.0914001,0.0609474,0.1828461,0.0914536,0.2844086,0.0914536
		c0.0711212,0,0.1320648-0.01017,0.1930084-0.0305061l1.8792725-0.8431015
		c0.0406799-0.0305023,0.0812836-0.0508385,0.1117859-0.0914497l1.7675476-1.0056686
		c0.2844086-0.162571,0.3961945-0.5180893,0.223465-0.8126602l-1.7675476-3.1999092
		c-0.0711212-0.142231-0.223465-0.2539597-0.3961945-0.3047371l-4.215683-0.9244461
		c-0.1524048-0.0406113-0.3047485-0.0101089-0.4368134,0.0609474l-1.483139,0.8533287l-17.2539368-4.1832466l-2.5497665-4.8658981
		c-0.0914459-0.142231-0.1727371-0.2539597-0.284462-0.3352432c-0.0202713-0.0202751-0.0507812-0.0507812-0.0812225-0.0710564
		c-0.0305023-0.0203362-0.0610046-0.0609474-0.1117859-0.0812836l-13.6771469-7.9290829l-0.8126602-3.0677853l0.7822113-0.4368019
		c0.1726761-0.1117897,0.2945709-0.3149071,0.2945709-0.5384235v-3.0779533c0-0.1016197-0.0304413-0.1930103-0.0812836-0.2844639
		c-0.01017-0.0203362-0.0202713-0.0304432-0.0406113-0.0609474c-0.0406113-0.0507793-0.0914536-0.1015587-0.1523972-0.152401
		c-0.0202789-0.0202732-3.9211197-2.265295-3.9211197-2.265295c-0.1726685-0.1117287-0.4062958-0.1117287-0.5993042,0
		l-4.2157516,2.4278641l-0.1930084-0.1016197c-0.3186111-0.1691895-0.6372223-0.3383789-0.9558258-0.5075684
		c-2.2880096-1.2149868-4.5760117-2.4299717-6.8640137-3.6449585c-1.1119614-0.5904808-2.2239304-1.1809607-3.3358917-1.7714415
		c-0.4858627-0.2580023-1.0536118-0.7000408-1.61866-0.735817c-0.5419235-0.0343113-1.0360947,0.2962856-1.4882965,0.54879
		c-0.7184906,0.4011974-1.4323883,0.8105841-2.1442184,1.2234631c-1.3998413,0.8119402-2.7912598,1.6383257-4.1927567,2.4474287
		c-1.7138901,0.9894524-3.4277763,1.9789028-5.1416664,2.9683552c-0.4101791,0.0718327-0.8898926,0.0085945-1.3051033,0.0126038
		c-0.3432999,0.003315-0.6866035,0.0066299-1.0299034,0.0099449c-0.3880272,0.003746-0.7364769,0.0046921-1.1075478,0.1396656
		c-0.3321342,0.1208096-0.6532936,0.3029766-0.9651222,0.4476986c-0.4063187,0.1885777-0.8126411,0.3771534-1.2189636,0.5657291
		c-0.4981079,0.2311764-0.9962158,0.4623508-1.4943275,0.6935272c-0.0203362,0.0101681-1.4018593,0.6500893-1.4018593,0.6500893
		l-12.9113083,5.9934616c-0.2234535,0.0914516-0.4368019,0.2133484-0.6399841,0.3454113
		c-0.2133484,0.14217-0.3961906,0.2844028-0.5790329,0.457077c-0.0406113,0.0406742-0.0711174,0.0711155-0.1015587,0.1117897
		c-0.6501503,0.6805935-1.0260048,1.5541973-1.0971222,2.5090885l-0.2539597,0.142231
		c-1.1072273,0.6399803-1.7777138,1.7777138-1.7777138,3.0576782
		C34.2619896,36.4245033,34.2823257,36.4651756,34.2823257,36.4854507z M112.0892563,42.6469879l15.537178,3.787056
		l-0.3453522,0.1930122c-0.02034,0.0203362-0.02034,0.0305023-0.0305023,0.0406723
		c-0.0202789,0.01017-0.0304489,0.0202751-0.0406113,0.0202751l-14.8972549-3.6042137L112.0892563,42.6469879z"/>
	<g>
		<path class="st1" d="M66.2769928,50.7315292v1.988224l-9.0974808-5.2536354
			c-0.0482445-0.7109604-0.1445885-1.4459724-0.3253632-2.1689949L66.2769928,50.7315292z"/>
		<path class="st2" d="M38.6605797,33.5293922v3.2506905l1.8996124,1.1072273
			c0.5892029-2.7020988,2.4380302-4.3477478,5.0080681-4.3477478c1.2291832,0,2.5091476,0.3860207,3.8398895,1.1377296
			c2.590374,1.513588,4.8455009,4.1750755,6.2270241,7.141304l10.6460152,6.1255226V32.6862297
			c0-0.1015587,0.0101624-0.2031784,0.0304413-0.2945709c0.01017-0.0101662,0.01017-0.0305023,0.01017-0.0406113
			c0.0305023-0.0711136,0.0609436-0.1523972,0.1016159-0.2235146l-10.6561775-5.6480503l-6.6473351,4.9988213
			c-0.0202751,0.0202751-0.0406113,0.0304432-0.0609512,0.0406113c-0.0507774,0.0406723-0.1015587,0.0812836-0.1625061,0.1016216
			c-0.0914497,0.0507793-0.1828423,0.0812206-0.284462,0.1015587c-0.0913925,0.0304432-0.1930122,0.0406113-0.2844009,0.0406113
			l-7.9299622,0.0702553c-0.0507774,0-0.1015587,0-0.1523361,0.0101681
			c-0.1218987-0.0101681-0.2437935,0.0202751-0.3656883,0.0609493c-0.2641258,0.0710526-0.5079193,0.2132835-0.7009277,0.4062958
			C38.8434219,32.6354523,38.6605797,33.0620842,38.6605797,33.5293922z"/>
	</g>
	<g>
		<g>
			<path class="st3" d="M74.2167358,30.951582"/>
		</g>
		<g>
			<path class="st3" d="M77.596611,32.9029541"/>
		</g>
	</g>
	<g>
		<g>
			<polygon class="st2" points="108.4476776,40.8979111 105.2544861,40.1870232 107.4234848,38.9458733 			"/>
			<path class="st4" d="M39.8795967,31.9040794c0.1218948-0.0406742,0.2437897-0.0711174,0.3656883-0.0609493
				c0.0507774-0.0101681,0.1015587-0.0101681,0.1523361-0.0101681l7.9337463-0.0711155
				c0.1015587,0,0.1929474-0.0101681,0.2844009-0.0406723c0.1015587-0.0202751,0.1930122-0.0507793,0.2844658-0.1015606
				c0.0507774-0.0203362,0.1117249-0.0507793,0.1625061-0.1015587c0.0203362-0.0101681,0.0406113-0.0203362,0.0609474-0.0406723
				l6.6435509-4.9979l10.6561775,5.6480503l-10.6460114-5.6582184l5.8512268-3.3827534
				c-0.4667244,0.0047817-0.9334488,0.0095654-1.400177,0.014349c-0.695549,0.0071297-1.3993492,0.0236015-2.0673218,0.2393246
				c-0.6792603,0.219368-1.2916946,0.6113167-1.9353561,0.9125996c-1.1723099,0.5487289-2.3446198,1.0974598-3.5169296,1.6461887
				c-1.3832245,0.6474514-2.7664452,1.2949028-4.1496658,1.9423561c-1.3407898,0.6275902-2.6815834,1.2551823-4.0223732,1.8827724
				c-1.0450211,0.4891491-2.0900383,0.9782963-3.1350594,1.4674454c-0.4959068,0.2321224-0.9918137,0.4642448-1.4877243,0.6963673
				C39.9025497,31.8933353,39.8910751,31.8987064,39.8795967,31.9040794z"/>
			<path class="st2" d="M39.178669,32.3103752l1.0666161-0.4672451c-0.1218987-0.0101681-0.2437935,0.0202751-0.3656883,0.0609493
				L39.178669,32.3103752z"/>
		</g>
		<polygon class="st2" points="121.2887878,79.4101028 117.7824402,81.4223709 115.7581787,70.047493 119.2524643,68.0352173 		"/>
		<path class="st2" d="M113.3361893,70.1920776l-23.0353012-13.304245c-0.1927643-0.1084785-0.349411-0.2650566-0.4578934-0.4699516
			l-3.4582443-6.3742447L68.6921387,39.7908096v14.3150024L96.73172,70.30056
			c0.4217072-1.6267471,1.3133698-2.8678284,2.5906296-3.5667267c1.7832565-0.9880829,4.0608063-0.7831802,6.4104309,0.5663757
			c4.1208878,2.3737488,7.5189743,7.8804474,7.9527512,12.7726059l1.5665131,0.9037247L113.3361893,70.1920776z
			 M86.9018936,61.2823143c0,0.202755-0.1013412,0.3829575-0.2816162,0.4843712
			c-0.0788574,0.0563087-0.1801987,0.0788612-0.2816162,0.0788612c-0.0901337,0-0.1914749-0.0225525-0.2816162-0.0788612
			l-5.3844757-3.1090584l-5.3845367-3.1090584l-5.395752-3.120266c-0.180275-0.1014137-0.2816162-0.2816162-0.2816162-0.4843712
			v-7.5473404c0-0.202755,0.1013412-0.3943062,0.2816162-0.484375c0.1689301-0.1014099,0.3829575-0.1014099,0.5632324,0
			l5.395752,3.1089935l5.3845444,3.1090584l5.3844681,3.1090584c0.180275,0.1014099,0.2816162,0.2928925,0.2816162,0.4956474
			V61.2823143z"/>
		<polygon class="st2" points="75.0064163,47.8322983 75.0064163,54.0841751 70.7371292,51.6172104 70.7371292,45.3653336 		"/>
		<polygon class="st2" points="80.3909531,50.9413567 80.3909531,57.1932335 76.1328812,54.737545 76.1328812,48.4856682 		"/>
		<polygon class="st2" points="85.7754288,54.050415 85.7754288,60.3022919 81.5174255,57.8466034 81.5174255,51.5947266 		"/>
		<path class="st2" d="M117.7221375,66.1313477l-3.3015976,1.9038696L91.7950363,54.9719048l-2.8918762-5.3379898
			l3.6389465-2.0966301l3.0244751,5.5910606c0.1084824,0.1927643,0.2651291,0.3614769,0.4578934,0.4699554L117.7221375,66.1313477z"
			/>
		<polygon class="st5" points="102.0617905,48.5734711 115.0029221,56.0741272 119.0764389,58.4308739 118.8935928,57.0391846 
			118.7513657,55.9014511 109.7563019,50.7116051 		"/>
		<polygon class="st5" points="119.3248367,60.4800568 116.0353012,62.3718643 97.5186996,51.682373 94.8436356,46.7420387 
			97.5186996,47.3324623 119.2524643,59.9258194 		"/>
		<polygon class="st5" points="119.8428879,64.576973 117.2402649,63.0707626 119.4934006,61.7693787 		"/>
		<polygon class="st1" points="122.3131256,62.9261742 122.3131256,63.7093582 121.3249741,63.1430588 121.3249741,62.3598022 		"/>
		<path class="st6" d="M124.5422821,74.011879l-1.7712631-0.4578934h-0.0842819l-1.361763-7.6395187
			c0-0.0120621-0.0120621-0.0241241-0.0241241-0.0361099c-0.0120621-0.0843582-0.0480957-0.1446686-0.0722198-0.2169571
			c-0.0239792-0.0361099-0.0239792-0.0842819-0.0481033-0.1204681l-0.1447372-1.1808472l1.5906372,0.9157867
			c0.0844345,0.048172,0.192688,0.0842819,0.2891846,0.0842819c0.1084061,0,0.2168121-0.0361099,0.301239-0.0842819
			l0.2288742-0.1325989L124.5422821,74.011879z"/>
		<polygon class="st7" points="125.5061722,71.9874725 124.5784683,64.4926147 125.3737869,64.0347214 		"/>
		<polygon class="st6" points="128.0608368,75.469841 126.7593842,74.7227631 126.5666962,63.3478813 127.8438797,62.600811 		"/>
		<path class="st6" d="M130.0730438,74.3371658l-0.8193054,0.4699554l-0.2168121-12.820858
			c0-0.0240479,0-0.048172-0.0120544-0.0602303l0.8313599-0.4820175L130.0730438,74.3371658z"/>
		<polygon class="st2" points="136.0978699,70.8547974 132.8686371,72.7225571 131.0853119,62.7574615 131.0491333,60.7572479 
			133.9891815,59.0582047 		"/>
		<path class="st1" d="M133.8687134,57.7396545l-0.096344,0.0533524l-7.9528961,4.5909195
			c-0.1203232,0.0361099-0.2288742,0.0843544-0.301239,0.1807709l-2.000145,1.1446609v-0.7831841l10.3506241-5.9766579V57.7396545z"
			/>
		<polygon class="st1" points="133.2662201,55.9132614 122.9156113,61.8898468 121.9274521,61.3114853 132.2782135,55.3349037 		"/>
		<polygon class="st2" points="129.2658081,55.6843147 126.2292633,57.4435921 126.0003967,57.3109894 125.5182343,53.5274544 		"/>
		<polygon class="st7" points="124.9036865,58.2147141 123.8796387,58.793148 123.0602036,52.2140083 124.1567612,52.4188309 		"/>
		<path class="st7" d="M131.4708405,50.1376877v0.2650566l-1.7833252,1.0362549v-0.9760208l0.5302582-0.3132286l0.650589,0.1445923
			c0.0361786,0.0119858,0.0842743,0.0119858,0.1204681,0.0119858c0.0964813,0,0.1928253-0.0119858,0.2891693-0.0722961
			L131.4708405,50.1376877z"/>
		<polygon class="st7" points="133.9409332,50.6558151 132.9770508,51.0895844 132.8324585,50.9811058 133.6517487,50.4148064 		"/>
		<polygon class="st2" points="132.9289551,49.8123245 132.6758118,49.9930992 132.6758118,49.607502 		"/>
		<polygon class="st6" points="135.7483826,49.3423691 134.85672,49.8485069 132.7240448,48.0771713 134.4953156,47.0649681 		"/>
		<polygon class="st6" points="130.9165955,48.5109406 130.6634521,49.0170784 128.1813049,48.4748306 128.1813049,47.9084587 		"/>
		<polygon class="st6" points="133.3625641,46.6673813 131.9166718,47.4988098 129.2296143,46.90839 130.6634521,46.0769577 		"/>
		<polygon class="st2" points="109.2309341,42.3920555 103.591774,41.1509819 104.0977631,40.8497391 109.0020599,41.9462242 		"/>
		<path class="st6" d="M126.9884033,49.029068l-29.566124-6.8658829l1.4458237-0.8314323l28.1082382,6.5526543v1.0723648
			C126.9763412,48.980896,126.9884033,49.0050163,126.9884033,49.029068z"/>
		<path class="st6" d="M121.9515762,51.0211029c-0.1444397,0.1325302-0.2047501,0.3252907-0.1806259,0.5181274l0.9759445,7.9166336
			l-2.1809082,1.2531395l-1.0409622-8.2244339c-0.0361862-0.2529945-0.2169571-0.4578934-0.4699554-0.5060654l-24.9705734-6.646328
			l-0.0120544-0.0119858c0-0.0120621-0.0120621-0.0120621-0.0120621-0.0241241c0,0,0-0.0120621-0.0120621-0.0120621
			c0-0.0120621-0.0119934-0.0120621-0.0119934-0.0241203c-0.0361786-0.048172-0.0603027-0.0963478-0.0964127-0.1325302
			c-0.0241241-0.0361099-0.0722961-0.0602341-0.0964203-0.0964165c-0.0722961-0.0602341-0.1325302-0.1204681-0.2168884-0.1686401
			c-0.0361099-0.0120621-0.0602264-0.0482483-0.0964127-0.0722961l-5.4630203-3.1691017l4.258049-0.2891464
			c0.4578934,0.674778,1.0242691,1.2531395,1.6508026,1.6025543c0.4097214,0.2289467,0.8073807,0.3494873,1.1447296,0.3494873
			c0.2048264,0,0.3855972-0.0361862,0.5422516-0.1205406l0.0964203-0.0361099c0.0120621,0,0.0120621,0,0.0120621-0.0120621
			l0.1083984-0.0602341l32.6026611,7.5407333v1.1446609l-6.0007019-0.8757896
			C122.2890015,50.8282661,122.0963135,50.8885727,121.9515762,51.0211029z"/>
		<path class="st6" d="M95.2774048,41.512455c0,0.3976593-0.1084061,0.5543098-0.1204681,0.5543098
			c-0.0361862,0.0120621-0.2410049,0.0240517-0.5904236-0.1807747c-1.1206818-0.6385918-2.1207504-2.3616829-2.1207504-3.6751289
			c0-0.385601,0.1084061-0.5662994,0.1566544-0.5662994c0.048172,0,0.2529907,0.0119858,0.5421753,0.1806984
			C94.2772598,38.4879799,95.2774048,40.211071,95.2774048,41.512455z"/>
		<path class="st6" d="M98.7958832,38.7410469l-0.2409363-0.048172c-0.3855209-1.2411499-1.2411499-2.4581757-2.2532806-3.1088333
			c0.0842819,0,0.2288742,0.0361137,0.4578247,0.1687126C97.6993256,36.2949333,98.5428848,37.5842552,98.7958832,38.7410469z"/>
		<path class="st6" d="M97.8921585,40.054493c0,0.2288742-0.0360336,0.3855247-0.0722198,0.4940033l-0.2290192,0.1325302
			c-0.0119171-0.4337692-0.096344-0.8796005-0.2409363-1.3374939l0.4699554,0.1084785
			C97.8561249,39.6568336,97.8921585,39.8616562,97.8921585,40.054493z"/>
		<path class="st6" d="M97.5186996,38.4518661l-0.6145477-0.1325264c-0.4699554-0.8676147-1.1326675-1.6388092-1.8798141-2.0967026
			l0.2410049-0.1445923c0.1084824,0.0241241,0.253067,0.0722961,0.4217834,0.1687126
			C96.4341965,36.6925926,97.1210403,37.5481415,97.5186996,38.4518661z"/>
		<path class="st6" d="M96.6871948,40.7533226c0,0.2168846-0.0240479,0.3735352-0.0722961,0.4820137l-0.1445923,0.0964165
			c-0.0843582-1.6388092-1.1929016-3.5667229-2.5906296-4.4583893l0.1927643-0.1084785
			c0.1084747,0.0241241,0.2410049,0.0843582,0.4217758,0.1807747
			C95.6750641,37.6324997,96.6871948,39.3796425,96.6871948,40.7533226z"/>
		<path class="st6" d="M91.6986923,40.211071l-2.2534866,0.3479881l2.0365982-0.9142876
			C91.542038,39.8375359,91.6143341,40.0183105,91.6986923,40.211071z"/>
		<polygon class="st8" points="93.8879471,22.2218208 93.8879471,23.9207916 89.5019226,26.4511909 89.5019226,24.7401581 		"/>
		<polygon class="st8" points="93.2854614,21.1735058 88.899437,23.7039051 86.2243805,22.1615143 90.5984116,19.631115 		"/>
		<polygon class="st8" points="87.6944733,24.4028072 82.72995,27.2706318 80.0428925,25.7282391 85.0194092,22.8483524 		"/>
		<polygon class="st8" points="88.2969589,25.4390602 88.2969589,27.1380291 83.332428,30.0058556 83.332428,28.3068848 		"/>
		<polygon class="st8" points="81.5249786,27.9694595 77.1268997,30.4999313 74.4518356,28.9575405 78.8379288,26.4150791 		"/>
		<polygon class="st8" points="76.5244141,31.5482464 76.5244141,33.2472153 73.84935,31.7048988 73.84935,29.9937935 		"/>
		<polygon class="st8" points="82.1274643,29.0057869 82.1274643,30.7047558 77.7293777,33.2472153 77.7293777,31.5482464 		"/>
		<polygon class="st2" points="94.3337784,32.163353 92.5866318,33.17556 91.1527176,26.8850346 92.9119263,25.8728294 		"/>
		<polygon class="st5" points="91.3093719,32.9466133 88.453537,31.2958145 88.0438919,28.6804218 90.05616,27.5236282 		"/>
		<polygon class="st2" points="81.633461,39.5016289 79.8741837,40.5137596 78.4523315,34.2232361 80.2116089,33.2111053 		"/>
		<path class="st5" d="M78.6089859,40.2848129l-2.8557663-1.650795l-0.6266098-4.8083687l1.6990509,0.9880104
			c0.0120544,0,0.0241165,0,0.0361099,0.0120583c0.0843506,0.0361862,0.1687088,0.0602341,0.2651291,0.0602341
			c0.0843582,0,0.1566467-0.0119858,0.2168808-0.0361099L78.6089859,40.2848129z"/>
		<path class="st2" d="M68.6909561,33.3904724v2.2145767l4.7642746-2.7427711l-0.5079193-0.294632
			c-0.1930084-0.1015587-0.3047333-0.3047371-0.3047333-0.5281944v-0.9244442L68.6909561,33.3904724z"/>
		<path class="st2" d="M69.8998032,37.6976738l17.3911209,10.0770836l3.3116379-1.8996124l-5.8207855-3.3725853
			c-0.3758545-0.2133484-0.6094742-0.6196442-0.6094742-1.0463409c0-0.4368019,0.2336197-0.8329315,0.6094742-1.0361099
			l9.3558807-5.4144287c0.2539597-0.142231,0.5485306-0.1930122,0.8329926-0.142231l0.6094742-0.3555183
			c0.01017-0.01017,0.02034-0.01017,0.02034-0.01017v-0.0101662c0.2336197-0.1117287,0.4469681-0.1218987,0.6196442-0.1218987
			c0.3454132,0,0.751709,0.1117287,1.1377335,0.3352432c0.9752274,0.5688667,1.8284912,1.6558189,2.3059692,2.8138885
			l2.7021027,1.5643692l3.1287918-1.8082199l-10.0770874-5.8410625l0.1828461,0.9346142v0.0202751
			c0,0.0406723,0,0.0914536-0.01017,0.1320648v0.0914497c-0.0203323,0.0507812-0.0406113,0.0812874-0.0507812,0.1218987
			c-0.0101624,0.0203362-0.0203323,0.0609474-0.0507736,0.0913887c-0.02034,0.0305061-0.0507812,0.0508423-0.0711212,0.0812836
			c-0.0305023,0.0203362-0.0609436,0.0507812-0.0914536,0.0812836c-0.0202713,0-0.0202713,0.01017-0.0304413,0.01017
			l-2.8544998,1.6558189c-0.0812836,0.0406113-0.1930084,0.0812225-0.3047333,0.0812225
			c-0.0914536,0-0.203186-0.0406113-0.2844696-0.0812225c0,0,0,0-0.0101624,0l-4.2563629-2.4583702
			c-0.1726761-0.1015587-0.274231-0.2742329-0.2844009-0.4672451l-0.3860245-2.3770847l-5.6074371,3.2201843l1.5948715,7.1311951
			c0,0.0101662-0.02034,0.0101662,0,0.0203362c0,0.0304413,0,0.0812836-0.02034,0.1320648v0.0913887
			c-0.0101624,0.0406723-0.0304413,0.0812836-0.0406113,0.1117897c-0.0101624,0.0406113-0.0305023,0.0710564-0.0507736,0.1015587
			c-0.02034,0.0304451-0.0507812,0.0406113-0.0711212,0.0711174c-0.0406723,0.0304413-0.0609436,0.0711136-0.1016159,0.0913887
			c-0.0101089,0-0.0101089,0-0.0202789,0.01017l-2.8544998,1.645649c-0.1016159,0.0609474-0.1930084,0.0812874-0.3047333,0.0812874
			c-0.0914536,0-0.203186-0.02034-0.2844696-0.0711174c-0.0101624-0.01017-0.0101624-0.01017-0.0101624-0.01017
			l-4.2563629-2.4481392c-0.1726761-0.1016197-0.274231-0.2742958-0.3047409-0.467308l-0.3961868-3.8499985L69.8998032,37.6976738z"
			/>
		<path class="st4" d="M55.7774048,26.4693146l10.6460114,5.6582184c0.0202789-0.0406113,0.0507812-0.0609474,0.0609512-0.0812836
			c0.0304413-0.0507793,0.0507812-0.0913906,0.0913925-0.1218967c0.0812836-0.1015587,0.1726685-0.1930103,0.294632-0.2641277
			c0.0101013,0,0.0101013,0,0.0101013-0.0202732l16.4769058-9.5082188l-1.77771-0.9447823l-8.665123-4.6118774
			l-15.0140343,8.6651192L55.7774048,26.4693146z"/>
	</g>
	<polygon class="st9" points="62.6649818,33.122776 62.6649818,39.2139969 53.5569649,34.0916481 57.8924332,30.4999313 	"/>
	<polygon class="st5" points="126.8799973,76.1808014 123.5060349,78.132843 123.3974762,77.5424194 126.3136978,75.8554382 	"/>
	<path class="st1" d="M39.6524086,41.550087v1.9881516l-2.4099312-1.397728
		c-0.5060654-0.2891808-0.5662994-0.7711983-0.5662994-0.9760208v-1.3255081L39.6524086,41.550087z"/>
	<g>
		<g>
			<path class="st0" d="M45.8104362,44.322979c-0.4461861-0.2576065-0.7989006-0.8774223-0.7974472-1.3901558
				c0.0014267-0.503891,0.3564987-0.715065,0.8026886-0.4574585c0.4462395,0.257637,0.8066216,0.8818779,0.8051949,1.3857689
				C46.6194191,44.3738708,46.2566795,44.5806122,45.8104362,44.322979L45.8104362,44.322979z M46.8332634,42.3456383
				c-1.4540749-0.8395081-2.6426926-0.1621246-2.6474266,1.5086594c-0.0047379,1.670784,1.1761818,3.7073669,2.6302605,4.5468788
				c1.4540215,0.8394814,2.6349411,0.1665077,2.639679-1.5042763S48.2872849,43.1851196,46.8332634,42.3456383
				L46.8332634,42.3456383z"/>
			<path class="st10" d="M45.8156776,42.4753647c-0.4461899-0.2576065-0.8012619-0.0464325-0.8026886,0.4574585
				c-0.0014534,0.5127335,0.3512611,1.1325493,0.7974472,1.3901558c0.4462433,0.2576332,0.8089828,0.0508919,0.8104362-0.4618454
				C46.6222992,43.3572426,46.2619171,42.7330017,45.8156776,42.4753647L45.8156776,42.4753647z"/>
		</g>
	</g>
	<g>
		<g>
			<path class="st0" d="M102.0318909,76.7596893c-0.4461899-0.2576065-0.7989044-0.8774185-0.7974548-1.390152
				c0.0014343-0.503891,0.3564987-0.715065,0.8026886-0.4574585c0.4462433,0.257637,0.8066254,0.8818817,0.8051987,1.3857727
				C102.8408661,76.810585,102.4781265,77.0173264,102.0318909,76.7596893L102.0318909,76.7596893z M103.0547104,74.7823563
				c-1.454071-0.8395157-2.6426926-0.1621323-2.6474228,1.5086594c-0.0047379,1.670784,1.1761856,3.7073593,2.6302567,4.546875
				c1.4540253,0.8394775,2.6349487,0.1665115,2.639679-1.5042725
				C105.6819611,77.6628265,104.5087357,75.6218338,103.0547104,74.7823563L103.0547104,74.7823563z"/>
			<path class="st10" d="M102.0371246,74.9120789c-0.4461899-0.2576065-0.8012543-0.0464325-0.8026886,0.4574585
				c-0.0014496,0.5127335,0.351265,1.1325455,0.7974548,1.390152c0.4462357,0.257637,0.8089752,0.0508957,0.8104324-0.4618378
				C102.84375,75.7939606,102.4833679,75.1697159,102.0371246,74.9120789L102.0371246,74.9120789z"/>
		</g>
	</g>
	<polygon class="st11" points="117.7221375,76.9136581 118.1953888,79.5688248 120.4093704,78.3014374 119.9360733,75.6462173 	"/>
	<polygon class="st11" points="132.6663818,68.4136276 133.1396332,71.0687943 135.3536072,69.8014069 134.8803101,67.1461945 	"/>
	<g>
		<g class="st12">
			<defs>
				<polygon id="SVGID_1_" class="st12" points="54.1699982,37.1278267 54.1660309,35.7248383 63.823246,41.1305199 
					63.8272133,42.5335083 				"/>
			</defs>
			<clipPath id="SVGID_00000165197630684671257000000004469989516591347389_">
				<use xlink:href="#SVGID_1_"  style="overflow:visible;"/>
			</clipPath>
			<g style="clip-path:url(#SVGID_00000165197630684671257000000004469989516591347389_);">
				<path d="M54.965416,36.1722984c-0.1944733-0.10886-0.3527184-0.131134-0.4891853-0.0914764
					c-0.1293106,0.0519524-0.2296448,0.1615562-0.2866402,0.3534546c-0.0427055,0.141861-0.0495338,0.2789307-0.0204124,0.4029884
					c0.0362968,0.1280746,0.086956,0.2310219,0.1518822,0.3088188c0.0721283,0.0900955,0.173027,0.1631546,0.3026428,0.2357063
					c0.1008034,0.056427,0.1943779,0.0922241,0.2735023,0.1033745c0.0719185-0.0011978,0.1437645-0.0106964,0.2083855-0.0408554
					c0.064621-0.0301285,0.1219902-0.0891876,0.1649323-0.1646156l-0.288353-0.269165
					c-0.0358086,0.0628395-0.0787926,0.1051064-0.1291275,0.1183586l-0.1726494-0.0303116l-0.1442604-0.163662
					C54.507206,36.860714,54.5141029,36.76511,54.5569,36.6398811c0.0284653-0.1084061,0.0642242-0.1712723,0.11446-0.2011871
					c0.0645981-0.0384331,0.1365166-0.0396042,0.2157326,0.0047379l0.0936928,0.0772896l0.0577927,0.1069679l0.0146637,0.0993843
					l0.3382645,0.1064606c-0.0076294-0.1451874-0.036747-0.2692451-0.1089211-0.375946
					C55.2175865,36.354908,55.1094398,36.2529144,54.965416,36.1722984"/>
				<polyline points="56.6506004,37.140461 55.6784248,36.596283 55.3365746,37.7559509 56.3231544,38.308197 
					56.4015007,38.0453949 55.7750053,37.6947098 55.846241,37.4693527 56.4079781,37.7837906 56.4791908,37.5501022 
					55.9175034,37.2356949 55.9672966,37.0480804 56.5794334,37.390728 56.6506004,37.140461 				"/>
				<path d="M57.0986748,37.9383163l0.0640335-0.2376785l0.1656113,0.0927048l0.1225319,0.1017494l0.0146866,0.1076584
					l-0.042984,0.0588493l-0.0718727,0.0011978l-0.1008034-0.0398445L57.0986748,37.9383163 M57.4787979,37.6040497
					l-0.6049118-0.3386002l-0.3490791,1.1556206l0.3672638,0.2055779l0.1352959-0.4713097l0.0359917,0.0201492l0.0793114,0.0775604
					l0.0363235,0.1197968l0.0947952,0.4674759l0.4104843,0.2297707l-0.0803185-0.4344978l-0.0290489-0.0991745l-0.0362015-0.0948563
					l-0.086586-0.0981827l0.1438828,0.0307922l0.1508751-0.0481491l0.0858345-0.1508827
					c0.0214005-0.0709038,0.0283661-0.1416245,0.0066185-0.2118073l-0.115612-0.1890526
					C57.6732674,37.7294884,57.5868263,37.6645203,57.4787979,37.6040497"/>
				<polyline points="59.1495514,38.5392647 58.0477142,37.9225044 57.9622078,38.2061729 58.3295212,38.4117775 
					58.0731239,39.2877502 58.4332085,39.4893112 58.696785,38.6173553 59.064045,38.8229332 59.1495514,38.5392647 				"/>
				<polyline points="59.6896553,38.8415909 59.3295708,38.6400299 58.9805374,39.795681 59.3478012,40.0012589 
					59.6896553,38.8415909 				"/>
				<polyline points="60.8490715,39.4905815 59.9561157,38.9907417 59.6070328,40.1463661 59.9743462,40.3519707 
					60.1168213,39.8846817 60.5704803,40.1386185 60.6417427,39.9049873 60.1808548,39.6470032 60.2449837,39.442543 
					60.7779045,39.7408485 60.8490715,39.4905815 				"/>
				<polyline points="61.4252167,39.8130798 61.0579033,39.6074753 60.7160988,40.7671738 61.0761337,40.9687042 
					61.4252167,39.8130798 				"/>
				<polyline points="62.6566696,40.5023956 61.6844482,39.9581871 61.342598,41.1178589 62.3292274,41.6701279 
					62.4075737,41.4073257 61.7810287,41.0566139 61.852314,40.8312874 62.4140015,41.1456947 62.4852638,40.9120369 
					61.9163475,40.5935822 61.97332,40.4099884 62.5854568,40.752636 62.6566696,40.5023956 				"/>
				<path d="M62.9692612,41.7217331l0.1923866-0.6299896l0.0863953,0.0483589
					c0.0936203,0.0524063,0.1585007,0.1135674,0.1874809,0.1878281c0.0217247,0.0618782,0.022007,0.1615028-0.0207672,0.2784767
					c-0.0213318,0.0957909-0.0570908,0.1586838-0.0857849,0.1840477l-0.1004982,0.0515022
					c-0.0359955-0.0035667-0.0935516-0.0274925-0.1655884-0.0678177L62.9692612,41.7217331 M63.4128342,40.9256592
					l-0.5401497-0.3023491L62.53088,41.7830048l0.5401001,0.3023262c0.0648079,0.036274,0.1367722,0.0682945,0.2231445,0.0917702
					l0.1941223,0.0009041l0.1650963-0.1065178c0.0501633-0.0548019,0.0930824-0.1385345,0.1286545-0.267807
					c0.0285568-0.0751877,0.0354767-0.162487,0.0424919-0.2331772l-0.0366745-0.2443047l-0.1300163-0.2136993
					C63.6000786,41.0470543,63.520813,40.9861031,63.4128342,40.9256592"/>
			</g>
		</g>
	</g>
</g>
</svg>
