<?xml version="1.0" encoding="utf-8"?>
<!-- Generator: Adobe Illustrator 27.6.1, SVG Export Plug-In . SVG Version: 6.00 Build 0)  -->
<svg version="1.1" id="Layer_1" xmlns="http://www.w3.org/2000/svg" xmlns:xlink="http://www.w3.org/1999/xlink" x="0px" y="0px"
	 viewBox="0 0 172.8999939 90" style="enable-background:new 0 0 172.8999939 90;" xml:space="preserve">
<style type="text/css">
	.st0{fill:#888888;}
	.st1{fill:#FFFFFF;}
	.st2{fill:none;stroke:#000000;stroke-width:2;stroke-linejoin:round;stroke-miterlimit:10;}
	.st3{fill:#0099FF;}
	.st4{fill:#BABABA;}
	.st5{fill:#CCCCCC;}
	.st6{fill:#666666;}
	.st7{fill:#B3B3B3;}
	.st8{fill:#F79420;}
	.st9{fill:#797979;}
</style>
<g>
	<path class="st0" d="M142.8791199,86.1346588H34.4175415V90h108.4615784c0.8539124,0,1.5461426-0.6922302,1.5461426-1.5461349
		v-0.7730713C144.4252625,86.826889,143.7330322,86.1346588,142.8791199,86.1346588z"/>
	<path d="M143.1747437,67.7372818h-3.3125305v-1.875c0-3.0124664-2.1499634-5.6375122-5.1000214-6.25l-13.004982-3.0999756
		l-5.7699661-8.0750275c-0.2000427-0.4499817-0.6500244-0.7374573-1.1375427-0.7374573H98.524704
		c-0.6999969,0-1.25,0.562439-1.25,1.25v7.5497513h-3.6499786l1.2249756-1.574791
		c0.1250458-0.1124573,0.2000427-0.2749634,0.2000427-0.4499817v-7.2125244c0-0.3375244-0.2875519-0.625-0.625-0.625h-4.7624969
		c-0.3375244,0-0.625,0.2874756-0.625,0.625v6.3375092l-2.5500488,2.8997879h-8.599968
		c-0.4125214-0.6125641-1.0375214-1.075058-1.7624664-1.3000488c-0.0125122,0-0.0250244-0.0125122-0.0375366-0.0125122
		l-0.0374603-0.0124359c-0.1875305-0.0500488-0.3874969-0.0875092-0.5875397-0.1000214L38.84972,48.8620148v-0.3874969
		c0-0.2999878-0.2124786-0.5500031-0.4999542-0.6124878l-5.2125549-0.9874725h-0.0749969
		c-0.0499725,0-0.1124573,0-0.1750183,0.0125122c-0.0249481,0-0.0499725,0.0124359-0.0874329,0.0249481
		c-0.0500488,0.0250244-0.1000214,0.0375366-0.137558,0.0749969c-0.0124359,0.0125122-0.0374603,0.0125122-0.0499725,0.0250244
		s-0.0250244,0.0375366-0.0375366,0.0499725c-0.0124359,0.0125122-0.0374603,0.0250244-0.0624847,0.0500488l-1.7874928,2.3749542
		c-0.9625244,1.2875366-0.9625244,3.0750275,0.0125122,4.3500519l1.4375324,1.8875122
		c0.1249695,0.1499939,0.3125,0.2374268,0.4999542,0.2374268c0.1125336,0,0.2249908-0.0249481,0.3375244-0.0874329
		l1.2249756-0.762558c0.2750397-0.174942,0.3749847-0.5374908,0.2249908-0.8249664l-0.9375-1.7874908h1.5250397v2.4124908
		c0,0,0,0,0,0.0125122c0,0.0249481,0.0125122,0.0624847,0.0249481,0.0999451
		c0.0125122,0.0500488,0.0125122,0.1000214,0.0375366,0.137558c0,0.0125122,0,0.0125122,0,0.0249481
		c0.0125122,0.0250244,0.0375366,0.0375366,0.0499725,0.062561c0.0250244,0.0374603,0.062561,0.0874329,0.1000214,0.1249695
		c0.0250244,0.0125122,0.0499725,0.0375366,0.0875092,0.0499725c0.0374603,0.0250244,0.0749969,0.0500488,0.1249695,0.062561
		c0.0125122,0.0124359,0.0250244,0.0249481,0.0375366,0.0249481l2.5499725,0.6874847l-4.9124908,9.3125153l0.0499725-0.6624603
		c0.062561-0.0250244,0.1250458-0.0500488,0.1750183-0.1000214c0.1250458-0.1000214,0.2000427-0.2625275,0.2125549-0.4250336
		l0.2249908-2.7749634c0-0.0125122,0-0.0125122,0-0.0250244s0-0.0125122,0-0.0249481v-4.5375061
		c0-0.3250122-0.2500153-0.6000519-0.5750275-0.625l-3.3125324-0.2625275c-0.0124359,0-0.0124359,0-0.0249481,0
		s-0.0125122,0-0.0250244,0c-0.0374603,0-0.0749969,0.0125122-0.1125336,0.0250244c-0.0374603,0-0.0624847,0-0.0999451,0.0125122
		c-0.0500488,0.0249481-0.0875092,0.0499725-0.1374817,0.0749969c-0.0125122,0.0249481-0.0500488,0.0374603-0.062561,0.0499725
		c-0.0374603,0.0374603-0.0624847,0.0749969-0.0875092,0.1125336c-0.0249481,0.0249481-0.0499725,0.0499725-0.0624847,0.0874329
		c-0.0125122,0.0375366-0.0249481,0.0749969-0.0374603,0.1250458c0,0.0249481-0.0250244,0.0499725-0.0250244,0.0875092
		l-0.2249908,2.8250122v4.5374298c0,0.0375366,0.0125122,0.062561,0.0250244,0.1000214
		c0,0.0375366,0.0124359,0.0749969,0.0249481,0.1125336c0.0125122,0.0499725,0.0375366,0.0749969,0.0624847,0.1124573
		c0.0125122,0.0250244,0.0250244,0.0624847,0.0375366,0.0875092c0.0125122,0,0.0125122,0,0.0250244,0.0125122
		c0.0249481,0.0250244,0.0624847,0.0499725,0.0875092,0.0749969l-0.8125305,9.4125366v1.4124298
		c0,0.0375366,0.0125122,0.062561,0.0125122,0.0875092c0.0125122,0.0500488,0.0125122,0.0875092,0.0249481,0.1250458
		c0.0250244,0.0499725,0.0375366,0.0749969,0.062561,0.1124573c0.0249481,0.0250244,0.0249481,0.062561,0.0499725,0.0749969
		c0,0.0125122,0.0125122,0.0125122,0.0125122,0.0250244c0.0374603,0.0250244,0.0749969,0.0499725,0.1124573,0.0749969
		c0.0250244,0.0250244,0.0500488,0.0499725,0.0875092,0.0624847c0.0375366,0.0125122,0.0749969,0.0250244,0.1125336,0.0375366
		c0.0374603,0,0.0624847,0.0249481,0.1000214,0.0249481l2.5624847,0.1875305h0.0374603
		c0.2249908,0,0.4125233-0.1124573,0.5250568-0.2874756c0.0124359,0,0.0249481,0.0125122,0.0374603,0.0125122
		c0.2249908,0,0.4499817-0.1250458,0.5625153-0.3500366l1.9124603-3.7874603l0.3500366-0.1125336l-0.5875397,3.0000305
		c-0.0124359,0.0749969-0.0249481,0.1499939-0.0249481,0.2375031v4.6749878c0,0,0.0499725,1.0874939,0.2874756,1.3749695
		c0.2375031,0.2999878,0.5999756,0.4624939,0.9625244,0.4624939h3.0999756c0.6500244,0,1.1750031-0.4875183,1.25-1.1249542
		c0.0250244-0.2375031,0.0624847-0.4750061,0.1125336-0.6999969h1.2749481
		c-0.1249695,0.5749512-0.1874542,1.1624908-0.1874542,1.7624664c0,4.8000336,3.8874817,8.6875153,8.6875153,8.6875153
		c4.7999573,0,8.687439-3.8874817,8.687439-8.6875153c0-0.5999756-0.0624847-1.1875153-0.174942-1.7624664h1.2249756
		c0.0499725,0.2249908,0.0875092,0.4624939,0.1124573,0.6999969c0.062561,0.6374359,0.6000519,1.1249542,1.2375641,1.1249542
		h37.5124321c0.0125122,0,0.0125122,0,0.0125122,0h13.0000305c0.6375122,0,1.1750031-0.4875183,1.2374878-1.1249542
		c0.0250244-0.2375031,0.0624847-0.4750061,0.1125336-0.6999969h1.2374878
		c-0.1125336,0.5749512-0.1750183,1.1624908-0.1750183,1.7624664c0,4.8000336,3.8874817,8.6875153,8.6875153,8.6875153
		c4.7999573,0,8.6875153-3.8874817,8.6875153-8.6875153c0-0.5999756-0.062561-1.1875153-0.1750183-1.7624664h1.7124939
		c0.0374603,0.2124786,0.0875092,0.4249573,0.1125336,0.6374359v3.7750244c0,0.6874847,0.562439,1.25,1.25,1.25h4.7749329
		c3.0000305,0,5.4375458-2.4375153,5.4375458-5.4374695V68.9872818
		C144.4247437,68.2872849,143.8622284,67.7372818,143.1747437,67.7372818z M42.8747597,60.5120239l0.5999756-1.0250092
		l5.7250214,1.0250092H42.8747597z"/>
	<g>
		<path class="st1" d="M137.3627319,65.8628006v2.1749878c-0.7125092-0.8374786-1.6999817-1.4375305-2.8499603-1.6750336
			l-13.6300659-3.2374573l-6.032486-8.6500549H99.7752228V50.200264h14.2750549l5.6949615,7.9250336
			c0.1625061,0.3624725,0.4999542,0.625,0.8874512,0.6999969l13.6300659,3.2374573
			C136.0627594,62.4377365,137.3627319,64.0377731,137.3627319,65.8628006z"/>
	</g>
	<g>
		<path class="st2" d="M75.2338715,57.7466202"/>
	</g>
	<g>
		<path class="st2" d="M80.9725571,57.7466202"/>
	</g>
	<g>
		<path class="st3" d="M72.9622269,55.8745728l-0.2624512,0.2624512c-0.0375366-0.0249481-0.0749969-0.0499725-0.1250458-0.0499725
			L38.84972,50.6370697v-0.5000305L72.9622269,55.8745728z"/>
		<g>
			
				<ellipse transform="matrix(0.1601826 -0.9870874 0.9870874 0.1601826 22.720253 189.3295288)" class="st0" cx="122.6252594" cy="81.3125305" rx="3.8499742" ry="3.8500009"/>
			
				<ellipse transform="matrix(0.1601825 -0.9870874 0.9870874 0.1601825 23.2230263 186.3830109)" class="st4" cx="121.1450272" cy="79.5438004" rx="1.1747082" ry="1.1747164"/>
		</g>
		<g>
			
				<ellipse transform="matrix(0.1601826 -0.9870874 0.9870874 0.1601826 -38.3420525 117.5593643)" class="st0" cx="49.9162331" cy="81.3125305" rx="3.8499742" ry="3.8500009"/>
			
				<ellipse transform="matrix(0.1601825 -0.9870874 0.9870874 0.1601825 -37.839283 114.6128464)" class="st4" cx="48.4360046" cy="79.5438004" rx="1.1747082" ry="1.1747164"/>
		</g>
		<polygon class="st3" points="37.6002312,49.0000153 37.6002312,49.375 33.6377525,48.6250305 33.6377525,48.2500458 		"/>
		<path class="st3" d="M33.0752373,54.3500519L32.825222,54.512558l-1.087492-1.4375305
			c-0.6375122-0.8374786-0.6500244-1.9999695-0.0125122-2.8375244l0.60005-0.7875061l-0.4375439,2.3125458v0.0624847
			c0,0.0624847,0,0.1125336,0.0125122,0.1625061c0,0.0374603,0.0125122,0.0749969,0.0250244,0.1000214
			c0.0125122,0.0249481,0.0125122,0.0499725,0.0249481,0.0749969L33.0752373,54.3500519z"/>
		<polygon class="st3" points="37.6002312,50.6500244 37.6002312,51.25 33.2502556,51.25 33.5127068,49.8625183 		"/>
		<path class="st3" d="M72.0377579,57.2624969c-0.0624847,0.1750183-0.1125336,0.3500366-0.1374817,0.5375671l-1.1000061-0.2000427
			l-32.2625389-5.1875305c0.1750183-0.0999451,0.2999878-0.2874756,0.3125-0.5124664L72.0377579,57.2624969z"/>
		<path class="st3" d="M69.9752274,58.7250519l-0.2999878,1.7874908c-0.2124786,0.0125122-0.4125214,0.0749969-0.5999756,0.1750183
			l-1.9875336,1.2124634l-23.8249626-3.7249756c-0.2625275-0.0500488-0.5125427,0.0749969-0.6500244,0.2999878l-3.5250092,6.0499573
			h-0.8625031c-0.6874847,0-1.25,0.5625153-1.25,1.25v1.1250305l-0.3624725,1.8875122l-0.7250214,1.25l-1.8250275,0.5999756
			c-0.1625061,0.0500488-0.2874756,0.1625061-0.3624725,0.2999878l-1.2374878,2.4250031l0.2124786-2.4624634
			c0.0125122-0.0125122,0.0125122-0.0125122,0.0125122-0.0125122l7.6875305-14.5625305
			c0.0249481-0.0374603,0.0249481-0.0624847,0.0374603-0.0999451c0-0.0125122,0.0125122-0.0250244,0.0125122-0.0375366
			c0.0125122-0.0125122,0-0.0250244,0.0125122-0.0499725v-0.1250458c0-0.0374603,0-0.0749969-0.0125122-0.1124573
			c0-0.0375366-0.0250244-0.0749969-0.0375366-0.1125336c-0.0124359-0.0374603-0.0249481-0.0749969-0.0499725-0.1124573
			c-0.0250244-0.0250244-0.0499725-0.0500488-0.0749969-0.0875092c-0.0375366-0.0250244-0.0624847-0.0500488-0.1000214-0.0749969
			c-0.0125122-0.0125122-0.0249481-0.0250244-0.0499725-0.0375366c-0.0125122-0.0125122-0.0375366-0.0125122-0.0624847-0.0125122
			c-0.0250244-0.0124359-0.0375366-0.0249481-0.0624847-0.0374603l-3.4625244-0.9375l0.4374695-1.0874939L69.9752274,58.7250519z"/>
		<path class="st5" d="M137.4127045,71.1127396c-0.0124359,0.0875092-0.0499725,0.1750183-0.0499725,0.2750397v2.4872665h-4.2624664
			c-2.3750305-3.2749939-6.1500549-5.2125549-10.2375031-5.2125549c-4.200058,0-7.9375458,2.0250702-10.2500153,5.2125549
			H99.7752228V54.4752426h15.0749969l6.032486,8.6500549l13.6300659,3.2374573
			c1.1499786,0.2375031,2.1374512,0.8375549,2.8499603,1.6750336v2.7999878
			C137.3627319,70.9377975,137.4002686,71.0253067,137.4127045,71.1127396z"/>
		<path class="st6" d="M141.9252625,70.2378006v3.6372452h-2.0625305v-2.4872665
			c0-0.1000214-0.0374603-0.1875305-0.0499725-0.2750397c0.0125122-0.0874329,0.0499725-0.174942,0.0499725-0.2749634v-0.5999756
			H141.9252625z"/>
		<path class="st6" d="M141.9252625,76.3750458v3.3999634c0,1.6125488-1.3124847,2.9375458-2.9375458,2.9375458h-3.5250092
			v-2.5875092c0-0.0500488,0-0.0875092-0.0124359-0.1250458c-0.1250458-1.25-0.4375458-2.4749756-0.9375-3.6249542H141.9252625z"/>
		<path class="st6" d="M111.2252655,76.3750458c-0.3375244,0.7875061-0.6124878,1.6249847-0.7749939,2.5H99.7752228v-2.5
			H111.2252655z"/>
		<polygon class="st6" points="32.5627708,57.5375366 32.5627708,60.8250427 30.5002422,60.6625366 30.5002422,57.3750305 		"/>
		<polygon class="st6" points="32.512722,62.0750427 32.4002647,63.6000061 30.3252239,63.4375 30.4502697,61.9125366 		"/>
		<polygon class="st3" points="31.9502087,64.825058 31.0877056,74.8500061 29.7752209,74.7624969 30.6502361,64.7250366 		"/>
		<path class="st7" d="M65.4627457,62.875061l-2.7249947,1.6499329H40.5377007l0.4250336-0.7249451h22.1250534
			c0.2249908,0,0.4499817-0.0624847,0.6499481-0.1875305l1.337513-0.8000183L65.4627457,62.875061z"/>
		<path class="st5" d="M70.0752487,64.2625427l-6.3500252,3.8375092c-0.1999664,0.1124573-0.4124451,0.174942-0.6499481,0.174942
			H39.2627525L37.200222,78.8750458h0.5125427c1.1374664-5.7749939,6.187439-9.9874878,12.1749878-9.9874878
			c5.9874725,0,11.0499573,4.2124939,12.1875,9.9874878h35.1999702V64.2625427H70.0752487z M95.8061142,76.8375397
			c0,0.3375244-0.2750397,0.625-0.625,0.625H69.9935837c-0.3375244,0-0.625-0.2874756-0.625-0.625V66.5000153
			c0-0.3375244,0.2874756-0.625,0.625-0.625h25.1875305c0.3499603,0,0.625,0.2874756,0.625,0.625V76.8375397z"/>
		<rect x="87.4185867" y="67.1250153" class="st5" width="7.1375275" height="9.0875244"/>
		<rect x="79.0186234" y="67.1250153" class="st5" width="7.1499634" height="9.0875244"/>
		<rect x="70.6185837" y="67.1250153" class="st5" width="7.1500397" height="9.0875244"/>
		<path class="st7" d="M81.5625763,59.7875214v0.7250214h-0.199791v-0.6625366c0-0.0249481-0.0125122-0.0499725-0.0250244-0.0624847
			H81.5625763z"/>
		<path class="st3" d="M79.0627518,60.5125427h-0.7624817c0.0499725-0.1750183,0.0875092-0.3500366,0.1124573-0.5374908
			L79.0627518,60.5125427z"/>
		<path class="st3" d="M80.4252853,60.062561v0.3624725l-2.0875549-1.7250061
			c0.0500488-0.0875092,0.0875092-0.1750183,0.1000214-0.2749634L80.4252853,60.062561z"/>
		<path class="st3" d="M72.0002213,60.5125427h-1.0624695l0.2750397-1.5750122L71.887764,59.0625
			c-0.0250244,0.1625061-0.0499725,0.3375244-0.0499725,0.5000305
			C71.8377914,59.9000549,71.9002762,60.2125549,72.0002213,60.5125427z"/>
		<path class="st3" d="M77.2127762,59.5625305c0,0.3499603-0.1000214,0.6624603-0.2500153,0.9500122h-3.6375427
			c-0.1374817-0.2875519-0.2374268-0.6000519-0.2374268-0.9500122c0-1.1250305,0.9249878-2.0500183,2.0624542-2.0500183
			C76.2877884,57.5125122,77.2127762,58.4375,77.2127762,59.5625305z"/>
		<polygon class="st5" points="93.4377136,55.1002426 90.8252563,60.2500153 86.975235,60.2500153 90.8252563,55.1002426 		"/>
		<path class="st7" d="M97.2752228,59.0000153v2.7625275H84.0625763v-2.7625275h1.2501373
			c0.0500488,0.1374817,0.137558,0.2500153,0.2750397,0.3375244c0.0875092,0.0499725,0.1999664,0.0749969,0.2999878,0.0749969
			c0.0499725,0,0.1000214-0.0250244,0.1374817-0.0375366l-0.6749725,1.2000275c-0.1125336,0.1875305-0.1125336,0.4250336,0,0.625
			c0.1124573,0.1875305,0.3250122,0.2999878,0.5374908,0.2999878h5.3624725c0.2625275,0,0.4875183-0.1499939,0.5875397-0.3874969
			l0.8124542-2.1125031H97.2752228z"/>
		<rect x="90.2877655" y="51.6503067" class="st8" width="3.5124969" height="2.1999359"/>
		<rect x="90.2877655" y="47.8877945" class="st8" width="3.5124969" height="2.5125122"/>
	</g>
	<polygon class="st9" points="104.1054611,56.8158112 112.7593079,56.8158112 116.8754196,62.8125 104.1054611,62.8125 	"/>
	<rect x="28.4752483" y="87.3667831" class="st0" width="7.7181225" height="1.4010988"/>
	<g>
		<path d="M102.7926636,67.2149734l0.4512482,0.1501083c-0.0745926,0.1390533-0.1620789,0.2555542-0.2615433,0.3494873
			c-0.0994568,0.0934677-0.2099609,0.1639175-0.3301392,0.2118073c-0.1211014,0.0474243-0.2629242,0.0704498-0.4268417,0.0704498
			c-0.1998367,0-0.3545532-0.0280914-0.4632187-0.0865707c-0.1091232-0.0580139-0.188324-0.1597748-0.2366714-0.3061981
			c-0.0478897-0.1455002-0.0382156-0.3329086,0.0294724-0.5603714c0.0902481-0.3034363,0.241272-0.5364304,0.4507828-0.6998901
			c0.2095032-0.1625366,0.4622955-0.2444992,0.7579041-0.2444992c0.2311478,0,0.3987503,0.0469666,0.503273,0.1404343
			c0.1049881,0.0934753,0.159317,0.2371368,0.166687,0.4305267l-0.5341263,0.1114273
			c-0.0009232-0.0557098-0.0064468-0.0962296-0.0179596-0.1229401c-0.0193405-0.0432816-0.0478821-0.0768967-0.0870209-0.0994568
			c-0.0391388-0.023941-0.0865707-0.0354538-0.1436615-0.0354538c-0.1289291,0-0.2417374,0.0520325-0.3416595,0.1551743
			c-0.0745926,0.0768967-0.1362915,0.1970749-0.1851044,0.3609924c-0.0607758,0.2039795-0.0718307,0.3434982-0.031311,0.4185562
			c0.0391388,0.0750504,0.1141968,0.1128082,0.2256241,0.1128082c0.1086655,0,0.1998367-0.0299301,0.2735138-0.0907135
			C102.6660385,67.4194183,102.7318878,67.3305435,102.7926636,67.2149734z"/>
		<path d="M103.8857803,66.1310654h1.5195007l-0.1165009,0.3918457h-0.9512939l-0.0870285,0.2914658h0.8822327l-0.1114273,0.3738937
			h-0.8822327l-0.1077423,0.3619156h0.97892l-0.1233978,0.4157867h-1.5471268L103.8857803,66.1310654z"/>
		<path d="M105.199913,67.9659729l0.5460968-1.8349075h0.9448547c0.1758957,0,0.3052826,0.0151978,0.3895416,0.0451279
			c0.0828857,0.0299301,0.1408997,0.08564,0.1740494,0.1666794c0.032692,0.0810394,0.0303955,0.1809616-0.0041428,0.2974548
			c-0.0299301,0.1013031-0.0778122,0.1897049-0.1431961,0.2638397c-0.0649261,0.0732117-0.142746,0.1335297-0.2329941,0.1791153
			c-0.0561752,0.029007-0.1298447,0.0538712-0.2200928,0.0722961c0.060318,0.0230179,0.1031418,0.0451202,0.1270828,0.0681458
			c0.0165787,0.0151901,0.0377579,0.0469666,0.0626221,0.0962296c0.0248642,0.0492706,0.0391388,0.0874863,0.0451202,0.1137314
			l0.1160355,0.5322876h-0.6409454l-0.1362991-0.5603714c-0.0156555-0.0732117-0.0368347-0.1201782-0.0598602-0.1422806
			c-0.0331497-0.0280838-0.0745926-0.0423584-0.1261597-0.0423584h-0.0497284l-0.2219391,0.7450104H105.199913z
			 M106.0950394,66.8742371h0.2385101c0.0257874,0,0.078743-0.0078278,0.1574783-0.0248642
			c0.040062-0.0078278,0.0759735-0.0262451,0.1091232-0.0570984c0.0331573-0.0308456,0.0557175-0.0672226,0.067688-0.1068192
			c0.0175018-0.0594025,0.0128937-0.1049881-0.0156555-0.1367569c-0.0285492-0.0308533-0.0948486-0.0469666-0.1979904-0.0469666
			h-0.2486496L106.0950394,66.8742371z"/>
		<path d="M107.5813828,66.1310654h1.723938l-0.1344528,0.4526291h-0.578331l-0.411644,1.3822784h-0.5672836l0.4116516-1.3822784
			h-0.578331L107.5813828,66.1310654z"/>
		<path d="M109.5834351,66.1310654h0.5681992l-0.5461044,1.8349075h-0.5681992L109.5834351,66.1310654z"/>
		<path d="M110.5614319,66.1310654h1.4016266l-0.1169586,0.393692h-0.8324966l-0.0957794,0.3213959h0.7109451l-0.110054,0.3697433
			h-0.7109375l-0.22332,0.7500763h-0.5691223L110.5614319,66.1310654z"/>
		<path d="M112.2909012,66.1310654h0.5681992l-0.5461044,1.8349075h-0.5681992L112.2909012,66.1310654z"/>
		<path d="M113.2661362,66.1310654h1.5195007l-0.1165009,0.3918457h-0.9512939l-0.0870285,0.2914658h0.8822327l-0.1114273,0.3738937
			h-0.8822327l-0.1077423,0.3619156h0.97892l-0.1233978,0.4157867h-1.5471268L113.2661362,66.1310654z"/>
		<path d="M115.1254501,66.1310654h0.8426285c0.1657639,0,0.2937698,0.0221024,0.382637,0.0672302
			c0.0888672,0.0446625,0.1542511,0.1100464,0.195694,0.1938477c0.0414352,0.0847244,0.0607758,0.1828003,0.0580139,0.2942276
			c-0.0041428,0.1118927-0.023941,0.2302322-0.0607758,0.3554688c-0.0589447,0.1961594-0.1261673,0.3485641-0.2035217,0.4563141
			c-0.0764389,0.1086655-0.1657639,0.1984558-0.267067,0.2716675c-0.1008377,0.0736694-0.1998367,0.1220169-0.2983704,0.1459656
			c-0.1344528,0.0336075-0.2514114,0.0501862-0.3527069,0.0501862h-0.8426285L115.1254501,66.1310654z M115.5693283,66.5468521
			l-0.2988358,1.0024109h0.1390533c0.1178818,0,0.206749-0.0133514,0.2638397-0.0395966
			c0.0589371-0.0267105,0.1114349-0.0722961,0.159317-0.1376801c0.0478897-0.0653839,0.0934753-0.1722107,0.1372147-0.318634
			c0.0580215-0.194313,0.0663071-0.3273773,0.0239487-0.3987503c-0.0419006-0.0727539-0.1362991-0.1077499-0.283638-0.1077499
			H115.5693283z"/>
	</g>
	<polygon points="95.022583,54.622982 91.8377533,61.1125183 91.9417038,58.8040848 94.216423,54.7491417 	"/>
</g>
</svg>
