<?xml version="1.0" encoding="utf-8"?>
<!-- Generator: Adobe Illustrator 27.6.1, SVG Export Plug-In . SVG Version: 6.00 Build 0)  -->
<svg version="1.1" id="Layer_1" xmlns="http://www.w3.org/2000/svg" xmlns:xlink="http://www.w3.org/1999/xlink" x="0px" y="0px"
	 viewBox="0 0 172.8999939 90" style="enable-background:new 0 0 172.8999939 90;" xml:space="preserve">
<style type="text/css">
	.st0{fill:#888888;}
	.st1{fill:#FFFFFF;}
	.st2{fill:none;stroke:#000000;stroke-width:2;stroke-linejoin:round;stroke-miterlimit:10;}
	.st3{fill:#0099FF;}
	.st4{fill:#BABABA;}
	.st5{fill:#CCCCCC;}
	.st6{fill:#666666;}
	.st7{fill:#B3B3B3;}
	.st8{fill:#F79420;}
	.st9{fill:#797979;}
</style>
<g>
	<path class="st0" d="M30.0208683,86.1346588h108.461586V90H30.0208683c-0.8539066,0-1.5461349-0.6922302-1.5461349-1.5461349
		v-0.7730713C28.4747334,86.826889,29.1669617,86.1346588,30.0208683,86.1346588z"/>
	<path d="M28.4752483,68.9872818v10.7872849c0,2.9999542,2.4375153,5.4374695,5.4375439,5.4374695h4.7749329
		c0.687561,0,1.25-0.5625153,1.25-1.25v-3.7750244c0.0250244-0.2124786,0.0750732-0.4249573,0.1125336-0.6374359h1.7124939
		c-0.1124573,0.5749512-0.1750183,1.1624908-0.1750183,1.7624664c0,4.8000336,3.887558,8.6875153,8.6875153,8.6875153
		c4.8000336,0,8.6875153-3.8874817,8.6875153-8.6875153c0-0.5999756-0.0624847-1.1875153-0.1750183-1.7624664h1.2374878
		c0.0500488,0.2249908,0.0875092,0.4624939,0.1125336,0.6999969c0.0624847,0.6374359,0.5999756,1.1249542,1.2374878,1.1249542
		h13.0000343c0,0,0,0,0.0125122,0h37.5124359c0.6375122,0,1.1750031-0.4875183,1.2375641-1.1249542
		c0.0249481-0.2375031,0.0624847-0.4750061,0.1124573-0.6999969h1.2249756
		c-0.1124573,0.5749512-0.174942,1.1624908-0.174942,1.7624664c0,4.8000336,3.8874817,8.6875153,8.687439,8.6875153
		c4.8000336,0,8.6875153-3.8874817,8.6875153-8.6875153c0-0.5999756-0.0624847-1.1875153-0.1874542-1.7624664h1.2749481
		c0.0500488,0.2249908,0.0875092,0.4624939,0.1125336,0.6999969c0.0749969,0.6374359,0.5999756,1.1249542,1.25,1.1249542h3.0999756
		c0.3625488,0,0.7250214-0.1625061,0.9625244-0.4624939c0.2375031-0.2874756,0.2874756-1.3749695,0.2874756-1.3749695v-4.6749878
		c0-0.0875092-0.0125122-0.1625061-0.0249481-0.2375031l-0.5875397-3.0000305l0.3500366,0.1125336l1.9124603,3.7874603
		c0.1125336,0.2249908,0.3375244,0.3500366,0.5625153,0.3500366c0.0125122,0,0.0250244-0.0125122,0.0374603-0.0125122
		c0.1125336,0.1750183,0.3000641,0.2874756,0.5250549,0.2874756h0.0374603l2.5624847-0.1875305
		c0.0375366,0,0.062561-0.0249481,0.1000214-0.0249481c0.0375366-0.0125122,0.0749969-0.0250244,0.1125336-0.0375366
		c0.0374603-0.0125122,0.0624847-0.0374603,0.0875092-0.0624847c0.0374603-0.0250244,0.0749969-0.0499725,0.1124573-0.0749969
		c0-0.0125122,0.0125122-0.0125122,0.0125122-0.0250244c0.0250244-0.0124359,0.0250244-0.0499725,0.0499725-0.0749969
		c0.0250244-0.0374603,0.0375366-0.0624847,0.062561-0.1124573c0.0124359-0.0375366,0.0124359-0.0749969,0.0249481-0.1250458
		c0-0.0249481,0.0125122-0.0499725,0.0125122-0.0875092v-1.4124298l-0.8125305-9.4125366
		c0.0250244-0.0250244,0.062561-0.0499725,0.0875092-0.0749969c0.0125122-0.0125122,0.0125122-0.0125122,0.0250244-0.0125122
		c0.0125122-0.0250244,0.0250244-0.0624847,0.0375366-0.0875092c0.0249481-0.0374603,0.0499725-0.0624847,0.0624847-0.1124573
		c0.0125122-0.0375366,0.0249481-0.0749969,0.0249481-0.1125336c0.0125122-0.0374603,0.0250244-0.0624847,0.0250244-0.1000214
		v-4.5374298l-0.2249908-2.8250122c0-0.0375366-0.0250244-0.062561-0.0250244-0.0875092
		c-0.0125122-0.0500488-0.0249481-0.0875092-0.0374603-0.1250458c-0.0125122-0.0374603-0.0375366-0.0624847-0.0624847-0.0874329
		c-0.0250244-0.0375366-0.0500488-0.0750732-0.0875092-0.1125336c-0.0125122-0.0125122-0.0500488-0.0250244-0.062561-0.0499725
		c-0.0499725-0.0250244-0.0874329-0.0500488-0.1374817-0.0749969c-0.0374603-0.0125122-0.0624847-0.0125122-0.0999451-0.0125122
		c-0.0375366-0.0125122-0.0750732-0.0250244-0.1125336-0.0250244c-0.0125122,0-0.0125122,0-0.0250244,0s-0.0125122,0-0.0249481,0
		l-3.3125305,0.2625275c-0.3250122,0.0249481-0.5750275,0.2999878-0.5750275,0.625v4.5375061c0,0.0124359,0,0.0124359,0,0.0249481
		s0,0.0125122,0,0.0250244l0.2249908,2.7749634c0.0125122,0.1625061,0.0875092,0.3250122,0.2125549,0.4250336
		c0.0499725,0.0499725,0.1124573,0.0749969,0.1750183,0.1000214l0.0499725,0.6624603l-4.9124908-9.3125153l2.5499725-0.6874847
		c0.0125122,0,0.0250244-0.0125122,0.0375366-0.0249481c0.0499725-0.0125122,0.0875092-0.0375366,0.1249695-0.062561
		c0.0375366-0.0124359,0.0624847-0.0374603,0.0875092-0.0499725c0.0374603-0.0375366,0.0749969-0.0875092,0.1000214-0.1249695
		c0.0124359-0.0250244,0.0374603-0.0375366,0.0499725-0.062561c0-0.0124359,0-0.0124359,0-0.0249481
		c0.0250244-0.0375366,0.0250244-0.0875092,0.0375366-0.137558c0.0124359-0.0374603,0.0249481-0.0749969,0.0249481-0.0999451
		c0-0.0125122,0-0.0125122,0-0.0125122v-2.4124908h1.5250397l-0.9375,1.7874908
		c-0.1499939,0.2874756-0.0500488,0.6500244,0.2249908,0.8249664l1.2249756,0.762558
		c0.1125336,0.0624847,0.2249908,0.0874329,0.3375244,0.0874329c0.1874542,0,0.3749847-0.0874329,0.4999542-0.2374268
		l1.4375305-1.8875122c0.9750366-1.2750244,0.9750366-3.0625153,0.0125122-4.3500519l-1.7874908-2.3749542
		c-0.0250244-0.0250244-0.0500488-0.0375366-0.0624847-0.0500488c-0.0125122-0.0124359-0.0250244-0.0374603-0.0375366-0.0499725
		s-0.0375366-0.0125122-0.0499725-0.0250244c-0.0375366-0.0374603-0.0875092-0.0499725-0.137558-0.0749969
		c-0.0374603-0.0125122-0.0624847-0.0249481-0.0874329-0.0249481c-0.062561-0.0125122-0.1250458-0.0125122-0.1750183-0.0125122
		h-0.0749969l-5.2125549,0.9874725c-0.2874756,0.0624847-0.4999542,0.3125-0.4999542,0.6124878v0.3874969L97.437767,55.0745544
		c-0.2000427,0.0125122-0.4000092,0.0499725-0.5875397,0.1000214l-0.0374603,0.0124359
		c-0.0125122,0-0.0250244,0.0125122-0.0375366,0.0125122c-0.7249451,0.2249908-1.3499451,0.6874847-1.7624664,1.3000488h-8.599968
		l-2.5500488-2.8997879v-6.3375092c0-0.3375244-0.2874756-0.625-0.625-0.625h-4.7624969c-0.3374481,0-0.625,0.2874756-0.625,0.625
		v7.2125244c0,0.1750183,0.0749969,0.3375244,0.2000427,0.4499817l1.2249756,1.574791h-3.6499786v-7.5497513
		c0-0.687561-0.5500031-1.25-1.25-1.25H58.0502892c-0.4875183,0-0.9375,0.2874756-1.1375427,0.7374573l-5.7699623,8.0750275
		l-13.0049858,3.0999756c-2.950058,0.6124878-5.1000214,3.2375336-5.1000214,6.25v1.875h-3.3125286
		C29.0377636,67.7372818,28.4752483,68.2872849,28.4752483,68.9872818z M123.7002411,60.5120239l5.7250214-1.0250092
		l0.5999756,1.0250092H123.7002411z"/>
	<g>
		<path class="st1" d="M35.5372658,65.8628006v2.1749878c0.7125092-0.8374786,1.6999817-1.4375305,2.8499603-1.6750336
			l13.6300583-3.2374573l6.0324936-8.6500549h15.0749931V50.200264H58.84972l-5.6949692,7.9250336
			c-0.1625061,0.3624725-0.4999542,0.625-0.8874512,0.6999969l-13.6300583,3.2374573
			C36.8372383,62.4377365,35.5372658,64.0377731,35.5372658,65.8628006z"/>
	</g>
	<g>
		<path class="st2" d="M97.6661224,57.7466202"/>
	</g>
	<g>
		<path class="st2" d="M91.9274368,57.7466202"/>
	</g>
	<g>
		<path class="st3" d="M99.937767,55.8745728l0.2624512,0.2624512c0.0375366-0.0249481,0.0749969-0.0499725,0.1250458-0.0499725
			l33.7250137-5.4499817v-0.5000305L99.937767,55.8745728z"/>
		<g>
			
				<ellipse transform="matrix(0.9870874 -0.1601826 0.1601826 0.9870874 -12.3756733 9.1030922)" class="st0" cx="50.2747383" cy="81.3125305" rx="3.8500009" ry="3.8499742"/>
			
				<ellipse transform="matrix(0.9870874 -0.1601825 0.1601825 0.9870874 -12.0732355 9.3173561)" class="st4" cx="51.7549667" cy="79.5438004" rx="1.1747164" ry="1.1747082"/>
		</g>
		<g>
			
				<ellipse transform="matrix(0.9870874 -0.1601826 0.1601826 0.9870874 -11.4368134 20.749815)" class="st0" cx="122.983757" cy="81.3125305" rx="3.8500009" ry="3.8499742"/>
			
				<ellipse transform="matrix(0.9870874 -0.1601825 0.1601825 0.9870874 -11.1343756 20.9640732)" class="st4" cx="124.4639893" cy="79.5438004" rx="1.1747164" ry="1.1747082"/>
		</g>
		<polygon class="st3" points="135.2997589,49.0000153 135.2997589,49.375 139.2622375,48.6250305 139.2622375,48.2500458 		"/>
		<path class="st3" d="M139.8247528,54.3500519l0.2500153,0.1625061l1.0874939-1.4375305
			c0.6375122-0.8374786,0.6500244-1.9999695,0.0125122-2.8375244l-0.6000519-0.7875061l0.4375458,2.3125458v0.0624847
			c0,0.0624847,0,0.1125336-0.0125122,0.1625061c0,0.0374603-0.0125122,0.0749969-0.0250244,0.1000214
			c-0.0125122,0.0249481-0.0125122,0.0499725-0.0249481,0.0749969L139.8247528,54.3500519z"/>
		<polygon class="st3" points="135.2997589,50.6500244 135.2997589,51.25 139.6497345,51.25 139.3872833,49.8625183 		"/>
		<path class="st3" d="M100.862236,57.2624969c0.0624847,0.1750183,0.1125336,0.3500366,0.1374817,0.5375671l1.1000061-0.2000427
			l32.2625351-5.1875305c-0.1750183-0.0999451-0.2999878-0.2874756-0.3125-0.5124664L100.862236,57.2624969z"/>
		<path class="st3" d="M102.9247665,58.7250519l0.2999878,1.7874908c0.2124786,0.0125122,0.4125214,0.0749969,0.5999756,0.1750183
			l1.9875336,1.2124634l23.8249588-3.7249756c0.2625275-0.0500488,0.5125427,0.0749969,0.6500244,0.2999878l3.5250092,6.0499573
			h0.8625031c0.6874847,0,1.25,0.5625153,1.25,1.25v1.1250305l0.3624725,1.8875122l0.7250214,1.25l1.8250275,0.5999756
			c0.1625061,0.0500488,0.2874756,0.1625061,0.3624725,0.2999878l1.2374878,2.4250031l-0.2124786-2.4624634
			c-0.0125122-0.0125122-0.0125122-0.0125122-0.0125122-0.0125122l-7.6875305-14.5625305
			c-0.0249481-0.0374603-0.0249481-0.0624847-0.0374603-0.0999451c0-0.0125122-0.0125122-0.0250244-0.0125122-0.0375366
			c-0.0125122-0.0125122,0-0.0250244-0.0125122-0.0499725v-0.1250458c0-0.0374603,0-0.0749969,0.0125122-0.1124573
			c0-0.0375366,0.0250244-0.0749969,0.0375366-0.1125336c0.0124359-0.0374603,0.0249481-0.0749969,0.0499725-0.1124573
			c0.0250244-0.0250244,0.0499725-0.0500488,0.0749969-0.0875092c0.0375366-0.0250244,0.0624847-0.0500488,0.1000214-0.0749969
			c0.0125122-0.0125122,0.0249481-0.0250244,0.0499725-0.0375366c0.0125122-0.0125122,0.0375366-0.0125122,0.0624847-0.0125122
			c0.0250244-0.0124359,0.0375366-0.0249481,0.0624847-0.0374603l3.4625244-0.9375l-0.4374695-1.0874939L102.9247665,58.7250519z"/>
		<path class="st5" d="M35.4872932,71.1127396c0.0124359,0.0875092,0.0499725,0.1750183,0.0499725,0.2750397v2.4872665h4.2624664
			c2.3750305-3.2749939,6.1500549-5.2125549,10.2375031-5.2125549c4.200058,0,7.9375458,2.0250702,10.2500153,5.2125549h12.8375206
			V54.4752426H58.049778l-6.0324936,8.6500549l-13.6300583,3.2374573c-1.1499786,0.2375031-2.1374512,0.8375549-2.8499603,1.6750336
			v2.7999878C35.5372658,70.9377975,35.4997292,71.0253067,35.4872932,71.1127396z"/>
		<path class="st6" d="M30.9747334,70.2378006v3.6372452h2.0625324v-2.4872665c0-0.1000214,0.0374603-0.1875305,0.0499725-0.2750397
			c-0.0125122-0.0874329-0.0499725-0.174942-0.0499725-0.2749634v-0.5999756H30.9747334z"/>
		<path class="st6" d="M30.9747334,76.3750458v3.3999634c0,1.6125488,1.3124866,2.9375458,2.9375477,2.9375458h3.5250092v-2.5875092
			c0-0.0500488,0-0.0875092,0.0124359-0.1250458c0.1250458-1.25,0.4375458-2.4749756,0.9375-3.6249542H30.9747334z"/>
		<path class="st6" d="M61.6747322,76.3750458c0.3375244,0.7875061,0.6124878,1.6249847,0.7749939,2.5h10.675045v-2.5H61.6747322z"
			/>
		<polygon class="st6" points="140.3372192,57.5375366 140.3372192,60.8250427 142.3997498,60.6625366 142.3997498,57.3750305 		"/>
		<polygon class="st6" points="140.3872681,62.0750427 140.4997253,63.6000061 142.5747681,63.4375 142.4497223,61.9125366 		"/>
		<polygon class="st3" points="140.9497833,64.825058 141.8122864,74.8500061 143.1247711,74.7624969 142.2497559,64.7250366 		"/>
		<path class="st7" d="M107.4372482,62.875061l2.7249908,1.6499329h22.2000504l-0.4250336-0.7249451h-22.1250534
			c-0.2249908,0-0.4499817-0.0624847-0.6499481-0.1875305L107.8247452,62.8125L107.4372482,62.875061z"/>
		<path class="st5" d="M75.6247711,64.2625427v14.6125031h35.1999664c1.1375427-5.7749939,6.2000275-9.9874878,12.1875-9.9874878
			c5.9875488,0,11.0375214,4.2124939,12.1749878,9.9874878h0.5125427l-2.0625305-10.6000519h-23.8125229
			c-0.2375031,0-0.4499817-0.0624847-0.6499481-0.174942l-6.3500214-3.8375092H75.6247711z M77.0938797,66.5000153
			c0-0.3375244,0.2750397-0.625,0.625-0.625h25.1875305c0.3375244,0,0.625,0.2874756,0.625,0.625v10.3375244
			c0,0.3375244-0.2874756,0.625-0.625,0.625H77.7188797c-0.3499603,0-0.625-0.2874756-0.625-0.625V66.5000153z"/>
		<rect x="78.3438797" y="67.1250153" class="st5" width="7.1375275" height="9.0875244"/>
		<rect x="86.7314072" y="67.1250153" class="st5" width="7.1499634" height="9.0875244"/>
		<rect x="95.1313705" y="67.1250153" class="st5" width="7.1500397" height="9.0875244"/>
		<path class="st7" d="M91.3374176,59.7875214v0.7250214h0.199791v-0.6625366c0-0.0249481,0.0125122-0.0499725,0.0250244-0.0624847
			H91.3374176z"/>
		<path class="st3" d="M93.8372421,60.5125427h0.7624817c-0.0499725-0.1750183-0.0875092-0.3500366-0.1124573-0.5374908
			L93.8372421,60.5125427z"/>
		<path class="st3" d="M92.4747086,60.062561v0.3624725l2.0875549-1.7250061
			c-0.0500488-0.0875092-0.0875092-0.1750183-0.1000214-0.2749634L92.4747086,60.062561z"/>
		<path class="st3" d="M100.8997726,60.5125427h1.0624695l-0.2750397-1.5750122L101.0122299,59.0625
			c0.0250244,0.1625061,0.0499725,0.3375244,0.0499725,0.5000305
			C101.0622025,59.9000549,100.9997177,60.2125549,100.8997726,60.5125427z"/>
		<path class="st3" d="M95.6872177,59.5625305c0,0.3499603,0.1000214,0.6624603,0.2500153,0.9500122h3.6375427
			c0.1374817-0.2875519,0.2374268-0.6000519,0.2374268-0.9500122c0-1.1250305-0.9249878-2.0500183-2.0624542-2.0500183
			C96.6122055,57.5125122,95.6872177,58.4375,95.6872177,59.5625305z"/>
		<polygon class="st5" points="79.4622803,55.1002426 82.0747375,60.2500153 85.9247589,60.2500153 82.0747375,55.1002426 		"/>
		<path class="st7" d="M75.6247711,59.0000153v2.7625275h13.2126465v-2.7625275h-1.2501373
			c-0.0500488,0.1374817-0.137558,0.2500153-0.2750397,0.3375244c-0.0875092,0.0499725-0.1999664,0.0749969-0.2999878,0.0749969
			c-0.0499725,0-0.1000214-0.0250244-0.1374817-0.0375366l0.6749725,1.2000275c0.1125336,0.1875305,0.1125336,0.4250336,0,0.625
			c-0.1124573,0.1875305-0.3250122,0.2999878-0.5374908,0.2999878h-5.3624725c-0.2625275,0-0.4875183-0.1499939-0.5875397-0.3874969
			l-0.8124542-2.1125031H75.6247711z"/>
		<rect x="79.0997314" y="51.6503067" class="st8" width="3.5124969" height="2.1999359"/>
		<rect x="79.0997314" y="47.8877945" class="st8" width="3.5124969" height="2.5125122"/>
	</g>
	<polygon class="st9" points="68.7945328,56.8158112 60.1406898,56.8158112 56.0245743,62.8125 68.7945328,62.8125 	"/>
	
		<rect x="136.7066193" y="87.3667831" transform="matrix(-1 -4.477897e-11 4.477897e-11 -1 281.1313782 176.1346588)" class="st0" width="7.7181225" height="1.4010988"/>
	<g>
		<path d="M57.5923271,67.2149734l0.4512444,0.1501083c-0.0745926,0.1390533-0.1620789,0.2555542-0.2615395,0.3494873
			c-0.0994568,0.0934677-0.2099648,0.1639175-0.330143,0.2118073c-0.1211014,0.0474243-0.2629204,0.0704498-0.4268417,0.0704498
			c-0.1998367,0-0.3545494-0.0280914-0.4632149-0.0865707c-0.109127-0.0580139-0.1883278-0.1597748-0.2366753-0.3061981
			c-0.0478859-0.1455002-0.0382156-0.3329086,0.0294724-0.5603714c0.0902481-0.3034363,0.2412758-0.5364304,0.4507828-0.6998901
			c0.209507-0.1625366,0.4622955-0.2444992,0.7579041-0.2444992c0.2311478,0,0.3987541,0.0469666,0.5032768,0.1404343
			c0.1049843,0.0934753,0.159317,0.2371368,0.1666832,0.4305267l-0.5341263,0.1114273
			c-0.0009193-0.0557098-0.006443-0.0962296-0.0179558-0.1229401c-0.0193405-0.0432816-0.0478859-0.0768967-0.0870247-0.0994568
			c-0.0391388-0.023941-0.0865669-0.0354538-0.1436615-0.0354538c-0.1289291,0-0.2417412,0.0520325-0.3416595,0.1551743
			c-0.0745926,0.0768967-0.1362915,0.1970749-0.1851006,0.3609924c-0.0607796,0.2039795-0.0718307,0.3434982-0.031311,0.4185562
			c0.0391388,0.0750504,0.114193,0.1128082,0.2256241,0.1128082c0.1086655,0,0.1998367-0.0299301,0.2735062-0.0907135
			C57.4657021,67.4194183,57.5315475,67.3305435,57.5923271,67.2149734z"/>
		<path d="M58.6854439,66.1310654h1.5194931l-0.1164932,0.3918457H59.137146l-0.0870247,0.2914658h0.8822289l-0.1114311,0.3738937
			h-0.8822289l-0.1077461,0.3619156h0.9789276L59.68647,67.9659729h-1.5471268L58.6854439,66.1310654z"/>
		<path d="M59.9995766,67.9659729l0.5460968-1.8349075h0.9448509c0.1758919,0,0.3052826,0.0151978,0.3895454,0.0451279
			c0.0828781,0.0299301,0.1408958,0.08564,0.1740494,0.1666794c0.032692,0.0810394,0.0303917,0.1809616-0.0041428,0.2974548
			c-0.0299301,0.1013031-0.077816,0.1897049-0.1432037,0.2638397c-0.0649223,0.0732117-0.1427383,0.1335297-0.2329865,0.1791153
			c-0.0561752,0.029007-0.1298485,0.0538712-0.2200966,0.0722961c0.060318,0.0230179,0.1031418,0.0451202,0.1270828,0.0681458
			c0.0165787,0.0151901,0.0377579,0.0469666,0.0626221,0.0962296c0.0248642,0.0492706,0.0391388,0.0874863,0.0451241,0.1137314
			l0.1160355,0.5322876h-0.6409531l-0.1362915-0.5603714c-0.0156555-0.0732117-0.0368385-0.1201782-0.0598602-0.1422806
			c-0.0331535-0.0280838-0.0745926-0.0423584-0.1261635-0.0423584h-0.0497284l-0.2219391,0.7450104H59.9995766z
			 M60.8946991,66.8742371h0.2385139c0.0257835,0,0.0787354-0.0078278,0.1574745-0.0248642
			c0.0400581-0.0078278,0.0759735-0.0262451,0.109127-0.0570984c0.0331535-0.0308456,0.0557137-0.0672226,0.067688-0.1068192
			c0.017498-0.0594025,0.0128937-0.1049881-0.0156555-0.1367569c-0.0285492-0.0308533-0.0948524-0.0469666-0.1979942-0.0469666
			h-0.2486458L60.8946991,66.8742371z"/>
		<path d="M62.3810425,66.1310654h1.723938l-0.1344528,0.4526291h-0.578331l-0.411644,1.3822784h-0.5672798l0.411644-1.3822784
			h-0.5783272L62.3810425,66.1310654z"/>
		<path d="M64.3830948,66.1310654h0.5681992l-0.5460968,1.8349075h-0.568203L64.3830948,66.1310654z"/>
		<path d="M65.3610992,66.1310654h1.401619l-0.1169586,0.393692h-0.8324966l-0.0957794,0.3213959h0.7109451l-0.110054,0.3697433
			h-0.7109375l-0.22332,0.7500763h-0.5691223L65.3610992,66.1310654z"/>
		<path d="M67.0905609,66.1310654h0.5681992l-0.5460968,1.8349075h-0.5681992L67.0905609,66.1310654z"/>
		<path d="M68.0657959,66.1310654h1.5195007l-0.1164932,0.3918457h-0.9513016l-0.0870209,0.2914658h0.882225l-0.1114273,0.3738937
			H68.319046l-0.1077423,0.3619156h0.97892l-0.1233978,0.4157867h-1.5471268L68.0657959,66.1310654z"/>
		<path d="M69.9251099,66.1310654h0.8426285c0.1657639,0,0.2937698,0.0221024,0.382637,0.0672302
			c0.0888672,0.0446625,0.1542511,0.1100464,0.195694,0.1938477c0.0414429,0.0847244,0.0607758,0.1828003,0.0580139,0.2942276
			c-0.0041428,0.1118927-0.023941,0.2302322-0.0607758,0.3554688c-0.0589371,0.1961594-0.1261673,0.3485641-0.2035217,0.4563141
			c-0.0764389,0.1086655-0.1657639,0.1984558-0.267067,0.2716675c-0.1008377,0.0736694-0.1998367,0.1220169-0.2983704,0.1459656
			c-0.1344528,0.0336075-0.2514038,0.0501862-0.3527069,0.0501862h-0.8426285L69.9251099,66.1310654z M70.368988,66.5468521
			l-0.2988358,1.0024109h0.1390533c0.1178818,0,0.206749-0.0133514,0.2638397-0.0395966
			c0.0589447-0.0267105,0.1114349-0.0722961,0.159317-0.1376801c0.0478897-0.0653839,0.0934753-0.1722107,0.1372223-0.318634
			c0.0580139-0.194313,0.0662994-0.3273773,0.023941-0.3987503c-0.0419006-0.0727539-0.1362991-0.1077499-0.283638-0.1077499
			H70.368988z"/>
	</g>
	<polygon points="77.8774109,54.622982 81.0622406,61.1125183 80.9582901,58.8040848 78.6835709,54.7491417 	"/>
</g>
</svg>
