<?xml version="1.0" encoding="utf-8"?>
<!-- Generator: Adobe Illustrator 27.6.1, SVG Export Plug-In . SVG Version: 6.00 Build 0)  -->
<svg version="1.1" id="Layer_1" xmlns="http://www.w3.org/2000/svg" xmlns:xlink="http://www.w3.org/1999/xlink" x="0px" y="0px"
	 viewBox="0 0 172.8999939 90" style="enable-background:new 0 0 172.8999939 90;" xml:space="preserve">
<style type="text/css">
	.st0{fill:#888888;}
	.st1{fill:#CCCCCC;}
	.st2{fill:#FFFFFF;}
	.st3{fill:none;stroke:#000000;stroke-linecap:round;stroke-linejoin:round;stroke-miterlimit:10;}
	.st4{fill:#BABABA;}
	.st5{fill:#3751A0;}
	.st6{fill:#808080;}
	.st7{fill:#F79420;}
	.st8{fill:#0099FF;}
	.st9{fill:#666666;}
	.st10{fill:#797979;}
	.st11{enable-background:new    ;}
	.st12{clip-path:url(#SVGID_00000154389546822588129830000012637390951152579489_);}
</style>
<g>
	<path class="st0" d="M136.0579376,78.9409485c-0.1379547-0.3031769-0.4580231-0.4842682-0.8176117-0.6918945
		c-0.5696716-0.3289413-1.1393433-0.6578751-1.7090302-0.9868164c-1.9199677-1.1086197-3.8399506-2.2172394-5.7599258-3.3258591
		c-2.7466202-1.5859299-5.4932404-3.1718597-8.2398529-4.7577972c-3.3162231-1.9148254-6.6324463-3.8296585-9.9486694-5.7444878
		c-3.6287994-2.095314-7.2575912-4.1906242-10.8863907-6.2859383c-3.6843262-2.1273804-7.36866-4.2547607-11.0529938-6.3821411
		c-3.4828339-2.0110359-6.9656754-4.022068-10.4485092-6.0331039c-3.0243073-1.746273-6.0486069-3.4925461-9.0729141-5.2388153
		c-2.3087387-1.3330994-4.6174812-2.6661949-6.9262199-3.9992905c-1.3361435-0.7715034-2.6722832-1.5430107-4.0084229-2.3145142
		c-0.2280312-0.1316681-0.4560623-0.2633362-0.6841621-0.3950424L34.8066406,43.2536316l79.4591064,45.8875732
		c1.9822388,1.1447754,4.4246826,1.1450806,6.4072266,0.0007935c0,0,14.5118256-8.375679,14.5790558-8.4144745
		c0.398056-0.229744,0.7617035-0.7206039,0.8526459-1.1899414
		C136.1524048,79.2912064,136.1300507,79.0994034,136.0579376,78.9409485z"/>
	<path d="M138.1566162,66.9952698c0-0.9499512-0.4874878-1.7875366-1.2999878-2.2749634l-1.1749878-0.687561
		c-0.2874756-1.7249756-1.125061-3.3249512-2.4125366-4.5374756l-10.5999756-9.9000244l-3.500061-9.3674927
		c-0.0999146-0.2874756-0.2999878-0.5249634-0.562439-0.6875l-12.8625488-7.4249878c-0.374939-0.2124634-0.8624878-0.2124634-1.25,0
		l-5.0164795,2.894104l-0.8755493-0.5053711l0.1295776-0.3011475l3.5999756-2.0875854
		c0.0250244-0.0125122,0.0374756-0.0249634,0.0499878-0.0499878c0.0375366-0.0250244,0.0750122-0.0499268,0.1000366-0.0874634
		c0.0250244-0.0250244,0.0499878-0.0625,0.0750122-0.0875244c0.0125122-0.0374756,0.0375366-0.0750122,0.0499268-0.1124878
		c0.0125122-0.0375366,0.0125122-0.0749512,0.0250244-0.125c0-0.0249634,0.0125122-0.0499878,0.0125122-0.0750122v-3.3249512
		c0-0.1125488-0.0375366-0.2000732-0.0749512-0.2875977c-0.0125122-0.0249023-0.0250244-0.0499268-0.0499878-0.062439
		c-0.0375366-0.0625-0.0875244-0.1124878-0.1500854-0.1625366c-0.0124512-0.0125122-0.0249634-0.0249634-0.0374756-0.0374756
		l-4.1000366-2.375c-0.187439-0.1124878-0.4249268-0.1124878-0.625,0l-7.4475098,4.3023682l-4.555687-2.6281109
		l-0.0001831-0.0001221c-0.000061-0.000061-0.0001221,0-0.0001831-0.000061l-0.2921143-0.1686401l0,0
		c-0.2857666-0.0759277-0.6047363-0.0061646-0.8702393,0.1311646l-3.7000122,1.7874756l-0.7624512-0.4499512
		c-0.187561-0.1625366-0.375-0.2999878-0.5750732-0.4125366c-0.2124634-0.124939-0.4124146-0.2124634-0.6124878-0.2749634
		L61.769104,17.7702332l-9.9749756-7.0499268c0.0125122-0.0250244,0.0374756-0.0625,0.0499878-0.1000366
		s0.0125122-0.0875244,0.0250244-0.124939c0-0.0250244,0.0125122-0.0500488,0.0125122-0.0750122V7.9953308
		c0-0.1000366-0.0250244-0.187561-0.0625-0.2625732c0-0.0250244-0.0250244-0.0375366-0.0250244-0.0499268
		c-0.0500488-0.062561-0.0875244-0.125061-0.1749878-0.2000732l-5.3375244-3.7625122
		C46.081604,3.570282,45.831604,3.5577698,45.6191406,3.6827698c0,0-4.0374756,2.3250122-4.0499878,2.3375244
		c-0.0750122,0.0499878-0.1500244,0.1124268-0.2000732,0.1999512l-1.1499634,1.8375244
		c-0.0125122,0.0249634-0.0125122,0.0625-0.0375366,0.1000366c-0.0124512,0.0374756-0.0374756,0.0750122-0.0374756,0.125
		c-0.0125122,0.0250244,0,0.062439,0,0.0999756c0,0,0,0.1375122,0.0125122,0.1625366l1.375,5.3875122
		c0.0500488,0.187439,0.1749878,0.3374023,0.3375244,0.4124146c0.0875244,0.0375366,0.1749878,0.062561,0.2749634,0.062561
		c0.0875244,0,0.1749878-0.0250244,0.2625122-0.062561l2.2374878-1.0374146
		c0.2249756-0.1125488,0.375061-0.3500366,0.3500366-0.6126099l-0.0499878-0.7374268l0.812439,0.5374756
		c0,0.0250244-0.0125122,0.0375366-0.0125122,0.0499878l-0.0125122,2.4375c0,0.0625,0.0250244,0.1375122,0.0500488,0.2000732
		l-7.2250366,4.1624146c-0.0125122,0.0125122-0.0125122,0.0250244-0.0374146,0.0375366
		c-0.0625,0.0374756-0.1125488,0.1000366-0.1500244,0.1625366c-0.0125122,0.0125122-0.0375366,0.0374146-0.0500488,0.062439
		c-0.0374756,0.0875244-0.0750122,0.1750488-0.0750122,0.2749634v2.1625977c0,0.0249023,0.0125122,0.0499268,0.0125122,0.0749512
		c0.0125122,0.0499878,0.0125122,0.0875244,0.0375366,0.125c0.0124512,0.0375366,0.0249634,0.0750122,0.0499878,0.1125488
		c0.0125122,0.0249023,0.0375366,0.062439,0.0625,0.0874634c0.0250244,0.0374756,0.0625,0.0625,0.1000366,0.0875244
		c0.0125122,0.0249634,0.0250244,0.0374756,0.0499268,0.0499878c0,0,2.312561,1.3375244,2.3375244,1.3500366
		c0.0875244,0.0374146,0.1875,0.0749512,0.2875366,0.0749512c0.0999756,0,0.1999512-0.0375366,0.3125-0.0874634l1.0875244-0.625
		l-0.1000366,0.875l-3.8250122,2.2124634c-0.0750122,0.0500488-0.124939,0.1124878-0.1875,0.1624756
		c-0.0499878,0.0375366-0.0874634,0.0750122-0.125,0.1125488c-0.0875244,0.1124268-0.1624756,0.2249756-0.2124634,0.3624878
		c-0.0125122,0.0250244-0.0375366,0.0499268-0.0500488,0.0749512l-3.2875366,10.6124878
		c-0.1624146,0.562561,0.0750122,1.1625366,0.5750732,1.4625854l3.3624878,1.9375
		c0.375,0.2124634,0.8249512,0.2249756,1.2125244,0.0249023l0.7874146-0.4499512
		c0,0.1000366,0.0125122,0.2000122,0.0250244,0.2875366c0.0375366,0.2374268,0.0875244,0.4625244,0.1375122,0.7000122
		c0.1000366,0.4499512,0.2249756,0.874939,0.3625488,1.3125c0.0125122,0.0249023,0.0125122,0.062439,0.0249634,0.0874634
		c0.1624756,0.4750366,0.3500366,0.9249878,0.5625,1.3875122c0.2124634,0.4499512,0.4499512,0.8999634,0.7125244,1.3250122
		c0.25,0.437439,0.5374756,0.8624878,0.8374634,1.2625122c0.2875366,0.3999634,0.6125488,0.7749634,0.9500122,1.1374512
		c0.3250122,0.3625488,0.6750488,0.6875,1.0375366,1c0.3499146,0.3000488,0.7249756,0.5750122,1.1124878,0.8250122
		c0.0999756,0.0625,0.187439,0.125,0.2874756,0.1750488c1.750061,1.0124512,3.3249512,1.0874634,4.4500122,0.3999023
		l1.9750366-1.1374512c0.0374146,0.0375366,0.0749512,0.0750122,0.124939,0.1000366l32.7374878,18.9249878
		c0.0125122,0,0.0250244,0,0.0375366,0.0124512l7.375,4.2625122c0.2000122,0.1124878,0.4124756,0.1750488,0.625,0.1750488
		l0.5250244-0.4000244c0.6875,3.4249878,3.062439,7.0250244,5.9124756,8.687439
		c1.749939,1.0125732,3.3249512,1.0875854,4.4500122,0.4000244l2.4624634-1.4125366v0.1500854
		c0,0.4500122,0.2374878,2.6624146,0.625,2.875l5.4500732,3.1499634c0.8374634,0.4874878,1.7749634,0.7374878,2.7124634,0.7374878
		c0.9500122,0,1.8875122-0.25,2.7249756-0.7374878l17.2250366-9.9499512
		c1.1999512-0.7000122,1.9624634-2.000061,1.9624634-3.4000854v-5.437439c0-0.0875244-0.0374756-0.1500244-0.0499878-0.2374878
		C138.1191406,67.2327576,138.1566162,67.1202698,138.1566162,66.9952698z"/>
	<path class="st1" d="M113.9962997,71.0393448L103.1713486,60.926857l-3.6125488-9.6674805L87.946373,44.5594254v16.6549072
		l5.3499146,3.0874634c0.0001221-0.0002441,0.0001831-0.0004272,0.0003052-0.0006714l1.1859741,0.6876221
		c0.8800049-2.9700317,3.6499634-3.8699951,6.9400024-1.9799805c3.289978,1.8899536,6.0499878,6.0199585,6.8899536,9.9699707
		l1.4700317,0.8499756l0.0007935-0.0045776c0.0001221,0.0009155,0.0003662,0.0018311,0.0004883,0.0027466l6.3499756,3.6624756
		v-1.5250244C116.133812,74.1018448,115.3588486,72.3143692,113.9962997,71.0393448z"/>
	<path class="st2" d="M132.9213257,63.3393898l-17.3249741,9.9999962c-0.3625488-0.8625031-0.9000397-1.6500092-1.6000366-2.3000336
		L103.1713486,60.926899l-3.6125183-9.6674805l-11.6124725-6.6999817l17.1749878-9.9125671l11.8374634,6.8250275
		l3.4500122,9.2174988c0.0624847,0.1999664,0.1750183,0.3749847,0.3250122,0.5124664l10.8249588,10.1125336
		C132.1713562,61.8769112,132.6338501,62.5769081,132.9213257,63.3393898z"/>
	<path class="st1" d="M133.2963104,65.3268433v2.250061l-17.162468,9.9124908v-1.5250397
		c0-0.9124756-0.1875305-1.8000031-0.5374908-2.6249695l17.3249741-9.9999962
		C133.1713409,63.9643898,133.2963104,64.6393585,133.2963104,65.3268433z"/>
	<path class="st3" d="M73.3152771,33.7747192"/>
	<path class="st0" d="M99.5262299,73.0367126c-0.4629211-0.2672653-0.8367767-0.9148331-0.835289-1.437561
		c0.001503-0.5318909,0.3778-0.7463684,0.8407211-0.4791031c0.4549026,0.2626419,0.8287582,0.9102173,0.8272552,1.4421082
		C100.3574295,73.0848846,99.9811325,73.2993546,99.5262299,73.0367126L99.5262299,73.0367126z M100.5791855,70.9899902
		c-1.5083618-0.8708496-2.7333679-0.172699-2.7382812,1.5605316c-0.0049133,1.733223,1.2121353,3.8412933,2.7205048,4.7121506
		c1.5084152,0.8708878,2.7334213,0.1727371,2.7383347-1.5604935S102.0876083,71.860878,100.5791855,70.9899902
		L100.5791855,70.9899902z"/>
	<path class="st4" d="M99.531662,71.1200485c-0.4629211-0.2672653-0.8392181-0.0527878-0.8407211,0.4791031
		c-0.0014877,0.522728,0.3723679,1.1702957,0.835289,1.437561c0.4549026,0.2626419,0.8311996,0.048172,0.8326874-0.474556
		C100.3604202,72.0302658,99.9865646,71.3826904,99.531662,71.1200485L99.531662,71.1200485z"/>
	<path class="st5" d="M44.4088364,22.9393806c-0.0125122,0.0374603,0,0.0749969,0.0125122,0.1124573l-0.5875397,0.3375244
		l0.1000214-0.8750153l0.5625153-0.3249359L44.4088364,22.9393806z"/>
	<polygon class="st6" points="94.5213699,36.6344032 94.1463089,37.4843941 93.5963058,37.1593819 	"/>
	<polygon class="st6" points="96.9213486,35.2344093 96.4088058,36.4593849 95.7963181,36.8343697 96.3212967,35.5843697 	"/>
	<polygon class="st7" points="100.7713699,28.2468739 96.8712997,30.4969349 94.0088272,28.8469257 97.9213333,26.5844288 	"/>
	<polygon class="st7" points="101.3963699,29.3219318 101.3963699,31.2093678 97.2838211,33.5969124 97.2838211,31.6968861 	"/>
	<polygon class="st7" points="96.0338211,32.4219093 96.0338211,34.3094215 90.0838089,37.7469215 90.0838089,35.8594093 	"/>
	<polygon class="st7" points="95.6212997,31.2093678 89.6837997,34.6468697 86.8213272,32.9969368 92.7713394,29.5594349 	"/>
	<polygon class="st7" points="88.4337997,35.371891 83.8088608,38.0469093 80.946312,36.3969002 85.5713272,33.7218819 	"/>
	<polygon class="st7" points="88.8338089,36.5844307 88.8338089,38.4719429 84.4338608,41.0094032 84.4338608,39.121891 	"/>
	<polygon class="st7" points="83.1838608,39.121891 83.1838608,41.0094032 80.321312,39.3593941 80.321312,37.4718819 	"/>
	<path class="st6" d="M93.4213638,38.5094032l-7.2750092,4.1999817l0.6999969-1.6500092l5.4999542-3.1749725
		c0.0125122,0,0.0125122,0.0125122,0.0125122,0.0125122L93.4213638,38.5094032z"/>
	<polygon class="st1" points="83.0963516,42.4093971 82.196312,43.5393562 78.9838028,41.6893806 80.3588486,40.8218727 	"/>
	<path class="st1" d="M85.4463577,44.2469368v3.8924103L69.0928726,38.695961l2.4124908-1.3999939l4.0285034,2.3183708
		c0.1874542,0.1125336,0.3999329,0.1625061,0.625,0.1625061c0.2124786,0,0.4249573-0.0499725,0.625-0.1625061l2.2874451-1.2874603
		v1.3950653c0,0.0249481,0.0125122,0.0499725,0.0125122,0.0749969c0.0125122,0.0374603,0.0125122,0.0874329,0.0250244,0.1249695
		c0.0125122,0.0374603,0.0374603,0.0749969,0.0499725,0.1125336c0.0250244,0.0249481,0.0375366,0.0624847,0.0749969,0.0874329
		c0.0125122,0.0250244,0.0250244,0.0375366,0.0500488,0.062561l-1.7250061,1.3174133
		c-0.1000214,0.1499939-0.137558,0.3250122-0.1125336,0.5000305c0.0375366,0.1750183,0.1499939,0.3250122,0.2999878,0.4125214
		l4.4955139,2.5717659c0,0,0,0,0.0125122,0c0.0875092,0.0624847,0.2000427,0.0875092,0.2999878,0.0875092
		c0.062561,0,0.137558-0.0125122,0.2000427-0.0375366c0.0250244,0,0.0499725-0.0249481,0.0749969-0.0374603
		c0.0125122-0.0125122,0.0374603-0.0125122,0.0499725-0.0125122l2.5670166-1.4468117
		C85.5213547,43.4893837,85.3963089,44.3219337,85.4463577,44.2469368z"/>
	<path class="st6" d="M83.1127472,33.7018661l-0.6678543,0.3833847l-0.6895142-1.1017227
		c-0.0125122-0.0125122-0.0375366-0.0250244-0.0500488-0.0500488c0.0250244-0.0749969,0.0500488-0.1374817,0.062561-0.2124786
		L83.1127472,33.7018661z"/>
	<polygon class="st1" points="87.6806793,31.0667191 85.7404251,32.1791115 82.8928452,30.4835262 84.9303513,29.4959774 	"/>
	<path class="st8" d="M80.3178482,32.8835068v-0.0500488c0-1.4249439-0.9625244-3.1124897-2.2125244-3.8249989
		c-0.1124573-0.0624847-0.2124786-0.0999451-0.3249359-0.1499939l0.0249481-0.0124359l0.0125122-0.0125122
		c0.0250244-0.0125122,0.0500488-0.0125122,0.0749969-0.0250244c0.2000427-0.1125336,0.5249786-0.0499725,0.8875275,0.1499939
		c0.9749603,0.5750275,1.8125153,2.0124817,1.8125153,3.1375141C80.5803757,32.4709854,80.4803543,32.758461,80.3178482,32.8835068z
		"/>
	<path class="st8" d="M79.3803482,32.8334579c0,0.3000641-0.0624847,0.5375671-0.1750183,0.7000732l-0.3499603,0.1999664
		c0.0125122-0.0499725,0.0250244-0.1000214,0.0250244-0.1499939c0-1.4250183-0.9750366-3.1124897-2.2125244-3.8249989
		c-0.0499725-0.0250244-0.0875092-0.0375366-0.1250458-0.0624847c0.062561,0,0.137558-0.0125122,0.2000427-0.0375366
		c0.2249908-0.1000214,0.5500031-0.0374603,0.8999634,0.1625061C78.5803299,30.3709927,79.3803482,31.7459621,79.3803482,32.8334579
		z"/>
	<path class="st8" d="M77.942894,33.5835037c-0.0125122,0.4249573-0.137558,0.7499695-0.3625488,0.8750153
		c-0.0249481,0.0125122-0.0374603,0.0249481-0.0499725,0.0374603c-0.0375366-1.5124512-1.0375214-3.2624836-2.3374939-4.0625019
		c0.0374603-0.0125122,0.0749969-0.0125122,0.1124573-0.0249481c0.2249908-0.1000214,0.5374908-0.0375366,0.8875275,0.1624298
		C77.1428757,31.1085262,77.942894,32.4960098,77.942894,33.5835037z"/>
	<path class="st8" d="M76.2803726,34.5834885c0,0.4000092-0.1125336,0.6874847-0.2999878,0.8125305l-0.0375366,0.0125122
		c-0.1999664,0.0999451-0.5124664,0.0499725-0.8625031-0.1500702c-0.9874725-0.562439-1.8125153-1.9999695-1.8125153-3.1374359
		c0-0.4125233,0.1250458-0.7125111,0.3125-0.8250446c0.0749969-0.0374603,0.1499939-0.0499725,0.2500153-0.0499725
		c0.1750183,0,0.4000092,0.0624847,0.6375122,0.1999664C75.4553299,32.0210037,76.2803726,33.446022,76.2803726,34.5834885z"/>
	<polygon class="st8" points="81.3476562,34.7306213 78.0176392,36.6506042 77.5976562,35.910614 80.897644,34.0005798 	"/>
	<path class="st8" d="M77.1678238,37.6710281l-1.737442-1.000061c0.0999451,0.0125122,0.1999664,0.0500488,0.2999878,0.0500488
		c0.2625275,0,0.4999542-0.0624847,0.7250214-0.1750183c0.0124359,0,0.0249481,0,0.0374603-0.0125122h0.0125122
		L77.1678238,37.6710281z"/>
	<path class="st6" d="M68.0303268,31.8584957l-14.0839844-8.131609c-0.2000427-0.1125336-0.4375458-0.1125336-0.625,0
		l-0.4875183,0.2749634l0.7624817-1.25l6.7874908,3.9250183L68.0303268,31.8584957z"/>
	<path class="st5" d="M52.9588699,21.414341c-0.0125122,0.0250244-0.0375366,0.0375366-0.062561,0.062561l-2.2499847,3.7124634
		c-0.0250244,0.0375366-0.0250244,0.0624847-0.0374603,0.1000214l-0.5375671,0.2999878l-1.1999512-0.6874847l2.7124786-4.4625092
		L52.9588699,21.414341z"/>
	<path class="st8" d="M72.0178299,32.1210251c0,0.3749847,0.062561,0.7624817,0.1750183,1.1624908L51.7588425,19.0268745
		c-0.1374817-0.1000214-0.3125-0.1374817-0.4875183-0.1000214c-0.1625061,0.0375366-0.3125,0.137558-0.4000092,0.2875519
		l-3.0749512,5.0624847l-0.2375031-0.1374817l-1.6374969-0.9500122l3.5499573-6.1875153
		c0.0125122-0.0250244,0.0125122-0.0499725,0.0250244-0.0749969c0.0125122-0.0375366,0.0374603-0.0749969,0.0374603-0.1125336
		c0.0125122-0.0374603,0.0125122-0.0749969,0.0125122-0.1249695v-0.1000214
		c-0.0125122-0.0499725-0.0374603-0.1000214-0.0499725-0.1374817c-0.0125122-0.0250244-0.0125122-0.0499725-0.0250244-0.0749969
		l-0.0125122-0.0125122c-0.0249481-0.0374603-0.0624847-0.0749969-0.0999451-0.1124573
		c-0.0250244-0.0250244-0.0375366-0.0500488-0.0749969-0.062561c0-0.0125122,0-0.0125122-0.0125122-0.0125122l-2.2875214-1.5374756
		l0.0125122-1.3500214c0.0749969,0.0375366,0.1499939,0.062561,0.2375031,0.062561
		c0.0499725,0,0.0875092-0.0125122,0.1249695-0.0250244l25.0090485,17.4940968
		C72.1553879,31.171011,72.0178299,31.6084805,72.0178299,32.1210251z"/>
	<polygon class="st8" points="74.1678696,29.5084896 73.3553391,29.9709835 48.5963058,12.664341 49.4088364,12.2018471 	"/>
	<polygon class="st8" points="75.4678421,28.7585201 75.055397,28.983511 50.3087997,11.6768684 50.6838608,11.4643898 	"/>
	<polygon class="st8" points="50.633812,9.0644112 50.633812,10.0518837 47.8588486,11.651844 47.8588486,10.6768837 	"/>
	<polygon class="st5" points="43.7213516,12.351841 42.5588608,12.8894081 41.7713547,9.8143806 43.6338425,11.0643806 	"/>
	<polygon class="st8" points="46.6088486,10.6393471 46.6088486,11.5644112 41.6088486,8.2019081 42.0838547,7.4393497 	"/>
	<polygon class="st9" points="40.558815,21.5768471 40.558815,22.2893562 39.4963455,21.6768684 39.4963455,20.9643593 	"/>
	<polygon class="st8" points="50.1088333,7.926868 47.2713089,9.5768776 43.058815,6.5893588 45.8963394,4.9643741 	"/>
	<polygon class="st9" points="47.2213364,18.4143867 46.5587997,19.5643654 46.5213394,19.5643654 41.808815,22.2893562 
		41.808815,21.5768471 	"/>
	<polygon class="st9" points="47.746315,16.6643562 41.183815,20.4893532 40.1213455,19.8768654 46.7963028,16.026844 	"/>
	<polygon class="st6" points="70.7303696,34.8585281 68.4178238,36.195961 51.3212967,26.3143959 53.6338425,24.989399 	"/>
	<polygon class="st1" points="65.9178238,37.6334915 62.3553543,39.3584976 41.7838669,27.4643745 45.0588608,25.5768623 	"/>
	<path class="st1" d="M85.4463577,51.026844v14.187542L55.1463699,47.6893654
		c-0.5750275-4.7624969-3.8625336-9.9375153-7.8500366-12.2499847c-2.2875214-1.3124847-4.5249939-1.5250397-6.2875366-0.5999756
		c-1.2124634,0.6374359-2.0874786,1.7499542-2.5499725,3.2124329l-0.9749603-0.562439l2.5249481-8.1625366l21.6715698,12.5316353
		c0.3624725,0.1999664,0.799942,0.2124786,1.1750031,0.0374603l3.687439-1.7874908L85.4463577,51.026844z"/>
	<polygon class="st9" points="92.8588486,66.9393921 92.8588486,69.4893646 87.9463577,66.6518402 87.9463577,64.1018677 	"/>
	<path class="st9" d="M135.6588287,69.9393463v3.0750275c0,0.5124664-0.2750397,0.9874725-0.7125092,1.2374878
		l-17.2374649,9.9500275c-0.9000397,0.5249786-2.0249939,0.5249786-2.9250336,0l-4.8249817-2.7875519v-3.8999939
		l3.5749817,2.0625305c0.8374786,0.4875183,1.7749786,0.7250214,2.7124786,0.7250214s1.8875122-0.2375031,2.7250671-0.7250214
		L135.6588287,69.9393463z"/>
	<path class="st0" d="M46.8213272,39.9643745c-1.5125275-0.8750153-2.7375031-0.1750183-2.7375031,1.5499878
		c0,0.7624817,0.2249908,1.6000366,0.625,2.3750305c0.1125336,0.2124786,0.2249908,0.4249573,0.3624725,0.6375122
		c0.062561,0.0999451,0.137558,0.1999664,0.2125549,0.2999878c0.1124573,0.1499939,0.2124786,0.2749634,0.3374481,0.4124451
		c0.1125336,0.137558,0.2375031,0.2625275,0.3625488,0.3875732c0.2624512,0.2374268,0.5249786,0.4374695,0.8124542,0.5999756
		c1.5125275,0.8750153,2.7375031,0.1750183,2.7375031-1.5499878C49.5463181,42.9393806,48.3213425,40.8268776,46.8213272,39.9643745
		z M45.7588577,42.0018806c-0.4624939-0.2625275-0.8375549-0.9124756-0.8250427-1.4375305
		c0-0.5249786,0.3749847-0.7374573,0.8375549-0.4750061c0.4499817,0.2625275,0.8249664,0.9125519,0.8249664,1.4375305
		S46.2213516,42.2644081,45.7588577,42.0018806z"/>
	<path class="st4" d="M45.7685699,40.0887833c-0.4629173-0.2672653-0.8392143-0.0527954-0.8407211,0.4791031
		c-0.0014839,0.5227203,0.3723717,1.1702919,0.835289,1.4375572c0.4549065,0.2626419,0.8312035,0.048172,0.8326836-0.4745522
		C46.597332,40.9989929,46.2234764,40.3514252,45.7685699,40.0887833L45.7685699,40.0887833z"/>
	<polygon class="st10" points="100.5140152,51.29776 116.3442001,42.3932495 119.7786484,51.1578827 103.8006134,60.0055466 	"/>
	<polygon class="st10" points="90.0838089,48.1098518 90.0838089,54.5696411 97.5534286,58.7671928 95.0716705,50.9104385 	"/>
	<path d="M72.2082596,55.4779663c-0.1074219,0-0.2160645-0.0280762-0.3125-0.0842285l-5.9851074-3.4570312
		c-0.1928711-0.111084-0.3125-0.3173828-0.3125-0.5407715v-8.3776855c0-0.2233887,0.1196289-0.4296875,0.3125-0.5407715
		c0.1928711-0.1123047,0.4321289-0.1123047,0.625,0l5.9851074,3.4533691c0.1928711,0.111084,0.3125,0.3173828,0.3125,0.5407715
		v8.3813477c0,0.2233887-0.1196289,0.4296875-0.3125,0.5407715C72.424324,55.4498901,72.3156815,55.4779663,72.2082596,55.4779663z
		 M66.8481522,51.0346069l4.7351074,2.7355957v-6.9372559l-4.7351074-2.7319336V51.0346069z"/>
	<path d="M78.1872635,58.9301147c-0.1074219,0-0.2160645-0.0280762-0.3125-0.0842285l-5.9790039-3.4521484
		c-0.1928711-0.111084-0.3125-0.3173828-0.3125-0.5407715v-8.3813477c0-0.2233887,0.1196289-0.4296875,0.3125-0.5407715
		c0.1928711-0.1123047,0.4321289-0.1123047,0.625,0l5.9790039,3.4521484c0.1928711,0.111084,0.3125,0.3173828,0.3125,0.5407715
		v8.3813477c0,0.2233887-0.1196289,0.4296875-0.3125,0.5407715C78.4033279,58.9020386,78.2946854,58.9301147,78.1872635,58.9301147z
		 M72.8332596,54.4916382l4.7290039,2.7307129v-6.9372559l-4.7290039-2.7307129V54.4916382z"/>
	<path d="M84.1674881,62.3834839c-0.1074219,0-0.2160645-0.0280762-0.3125-0.0842285l-5.9802246-3.4533691
		c-0.1928711-0.111084-0.3125-0.3173828-0.3125-0.5407715v-8.3813477c0-0.2233887,0.1196289-0.4296875,0.3125-0.5407715
		c0.1928711-0.1123047,0.4321289-0.1123047,0.625,0l5.9802246,3.4533691c0.1928711,0.111084,0.3125,0.3173828,0.3125,0.5407715
		v8.3813477c0,0.2233887-0.1196289,0.4296875-0.3125,0.5407715C84.3835526,62.3554077,84.27491,62.3834839,84.1674881,62.3834839z
		 M78.8122635,57.9437866l4.7302246,2.7319336v-6.9372559l-4.7302246-2.7319336V57.9437866z"/>
	<path class="st2" d="M119.3875885,71.4917831c-0.88694,0.5120773-1.605545,1.7567673-1.6026535,2.7759323
		c0.0028915,1.0191498,0.7261887,1.4313583,1.6131363,0.919281c0.88694-0.5120773,1.605545-1.7567673,1.6026535-2.7759171
		C120.9978333,71.3919144,120.2745361,70.9797058,119.3875885,71.4917831L119.3875885,71.4917831z"/>
	<path class="st2" d="M130.8291321,64.9715118c-0.8869324,0.5120773-1.605545,1.7567673-1.6026459,2.7759399
		c0.0028839,1.0191422,0.726181,1.4313507,1.6131287,0.9192734s1.605545-1.7567673,1.6026611-2.7759171
		C132.4393768,64.8716431,131.7160797,64.4594421,130.8291321,64.9715118L130.8291321,64.9715118z"/>
	<g class="st11">
		<defs>
			<polygon id="SVGID_1_" class="st11" points="89.1829605,56.9137268 89.1424637,54.6507721 95.7911453,58.6110992 
				95.8316422,60.874054 			"/>
		</defs>
		<clipPath id="SVGID_00000112626053747234877490000008616091890346258367_">
			<use xlink:href="#SVGID_1_"  style="overflow:visible;"/>
		</clipPath>
		<path style="clip-path:url(#SVGID_00000112626053747234877490000008616091890346258367_);" d="M89.6882477,54.9758682
			c-0.1290131-0.0768433-0.2414703-0.0510712-0.3321228,0.0936508c-0.0859528,0.1342316-0.1504059,0.3740273-0.1836395,0.7119255
			c-0.0249557,0.2500725-0.0208817,0.477726,0.0020905,0.6636276c0.022934,0.1858826,0.059845,0.3270874,0.1106415,0.4235573
			c0.0458527,0.0935669,0.1160507,0.1751366,0.2053604,0.2283325c0.0744247,0.0443344,0.1334763,0.0530014,0.1868515,0.0185432
			c0.0536194-0.0210228,0.0968323-0.074791,0.1395721-0.1553001c0.0425262-0.0938835,0.0798035-0.2041931,0.1116562-0.3441467
			l-0.2067642-0.3086319c-0.0221939,0.1324997-0.0502625,0.2084923-0.0786057,0.2711182l-0.1221466,0.0332108l-0.1016235-0.1930046
			c-0.0165558-0.1026154-0.0144806-0.2603073,0.0060349-0.4865608c0.0162582-0.1890411,0.0433731-0.3186111,0.0717163-0.3811913
			c0.0422516-0.1072998,0.0909271-0.1313133,0.1504517-0.0958557l0.0652237,0.0786057l0.0368805,0.1411858l0.0125656,0.1531982
			l0.2308197,0.005024c-0.0040741-0.2276535-0.0320206-0.4164772-0.0785904-0.5502243
			C89.8628693,55.1328888,89.7874756,55.034977,89.6882477,54.9758682"/>
		<polyline style="clip-path:url(#SVGID_00000112626053747234877490000008616091890346258367_);" points="90.8549576,55.7105827 
			90.185112,55.3115845 89.9810638,57.3493652 90.6657791,57.757225 90.7114868,57.2942886 90.279808,57.037159 
			90.3167953,56.6352806 90.7087708,56.868763 90.7455139,56.453495 90.3585205,56.2229767 90.3919983,55.8984756 
			90.8087692,56.1467285 90.8549576,55.7105827 		"/>
		<path style="clip-path:url(#SVGID_00000112626053747234877490000008616091890346258367_);" d="M91.1734467,56.7746048
			l0.041687-0.412323l0.1091614,0.0650177l0.0853119,0.1038246l0.0128021,0.1665955l-0.0273819,0.1161575l-0.0484009,0.037426
			l-0.0690079-0.0146446L91.1734467,56.7746048 M91.4205933,56.0475082l-0.4167709-0.2482529l-0.2040863,2.0377579
			l0.2530365,0.1507263l0.0834503-0.8246078l0.0198212,0.0118065l0.0555344,0.0860405l0.0326538,0.178421l0.0715408,0.7049942
			l0.282814,0.1684647l-0.0608902-0.658905l-0.0222549-0.1457176l-0.0318985-0.1382217l-0.056015-0.1128731l0.0928116-0.0241776
			l0.1003799-0.1521873l0.058754-0.2829399c0.0124741-0.1250381,0.0103149-0.2455406-0.0062332-0.3481102l-0.0780258-0.2452011
			C91.5547943,56.1406937,91.4999695,56.0947876,91.4205933,56.0475082"/>
		<polyline style="clip-path:url(#SVGID_00000112626053747234877490000008616091890346258367_);" points="92.5717163,56.733181 
			91.8125687,56.2809868 91.7625961,56.7811394 92.0206146,56.9348259 91.8665009,58.4724388 92.1145935,58.6202164 
			92.2687073,57.0826035 92.5217438,57.2333298 92.5717163,56.733181 		"/>
		<polyline style="clip-path:url(#SVGID_00000112626053747234877490000008616091890346258367_);" points="92.9487839,56.9577827 
			92.6957474,56.8070602 92.4916916,58.844841 92.7447281,58.9955635 92.9487839,56.9577827 		"/>
		<polyline style="clip-path:url(#SVGID_00000112626053747234877490000008616091890346258367_);" points="93.7476425,57.4336243 
			93.1274261,57.0641899 92.9233398,59.1019516 93.1764069,59.252697 93.2595901,58.4146767 93.5721817,58.6008759 
			93.6138763,58.1885529 93.3012772,58.0023499 93.3342743,57.6510582 93.7014465,57.8697701 93.7476425,57.4336243 		"/>
		<polyline style="clip-path:url(#SVGID_00000112626053747234877490000008616091890346258367_);" points="94.1396179,57.6671066 
			93.8915253,57.5193291 93.6874695,59.5571098 93.940506,59.7078323 94.1396179,57.6671066 		"/>
		<polyline style="clip-path:url(#SVGID_00000112626053747234877490000008616091890346258367_);" points="94.9880676,58.172493 
			94.318222,57.7734947 94.1191101,59.8142204 94.7988815,60.2191315 94.8445969,59.7561989 94.4129181,59.4990654 
			94.4548798,59.1001587 94.8418732,59.3306732 94.8835983,58.9183693 94.4965744,58.6878319 94.5300522,58.3633308 
			94.9468231,58.6115837 94.9880676,58.172493 		"/>
		<path style="clip-path:url(#SVGID_00000112626053747234877490000008616091890346258367_);" d="M95.2365723,59.9896812
			l0.1076813-1.1148605l0.0645065,0.0384216c0.0645065,0.0384216,0.1048965,0.1022339,0.1261826,0.1943779
			c0.0215302,0.1055832,0.0194244,0.2632561-0.001297,0.4761391c-0.0167389,0.1622505-0.0344315,0.2709274-0.0528183,0.3394852
			l-0.0715561,0.1163025c-0.0241089,0.0253906-0.0635452,0.015152-0.1131744-0.0144119L95.2365723,59.9896812
			 M95.5139999,58.4857635l-0.3721237-0.221653l-0.2040558,2.0377808l0.3721237,0.221653
			c0.0446472,0.0265999,0.0940094,0.0427475,0.1528473,0.038044l0.1308441-0.0942879l0.1130905-0.2637825
			c0.0325699-0.0998611,0.0540466-0.2724953,0.0797195-0.4824295c0.0122681-0.1384125,0.0195618-0.2797852,0.0171661-0.413681
			l-0.0310669-0.3629456l-0.0883942-0.2778358C95.643486,58.5893974,95.5834503,58.5271339,95.5139999,58.4857635"/>
	</g>
</g>
</svg>
