<?xml version="1.0" encoding="utf-8"?>
<!-- Generator: Adobe Illustrator 27.6.1, SVG Export Plug-In . SVG Version: 6.00 Build 0)  -->
<svg version="1.1" id="Layer_1" xmlns="http://www.w3.org/2000/svg" xmlns:xlink="http://www.w3.org/1999/xlink" x="0px" y="0px"
	 viewBox="0 0 172.8999939 90" style="enable-background:new 0 0 172.8999939 90;" xml:space="preserve">
<style type="text/css">
	.st0{fill:#888888;}
	.st1{fill:#CCCCCC;}
	.st2{fill:#FFFFFF;}
	.st3{fill:none;stroke:#000000;stroke-linecap:round;stroke-linejoin:round;stroke-miterlimit:10;}
	.st4{fill:#BABABA;}
	.st5{fill:#3751A0;}
	.st6{fill:#808080;}
	.st7{fill:#F79420;}
	.st8{fill:#0099FF;}
	.st9{fill:#666666;}
	.st10{fill:#797979;}
	.st11{enable-background:new    ;}
	.st12{clip-path:url(#SVGID_00000075853208712880241440000008670155406168092598_);}
</style>
<g>
	<path class="st0" d="M36.8420525,78.9409485c0.1379623-0.3031769,0.4580307-0.4842682,0.8176155-0.6918945
		c0.5696754-0.3289413,1.1393509-0.6578751,1.7090263-0.9868164c1.9199753-1.1086197,3.8399544-2.2172394,5.7599335-3.3258591
		c2.7466164-1.5859299,5.4932327-3.1718597,8.2398491-4.7577972c3.3162231-1.9148254,6.6324463-3.8296585,9.9486694-5.7444878
		c3.6287994-2.095314,7.2575912-4.1906242,10.8863907-6.2859383c3.6843262-2.1273804,7.36866-4.2547607,11.0529938-6.3821411
		c3.4828339-2.0110359,6.9656754-4.022068,10.4485092-6.0331039c3.0243073-1.746273,6.0486069-3.4925461,9.0729141-5.2388153
		c2.3087387-1.3330994,4.6174774-2.6661949,6.9262238-3.9992905c1.3361359-0.7715034,2.6722794-1.5430107,4.0084229-2.3145142
		c0.2280273-0.1316681,0.4560623-0.2633362,0.6841583-0.3950424l21.6965942,10.4683838L58.6342468,89.1412048
		c-1.9822388,1.1447754-4.4246826,1.1450806-6.4072266,0.0007935c0,0-14.5118294-8.375679-14.579052-8.4144745
		c-0.3980598-0.229744-0.7617073-0.7206039-0.8526421-1.1899414C36.7475853,79.2912064,36.7699471,79.0994034,36.8420525,78.9409485
		z"/>
	<path d="M34.7433777,66.9952698c0-0.9499512,0.4874878-1.7875366,1.2999878-2.2749634l1.1749878-0.687561
		c0.2874756-1.7249756,1.125061-3.3249512,2.4125366-4.5374756l10.5999756-9.9000244l3.500061-9.3674927
		c0.0999146-0.2874756,0.2999878-0.5249634,0.562439-0.6875l12.8625488-7.4249878c0.374939-0.2124634,0.8624878-0.2124634,1.25,0
		l5.0164795,2.894104l0.8755493-0.5053711l-0.1295776-0.3011475l-3.5999756-2.0875854
		c-0.0250244-0.0125122-0.0374756-0.0249634-0.0499878-0.0499878c-0.0375366-0.0250244-0.0750122-0.0499268-0.1000366-0.0874634
		c-0.0250244-0.0250244-0.0499878-0.0625-0.0750122-0.0875244c-0.0125122-0.0374756-0.0375366-0.0750122-0.0499268-0.1124878
		c-0.0125122-0.0375366-0.0125122-0.0749512-0.0250244-0.125c0-0.0249634-0.0125122-0.0499878-0.0125122-0.0750122v-3.3249512
		c0-0.1125488,0.0375366-0.2000732,0.0749512-0.2875977c0.0125122-0.0249023,0.0250244-0.0499268,0.0499878-0.062439
		c0.0375366-0.0625,0.0875244-0.1124878,0.1500854-0.1625366c0.0124512-0.0125122,0.0249634-0.0249634,0.0374756-0.0374756
		l4.1000366-2.375c0.187439-0.1124878,0.4249268-0.1124878,0.625,0l7.4475098,4.3023682l4.555687-2.6281109l0.0001831-0.0001221
		c0.000061-0.000061,0.0001221,0,0.0001831-0.000061l0.2921143-0.1686401l0,0
		c0.2857666-0.0759277,0.6047363-0.0061646,0.8702393,0.1311646l3.7000122,1.7874756l0.7624512-0.4499512
		c0.187561-0.1625366,0.375-0.2999878,0.5750732-0.4125366c0.2124634-0.124939,0.4124146-0.2124634,0.6124878-0.2749634
		l17.0215225-9.8441792l9.9749756-7.0499268c-0.0125122-0.0250244-0.0374756-0.0625-0.0499878-0.1000366
		s-0.0125122-0.0875244-0.0250244-0.124939c0-0.0250244-0.0125122-0.0500488-0.0125122-0.0750122V7.9953308
		c0-0.1000366,0.0250244-0.187561,0.0625-0.2625732c0-0.0250244,0.0250244-0.0375366,0.0250244-0.0499268
		c0.0500488-0.062561,0.0875244-0.125061,0.1749878-0.2000732l5.3375244-3.7625122
		c0.2000122-0.1499634,0.4500122-0.1624756,0.6624756-0.0374756c0,0,4.0374756,2.3250122,4.0499878,2.3375244
		c0.0750122,0.0499878,0.1500244,0.1124268,0.2000732,0.1999512l1.1499634,1.8375244
		c0.0125122,0.0249634,0.0125122,0.0625,0.0375366,0.1000366c0.0124512,0.0374756,0.0374756,0.0750122,0.0374756,0.125
		c0.0125122,0.0250244,0,0.062439,0,0.0999756c0,0,0,0.1375122-0.0125122,0.1625366l-1.375,5.3875122
		c-0.0500488,0.187439-0.1749878,0.3374023-0.3375244,0.4124146c-0.0875244,0.0375366-0.1749878,0.062561-0.2749634,0.062561
		c-0.0875244,0-0.1749878-0.0250244-0.2625122-0.062561l-2.2374878-1.0374146
		c-0.2249756-0.1125488-0.375061-0.3500366-0.3500366-0.6126099l0.0499878-0.7374268l-0.812439,0.5374756
		c0,0.0250244,0.0125122,0.0375366,0.0125122,0.0499878l0.0125122,2.4375c0,0.0625-0.0250244,0.1375122-0.0500488,0.2000732
		l7.2250366,4.1624146c0.0125122,0.0125122,0.0125122,0.0250244,0.0374146,0.0375366
		c0.0625,0.0374756,0.1125488,0.1000366,0.1500244,0.1625366c0.0125122,0.0125122,0.0375366,0.0374146,0.0500488,0.062439
		c0.0374756,0.0875244,0.0750122,0.1750488,0.0750122,0.2749634v2.1625977c0,0.0249023-0.0125122,0.0499268-0.0125122,0.0749512
		c-0.0125122,0.0499878-0.0125122,0.0875244-0.0375366,0.125c-0.0124512,0.0375366-0.0249634,0.0750122-0.0499878,0.1125488
		c-0.0125122,0.0249023-0.0375366,0.062439-0.0625,0.0874634c-0.0250244,0.0374756-0.0625,0.0625-0.1000366,0.0875244
		c-0.0125122,0.0249634-0.0250244,0.0374756-0.0499268,0.0499878c0,0-2.312561,1.3375244-2.3375244,1.3500366
		c-0.0875244,0.0374146-0.1875,0.0749512-0.2875366,0.0749512c-0.0999756,0-0.1999512-0.0375366-0.3125-0.0874634l-1.0875244-0.625
		l0.1000366,0.875l3.8250122,2.2124634c0.0750122,0.0500488,0.124939,0.1124878,0.1875,0.1624756
		c0.0499878,0.0375366,0.0874634,0.0750122,0.125,0.1125488c0.0875244,0.1124268,0.1624756,0.2249756,0.2124634,0.3624878
		c0.0125122,0.0250244,0.0375366,0.0499268,0.0500488,0.0749512l3.2875366,10.6124878
		c0.1624146,0.562561-0.0750122,1.1625366-0.5750732,1.4625854l-3.3624878,1.9375
		c-0.375,0.2124634-0.8249512,0.2249756-1.2125244,0.0249023l-0.7874146-0.4499512
		c0,0.1000366-0.0125122,0.2000122-0.0250244,0.2875366c-0.0375366,0.2374268-0.0875244,0.4625244-0.1375122,0.7000122
		c-0.1000366,0.4499512-0.2249756,0.874939-0.3625488,1.3125c-0.0125122,0.0249023-0.0125122,0.062439-0.0249634,0.0874634
		c-0.1624756,0.4750366-0.3500366,0.9249878-0.5625,1.3875122c-0.2124634,0.4499512-0.4499512,0.8999634-0.7125244,1.3250122
		c-0.25,0.437439-0.5374756,0.8624878-0.8374634,1.2625122c-0.2875366,0.3999634-0.6125488,0.7749634-0.9500122,1.1374512
		c-0.3250122,0.3625488-0.6750488,0.6875-1.0375366,1c-0.3499146,0.3000488-0.7249756,0.5750122-1.1124878,0.8250122
		c-0.0999756,0.0625-0.187439,0.125-0.2874756,0.1750488c-1.750061,1.0124512-3.3249512,1.0874634-4.4500122,0.3999023
		l-1.9750366-1.1374512c-0.0374146,0.0375366-0.0749512,0.0750122-0.124939,0.1000366L86.8309021,68.4703064
		c-0.0125122,0-0.0250244,0-0.0375366,0.0124512l-7.375,4.2625122c-0.2000122,0.1124878-0.4124756,0.1750488-0.625,0.1750488
		l-0.5250244-0.4000244c-0.6875,3.4249878-3.062439,7.0250244-5.9124756,8.687439
		c-1.749939,1.0125732-3.3249512,1.0875854-4.4500122,0.4000244l-2.4624634-1.4125366v0.1500854
		c0,0.4500122-0.2374878,2.6624146-0.625,2.875l-5.4500732,3.1499634c-0.8374634,0.4874878-1.7749634,0.7374878-2.7124634,0.7374878
		c-0.9500122,0-1.8875122-0.25-2.7249756-0.7374878l-17.2250366-9.9499512
		c-1.1999512-0.7000122-1.9624634-2.000061-1.9624634-3.4000854v-5.437439c0-0.0875244,0.0374756-0.1500244,0.0499878-0.2374878
		C34.7808533,67.2327576,34.7433777,67.1202698,34.7433777,66.9952698z"/>
	<path class="st1" d="M58.9036903,71.0393448l10.824955-10.1124878l3.6125488-9.6674805l11.6124268-6.6999512v16.6549072
		l-5.3499146,3.0874634c-0.0001221-0.0002441-0.0001831-0.0004272-0.0003052-0.0006714l-1.1859741,0.6876221
		c-0.8800049-2.9700317-3.6499634-3.8699951-6.9400024-1.9799805c-3.289978,1.8899536-6.0499878,6.0199585-6.8899536,9.9699707
		l-1.4700356,0.8499756l-0.0007935-0.0045776c-0.0001221,0.0009155-0.0003662,0.0018311-0.0004883,0.0027466l-6.3499756,3.6624756
		v-1.5250244C56.7661781,74.1018448,57.5411415,72.3143692,58.9036903,71.0393448z"/>
	<path class="st2" d="M39.9786606,63.3393898l17.3249817,9.9999962c0.3625488-0.8625031,0.9000397-1.6500092,1.6000366-2.3000336
		L69.7286453,60.926899l3.6125183-9.6674805l11.6124725-6.6999817l-17.1749878-9.9125671L55.941185,41.4718971l-3.4500122,9.2174988
		c-0.0624847,0.1999664-0.1750183,0.3749847-0.3250122,0.5124664L41.3411942,61.3143959
		C40.7286301,61.8769112,40.2661362,62.5769081,39.9786606,63.3393898z"/>
	<path class="st1" d="M39.6036758,65.3268433v2.250061l17.1624756,9.9124908v-1.5250397
		c0-0.9124756,0.1875305-1.8000031,0.5374908-2.6249695l-17.3249817-9.9999962
		C39.7286453,63.9643898,39.6036758,64.6393585,39.6036758,65.3268433z"/>
	<path class="st3" d="M99.5847168,33.7747192"/>
	<path class="st0" d="M73.373764,73.0367126c-0.4549026,0.2626419-0.8311996,0.048172-0.8326874-0.474556
		c-0.001503-0.5318909,0.3723526-1.1794662,0.8272552-1.4421082c0.4629211-0.2672653,0.8392181-0.0527878,0.8407211,0.4791031
		C74.2105408,72.1218796,73.8366852,72.7694473,73.373764,73.0367126L73.373764,73.0367126z M72.3208084,70.9899902
		c-1.5084229,0.8708878-2.7254715,2.9789581-2.7205582,4.7121887s1.2299194,2.4313812,2.7383347,1.5604935
		c1.5083694-0.8708572,2.7254181-2.9789276,2.7205048-4.7121506C75.0541763,70.8172913,73.8291702,70.1191406,72.3208084,70.9899902
		L72.3208084,70.9899902z"/>
	<path class="st4" d="M73.3683319,71.1200485c0.4629211-0.2672653,0.8392181-0.0527878,0.8407211,0.4791031
		c0.0014877,0.522728-0.3723679,1.1702957-0.835289,1.437561c-0.4549026,0.2626419-0.8311996,0.048172-0.8326874-0.474556
		C72.5395737,72.0302658,72.9134293,71.3826904,73.3683319,71.1200485L73.3683319,71.1200485z"/>
	<path class="st5" d="M128.4911652,22.9393806c0.0125122,0.0374603,0,0.0749969-0.0125122,0.1124573l0.5875397,0.3375244
		l-0.1000214-0.8750153l-0.5625153-0.3249359L128.4911652,22.9393806z"/>
	<polygon class="st6" points="78.378624,36.6344032 78.753685,37.4843941 79.303688,37.1593819 	"/>
	<polygon class="st6" points="75.9786453,35.2344093 76.491188,36.4593849 77.1036758,36.8343697 76.5786972,35.5843697 	"/>
	<polygon class="st7" points="72.128624,28.2468739 76.0286942,30.4969349 78.8911667,28.8469257 74.9786606,26.5844288 	"/>
	<polygon class="st7" points="71.503624,29.3219318 71.503624,31.2093678 75.6161728,33.5969124 75.6161728,31.6968861 	"/>
	<polygon class="st7" points="76.8661728,32.4219093 76.8661728,34.3094215 82.816185,37.7469215 82.816185,35.8594093 	"/>
	<polygon class="st7" points="77.2786942,31.2093678 83.2161942,34.6468697 86.0786667,32.9969368 80.1286545,29.5594349 	"/>
	<polygon class="st7" points="84.4661942,35.371891 89.0911331,38.0469093 91.9536819,36.3969002 87.3286667,33.7218819 	"/>
	<polygon class="st7" points="84.066185,36.5844307 84.066185,38.4719429 88.4661331,41.0094032 88.4661331,39.121891 	"/>
	<polygon class="st7" points="89.7161331,39.121891 89.7161331,41.0094032 92.5786819,39.3593941 92.5786819,37.4718819 	"/>
	<path class="st6" d="M79.4786301,38.5094032l7.2750092,4.1999817l-0.6999969-1.6500092l-5.4999542-3.1749725
		c-0.0125122,0-0.0125122,0.0125122-0.0125122,0.0125122L79.4786301,38.5094032z"/>
	<polygon class="st1" points="89.8036423,42.4093971 90.7036819,43.5393562 93.9161911,41.6893806 92.5411453,40.8218727 	"/>
	<path class="st1" d="M87.4536362,44.2469368v3.8924103l16.3534851-9.4433861l-2.4124908-1.3999939l-4.0285034,2.3183708
		c-0.1874542,0.1125336-0.3999329,0.1625061-0.625,0.1625061c-0.2124786,0-0.4249573-0.0499725-0.625-0.1625061
		l-2.2874451-1.2874603v1.3950653c0,0.0249481-0.0125122,0.0499725-0.0125122,0.0749969
		c-0.0125122,0.0374603-0.0125122,0.0874329-0.0250244,0.1249695c-0.0125122,0.0374603-0.0374603,0.0749969-0.0499725,0.1125336
		c-0.0250244,0.0249481-0.0375366,0.0624847-0.0749969,0.0874329c-0.0125122,0.0250244-0.0250244,0.0375366-0.0500488,0.062561
		l1.7250061,1.3174133c0.1000214,0.1499939,0.137558,0.3250122,0.1125336,0.5000305
		c-0.0375366,0.1750183-0.1499939,0.3250122-0.2999878,0.4125214l-4.4955139,2.5717659c0,0,0,0-0.0125122,0
		c-0.0875092,0.0624847-0.2000427,0.0875092-0.2999878,0.0875092c-0.062561,0-0.137558-0.0125122-0.2000427-0.0375366
		c-0.0250244,0-0.0499725-0.0249481-0.0749969-0.0374603c-0.0125122-0.0125122-0.0374603-0.0125122-0.0499725-0.0125122
		l-2.5670166-1.4468117C87.3786392,43.4893837,87.503685,44.3219337,87.4536362,44.2469368z"/>
	<path class="st6" d="M89.7872467,33.7018661l0.6678543,0.3833847l0.6895142-1.1017227
		c0.0125122-0.0125122,0.0375366-0.0250244,0.0500488-0.0500488c-0.0250244-0.0749969-0.0500488-0.1374817-0.062561-0.2124786
		L89.7872467,33.7018661z"/>
	<polygon class="st1" points="85.2193146,31.0667191 87.1595688,32.1791115 90.0071487,30.4835262 87.9696426,29.4959774 	"/>
	<path class="st8" d="M92.5821457,32.8835068v-0.0500488c0-1.4249439,0.9625244-3.1124897,2.2125244-3.8249989
		c0.1124573-0.0624847,0.2124786-0.0999451,0.3249359-0.1499939l-0.0249481-0.0124359l-0.0125122-0.0125122
		c-0.0250244-0.0125122-0.0500488-0.0125122-0.0749969-0.0250244c-0.2000427-0.1125336-0.5249786-0.0499725-0.8875275,0.1499939
		c-0.9749603,0.5750275-1.8125153,2.0124817-1.8125153,3.1375141C92.3196182,32.4709854,92.4196396,32.758461,92.5821457,32.8835068
		z"/>
	<path class="st8" d="M93.5196457,32.8334579c0,0.3000641,0.0624847,0.5375671,0.1750183,0.7000732l0.3499603,0.1999664
		c-0.0125122-0.0499725-0.0250244-0.1000214-0.0250244-0.1499939c0-1.4250183,0.9750366-3.1124897,2.2125244-3.8249989
		c0.0499725-0.0250244,0.0875092-0.0375366,0.1250458-0.0624847c-0.062561,0-0.137558-0.0125122-0.2000427-0.0375366
		c-0.2249908-0.1000214-0.5500031-0.0374603-0.8999634,0.1625061C94.319664,30.3709927,93.5196457,31.7459621,93.5196457,32.8334579
		z"/>
	<path class="st8" d="M94.9570999,33.5835037c0.0125122,0.4249573,0.137558,0.7499695,0.3625488,0.8750153
		c0.0249481,0.0125122,0.0374603,0.0249481,0.0499725,0.0374603c0.0375366-1.5124512,1.0375214-3.2624836,2.3374939-4.0625019
		c-0.0374603-0.0125122-0.0749969-0.0125122-0.1124573-0.0249481c-0.2249908-0.1000214-0.5374908-0.0375366-0.8875275,0.1624298
		C95.7571182,31.1085262,94.9570999,32.4960098,94.9570999,33.5835037z"/>
	<path class="st8" d="M96.6196213,34.5834885c0,0.4000092,0.1125336,0.6874847,0.2999878,0.8125305l0.0375366,0.0125122
		c0.1999664,0.0999451,0.5124664,0.0499725,0.8625031-0.1500702c0.9874725-0.562439,1.8125153-1.9999695,1.8125153-3.1374359
		c0-0.4125233-0.1250458-0.7125111-0.3125-0.8250446c-0.0749969-0.0374603-0.1499939-0.0499725-0.2500153-0.0499725
		c-0.1750183,0-0.4000092,0.0624847-0.6375122,0.1999664C97.444664,32.0210037,96.6196213,33.446022,96.6196213,34.5834885z"/>
	<polygon class="st8" points="91.5523376,34.7306213 94.8823547,36.6506042 95.3023376,35.910614 92.0023499,34.0005798 	"/>
	<path class="st8" d="M95.7321701,37.6710281l1.737442-1.000061c-0.0999451,0.0125122-0.1999664,0.0500488-0.2999878,0.0500488
		c-0.2625275,0-0.4999542-0.0624847-0.7250214-0.1750183c-0.0124359,0-0.0249481,0-0.0374603-0.0125122h-0.0125122
		L95.7321701,37.6710281z"/>
	<path class="st6" d="M104.8696671,31.8584957l14.0839844-8.131609c0.2000427-0.1125336,0.4375458-0.1125336,0.625,0
		l0.4875183,0.2749634l-0.7624817-1.25l-6.7874908,3.9250183L104.8696671,31.8584957z"/>
	<path class="st5" d="M119.941124,21.414341c0.0125122,0.0250244,0.0375366,0.0375366,0.062561,0.062561l2.2499847,3.7124634
		c0.0250244,0.0375366,0.0250244,0.0624847,0.0374603,0.1000214l0.5375671,0.2999878l1.1999512-0.6874847l-2.7124786-4.4625092
		L119.941124,21.414341z"/>
	<path class="st8" d="M100.882164,32.1210251c0,0.3749847-0.062561,0.7624817-0.1750183,1.1624908l20.4340057-14.2566414
		c0.1374817-0.1000214,0.3125-0.1374817,0.4875183-0.1000214c0.1625061,0.0375366,0.3125,0.137558,0.4000092,0.2875519
		l3.0749512,5.0624847l0.2375031-0.1374817l1.6374969-0.9500122l-3.5499573-6.1875153
		c-0.0125122-0.0250244-0.0125122-0.0499725-0.0250244-0.0749969c-0.0125122-0.0375366-0.0374603-0.0749969-0.0374603-0.1125336
		c-0.0125122-0.0374603-0.0125122-0.0749969-0.0125122-0.1249695v-0.1000214
		c0.0125122-0.0499725,0.0374603-0.1000214,0.0499725-0.1374817c0.0125122-0.0250244,0.0125122-0.0499725,0.0250244-0.0749969
		l0.0125122-0.0125122c0.0249481-0.0374603,0.0624847-0.0749969,0.0999451-0.1124573
		c0.0250244-0.0250244,0.0375366-0.0500488,0.0749969-0.062561c0-0.0125122,0-0.0125122,0.0125122-0.0125122l2.2875214-1.5374756
		l-0.0125122-1.3500214c-0.0749969,0.0375366-0.1499939,0.062561-0.2375031,0.062561
		c-0.0499725,0-0.0875092-0.0125122-0.1249695-0.0250244l-25.0090485,17.4940968
		C100.744606,31.171011,100.882164,31.6084805,100.882164,32.1210251z"/>
	<polygon class="st8" points="98.7321243,29.5084896 99.5446548,29.9709835 124.303688,12.664341 123.4911575,12.2018471 	"/>
	<polygon class="st8" points="97.4321518,28.7585201 97.8445969,28.983511 122.5911942,11.6768684 122.2161331,11.4643898 	"/>
	<polygon class="st8" points="122.2661819,9.0644112 122.2661819,10.0518837 125.0411453,11.651844 125.0411453,10.6768837 	"/>
	<polygon class="st5" points="129.1786499,12.351841 130.3411407,12.8894081 131.1286469,9.8143806 129.2661591,11.0643806 	"/>
	<polygon class="st8" points="126.2911453,10.6393471 126.2911453,11.5644112 131.291153,8.2019081 130.8161469,7.4393497 	"/>
	<polygon class="st9" points="132.3411865,21.5768471 132.3411865,22.2893562 133.403656,21.6768684 133.403656,20.9643593 	"/>
	<polygon class="st8" points="122.7911606,7.926868 125.628685,9.5768776 129.8411865,6.5893588 127.0036545,4.9643741 	"/>
	<polygon class="st9" points="125.6786575,18.4143867 126.3411942,19.5643654 126.3786545,19.5643654 131.0911865,22.2893562 
		131.0911865,21.5768471 	"/>
	<polygon class="st9" points="125.1536789,16.6643562 131.7161865,20.4893532 132.778656,19.8768654 126.1036911,16.026844 	"/>
	<polygon class="st6" points="102.1696243,34.8585281 104.4821701,36.195961 121.5786972,26.3143959 119.2661514,24.989399 	"/>
	<polygon class="st1" points="106.9821701,37.6334915 110.5446396,39.3584976 131.1161346,27.4643745 127.8411331,25.5768623 	"/>
	<path class="st1" d="M87.4536362,51.026844v14.187542l30.2999878-17.5250206
		c0.5750275-4.7624969,3.8625336-9.9375153,7.8500366-12.2499847c2.2875214-1.3124847,4.5250015-1.5250397,6.2875443-0.5999756
		c1.2124634,0.6374359,2.0874786,1.7499542,2.5499725,3.2124329l0.9749603-0.562439l-2.5249481-8.1625366l-21.6715775,12.5316353
		c-0.3624725,0.1999664-0.799942,0.2124786-1.1750031,0.0374603l-3.687439-1.7874908L87.4536362,51.026844z"/>
	<polygon class="st9" points="80.0411453,66.9393921 80.0411453,69.4893646 84.9536362,66.6518402 84.9536362,64.1018677 	"/>
	<path class="st9" d="M37.2411575,69.9393463v3.0750275c0,0.5124664,0.2750397,0.9874725,0.7125092,1.2374878l17.2374725,9.9500275
		c0.9000397,0.5249786,2.0249939,0.5249786,2.9250336,0l4.8249817-2.7875519v-3.8999939l-3.5749817,2.0625305
		c-0.8374786,0.4875183-1.7749786,0.7250214-2.7124786,0.7250214s-1.8875122-0.2375031-2.7250671-0.7250214L37.2411575,69.9393463z"
		/>
	<path class="st0" d="M123.366188,44.676899c0,1.7250061,1.2249756,2.4250031,2.7375031,1.5499878
		c0.2874756-0.1625061,0.5500031-0.3625488,0.8124542-0.5999756c0.1250458-0.1250458,0.2500153-0.2500153,0.3625488-0.3875732
		c0.1249695-0.1374817,0.2249908-0.2624512,0.3374481-0.4124451c0.0749969-0.1000214,0.1499939-0.2000427,0.2125549-0.2999878
		c0.1374817-0.2125549,0.2499466-0.4250336,0.3624802-0.6375122c0.4000092-0.7749939,0.625-1.6125488,0.625-2.3750305
		c0-1.7250061-1.2249832-2.4250031-2.7375107-1.5499878C124.5786514,40.8268776,123.3536758,42.9393806,123.366188,44.676899z
		 M126.3036575,41.5268745c0-0.5249786,0.3749847-1.1750031,0.8249664-1.4375305
		c0.4625702-0.2624512,0.8375549-0.0499725,0.8375549,0.4750061c0.0125122,0.5250549-0.3625488,1.1750031-0.8250427,1.4375305
		S126.3036575,42.0518532,126.3036575,41.5268745z"/>
	<path class="st4" d="M127.131424,40.0887833c0.4629135-0.2672653,0.8392181-0.0527954,0.8407211,0.4791031
		c0.0014801,0.5227203-0.3723679,1.1702919-0.835289,1.4375572c-0.4549026,0.2626419-0.8311996,0.048172-0.8326874-0.4745522
		C126.3026657,40.9989929,126.6765137,40.3514252,127.131424,40.0887833L127.131424,40.0887833z"/>
	<polygon class="st10" points="72.3859787,51.29776 56.5557938,42.3932495 53.1213455,51.1578827 69.0993805,60.0055466 	"/>
	<polygon class="st10" points="82.816185,48.1098518 82.816185,54.5696411 75.3465652,58.7671928 77.8283234,50.9104385 	"/>
	<path d="M100.3792343,55.3937378c-0.1928711-0.111084-0.3125-0.3173828-0.3125-0.5407715v-8.3813477
		c0-0.2233887,0.1196289-0.4296875,0.3125-0.5407715l5.9851074-3.4533691c0.1928711-0.1123047,0.4321289-0.1123047,0.625,0
		c0.1928711,0.111084,0.3125,0.3173828,0.3125,0.5407715v8.3776855c0,0.2233887-0.1196289,0.4296875-0.3125,0.5407715
		l-5.9851074,3.4570312c-0.0964355,0.0561523-0.2050781,0.0842285-0.3125,0.0842285S100.4756699,55.4498901,100.3792343,55.3937378z
		 M106.0518417,44.1010132l-4.7351074,2.7319336v6.9372559l4.7351074-2.7355957V44.1010132z"/>
	<path d="M94.4002304,58.8458862c-0.1928711-0.111084-0.3125-0.3173828-0.3125-0.5407715v-8.3813477
		c0-0.2233887,0.1196289-0.4296875,0.3125-0.5407715l5.9790039-3.4521484c0.1928711-0.1123047,0.4321289-0.1123047,0.625,0
		c0.1928711,0.111084,0.3125,0.3173828,0.3125,0.5407715v8.3813477c0,0.2233887-0.1196289,0.4296875-0.3125,0.5407715
		l-5.9790039,3.4521484c-0.0964355,0.0561523-0.2050781,0.0842285-0.3125,0.0842285S94.496666,58.9020386,94.4002304,58.8458862z
		 M100.0667343,47.5543823l-4.7290039,2.7307129v6.9372559l4.7290039-2.7307129V47.5543823z"/>
	<path d="M88.4200058,62.2992554c-0.1928711-0.111084-0.3125-0.3173828-0.3125-0.5407715v-8.3813477
		c0-0.2233887,0.1196289-0.4296875,0.3125-0.5407715l5.9802246-3.4533691c0.1928711-0.1123047,0.4321289-0.1123047,0.625,0
		c0.1928711,0.111084,0.3125,0.3173828,0.3125,0.5407715v8.3813477c0,0.2233887-0.1196289,0.4296875-0.3125,0.5407715
		l-5.9802246,3.4533691c-0.0964355,0.0561523-0.2050781,0.0842285-0.3125,0.0842285S88.5164413,62.3554077,88.4200058,62.2992554z
		 M94.0877304,51.0065308l-4.7302246,2.7319336v6.9372559l4.7302246-2.7319336V51.0065308z"/>
	<path class="st2" d="M53.5124016,71.4917831c0.8869438,0.5120773,1.605545,1.7567673,1.6026573,2.7759323
		c-0.0028877,1.0191498-0.7261887,1.4313583-1.6131325,0.919281s-1.605545-1.7567673-1.6026573-2.7759171
		C51.9021606,71.3919144,52.6254578,70.9797058,53.5124016,71.4917831L53.5124016,71.4917831z"/>
	<path class="st2" d="M42.0708542,64.9715118c0.8869438,0.5120773,1.6055489,1.7567673,1.6026573,2.7759399
		c-0.0028877,1.0191422-0.7261887,1.4313507-1.6131325,0.9192734s-1.605545-1.7567673-1.6026573-2.7759171
		C40.4606133,64.8716431,41.1839104,64.4594421,42.0708542,64.9715118L42.0708542,64.9715118z"/>
	<g class="st11">
		<defs>
			<polygon id="SVGID_1_" class="st11" points="77.146759,61.1085281 77.1062622,58.8928833 83.7549515,55.0852013 
				83.7954407,57.3008461 			"/>
		</defs>
		<clipPath id="SVGID_00000021090252491539185830000017451398646395328187_">
			<use xlink:href="#SVGID_1_"  style="overflow:visible;"/>
		</clipPath>
		<path style="clip-path:url(#SVGID_00000021090252491539185830000017451398646395328187_);" d="M77.6520462,58.5803185
			c-0.1290131,0.0738831-0.2414703,0.2310448-0.3321228,0.4816856c-0.0859528,0.2346535-0.1504059,0.5497513-0.1836395,0.9264793
			c-0.0249557,0.2792282-0.0208817,0.502121,0.0020828,0.66119c0.022934,0.1590843,0.0598526,0.2571602,0.1106491,0.294281
			c0.0458527,0.0399971,0.1160507,0.039547,0.2053604-0.0115967c0.0744247-0.0426254,0.1334763-0.1029434,0.1868515-0.1997719
			c0.0536194-0.0836678,0.0968323-0.1879234,0.1395721-0.3183632c0.0425262-0.1435738,0.0798035-0.2974319,0.1116562-0.4745979
			l-0.2067642-0.0670624c-0.0221939,0.158432-0.0502625,0.2672195-0.0786057,0.362957l-0.1221466,0.1759186l-0.1016235-0.0742645
			c-0.0165558-0.0832825-0.0144806-0.2433929,0.0060349-0.4936218c0.0162582-0.2080345,0.0433731-0.3692818,0.0717163-0.4649734
			c0.0422516-0.1566696,0.0909271-0.2375488,0.1504517-0.271637l0.0652237,0.0023994l0.0368805,0.0980949l0.0125656,0.1385231
			l0.2308197-0.2646599c-0.0040741-0.2228928-0.0320206-0.3790627-0.0785904-0.4584045
			C77.8266602,58.5333176,77.7512741,58.5234871,77.6520462,58.5803185"/>
		<polyline style="clip-path:url(#SVGID_00000021090252491539185830000017451398646395328187_);" points="78.8187561,57.9518967 
			78.1489105,58.3355141 77.9448547,60.6117058 78.6295776,60.2195702 78.6752853,59.703228 78.2436066,59.9504471 
			78.2805939,59.5053635 78.6725693,59.28088 78.7093124,58.8226776 78.322319,59.0443077 78.3557968,58.6806946 
			78.7725677,58.442009 78.8187561,57.9518967 		"/>
		<path style="clip-path:url(#SVGID_00000021090252491539185830000017451398646395328187_);" d="M79.1372452,58.6438141
			l0.041687-0.4610329l0.1091614-0.0625114l0.0853119,0.0041428l0.0128021,0.151638l-0.0273819,0.1481514l-0.0484009,0.0939751
			l-0.0690079,0.065979L79.1372452,58.6438141 M79.3843918,57.6279602l-0.4167709,0.2386818l-0.2040863,2.2762108
			l0.2530365-0.1449127l0.0834503-0.9221077l0.0198212-0.0113487l0.0555344,0.0211525l0.0326538,0.1402702l0.0715408,0.6214142
			l0.282814-0.1619682l-0.0608902-0.5877571l-0.0222549-0.1197243l-0.0318985-0.1009483l-0.056015-0.0474281l0.0928116-0.1326141
			l0.1003723-0.2694626l0.058754-0.3515892c0.0124817-0.1396103,0.0103226-0.2575951-0.0062256-0.3408279l-0.0780258-0.1540413
			C79.5185928,57.5643578,79.463768,57.5825005,79.3843918,57.6279602"/>
		<polyline style="clip-path:url(#SVGID_00000021090252491539185830000017451398646395328187_);" points="80.5355148,56.9687157 
			79.7763672,57.4034767 79.7263947,57.9620132 79.9844131,57.8142471 79.8302994,59.5319176 80.078392,59.3898392 
			80.2325058,57.6721649 80.4855423,57.5272484 80.5355148,56.9687157 		"/>
		<polyline style="clip-path:url(#SVGID_00000021090252491539185830000017451398646395328187_);" points="80.9125824,56.7527695 
			80.6595459,56.8976822 80.4554901,59.1738739 80.7085266,59.0289574 80.9125824,56.7527695 		"/>
		<polyline style="clip-path:url(#SVGID_00000021090252491539185830000017451398646395328187_);" points="81.711441,56.295269 
			81.0912247,56.6504631 80.8871384,58.9266701 81.1402054,58.7817383 81.2233887,57.8465385 81.5359802,57.6675148 
			81.5776749,57.2064819 81.2650757,57.3855019 81.2980728,56.9956627 81.6652451,56.7853813 81.711441,56.295269 		"/>
		<polyline style="clip-path:url(#SVGID_00000021090252491539185830000017451398646395328187_);" points="82.1034164,56.0707855 
			81.8553238,56.2128677 81.651268,58.4890556 81.9043045,58.3441429 82.1034164,56.0707855 		"/>
		<polyline style="clip-path:url(#SVGID_00000021090252491539185830000017451398646395328187_);" points="82.9518661,55.5848808 
			82.2820206,55.9684982 82.0829086,58.2418556 82.7626801,57.8525505 82.8083954,57.3362083 82.3767166,57.5834312 
			82.4186783,57.1354942 82.8056717,56.9138603 82.8473969,56.4528084 82.4603729,56.6744576 82.4938507,56.3108444 
			82.9106216,56.0721588 82.9518661,55.5848808 		"/>
		<path style="clip-path:url(#SVGID_00000021090252491539185830000017451398646395328187_);" d="M83.2003708,57.1117287
			l0.1076813-1.2406769l0.0645065-0.0369415c0.0645065-0.0369415,0.1048965-0.0203171,0.1261826,0.0469513
			c0.0215302,0.0804291,0.0194244,0.2405586-0.001297,0.4776573c-0.0167389,0.1818047-0.0344315,0.3111572-0.0528183,0.4011917
			l-0.0715561,0.1999054c-0.0241089,0.0535622-0.0635452,0.0893974-0.1131744,0.1178207L83.2003708,57.1117287 M83.4777985,55.28368
			l-0.3721237,0.2131119l-0.2040558,2.2761917l0.3721237-0.2131119c0.0446472-0.0255737,0.0940094-0.0670929,0.1528473-0.1405411
			l0.1308441-0.2471542l0.1130905-0.395916c0.0325699-0.1379128,0.0540466-0.3356438,0.0797195-0.5755692
			c0.0122681-0.1527481,0.0195618-0.3026428,0.0171661-0.4337387L83.7363434,55.4403l-0.0883942-0.1745567
			C83.6072845,55.2360268,83.5472488,55.2439079,83.4777985,55.28368"/>
	</g>
</g>
</svg>
