<?xml version="1.0" encoding="utf-8"?>
<!-- Generator: Adobe Illustrator 27.6.1, SVG Export Plug-In . SVG Version: 6.00 Build 0)  -->
<svg version="1.1" id="Layer_1" xmlns="http://www.w3.org/2000/svg" xmlns:xlink="http://www.w3.org/1999/xlink" x="0px" y="0px"
	 viewBox="0 0 172.9100037 90" style="enable-background:new 0 0 172.9100037 90;" xml:space="preserve">
<style type="text/css">
	.st0{fill:#888888;}
	.st1{fill:#FFFFFF;}
	.st2{fill:#CCCCCC;}
	.st3{fill:#797979;}
	.st4{fill:#666666;}
	.st5{fill:#0099FF;}
	.st6{fill:#808080;}
	.st7{fill:#F79420;}
</style>
<g>
	<rect x="71.8235855" y="86.1076508" class="st0" width="29.2628365" height="3.8923512"/>
	<g>
		<g>
			<rect x="71.8235855" y="86.1076508" width="6.2292175" height="2.3178484"/>
			<rect x="94.8572006" y="86.1076508" width="6.2292175" height="2.3178484"/>
		</g>
		<g>
			<g>
				<polygon class="st1" points="99.4894485,55.8998909 98.4677887,47.8034859 74.442215,47.8034859 73.4205551,55.8998909 
					73.4205551,55.9031792 99.4894485,55.9031792 				"/>
				<polygon class="st2" points="73.4205551,55.9031792 73.3436508,64.1171951 73.3433151,64.1242981 99.5660858,64.1242981 
					99.4894485,55.9031792 				"/>
				<polygon class="st3" points="73.8984299,63.5751534 73.9649429,56.4527283 98.9454651,56.4527283 99.0119781,63.5751534 				"/>
				<polygon class="st1" points="99.5660858,64.1242981 73.3433151,64.1242981 72.9054718,74.3373108 100.0054703,74.3373108 
					99.5663528,64.150116 				"/>
				<polygon class="st2" points="72.9054718,74.3373108 72.9041977,74.366745 72.9041977,79.2553635 100.005806,79.2553635 
					100.005806,74.3448181 100.0054703,74.3373108 				"/>
			</g>
		</g>
		<path d="M102.8620453,75.7399445h-0.659111v-1.4610367l-0.4394531-10.1837082l-0.0769043-8.2831459
			c0-0.0439835,0-0.0879021-0.0110016-0.1318893l-1.1534729-9.1180611
			c-0.0659103-0.5492821-0.5382843-0.9557457-1.0875702-0.9557457H99.071991l-0.6701126-7.3933105
			c-0.0439148-0.4284592-0.395462-0.7470169-0.8239212-0.7470169H97.479126l-1.1560822-7.7339306
			c-0.0439148-0.4174595-0.395462-0.747015-0.8239212-0.747015h-5.6221085c-0.2197266,0-0.4393845,0.0988998-0.5932007,0.2527161
			c-0.1538086,0.1647434-0.2307205,0.38447-0.2197266,0.6151924l0.0439224,1.2523117h-0.3075638l-0.0659103-2.3838654h3.0649643
			c0.2307281,0,0.4064636-0.1867371,0.4064636-0.4174595v-1.581934c0-0.0549145-0.0109253-0.1208248-0.0329208-0.1757412
			c0,0,0-0.0109959-0.010994-0.0109959l-0.263649-0.5272884c-0.0769043-0.1318226-0.2197189-0.2197266-0.3735352-0.2197266
			h-2.8782349l-0.0219269-0.9447479h0.0768433c0.2307205,0,0.4064636-0.1868038,0.4064636-0.4174595v-1.5709381
			c0-0.0109959,0-0.0329895-0.0109329-0.0439854c0-0.0109959,0.0109329-0.0219269,0-0.0439186l-0.4833679-2.2301159
			c-0.0439835-0.1867371-0.2087326-0.3185596-0.3955307-0.3185596h-3.5263519c-0.1867371,0-0.3625412,0.1318226-0.4064636,0.3185596
			l-0.4833679,2.2301159v0.0439186c0,0.0109959-0.010994,0.0329895-0.010994,0.0439854v1.5709381
			c0,0.2306557,0.1867371,0.4174595,0.4174576,0.4174595h0.0769043l-0.0219879,0.9447479h-2.8892288
			c-0.1538162,0-0.2966309,0.087904-0.3625412,0.2197266l-0.2746429,0.5272884c0,0.0109959,0,0.0109959,0,0.0109959
			c-0.0219269,0.0549164-0.0439224,0.1208267-0.0439224,0.1757412v1.581934c0,0.2307224,0.1867371,0.4174595,0.4174652,0.4174595
			h3.0649643l-0.0659103,2.3838654h-0.3185577l0.0549164-1.2523117c0.010994-0.2307224-0.065918-0.450449-0.2307281-0.6151924
			c-0.1537476-0.1538162-0.3624725-0.2527161-0.5932007-0.2527161h-5.6221085c-0.4284515,0-0.7799988,0.3295555-0.8239212,0.747015
			l-1.1450119,7.7339306h-0.0988998c-0.4284592,0-0.7800064,0.3185577-0.8239212,0.7470169l-0.6701126,7.3933105h-0.3625412
			c-0.5492859,0-1.0216599,0.4064636-1.0875702,0.9557457l-1.1534729,9.1180611
			c-0.0110016,0.0439873-0.0110016,0.0879059-0.0110016,0.1318893l-0.0769043,8.2501564l-0.4394531,10.2606125v1.4171219h-0.659111
			c-0.6041946,0-1.0985641,0.4943695-1.0985641,1.0985641v6.5364685c0,2.0653076,1.5160217,3.7461395,3.3835907,3.7461395
			h28.2440338c1.867569,0,3.3835907-1.6808319,3.3835907-3.7461395v-6.5364685
			C103.9606094,76.234314,103.4662399,75.7399445,102.8620453,75.7399445z M94.7521057,30.6329308l1.0681763,6.8330994h-4.7897873
			l-0.2855682-6.8330994H94.7521057z M89.1629868,32.2038689l0.3954697,9.3377876h-0.2966309l0.0769043-3.2297783
			c0-0.1098289-0.0329208-0.2196579-0.1098251-0.296566c-0.065918-0.0659103-0.1538162-0.0988998-0.2417221-0.1208267
			l-0.1538162-5.6906166H89.1629868z M91.3820419,27.1395054v0.7580128h-2.6804962l-0.0109329-0.7580128H91.3820419z
			 M85.0213852,21.0424919h2.8562393l0.3076248,1.406126h-3.4714966L85.0213852,21.0424919z M88.1632614,37.8834915h-3.4275131
			l0.4174576-14.6109505h2.6035919l0.0329895,1.1535454L88.1632614,37.8834915z M88.3609924,38.7074127l-0.0988312,2.4497757
			h-3.6143188l-0.1098251-2.4497757H88.3609924z M81.5169601,27.8975182v-0.7580128h2.7024918l-0.0219879,0.7580128H81.5169601z
			 M83.7470779,32.2038689h0.3295593l-0.1648102,5.7125435c-0.0549164,0.0219917-0.0988388,0.0549126-0.1428223,0.0988998
			c-0.0769043,0.0769081-0.1208267,0.1867371-0.1208267,0.296566l0.0769119,3.2297783h-0.3735428L83.7470779,32.2038689z
			 M78.1468964,30.6329308h4.0182495l-0.2856369,6.8330994h-4.7897186L78.1468964,30.6329308z M76.0790634,39.1138763h5.569725
			l-0.1208267,3.2187843c-0.0110016,0.2197227,0.0769043,0.4393845,0.2307205,0.6041946
			c0.1537476,0.1648102,0.3734741,0.2526474,0.5932007,0.2526474h8.2502213c0.2197266,0,0.4393845-0.0878372,0.5932007-0.2526474
			s0.2307205-0.3844719,0.2307205-0.6041946l-0.1208878-3.2187843h5.5148087l0.5932693,6.4924812H75.4968567L76.0790634,39.1138763z
			 M72.9041977,74.366745l0.4394531-10.2495499l0.0769043-8.2173042l1.0216599-8.096405h24.0255737l1.0216599,8.096405
			l0.0769043,8.2502251l0.4394531,10.1947021v4.9105453H72.9041977V74.366745z M101.7634811,83.3749771
			c0,0.8459167-0.5492783,1.5490112-1.1864624,1.5490112H72.3329849c-0.6481781,0-1.1864624-0.7030945-1.1864624-1.5490112
			v-2.1641388c0.1867371,0.1428223,0.4064636,0.2416534,0.659111,0.2416534h29.2987366
			c0.2526474,0,0.472374-0.0988312,0.659111-0.2416534V83.3749771z"/>
		<path class="st4" d="M101.7634811,81.2108383v2.1641388c0,0.8459167-0.5492783,1.5490112-1.1864624,1.5490112H72.3329849
			c-0.6481781,0-1.1864624-0.7030945-1.1864624-1.5490112v-2.1641388c0.1867371,0.1428223,0.4064636,0.2416534,0.659111,0.2416534
			h29.2987366C101.3570175,81.4524918,101.5767441,81.3536606,101.7634811,81.2108383z"/>
		<polygon class="st5" points="88.1852493,22.4486179 84.7137527,22.4486179 85.0213852,21.0424919 87.8776245,21.0424919 		"/>
		<polygon class="st4" points="91.3820419,27.1395054 91.3820419,27.8975182 88.7015457,27.8975182 88.6906128,27.1395054 		"/>
		<polygon class="st4" points="84.2194519,27.1395054 84.197464,27.8975182 81.5169601,27.8975182 81.5169601,27.1395054 		"/>
		<path class="st6" d="M84.0766373,32.2038689l-0.1648102,5.7125435c-0.0549164,0.0219917-0.0988388,0.0549126-0.1428223,0.0988998
			c-0.0769043,0.0769081-0.1208267,0.1867371-0.1208267,0.296566l0.0769119,3.2297783h-0.3735428l0.3955307-9.3377876H84.0766373z"
			/>
		<polygon class="st5" points="88.1632614,37.8834915 84.7357483,37.8834915 85.1532059,23.272541 87.7567978,23.272541 
			87.7897873,24.4260864 		"/>
		<path class="st6" d="M89.2618256,41.5416565l0.0769043-3.2297783c0-0.1098289-0.0329208-0.2196579-0.1098251-0.296566
			c-0.065918-0.0659103-0.1538162-0.0988998-0.2417221-0.1208267l-0.1538162-5.6906166h0.3296204l0.3954697,9.3377876H89.2618256z"
			/>
		<polygon class="st5" points="88.3609924,38.7074127 88.2621613,41.1571884 84.6478424,41.1571884 84.5380173,38.7074127 		"/>
		<polygon class="st2" points="95.820282,37.4660301 91.0304947,37.4660301 90.7449265,30.6329308 94.7521057,30.6329308 		"/>
		<polygon class="st2" points="82.1651459,30.6329308 81.879509,37.4660301 77.0897903,37.4660301 78.1468964,30.6329308 		"/>
		<path class="st1" d="M97.4132156,45.6063576H75.4968567l0.5822067-6.4924812h5.569725l-0.1208267,3.2187843
			c-0.0110016,0.2197227,0.0769043,0.4393845,0.2307205,0.6041946c0.1537476,0.1648102,0.3734741,0.2526474,0.5932007,0.2526474
			h8.2502213c0.2197266,0,0.4393845-0.0878372,0.5932007-0.2526474s0.2307205-0.3844719,0.2307205-0.6041946l-0.1208878-3.2187843
			h5.5148087L97.4132156,45.6063576z"/>
		<g>
			<rect x="85.1001282" y="38.2349777" width="0.5492818" height="3.4787848"/>
			<rect x="87.2577744" y="38.2349777" width="0.5492818" height="3.4787848"/>
		</g>
		<g>
			<rect x="86.0416336" y="22.8918247" width="0.8239227" height="18.8509865"/>
		</g>
		<g>
			<path d="M99.3850861,43.0789108V43.04599l-0.3076324-2.3509407c-0.0439224-0.2746429-0.2746429-0.472374-0.5492859-0.472374
				H74.3817673c-0.2746429,0-0.5162964,0.197731-0.5492859,0.472374L73.5248566,43.04599
				c-0.0109329,0.0109291,0,0.0219269,0,0.0329208c0,0.0109978-0.0109329,0.0219955-0.0109329,0.0329895v2.9001579
				c0,0.3076286,0.2526474,0.5492821,0.5492859,0.5492821h24.7835846c0.2965698,0,0.5492859-0.2416534,0.5492859-0.5492821
				v-2.9001579C99.39608,43.1009064,99.3850861,43.0899086,99.3850861,43.0789108z M82.3353577,41.3212357h8.2392273
				l0.1428146,1.2413826h-8.5248642L82.3353577,41.3212357z M81.017067,45.4627762h-6.4045792v-1.8015938h6.4045792V45.4627762z
				 M81.0829773,42.5626183h-6.3935852l0.1647491-1.2413826h6.3716507L81.0829773,42.5626183z M90.7943115,45.4627762h-8.6786804
				v-1.8015938h8.6786804V45.4627762z M91.6841431,41.3212357h6.3606567l0.1758118,1.2413826h-6.3936539L91.6841431,41.3212357z
				 M98.2975159,45.4627762H91.892868v-1.8015938h6.4046478V45.4627762z"/>
			<rect x="74.6124878" y="43.6611824" class="st7" width="6.4045773" height="1.8015933"/>
			<rect x="82.1156311" y="43.6611824" class="st7" width="8.6786795" height="1.8015933"/>
			<rect x="91.892868" y="43.6611824" class="st7" width="6.4046445" height="1.8015933"/>
			<polygon class="st7" points="98.2206116,42.5626183 91.8269577,42.5626183 91.6841431,41.3212357 98.0447998,41.3212357 			"/>
			<polygon class="st7" points="90.7173996,42.5626183 82.1925354,42.5626183 82.3353577,41.3212357 90.574585,41.3212357 			"/>
			<polygon class="st7" points="81.2257919,41.3212357 81.0829773,42.5626183 74.6893921,42.5626183 74.8541412,41.3212357 			"/>
		</g>
		<g>
			<ellipse class="st1" cx="76.3506317" cy="76.9358521" rx="2.0281174" ry="1.6731968"/>
			<ellipse class="st1" cx="96.5593719" cy="76.9358521" rx="2.0281174" ry="1.6731968"/>
		</g>
	</g>
</g>
</svg>
