<?xml version="1.0" encoding="utf-8"?>
<!-- Generator: Adobe Illustrator 27.6.1, SVG Export Plug-In . SVG Version: 6.00 Build 0)  -->
<svg version="1.1" id="Layer_1" xmlns="http://www.w3.org/2000/svg" xmlns:xlink="http://www.w3.org/1999/xlink" x="0px" y="0px"
	 viewBox="0 0 172.9100037 90" style="enable-background:new 0 0 172.9100037 90;" xml:space="preserve">
<style type="text/css">
	.st0{fill:#888888;}
	.st1{fill:#72C6EF;}
	.st2{fill:#F79420;}
	.st3{fill:#FFFFFF;}
	.st4{fill:#333366;}
	.st5{fill:#3751A0;}
	.st6{fill:#BABABA;}
	.st7{fill:#BC202E;}
	.st8{opacity:0.65;fill:#1A1A1A;}
	.st9{fill:#A9DDE9;}
	.st10{fill:#D1ECF2;}
	.st11{fill:#1A1A1A;}
	.st12{fill:#333333;}
	.st13{fill:#EC1C24;}
</style>
<g>
	<g>
		<path class="st0" d="M82.9800262,79.6298828l0.0100098,0.0200195l0.329834-0.1899414l4.9702148-2.8601074l-0.0102539-0.0200195
			c0.1101074-0.0599365,0.2202148-0.119873,0.3300781-0.1899414l1.5800781-0.9099121l36.4499512-21.0400391v-1.2399902
			l-1.2399902-0.5300293c-0.2900391,0.1799316-0.6098633,0.3500977-0.9299316,0.5600586
			c-0.3500977,0.1999512-0.7299805,0.4299316-1.1000977,0.6599121c-0.3798828,0.2299805-0.7800293,0.4399414-1.1899414,0.6700439
			c-0.8100586,0.4599609-1.6799316,0.9500732-2.5200195,1.4500732c-0.4099121,0.2299805-0.8400879,0.4599609-1.25,0.6899414
			c-0.1398926,0.3499756-0.2600098,0.6999512-0.4899902,1.0500488c-0.3500977,0.5699463-0.7800293,1.0998535-1.2700195,1.5299072
			c-0.0898438,0.0899658-0.2099609,0.1700439-0.2900391,0.2301025c-0.0898438,0.0898438-0.2099609,0.1499023-0.2900391,0.2099609
			c-0.119873,0.0799561-0.2099609,0.1398926-0.3198242,0.1999512c-0.4899902,0.2900391-0.9599609,0.4299316-1.3901367,0.4599609
			c-0.2299805,0-0.4399414-0.0300293-0.6398926-0.0899658c-0.1201172-0.0200195-0.1999512-0.0499268-0.3500977-0.1400146
			c0,0-0.1398926-0.0899658-0.1999512-0.1199951c0,0-1.3300781-0.7799072-1.3901367-0.8099365
			c0,0-0.4399414-0.2600098-0.4897461-0.2900391c-0.0300293-0.0300293-0.0600586-0.0600586-0.0900879-0.0600586
			c-0.2299805-0.1999512-0.2900391-0.2800293-0.380127-0.369873c-0.0297852-0.0600586-0.0598145-0.1201172-0.079834-0.1800537
			c-0.1201172-0.1700439-0.1799316-0.3399658-0.2399902-0.5500488c0-0.0198975-0.0300293-0.0799561-0.0300293-0.1099854
			l-2.3701172,1.3699951l-21.5,12.4300537c0.0600586,0.1398926,0.1201172,0.2600098,0.170166,0.4299316
			c0.0297852,0.0900879,0.0600586,0.2299805,0.0898438,0.3200684c0.0300293,0.119873,0.0300293,0.2600098,0.0300293,0.4099121
			c0.0300293,0.0800781,0.0300293,0.2299805,0.0300293,0.3701172c0,0.6098633-0.1201172,1.3099365-0.3500977,2.0299072
			C86.3699188,75.619873,86.1099091,76.2099609,85.7798309,76.75c-0.0498047,0.0898438-0.0998535,0.1799316-0.1599121,0.2698975
			c-0.4099121,0.6099854-0.8498535,1.1900635-1.3999023,1.710083c-0.2600098,0.2600098-0.5800781,0.5100098-0.9099121,0.7099609
			C83.1999969,79.5100098,83.0898895,79.5699463,82.9800262,79.6298828z"/>
		<path class="st0" d="M47.5298309,79.8598633L65.0898895,90L82.990036,79.6499023l-0.0100098-0.0200195
			c-0.4399414,0.2299805-0.9899902,0.4300537-1.4799805,0.4300537c-0.2299805,0-0.4599609,0-0.6899414-0.1099854
			c-0.1501465-0.0900879-0.2900391-0.1201172-0.4401855-0.2099609c-0.1699219-0.0800781-0.3200684-0.2000732-0.4899902-0.2900391
			c-0.4099121-0.2299805-0.8398438-0.4300537-1.2199707-0.6899414c-0.0900879-0.0300293-0.1699219-0.0900879-0.2600098-0.1501465
			C78.3101044,78.5898438,78.1699677,78.5,78.0801239,78.4099121c-0.1101074-0.1099854-0.2001953-0.2299805-0.2900391-0.3200684
			c-0.0300293,0-0.0300293-0.0299072-0.1101074-0.1999512c-0.119873-0.1699219-0.2099609-0.3798828-0.2600098-0.6699219
			c-0.0300293-0.0800781-0.0600586-0.2000732-0.0898438-0.3100586c-0.0302734-0.0300293-0.0302734-0.0600586-0.0302734-0.0899658
			l-2.9299316,1.7399902l-1.2099609,0.7199707l-0.9599609-0.5799561l-0.9001465-0.5200195l-0.1699219-0.0900879L69.6799774,77.25
			c-0.0500488-0.0300293-1.1398926-0.6501465-1.3300781-0.7600098L64.8599091,78.5l-2.1799316,1.2698975l-0.0100098-0.0098877
			l-2.1401367-1.2401123l-3.8598633-2.2299805l-1.4599609-0.8599854h-0.0300293l-4.5500488,2.6300049L47.5298309,79.8598633z"/>
		<path d="M46.2700653,70.289917c0.0600586,0.0300293,3.3598633,1.9400635,3.3598633,1.9400635l1.5100098,0.869873
			l4.0300293,2.3200684h0.0300293l0.0100098,0.0100098l1.4599609,0.8599854l3.8598633,2.2299805l2.1401367,1.2401123
			l2.1699219-1.2700195l3.4799805-2.0200195c0,0,0.0102539,0.0100098,0.0300293,0.0200195
			c0.1901855,0.1098633,1.2800293,0.7299805,1.3300781,0.7600098l1.4499512,0.8398438l0.1699219,0.0900879l0.9001465,0.5200195
			l0.9599609,0.5799561l1.2099609-0.7199707l2.9299316-1.7399902c0,0.0299072,0,0.0599365,0.0302734,0.0899658
			c0.0297852,0.1099854,0.0598145,0.2299805,0.0898438,0.3100586c0.0500488,0.2900391,0.1401367,0.5,0.2600098,0.6699219
			c0.0800781,0.1700439,0.0800781,0.1999512,0.1101074,0.1999512c0.0898438,0.0900879,0.1799316,0.210083,0.2900391,0.3200684
			c0.0898438,0.0900879,0.2299805,0.1799316,0.3198242,0.1999512c0.0900879,0.0600586,0.1699219,0.1201172,0.2600098,0.1501465
			c0.380127,0.2598877,0.8100586,0.4599609,1.2199707,0.6899414c0.1699219,0.0899658,0.3200684,0.2099609,0.4899902,0.2900391
			c0.1501465,0.0898438,0.2900391,0.119873,0.4401855,0.2099609c0.2299805,0.1099854,0.4599609,0.1099854,0.6899414,0.1099854
			c0.4899902,0,1.0400391-0.2000732,1.4799805-0.4300537c0.1098633-0.0599365,0.2199707-0.119873,0.3300781-0.1899414
			c0.329834-0.1999512,0.6499023-0.4499512,0.9099121-0.7099609c0.5500488-0.5200195,0.9899902-1.1000977,1.3999023-1.710083
			c0.0600586-0.0899658,0.1101074-0.1800537,0.1599121-0.2698975c0.3300781-0.5400391,0.5900879-1.130127,0.7900391-1.7301025
			c0.2299805-0.7199707,0.3500977-1.4200439,0.3500977-2.0299072c0-0.1401367,0-0.2900391-0.0300293-0.3701172
			c0-0.1499023,0-0.2900391-0.0300293-0.4099121c-0.0297852-0.0900879-0.0600586-0.2299805-0.0898438-0.3200684
			c-0.0500488-0.1699219-0.1101074-0.2900391-0.170166-0.4299316l21.5-12.4300537l2.3701172-1.3699951
			c0,0.0300293,0.0300293,0.0900879,0.0300293,0.1099854c0.0600586,0.210083,0.119873,0.3800049,0.2399902,0.5500488
			c0.0200195,0.0599365,0.0500488,0.1199951,0.079834,0.1800537c0.0900879,0.0898438,0.1501465,0.1699219,0.380127,0.369873
			c0.0300293,0,0.0600586,0.0300293,0.0900879,0.0600586c0.0498047,0.0300293,0.4897461,0.2900391,0.4897461,0.2900391
			c0.0600586,0.0300293,1.3901367,0.8099365,1.3901367,0.8099365c0.0600586,0.0300293,0.1999512,0.1199951,0.1999512,0.1199951
			c0.1501465,0.0900879,0.2299805,0.1199951,0.3500977,0.1400146c0.1999512,0.0599365,0.4099121,0.0899658,0.6398926,0.0899658
			c0.4301758-0.0300293,0.9001465-0.1699219,1.3901367-0.4599609c0.1098633-0.0600586,0.1999512-0.1199951,0.3198242-0.1999512
			c0.0800781-0.0600586,0.2001953-0.1201172,0.2900391-0.2099609c0.0800781-0.0600586,0.2001953-0.1401367,0.2900391-0.2301025
			c0.4899902-0.4300537,0.9199219-0.9599609,1.2700195-1.5299072c0.2299805-0.3500977,0.3500977-0.7000732,0.4899902-1.0500488
			c0.4099121-0.2299805,0.8400879-0.4599609,1.25-0.6899414c0.8400879-0.5,1.7099609-0.9901123,2.5200195-1.4500732
			c0.4099121-0.2301025,0.8100586-0.4400635,1.1899414-0.6700439c0.3701172-0.2299805,0.75-0.4599609,1.1000977-0.6599121
			c0.3200684-0.2099609,0.6398926-0.380127,0.9299316-0.5600586c0.0200195,0,0.0200195-0.0200195,0.0500488-0.0200195
			c0.2099609-0.1499023,0.4399414-0.2600098,0.6398926-0.3798828l0.5500488-0.2900391v-4.4599609l-2.9499512-1.7402344v-3.6799316
			l-0.7299805-2.4299316l-1.5300293-5.2800293l-0.119873-0.3999023l-14.5102539-8.3500977l-2.1799316-1.2399902
			l-2.1398926,1.2099609l-4.6401367,2.7001953l-0.6298828-0.380127l-0.9899902-0.5800781l-0.2600098,0.1799316l-0.2299805,0.1101074
			l-0.7600098,0.4699707l-0.4899902,0.2900391l-1.1000977-0.6098633l-2.6899414,1.5598145v12.8701172L46.3301239,67.829834
			C46.2700653,67.8598633,46.2700653,70.289917,46.2700653,70.289917z"/>
		<g>
			<polygon class="st0" points="57.340004,74.1720886 58.846611,75.0412216 99.5524292,51.4290314 99.5814285,51.4290314 
				98.1038208,50.5887299 			"/>
			<polygon class="st0" points="51.8354034,70.9852295 53.3130112,71.8543549 94.1346512,48.2709923 92.7150497,47.4308624 
				92.6860504,47.4308624 			"/>
			<polygon class="st1" points="111.6339417,39.8980026 109.2002029,41.3176079 109.2002029,41.4626122 119.4852753,35.5231819 
				119.4562759,35.4363556 104.6515503,26.8895416 100.0160828,29.5549278 111.6627579,36.3344841 111.6627579,39.8980026 			"/>
			<path class="st2" d="M109.2002029,38.8550491v0.5794754l1.2457809-0.6953011v-0.6084785l-0.1158295,0.0579987
				l-0.2028275,0.1448288L109.2002029,38.8550491z M105.202034,34.5672264l3.9981689,2.2887383v0.1158218l0.5214767-0.3186493
				l-4.0271683-2.3757362h-0.0288239L105.202034,34.5672264z"/>
			<polygon class="st3" points="104.8586273,33.8208199 104.3949738,34.081646 100.9182816,32.0825615 101.3819351,31.8217354 			
				"/>
			<path class="st0" d="M117.5197906,55.2022705c0.0289993-0.0579987,0.0289993-0.0868225,0.0289993-0.144825l-0.0580063-0.5214767
				c-0.0289993-0.144825-0.1158218-0.2898254-0.2028198-0.3766518c0-0.0289993,0-0.0289993-0.0580063-0.0579987
				c0-0.0290031-0.0289993-0.0868263-0.0579987-0.0868263c-0.0289993-0.0289993-0.0289993-0.0289993-0.0579987-0.0289993
				c0,0,0-0.0289993-0.0289993-0.0289993l-0.029007-0.0290031c-0.0289993-0.0289993-0.0579987-0.0578232-0.086998-0.0578232
				h-0.0289993c0,0,0,0-0.0289993,0v-0.0289993h-0.0289993c-0.0870056-0.0290031-0.1738281-0.0580025-0.2608337-0.0580025
				h-0.1158218c-0.086998,0-0.1448212,0.0289993-0.2318268,0.0580025c-0.1448212,0.0289993-0.3186493,0.0868225-0.4924774,0.2028236
				h-0.0289993l-0.28965,0.202652l-0.2028275,0.1160011c-0.2606506,0.2318268-0.4924774,0.5214767-0.6953049,0.840126
				c-0.1738205,0.2898293-0.3476486,0.6084785-0.4346466,0.956131c-0.0868301,0.2028275-0.1158295,0.4056549-0.1158295,0.6084785
				c-0.0579987,0.1158257-0.0579987,0.2316513-0.0581741,0.3476524v0.0288239l0.086998,0.4926529
				c0.0289993,0.0868263,0.0579987,0.1738243,0.0870056,0.2316513l0.0289993,0.0289993
				c0,0.0580025,0.0289993,0.0870018,0.0579987,0.1450005c0.0289993,0.0288239,0.0579987,0.0868263,0.086998,0.1158257
				l0.0870056,0.0580025c0,0,0,0,0.0289993,0.0288239h0.0289993l0.0289993,0.0289993
				c0.0578232,0.0289993,0.0868301,0.0580025,0.1448288,0.0580025c0.0579987,0.0289993,0.1448212,0.0579987,0.2028275,0.0289993
				c0.0289993,0,0.0289993,0,0.0289993,0h0.0289993l0.0579987,0.0289993h0.0580063c0,0,0,0,0.0289993,0c0,0,0,0,0.0289993,0
				h0.0579987c0.0868225,0,0.1738281-0.0289993,0.28965-0.0870018c0.1158295,0,0.2318268-0.0579987,0.3476562-0.144825
				l0.4924698-0.3476524c0.2318268-0.2028236,0.4346542-0.4346504,0.6084824-0.6953011
				c0.0289993-0.0289993,0.0579987-0.0870018,0.0579987-0.1160011s0-0.0289993,0-0.0289993
				c0.2316513-0.2896538,0.3764801-0.6373024,0.4634781-0.9559555
				C117.4617844,55.7527504,117.5197906,55.4631004,117.5197906,55.2022705z M116.2741852,55.1444473
				c0,0.1158257-0.0289993,0.2606506-0.0579987,0.3766518c-0.029007,0.1158257-0.1158295,0.28965-0.2028275,0.4054756
				c0,0.0290031-0.0289993,0.0580025-0.0289993,0.0580025c-0.0870056,0.1158257-0.1738281,0.2318268-0.2608337,0.3186493
				l-0.2318268,0.144825c-0.0289993,0.0290031-0.0868225,0.0580025-0.1448212,0.0580025
				c-0.0578232,0.0289993-0.0868225,0.0289993-0.1158218,0.0289993h-0.029007c-0.0289993,0-0.0289993,0-0.0289993,0h-0.0579987
				c0,0,0,0-0.0289993,0c0,0-0.0580063,0-0.0870056-0.0289993c0,0-0.0289993,0-0.0579987,0v-0.0289993h-0.0289993
				l-0.0289993-0.0290031c-0.0289993-0.0288239-0.0289993-0.0288239-0.0580063-0.0578232
				c0-0.0289993-0.0289993-0.0289993-0.0289993-0.0579987v-0.0290031c0,0-0.0289993-0.0578232-0.0289993-0.0868225
				l-0.0579987-0.2028275h0.000351v-0.0289993c0-0.0580025,0-0.0870018,0.0289993-0.144825
				c0-0.0870018,0.029007-0.1738281,0.0580063-0.2608299c0.0289993-0.1738243,0.1158218-0.28965,0.2028275-0.4344749
				c0.0868225-0.1160011,0.1738205-0.2608261,0.28965-0.3478279l0.086998-0.0578232l0.1158218-0.0870018h0.029007
				c0.0579987-0.0578232,0.1448212-0.0868225,0.2028198-0.0868225c0.0578308-0.0290031,0.0578308-0.0290031,0.1158295-0.0290031
				h0.0289993c0.0578232,0,0.0868225,0,0.1158218,0.0290031h0.0580063l0.0289993,0.0289993v0.0289993
				c0.0289993,0,0.0289993,0,0.0289993,0s0,0,0.0289993,0c0,0,0.0289993,0.0288239,0.0289993,0.0578232
				c0.0289993,0,0.0289993,0,0.0289993,0.0290031c0.029007,0.0289993,0.0580063,0.086998,0.0870056,0.144825v0.2318268
				C116.2741852,55.115448,116.2741852,55.115448,116.2741852,55.1444473z"/>
			<path class="st0" d="M82.5486526,77.9843826v-0.0289993h0.1158295c0,0,0,0,0.0289993,0
				c0.1450043-0.0289993,0.2898254-0.0870056,0.4346542-0.2028275c0.0579987-0.0289993,0.1158218-0.0289993,0.1738205-0.1160049
				h0.029007c0.0579987-0.0578232,0.1158218-0.0868225,0.1738205-0.1158218h0.0289993
				c0.0870056-0.0868225,0.1158295-0.1448212,0.2028275-0.1738281c0.2898331-0.28965,0.5504837-0.6084747,0.7823029-0.927124
				c0.029007-0.0868301,0.0580063-0.1158295,0.0870056-0.1448288c0.2318268-0.3766479,0.4346542-0.8113022,0.5794754-1.2167816
				c0.0868301-0.2318268,0.1448288-0.5214767,0.1738281-0.7533035c0.0289993-0.1738205,0.0289993-0.3186493,0.0289993-0.4636536
				c0-0.0868225,0-0.1158218-0.0289993-0.2028275c0-0.0578232,0-0.1738205-0.0289993-0.2316437
				c0-0.0580063,0-0.1450043-0.0289993-0.2028275c0-0.0289993-0.0289993-0.0870056-0.0580063-0.1448288
				c0-0.0289993-0.0289993-0.0289993-0.0579987-0.0579987c0-0.086998-0.0289993-0.1448288-0.0579987-0.1738281
				c-0.0289993,0-0.0289993-0.0289993-0.0289993-0.0289993c-0.0868301-0.1448212-0.1738281-0.2608261-0.28965-0.3186493
				c0,0,0,0-0.029007,0c-0.0289993-0.0289993-0.0579987-0.0870056-0.086998-0.0870056c0,0,0,0-0.0289993,0l-0.0289993-0.0289993
				c0,0,0-0.0288239-0.0289993-0.0288239c0,0,0,0-0.029007,0c-0.0289993-0.0289993-0.0579987-0.0289993-0.086998-0.0289993
				s-0.0579987,0-0.0579987,0c-0.0289993,0-0.0289993,0-0.0580063,0h-0.0289993
				c-0.0579987-0.0289993-0.1158218-0.0289993-0.1738205-0.0289993h-0.1448288c-0.1158218,0-0.1738281,0.0289993-0.28965,0.0289993
				c-0.0579987,0-0.1158218,0.0288239-0.1738281,0.0578232c0,0,0,0-0.0289993,0
				c-0.0579987,0.0289993-0.1158218,0.0870056-0.2028275,0.1160049h-0.0289993
				c-0.0579987,0-0.1158218,0.0288239-0.1738281,0.0578232c-0.0579987,0.0289993-0.1448212,0.1160049-0.2028198,0.1450043
				c-0.0870056,0.0578232-0.1448288,0.1158218-0.2028275,0.1738205c-0.0870056,0.0288239-0.1448288,0.1158295-0.2028275,0.1738281
				c-0.3476486,0.2606506-0.6373062,0.6373062-0.8691254,1.0429535c-0.2608337,0.3766556-0.4636536,0.7533035-0.579483,1.1877823
				h-0.0289993c-0.1160049,0.4346542-0.2028275,0.8403015-0.2031784,1.2169571v0.1738281h0.0289993v0.2028198l0.0289993,0.0288239
				c0.0289993,0.0870056,0.0289993,0.1450043,0.0579987,0.2028275c0.0288239,0.1160049,0.0578308,0.2608261,0.1158295,0.3188324
				c0,0.0288239,0.0289993,0.0288239,0.0289993,0.0288239c0,0.0289993,0,0.086998,0.0289993,0.1159973
				c0.0289993,0,0.0579987,0.0289993,0.0579987,0.0578232c0.029007,0.0289993,0.029007,0.0289993,0.029007,0.0289993
				c0.0289993,0.0870056,0.0579987,0.0870056,0.086998,0.1160049v0.0289993h0.0289993v0.0288239
				c0.0289993,0.0579987,0.0579987,0.0579987,0.0579987,0.0579987h0.029007v0.029007
				c0.0289993,0.0289993,0.0579987,0.0289993,0.086998,0.0289993h0.0289993c0,0,0.0289993,0,0.0579987,0.0289993
				c0,0,0.029007,0,0.0580063,0v0.0289993c0,0,0.0289993,0.0288239,0.086998,0.0288239
				c0.0289993,0,0.0868225,0.0579987,0.1448288,0.0579987c0.0579987,0.0289993,0.0868225,0.0289993,0.1738205,0.0289993h0.0289993
				c0,0,0.029007,0,0.0580063,0c0,0,0,0,0.0289993,0C82.3168259,78.1002045,82.4038315,78.0712051,82.5486526,77.9843826z
				 M82.5198288,76.3039474c-0.086998,0.0578232-0.1448212,0.0578232-0.2028198,0.0578232c-0.0289993,0-0.0289993,0-0.0289993,0
				h-0.029007c-0.0578232,0-0.0578232,0-0.1158218,0c-0.0289993,0-0.0579987-0.0288239-0.0579987-0.0288239
				c-0.0289993,0-0.0580063-0.0289993-0.0580063-0.0289993h-0.0289993c0-0.0289993-0.0289993-0.0289993-0.0289993-0.0289993
				c-0.0289993,0-0.0579987,0-0.0579987,0v-0.0289993h-0.0289993c0,0,0,0-0.0289993-0.0289993v-0.0289993
				c-0.029007,0-0.029007,0-0.0580063-0.0578232c0,0,0,0,0-0.029007l-0.0289993-0.0289993
				c-0.0289993,0-0.0289993-0.0289993-0.0289993-0.0579987c-0.0289993-0.0289993-0.0579987-0.1158218-0.086998-0.1738281
				c0-0.0289993,0-0.0579987-0.029007-0.1158218v-0.1160049h-0.0281143h-0.000885h0.000885v-0.0868225
				c0-0.2028275,0.0578232-0.4344788,0.1158295-0.6663055h0.0289993c0.0578232-0.2318268,0.1448212-0.4056473,0.28965-0.6084747
				c0.1158218-0.2316513,0.28965-0.4344788,0.4634781-0.5504761c0.0288162-0.0578232,0.0578232-0.0868301,0.1158218-0.1158295
				c0.0288239-0.0289993,0.0578232-0.0579987,0.1158218-0.086998c0.0289993,0,0.0580063-0.0578232,0.0870056-0.0868225
				c0.0289993,0,0.0579987-0.0289993,0.086998-0.0289993h0.0289993c0.0578232,0,0.0868301-0.029007,0.1158295-0.0580063
				c0.0289993,0,0.0579987-0.0288239,0.086998-0.0288239h0.3476562c0.0289993,0,0.0289993,0,0.0289993,0h0.0289993
				c0.0289993,0,0.0289993,0,0.0579987,0.0288239c0.0289993,0,0.0289993,0,0.0289993,0v0.0289993
				c0.0289993,0,0.0289993,0,0.0289993,0s0.029007,0.029007,0.0580063,0.029007
				c0.0578232,0.0289993,0.1158218,0.1159973,0.1448212,0.1738205c0,0,0,0.0289993,0.0289993,0.0289993
				c0,0,0.029007,0.0289993,0.029007,0.0870056c0.0289993,0.0288239,0.0289993,0.0288239,0.0289993,0.0288239
				c0.0289993,0.0289993,0.0289993,0.0579987,0.0289993,0.086998c0.0289993,0.0289993,0.0289993,0.0579987,0.0289993,0.0868225
				v0.1450043c0.0289993,0.0289993,0.0289993,0.0578232,0.0289993,0.0868225c0,0.0870056,0,0.1738281-0.0289993,0.2608337
				c0,0.1158218-0.0289993,0.260643-0.086998,0.4054718c-0.0868301,0.2028275-0.1738281,0.4346542-0.3186569,0.6374817
				c0,0-0.0289993,0.0289993-0.0289993,0.0868225c-0.1159973,0.1450043-0.2608261,0.3188248-0.4346542,0.4926529
				c-0.0289993,0-0.0579987,0.0289993-0.086998,0.0868225h-0.0289993c-0.0289993,0-0.0580063,0.0289993-0.0870056,0.0580063
				h-0.0289993c-0.0289993,0.0578232-0.0579987,0.0578232-0.086998,0.0578232
				c-0.0580063,0.0579987-0.1448288,0.086998-0.2318268,0.1159973H82.5198288z"/>
			<polygon class="st4" points="110.6531143,43.2078896 110.6531143,47.7275581 118.0119705,43.8742599 116.7371902,39.6732864 			
				"/>
			<polygon class="st5" points="97.1466293,37.0733795 101.4054489,39.5071144 101.4054489,42.2593269 97.1466293,39.8257675 			"/>
			<path class="st5" d="M115.6941757,49.5816689c0.6082993,0.3476524,0.9559555,0.956131,1.0429535,1.6514359
				c-0.0289993-0.0290031-0.0579987-0.0580025-0.086998-0.0580025c-0.0580063-0.0288239-0.1448288-0.0288239-0.2318268-0.0288239
				c-0.202652,0-0.4054794,0.0578232-0.6373062,0.144825c-0.2608261,0.0580025-0.5214767,0.1738281-0.7823029,0.3186531
				c-0.0868225,0.0579987-0.202652,0.1158257-0.28965,0.2028236c-0.0868225,0.0580025-0.202652,0.144825-0.28965,0.2028275
				c-0.0868225,0.0868263-0.202652,0.1738243-0.28965,0.2606506c-0.4924774,0.4346542-0.956131,0.9851303-1.3037872,1.5356064
				l-1.216774,0.6953049l-0.9271317,0.5504761l-1.4776077,0.8691292v-3.8821678l4.3168182-2.462738
				C114.1875687,49.1760178,115.0278702,49.1760178,115.6941757,49.5816689z"/>
			<path class="st5" d="M109.2002029,41.4626122v8.0831604l3.2158661-1.8542595
				c0.4926529-0.28965,1.0141296-0.4634743,1.5356064-0.5504761c0.956131-0.1738243,1.9410782,0.0289993,2.8392105,0.5504761
				c0.869133,0.4926567,1.5356064,1.2457809,1.8542633,2.1729126c0.0868225,0.144825,0.1448212,0.2898254,0.1738205,0.4346504
				l0.28965-0.1738243h0.0289993l2.3757401-1.3327827v-5.7074242l-2.0280838-7.5618629L109.2002029,41.4626122z
				 M110.6488113,43.2008667l6.0840759-3.5345154l1.2747803,4.2008209l-7.3588562,3.853344V43.2008667z"/>
			<path class="st6" d="M123.6903381,50.0163231v-1.7094345l0.7823029,0.4636536v1.9410858
				c-1.6224289,0.9271278-3.5055161,2.0280838-5.3887787,3.1290398c0-0.1160011-0.0289993-0.2318268-0.0289993-0.3188286
				c-0.0289993-0.1158257-0.0579987-0.2316513-0.086998-0.3186531c-0.0578232-0.144825-0.0868225-0.2606468-0.1448288-0.3766518
				l2.6943893-1.5644302L123.6903381,50.0163231z"/>
			<path class="st6" d="M114.796402,55.5789223c0.0289993-0.1738243,0.1158218-0.28965,0.2028275-0.4344749
				c0.0868225-0.1160011,0.1738205-0.2608261,0.28965-0.3478279l0.086998-0.0578232l0.1158218-0.0870018h0.029007
				c0.0579987-0.0578232,0.1448212-0.0868225,0.2028198-0.0868225c0.0578308-0.0290031,0.0578308-0.0290031,0.1158295-0.0290031
				h0.0289993c0.0578232,0,0.0868225,0,0.1158218,0.0290031h0.0580063l0.0289993,0.0289993v0.0289993
				c0.0289993,0,0.0289993,0,0.0289993,0s0,0,0.0289993,0c0,0,0.0289993,0.0288239,0.0289993,0.0578232
				c0.0289993,0,0.0289993,0,0.0289993,0.0290031c0.029007,0.0289993,0.0580063,0.086998,0.0870056,0.144825v0.2318268
				c0,0.0289993,0,0.0289993,0,0.0579987c0,0.1158257-0.0289993,0.2606506-0.0579987,0.3766518
				c-0.029007,0.1158257-0.1158295,0.28965-0.2028275,0.4054756c0,0.0290031-0.0289993,0.0580025-0.0289993,0.0580025
				c-0.0870056,0.1158257-0.1738281,0.2318268-0.2608337,0.3186493l-0.2318268,0.144825
				c-0.0289993,0.0290031-0.0868225,0.0580025-0.1448212,0.0580025c-0.0578232,0.0289993-0.0868225,0.0289993-0.1158218,0.0289993
				h-0.029007c-0.0289993,0-0.0289993,0-0.0289993,0h-0.0579987c0,0,0,0-0.0289993,0c0,0-0.0580063,0-0.0870056-0.0289993
				c0,0-0.0289993,0-0.0579987,0v-0.0289993h-0.0289993l-0.0289993-0.0290031
				c-0.0289993-0.0288239-0.0289993-0.0288239-0.0580063-0.0578232c0-0.0289993-0.0289993-0.0289993-0.0289993-0.0579987v-0.0290031
				c0,0-0.0289993-0.0578232-0.0289993-0.0868225l-0.0579987-0.2318268c0-0.0580025,0-0.0870018,0.0293503-0.144825
				C114.7383957,55.7527504,114.7674026,55.6659241,114.796402,55.5789223z"/>
			<path class="st6" d="M81.7378845,74.8553391c0.0578232-0.2318268,0.1448212-0.4056473,0.28965-0.6084747
				c0.1158218-0.2318268,0.28965-0.4344788,0.4634781-0.5504761c0.0288162-0.0580063,0.0578232-0.0868301,0.1158218-0.1158295
				c0.0288239-0.0289993,0.0578232-0.0579987,0.1158218-0.086998c0.0289993,0,0.0580063-0.0578232,0.0870056-0.0868225
				c0.0289993,0,0.0579987-0.0289993,0.086998-0.0289993h0.0289993c0.0578232,0,0.0868301-0.029007,0.1158295-0.0580063
				c0.0289993,0,0.0579987-0.0289993,0.086998-0.0289993h0.3476562c0.0289993,0,0.0289993,0,0.0289993,0h0.0289993
				c0.0289993,0,0.0289993,0,0.0579987,0.0289993c0.0289993,0,0.0289993,0,0.0289993,0v0.0289993
				c0.0289993,0,0.0289993,0,0.0289993,0s0.029007,0.029007,0.0580063,0.029007
				c0.0578232,0.0289993,0.1158218,0.1158218,0.1448212,0.1738205c0,0,0,0.0289993,0.0289993,0.0289993
				c0,0,0.029007,0.0289993,0.029007,0.0868301c0.0289993,0.0289993,0.0289993,0.0289993,0.0289993,0.0289993
				c0.0289993,0.0289993,0.0289993,0.0579987,0.0289993,0.086998c0.0289993,0.0289993,0.0289993,0.0578232,0.0289993,0.0868225
				v0.1450043c0.0289993,0.0288239,0.0289993,0.0578232,0.0289993,0.0868225c0,0.0870056,0,0.1738281-0.0289993,0.2608337
				c0,0.1158218-0.0289993,0.260643-0.086998,0.4054718c-0.0868301,0.2028275-0.1738281,0.4346542-0.3186569,0.6374817
				c0,0-0.0289993,0.0289993-0.0289993,0.0868225c-0.1159973,0.1448212-0.2608261,0.3188248-0.4346542,0.4926529
				c-0.0289993,0-0.0579987,0.0288239-0.086998,0.0868225h-0.0289993c-0.0289993,0-0.0580063,0.0289993-0.0870056,0.0580063
				h-0.0289993c-0.0289993,0.0578232-0.0579987,0.0578232-0.086998,0.0578232
				c-0.0580063,0.0579987-0.1448288,0.086998-0.2318268,0.1159973h-0.0580063
				c-0.086998,0.0578232-0.1448212,0.0578232-0.2028198,0.0578232c-0.0289993,0-0.0289993,0-0.0289993,0h-0.029007
				c-0.0578232,0-0.0578232,0-0.1158218,0c-0.0289993,0-0.0579987-0.0289993-0.0579987-0.0289993
				c-0.0289993,0-0.0580063-0.0288239-0.0580063-0.0288239h-0.0289993c0-0.0289993-0.0289993-0.0289993-0.0289993-0.0289993
				c-0.0289993,0-0.0579987,0-0.0579987,0v-0.0289993h-0.0289993c0,0,0,0-0.0289993-0.0289993v-0.0289993
				c-0.029007,0-0.029007,0-0.0580063-0.0580063c0,0,0,0,0-0.0288239l-0.0289993-0.0289993
				c-0.0289993,0-0.0289993-0.0289993-0.0289993-0.0579987c-0.0289993-0.0289993-0.0579987-0.1158218-0.086998-0.1738281
				c0-0.0289993,0-0.0579987-0.029007-0.1158218v-0.1160049h-0.0289993v-0.0868225
				c0-0.2028275,0.0578232-0.4346542,0.1167145-0.6663055H81.7378845z"/>
			<path d="M96.4235687,35.8420105v4.4036446l5.7074203,3.2448654v-4.3746452L96.4235687,35.8420105z M97.1478729,37.0877914
				l1.1877747,0.6953011l3.0710373,1.7382584v2.752388l-4.258812-2.4335594V37.0877914z"/>
			<polygon points="95.4426804,43.6714172 95.4425049,43.6714172 95.4426804,43.6714172 			"/>
			<rect x="95.4507217" y="43.6667557" width="0.0000884" height="0.0186985"/>
			<polygon points="95.4425049,43.6714172 95.4426804,43.6714172 95.4426804,43.6714172 			"/>
		</g>
		<polygon class="st2" points="96.1047363,29.3232784 97.6403427,30.1924076 98.2776489,30.5690594 100.0450821,31.5830135 
			100.5085602,31.3223629 98.7413025,30.279232 98.1328201,29.9315796 96.5973892,29.0334511 		"/>
		<polygon class="st5" points="72.2009811,74.2397919 72.2009811,76.2100525 71.7953339,75.9782257 71.4027634,75.7513504 
			71.4027634,74.6999054 		"/>
		<polygon class="st7" points="71.4027634,74.6999054 71.4027634,75.7513504 70.4917297,75.2249222 		"/>
		<path class="st6" d="M92.8598709,29.9605808v12.6029873l2.2599106,1.3036041l0.0578232-0.0288239l0.2608337-0.1740036
			l0.7823029-0.4344749l7.1560287,4.0849915v1.3327827l0.666481,0.3766518l2.9840393,1.709259V38.1307449L92.8598709,29.9605808z
			 M96.4235687,35.8420105l5.7074203,3.2738647v4.3746452l-5.7074203-3.2448654V35.8420105z"/>
		<polygon class="st6" points="93.3525238,46.1850853 93.3525238,46.996212 99.2627792,50.4439011 99.2627792,49.6327744 		"/>
		<polygon class="st6" points="93.6421738,45.5186043 99.6104279,49.0242958 100.4217377,48.5606422 101.8703384,47.6915131 
			102.2468185,47.4886894 96.2207413,44.0409966 95.873085,44.243824 94.3954773,45.0841293 		"/>
		<polygon class="st6" points="48.5035362,69.0729675 51.8354034,70.9852295 92.6860504,47.4308624 92.6282196,47.4018631 
			92.6282196,45.286953 93.6711807,44.7074776 92.1355667,43.8671722 90.6869659,44.7074776 		"/>
		<polygon class="st6" points="53.3130112,71.8543549 57.340004,74.1720886 98.1038208,50.5887299 96.8002167,49.8066025 
			94.1346512,48.2709923 		"/>
		<polygon class="st6" points="58.846611,75.0412216 62.699955,77.2721329 71.4784241,72.1730042 73.651329,70.9272232 
			77.5046768,68.696312 79.6775818,67.4215317 106.3029861,52.0083351 104.043251,50.704731 102.5946426,49.8644257 
			99.7262573,51.544857 99.6974335,51.5158577 99.5814285,51.4290314 99.5524292,51.4290314 		"/>
		<path class="st5" d="M74.3738937,72.9940109v3.0132141l5.3019485-3.0710373
			c0.0578232-0.1160049,0.1158295-0.2028275,0.1738281-0.3188324c0.4344788-0.6952972,0.956131-1.3326035,1.5354309-1.8540802
			c0.1160049-0.1160049,0.2608261-0.2028275,0.3766556-0.2608261c0.1159973-0.1158218,0.2028198-0.2028275,0.3188248-0.28965
			c0.1158218-0.0870056,0.2606506-0.1738281,0.3764725-0.2318268c0.6374817-0.3476562,1.2459641-0.5504761,1.7674408-0.5504761
			c0.2606506,0.0289993,0.4634705,0.0579987,0.6662979,0.1158218c0.1448288,0.0289993,0.2608261,0.1160049,0.3766556,0.1738281
			l21.7598419-12.5546875v-3.042038L76.7206268,71.6324081L74.3738937,72.9940109z"/>
	</g>
	<g>
		<g>
			<path class="st8" d="M100.0752182,52.7584229c0-0.3384323-0.0781708-0.6377792-0.2081451-0.9240952l0.013031-0.013031
				l1.9784775,1.1454277c0.8719788,0.4946213,0.8719788,1.7441216,0,2.2388992l-4.698967,2.7071419
				C98.7736053,56.8976288,100.0752182,54.6328316,100.0752182,52.7584229z M75.3705978,70.3432541
				c-0.2211761,0.2082977-0.4944611,0.4296341-0.793808,0.6117172l22.413765-12.937973
				c-0.7550354,0.4035759-1.4188766,0.4296341-1.9133377,0.1952744l-0.3387451-0.1952744l-0.6895752-0.3644905
				c-0.4035797-0.2472305-0.8071594-0.4685631-1.1973877-0.7029228c-0.3254013-0.1951141-0.4687195-0.4164467-0.5468903-0.7547226
				c0,0-15.0985413,8.7337875-15.0858307,8.7598419c0.1693726,0.4814301,0.221489,1.0281677,0.1693726,1.522789
				c-0.0521164,0.3384323-0.1302872,0.6768646-0.2341995,1.0152969
				C76.8412704,68.5861053,76.1777496,69.5623169,75.3705978,70.3432541z M47.4164124,67.5105133l6.2982178,2.4773026
				c2.0305977,1.0281677,3.649807,1.9823303,5.5501099,3.2188034l4.7549591,3.483551l5.1942825-2.6371918l5.0634613-2.9286346
				c-0.6247482,0.3123779-1.3016129,0.4684067-1.8745651,0.2472305l-0.3254089-0.2081375l-0.6508026-0.3644943
				c-0.4032593-0.2213287-0.793808-0.4687195-1.1973877-0.702919c-0.3384323-0.1952744-0.5208359-0.3644943-0.6247482-0.768074
				l-4.2432785,2.4472046c-0.7550354,0.4553757-1.8615341,0.6508102-2.9155998,0.6508102
				c-0.7159538,0-1.3928185-0.0912018-1.8612213-0.2734528c-0.8592682-0.2993469-1.6661072-0.7157898-2.4862862-1.1193695
				c-0.911068-0.5076447-1.9003067-0.9110641-2.8504601-1.4187164c-1.1192131-0.6508026-2.25177-1.2887421-3.3322105-1.9654465
				c-0.5986938-0.4034195-1.2495003-0.7809372-1.8221359-1.2366333c-0.104229-0.0780106-0.2084618-0.1690521-0.2993431-0.2602539
				L47.4164124,67.5105133z"/>
			<path d="M48.0627441,59.0322952l1.8354797,3.2410088c-0.3775177,0.143158-0.7550392,0.3123741-0.95047,0.5856628
				c-0.0390892,0-0.1039124,0.0260582-0.1299706,0.0651436c-0.0651436,0.0651436-0.1433182,0.143158-0.1433182,0.2341995
				c0,0.0390892,0,0.0390892,0,0.0651474v0.4166031c0,0.0390892,0.0260582,0.0649872,0.0521164,0.1040726
				c0.0260582,0.5206757,0.0781708,1.0933151,0.2993431,1.5229492c0.0781746,0.1299667,0.1433182,0.2341995,0.2081451,0.3384323
				c0.1693764,0.1951141,0.3644905,0.3903885,0.5599251,0.5465775c0.0908813,0.0912018,0.1951141,0.1822433,0.2993431,0.2602539
				c0.5726357,0.4556961,1.2234421,0.8332138,1.8221359,1.2366333c1.0804405,0.6767044,2.2129974,1.3146439,3.3322105,1.9654465
				c0.9501534,0.5076523,1.9393921,0.9110718,2.8504601,1.4187164c0.820179,0.4035797,1.627018,0.8200226,2.4862862,1.1193695
				c0.4684029,0.182251,1.1452675,0.2734528,1.8612213,0.2734528c1.0540657,0,2.1605644-0.1954346,2.9155998-0.6508102
				l4.2432785-2.4472046c0.1039124,0.4035797,0.2863159,0.5727997,0.6247482,0.768074
				c0.4035797,0.2341995,0.7941284,0.4815903,1.1973877,0.702919l0.6508026,0.3644943l0.3254089,0.2081375
				c0.5729523,0.2211761,1.2498169,0.0651474,1.8745651-0.2472305c0.1039124-0.0521164,0.1951141-0.1042252,0.2993469-0.1693726
				c0.2993469-0.1820831,0.5726318-0.4034195,0.793808-0.6117172c0.8071518-0.7809372,1.4706726-1.7571487,1.7833633-2.8504639
				c0.1039124-0.3384323,0.1820831-0.6768646,0.2341995-1.0152969c0.0521164-0.4946213,0-1.0413589-0.1693726-1.522789
				c-0.0127106-0.0260544,15.0858307-8.7598419,15.0858307-8.7598419c0.0781708,0.3382759,0.221489,0.5596085,0.5468903,0.7547226
				c0.3902283,0.2343597,0.793808,0.4556923,1.1973877,0.7029228l0.6895752,0.3644905l0.3387451,0.1952744
				c0.4944611,0.2343597,1.1583023,0.2083015,1.9133377-0.1952744c0.0257416-0.013031,0.051796-0.0260582,0.077858-0.0390892
				c0.0260544-0.0130272,0.0651398-0.0390854,0.0912018-0.0651436c1.6139908-1.0151367,2.9156036-3.2799339,2.9156036-5.1543427
				c0-0.3384323-0.0781708-0.6377792-0.2081451-0.9240952l0.013031-0.013031l2.96772-1.7182198l0.0778503-0.0389252
				c0.2084656-0.2734489,0.4166107-0.5467377,0.5468979-0.8460846c0.1690598-0.2993431,0.2602615-0.6117172,0.2993469-0.885006
				c0.0521164-0.2732887,0.0521164-0.5078087-0.013031-0.7550392c-0.0390854-0.0651436-0.0390854-0.1301308-0.0651398-0.1690559
				c-0.10392-0.1954346-0.2081451-0.3384361-0.3775253-0.4817505c-0.0912018-0.0910454-0.2081375-0.156189-0.3123703-0.195118
				c0.1042328-0.1563454,0.2472305-0.3384323,0.3123703-0.5078049c0.0651474-0.1040726,0.1433182-0.2342033,0.1693802-0.3384323
				c0.3123703-0.8459244,0.038765-1.6270218-0.742012-2.1735954c-0.6508102-0.4296341-1.522789-0.6768646-2.3169098-0.611721
				c-0.5726395,0.0781708-1.2104111,0.1040726-1.7312546,0.1040726c-0.3902283,0.0390854-0.7416916,0.0390854-0.9110641,0.0390854
				c-0.0390854,0-1.5618744-0.88517-1.5618744-0.88517c-0.2993469-0.885006-1.0543823-1.6009598-2.0045395-1.7571449
				c-0.2993469-0.0780144-0.5986862,0-0.8719788,0.0521126c-0.0390854,0-1.1325531-0.6118774-1.1325531-0.6118774
				l-0.2993469-0.1560287c0-0.0781746,0-0.1433182-0.0387726-0.2083015
				c-0.0133438-0.8200264-0.2996597-2.4731026-1.3797836-3.123909c-0.742012-0.4426651-1.6009598,0.0651436-2.3038864,0.3775177
				c-0.0781708,0.0390892-0.23452,0.1301308-0.3384323,0.1301308c-0.013031,0-14.0575027,7.8096886-14.0575027,7.8096886
				c-0.0781708,0-0.9501495,0.3773613-2.1087646,0.8460808c-1.7569962,0.7418518-4.1781387,1.7960777-5.0240555,2.1996536
				c-4.9201431,2.6423149-18.3268394,10.3998871-18.4310722,10.4780617
				c-0.1299706,0.1040726-0.1951141,0.2472305-0.1951141,0.3644905c0,0.0780144,0,0.1820869,0.0651436,0.2342033
				L48.0627441,59.0322952z"/>
			<path class="st6" d="M72.5654068,68.8484421c0.0312653,1.1401825,0.8435059,1.5775757,1.8273392,1.0152969
				c1.0154877-0.5779037,1.8277283-1.9524231,1.8277283-3.1395111c0-1.1401825-0.8435059-1.5930099-1.8277283-0.9683914
				C73.4089127,66.2714005,72.5654068,67.6613541,72.5654068,68.8484421z M75.8921509,67.0523682l-0.7184372,0.2497711v0.0312729
				h-0.0934219l-0.0781708,0.0469055l-0.2028732,0.0312653v-0.0312653c0,0,0.046524-0.0469055,0.046524-0.0781784
				l0.1250763-0.2966766l0.0781708-0.0781708l0.5311966-0.9371262L75.8921509,67.0523682z M74.6429062,68.0362091h0.1090546
				l0.9373169-0.0469055l-0.9373169,1.2652588l-0.1090546-1.1401825V68.0362091z M74.392746,67.3021393l-0.5620804-0.7340622
				l1.1714554-0.7027969L74.392746,67.3021393z M73.0965958,69.4888916l0.8122406-0.9683914l0.2185059-0.2343292v0.0625381
				h0.0156326l-0.0781708,1.3432388L73.0965958,69.4888916z M72.8933487,68.8484421l0.3592148-1.5150299l0.5311966,0.3748474
				l0.0781708,0.0312729l0.0777969,0.0468979l0.0472794,0.0781784l-0.2501526,0.2497711l-0.0781708,0.0781708L72.8933487,68.8484421
				z"/>
			<path class="st6" d="M95.2945862,55.6587944c0,1.187088,0.8122406,1.5932083,1.7964554,1.0622025
				c1.0151062-0.6091805,1.8273468-1.9991379,1.8273468-3.1395111c0-1.1714516-0.8122406-1.5773811-1.8273468-1.0152969
				C96.1068268,53.1442871,95.2945862,54.5186119,95.2945862,55.6587944z M96.4820557,54.5967827h0.0308914c0,0,0,0,0.0468979,0
				c0,0,0.0312729,0,0.0469055,0c0.0156326,0.0156364,0.0156326,0.0156364,0.0312729,0.0156364c0.0156326,0,0.0156326,0,0.0156326,0
				c0.0156326,0.0156326,0.0312729,0.0312691,0.0312729,0.0312691l0.0312653,0.0469017l-0.0312653,0.0312691l-0.2501602,0.2028694
				h-0.0465164c0,0,0,0,0,0.0469055h-0.0312729v0.0469017l-0.7809677,0.6402588l0.3748474-1.468132l0.5311966,0.3279495v0.0469017
				C96.4820557,54.5655136,96.4820557,54.5655136,96.4820557,54.5967827z M98.6373444,53.9096222l-0.7340622,0.2497711h-0.0781708
				l-0.0781784,0.0312691l-0.2028656,0.0469055l0.0308914-0.1250763l0.0472794-0.0312691c0,0,0-0.0467148,0.0312729-0.0467148
				c0.046524-0.0469017,0.046524-0.0469017,0.046524-0.0469017c0-0.0310783,0-0.0310783,0-0.0310783v-0.0156364
				c0.0156326,0,0.0156326,0,0.0156326,0s0-0.0156326-0.0156326-0.0469055v-0.0156326h0.0468979v-0.0469055l0.0312729-0.0469017
				l0.4842911-0.9371262L98.6373444,53.9096222z M97.3251801,54.9247284l0.0156403-0.0156326v-0.0625381h0.109436
				l0.9369354-0.0310822l-0.9369354,1.2963409L97.3251801,54.9247284z M96.5129471,53.3784256l1.187088-0.6871605
				l-0.5777206,1.4212265L96.5129471,53.3784256z M95.7788773,56.3148766l0.9373169-1.0152969l0.0469055-0.0469055
				l0.1246948-0.07798l-0.1246948,1.3901443L95.7788773,56.3148766z"/>
			<path class="st6" d="M77.970787,48.4656372l0.0339737,0.4412308c0.0339737,0.0679436-0.0339737,0.1018143-0.1018143,0.1697578
				h-0.0339737c-0.0678406,0.0338707-0.1696548,0-0.2714691,0c-0.2036285-0.1018143-0.3054428-0.2715721-0.3733902-0.441227
				C77.4617157,48.6353989,77.7671585,48.5674515,77.970787,48.4656372z M76.8848038,48.0583801
				c0.2714691,0.1018143,0.6448517,0.1018143,0.8823547-0.0678406c0.1018143-0.0678444,0.135788-0.1018143,0.135788-0.1697617
				c0-0.1696548-0.1696625-0.3054428-0.3394165-0.3732834c-0.0338745,0-0.0678406-0.0339737-0.1018143-0.0339737
				c-0.3394165-0.1018143-0.6448593,0-0.8823624,0.2376022C76.3756256,47.8547516,76.7150421,47.9905396,76.8848038,48.0583801z"/>
			<path class="st3" d="M68.9768372,51.0450745c0.1018143,0,0.2036285,0,0.2715759-0.0339737c0.0338669,0,0.0338669,0,0.0338669,0
				h0.0339737l0.2376022,0.8146172l0.0678406,0.3394165h0.0339737l0.135788,0.5090714l0.2714691,1.0181465c0,0,0,0,0,0.0339699
				c-0.0678406,0.0338707-0.3054428,0.0338707-0.4752045-0.0339699c-0.0338669-0.0339737-0.0678406-0.0678444-0.0678406-0.0678444
				c-0.0678406-0.2036285-0.135788-0.4412308-0.2036285-0.6788292c-0.0339737-0.1696587-0.1018143-0.3394165-0.135788-0.5090752
				c-0.1356812-0.4752007-0.2714691-0.9502983-0.4072571-1.3915291H68.9768372z M70.0289536,51.3166466
				c0.0339737,0.0678406,0.0339737,0.135685,0.0679474,0.2036285c0.0338669,0.1018143,0.0678406,0.2036285,0.1018143,0.3054428
				c0,0.1018143,0.0338669,0.1696587,0.0678406,0.2714729s0.0339737,0.1697578,0.0678406,0.2375984
				c0,0.0339737,0,0.0339737,0,0.0339737c0.2037354,0.7466736,0.4073639,1.4593735,0.5770187,2.1042328
				c0,0,0.0339737,0.0678406,0.135788,0.1018143c0.2374954,0.1018143,0.543045,0.1018143,0.6787262,0.0338707
				c-0.0338669-0.0338707-0.0338669-0.0678444-0.0338669-0.1018143l-0.6448593-2.2738914l-0.135788-0.5090714l-0.135788-0.4752007
				c-0.0678406,0.0339699-0.1356812,0.0679436-0.2374954,0.0679436c-0.0339737,0-0.1019211,0-0.135788,0.0338707
				c-0.0339737,0-0.0339737,0-0.0679474,0C70.2325821,51.3505173,70.1307678,51.3166466,70.0289536,51.3166466z
				 M71.8956909,52.911705c0.2374954,0.8484879,0.5090714,1.798893,0.7126999,2.5794334
				c0,0,0.0339737,0.0339737,0.1018143,0.0679474c0.135788,0.0678406,0.3733902,0.0678406,0.4752045,0.0338669
				c0-0.0338669,0-0.0338669-0.0339737-0.0338669l-0.7466736-2.6812515
				c-0.1018143,0.0338707-0.2036285,0.0338707-0.3054428,0.0338707c-0.0339737,0-0.0679474,0-0.0679474,0H71.8956909z"/>
			<path class="st9" d="M72.8459473,50.6717072c0.1019135,0.3393135,0.1696548,0.6448593,0.2036285,0.9164352l-0.678833,0.1356812
				c-0.0337677,0-0.6448593,0.0339737-0.6448593,0.0339737h-0.305336l-0.1854019-0.6023941
				c0.5539169-0.0778885,1.0898209-0.2409172,1.5991974-0.5182915L72.8459473,50.6717072z M78.1199951,47.1895103
				c0.0182266,0.0182304,0.0362473,0.0360451,0.0544815,0.0542755c0.0339661,0.0339699,0.0679398,0.0679436,0.0679398,0.1019173
				c0.0677414,0.0677376,0.1017151,0.1696548,0.1017151,0.2036285l0.0339737,0.0677376c0,0,0,0,0,0.0339737h0.2375946
				c0.1017151,0,0.2036285,0,0.2715759,0.0339699h0.1017151c0.0339737,0,0.0339737,0.0339737,0.0339737,0.0339737h0.0679398
				l0.2036285,0.135685l0.2713699,0.1698608h0.0339737L79.6338501,48.0583v-0.0337677
				c0.1356812-0.2715721,0.1356812-0.5771179,0.0679398-0.9504051c-0.063797-0.2976723-0.1775284-0.5398331-0.327919-0.7726707
				C78.9823608,46.6415977,78.564537,46.9376144,78.1199951,47.1895103z M78.9195938,53.9689178
				c-1.116539,0.2931175-2.2003479,0.4793472-3.2994919,0.6081924c0.006012,0.0089111,0.0026932,0.022583,0.0089111,0.0314903
				c0.2376022,0.2715721,0.6448593,0.4752007,1.2557449,0.5771179c0.4412308,0.0677376,0.9504013,0.1017113,1.5273132,0.0339737
				c0.0679474,0,0.5429459-0.1019173,0.8484879-0.135891c-0.0339661-0.2036285-0.0679398-0.4072571-0.1019135-0.5769119
				C79.0989838,54.3274956,79.008667,54.1483116,78.9195938,53.9689178z M85.7145386,50.102459
				c-0.3148727,0.3761864-0.8385468,0.7001686-1.4235382,1.0088234c0.016777,0.0352135,0.0445404,0.0679436,0.0604858,0.1033669
				c0.0679474,0.2038345,0.1696548,0.4412308,0.2376022,0.6448593c0.0339737,0.2036285,0.1356812,0.4412308,0.1356812,0.6448593
				c0,0.0679436,0.0339737,0.1358871,0.0339737,0.2036285c0.0679474-0.0677414,0.1696548-0.135685,0.2715759-0.2036285
				c0.1696548-0.135685,0.2713699-0.2373962,0.4072571-0.4072609c0.0677414-0.0677376,0.1356812-0.1356812,0.1696548-0.2036285
				C86.0316849,51.3797455,85.9883881,50.6982231,85.7145386,50.102459z"/>
			<path class="st10" d="M80.3126221,49.7214851c0.0339737-0.0679436,0.0679398-0.1357841,0.1018143-0.1697578
				c0.0679398-0.135788,0.135788-0.1696548,0.2376022-0.2714691h0.0339661l0.0339737-0.0339737c0,0,0.0338745,0,0.0338745-0.0339737
				h0.0339661l0.135788-0.0338707h0.0338745c0.0339661-0.0339699,0.0339661-0.0339699,0.0679398-0.0339699h0.4072571
				c0.135788,0.0339699,0.3054428,0.1018143,0.4751053,0.1696548c0.0339661,0.0339737,0.0679398,0.0679474,0.1357803,0.1018143
				c0.0339737,0,0.1018219,0.0339737,0.135788,0.0679474c-0.135788,0-0.2715683,0.0338669-0.3733826,0.0678406
				c-0.543045,0.135788-1.0859909,0.3054428-1.5611877,0.543045h-0.0339737
				C80.2447815,49.9589844,80.2787476,49.8232994,80.3126221,49.7214851z M71.1489716,50.8753357l0.086174,0.2800674
				c0.5539169-0.0778885,1.0898209-0.2409172,1.5991974-0.5182915l-0.0223694-0.0671158
				c-0.1696548-0.4074631-0.4072571-0.8147202-0.7126007-1.1540337c-0.1698608-0.2376022-0.3734894-0.4412308-0.5771179-0.5769119
				c-0.1017075-0.1019211-0.2376022-0.1698647-0.5769119-0.3734932c-0.1356812-0.0337639-0.2036285-0.0677376-0.3053436-0.0677376
				c-0.1019135-0.0339737-0.2038345-0.0339737-0.305542-0.0339737c-0.2376022,0.0339737-0.4072571,0.135685-0.5429459,0.3393135
				c0,0-0.0679398,0.1019173-0.0679398,0.135891c0,0-0.0679474,0.0677376-0.1019211,0.1356812
				c-0.0339737,0.0679474-0.0339737,0.135685-0.1017075,0.2376022c-0.0339737,0.0679436-0.0679474,0.1017113-0.1019211,0.2376022
				c-0.0339737,0.0677376-0.0339737,0.1356812-0.0677338,0.2376022c-0.0339737,0.0677376-0.0339737,0.1356812-0.0679474,0.2375984
				c0,0,0,0.0337677-0.0339737,0.1017113c0.0339737,0,0.0339737,0.0339737,0.0679474,0.0339737
				c0.0677338,0,0.1017075,0.0339737,0.1356812,0.0679436c0.0339737,0,0.0679474,0.0337677,0.1019211,0.0677414l0.0337601,0.0339699
				c0.0339737,0,0.0339737-0.0339699,0.0679474,0l0.0339737-0.0339699c0.0679474-0.0339737,0.1019135-0.0677414,0.1696548-0.0677414
				c0.0339737-0.0339699,0.0339737-0.0339699,0.0679474,0l0.0339737-0.0339699c0.2375946-0.0339737,0.5429382,0,0.7805405,0.1356812
				c0.0339737,0,0.1019135,0.0339737,0.1019135,0.0679474c0.0677414,0.0339699,0.1017151,0.0339699,0.1356888,0.1017113
				c0.0339737,0.0339699,0.1017075,0.135891,0.1017075,0.1698608c0,0.0337677,0.0339737,0.0337677,0.0339737,0.0677376
				c0.0339737,0.0679474,0.0339737,0.135891,0.0339737,0.1696587C71.1489716,50.841362,71.1489716,50.841362,71.1489716,50.8753357z
				 M73.9999237,46.5990067c0.0339737,0,0.0339737,0,0.0678406,0c0.4752045-0.2036285,0.9842758-0.4072571,1.5273209-0.543045
				c0.135788-0.0339737,0.2714691-0.0678406,0.3732834-0.0678406c0,0-0.0338669-0.0679474-0.0678406-0.0679474l-0.2036285-0.1018143
				c-0.2036285-0.1018143-0.3394165-0.1356812-0.4752045-0.1356812c-0.1356812,0-0.2714691,0-0.3393097-0.0339737
				l-0.0339737,0.0339737c-0.1018143,0-0.2036285,0.0338669-0.3054428,0.0678406l-0.0679474,0.0678406h-0.0338669
				c-0.0679474,0.0679474-0.135788,0.135788-0.2036285,0.2376022c-0.0339737,0.0678406-0.0679474,0.1018143-0.1018143,0.1697617
				C74.0677643,46.3275375,74.0338974,46.4632187,73.9999237,46.5990067z M78.1199951,47.1895103
				c0.4445419-0.2518959,0.8623657-0.5479126,1.2538757-0.8880539c-0.0896912-0.1387901-0.1775284-0.2757149-0.3169403-0.4151268
				c-0.3732834-0.3395195-0.8824539-0.6110954-1.4593735-0.7128067c-0.1696548-0.0679436-0.3395157-0.0679436-0.5091705-0.0679436
				c-0.2036285,0-0.4072571,0.0339737-0.6448593,0.0339737l-0.2036285,0.0339699
				c-0.1696548,0.0339737-0.3393173,0.0679474-0.5429459,0.1017113c0.0339737,0.0339737,0.1017151,0.0339737,0.1356888,0.0679474
				h0.0339737c0,0,0,0,0.0339661,0c0.0677414,0.0339699,0.1356888,0.1019173,0.2376022,0.135891
				c0.1356888,0.0677376,0.2713699,0.1696548,0.4072571,0.3053398c0.0339737-0.0339737,0.0677414,0,0.1017151,0.0679436
				c0.1019135,0.0339737,0.2036285,0.135685,0.305542,0.2376022c0.0339737,0.0337639,0.0339737,0.0337639,0.0677414,0.0677376
				c0.0339737,0.0339737,0.1019211,0.1019173,0.1358871,0.1698647c0.1017151,0.1017075,0.2036285,0.2036285,0.2715759,0.305336
				c0.0677414,0.0679474,0.1356812,0.1696587,0.2036285,0.2715759l0.0337677,0.0339737h0.0679474
				c0.0339661,0.0337639,0.0679398,0.0337639,0.1696548,0.1017113c0.0679474,0.0339699,0.1696548,0.1019173,0.1696548,0.1019173
				C78.088295,47.1578178,78.104248,47.1737671,78.1199951,47.1895103z M75.3914108,53.7601128
				c0,0.3268814,0.0725021,0.5860252,0.2286911,0.8169975c1.099144-0.1288452,2.1829529-0.3150749,3.2994919-0.6081924
				c-0.0120163-0.0242348-0.0200958-0.0486794-0.0323181-0.0729141c-0.1358871-0.3732872-0.3734894-0.7467804-0.6448593-1.0521164
				c-0.1019135-0.1696587-0.2376022-0.3055496-0.3734894-0.4072609c-0.1356812-0.1019173-0.3393097-0.2036285-0.4410248-0.3055458
				c-0.0339737-0.0339737-0.1019135-0.0679436-0.1358871-0.1017113c-0.2376022-0.1019173-0.678833-0.2715721-1.0181427-0.1019173
				c-0.1356888,0.0679474-0.2036285,0.1696548-0.3055496,0.3055458c0,0.0339737-0.0337677,0.0339737-0.0677414,0.0677414
				c0,0.0339699,0,0.0339699-0.0339661,0.0679436c0,0.0339737-0.0339737,0.0679436-0.0339737,0.1019173
				c-0.0679474,0.1017113-0.1017151,0.2373962-0.1696625,0.3393135c-0.0339661,0.0339737-0.0339661,0.0339737-0.0339661,0.0679436
				v0.0337677c-0.0339737,0.0679436-0.0339737,0.1019173-0.0679474,0.1698608
				C75.527092,53.319088,75.3914108,53.5227165,75.3914108,53.7601128z M82.9598541,49.3819885
				c0.5791931,0.4505539,1.0249786,1.0865059,1.3311462,1.7292938c0.5849915-0.3086548,1.1086655-0.632637,1.4235382-1.0088234
				c-0.1423111-0.3092766-0.327301-0.6017723-0.5825119-0.8221817c-0.0677338-0.0679436-0.1696548-0.1698608-0.305336-0.2375984
				c-0.4752045-0.3055496-1.1200638-0.4752045-1.7988968-0.4752045c-0.305336,0-0.6108856,0.0339737-0.9164276,0.135685
				c-0.0677414,0-0.1017151,0.0339699-0.2036285,0.0679436c0.0339737,0.0339737,0.1019135,0.0339737,0.1358871,0.0679474
				c0.1017151,0.0339699,0.1696548,0.0677376,0.3053436,0.1696548c0.0679398,0.0679436,0.2036285,0.1017113,0.2715683,0.135685
				C82.7562256,49.2123337,82.858139,49.2802773,82.9598541,49.3819885z"/>
			<path class="st11" d="M58.3228989,59.432724l2.7175636,0.984127l0.0586281,0.0351753L62.868,62.5841522h0.0351753
				l0.6443558-0.4101219l-1.5930138-1.9679642l-3.0224419-1.1479988h-0.0351791L58.3228989,59.432724z M57.3035965,60.0419044
				l2.6123161,0.9841232h0.0703583l1.7923546,2.1673012l0.6443596-0.3749428l-1.6284828-1.9679604l-2.9869766-1.1128235h-0.0703545
				L57.3035965,60.0419044z M59.4826241,58.753479l2.7058411,1.0190125h0.0703545l1.7689056,2.1321259l8.3174362-4.8147964
				l-5.0607605-2.9518013L59.4826241,58.753479z M52.9927292,60.2412453l2.3780823,0.2107811h0.1052475l0.0354652,0.0351791
				l1.1828918-0.6795349l12.0425758-7.0987892l-0.4684677-1.628479L52.9927292,60.2412453z M62.2588196,59.7724915
				l1.7689056,2.1321259l8.3174362-4.8147964l-5.0607605-2.9518013l-7.8017769,4.6154594l2.7058411,1.0190125H62.2588196z
				 M57.7371712,59.7376022l-0.4335747,0.3043022l2.6123161,0.9841232h0.0703583l1.7923546,2.1673012l0.6443596-0.3749428
				l-1.6284828-1.9679604l-2.9869766-1.1128235H57.7371712z M61.0990906,60.4520264L62.868,62.5841522h0.0351753
				l0.6443558-0.4101219l-1.5930138-1.9679642l-3.0224419-1.1479988h-0.0351791l-0.5739975,0.3746567l2.7175636,0.984127
				L61.0990906,60.4520264z M59.4826241,58.753479l2.7058411,1.0190125h0.0703545l1.7689056,2.1321259l8.3174362-4.8147964
				l-5.0607605-2.9518013L59.4826241,58.753479z M57.3035965,60.0419044l2.6123161,0.9841232h0.0703583l1.7923546,2.1673012
				l0.6443596-0.3749428l-1.6284828-1.9679604l-2.9869766-1.1128235h-0.0703545L57.3035965,60.0419044z M58.3228989,59.432724
				l2.7175636,0.984127l0.0586281,0.0351753L62.868,62.5841522h0.0351753l0.6443558-0.4101219l-1.5930138-1.9679642
				l-3.0224419-1.1479988h-0.0351791L58.3228989,59.432724z M59.4826241,58.753479l2.7058411,1.0190125h0.0703545
				l1.7689056,2.1321259l8.3174362-4.8147964l-5.0607605-2.9518013L59.4826241,58.753479z M67.7883301,53.8334312
				l5.0956497,2.9869766l2.7178497-1.5695648c-0.1407089-0.0938072-0.2459564-0.1990547-0.3397675-0.3397675
				c-0.2694092-0.3045883-0.374939-0.7029877-0.374939-1.1480026c0-0.2694092,0.0703506-0.503643,0.1289825-0.7498894
				l-1.4877701-0.8785896c0,0-0.1407089-0.0700684-0.23423-0.0700684c0,0-0.5857315,0.1052475-0.6443558,0
				c0.0351791,0.0351753,0.0351791,0.0351753,0.0351791,0.0700684v0.0351791h0.0234451
				c0.0351791,0.0351791,0.0351791,0.0703545,0.070076,0.1289864c0.0351715,0.0703545,0.0351715,0.1052475,0.0351715,0.175602
				l0.8785934,3.0224419c0,0.0351791,0,0.0703545,0,0.0703545c0,0.1638794-0.0586319,0.3045883-0.1990585,0.3981133
				c-0.1289825,0.1055336-0.3045883,0.1758881-0.5036392,0.1758881c-0.1758957,0-0.3397675-0.0351791-0.5153732-0.1407127
				c-0.1993408-0.0935211-0.3048782-0.1990547-0.3749466-0.3749428c-0.0351791-0.1638794-0.0938034-0.3746605-0.1289825-0.5737152
				c-0.1404266,0.0700684-0.3397675,0.1404266-0.5505524,0.1404266c-0.1990509,0-0.3983917-0.0703583-0.5739975-0.1404266
				c-0.2342377-0.1407127-0.3749466-0.269413-0.4101257-0.4453011l-0.1287003-0.4332886
				c-0.1055298,0.0700684-0.2459564,0.0935211-0.4101181,0.0935211c-0.1638794,0-0.3746643-0.0234528-0.5036469-0.1287003
				c-0.2459641-0.1055336-0.3397675-0.2696953-0.3749466-0.3749466l-0.1404266-0.5388222L67.7883301,53.8334312z
				 M60.9000359,64.3178787l0.7496071,1.4643173h0.0351753l17.7825813-10.1915855
				c-0.1990585,0-0.5036469,0.0703545-0.9838409,0.1404266c-0.3045883,0.0351753-0.5739975,0.0351753-0.8199539,0.0351753
				c-0.3045959,0-0.6091843-0.0351753-0.8785934-0.0703545c-0.23423-0.034893-0.46875-0.1052475-0.6443558-0.1638756
				L60.9000359,64.3178787z M80.041687,48.2924805c0.1404266,0.0700684,0.3746567,0.2459602,0.679245,0.3746567
				c0.0351791,0,0.0703583-0.0348892,0.1289902-0.0703545c0.1755981-0.034893,0.3163147-0.0935211,0.4801941-0.1638756
				c0.1993408-0.0703583,0.4101181-0.1756058,0.6443558-0.2342339c0.3397675-0.1055336,0.7144241-0.1407127,1.0541916-0.1407127
				c0.538826,0,1.3590698,0.1055336,2.1086731,0.5742874c0.093811,0.0700684,0.23423,0.175602,0.3632202,0.2694092
				c0.7147141,0.6557961,1.1245499,1.6985512,0.8551331,2.6237602l10.6603394-7.7431488l-0.5857239-0.3397675v0.1407127
				l-0.23423,0.0935211c-2.413269,1.0896606-5.8338165,2.612606-8.1418304,3.8775787
				c0.9489441-0.890316,2.5774231-1.663372,3.8306732-2.4484367l3.7368698-2.0380325
				c-0.0700684-0.7733421-0.7144318-1.628479-1.4992142-1.8275375c-0.374939-0.1055336-0.7381592,0.034893-1.1131058,0.1990585
				h-0.0348892c-0.5508347,0.3045883-1.0193024,0.7144241-1.5933075,0.9841232l-4.7209854,2.7879219l-0.1990585,0.1289825
				l-0.2459564,0.1404266l-0.23452,0.1289864c0.0351715-0.0586319,0.1055298-0.0938072,0.1641617-0.1641655
				c0.1404266-0.1404228,0.445015-0.3397636,0.8903122-0.6440697c0.2342377-0.1407089,0.5036469-0.3048744,0.7496109-0.4804764
				c0.1990509-0.1638794,0.5039291-0.3746605,0.8434067-0.5740013c0.2696991-0.1638794,0.5391083-0.3749466,0.8085251-0.5388222
				c0.2808456-0.2107849,0.5857239-0.4101257,0.8551331-0.5857277c0.1990585-0.1289864,0.3746643-0.2342339,0.4684677-0.3045883
				c0.2459564-0.1641655,0.3749466-0.269413,0.3749466-0.269413c0.4098358-0.2342339,0.8551407-0.6091766,1.2884293-0.9137688
				l-1.1480026-0.6443558l-11.8432312,5.0607567c0.4098358,0.4332924,0.6795349,0.8434143,0.773056,1.4525909
				C80.2759171,47.4839592,80.2759171,47.9175339,80.041687,48.2924805z M58.3228989,59.432724l2.7175636,0.984127
				l0.0586281,0.0351753L62.868,62.5841522h0.0351753l0.6443558-0.4101219l-1.5930138-1.9679642l-3.0224419-1.1479988h-0.0351791
				L58.3228989,59.432724z M57.3035965,60.0419044l2.6123161,0.9841232h0.0703583l1.7923546,2.1673012l0.6443596-0.3749428
				l-1.6284828-1.9679604l-2.9869766-1.1128235h-0.0703545L57.3035965,60.0419044z M56.1438675,60.6862602l2.553688,0.9841232
				c0.0586319,0.0351791,0.1289864,0.0703583,0.1641655,0.1052475l1.7689056,2.0969467l0.7147102-0.4098358l-1.6636581-2.0031395
				l-2.9872627-1.0779305L56.1438675,60.6862602z M71.8998566,48.5384407
				c0.1993408,0.1286964,0.3983994,0.3397636,0.6091766,0.5388222v0.0351753l0.0351791,0.0351791l1.8275375-1.0193024
				c-0.1055374-0.2107811-0.2342377-0.4101219-0.2694092-0.5153694c-0.0351791-0.0351791-0.0351791-0.0351791-0.0703583-0.0586319
				v-0.0351753h-0.0351791c0-0.1052475,0.0351791-0.2107811,0.1407089-0.3045883
				c0.2342377-0.1404266,0.5740051-0.1404266,0.7730637-0.0351791c0.0703506,0.0586281,0.1407089,0.0938072,0.1407089,0.1641617
				c0,0.0351791,0.0351791,0.0351791,0.0351791,0.0703583v0.0348892c0.0348892,0.0703583,0.0348892,0.1289864,0.1052475,0.1993446
				l1.6633682-0.9137688c-0.0700684-0.1055336-0.1755981-0.1990547-0.3042984-0.3397675
				c-0.2814255,0.0351791-0.5508347,0.0703545-0.8202515,0.175602c-0.5388184,0.1289864-1.0541916,0.3048782-1.5226593,0.5391083
				h-0.1055298l-0.0703583,0.0700722C73.7273941,47.3787117,72.77845,47.8589058,71.8998566,48.5384407z M75.5314789,48.0579605
				c0,0.0351791,0.0351791,0.0703545,0.0586243,0.0703545c0.1404266,0.0351791,0.2811432,0.0351791,0.3749466,0.0351791
				l0.0348969-0.175602c0.0351715-0.0351791,0-0.0351791,0-0.0703583v-0.1289864L75.5314789,48.0579605z M78.2141495,52.0997009
				c0.1990585,0.1287003,0.3280411,0.304306,0.538826,0.5036469l4.3108673-2.4367142
				c-0.1052475-0.1055336-0.2107849-0.2107811-0.3045883-0.2811394c-0.2694168,0.0351791-0.5857315,0.0703583-0.8551407,0.1407127
				c-0.538826,0.1756058-1.0541916,0.3397675-1.5226593,0.5740013l-0.1055374,0.0351791
				C79.9713287,50.8461685,79.0575638,51.3849907,78.2141495,52.0997009z M79.0223846,53.0483627
				c0.1990585,0.2696953,0.3749466,0.6091766,0.5153732,0.9489441c0.0234528,0.1407127,0.0586243,0.2342339,0.0938034,0.4101257
				c0.0351791,0.1638756,0.0703583,0.3394814,0.1055374,0.5388222c0.9838333-0.3045883,1.8624268-0.6795349,2.6123123-0.9841232
				l0.0351791-0.0351791h0.0348969c0.9140549-0.4098358,1.5932999-0.773056,1.862709-0.8785896
				c0-0.1404266-0.0351791-0.3045883-0.0700684-0.4801941c-0.0938034-0.7378769-0.3983994-1.4174118-0.8436966-2.0031395
				L79.0223846,53.0483627z M72.8488007,49.5809059c0.1641693,0.2459602,0.3045883,0.5156593,0.4335785,0.7850685
				l0.0348892,0.1404266c0.0703583,0.1638756,0.1055374,0.3397675,0.1407166,0.4687538c0,0,0,0,0.0351715,0
				c0.1289902-0.4687538,0.4687576-0.9489479,0.9489517-1.3590698v-0.0351791
				c0.0351715-0.2342339,0.1055298-0.5740013,0.140419-0.8434105c0-0.0351791,0-0.1052475-0.0348892-0.1407127
				L72.8488007,49.5809059z M49.8650398,62.8887405l2.1086731,0.1756058l3.771759,0.8082314
				c0.0938072,0,0.1641617,0.0703583,0.1993408,0.1055336l2.7527428,2.7761993l2.0265923,2.4836197
				c0.0703545,0.0703506,0.1055336,0.1641617,0.1055336,0.2694092v0.1055298
				c0.1758881,0.1287003,0.4101219,0.2694168,0.7498894,0.3749466c0-0.1407089,0-0.2814255-0.0351791-0.4101257v-0.0351715
				c0-0.0351791,0-0.0351791,0-0.0703583v-0.1287003c-0.0703545-0.4101257-0.175602-0.8199615-0.3397636-1.0544815
				l-0.1990585-0.2459564c-0.7147102-0.9489441-2.4484406-3.1511383-4.5571136-4.2405128
				c-2.0031395-1.0193024-5.2598114-1.3238907-5.2598114-1.3238907
				C50.7553558,62.5489731,50.2748756,62.6896858,49.8650398,62.8887405z M56.1438675,60.6862602l2.553688,0.9841232
				c0.0586319,0.0351791,0.1289864,0.0703583,0.1641655,0.1052475l1.7689056,2.0969467l0.7147102-0.4098358l-1.6636581-2.0031395
				l-2.9872627-1.0779305L56.1438675,60.6862602z M60.6306267,63.8725777l0.7147102-0.4098358l-1.6636581-2.0031395
				l-2.9872627-1.0779305l-0.5505486,0.3045883l2.553688,0.9841232c0.0586319,0.0351791,0.1289864,0.0703583,0.1641655,0.1052475
				L60.6306267,63.8725777z M49.3259315,59.7141495l1.628479,2.2960014c0.1052475,0,0.175602-0.0351791,0.2342339-0.0351791
				c0.1407127,0.0351791,3.3973846,0.3397675,5.4708786,1.3939629c2.1318398,1.0779343,3.8655701,3.2214966,4.6503525,4.240799
				v0.0351791c0.0589142,0.0348892,0.0589142,0.0700684,0.0938072,0.0935211l0.2110672,0.2459564
				c0.0935211,0.093811,0.1638756,0.1993408,0.1990547,0.3397675l0.5153694-1.3236008l-0.2811356-0.0703583l-0.8082352-0.3045883
				c-0.1055336-0.0351791-0.1758881-0.1055374-0.1993408-0.2107849l-0.9603844-1.8275375l-1.7923584-2.1673012l-3.057621-1.1597252
				l-3.3267441-0.269413c-0.0703545,0-0.1289825-0.0351753-0.1641617-0.0351753L49.3259315,59.7141495z M56.1438675,60.6862602
				l2.553688,0.9841232c0.0586319,0.0351791,0.1289864,0.0703583,0.1641655,0.1052475l1.7689056,2.0969467l0.7147102-0.4098358
				l-1.6636581-2.0031395l-2.9872627-1.0779305L56.1438675,60.6862602z M74.8266602,63.3730087v0.0117264
				c0.3163147-0.0234528,0.6211853,0.0351791,0.9140472,0.1641617l19.0259399-10.9807281
				c0.4804764-0.8785896,1.1600113-1.5930138,1.9096146-2.0265884c0.1638794-0.1055374,0.3629379-0.2107849,0.538826-0.2811394
				c0.1404266-0.0586281,0.3045883-0.0938072,0.4452972-0.0938072c-0.2110672-0.0700684-0.374939-0.1055336-0.5508347-0.1055336
				c-0.0348892-0.034893-0.0703506-0.034893-0.0935211-0.034893c-0.3163147,0-0.5505447,0.0703583-0.7850647,0.1990547
				c-0.1404266,0.0351791-0.304306,0.0351791-0.4801941,0.1407127c-0.6091766,0.3746605-1.2183533,1.0190163-1.6281967,1.8037987
				c-0.0351715,0.0586281-0.0938034,0.1289864-0.1641617,0.1641617L74.8266602,63.3730087z M97.7656403,50.1666336
				c0.3397598-0.0351791,0.6443558,0,0.913765,0.1289864l4.2759781-2.4367142v-0.0351791
				c-0.1055374-0.175602-0.23452-0.3045883-0.480484-0.4098358L97.7656403,50.1666336z"/>
			<path class="st12" d="M63.2071838,67.0305481c1.6290283-0.9503021,14.1866913-8.3151131,18.5649109-10.5551338
				c0.9503021-0.5090714,2.9187469-1.4255028,4.3781204-2.1042328c0.9842758-0.4412308,1.7309494-0.7806435,1.7309494-0.7806435
				l14.8655243-8.5188522c0.0339737,0.2376022,0,0.4752045-0.1697617,0.7806473
				c-0.1018143,0.2036285-0.2374954,0.3733902-0.3393097,0.5770187c-0.0679474,0.0678406-0.135788,0.1356812-0.1697617,0.2374954
				l-0.0338669,0.0339737l-4.68367,2.7151184c-0.5770187-0.3054428-1.2897186-0.2036285-2.0363922,0.2376022
				c-0.7126999,0.4072571-1.3915329,1.12006-1.8666306,2.0024185L74.3805389,62.6607246
				c-0.543045-0.3055458-1.2557449-0.2376022-1.9684448,0.2036285c-0.7806473,0.4751015-1.4594803,1.1878014-1.9007111,2.0362892
				l-6.0484543,3.5214386c0,0-0.2715759,0.2036285-1.1539307,0.4752045
				c-0.3054428,0.1018143-0.5770187,0.1696548-0.8484879,0.2714691L63.2071838,67.0305481z M54.1113167,64.9263153h0.0339737
				c0.4752045,0.3054428,0.9163284,0.9164352,1.0181427,1.5273209c0.0679474,0.1018143,0.0679474,0.2036285,0.0679474,0.3054428
				v0.0339737l0.2714691-0.1697617l0.7128029-0.4072571c0.1696587-0.2036285,0.2036285-0.5090714,0-0.7466736l-0.2715721-0.2714691
				l-0.5090714-0.5091705l-0.678833-0.1696625L54.1113167,64.9263153z M78.5138321,48.8390274
				c0,0.0678406,0,0.1696548-0.0338745,0.2375984h0.1696625c0.0339661,0,0.0339661,0,0.0678406,0.0338707h0.0679398
				c0.0338745,0,0.0338745,0,0.0338745,0h0.0339737c0.135788-0.0678406,0.2715683-0.135685,0.4412308-0.1696548
				c0.2036285-0.0678444,0.4072571-0.1018143,0.5770111-0.135788c-0.1019135-0.0678406-0.135788-0.135788-0.2037277-0.1696548
				c0,0-0.0338745-0.0339737-0.0678406-0.0339737c-0.0339737,0-0.0339737,0-0.0339737,0l-0.1018143-0.0678406l-0.1018143-0.0679474
				l-0.2036285-0.1018143l-0.0338745-0.0338669l-0.0679398-0.0339737l-0.0338745-0.0339737h-0.0339661l-0.0679474-0.0678406
				h-0.0338745l-0.0339661-0.0339737c-0.0339737,0-0.0339737,0-0.1018143,0h-0.3054428L78.5138321,48.8390274z
				 M73.8641357,51.3844872v0.3732872c0,0,1.1539307,0.6788292,1.3236923,0.7806473c0.0338669,0,0.0338669,0,0.0338669,0
				c0-0.0339737,0.0339737-0.0678444,0.0679474-0.1696587c0-0.0339737,0.0338669-0.1018143,0.1018143-0.1697578
				c0.1018143-0.1018143,0.1356812-0.2376022,0.2036285-0.3394165c0.1018143-0.135685,0.2036285-0.2374992,0.2714691-0.3732834
				c0.1697617-0.2715759,0.4072571-0.4752045,0.543045-0.7466736c0.0679398-0.1018143,0.0679398-0.2376022,0.1018143-0.3733902
				c0.0339737-0.2036285,0.0679398-0.4411278,0.0679398-0.6787262c-0.1018143-0.0339737-0.169754-0.0678444-0.2375946-0.1018143
				c-0.2376022-0.135788-0.3733902-0.3394165-0.4072571-0.5770187c-0.0679474,0-0.1018143,0.0339737-0.2376022,0.1697578
				c-0.543045,0.4072609-0.9503021,0.814518-0.9503021,0.814518C74.2375259,50.4681587,73.96595,50.9432602,73.8641357,51.3844872z
				 M76.5453873,51.3505173c0.3054428,0,0.6108856,0.0679436,0.9503021,0.2376022
				c0.1018143,0.0678406,0.2036285,0.1018143,0.3054428,0.2036285c0.6448593-0.543045,1.3575592-1.0181465,1.832756-1.3235893
				l0.0338745-0.2037315c0.0339737-0.2714691,0.0679398-0.542942,0.169754-0.7466736
				c0.0678482-0.1018143,0.1018143-0.1696548,0.135788-0.2374954c-0.169754,0.0338669-0.3394165,0.0678406-0.5091705,0.1356812
				c-0.9163284,0.2715759-1.7308502,0.8484879-2.3757019,1.3915329
				C76.9186707,50.9432602,76.7490158,51.112915,76.5453873,51.3505173z M49.2957077,58.7351532l2.7490425,1.4085159h0.1017113
				l15.9855804-9.5369911v-0.0339737c-0.0339737-0.1019173-0.0339737-0.1698608,0-0.2715721
				c0.0339737-0.0339737,0.0339737-0.0339737,0.0339737-0.0339737c0.0339737-0.0679436,0.1017075-0.1356812,0.1356812-0.1356812
				v-0.0339737c0.1358948-0.1019173,0.3055496-0.135685,0.4752045-0.1696587
				c0.0339737-0.1696548,0.0679474-0.3055458,0.1019135-0.441227c0.0337677-0.0679474,0.0337677-0.135891,0.0677414-0.2376022
				c0.0679474-0.2376022,0.2036285-0.4412308,0.3395157-0.6448593c0.1017151-0.2036285,0.2373962-0.4072571,0.4072647-0.5091743
				c0.1696548-0.135685,0.3732834-0.1696587,0.5769119-0.2036285c0.1356812-0.0339737,0.2715759-0.0339737,0.4412308,0
				c0.1356812,0.0339699,0.2715683,0.0679436,0.4072571,0.1019173c0.1017075,0.0679436,0.2036285,0.1017113,0.3732834,0.2036285
				c0.7467728-0.5769157,1.4933472-1.0181427,1.9685516-1.2557449l0.0339661-0.1696587
				c0-0.2715721,0.0677414-0.543148,0.1696625-0.7467766c0.0339661-0.1017075,0.1017075-0.1696548,0.1696548-0.2715721H73.799881
				c-1.2897186,0.5771217-5.5998917,2.341835-6.7199554,2.9527206
				C62.8035126,50.9799614,51.9089088,57.1061211,49.2957077,58.7351532z M75.7004852,44.7689743
				c0.1698608-0.0679436,0.3055496-0.0679436,0.4752045-0.1017075h0.2036285c0.4412308-0.0679474,0.8824615-0.1019211,1.3576584,0
				c0.4412308,0.1017075,0.8484879,0.2713661,1.2217712,0.5429382l12.1164322-5.1928444
				c-0.0339737-0.5769119-0.1696548-2.8168297-1.5273209-2.9187469L75.7004852,44.7689743z M62.2266006,66.0830841
				l0.5769119,0.2373962c1.6290283-0.9841766,14.220665-8.3489876,18.5987854-10.5891113
				c1.4595795-0.7805405,5.2268143-2.5114899,5.939415-2.8168297c0.0679398-0.0339737,0.1358871-0.0679436,0.1698608-0.0679436
				l14.6956558-8.4509048c-0.5089645-0.3055458-1.1538239-0.5091743-1.663002-0.4412308
				c-1.2897186,0.135685-2.8507996,0.135685-2.9187469,0.135685c-0.0339737,0-0.0679474,0-0.1019211-0.0339737
				l-11.9805374,8.6885033c-0.0679474,0.0679474-0.1356812,0.1019211-0.2036285,0.1698647
				c-0.1019135,0.0677376-0.2036285,0.1696548-0.305542,0.2376022c-0.0337677,0-0.0677414,0.0337639-0.1017151,0.0337639
				c-0.0679474,0.0339737-0.1358871,0.1019211-0.2715759,0.2036285c-0.0339661,0-0.8145142,0.4412308-2.0702591,0.9843788
				C82.5903015,54.3739128,63.2447433,65.4719925,62.2266006,66.0830841z"/>
			<path class="st13" d="M56.6914444,60.381958l2.980751,1.0804405l1.6661034,2.0045395l0.4423447-0.2734489l-1.7960739-2.1737518
				H59.919426l-2.6162605-0.9762115H57.26408L56.6914444,60.381958z M57.8109741,59.7311516l2.9807472,1.1195297
				l1.6397324,1.9654503l0.4426613-0.2343636l-1.7703362-2.1346664l-0.064827-0.0390854l-2.7204857-0.9762115L57.8109741,59.7311516
				z M58.9301834,59.054287l3.0198364,1.1586151l1.6009598,1.9654503l0.4687195-0.2734489L62.262394,59.770237h-0.0781708
				L59.4767609,58.75494L58.9301834,59.054287z M59.9845695,61.0197372H59.919426l-2.6162605-0.9762115H57.26408
				l-0.5726357,0.3384323l2.980751,1.0804405l1.6661034,2.0045395l0.4423447-0.2734489L59.9845695,61.0197372z
				 M58.3184662,59.4318047l-0.5074921,0.2993469l2.9807472,1.1195297l1.6397324,1.9654503l0.4426613-0.2343636
				l-1.7703362-2.1346664l-0.064827-0.0390854L58.3184662,59.4318047z M48.1009789,59.0023308l-0.0260582,0.0389252
				l1.8221359,3.241169c0.0781708-0.0390892,0.1429977-0.0390892,0.2081413-0.0651436
				c0.3123779-0.1040726,0.611721-0.1822472,0.846241-0.2083054l-1.627018-2.2908554l2.407795,1.2366295
				c0.0390892,0,0.1042328,0.038929,0.1693764,0.038929l3.3322105,0.2734489l3.0455742,1.1454239l1.8094215,2.1735992
				l0.9501534,1.8354797c0.0260582,0.1039124,0.1039162,0.1690521,0.195118,0.2081451l0.8198624,0.2993393l0.2736092,0.0651474
				l-0.5078087,1.3276749c0.1302872,0.2993469,0.1954308,0.6768646,0.2341995,0.9762115
				c0.130291-0.026062,0.2736092-0.0912018,0.4035797-0.1302948l0.7550354-2.1345062
				c1.6270218-0.9501495,14.1874771-8.3174934,18.5610428-10.5562325c0.9501495-0.5074921,2.9156036-1.4315872,4.3735657-2.1084518
				l1.1973801-1.457962c-0.71595,0.3123741-4.4908218,2.0436249-5.9484711,2.8115349
				c-4.373558,2.2519264-16.9731064,9.6059189-18.6001205,10.5951614l-0.5596085-0.2341995h-0.0130272
				c-0.0390854,0-0.0390854,0-0.0390854,0l-0.4684029-0.2084656l-0.0390892-0.1039124h-0.0260582l-0.7550354-1.457962
				l-0.1039162-0.1951141l-0.1693726-0.2473869l-1.757309-2.0955811c-0.0390854-0.0390892-0.1039124-0.0781746-0.1690559-0.1042328
				l-2.5511131-0.9892387l-0.6377792-0.1951141l-0.0390854-0.0390892h-0.1042328l-2.3690262-0.2081413l-0.8459244-0.1042328
				h-0.104229l-2.7462311-1.4058456c2.6032295-1.627018,13.4975815-7.7575722,17.7799454-10.0223694
				c1.1195297-0.611721,5.427948-2.381897,6.716217-2.9546928h0.0390854l0.1302872-0.1690559l-2.2778244,0.1299706
				c-1.757309,0.7550392-4.1651001,1.7963943-5.0113449,2.212841c-4.9328537,2.6423149-18.326519,10.3998909-18.430748,10.4648743
				c-0.1430016,0.1042328-0.2084618,0.23452-0.2084618,0.3775177
				C48.0355186,58.8331146,48.0355186,58.9373436,48.1009789,59.0023308z M57.8109741,59.7311516l2.9807472,1.1195297
				l1.6397324,1.9654503l0.4426613-0.2343636l-1.7703362-2.1346664l-0.064827-0.0390854l-2.7204857-0.9762115L57.8109741,59.7311516
				z M56.6914444,60.381958l2.980751,1.0804405l1.6661034,2.0045395l0.4423447-0.2734489l-1.7960739-2.1737518H59.919426
				l-2.6162605-0.9762115H57.26408L56.6914444,60.381958z M73.8336105,45.7518196
				c0.2084579-0.0649834,0.3384323-0.130127,0.3384323-0.130127l0.0390854-0.038929h-0.2081451
				c-0.0390854,0-0.0390854,0-0.0390854,0L73.8336105,45.7518196z M87.8520279,37.0701523h1.6270142
				c0.039093,0,0.039093,0,0.0651474,0.0260582c1.3667603,0.1040726,1.496727,2.3428116,1.5358124,2.9156036l0.3384399-0.1302872
				l0.4687195-0.2081451c-0.026062-0.8071518-0.2993469-2.4730988-1.3928223-3.1239052
				c-0.7416916-0.4294777-1.5879288,0.0780144-2.3038788,0.3773575
				C88.1256332,36.9659233,87.9562607,37.0701523,87.8520279,37.0701523z M88.8021774,37.0701523
				c0.3644943,0.013031,0.7159576,0.013031,0.742012,0.0260582c-0.0260544-0.0260582-0.0260544-0.0260582-0.0651474-0.0260582
				H88.8021774z M97.522934,44.0598183c0.026062,0.025898,0.0651474,0.025898,0.1042328,0.025898
				c0.0651398,0,1.6270142,0,2.9156036-0.1299706c0.5078049-0.0781746,1.1455841,0.1299706,1.6661072,0.4423447
				c0.0260544,0,0.0260544,0.0260582,0.0651398,0.0260582c0.2732925,0.1693764,0.4426651,0.3775177,0.4687195,0.6508064
				c0.0387726,0.2343636,0,0.4687233-0.1693726,0.7810974c-0.1042328,0.1951141-0.2341995,0.3644905-0.3384323,0.5726357
				c-0.0651398,0.0651436-0.1169434,0.11726-0.1563492,0.2213287l0.2214966-0.0910416l0.1039124-0.0651436l1.0934677-0.611721
				c0.2993469-0.8460808,0.026062-1.627018-0.7547226-2.1737556c-0.638092-0.4294739-1.5231018-0.6768646-2.3038788-0.5988503
				c-0.5729523,0.0651436-1.2237625,0.0912018-1.7312469,0.0912018L97.522934,44.0598183z M54.5829964,67.1113663v0.0260544
				h0.0260582c0-0.013031-0.0133476-0.0260544-0.0133476-0.0260544S54.5957069,67.1113663,54.5829964,67.1113663z
				 M54.6217651,67.1374207v0.013031l0.0130272-0.013031H54.6217651z M54.5829964,67.0983353v0.0390854h0.0387688v-0.0260544
				h-0.0260582v-0.013031H54.5829964z M54.5829964,67.0983353v0.0390854h0.0387688v-0.0260544h-0.0260582v-0.013031H54.5829964z
				 M54.6217651,67.1374207v0.013031l0.0130272-0.013031H54.6217651z M54.5829964,67.1113663v0.0260544h0.0260582
				c0-0.013031-0.0133476-0.0260544-0.0133476-0.0260544S54.5957069,67.1113663,54.5829964,67.1113663z M54.5829964,67.1113663
				v0.0260544h0.0260582c0-0.013031-0.0133476-0.0260544-0.0133476-0.0260544S54.5957069,67.1113663,54.5829964,67.1113663z
				 M54.5569382,67.1634827h0.0260582v-0.013031C54.5696487,67.1634827,54.5569382,67.1634827,54.5569382,67.1634827z
				 M54.5829964,67.1374207h0.0260582v0.013031h0.0127106l0.0130272-0.013031h-0.0130272v-0.0260544h-0.0260582v-0.013031
				h-0.0127106V67.1374207z M48.6863251,63.1675911c0,0.025898,0,0.025898,0,0.0649872v0.4034157
				c0,0.0912018,0.0133476,0.1563492,0.0781746,0.2213326c0.0390854,0.0521164,0.0521126,0.1040726,0.104229,0.1301308
				c0.0130272,0.0260544,0.0130272,0.0260544,0.0390854,0.0260544c0.0651474,0.0651474,0.1433182,0.1172638,0.2081451,0.1433182
				c0.1042328,0.0519562,0.2084618,0.1039124,0.2732887,0.1690598l0.0260582,0.0260544h0.0130272l2.238739,1.3146439
				l1.2237587,0.6117249c0.1690598,0.5206757,0.5465775,1.0283279,0.9892426,1.3016129
				c0.1690559,0.0912018,0.3641701,0.1302872,0.5335464,0.1302872c0.0651436,0,0.1693764-0.0390854,0.2081451-0.0390854
				l0.0651436-0.013031l0.104229-0.0521164c0.013031,0,0.013031-0.0130234,0.0390892-0.0130234v-0.013031h0.0260582
				l0.0387688-0.0260544v-0.013031c0.0651436-0.0519562,0.1302872-0.1171036,0.1693726-0.2081451
				c0.1042328-0.1042328,0.1693764-0.2993469,0.1693764-0.5337067v-0.0389252c0-0.1042328,0-0.2084656-0.0651436-0.3125381
				c-0.1042328-0.5986862-0.5468941-1.2105713-1.0283279-1.5229416h-0.0260582
				c-0.2732887-0.1690598-0.5074883-0.2081451-0.7550354-0.1040726l-0.0912018,0.0390854h-0.0387688v0.013031l-0.0390892,0.0258942
				h-0.0260582l-0.0390854,0.026062c-0.1302872,0.1042252-0.1951141,0.2084579-0.2732887,0.3775177l-0.7810936-0.3775177
				l-1.9654541-1.1843567l1.7312508,0.1301308l2.2126808,0.5076485l0.7029228,0.143158l0.6768646,0.1692123l0.5205193,0.5076523
				l0.2605782,0.2732849l0.6114044,0.6118851l1.2237587,1.2234421l1.4576416,1.7571487l-0.9762115-0.4034195l-2.5120277-1.77034
				l-0.8201828,0.5078125l0.2736092,0.1429977l2.6423149,1.8353195l2.1475372,0.9503098
				c0.0260582,0,0.104229,0.0259018,0.1690559,0.0259018c0.2736053,0.16922,0.6120377,0.3384323,1.0543861,0.5076523
				c0.1693726,0.0390854,0.2993431,0.1042252,0.4687195,0.143158c0.3384323,0.0651398,0.7420082,0.130127,1.1843567,0.130127
				c0.4817505,0,0.9501495-0.0649872,1.496727-0.1951141c0.0654602,0,0.1042328-0.0390854,0.1042328-0.0390854l7.6141357-4.4005051
				c0.090889-0.0651474,0.1299744-0.1042328,0.1690598-0.1693802c0.4035797-0.780777,0.9762115-1.4576416,1.6530762-1.8742447
				c0.5205154-0.2732925,0.9892426-0.3384323,1.2625275-0.0912018c0.1302872,0.1302872,0.3384323,0.1302872,0.4687195,0.0651398
				l19.3816605-11.1797829c0.064827-0.0651436,0.1299667-0.1040726,0.1690521-0.1690559
				c0.4035797-0.7810974,1.0153046-1.457962,1.6270218-1.7963943c0.5465775-0.3384323,1.0152969-0.4034195,1.3537292-0.1429977
				c0.1429977,0.1039124,0.3123779,0.1039124,0.4423447,0.0389252l3.7357864-2.1737518c0,0,0.013031-0.013031,0.0521164-0.0260582
				c0.2341995-0.1430016,1.1322403-0.6508064,1.1322403-0.6508064c0.0390854-0.2732887,0.0390854-0.5074921-0.0260544-0.7418518
				c-0.039093-0.0780144-0.039093-0.143158-0.077858-0.1692162l-0.742012,0.4035759v0.0390854l-4.2823639,2.433857
				c-0.2472305-0.1299706-0.5596008-0.1690598-0.8719788-0.1299706h-0.0781708c-0.026062,0-0.026062,0-0.0651474,0
				c-0.1302872,0-0.2993469,0.025898-0.4423447,0.1039124c-0.1693726,0.0651436-0.3648071,0.1693764-0.5338669,0.2734451
				c-0.7550354,0.4294777-1.4319,1.1454277-1.9003067,2.0304375L75.7334824,63.543911
				c-0.2863159-0.11726-0.5856628-0.1822472-0.9110641-0.1563454c-0.013031,0-0.0521164,0.0260544-0.0651474,0.0260544
				c-0.1690598,0-0.3384323,0.0260582-0.5074921,0.130291c-0.1690521,0.0390854-0.3384323,0.1040726-0.5078049,0.2081413
				c-0.780777,0.4687195-1.4315872,1.1845169-1.9133377,2.0696869l-7.4708176,4.2962723
				c-0.5074921,0.1433182-1.0149803,0.1693726-1.41856,0.1693726h-0.0390854
				c-0.2993469-0.0260544-0.5726318-0.0651398-0.8068352-0.1302872c-0.0394058-0.0260544-0.0912018-0.0260544-0.1302872-0.0390854
				h-0.013031c-0.104229-0.0389252-0.1693764-0.0649872-0.2732887-0.1039124c-0.0260582,0-0.0651436-0.026062-0.104229-0.026062
				c-0.3384323-0.1042252-0.5726357-0.2473831-0.742012-0.3775177v-0.1042328c0-0.1040649-0.0387688-0.2081375-0.104229-0.2732849
				l-2.0302773-2.4729385l-2.7465477-2.7856369c-0.0387688-0.0260544-0.104229-0.1040688-0.2081451-0.1040688l-3.7615242-0.8069954
				l-2.1087685-0.1692162h-0.1042328l-0.6508064-0.0780144c-0.064827-0.0260582-0.0908852,0-0.1690559,0.0390854
				c-0.0260582,0-0.0912018,0.038929-0.130291,0.0649872C48.7517853,62.9851875,48.6863251,63.0633621,48.6863251,63.1675911z
				 M53.3331795,65.575386c0.0260582-0.1429977,0.0651436-0.2472305,0.1302872-0.2732849
				c0.0390854-0.0390854,0.1039124-0.0390854,0.1433182-0.0390854c0.064827,0,0.1690559,0.0390854,0.2732887,0.0651398
				c0.2602577,0.16922,0.5074883,0.4815903,0.6377792,0.8200226c0.1039124,0.2083054,0.1690559,0.4034195,0.1690559,0.6118851
				c0,0.1169434,0,0.2602539-0.0912018,0.3382721h-0.0127106v0.0390854h0.0260582v0.013031l-0.0260582,0.013031v-0.013031
				c-0.0133476,0.013031-0.0260582,0.013031-0.0260582,0.013031c-0.1042328,0.0649796-0.2732887,0.0389252-0.4166069-0.026062
				c-0.1693726-0.1040726-0.3384323-0.2734451-0.4687195-0.4815903c-0.2081451-0.2993469-0.3384323-0.6377792-0.3384323-0.9892426
				V65.575386z M54.6090546,67.1374207v0.013031h0.0127106l0.0130272-0.013031H54.6090546z M54.5829964,67.0983353v0.0390854
				h0.0260582c0-0.013031-0.0133476-0.0260544-0.0133476-0.0260544v-0.013031H54.5829964z M54.5569382,67.1634827h0.0260582
				v-0.013031C54.5696487,67.1634827,54.5569382,67.1634827,54.5569382,67.1634827z M54.5829964,67.1113663v0.0260544h0.0260582
				c0-0.013031-0.0133476-0.0260544-0.0133476-0.0260544S54.5957069,67.1113663,54.5829964,67.1113663z M54.6217651,67.1374207
				v0.013031l0.0130272-0.013031H54.6217651z M54.5829964,67.0983353v0.0390854h0.0387688v-0.0260544h-0.0260582v-0.013031
				H54.5829964z M54.6217651,67.1374207v0.013031l0.0130272-0.013031H54.6217651z M54.5829964,67.0983353v0.0390854h0.0387688
				v-0.0260544h-0.0260582v-0.013031H54.5829964z M54.5829964,67.0983353v0.0390854h0.0387688v-0.0260544h-0.0260582v-0.013031
				H54.5829964z M54.6217651,67.1374207v0.013031l0.0130272-0.013031H54.6217651z M54.5829964,67.1113663v0.0260544h0.0260582
				c0-0.013031-0.0133476-0.0260544-0.0133476-0.0260544S54.5957069,67.1113663,54.5829964,67.1113663z M54.5569382,67.1634827
				h0.0260582v-0.013031C54.5696487,67.1634827,54.5569382,67.1634827,54.5569382,67.1634827z M54.5957069,67.1113663
				c0,0,0.0133476,0.0130234,0.0133476,0.0260544v0.013031h0.0127106l0.0130272-0.013031h-0.0130272v-0.0260544H54.5957069z
				 M54.5829964,67.0983353v0.013031c0.0127106,0,0.0127106,0,0.0127106,0v-0.013031H54.5829964z M54.5569382,67.1634827h0.0260582
				v-0.013031C54.5696487,67.1634827,54.5569382,67.1634827,54.5569382,67.1634827z M54.5957069,67.1113663
				c0,0,0.0133476,0.0130234,0.0133476,0.0260544v0.013031h0.0127106l0.0130272-0.013031h-0.0130272v-0.0260544H54.5957069z
				 M54.5829964,67.0983353v0.013031c0.0127106,0,0.0127106,0,0.0127106,0v-0.013031H54.5829964z M76.1765823,48.6024399
				c0.23452,0.143158,0.5465775,0.143158,0.7420044,0c0.2472305-0.1301308,0.2472305-0.2995033,0.039093-0.4425049
				c-0.2084656-0.104229-0.5726395-0.104229-0.7810974,0.0390892
				C75.9684372,48.3029366,75.9684372,48.4983673,76.1765823,48.6024399z M74.0029831,47.5091286h0.026062v0.0390854
				c0.038765,0.038929,0.038765,0.038929,0.0781708,0.0649872c0.026062,0,0.026062,0.0389252,0.064827,0.0389252
				c0.1954346,0.1042328,0.5465775,0.1042328,0.742012-0.0389252c0.1042252-0.0260582,0.1433182-0.1040726,0.1693726-0.1692162
				v-0.0260582c0-0.0390854-0.0260544-0.0390854-0.0260544-0.0781746c0-0.0649834-0.0781784-0.0910416-0.1433182-0.1690559
				c-0.1954346-0.0912018-0.5465775-0.0912018-0.780777,0.0390854
				C74.0290451,47.3138542,74.0029831,47.4179268,74.0029831,47.5091286z M73.7681274,67.7238922
				c0,0,0.0625381,0.0469055,0.1563416,0.0625381h0.0152588c0.0938034,0,0.1876144-0.0156326,0.3126907-0.0938034
				l0.0469055-0.2654114l0.1094437-0.0156326l0.0934219-0.093811h0.0156326v0.0312729l0.0156403,0.0156326l0.0312653,0.0156403
				l0.0312729,0.0625381c0,0,0.0156326,0,0.0469055-0.0156403h0.0156326
				c0.0469055-0.0468979,0.0781708-0.0781708,0.1716003-0.1407089c0.0938034-0.0781708,0.2188797-0.2028656,0.2501526-0.3279495
				c0,0,0.0934219,0.0781784,0.0934219,0.3279495c0.0160217,0.1250763,0,0.2812347-0.0934219,0.4999237
				c0,0-0.3123093-0.0312653-0.4686584,0.0469055c-0.0781708,0.0623474-0.2028656,0.281044-0.2188873,0.3435822
				c0,0.0156326,0,0.0156326,0,0.0156326h-0.0152512c0-0.0156326,0-0.0156326,0-0.0156326v-0.0156326h-0.0160141
				l-0.0312729-0.0312729c0-0.0156326,0-0.0156326-0.0152512-0.0156326h-0.1250763c-0.0156326,0-0.0469055-0.0156326-0.0625381,0
				c-0.0156326,0-0.0156326,0.0156326-0.0312729,0.0156326c0,0,0,0-0.0312653,0.0312729c0,0,0,0-0.0156326,0.0156326
				c0,0,0,0-0.0156403,0.0156326c0,0,0,0-0.0312653,0.0312729c-0.0152588,0-0.0312729,0.0312653-0.0625381,0.0623474
				c-0.046524,0.0312653-0.0934296,0.07798-0.0934296,0.1405182l-0.0156326,0.0156326
				c-0.0625381,0.0469055-0.093811,0.0781784-0.1094437,0.1250763c0,0,0,0-0.0156326,0.0156403v-0.0156403
				c-0.0312729-0.0156326-0.0312729-0.0156326-0.0312729-0.0468979c-0.0156326-0.0156403-0.0156326-0.0625381-0.0156326-0.093811
				c-0.0156326-0.0625381-0.0156326-0.1405182-0.0156326-0.2497711v-0.0156326
				C73.6743164,67.8489685,73.7681274,67.7238922,73.7681274,67.7238922z M84.2048187,56.0467987
				c0,0,0.0625381,0.0469055,0.1563492,0.0625381h0.0152512c0.093811,0,0.1876144-0.0156326,0.3126907-0.0938072
				l0.0469055-0.2654076l0.1094437-0.0156326l0.0934296-0.0938072h0.0156326v0.0312691l0.0156326,0.0156326l0.0312729,0.0156364
				l0.0312653,0.0625381c0,0,0.0156403,0,0.0469055-0.0156364h0.0156326
				c0.0469055-0.0469017,0.0781784-0.0781708,0.1716003-0.1407127c0.093811-0.0781708,0.2188873-0.2028656,0.2501526-0.3279457
				c0,0,0.0934296,0.0781746,0.0934296,0.3279457c0.0160141,0.1250801,0,0.2812347-0.0934296,0.4999275
				c0,0-0.3123093-0.0312691-0.4686508,0.0469055c-0.0781784,0.0623474-0.2028732,0.2810402-0.2188873,0.3435783
				c0,0.0156364,0,0.0156364,0,0.0156364h-0.0152512c0-0.0156364,0-0.0156364,0-0.0156364v-0.0156326H84.798172
				l-0.0312653-0.0312691c0-0.0156364,0-0.0156364-0.0152512-0.0156364h-0.1250839c-0.0156326,0-0.0468979-0.0156326-0.0625381,0
				c-0.0156326,0-0.0156326,0.0156364-0.0312653,0.0156364c0,0,0,0-0.0312729,0.0312691c0,0,0,0-0.0156326,0.0156326
				c0,0,0,0-0.0156326,0.0156364c0,0,0,0-0.0312729,0.0312691c-0.0152512,0-0.0312653,0.0312691-0.0625381,0.0623474
				c-0.046524,0.0312691-0.0934219,0.0779839-0.0934219,0.140522l-0.0156403,0.0156326
				c-0.0625381,0.0469055-0.0938034,0.0781746-0.109436,0.1250801c0,0,0,0-0.0156403,0.0156326v-0.0156326
				c-0.0312653-0.0156364-0.0312653-0.0156364-0.0312653-0.0469055c-0.0156403-0.0156364-0.0156403-0.0625381-0.0156403-0.0938072
				c-0.0156326-0.0625381-0.0156326-0.140522-0.0156326-0.2497749v-0.0156326
				C84.1110153,56.171875,84.2048187,56.0467987,84.2048187,56.0467987z M96.4035034,54.9090958
				c0.0160141-0.1716003,0.0625381-0.281044,0.0785522-0.3123131h0.0308914c0,0,0,0,0.0312653,0
				c0.0156326,0,0.0625381,0.0156364,0.093811,0.0156364c0.0469055,0,0.0781708-0.0156364,0.1250763-0.0156364
				c0.0156326,0,0.0469055,0,0.0621567-0.0312691c0.047287,0,0.0781708-0.0156326,0.1407089-0.0625381h0.0156403v-0.0623474
				l0.0312653-0.0469055l0.0156326-0.1248856h0.1250763v-0.0312691H97.16922l0.0777893-0.0781746l0.0625381,0.0781746
				l0.0312729,0.0312691v0.0156364c0,0,0,0,0.0156326-0.0156364c0.0156326,0,0.0156326-0.0312691,0.0312653-0.0312691
				c0.0312729,0,0.0312729,0,0.0312729-0.0156326c0.0312653-0.0156364,0.0938034-0.062542,0.1559677-0.1250801l0.0312653-0.0156326
				c0.0160141-0.0156364,0.0312729-0.0467148,0.047287-0.0623474c0.0308838-0.0156364,0.0308838-0.0156364,0.0308838-0.0469055
				c0.0156403-0.0154419,0.0312729-0.0154419,0.0312729-0.0310783c0.0625381-0.0469055,0.0938034-0.0781746,0.1094437-0.1250763
				c0,0,0.0781708,0.0781708,0.0781708,0.3279457c0.0156326,0.1250763,0,0.2812309-0.0781708,0.4842911
				c0,0-0.3279495-0.0312691-0.4686584,0.0469055c-0.0469055,0.0156326-0.0625381,0.0625381-0.0781708,0.0936165
				c0,0.0312691-0.0312729,0.0312691-0.0312729,0.0312691c-0.0152512,0.0156326-0.0312729,0.0623474-0.0312729,0.0936165
				l-0.0312653,0.0156364c-0.0308914,0.0625381-0.046524,0.1250763-0.046524,0.1250763s-0.0312653-0.0156364-0.0469055,0h-0.0156326
				l-0.0312653-0.0312691c-0.0156403-0.0312691-0.0312729-0.0469055-0.0781784-0.0469055
				c-0.0156326-0.0156326-0.0156326-0.0156326-0.0312653-0.0156326c0,0-0.0312729,0-0.0469055,0.0156326h-0.0152512
				c-0.0625381,0.0469055-0.1250763,0.0781746-0.1876144,0.1407127c-0.0156403,0-0.0156403,0-0.0156403,0.0156326v0.0310822
				c-0.0312653,0-0.0312653,0-0.0312653,0s0,0,0,0.0156326c0,0-0.0156403,0-0.0156403,0.0156364
				c-0.0156326,0.0312691-0.0468979,0.0469017-0.0625381,0.0936165c0,0-0.0156326,0-0.0156326,0.0156326
				c-0.0312653,0-0.0312653,0.0156364-0.0312653,0.0156364l-0.0156403,0.0312691c0,0.0156326,0,0.0156326,0,0.0156326
				c-0.0152512,0.0156364-0.0152512,0.0156364-0.0152512,0.0312691v0.0312691h-0.0160141c0,0,0,0,0,0.0156364
				c-0.0312729,0.0156364-0.0312729,0.0156364-0.0312729,0.0156364s0-0.0156364,0-0.0312729
				c-0.0312653-0.0625381-0.0777893-0.1874237-0.0621567-0.4061165c0-0.0312691,0-0.0312691,0-0.0469055
				C96.372612,54.9403648,96.4035034,54.9090958,96.4035034,54.9090958z"/>
		</g>
	</g>
</g>
</svg>
