<?xml version="1.0" encoding="utf-8"?>
<!-- Generator: Adobe Illustrator 27.6.1, SVG Export Plug-In . SVG Version: 6.00 Build 0)  -->
<svg version="1.1" id="Layer_1" xmlns="http://www.w3.org/2000/svg" xmlns:xlink="http://www.w3.org/1999/xlink" x="0px" y="0px"
	 viewBox="0 0 172.9100037 90" style="enable-background:new 0 0 172.9100037 90;" xml:space="preserve">
<style type="text/css">
	.st0{fill:#888888;}
	.st1{fill:#9697CA;}
	.st2{fill:#3751A0;}
	.st3{fill:#F79420;}
	.st4{fill:#FFFFFF;}
	.st5{fill:#BABABA;}
	.st6{fill:#72C6EF;}
	.st7{fill:#333366;}
	.st8{opacity:0.65;fill:#1A1A1A;}
	.st9{fill:#D1ECF2;}
	.st10{fill:#A9DDE9;}
	.st11{fill:#333333;}
	.st12{fill:#1A1A1A;}
	.st13{fill:#CA2026;}
</style>
<g>
	<g>
		<path class="st0" d="M62.5827904,90H36.6174049v-8.6048203h14.2027054v1.9990845h6.4897308
			c-0.0289993,0.1738281-0.0289993,0.3476562-0.0289993,0.5214844C57.2808418,87.0157852,59.5985756,89.5943451,62.5827904,90z
			 M111.7133102,85.5381775h-2.462738v-2.1439133H69.5071716c0.029007,0.1738281,0.029007,0.3476562,0.029007,0.5214844
			c0,3.1000366-2.3179169,5.6785965-5.3019562,6.0842514h52.9256897C114.4655228,90,112.234787,88.0589142,111.7133102,85.5381775z
			 M133.8478851,85.5381775h-11.2990189C122.0273895,88.0589142,119.8254776,90,117.1599121,90h16.71698l2.5495605-2.5006638
			v-4.3367157L133.8478851,85.5381775z"/>
		<path d="M136.4146576,72.2690659v10.8935547l-2.5785675,2.3755569h-11.2990265
			C122.0155869,88.0589142,119.8136749,90,117.1482849,90c-2.6945648,0-4.925293-1.9410858-5.4467697-4.4618225h-2.462738
			v-2.1439133H69.4953766c0.0289993,0.1738281,0.0289993,0.3476562,0.0289993,0.5214844
			c0,3.1000366-2.3177338,5.6785965-5.3019485,6.0842514h-1.6514359c-2.9840393-0.4056549-5.3019524-2.9842148-5.3019524-6.0842514
			c0-0.1738281,0-0.3476562,0.0289993-0.5214844h-6.489727v-3.592514H36.6056023v-6.1420746
			c0.3476524-0.4346542,0.666481-0.869133,1.0141335-1.3037872c0.1158257-0.1448212,0.2606506-0.3186493,0.3766518-0.4924774
			h71.2423859V53.0315247h2.172905v0.7243042h4.3748245v1.7094345h10.922554l5.678421,10.4878998
			c0.6374817,1.129776,0.956131,2.4335556,1.0431366,3.7373428h0.0578156L136.4146576,72.2690659z"/>
		<path class="st1" d="M129.833786,65.757309v5.1570435l-3.7953339-7.0112572
			c-0.1738281-0.2897148-0.4056549-0.5504761-0.6663055-0.7243004v-5.5336914h0.0579987L129.833786,65.757309z"/>
		<path class="st2" d="M52.9930229,79.8088226v1.4196091h4.9654388c0.2318268-0.5214767,0.5504761-1.0141296,0.9271278-1.4196091
			H52.9930229z"/>
		<path class="st2" d="M119.085083,77.954567h-7.6486893v5.4177704h0.28965
			c0.4924774-2.5495605,2.752388-4.4906464,5.4467773-4.4906464c0.3186493,0,0.6663055,0.029007,0.956131,0.0868301
			c0.1738281,0.0289993,0.3476486,0.0579987,0.4924774,0.1159973c0.2028275,0.0288239,0.3766479,0.1158295,0.5504761,0.1738281
			c0.2318268,0.0868225,0.4924774,0.202652,0.7243042,0.3476486c0.2608261,0.1448288,0.5214767,0.3186569,0.7243042,0.5214767
			c0.2318268,0.1738281,0.4634781,0.3766556,0.6084747,0.579483c0.0289993,0.0288239,0.0870056,0.0578232,0.0870056,0.1158218
			c0.2028275,0.1738281,0.3186493,0.3476562,0.4056473,0.5214767c0.0580063,0.0870056,0.1158295,0.1448288,0.1448288,0.2318268
			c0.1738281,0.2318268,0.28965,0.4924774,0.3766479,0.7533035c0.1448288,0.28965,0.2318268,0.5792999,0.2896576,0.8981323
			c0,0.0578232,0.0289993,0.0868225,0.0289993,0.1448212h1.1877747v-0.7533035
			C123.749733,80.0404739,121.6636429,77.954567,119.085083,77.954567z"/>
		<path class="st2" d="M129.8338013,70.91436l-3.7953339-7.0113869c-0.1738281-0.28965-0.4056549-0.5504799-0.6663055-0.7243042
			c-0.3766556-0.3186531-0.840126-0.4634781-1.3327789-0.4634781h-12.6028137v13.0664635h7.6486893
			c2.9552155,0,5.4467773,1.8830795,6.4029083,4.5196457h4.2299881c0.9271393,0,1.7094421-0.6953049,1.7094421-1.5356064V73.956398
			L129.8338013,70.91436z M113.9859543,72.9712677v-7.214035h8.3149948l2.5205612,7.214035H113.9859543z"/>
		<path class="st3" d="M114.3625946,55.2114563v0.7243042h-2.2309113v-0.7243042H114.3625946z M112.1318588,58.8619499v0.6373901
			h2.2309113v-0.6373901H112.1318588z M112.1318588,61.3535576h2.2309113v-1.1299133h-2.2309113V61.3535576z"/>
		<rect x="112.1305847" y="56.5894279" class="st4" width="2.2307343" height="1.5282006"/>
		<path class="st0" d="M66.5809631,83.3942642c-0.1158295-0.6952972-0.4056549-1.2747803-0.869133-1.7382507
			c-0.1738205-0.1738281-0.3476486-0.3186569-0.5504761-0.4346542c-0.4926529-0.3186493-1.1009521-0.5214767-1.7384338-0.5214767
			c-0.6373024,0-1.2457809,0.2028275-1.7672577,0.5214767c-0.1738281,0.1159973-0.3186531,0.2318268-0.4634781,0.3476486
			c-0.4926529,0.4636536-0.8403053,1.1009598-0.9561272,1.8252563c-0.0290031,0.1738281-0.0580025,0.3476562-0.0580025,0.5214844
			c0,1.7964325,1.4486084,3.2450409,3.2448654,3.2450409c1.7674332,0,3.2160416-1.4486084,3.2160416-3.2450409
			C66.6389618,83.7419205,66.6099625,83.5680923,66.5809631,83.3942642z M62.4379654,83.655098
			c-0.6374779,0-1.1589546-0.4924774-1.1589546-1.1299591c0-0.6084747,0.5214767-1.1299591,1.1589546-1.1299591
			c0.6083031,0,1.1299553,0.5214844,1.1299553,1.1299591C63.5679207,83.1626205,63.0462685,83.655098,62.4379654,83.655098z"/>
		<path class="st2" d="M109.2505722,79.8017502v1.4196091H68.8986969c-0.2606506-0.5214767-0.5794754-1.0139542-0.956131-1.4196091
			H109.2505722z"/>
		<path class="st0" d="M117.1599121,81.7718353c-1.4774323,0-2.66539,1.1879578-2.66539,2.6655655
			c0,1.4486084,1.1879578,2.6653824,2.66539,2.6653824c1.4486084,0,2.6365662-1.216774,2.6365662-2.6653824
			C119.7964783,82.9597931,118.6085205,81.7718353,117.1599121,81.7718353z M116.1749573,84.0027466
			c-0.4636536,0-0.8691254-0.3766556-0.8691254-0.8691254c0-0.4926605,0.4054718-0.869133,0.8691254-0.869133
			c0.4924774,0,0.8981323,0.3764725,0.8981323,0.869133C117.0730896,83.626091,116.6674347,84.0027466,116.1749573,84.0027466z"/>
		<rect x="105.2637558" y="74.0363235" class="st5" width="3.9868224" height="0.5428739"/>
		<path class="st6" d="M131.4272308,70.5666962v3.3897324l-1.5934448-3.0420761V65.757309l0.6663055,1.2168274
			C131.1085815,68.0750885,131.4272308,69.3208923,131.4272308,70.5666962z M115.811203,57.6451035v5.0701256h8.2281647
			c0.4924774,0,0.956131,0.1448708,1.3327789,0.4635658v-5.5336914H115.811203z"/>
		<rect x="38.7903137" y="74.0432205" class="st5" width="65.2445908" height="0.5359775"/>
		<path class="st5" d="M133.6001434,72.6526108v6.1130829c0,2.0280838-1.7382507,3.708519-3.8823395,3.708519h-3.8243408
			c0,0.0578232,0.0289993,0.0868225,0.0289993,0.1448212v0.7533035h7.0982132l1.2457733-1.1589508v-8.9522934
			L133.6001434,72.6526108z"/>
		<rect x="38.7785149" y="75.3111038" class="st5" width="65.2566605" height="0.695303"/>
		<polygon class="st5" points="109.2677765,77.1943665 109.2677765,77.6288376 38.7785149,77.6288376 38.7785149,76.7307129 
			104.0351715,76.7307129 104.0351715,77.1943665 		"/>
		<polygon class="st7" points="124.8216705,72.9713669 113.985939,72.9713669 113.985939,65.757309 122.3011093,65.757309 		"/>
		<path class="st5" d="M63.5679207,82.5251389c0,0.6374817-0.5216522,1.1299591-1.1299553,1.1299591
			c-0.6374779,0-1.1589546-0.4924774-1.1589546-1.1299591c0-0.6084747,0.5214767-1.1299591,1.1589546-1.1299591
			C63.0462685,81.3951797,63.5679207,81.9166641,63.5679207,82.5251389z"/>
		<path class="st5" d="M117.0730896,83.1336212c0,0.4924698-0.4056549,0.8691254-0.8981323,0.8691254
			c-0.4636536,0-0.8691254-0.3766556-0.8691254-0.8691254c0-0.4926605,0.4054718-0.869133,0.8691254-0.869133
			C116.6674347,82.2644882,117.0730896,82.6409607,117.0730896,83.1336212z"/>
		<rect x="38.7785149" y="76.0064087" class="st0" width="65.2566605" height="0.7243034"/>
		<rect x="38.7901382" y="74.5758362" class="st0" width="65.2447662" height="0.7243034"/>
	</g>
	<g>
		<path class="st8" d="M100.081398,73.5025406h0.6868362l5.4629745,0.3597946v1.7991562l-7.7201614,0.4907761h-2.1916962
			C98.0530243,76.1522675,99.5251389,75.0726852,100.081398,73.5025406z M55.9844856,76.1522675h40.3348656
			c-1.5048599,0-2.8132477-0.8178253-3.5330276-1.99543c-0.2943039,0.0652847-0.6868439,0.1962662-1.3411407,0.3270416h-6.0845184
			l-0.0982361-0.0982285c-0.0327454-0.032547-0.2617569-0.2943039-0.4252777-0.6540985h-0.0327454
			c-3.1402969-0.0654907-6.4115753-0.1309814-9.6502991-0.1962662c-5.6592407-0.1309814-10.9914398-0.2617569-15.3095436-0.2617569
			C59.3539925,74.9419098,57.816391,76.1522675,55.9844856,76.1522675z M37.3056374,73.6660614v1.243103l14.197216,1.243103
			h4.4816322c-1.8646507,0-3.4020538-1.2103577-3.8928261-2.9114838c-1.3411331-0.0327454-2.6824684-0.2290115-4.0236015-0.4580307
			L37.3056374,73.6660614z"/>
		<g>
			<path d="M106.0651779,68.2063675l-0.022583-0.0112915c0.0109863,0,0.0109863-0.0112915,0.0109863-0.0112915
				c0.2600098-0.3614807,0.5535889-0.7450867,0.7791138-1.1404419c0.3955078-0.5871582,0.6890869-1.2081909,0.7229614-1.603241
				c0-0.1356506-0.067749-0.2935791-0.1583862-0.3613281c-0.0674438-0.0679016-0.1690674-0.1358032-0.3613281-0.1693726
				l-0.0109863,0.0109863c-0.0906372-0.0448608-0.2145386-0.0561523-0.3387451-0.0900269c-0.0112915,0-0.0112915,0-0.022583,0
				c0-0.0112915,0.022583-0.022583,0.022583-0.0338745c0.1351929-0.2145386,0.2481079-0.4855347,0.3497314-0.801693
				c0.067749-0.2597046,0.1016235-0.5532837,0.1016235-0.8468628c0-0.2258301-0.2032471-0.3952026-0.3948975-0.3952026H106.38134
				c0,0.0112915,0,0.0112915,0,0.022583c-6.7749023-0.1353455-14.0911865-0.1353455-20.2337646-0.0338745
				c-0.9823608-0.8468628-3.7597656-2.7210999-8.9651489-3.1051636c-0.1016235-0.0338745-0.2258301,0.0338745-0.2932739,0.0904846
				c-0.067749,0.0338745-0.067749,0.0679016-0.1019287,0.1353455c0,0,0,0,0,0.0338745
				c-0.2935791-0.0674438-0.7113647-0.1353455-1.2081909-0.16922l-0.3613281-2.2242737l-0.0112915-0.0791931
				c-0.0335693-0.191803-0.2032471-0.3274536-0.3948975-0.3274536h-1.0165405c-0.1919556,0-0.3610229,0.1356506-0.383606,0.3274536
				l0.0112915,0.1130676l-0.0338745,0.16922c-0.0341797-0.236969-0.0341797-0.4289246,0-0.5871582c0-0.1017761,0-0.16922,0-0.16922
				s0,0-0.0115967-0.0112915c0,0,0.0567627-0.2935791-0.4290771-0.3274536
				c-0.5194092-0.0338745-0.9481812,0.0564575-1.1178589,0.1580811c-0.1239014,0.0788879-0.1126099,0.2258301-0.1013184,0.2932739
				c0.0112915,0.0227356,0.0222778,0.0566101,0.0222778,0.0566101s1.3778687,0.8128357,1.2081909,1.5019226
				c-0.0900269,0.3948975-0.519104,0.8128357-0.9143066,1.1064148c-0.3613281,0.0679016-0.7565308,0.1353455-1.1407471,0.2030945
				c0-0.0338745,0-0.0338745-0.0335693-0.067749c-0.1016235-0.1014709-0.2261353-0.1353455-0.3613281-0.1353455
				c-0.0680542,0.0338745-1.9308472,0.2709961-4.0536499,1.1177063c-0.135498,0.0679016-0.3274536,0.1242065-0.5307007,0.2597046
				c-0.1577759,0.0679016-0.2597046,0.1693726-0.451355,0.2597046h-0.0680542c0,0,0,0-0.0338745,0L64.705925,61.352581
				c-0.3274536-0.0338745-0.6549072-0.0338745-1.0839882,0c-0.1922607-0.0338745-0.3613281-0.0338745-0.5871582,0
				c-0.067749-0.0338745-0.1016235-0.0338745-0.1580811,0c-0.1358032,0-0.2935791-0.0338745-0.4180908,0l-0.1239014-0.2822876
				l-1.7050171-3.8952637c-0.1016235-0.1919556-0.2935791-0.2935791-0.4855347-0.2258301l-1.2194824,0.2935791
				c-0.1239014,0.0338745-0.2258301,0.1013184-0.2597046,0.2032471c-0.067749,0.090332-0.067749,0.1916504-0.0338745,0.3161621
				l1.0162354,3.3081055l0.1016235,0.2484131h-0.0564575c-6.8875122-0.0335693-15.4800415,0-19.6240234,0.0338745h-2.4838257
				c-0.2597046,0-0.3274536,0.1243591-0.3274536,0.2597046c0.0338745,0.1921082,0.1916504,0.4290771,0.2597046,0.5532837
				l0.428772,0.8468628h-0.9820557c-0.2597046,0-0.3274536,0.1016235-0.2935791,0.2709961
				c0,0.1919556,0.1580811,0.4177856,0.2258301,0.5531311l1.907959,3.9067039
				c-0.5307007,0.067749-1.0046387,0.2261353-1.5014648,0.4969788c-0.7452393,0.3840637-0.8468628,0.9486389-0.8132935,1.3322449
				c0.1583862,1.479187,2.484436,1.8403625,3.8955688,2.0324707c0.2258301,0.0338745,0.3839111,0.067749,0.5194092,0.067749
				c1.1065674,0.2258301,2.2244263,0.3613281,3.3422852,0.5194092c0.7788086,0.135498,1.5921021,0.2258301,2.4163818,0.3613281
				l0.7791138,0.135498c0.2029419,0.0338745,0.428772,0.0564575,0.6207275,0.090332
				c1.1013794,0.194397,2.2027588,0.3353882,3.303833,0.4067993c0.2862549,2.308197,2.2323608,4.1015625,4.6182251,4.1015625
				c2.3538208,0,4.2825317-1.7453003,4.6087646-4.0090942c4.1851845,0.0131226,9.2193642,0.1293945,14.5568886,0.2572632
				c3.2403564,0.067749,6.5148926,0.1351929,9.6536255,0.191803h0.0338745
				c0.1580811,0.3614807,0.3952026,0.6210327,0.4290771,0.6550598l0.0906372,0.1016235h6.0855103
				c0.2105713-0.0436401,0.3866577-0.0849915,0.5487061-0.1248169c0.6930542,1.7150879,2.3675537,2.9281616,4.3310547,2.9281616
				c2.3547363,0,4.2837524-1.7468262,4.6087646-4.0115356h3.3044434c1.4678955,0,3.2403564-1.3098145,3.2403564-2.9470825
				C107.4763107,69.3806839,106.8214035,68.6578751,106.0651779,68.2063675z M73.3546066,61.0364189l-0.0335693,1.0049438
				h-0.0115967c-0.1016235-0.0338745-0.2029419-0.0338745-0.2935791-0.067749
				c-0.7449341-0.1016235-1.50177-0.2258301-2.3034668-0.2935791l0.0567627-0.3500366
				c0.8807373-0.2258301,1.7727661-0.2935791,2.5854492-0.3271484V61.0364189z M76.7533493,62.6399651
				c-0.067749,0-0.1806641-0.0114441-0.2371216-0.0453186c-0.8129883-0.1693726-1.6937256-0.3274536-2.6422119-0.4516602
				l0.067749-1.1401367c1.2759399,0,2.2924805,0.1351929,2.8115845,0.236969V62.6399651z"/>
			<path class="st9" d="M64.775322,62.6015205h0.0327454c0.2617569-0.1309776,0.4907684-0.2617569,0.752533-0.3925362
				c0.0325394-0.0327454,0.0652847-0.0654907,0.0980301-0.0654907c0.4252853-0.2617569,0.8178177-0.4580269,1.0795746-0.5560608
				c1.3738861-0.5235138,2.6169815-0.8178177,3.3040237-0.9487953l-0.0327454,0.1962662l-0.0654907,0.3272476l-0.0654907,0.4252815
				l-0.032547,0.1635246c-0.3599854,0.0327454-0.7525253,0.0980339-1.1450653,0.1635246
				c-0.5887985,0.0982323-1.1776047,0.2617569-1.7336655,0.4580269c-0.1637268,0.0654869-0.3272476,0.0980339-0.4580307,0.1635246
				c-0.1962662,0.0654869-0.3925323,0.1307755-0.5888062,0.2290115c-0.1962662,0.0654907-0.4252777,0.1635246-0.6215515,0.2617569
				h-1.0468292C64.4482727,62.8630791,64.5790558,62.7322998,64.775322,62.6015205z M77.5661163,60.4751129v0.9813423
				c2.1262131,0.3272476,4.0236053,1.0140877,5.4957199,2.8134499c1.0140839-0.1309814,1.9626846-0.4252853,2.6169815-0.9160538
				C84.8609924,62.6668091,82.4075394,60.9003944,77.5661163,60.4751129z"/>
			<path class="st10" d="M65.9203873,62.7650452c0.1962738-0.0982361,0.39254-0.1635246,0.5888062-0.2290115
				c0.1307831-0.0654907,0.2943039-0.0980377,0.4580307-0.1635246c0.5560608-0.19627,1.1448669-0.3597946,1.7336655-0.4580269
				c0.39254-0.0654907,0.78508-0.1307793,1.1450653-0.1635246l-0.0982285,0.6215515h-0.0327454l-0.1307831,0.7850723
				c-0.7850723-0.0654869-1.5375977-0.1307793-2.2899323-0.1307793h-1.99543
				C65.4951096,62.9285698,65.7241211,62.8305359,65.9203873,62.7650452z M77.5661163,61.4564552v2.9114799
				c0.3270493,0.0982361,0.6215515,0.1635284,0.9158554,0.2290192V64.564209c1.1450653,0,2.0609207,0,4.4816284-0.2617645
				c0.0327454,0,0.0654907,0,0.0982361-0.0325394C81.5897217,62.4705429,79.6923294,61.7837029,77.5661163,61.4564552z"/>
			<path class="st11" d="M86.2676163,65.6437836c4.2526169-0.0982361,16.1273651-0.4252853,19.6603928-0.1307831
				c0.3272476,0.0652924,0.5888062,0.0980377,0.752327,0.1307831c-0.0652847,0.1962662-0.1962662,0.4252777-0.359787,0.7195816
				l-8.6362152,0.0982361h-0.0980301c-0.1635284-0.0327454-0.2945023-0.0654907-0.4580307-0.0654907
				c-0.2617569-0.0327454-0.5233154-0.0652924-0.8178177-0.0652924c-0.1962662,0-0.39254,0-0.5560608,0.032547
				c-0.1962662,0-0.3597946,0.0327454-0.5235138,0.0654907c-0.1635284,0-0.2943039,0.0327454-0.4578247,0.0654907
				l-10.5008621,0.1635208h-0.0327454c-0.0652924-0.2290115-0.0980377-0.4580231-0.1635284-0.6542892
				c-0.0327454-0.0654907-0.0327454-0.1307831-0.0654907-0.1962738c0-0.0327454-0.0327454-0.0654907-0.0327454-0.0980301
				C84.5012054,65.7092743,85.2862778,65.6765289,86.2676163,65.6437836z M38.0818138,68.7515335l13.0196075,0.0327454h0.0654907
				c0.4580231-0.5890045,2.0281715-2.3226776,4.645153-2.3226776c0.3272476,0,0.6215477,0.0327454,0.91605,0.0654907
				c0.19627,0,0.3597946,0.032547,0.5233192,0.0980301c0.1635208,0,0.3597908,0.0654907,0.4907684,0.0982361
				c0.3597946,0.0980377,0.6542969,0.2288132,0.948597,0.3597946c0.2617607,0.0980301,0.4907722,0.2290115,0.7197876,0.3925323
				c0,0,0,0,0.0325432,0c0.0982323,0.0654907,0.2290115,0.1635284,0.3272476,0.2617569
				c0.0980339,0.032547,0.1635246,0.0980377,0.2290115,0.1307831c0.1307793,0.0982361,0.2615585,0.2290115,0.3597946,0.3270493
				c0.1307793,0.0982285,0.2290115,0.1962662,0.3270454,0.2945023l8.243679-0.2290115v-1.3411407l-8.996006,0.1962738
				c-0.0980339,0-0.1635246,0-0.2617607-0.0654907c0,0-1.7664146-1.1448669-3.6965561-1.1448669
				c-3.0095139,0-4.546917,1.7009277-4.5796623,1.7009277c-0.0654907,0.0982361-0.1635246,0.1309738-0.2945023,0.1309738
				c-1.0793762,0.0652924-2.1589546,0.1307831-3.2712746,0.1635284c-1.4066238,0.0654907-2.8132477,0.1307755-4.2198715,0.2290115
				c-0.6542969,0.0327454-1.2758446,0.0980377-1.9301414,0.1635208c-0.4578247,0.0327454-0.9158516,0.0654907-1.4066238,0.1307831
				h-0.2290115C39.3576584,68.4897766,38.67062,68.522522,38.0818138,68.7515335z M76.8790817,67.3774567
				c-0.0327454,0.0654831-0.0327454,0.1309738-0.0327454,0.1309738s-0.1635284,0-0.3597946-0.0654907V67.410202
				L76.8790817,67.3774567z M78.024147,67.3449097c-0.1309814,0.0980301-0.3272476,0.1962662-0.5890045,0.1962662
				c0,0,0-0.0327454,0-0.0982361c0,0-0.032547,0-0.032547-0.0327377v-0.0327454L78.024147,67.3449097z M79.627037,66.4943466
				c0.39254-0.0327454,0.8178177-0.0654907,1.1776123-0.0982361c0.3925323-0.0327454,0.752327-0.0652924,1.1123199-0.0980301
				c0.1962662-0.0327454,0.3597946-0.1962738,0.39254-0.39254c0-0.0982361-0.0654907-0.2290115-0.1309814-0.2945023
				c-0.0327454-0.0654907-0.0980377-0.0980377-0.1635284-0.1307831c0,0-0.2290115-0.0654831-0.6215439-0.1962662
				c0.4252777-0.0327454,0.9160538-0.0982361,1.5048523-0.1309814c0.0327454,0.1309814,0.0980377,0.2945099,0.1635284,0.4580307
				c0.0327454,0.0327454,0.0327454,0.0327454,0.0327454,0.0327454v0.0327454c0,0.0327454,0.0327454,0.0980301,0.0327454,0.1307755
				c0.0325394,0.0654907,0.0652847,0.1635284,0.0980301,0.2290115c0,0.0654907,0.0327454,0.0980377,0.0654907,0.1635284
				c0.0654907,0.2945023,0.1635208,0.6215515,0.2290115,0.9487991l-5.1686707,0.1962662
				c-0.0327377-0.0327454-0.0327377-0.0654907-0.0327377-0.0654907c-0.0327454-0.0327454-0.0327454-0.0327454-0.0654907-0.0654907
				c0-0.0652847-0.032547-0.0327454-0.032547-0.0327454c-0.0327454,0-0.0327454,0-0.0327454,0.0327454
				c-0.0654907,0.0327454-0.0982361,0.0982361-0.1635208,0.1309814c-0.1309814,0.0980301-0.3272476,0.1962662-0.5890045,0.1962662
				c0,0,0-0.0327454,0-0.0982361c0,0-0.032547,0-0.032547-0.0327377v-0.1307831c0-0.0327454,0-0.0654907-0.0327454-0.0654907
				c0-0.0327454-0.0327454-0.0652847-0.0327454-0.0652847c-0.0654907,0.0325394-0.1307755,0.0980301-0.1962662,0.0980301
				c-0.0982361,0-0.1635284-0.1962662-0.1635284-0.1307755c-0.0327454,0.0652847-0.0982285,0.1635208-0.0982285,0.2615585
				c-0.0327454,0.0654831-0.0327454,0.1309738-0.0327454,0.1309738s-0.1635284,0-0.3597946-0.0654907V67.410202h-0.0327454
				c-0.1635208-0.0327454-0.3597946-0.1307831-0.39254-0.3270493c0,0-0.0327377,0.0654907-0.0652847,0.1962662
				c-0.0327454,0.0327454-0.0327454,0.0654907-0.0327454,0.1307831l-6.2154999,0.1962662V66.886879
				C70.434761,66.886879,75.6032333,66.7886505,79.627037,66.4943466z"/>
			<path class="st4" d="M59.9993896,57.7926445l1.4393692,3.2712746l0.0980339,0.2617569l0.2290154,0.5560608l0.0982323,0.2617569
				l0.19627,0.4580269v0.0327454H60.980732l-0.1635208-0.4907722l-0.0982361-0.2617569l-0.1635246-0.5560608l-0.0654869-0.2617569
				l-0.9813423-3.1402969L59.9993896,57.7926445z"/>
			<path class="st5" d="M97.3455124,72.7472458c0.0153809,0.0298462,0.0153809,0.0448608,0.0153809,0.0748901
				c0,0.0448608,0.0146484,0.0899048,0.0146484,0.1199341v-0.1199341
				C97.3755417,72.7921066,97.3755417,72.777092,97.3455124,72.7472458z M97.3008347,73.3771286
				c0,0,0.0446777-0.0900879,0.0600586-0.2400513C97.330864,73.2870407,97.28582,73.362114,97.28582,73.362114
				C97.3008347,73.362114,97.3008347,73.3771286,97.3008347,73.3771286z M96.5508347,73.152092
				c0.0446777-0.0298462,0.0900879-0.0448608,0.1497803-0.0448608c0.1801758,0,0.3153076,0.0598755,0.4200439,0.119751
				c-0.1047363-0.0598755-0.2548828-0.1347656-0.4200439-0.1347656
				C96.6409225,73.0922165,96.5955124,73.1072311,96.5508347,73.152092z M96.9404831,72.5520554c0,0,0,0-0.0446777,0
				c-0.0750732,0.0450439-0.1951904,0.0750732-0.3449707,0.0750732c0,0,0-0.0900879-0.0450439-0.1799927
				c0.0300293,0.0899048,0.0300293,0.210022,0.0300293,0.210022C96.7006149,72.6571579,96.8357468,72.612114,96.9404831,72.5520554z
				 M96.4757614,72.3870773h-0.0150146v0.0150146h0.0150146V72.3870773z M96.3406296,73.362114
				c0.0150146,0.0150146,0.0150146,0.0150146,0.0150146,0.0150146s0.0750732-0.1201172,0.1801758-0.210022
				c-0.0900879,0.0450439-0.1501465,0.1349487-0.1951904,0.1799927C96.3406296,73.362114,96.3406296,73.362114,96.3406296,73.362114
				z M96.3106003,72.4621506c-0.0234375,0-0.032959-0.0097046-0.0490723-0.0157471
				c0.0168457,0.0108032,0.0245361,0.0305786,0.0490723,0.0305786c0.0150146,0,0.0150146,0,0.0300293-0.0148315
				C96.3406296,72.4621506,96.3256149,72.4621506,96.3106003,72.4621506z M96.261528,72.4464035
				c-0.0238037-0.0159302-0.0531006-0.0265503-0.0710449-0.0443115
				C96.1904831,72.402092,96.2168503,72.4291916,96.261528,72.4464035z M96.0857468,72.5820847
				c0.0150146-0.0450439,0.0450439-0.1349487,0.1047363-0.1799927c-0.0146484-0.0150146-0.0146484-0.0150146-0.0296631-0.0150146
				C96.1007614,72.4471359,96.0857468,72.5220261,96.0857468,72.5820847z M96.0256882,73.0922165
				c-0.0150146,0-0.0150146,0-0.0300293,0.0150146c0.0900879,0,0.1801758,0.0598755,0.2548828,0.1347656
				C96.205864,73.1671066,96.1157761,73.0922165,96.0256882,73.0922165z M95.6657028,72.5520554
				c0.0450439,0.0300293,0.1051025,0.0450439,0.1497803,0.0450439c-0.0446777-0.0150146-0.0897217-0.0300293-0.1347656-0.0450439
				H95.6657028z M95.3057175,72.6271286h-0.0150146c-0.0300293,0.1950073-0.0750732,0.4350586,0.0750732,0.75
				c0,0,0.0150146-0.0150146,0.0450439-0.0300293C95.2606735,73.0772018,95.2756882,72.8221359,95.3057175,72.6271286z
				 M95.6657028,72.5520554c0.0450439,0.0300293,0.1051025,0.0450439,0.1497803,0.0450439
				c-0.0446777-0.0150146-0.0897217-0.0300293-0.1347656-0.0450439H95.6657028z M97.3455124,72.7472458
				c0.0153809,0.0298462,0.0153809,0.0448608,0.0153809,0.0748901c0,0.0448608,0.0146484,0.0899048,0.0146484,0.1199341v-0.1199341
				C97.3755417,72.7921066,97.3755417,72.777092,97.3455124,72.7472458z M96.5508347,72.6271286
				c0,0,0-0.0900879-0.0450439-0.1799927c0.0300293,0.0899048,0.0300293,0.210022,0.0300293,0.210022
				c0.1647949,0,0.2999268-0.0450439,0.4046631-0.1051025c0,0,0,0-0.0446777,0
				C96.8207321,72.5970993,96.7006149,72.6271286,96.5508347,72.6271286z M96.4607468,72.3870773v0.0150146h0.0150146v-0.0150146
				H96.4607468z M96.261528,72.4464035c-0.0238037-0.0159302-0.0531006-0.0265503-0.0710449-0.0443115
				C96.1904831,72.402092,96.2168503,72.4291916,96.261528,72.4464035z M96.261528,72.4464035
				c0.0168457,0.0108032,0.0245361,0.0305786,0.0490723,0.0305786c0.0150146,0,0.0150146,0,0.0300293-0.0148315
				c0,0-0.0150146,0-0.0300293,0C96.2871628,72.4621506,96.2776413,72.452446,96.261528,72.4464035z M96.0857468,72.5820847
				c0.0150146-0.0450439,0.0450439-0.1349487,0.1047363-0.1799927c-0.0146484-0.0150146-0.0146484-0.0150146-0.0296631-0.0150146
				C96.1007614,72.4471359,96.0857468,72.5220261,96.0857468,72.5820847z M96.3106003,69.8371506
				c-1.6047363,0-2.9399414,1.3049927-2.9399414,2.9100952c0,1.6047363,1.3352051,2.9099121,2.9399414,2.9099121
				c1.5750732,0,2.9099121-1.3051758,2.9099121-2.9099121C99.2205124,71.1421432,97.8856735,69.8371506,96.3106003,69.8371506z
				 M97.2557907,70.5120773l-0.9752197,1.6049194l-0.9448242-1.6049194H97.2557907z M95.7257614,75.1470261l-1.5300293-1.1099854
				l1.7248535-0.7800293L95.7257614,75.1470261z M96.53582,73.1671066
				c-0.0900879,0.0450439-0.1501465,0.1349487-0.1951904,0.1799927c-0.0150146-0.0150146-0.0300293-0.0450439-0.0600586-0.0750732
				l-0.0300293-0.0300293c-0.0446777-0.0748901-0.1347656-0.1497803-0.2248535-0.1497803
				c-0.0150146,0-0.0150146,0-0.0300293,0.0150146c-0.1347656,0-0.3299561,0.1049194-0.4650879,0.1798096
				c-0.0146484,0.0150146-0.0300293,0.0300293-0.0446777,0.0300293c-0.0153809,0-0.0153809,0-0.0153809,0
				c-0.0146484,0.0150146-0.0300293,0.0150146-0.0300293,0.0150146l-0.0146484,0.0150146c-0.0150146,0-0.0150146,0-0.0150146,0
				c-0.1501465-0.2698975-0.1351318-0.5249634-0.1051025-0.7199707h-0.0150146L93.8357468,72.94207l0.5998535-1.7698975
				l1.2451172,1.3798828h-0.0150146c0.0450439,0.0300293,0.1051025,0.0450439,0.1497803,0.0450439
				c0.0153809,0,0.0454102,0,0.0754395,0.0150146h0.0596924c0.0150146,0.0150146,0.0450439,0.0150146,0.0600586,0.0150146
				c0.0300293,0,0.0600586,0,0.0600586,0s0,0,0-0.0150146s0-0.0150146,0.0150146-0.0300293
				c0.0150146-0.0450439,0.0450439-0.1349487,0.1047363-0.1799927c0,0,0.0263672,0.0270996,0.0710449,0.0443115
				c0.0168457,0.0108032,0.0245361,0.0305786,0.0490723,0.0305786c0.0150146,0,0.0150146,0,0.0300293-0.0148315
				c0.0300293,0,0.0450439-0.0150146,0.0600586-0.0150146c0.0150146-0.0150146,0.0150146-0.0150146,0.0150146-0.0150146
				c0.0150146-0.0150146,0.0300293-0.0300293,0.0450439-0.0300293h0.0150146
				c0.0150146,0.0150146,0.0300293,0.0150146,0.0150146,0.0300293l0.0150146,0.0150146
				c0.0300293,0.0899048,0.0300293,0.210022,0.0300293,0.210022c0.1647949,0,0.2999268-0.0450439,0.4046631-0.1051025
				c0,0,0,0-0.0446777,0l1.2597656-1.3798828l0.5852051,1.7698975l-1.4099121-0.3149414
				c0.0146484,0.0300293,0.0146484,0.0750732,0.0146484,0.1201172c0.0153809,0.0298462,0.0153809,0.0448608,0.0153809,0.0748901
				c0,0.0448608,0.0146484,0.0899048,0.0146484,0.1199341c0,0.0750732-0.0146484,0.1501465-0.0146484,0.1950073
				C97.330864,73.2870407,97.28582,73.362114,97.28582,73.362114s-0.0600586-0.0750732-0.1651611-0.1351318
				c-0.1047363-0.0598755-0.2548828-0.1347656-0.4200439-0.1347656c-0.0596924,0-0.1051025,0.0150146-0.1497803,0.0598755
				C96.53582,73.1671066,96.53582,73.1671066,96.53582,73.1671066z M96.8657761,75.1470261l-0.1951904-1.8900146
				l1.7252197,0.7800293L96.8657761,75.1470261z M97.3455124,72.7472458
				c0.0153809,0.0298462,0.0153809,0.0448608,0.0153809,0.0748901c0,0.0448608,0.0146484,0.0899048,0.0146484,0.1199341v-0.1199341
				C97.3755417,72.7921066,97.3755417,72.777092,97.3455124,72.7472458z M97.3008347,73.3771286
				c0,0,0.0446777-0.0900879,0.0600586-0.2400513C97.330864,73.2870407,97.28582,73.362114,97.28582,73.362114
				C97.3008347,73.362114,97.3008347,73.3771286,97.3008347,73.3771286z M96.5508347,73.152092
				c0.0446777-0.0298462,0.0900879-0.0448608,0.1497803-0.0448608c0.1801758,0,0.3153076,0.0598755,0.4200439,0.119751
				c-0.1047363-0.0598755-0.2548828-0.1347656-0.4200439-0.1347656
				C96.6409225,73.0922165,96.5955124,73.1072311,96.5508347,73.152092z M96.9404831,72.5520554c0,0,0,0-0.0446777,0
				c-0.0750732,0.0450439-0.1951904,0.0750732-0.3449707,0.0750732c0,0,0-0.0900879-0.0450439-0.1799927
				c0.0300293,0.0899048,0.0300293,0.210022,0.0300293,0.210022C96.7006149,72.6571579,96.8357468,72.612114,96.9404831,72.5520554z
				 M96.4757614,72.3870773h-0.0150146v0.0150146h0.0150146V72.3870773z M96.3406296,73.362114
				c0.0150146,0.0150146,0.0150146,0.0150146,0.0150146,0.0150146s0.0750732-0.1201172,0.1801758-0.210022
				c-0.0900879,0.0450439-0.1501465,0.1349487-0.1951904,0.1799927C96.3406296,73.362114,96.3406296,73.362114,96.3406296,73.362114
				z M96.261528,72.4464035c-0.0238037-0.0159302-0.0531006-0.0265503-0.0710449-0.0443115
				C96.1904831,72.402092,96.2168503,72.4291916,96.261528,72.4464035z M96.3106003,72.4621506
				c-0.0234375,0-0.032959-0.0097046-0.0490723-0.0157471c0.0168457,0.0108032,0.0245361,0.0305786,0.0490723,0.0305786
				c0.0150146,0,0.0150146,0,0.0300293-0.0148315C96.3406296,72.4621506,96.3256149,72.4621506,96.3106003,72.4621506z
				 M96.0857468,72.5820847c0.0150146-0.0450439,0.0450439-0.1349487,0.1047363-0.1799927
				c-0.0146484-0.0150146-0.0146484-0.0150146-0.0296631-0.0150146
				C96.1007614,72.4471359,96.0857468,72.5220261,96.0857468,72.5820847z M96.0256882,73.0922165
				c-0.0150146,0-0.0150146,0-0.0300293,0.0150146c0.0900879,0,0.1801758,0.0598755,0.2548828,0.1347656
				C96.205864,73.1671066,96.1157761,73.0922165,96.0256882,73.0922165z M95.6657028,72.5520554
				c0.0450439,0.0300293,0.1051025,0.0450439,0.1497803,0.0450439c-0.0446777-0.0150146-0.0897217-0.0300293-0.1347656-0.0450439
				H95.6657028z M95.3057175,72.6271286h-0.0150146c-0.0300293,0.1950073-0.0750732,0.4350586,0.0750732,0.75
				c0,0,0.0150146-0.0150146,0.0450439-0.0300293C95.2606735,73.0772018,95.2756882,72.8221359,95.3057175,72.6271286z
				 M97.3455124,72.7472458c0.0153809,0.0298462,0.0153809,0.0448608,0.0153809,0.0748901
				c0,0.0448608,0.0146484,0.0899048,0.0146484,0.1199341v-0.1199341
				C97.3755417,72.7921066,97.3755417,72.777092,97.3455124,72.7472458z M97.3008347,73.3771286
				c0,0,0.0446777-0.0900879,0.0600586-0.2400513C97.330864,73.2870407,97.28582,73.362114,97.28582,73.362114
				C97.3008347,73.362114,97.3008347,73.3771286,97.3008347,73.3771286z M96.5508347,73.152092
				c0.0446777-0.0298462,0.0900879-0.0448608,0.1497803-0.0448608c0.1801758,0,0.3153076,0.0598755,0.4200439,0.119751
				c-0.1047363-0.0598755-0.2548828-0.1347656-0.4200439-0.1347656
				C96.6409225,73.0922165,96.5955124,73.1072311,96.5508347,73.152092z M96.9404831,72.5520554c0,0,0,0-0.0446777,0
				c-0.0750732,0.0450439-0.1951904,0.0750732-0.3449707,0.0750732c0,0,0-0.0900879-0.0450439-0.1799927
				c0.0300293,0.0899048,0.0300293,0.210022,0.0300293,0.210022C96.7006149,72.6571579,96.8357468,72.612114,96.9404831,72.5520554z
				 M96.4757614,72.3870773h-0.0150146v0.0150146h0.0150146V72.3870773z M96.3406296,73.362114
				c0.0150146,0.0150146,0.0150146,0.0150146,0.0150146,0.0150146s0.0750732-0.1201172,0.1801758-0.210022
				c-0.0900879,0.0450439-0.1501465,0.1349487-0.1951904,0.1799927C96.3406296,73.362114,96.3406296,73.362114,96.3406296,73.362114
				z M96.3106003,72.4621506c-0.0234375,0-0.032959-0.0097046-0.0490723-0.0157471
				c0.0168457,0.0108032,0.0245361,0.0305786,0.0490723,0.0305786c0.0150146,0,0.0150146,0,0.0300293-0.0148315
				C96.3406296,72.4621506,96.3256149,72.4621506,96.3106003,72.4621506z M96.261528,72.4464035
				c-0.0238037-0.0159302-0.0531006-0.0265503-0.0710449-0.0443115
				C96.1904831,72.402092,96.2168503,72.4291916,96.261528,72.4464035z M96.0857468,72.5820847
				c0.0150146-0.0450439,0.0450439-0.1349487,0.1047363-0.1799927c-0.0146484-0.0150146-0.0146484-0.0150146-0.0296631-0.0150146
				C96.1007614,72.4471359,96.0857468,72.5220261,96.0857468,72.5820847z M96.0256882,73.0922165
				c-0.0150146,0-0.0150146,0-0.0300293,0.0150146c0.0900879,0,0.1801758,0.0598755,0.2548828,0.1347656
				C96.205864,73.1671066,96.1157761,73.0922165,96.0256882,73.0922165z M95.6657028,72.5520554
				c0.0450439,0.0300293,0.1051025,0.0450439,0.1497803,0.0450439c-0.0446777-0.0150146-0.0897217-0.0300293-0.1347656-0.0450439
				H95.6657028z M95.3057175,72.6271286h-0.0150146c-0.0300293,0.1950073-0.0750732,0.4350586,0.0750732,0.75
				c0,0,0.0150146-0.0150146,0.0450439-0.0300293C95.2606735,73.0772018,95.2756882,72.8221359,95.3057175,72.6271286z"/>
			<path class="st5" d="M58.2943916,71.0520554c-0.0450439-0.1049194-0.1651611-0.2248535-0.2849121-0.3449707
				c-0.1051025-0.1199341-0.1951904-0.1950073-0.2698975-0.2398682c-0.0300293-0.0300293-0.0750732-0.0750732-0.1201172-0.1201172
				c-0.4650879-0.3149414-1.0198975-0.5099487-1.6051025-0.5099487c-0.1948242,0-0.4346924,0.0448608-0.6298828,0.0448608
				c-0.1951904,0.0750732-0.3449707,0.1201172-0.5101318,0.1951904c-0.7049561,0.2698975-1.2597656,0.8248901-1.574707,1.5300293
				c-0.0750732,0.2398682-0.1501465,0.4799194-0.1951904,0.7049561c-0.0300293,0.1647949-0.0300293,0.2849121-0.0300293,0.4350586
				c0,0.3898315,0.0750732,0.7798462,0.2252197,1.1398315c0.4346924,1.0200806,1.5,1.7700806,2.7147217,1.7700806
				c0.5852051,0,1.1400146-0.1950073,1.6051025-0.5101318c0.0900879-0.0450439,0.1201172-0.0899048,0.1647949-0.1647949
				c0.0750732,0,0.1501465-0.0750732,0.2252197-0.1951904c0.1651611-0.1199341,0.2849121-0.2698975,0.3599854-0.4350586
				c0.3149414-0.4198608,0.5097656-1.0198975,0.5097656-1.6047363
				C58.8792305,72.1169968,58.6844063,71.5321579,58.2943916,71.0520554z M56.9145088,70.4371872l-0.9451904,1.6049194
				l-0.9298096-1.6049194H56.9145088z M55.4295235,75.0571213l-1.5300293-1.0949707l1.7248535-0.7800293L55.4295235,75.0571213z
				 M56.5244942,75.0571213l-0.1948242-1.875l1.7248535,0.7800293L56.5244942,75.0571213z M57.0342598,72.5970993v0.1051025
				c0,0.3599854-0.074707,0.5548096-0.074707,0.5548096s-0.2402344-0.2698975-0.5852051-0.2698975
				c-0.2098389,0-0.3599854,0.2698975-0.3599854,0.2698975s-0.1497803-0.2698975-0.3599854-0.2698975
				c-0.1948242,0-0.6148682,0.2698975-0.6148682,0.2698975c-0.1201172-0.2698975-0.1201172-0.5097656-0.0900879-0.6599121
				l-1.4099121,0.2698975l0.5848389-1.7548828l1.1850586,1.3200073c0.0750732,0.0448608,0.1501465,0.0448608,0.2402344,0.0448608
				c0.074707,0.0300293,0.1497803,0.0300293,0.1497803,0.0300293s0.0450439-0.1497803,0.1201172-0.2248535
				c0-0.0450439,0.0750732,0.0750732,0.1497803,0.0750732c0.0450439,0,0.0900879-0.0450439,0.1651611-0.0750732
				c0.0750732,0.0750732,0.0750732,0.2248535,0.0750732,0.2248535c0.1948242,0,0.3149414-0.0300293,0.4350586-0.0748901
				l0.0446777-0.0450439l1.125-1.289978l0.6002197,1.7698975L57.0342598,72.5970993z"/>
			<path class="st12" d="M105.5707932,68.847084c-0.0375366,0.0375366-0.0375366,0.062561-0.062561,0.062561l-1.0501099-0.0250244
				c0.1626587-0.1998901,0.3250122-0.4000854,0.4876709-0.5874634c0.1373291-0.1625061,0.2624512-0.3250122,0.3875732-0.5000305
				c0.3622437-0.4875183,0.7247925-1.0124207,0.9872437-1.4375305l-8.6373901,0.1000977
				c0.1623535,0.0375366,0.3250122,0.0624084,0.4626465,0.1373291c0.1623535,0.0250244,0.324707,0.062561,0.4873657,0.1251221
				c0.0375366,0.0375366,0.062561,0.0375366,0.062561,0.0375366c0.324707,0.1249695,0.6622314,0.2874756,0.9249878,0.4873657
				c0.2874756,0.1251221,0.5123901,0.3250122,0.7498169,0.5250549c0.3875732,0.3250122,0.687561,0.6500244,0.9500122,0.9750366
				c0.062561,0.0999451,0.1251221,0.1625061,0.1876831,0.2375793c0.2624512,0.3874207,0.4623413,0.7124329,0.562439,0.9500122
				l4.5498657,0.1623535C106.5205002,69.5721817,106.0581589,69.1470718,105.5707932,68.847084z M84.2707443,66.659584h-0.0250244
				c0.062561,0.2250671,0.1251221,0.4875183,0.1623535,0.7125854c0.0875854,0.5999756,0.1626587,1.6125488,0.1876831,2.1624756
				l6.1248779,0.1625061c0.1626587-0.3250122,0.4501343-0.8500671,1.0125732-1.4375305
				c0.062561-0.062561,0.1248169-0.1625061,0.2249146-0.2249146c0.1000977-0.1376343,0.2252197-0.2375793,0.3625488-0.3250122
				c0.1251221-0.1000977,0.2624512-0.2000427,0.3875732-0.2999878c0.3250122-0.2250671,0.6625366-0.4251099,1.0873413-0.587616
				c0.2877808-0.1374817,0.6124878-0.2250671,0.9750366-0.3248596L84.2707443,66.659584z M60.683094,68.4845352
				c0.1626587,0.1626587,0.3250122,0.3375244,0.4000854,0.4251099l7.8500404,0.1998901v-0.8499146L60.683094,68.4845352z
				 M83.5831833,67.5096512c0-0.1374817-0.0250244-0.2250671-0.062561-0.3625488l-5.1748657,0.2000427
				c0.0375366,0.0999451,0.0747681,0.2624512,0.0747681,0.4873657c0.0250244,0.587616-0.0997925,0.9126282-0.0997925,0.9126282
				s-0.2624512-0.4499817-0.687561-0.4499817c-0.2624512,0-0.4876709,0.4499817-0.4876709,0.4499817
				s-0.1373291-0.4499817-0.3622437-0.4499817s-0.7501221,0.4499817-0.7501221,0.4499817
				c-0.1998901-0.5500793-0.1376343-1.0374451-0.0747681-1.3374329l-6.2127686,0.1998901v1.5374756l14.0374756,0.3625488
				C83.745842,68.9471817,83.6832809,68.0347061,83.5831833,67.5096512z M83.5831833,67.5096512
				c0-0.1374817-0.0250244-0.2250671-0.062561-0.3625488l-5.1748657,0.2000427
				c0.0375366,0.0999451,0.0747681,0.2624512,0.0747681,0.4873657c0.0250244,0.587616-0.0997925,0.9126282-0.0997925,0.9126282
				s-0.2624512-0.4499817-0.687561-0.4499817c-0.2624512,0-0.4876709,0.4499817-0.4876709,0.4499817
				s-0.1373291-0.4499817-0.3622437-0.4499817s-0.7501221,0.4499817-0.7501221,0.4499817
				c-0.1998901-0.5500793-0.1376343-1.0374451-0.0747681-1.3374329l-6.2127686,0.1998901v1.5374756l14.0374756,0.3625488
				C83.745842,68.9471817,83.6832809,68.0347061,83.5831833,67.5096512z M68.9332199,69.1095352v-0.8499146l-8.2501259,0.2249146
				c0.1626587,0.1626587,0.3250122,0.3375244,0.4000854,0.4251099L68.9332199,69.1095352z M101.5082932,70.7095718
				l-0.1000977-0.2624512c0-0.0250244-1.3000488-3.3000183-5.1000977-3.3000183
				c-3.7872314,0-4.8748779,2.9750061-4.937439,3.1124878l-0.0997925,0.2626038l-30.4251137-0.7876587l-0.1876831-0.037384
				l-0.1373291-0.1625061c-0.062561-0.1000977-1.5625-2.250061-4.7125244-2.250061
				c-2.6126099,0-4.0875244,2.124939-4.1125488,2.124939l-0.1373291,0.1876831l-14.2001343-0.0250244
				c0.0375366,0.1873779,0.1998901,0.3250122,0.4251099,0.4873657l13.6499023,1.5374756
				c0.4498291-2.0874023,2.3248291-3.6624146,4.5498657-3.6624146c2.2750854,0,4.1625977,1.625061,4.5751953,3.7625122h31.1874428
				c0.4125977-2.1374512,2.3126221-3.7625122,4.5748901-3.7625122c2.2750854,0,4.1625977,1.625061,4.5748901,3.7625122h5.0378418
				c0.2249146-0.2249146,0.4498291-0.4875183,0.5871582-0.7875061L101.5082932,70.7095718z M60.683094,68.4845352
				c0.1626587,0.1626587,0.3250122,0.3375244,0.4000854,0.4251099l7.8500404,0.1998901v-0.8499146L60.683094,68.4845352z
				 M83.5831833,67.5096512c0-0.1374817-0.0250244-0.2250671-0.062561-0.3625488l-5.1748657,0.2000427
				c0.0375366,0.0999451,0.0747681,0.2624512,0.0747681,0.4873657c0.0250244,0.587616-0.0997925,0.9126282-0.0997925,0.9126282
				s-0.2624512-0.4499817-0.687561-0.4499817c-0.2624512,0-0.4876709,0.4499817-0.4876709,0.4499817
				s-0.1373291-0.4499817-0.3622437-0.4499817s-0.7501221,0.4499817-0.7501221,0.4499817
				c-0.1998901-0.5500793-0.1376343-1.0374451-0.0747681-1.3374329l-6.2127686,0.1998901v1.5374756l14.0374756,0.3625488
				C83.745842,68.9471817,83.6832809,68.0347061,83.5831833,67.5096512z M79.0333176,65.5472183
				c-0.0250244,0-0.0250244,0-0.062561,0c-0.1626587-0.0375366-0.3250122-0.1000977-0.4876709-0.1376343
				c-0.0375366,0-0.062561-0.0250244-0.0997925-0.0250244c-0.0375366,0-0.062561-0.0375366-0.1000977-0.0375366h-0.0250244
				c-0.2374268-0.0624084-0.4998779-0.0997925-0.7623291-0.1623535c-0.0250244,0-0.062561-0.0375366-0.0875854-0.0375366
				c-0.2627563-0.0250244-0.5252075-0.0875854-0.7876587-0.1625061c-1.7373657-0.3250122-3.7374878-0.6874084-5.7623291-0.9124756
				c-0.3625488-0.0250244-0.7125854-0.062561-1.0751343-0.0999413v2.0999107
				c0.8126831-0.0375366,5.8248901-0.1374817,9.750061-0.4000854C79.370842,65.6470108,79.1956711,65.5720901,79.0333176,65.5472183
				z M67.2956467,63.8470879c-5.824894-0.0999451-23.7875404-0.0375366-28.9248695,0h-0.5874634l0.9246826,1.8249474
				l0.9503174,1.9625854l0.1873779-0.0250244h0.3625488c0.4623413-0.062561,0.9500122-0.0999451,1.4123535-0.1374817
				c0.6500244-0.0624084,1.2750244-0.1249695,1.9250488-0.1625061c1.4001465-0.1000977,2.8500366-0.1625061,4.2498779-0.2249146
				c1.0501099-0.0375366,2.0626831-0.1000977,3.112793-0.1376343c0.0622559-0.0624084,0.1623535-0.1623535,0.324707-0.2874756
				c0.1000977-0.062561,0.2001953-0.1374817,0.3253174-0.2249146c0.1998901-0.1000977,0.4248047-0.2375793,0.6500244-0.4000854
				c0.2624512-0.1249695,0.5249023-0.2624512,0.8499146-0.3875732h0.0375366
				c0.3997803-0.1623535,0.8248901-0.2999878,1.2750244-0.3997803c0.1998901-0.0250244,0.3622437-0.062561,0.562439-0.1000977
				c0.2874756-0.0250244,0.6124878-0.062561,0.9750366-0.062561c0.0372314,0,0.0372314,0,0.0622559,0
				c0.9875488,0,1.9000244,0.2624512,2.6251221,0.5250549c0.687561,0.2626038,1.2124634,0.5625916,1.4373779,0.6874084
				l8.9251747-0.1998901v-2.1874962C68.4083176,63.8721123,67.8455734,63.8470879,67.2956467,63.8470879z"/>
			<path class="st13" d="M105.7588425,64.6861038c0.39254,0.0327454,0.6868439,0.0982361,0.9158554,0.1309814
				c0.1307831-0.2290192,0.2617569-0.4907761,0.3597946-0.8178215c0.0654907-0.2617569,0.0982285-0.5560608,0.0982285-0.850563
				c0-0.2290115-0.1962662-0.3925362-0.3925323-0.3925362h-0.3597946c0,0.6215515-0.0982361,0.8178177-0.0982361,0.8178177
				c-0.0327377,0.1635246-0.0654831,0.3270493-0.1307755,0.4580231
				C106.020401,64.3917999,105.8568802,64.6208115,105.7588425,64.6861038z M76.0556183,67.0742722
				c0,0-0.3597946,0.7195816-0.0327454,1.6683807c0,0,0.5233154-0.4580307,0.752327-0.4580307
				c0.2290192,0,0.359993,0.4580307,0.359993,0.4580307s0.2288132-0.4580307,0.4905701-0.4580307
				c0.4252853,0,0.6870422,0.4580307,0.6870422,0.4580307s0.1307831-0.3272476,0.0980377-0.9160538
				s-0.1962738-0.6542969-0.1962738-0.6542969c-0.0652847,0.0654907-0.3270416,0.359993-0.7850723,0.359993
				c0,0,0-0.2617569-0.0980301-0.3927383c-0.0654907,0.0327454-0.1309814,0.0982361-0.1962738,0.0982361
				c-0.0982285,0-0.1637192-0.1962662-0.1637192-0.1307755c-0.0980377,0.1307755-0.1307831,0.3925323-0.1307831,0.3925323
				S76.153656,67.4668045,76.0556183,67.0742722z M36.6693497,63.27948c0,0.19627,0.163723,0.4252815,0.2290115,0.5562592
				l1.8973961,3.8928223c0.0654869,0,0.1635246-0.0327377,0.2290115-0.0327377l0.6215515-0.0654907l-0.948597-1.9626846
				l-0.9160538-1.8319092h0.5888062c5.1359253-0.0327415,23.0951881-0.0982323,28.9181519,0
				c0.5560608,0,1.1121216,0.032547,1.6683807,0.0652924c0.2615585,0.0327454,0.5560608,0.0654869,0.8178177,0.0654869
				l1.0793762,0.0982323c2.0281754,0.2288132,4.0238037,0.5888062,5.7574768,0.9158554
				c0.2617569,0.0654907,0.5235138,0.1307831,0.7850723,0.1635208c0.0327454,0,0.0654907,0.0327454,0.0982361,0.0327454
				c0.2617569,0.0654907,0.5233154,0.0982361,0.752327,0.1635284h0.0327454c0.0327454,0,0.0654907,0.0327454,0.0980377,0.0327454
				c0.0327454,0,0.0654907,0.0327454,0.0982361,0.0327454c0.1635208,0.0327454,0.3270416,0.0980301,0.4907684,0.1307755
				c0.032547,0,0.032547,0,0.0652924,0c0.1635208,0.0327454,0.32724,0.0982361,0.4907684,0.1309814l2.6497192-0.0654907
				c-0.0327377-0.0654907-0.0982285-0.0982361-0.1635208-0.1307831c0,0-0.2290115-0.0654831-0.6215515-0.1962662h-0.0327454
				c-0.6215439-0.1309814-1.6356354-0.3925323-2.8787308-0.6870422c-0.2945099-0.0654831-0.5888062-0.1307755-0.9160538-0.2290115
				c-0.2615585-0.0327454-0.5560608-0.0980301-0.8178177-0.1635208c-0.9158554-0.19627-1.8972015-0.3597946-2.9440308-0.5235176
				c-0.1635208-0.0325432-0.3597946-0.0652885-0.5560608-0.0980339c-0.9160538-0.1307793-1.8646469-0.2617569-2.845993-0.3597908
				c-0.2945023-0.0327454-0.5562592-0.0654907-0.8178177-0.0654907c-0.7852707-0.0654907-1.5376053-0.1307793-2.2899323-0.1307793
				h-3.5002861c-0.2290154-0.0327454-0.39254-0.0327454-0.7197838,0c-0.032547,0-0.032547,0-0.0652924,0
				c-0.163723-0.0327454-0.3272476-0.0327454-0.5235138,0c0,0-0.0327454,0-0.0652924,0
				c-0.0654869-0.0327454-0.0982323-0.0327454-0.163723,0c-0.3925362-0.0327454-0.7850723-0.0327454-1.1776085-0.0327454h-0.8178215
				c-7.0658646-0.0327415-16.4218597,0-20.8052559,0.0327454h-2.4861984
				C36.702095,63.0179214,36.6368027,63.1159554,36.6693497,63.27948z M76.0228729,68.7426529
				c0,0,0.5233154-0.4580307,0.752327-0.4580307c0.2290192,0,0.359993,0.4580307,0.359993,0.4580307
				s0.2288132-0.4580307,0.4905701-0.4580307c0.4252853,0,0.6870422,0.4580307,0.6870422,0.4580307
				s0.1307831-0.3272476,0.0980377-0.9160538s-0.1962738-0.6542969-0.1962738-0.6542969
				c-0.0652847,0.0654907-0.3270416,0.359993-0.7850723,0.359993c0,0,0-0.2617569-0.0980301-0.3927383
				c-0.0654907,0.0327454-0.1309814,0.0982361-0.1962738,0.0982361c-0.0982285,0-0.1637192-0.1962662-0.1637192-0.1307755
				c-0.0980377,0.1307755-0.1307831,0.3925323-0.1307831,0.3925323s-0.6870346-0.0327454-0.7850723-0.4252777
				C76.0556183,67.0742722,75.6958237,67.7938538,76.0228729,68.7426529z M37.2908974,69.4622345
				c0,0.0327454,0,0.0654907,0.0327454,0.0982361h0.0327454l14.1974182,0.032547l0.1307793-0.1962738
				c0.0327454,0,1.5048561-2.1262054,4.1218376-2.1262054c3.1404953,0,4.645153,2.1589508,4.7106438,2.2571869l0.1307793,0.1635208
				l0.1962662,0.0327454l30.4228096,0.78508l0.0982361-0.2617645c0.0654907-0.1307755,1.1448669-3.1077499,4.9396591-3.1077499
				c3.7945862,0,5.1031799,3.2712784,5.1031799,3.3040237l0.0980301,0.2617569l5.0051498,0.1962662
				c0.0980301-0.1962662,0.1307755-0.3925323,0.1307755-0.5888062c0-0.0654907,0-0.1635208-0.0327454-0.2290115
				l-4.5469208-0.1635208c-0.0982285-0.2290192-0.2945023-0.5560608-0.5562592-0.9486008
				c-0.0652847-0.0654907-0.1307755-0.1309814-0.1962662-0.2290115c-0.2615585-0.3272476-0.5560608-0.6542969-0.9486008-0.9815445
				c-0.2290115-0.1962662-0.4580231-0.359787-0.752327-0.5233154c-0.2617569-0.1962662-0.5888062-0.3597946-0.9160538-0.4907684
				c0,0-0.0327454,0-0.0654907-0.032547c-0.1635208-0.0654907-0.3270416-0.0982361-0.4905701-0.1309814
				c-0.1962662-0.0652847-0.359787-0.0980301-0.5560608-0.1307755c-0.1637192-0.0327454-0.2945023-0.0654907-0.4580231-0.0654907
				c-0.2617569-0.0327454-0.5235138-0.0654907-0.8178177-0.0654907c-0.1962738,0-0.39254,0-0.5560608,0.0327454
				c-0.1964722,0-0.359993,0.0327454-0.5235214,0.0654907c-0.1635208,0-0.2942963,0.0327454-0.4580231,0.0654907
				c-0.3597946,0.0980301-0.6868362,0.1962662-0.9813385,0.3270493c-0.4252853,0.1635208-0.7523346,0.359787-1.0795822,0.5888062
				c-0.1307755,0.0982285-0.2615585,0.1962662-0.3925323,0.2945023c-0.1307831,0.0980301-0.2615585,0.1962662-0.3597946,0.3270416
				c-0.0980377,0.0654907-0.1635208,0.1635284-0.2290115,0.2290192c-0.5560608,0.5887985-0.850563,1.1123199-1.0140915,1.4393616
				l-6.1172638-0.1635208l-0.8178177-0.0327454l-14.033699-0.3597946l-0.8178177-0.0327377l-7.8511353-0.1962738
				c-0.0654907-0.0982285-0.2290154-0.2617569-0.3925362-0.4252777c-0.0980377-0.0982361-0.19627-0.1962738-0.3270493-0.2945023
				c-0.0982361-0.0980377-0.2290115-0.2290115-0.359993-0.3270493c-0.0652885-0.0327454-0.1307793-0.0982361-0.2288132-0.1307831
				c-0.0982323-0.0982285-0.2290115-0.1962662-0.3272476-0.2617569c-0.0327454,0-0.0327454,0-0.0327454,0
				c-0.2290115-0.1635208-0.4578247-0.2945023-0.7195816-0.3925323c-0.2945023-0.1309814-0.5888062-0.2617569-0.9487991-0.3597946
				c-0.1307793-0.0327454-0.3270454-0.0982361-0.4905701-0.0982361c-0.1635246-0.0654907-0.3272476-0.0980301-0.5235176-0.0980301
				c-0.2943001-0.0327454-0.5888062-0.0654907-0.9158516-0.0654907c-2.6169815,0-4.1873283,1.7336731-4.645153,2.3224792h-0.0654907
				l-13.0196075-0.032547c-0.1309776,0.032547-0.2617569,0.0980301-0.3925362,0.1635208
				C37.2583542,69.1679306,37.2908974,69.3967438,37.2908974,69.4622345z M104.4502563,68.8734283l1.0468292,0.0327454
				c0.0327454,0,0.0327454-0.0327454,0.0654907-0.0654907c0.1635208-0.1962662,0.3270493-0.4252777,0.4905701-0.6542892
				c0.2617569-0.3597946,0.5560608-0.7523346,0.7850723-1.1448669c0.39254-0.5888062,0.6870422-1.2103577,0.7197876-1.60289
				c0-0.1309814-0.0654907-0.2945099-0.1635208-0.3597946c-0.0654907-0.0654907-0.1637268-0.1309814-0.359993-0.1637268
				l-0.3597946,0.7197876c-0.0654907,0.1962662-0.1962662,0.4252777-0.3597946,0.7195816
				c-0.2617569,0.4252853-0.6215439,0.9487991-0.9813385,1.4393692c-0.1309814,0.1635284-0.2617569,0.3272476-0.39254,0.4907684
				C104.7773056,68.480896,104.6137772,68.6771622,104.4502563,68.8734283z M76.0228729,68.7426529
				c0,0,0.5233154-0.4580307,0.752327-0.4580307c0.2290192,0,0.359993,0.4580307,0.359993,0.4580307
				s0.2288132-0.4580307,0.4905701-0.4580307c0.4252853,0,0.6870422,0.4580307,0.6870422,0.4580307
				s0.1307831-0.3272476,0.0980377-0.9160538s-0.1962738-0.6542969-0.1962738-0.6542969
				c-0.0652847,0.0654907-0.3270416,0.359993-0.7850723,0.359993c0,0,0-0.2617569-0.0980301-0.3927383
				c-0.0654907,0.0327454-0.1309814,0.0982361-0.1962738,0.0982361c-0.0982285,0-0.1637192-0.1962662-0.1637192-0.1307755
				c-0.0980377,0.1307755-0.1307831,0.3925323-0.1307831,0.3925323s-0.6870346-0.0327454-0.7850723-0.4252777
				C76.0556183,67.0742722,75.6958237,67.7938538,76.0228729,68.7426529z M71.7375107,57.0969238
				c0.1635284-0.0982361,0.3270493-0.19627,0.5233154-0.2290154c0.1637268-0.0327415,0.3272476-0.0654869,0.5235214-0.0327415
				c0.0654831,0,0.5888062,0.0654869,0.5888062,0.0980339c0,0,0.0654831-0.2943039-0.4252853-0.3270493
				c-0.5233154-0.0327454-0.9486008,0.0654907-1.1123199,0.1635246
				C71.67202,56.8679085,71.7375107,57.0969238,71.7375107,57.0969238z M74.8081589,57.0972099h-1.0125732
				c-0.1873779,0-0.3622437,0.1248169-0.3872681,0.3250122v0.0997925l1.7999268-0.037384v-0.0624084
				C75.1707077,57.2220268,75.008049,57.0972099,74.8081589,57.0972099z M59.8957405,61.8346062l-0.1626587-0.5125427
				c-6.8997192-0.0375366-15.5123901,0-19.6624756,0.0250244h-2.4874878c-0.2624512,0-0.3250122,0.1376343-0.3250122,0.2624512
				c0.0375366,0.2001953,0.1998901,0.4251099,0.2627563,0.5625916l0.4248047,0.8500671h0.8499146l-0.3872681-0.8500671h0.5874634
				c3.5998535-0.0375366,13.4124756-0.0749207,21.000061-0.0375366L59.8957405,61.8346062z M64.7083664,61.3470879
				c-0.3253174-0.0250244-0.6628418-0.0250244-1.0876503,0c-0.1873779-0.0250244-0.3500366-0.0250244-0.5874634,0
				c-0.062561-0.0250244-0.1000977-0.0250244-0.1626587,0c-0.1248169,0-0.2874756-0.0250244-0.4248047,0l0.2249146,0.5250549
				l0.0997925,0.2624512h1.1752319c0.1376381-0.0624084,0.262455-0.1625061,0.4000893-0.2250671h0.0372314
				c0.3253174-0.1998901,0.6750488-0.3999329,0.9750366-0.562439H64.7083664z M64.7083664,61.3470879
				c-0.3253174-0.0250244-0.6628418-0.0250244-1.0876503,0c-0.1873779-0.0250244-0.3500366-0.0250244-0.5874634,0
				c-0.062561-0.0250244-0.1000977-0.0250244-0.1626587,0c-0.1248169,0-0.2874756-0.0250244-0.4248047,0l0.2249146,0.5250549
				l0.0997925,0.2624512h1.1752319c0.1376381-0.0624084,0.262455-0.1625061,0.4000893-0.2250671h0.0372314
				c0.3253174-0.1998901,0.6750488-0.3999329,0.9750366-0.562439H64.7083664z M76.5082932,62.5970879
				c-0.8126831-0.1623535-1.7001343-0.3375244-2.6501465-0.4624939c-0.0872803-0.037384-0.1873779-0.0624084-0.2874756-0.0624084
				c-0.062561,0-0.1623535-0.0375366-0.2624512-0.0375366c-0.1000977-0.0250244-0.2001953-0.0250244-0.2999878-0.062561
				c-0.7501221-0.0999451-1.499939-0.2249146-2.3126221-0.2999878l-0.1623535,0.7875061h0.0875854
				c0.9246826,0.0999451,1.7999268,0.2250671,2.6498413,0.3625488c0.1998901,0.037384,0.4000854,0.0624084,0.562439,0.0999451
				c0.9124756,0.1625061,1.7626953,0.2874756,2.5500488,0.4501343c0.1251221,0.037384,0.2249146,0.0749207,0.3625488,0.0749207
				v-0.8250427C76.6831589,62.6221123,76.5833664,62.6221123,76.5082932,62.5970879z M57.0342598,72.6983719
				c0.0300293,0.3599854-0.0897217,0.5549927-0.0897217,0.5549927s-0.2252197-0.2850952-0.5852051-0.2850952
				c-0.1948242,0-0.3449707,0.2850952-0.3449707,0.2850952s-0.1647949-0.2850952-0.3599854-0.2850952
				c-0.1948242,0-0.6298828,0.2850952-0.6298828,0.2850952c-0.2702637-0.6000366,0.0450439-1.0200806,0.0450439-1.0200806
				c0.0750732,0.2250366,0.6599121,0.2700806,0.6599121,0.2700806s0-0.164978,0.0750732-0.2400513
				c0.0450439,0,0.0900879,0.0750732,0.1647949,0.0750732c0.0450439,0,0.1201172-0.0300293,0.1501465-0.0750732
				c0.0900879,0.0750732,0.0900879,0.2400513,0.0900879,0.2400513c0.4196777,0,0.6599121-0.2400513,0.6599121-0.2400513
				S56.9895821,72.3383865,57.0342598,72.6983719z M97.3755417,72.94207c0,0.0750732-0.0146484,0.1501465-0.0146484,0.1950073
				C97.330864,73.2870407,97.28582,73.362114,97.28582,73.362114s-0.0600586-0.0750732-0.1651611-0.1351318
				c-0.1047363-0.0598755-0.2548828-0.1347656-0.4200439-0.1347656c-0.0596924,0-0.1051025,0.0150146-0.1497803,0.0598755
				c-0.0150146,0-0.0150146,0.0150146-0.0150146,0.0150146c-0.0900879,0.0450439-0.1501465,0.1349487-0.1951904,0.1799927
				c-0.0150146-0.0150146-0.0300293-0.0450439-0.0600586-0.0750732c0,0,0,0-0.0146484-0.0150146l-0.0153809-0.0150146
				c-0.0446777-0.0748901-0.1347656-0.1497803-0.2248535-0.1497803c-0.0150146,0-0.0150146,0-0.0300293,0.0150146
				c-0.1347656,0-0.3299561,0.1049194-0.4650879,0.1798096c-0.0146484,0-0.0300293,0.0150146-0.0446777,0.0300293
				c-0.0153809,0-0.0153809,0-0.0153809,0c-0.0146484,0-0.0300293,0.0150146-0.0300293,0.0150146l-0.0146484,0.0150146
				c-0.0150146,0-0.0150146,0-0.0150146,0c-0.1501465-0.2698975-0.1351318-0.5249634-0.1051025-0.7199707
				c0.0450439-0.164978,0.1051025-0.2849121,0.1051025-0.2849121c0.0296631,0.1049194,0.1347656,0.1798096,0.2398682,0.2098389
				h0.0150146c0.0450439,0.0300293,0.1051025,0.0450439,0.1497803,0.0450439
				c0.0300293,0.0150146,0.0454102,0.0150146,0.0754395,0.0150146h0.0596924
				c0.0150146,0.0150146,0.0450439,0.0150146,0.0600586,0.0150146c0.0300293,0,0.0600586,0,0.0600586,0s0,0,0-0.0150146
				s0.0150146-0.0150146,0.0150146-0.0300293c0.0150146-0.0450439,0.0450439-0.1349487,0.1047363-0.1799927
				c0.0300293,0.0300293,0.0600586,0.0748901,0.1201172,0.0748901c0.0150146,0,0.0150146,0,0.0300293-0.0148315
				c0.0300293,0,0.0450439-0.0150146,0.0600586-0.0150146c0.0150146-0.0150146,0.0150146-0.0150146,0.0150146-0.0150146
				c0.0150146-0.0150146,0.0300293-0.0300293,0.0450439-0.0300293h0.0150146c0,0,0.0150146,0.0150146,0.0150146,0.0300293
				c0,0,0,0,0.0150146,0.0150146c0.0300293,0.0899048,0.0300293,0.210022,0.0300293,0.210022
				c0.1647949,0,0.2999268-0.0450439,0.4046631-0.1051025h0.0153809c0.1647949-0.0600586,0.2548828-0.164978,0.2548828-0.164978
				s0.0750732,0.0450439,0.1201172,0.2400513c0.0146484,0.0300293,0.0146484,0.0750732,0.0146484,0.1201172
				c0.0153809,0.0298462,0.0153809,0.0448608,0.0153809,0.0748901C97.3608932,72.8669968,97.3755417,72.9120407,97.3755417,72.94207
				z M95.5582809,73.2471085c0,0,0,0,0.0125122,0c-0.0125122,0.0125122-0.0125122,0.0125122-0.0125122,0.0125122V73.2471085z
				 M96.3080978,72.5220108c-0.0204468,0-0.0268555-0.0164795-0.0408936-0.0254822
				c0.0134277,0.0050354,0.0213623,0.0131226,0.0408936,0.0131226c0.0125122,0,0.0250244,0,0.0250244,0
				C96.32061,72.5220108,96.32061,72.5220108,96.3080978,72.5220108z M96.2080002,72.4596024
				c0.0149536,0.014801,0.0393677,0.0236511,0.0592041,0.0369263
				C96.2299728,72.4821854,96.2080002,72.4596024,96.2080002,72.4596024z"/>
		</g>
	</g>
</g>
</svg>
