<?xml version="1.0" encoding="utf-8"?>
<!-- Generator: Adobe Illustrator 27.6.1, SVG Export Plug-In . SVG Version: 6.00 Build 0)  -->
<svg version="1.1" id="Layer_1" xmlns="http://www.w3.org/2000/svg" xmlns:xlink="http://www.w3.org/1999/xlink" x="0px" y="0px"
	 viewBox="0 0 172.91 90" style="enable-background:new 0 0 172.91 90;" xml:space="preserve">
<style type="text/css">
	.st0{fill:#888888;}
	.st1{fill:#72C6EF;}
	.st2{fill:#F79420;}
	.st3{fill:#FFFFFF;}
	.st4{fill:#333366;}
	.st5{fill:#3751A0;}
	.st6{fill:#BABABA;}
	.st7{fill:#BC202E;}
</style>
<g>
	<path class="st0" d="M89.93,79.63l-0.01,0.02l-0.33-0.19l-4.97-2.86l0.01-0.02c-0.11-0.06-0.22-0.12-0.33-0.19l-1.58-0.91
		L46.27,54.44V53.2l1.24-0.53c0.29,0.18,0.61,0.35,0.93,0.56c0.35,0.2,0.73,0.43,1.1,0.66c0.38,0.23,0.78,0.44,1.19,0.67
		c0.81,0.46,1.68,0.95,2.52,1.45c0.41,0.23,0.84,0.46,1.25,0.69c0.14,0.35,0.26,0.7,0.49,1.05c0.35,0.57,0.78,1.1,1.27,1.53
		c0.09,0.09,0.21,0.17,0.29,0.23c0.09,0.09,0.21,0.15,0.29,0.21c0.12,0.08,0.21,0.14,0.32,0.2c0.49,0.29,0.96,0.43,1.39,0.46
		c0.23,0,0.44-0.03,0.64-0.09c0.12-0.02,0.2-0.05,0.35-0.14c0,0,0.14-0.09,0.2-0.12c0,0,1.33-0.78,1.39-0.81
		c0,0,0.44-0.26,0.49-0.29c0.03-0.03,0.06-0.06,0.09-0.06c0.23-0.2,0.29-0.28,0.38-0.37c0.03-0.06,0.06-0.12,0.08-0.18
		c0.12-0.17,0.18-0.34,0.24-0.55c0-0.02,0.03-0.08,0.03-0.11l2.37,1.37l21.5,12.43c-0.06,0.14-0.12,0.26-0.17,0.43
		c-0.03,0.09-0.06,0.23-0.09,0.32c-0.03,0.12-0.03,0.26-0.03,0.41c-0.03,0.08-0.03,0.23-0.03,0.37c0,0.61,0.12,1.31,0.35,2.03
		c0.2,0.6,0.46,1.19,0.79,1.73c0.05,0.09,0.1,0.18,0.16,0.27c0.41,0.61,0.85,1.19,1.4,1.71c0.26,0.26,0.58,0.51,0.91,0.71
		C89.71,79.51,89.82,79.57,89.93,79.63z"/>
	<path class="st0" d="M125.38,79.86L107.82,90l-17.9-10.35l0.01-0.02c0.44,0.23,0.99,0.43,1.48,0.43c0.23,0,0.46,0,0.69-0.11
		c0.15-0.09,0.29-0.12,0.44-0.21c0.17-0.08,0.32-0.2,0.49-0.29c0.41-0.23,0.84-0.43,1.22-0.69c0.09-0.03,0.17-0.09,0.26-0.15
		c0.09-0.02,0.23-0.11,0.32-0.2c0.11-0.11,0.2-0.23,0.29-0.32c0.03,0,0.03-0.03,0.11-0.2c0.12-0.17,0.21-0.38,0.26-0.67
		c0.03-0.08,0.06-0.2,0.09-0.31c0.03-0.03,0.03-0.06,0.03-0.09l2.93,1.74l1.21,0.72l0.96-0.58l0.9-0.52l0.17-0.09l1.45-0.84
		c0.05-0.03,1.14-0.65,1.33-0.76l3.49,2.01l2.18,1.27l0.01-0.01l2.14-1.24l3.86-2.23l1.46-0.86h0.03l4.55,2.63L125.38,79.86z"/>
	<path d="M126.64,70.29c-0.06,0.03-3.36,1.94-3.36,1.94l-1.51,0.87l-4.03,2.32h-0.03l-0.01,0.01l-1.46,0.86l-3.86,2.23l-2.14,1.24
		l-2.17-1.27l-3.48-2.02c0,0-0.01,0.01-0.03,0.02c-0.19,0.11-1.28,0.73-1.33,0.76l-1.45,0.84l-0.17,0.09l-0.9,0.52l-0.96,0.58
		l-1.21-0.72l-2.93-1.74c0,0.03,0,0.06-0.03,0.09c-0.03,0.11-0.06,0.23-0.09,0.31c-0.05,0.29-0.14,0.5-0.26,0.67
		c-0.08,0.17-0.08,0.2-0.11,0.2c-0.09,0.09-0.18,0.21-0.29,0.32c-0.09,0.09-0.23,0.18-0.32,0.2c-0.09,0.06-0.17,0.12-0.26,0.15
		c-0.38,0.26-0.81,0.46-1.22,0.69c-0.17,0.09-0.32,0.21-0.49,0.29c-0.15,0.09-0.29,0.12-0.44,0.21c-0.23,0.11-0.46,0.11-0.69,0.11
		c-0.49,0-1.04-0.2-1.48-0.43c-0.11-0.06-0.22-0.12-0.33-0.19c-0.33-0.2-0.65-0.45-0.91-0.71c-0.55-0.52-0.99-1.1-1.4-1.71
		c-0.06-0.09-0.11-0.18-0.16-0.27c-0.33-0.54-0.59-1.13-0.79-1.73c-0.23-0.72-0.35-1.42-0.35-2.03c0-0.14,0-0.29,0.03-0.37
		c0-0.15,0-0.29,0.03-0.41c0.03-0.09,0.06-0.23,0.09-0.32c0.05-0.17,0.11-0.29,0.17-0.43l-21.5-12.43l-2.37-1.37
		c0,0.03-0.03,0.09-0.03,0.11c-0.06,0.21-0.12,0.38-0.24,0.55c-0.02,0.06-0.05,0.12-0.08,0.18c-0.09,0.09-0.15,0.17-0.38,0.37
		c-0.03,0-0.06,0.03-0.09,0.06c-0.05,0.03-0.49,0.29-0.49,0.29c-0.06,0.03-1.39,0.81-1.39,0.81c-0.06,0.03-0.2,0.12-0.2,0.12
		c-0.15,0.09-0.23,0.12-0.35,0.14c-0.2,0.06-0.41,0.09-0.64,0.09c-0.43-0.03-0.9-0.17-1.39-0.46c-0.11-0.06-0.2-0.12-0.32-0.2
		c-0.08-0.06-0.2-0.12-0.29-0.21c-0.08-0.06-0.2-0.14-0.29-0.23c-0.49-0.43-0.92-0.96-1.27-1.53c-0.23-0.35-0.35-0.7-0.49-1.05
		c-0.41-0.23-0.84-0.46-1.25-0.69c-0.84-0.5-1.71-0.99-2.52-1.45c-0.41-0.23-0.81-0.44-1.19-0.67c-0.37-0.23-0.75-0.46-1.1-0.66
		c-0.32-0.21-0.64-0.38-0.93-0.56c-0.02,0-0.02-0.02-0.05-0.02c-0.21-0.15-0.44-0.26-0.64-0.38l-0.55-0.29v-4.46l2.95-1.74V42.1
		l0.73-2.43l1.53-5.28l0.12-0.4l14.51-8.35l2.18-1.24l2.14,1.21l4.64,2.7l0.63-0.38l0.99-0.58l0.26,0.18l0.23,0.11l0.76,0.47
		l0.49,0.29l1.1-0.61l2.69,1.56v12.87l44.36,25.61C126.64,67.86,126.64,70.29,126.64,70.29z"/>
	<g>
		<polygon class="st0" points="115.57,74.17 114.06,75.04 73.36,51.43 73.33,51.43 74.81,50.59 		"/>
		<polygon class="st0" points="121.07,70.99 119.6,71.85 78.78,48.27 80.2,47.43 80.22,47.43 		"/>
		<polygon class="st1" points="61.28,39.9 63.71,41.32 63.71,41.46 53.43,35.52 53.45,35.44 68.26,26.89 72.89,29.55 61.25,36.33 
			61.25,39.9 		"/>
		<path class="st2" d="M62.78,38.33l-0.2-0.14l-0.12-0.06v0.61l1.25,0.7v-0.58L62.78,38.33z M67.24,34.28h-0.03l-4.03,2.38
			l0.52,0.32v-0.12l4-2.29L67.24,34.28z"/>
		<polygon class="st3" points="68.05,33.82 68.52,34.08 71.99,32.08 71.53,31.82 		"/>
		<path class="st0" d="M55.54,56.01c0.09,0.32,0.23,0.67,0.46,0.96c0,0,0,0,0,0.03s0.03,0.09,0.06,0.12
			c0.17,0.26,0.38,0.49,0.61,0.7l0.49,0.35c0.12,0.09,0.23,0.14,0.35,0.14c0.12,0.06,0.2,0.09,0.29,0.09h0.06c0.03,0,0.03,0,0.03,0
			c0.03,0,0.03,0,0.03,0h0.06l0.06-0.03h0.03c0,0,0,0,0.03,0c0.06,0.03,0.14,0,0.2-0.03c0.06,0,0.09-0.03,0.14-0.06l0.03-0.03h0.03
			c0.03-0.03,0.03-0.03,0.03-0.03l0.09-0.06c0.03-0.03,0.06-0.09,0.09-0.12c0.03-0.06,0.06-0.09,0.06-0.15l0.03-0.03
			c0.03-0.06,0.06-0.14,0.09-0.23l0.09-0.49v-0.03c0-0.12,0-0.23-0.06-0.35c0-0.2-0.03-0.41-0.12-0.61
			c-0.09-0.35-0.26-0.67-0.43-0.96c-0.2-0.32-0.43-0.61-0.7-0.84l-0.2-0.12l-0.29-0.2h-0.03c-0.17-0.12-0.35-0.17-0.49-0.2
			c-0.09-0.03-0.14-0.06-0.23-0.06h-0.12c-0.09,0-0.17,0.03-0.26,0.06H56v0.03c-0.03,0-0.03,0-0.03,0h-0.03
			c-0.03,0-0.06,0.03-0.09,0.06l-0.03,0.03c-0.03,0-0.03,0.03-0.03,0.03c-0.03,0-0.03,0-0.06,0.03c-0.03,0-0.06,0.06-0.06,0.09
			c-0.06,0.03-0.06,0.03-0.06,0.06c-0.09,0.09-0.17,0.23-0.2,0.38l-0.06,0.52c0,0.06,0,0.09,0.03,0.14
			C55.39,55.46,55.45,55.75,55.54,56.01z M56.64,55.09v-0.23c0.03-0.06,0.06-0.12,0.09-0.14c0-0.03,0-0.03,0.03-0.03
			c0-0.03,0.03-0.06,0.03-0.06c0.03,0,0.03,0,0.03,0s0,0,0.03,0v-0.03l0.03-0.03h0.06c0.03-0.03,0.06-0.03,0.12-0.03h0.03
			c0.06,0,0.06,0,0.12,0.03c0.06,0,0.14,0.03,0.2,0.09h0.03l0.12,0.09l0.09,0.06c0.12,0.09,0.2,0.23,0.29,0.35
			c0.09,0.14,0.17,0.26,0.2,0.43c0.03,0.09,0.06,0.17,0.06,0.26c0.03,0.06,0.03,0.09,0.03,0.14v0.03h0l-0.06,0.2
			c0,0.03-0.03,0.09-0.03,0.09v0.03c0,0.03-0.03,0.03-0.03,0.06c-0.03,0.03-0.03,0.03-0.06,0.06L58,56.48h-0.03v0.03
			c-0.03,0-0.06,0-0.06,0c-0.03,0.03-0.09,0.03-0.09,0.03c-0.03,0-0.03,0-0.03,0h-0.06c0,0,0,0-0.03,0h-0.03
			c-0.03,0-0.06,0-0.12-0.03c-0.06,0-0.12-0.03-0.14-0.06l-0.23-0.14c-0.09-0.09-0.17-0.2-0.26-0.32c0,0-0.03-0.03-0.03-0.06
			c-0.09-0.12-0.17-0.29-0.2-0.41c-0.03-0.12-0.06-0.26-0.06-0.38C56.64,55.12,56.64,55.12,56.64,55.09z"/>
		<path class="st0" d="M90.74,78.1c0.03,0,0.03,0,0.03,0c0.03,0,0.06,0,0.06,0h0.03c0.09,0,0.12,0,0.17-0.03
			c0.06,0,0.12-0.06,0.14-0.06c0.06,0,0.09-0.03,0.09-0.03v-0.03c0.03,0,0.06,0,0.06,0c0.03-0.03,0.06-0.03,0.06-0.03h0.03
			c0.03,0,0.06,0,0.09-0.03v-0.03h0.03c0,0,0.03,0,0.06-0.06v-0.03h0.03v-0.03c0.03-0.03,0.06-0.03,0.09-0.12c0,0,0,0,0.03-0.03
			c0-0.03,0.03-0.06,0.06-0.06c0.03-0.03,0.03-0.09,0.03-0.12c0,0,0.03,0,0.03-0.03c0.06-0.06,0.09-0.2,0.12-0.32
			c0.03-0.06,0.03-0.12,0.06-0.2l0.03-0.03v-0.2h0.03v-0.17c0-0.38-0.09-0.78-0.2-1.22h-0.03c-0.12-0.43-0.32-0.81-0.58-1.19
			c-0.23-0.41-0.52-0.78-0.87-1.04c-0.06-0.06-0.12-0.15-0.2-0.17c-0.06-0.06-0.12-0.12-0.2-0.17c-0.06-0.03-0.14-0.12-0.2-0.15
			s-0.12-0.06-0.17-0.06h-0.03c-0.09-0.03-0.14-0.09-0.2-0.12c-0.03,0-0.03,0-0.03,0c-0.06-0.03-0.12-0.06-0.17-0.06
			c-0.12,0-0.17-0.03-0.29-0.03h-0.14c-0.06,0-0.12,0-0.17,0.03h-0.03c-0.03,0-0.03,0-0.06,0c0,0-0.03,0-0.06,0
			c-0.03,0-0.06,0-0.09,0.03c-0.03,0-0.03,0-0.03,0c-0.03,0-0.03,0.03-0.03,0.03l-0.03,0.03c-0.03,0-0.03,0-0.03,0
			c-0.03,0-0.06,0.06-0.09,0.09c-0.03,0-0.03,0-0.03,0c-0.12,0.06-0.2,0.17-0.29,0.32c0,0,0,0.03-0.03,0.03
			c-0.03,0.03-0.06,0.09-0.06,0.17c-0.03,0.03-0.06,0.03-0.06,0.06c-0.03,0.06-0.06,0.12-0.06,0.14c-0.03,0.06-0.03,0.14-0.03,0.2
			c-0.03,0.06-0.03,0.17-0.03,0.23c-0.03,0.09-0.03,0.12-0.03,0.2c0,0.15,0,0.29,0.03,0.46c0.03,0.23,0.09,0.52,0.17,0.75
			c0.14,0.41,0.35,0.84,0.58,1.22c0.03,0.03,0.06,0.06,0.09,0.14c0.23,0.32,0.49,0.64,0.78,0.93c0.09,0.03,0.12,0.09,0.2,0.17h0.03
			c0.06,0.03,0.12,0.06,0.17,0.12h0.03c0.06,0.09,0.12,0.09,0.17,0.12c0.14,0.12,0.29,0.17,0.43,0.2c0.03,0,0.03,0,0.03,0h0.12v0.03
			C90.51,78.07,90.59,78.1,90.74,78.1z M90.33,76.3c-0.09-0.03-0.17-0.06-0.23-0.12c-0.03,0-0.06,0-0.09-0.06h-0.03
			c-0.03-0.03-0.06-0.06-0.09-0.06h-0.03c-0.03-0.06-0.06-0.09-0.09-0.09c-0.17-0.17-0.32-0.35-0.43-0.49
			c0-0.06-0.03-0.09-0.03-0.09c-0.14-0.2-0.23-0.43-0.32-0.64c-0.06-0.14-0.09-0.29-0.09-0.41c-0.03-0.09-0.03-0.17-0.03-0.26
			c0-0.03,0-0.06,0.03-0.09v-0.15c0-0.03,0-0.06,0.03-0.09c0-0.03,0-0.06,0.03-0.09c0,0,0,0,0.03-0.03c0-0.06,0.03-0.09,0.03-0.09
			c0.03,0,0.03-0.03,0.03-0.03c0.03-0.06,0.09-0.14,0.14-0.17c0.03,0,0.06-0.03,0.06-0.03s0,0,0.03,0v-0.03c0,0,0,0,0.03,0
			c0.03-0.03,0.03-0.03,0.06-0.03h0.03c0,0,0,0,0.03,0h0.35c0.03,0,0.06,0.03,0.09,0.03c0.03,0.03,0.06,0.06,0.12,0.06h0.03
			c0.03,0,0.06,0.03,0.09,0.03c0.03,0.03,0.06,0.09,0.09,0.09c0.06,0.03,0.09,0.06,0.12,0.09c0.06,0.03,0.09,0.06,0.12,0.12
			c0.17,0.12,0.35,0.32,0.46,0.55c0.14,0.2,0.23,0.38,0.29,0.61h0.03c0.06,0.23,0.12,0.46,0.12,0.67v0.09h0h0h-0.03v0.12
			c-0.03,0.06-0.03,0.09-0.03,0.12c-0.03,0.06-0.06,0.14-0.09,0.17c0,0.03,0,0.06-0.03,0.06l-0.03,0.03c0,0.03,0,0.03,0,0.03
			c-0.03,0.06-0.03,0.06-0.06,0.06v0.03c-0.03,0.03-0.03,0.03-0.03,0.03H91v0.03c0,0-0.03,0-0.06,0c0,0-0.03,0-0.03,0.03h-0.03
			c0,0-0.03,0.03-0.06,0.03c0,0-0.03,0.03-0.06,0.03c-0.06,0-0.06,0-0.12,0h-0.03c0,0,0,0-0.03,0c-0.06,0-0.12,0-0.2-0.06H90.33z"/>
		<polygon class="st4" points="62.26,43.21 62.26,47.73 54.9,43.87 56.17,39.67 		"/>
		<polygon class="st5" points="75.76,37.07 71.5,39.51 71.5,42.26 75.76,39.83 		"/>
		<path class="st5" d="M57.22,49.58c-0.61,0.35-0.96,0.96-1.04,1.65c0.03-0.03,0.06-0.06,0.09-0.06c0.06-0.03,0.14-0.03,0.23-0.03
			c0.2,0,0.41,0.06,0.64,0.14c0.26,0.06,0.52,0.17,0.78,0.32c0.09,0.06,0.2,0.12,0.29,0.2c0.09,0.06,0.2,0.14,0.29,0.2
			c0.09,0.09,0.2,0.17,0.29,0.26c0.49,0.43,0.96,0.99,1.3,1.54l1.22,0.7l0.93,0.55l1.48,0.87v-3.88l-4.32-2.46
			C58.72,49.18,57.88,49.18,57.22,49.58z"/>
		<path class="st5" d="M53.43,35.52l-2.03,7.56v5.71l2.38,1.33h0.03l0.29,0.17c0.03-0.14,0.09-0.29,0.17-0.43
			c0.32-0.93,0.99-1.68,1.85-2.17c0.9-0.52,1.88-0.72,2.84-0.55c0.52,0.09,1.04,0.26,1.54,0.55l3.22,1.85v-8.08L53.43,35.52z
			 M62.26,47.72l-7.36-3.85l1.27-4.2l6.08,3.53V47.72z"/>
		<path class="st6" d="M49.22,50.02v-1.71l-0.78,0.46v1.94c1.62,0.93,3.51,2.03,5.39,3.13c0-0.12,0.03-0.23,0.03-0.32
			c0.03-0.12,0.06-0.23,0.09-0.32c0.06-0.14,0.09-0.26,0.14-0.38l-2.69-1.56L49.22,50.02z"/>
		<path class="st6" d="M58.11,55.58c-0.03-0.17-0.12-0.29-0.2-0.43c-0.09-0.12-0.17-0.26-0.29-0.35l-0.09-0.06l-0.12-0.09h-0.03
			c-0.06-0.06-0.14-0.09-0.2-0.09c-0.06-0.03-0.06-0.03-0.12-0.03h-0.03c-0.06,0-0.09,0-0.12,0.03h-0.06l-0.03,0.03v0.03
			c-0.03,0-0.03,0-0.03,0s0,0-0.03,0c0,0-0.03,0.03-0.03,0.06c-0.03,0-0.03,0-0.03,0.03c-0.03,0.03-0.06,0.09-0.09,0.14v0.23
			c0,0.03,0,0.03,0,0.06c0,0.12,0.03,0.26,0.06,0.38c0.03,0.12,0.12,0.29,0.2,0.41c0,0.03,0.03,0.06,0.03,0.06
			c0.09,0.12,0.17,0.23,0.26,0.32l0.23,0.14c0.03,0.03,0.09,0.06,0.14,0.06c0.06,0.03,0.09,0.03,0.12,0.03h0.03
			c0.03,0,0.03,0,0.03,0h0.06c0,0,0,0,0.03,0c0,0,0.06,0,0.09-0.03c0,0,0.03,0,0.06,0v-0.03H58l0.03-0.03
			c0.03-0.03,0.03-0.03,0.06-0.06c0-0.03,0.03-0.03,0.03-0.06V56.3c0,0,0.03-0.06,0.03-0.09l0.06-0.23c0-0.06,0-0.09-0.03-0.14
			C58.17,55.75,58.14,55.67,58.11,55.58z"/>
		<path class="st6" d="M91.17,74.86c-0.06-0.23-0.14-0.41-0.29-0.61c-0.12-0.23-0.29-0.43-0.46-0.55c-0.03-0.06-0.06-0.09-0.12-0.12
			c-0.03-0.03-0.06-0.06-0.12-0.09c-0.03,0-0.06-0.06-0.09-0.09c-0.03,0-0.06-0.03-0.09-0.03h-0.03c-0.06,0-0.09-0.03-0.12-0.06
			c-0.03,0-0.06-0.03-0.09-0.03h-0.35c-0.03,0-0.03,0-0.03,0h-0.03c-0.03,0-0.03,0-0.06,0.03c-0.03,0-0.03,0-0.03,0v0.03
			c-0.03,0-0.03,0-0.03,0s-0.03,0.03-0.06,0.03c-0.06,0.03-0.12,0.12-0.14,0.17c0,0,0,0.03-0.03,0.03c0,0-0.03,0.03-0.03,0.09
			c-0.03,0.03-0.03,0.03-0.03,0.03c-0.03,0.03-0.03,0.06-0.03,0.09c-0.03,0.03-0.03,0.06-0.03,0.09v0.15
			c-0.03,0.03-0.03,0.06-0.03,0.09c0,0.09,0,0.17,0.03,0.26c0,0.12,0.03,0.26,0.09,0.41c0.09,0.2,0.17,0.43,0.32,0.64
			c0,0,0.03,0.03,0.03,0.09c0.12,0.14,0.26,0.32,0.43,0.49c0.03,0,0.06,0.03,0.09,0.09h0.03c0.03,0,0.06,0.03,0.09,0.06h0.03
			c0.03,0.06,0.06,0.06,0.09,0.06c0.06,0.06,0.14,0.09,0.23,0.12h0.06c0.09,0.06,0.14,0.06,0.2,0.06c0.03,0,0.03,0,0.03,0h0.03
			c0.06,0,0.06,0,0.12,0c0.03,0,0.06-0.03,0.06-0.03c0.03,0,0.06-0.03,0.06-0.03h0.03c0-0.03,0.03-0.03,0.03-0.03
			c0.03,0,0.06,0,0.06,0v-0.03h0.03c0,0,0,0,0.03-0.03v-0.03c0.03,0,0.03,0,0.06-0.06c0,0,0,0,0-0.03l0.03-0.03
			c0.03,0,0.03-0.03,0.03-0.06c0.03-0.03,0.06-0.12,0.09-0.17c0-0.03,0-0.06,0.03-0.12v-0.12h0.03v-0.09c0-0.2-0.06-0.43-0.12-0.67
			H91.17z"/>
		<path d="M70.78,39.12v4.37l5.71-3.24v-4.4L70.78,39.12z M75.76,39.84l-4.26,2.43v-2.75l3.07-1.74l1.19-0.7V39.84z"/>
		<polygon points="77.47,43.67 77.47,43.67 77.47,43.67 		"/>
		<rect x="77.46" y="43.67" width="0" height="0.02"/>
		<polygon points="77.47,43.67 77.47,43.67 77.47,43.67 		"/>
	</g>
	<polygon class="st2" points="76.81,29.32 75.27,30.19 74.63,30.57 72.87,31.58 72.4,31.32 74.17,30.28 74.78,29.93 76.31,29.03 	
		"/>
	<polygon class="st5" points="100.71,74.24 100.71,76.21 101.11,75.98 101.51,75.75 101.51,74.7 	"/>
	<polygon class="st7" points="101.51,74.7 101.51,75.75 102.42,75.22 	"/>
	<path class="st6" d="M65.88,38.13v12.6l2.98-1.71l0.67-0.38v-1.33l7.16-4.08l0.78,0.43l0.26,0.17l0.06,0.03l2.26-1.3v-12.6
		L65.88,38.13z M76.49,40.25l-5.71,3.24v-4.37l5.71-3.27V40.25z"/>
	<polygon class="st6" points="79.56,46.19 79.56,47 73.65,50.44 73.65,49.63 	"/>
	<polygon class="st6" points="79.27,45.52 73.3,49.02 72.49,48.56 71.04,47.69 70.66,47.49 76.69,44.04 77.04,44.24 78.51,45.08 	
		"/>
	<polygon class="st6" points="124.41,69.07 121.07,70.99 80.22,47.43 80.28,47.4 80.28,45.29 79.24,44.71 80.77,43.87 82.22,44.71 	
		"/>
	<polygon class="st6" points="119.6,71.85 115.57,74.17 74.81,50.59 76.11,49.81 78.78,48.27 	"/>
	<polygon class="st6" points="114.06,75.04 110.21,77.27 101.43,72.17 99.26,70.93 95.41,68.7 93.23,67.42 66.61,52.01 68.87,50.7 
		70.32,49.86 73.18,51.54 73.21,51.52 73.33,51.43 73.36,51.43 	"/>
	<path class="st5" d="M98.54,72.99v3.01l-5.3-3.07c-0.06-0.12-0.12-0.2-0.17-0.32c-0.43-0.7-0.96-1.33-1.54-1.85
		c-0.12-0.12-0.26-0.2-0.38-0.26c-0.12-0.12-0.2-0.2-0.32-0.29c-0.12-0.09-0.26-0.17-0.38-0.23c-0.64-0.35-1.25-0.55-1.77-0.55
		c-0.26,0.03-0.46,0.06-0.67,0.12c-0.14,0.03-0.26,0.12-0.38,0.17L65.88,57.17v-3.04l30.31,17.51L98.54,72.99z"/>
</g>
</svg>
