<?xml version="1.0" encoding="utf-8"?>
<!-- Generator: Adobe Illustrator 27.6.1, SVG Export Plug-In . SVG Version: 6.00 Build 0)  -->
<svg version="1.1" id="Layer_1" xmlns="http://www.w3.org/2000/svg" xmlns:xlink="http://www.w3.org/1999/xlink" x="0px" y="0px"
	 viewBox="0 0 172.9100037 90" style="enable-background:new 0 0 172.9100037 90;" xml:space="preserve">
<style type="text/css">
	.st0{fill:#BABABA;}
	.st1{fill:#3751A0;}
	.st2{fill:#888888;}
	.st3{fill:#BC202E;}
	.st4{fill:#F79420;}
	.st5{fill:#FFFFFF;}
	.st6{fill:#1A1A1A;}
	.st7{fill:#FF0000;}
	.st8{fill:#333333;}
	.st9{fill:none;stroke:#FF0000;stroke-linecap:round;stroke-linejoin:round;stroke-miterlimit:10;}
	.st10{fill:#D1ECF2;}
</style>
<g>
	<g>
		<g>
			<path d="M83.1936951,48.4094658l-0.1448288,1.0429573h0.029007l0.1448212-1.0429573H83.1936951z M82.9908676,50.1767235
				v1.2747841h0.0289993v-1.2747841H82.9908676z M90.9582062,46.9608612h-0.0289993l0.1160049,0.8691292h0.0289993
				L90.9582062,46.9608612z M83.1936951,48.4094658l-0.1448288,1.0429573h0.029007l0.1448212-1.0429573H83.1936951z
				 M82.9908676,50.1767235v1.2747841h0.0289993v-1.2747841H82.9908676z M90.9582062,46.9608612h-0.0289993l0.1160049,0.8691292
				h0.0289993L90.9582062,46.9608612z M83.1936951,48.4094658l-0.1448288,1.0429573h0.029007l0.1448212-1.0429573H83.1936951z
				 M82.9908676,50.1767235v1.2747841h0.0289993v-1.2747841H82.9908676z M90.9582062,46.9608612h-0.0289993l0.1160049,0.8691292
				h0.0289993L90.9582062,46.9608612z M83.1936951,48.4094658l-0.1448288,1.0429573h0.029007l0.1448212-1.0429573H83.1936951z
				 M82.9908676,50.1767235v1.2747841h0.0289993v-1.2747841H82.9908676z M90.9582062,46.9608612h-0.0289993l0.1160049,0.8691292
				h0.0289993L90.9582062,46.9608612z M90.9582062,46.9608612h-0.0289993l0.1160049,0.8691292h0.0289993L90.9582062,46.9608612z
				 M83.1936951,48.4094658l-0.1448288,1.0429573h0.029007l0.1448212-1.0429573H83.1936951z M82.9908676,50.1767235v1.2747841
				h0.0289993v-1.2747841H82.9908676z M90.9582062,46.9608612h-0.0289993l0.1160049,0.8691292h0.0289993L90.9582062,46.9608612z
				 M82.9908676,50.1767235v1.2747841h0.0289993v-1.2747841H82.9908676z M83.1936951,48.4094658l-0.1448288,1.0429573h0.029007
				l0.1448212-1.0429573H83.1936951z M90.9582062,46.9608612h-0.0289993l0.1160049,0.8691292h0.0289993L90.9582062,46.9608612z
				 M82.9908676,50.1767235v1.2747841h0.0289993v-1.2747841H82.9908676z M83.1936951,48.4094658l-0.1448288,1.0429573h0.029007
				l0.1448212-1.0429573H83.1936951z M90.9582062,46.9608612h-0.0289993l0.1160049,0.8691292h0.0289993L90.9582062,46.9608612z
				 M82.9908676,50.1767235v1.2747841h0.0289993v-1.2747841H82.9908676z M83.1936951,48.4094658l-0.1448288,1.0429573h0.029007
				l0.1448212-1.0429573H83.1936951z"/>
			<polygon points="102.7200165,79.3992233 102.7200165,83.1292038 100.490036,83.1292038 100.490036,87.9326782 
				95.1001434,87.9326782 95.1001434,86.0527954 77.8000946,86.0527954 77.8000946,87.9326782 72.4199677,87.9326782 
				72.4199677,83.1292038 70.1899872,83.1292038 70.1899872,79.3093796 73.490036,48.4109764 73.490036,34.7022133 
				99.4499969,34.7022133 99.4499969,48.4109764 			"/>
			<polygon points="91.0452118,47.8299904 90.9292068,46.9608612 90.9582062,46.9608612 91.0742111,47.8299904 			"/>
			<path class="st0" d="M83.0045013,50.1839333v1.2747803h6.8953857v-1.2747803H83.0045013z M89.6970596,48.4165001h-6.4897308
				L83.0625,49.4596291h6.7795639L89.6970596,48.4165001z M83.0045013,50.1839333v1.2747803h6.8953857v-1.2747803H83.0045013z
				 M83.0045013,50.1839333v1.2747803h6.8953857v-1.2747803H83.0045013z M83.0045013,50.1839333v1.2747803h6.8953857v-1.2747803
				H83.0045013z M83.0045013,50.1839333v1.2747803h6.8953857v-1.2747803H83.0045013z M84.018631,41.8341942v2.6073837h4.8673019
				v-2.6073837H84.018631z M75.6456451,36.8798943l-0.0289993,10.9573021h6.2000732l0.1158295-0.8693047h9.0102921
				l0.1159973,0.8693047h6.2000809V36.8798943H75.6456451z M90.3345413,45.8901863h-7.7645111v-5.5046005h7.7645111V45.8901863z
				 M88.8859329,41.8341942H84.018631v2.6073837h4.8673019V41.8341942z M89.6970596,48.4165001h-6.4897308L83.0625,49.4596291
				h6.7795639L89.6970596,48.4165001z"/>
			<path d="M88.8859329,44.4415779H84.018631v-2.6073837h4.8673019V44.4415779z"/>
			<rect x="84.018631" y="41.8341942" class="st1" width="4.8672981" height="2.6073864"/>
			<rect x="95.6806793" y="83.1327286" class="st1" width="1.5066078" height="1.1252095"/>
			<rect x="80.0068283" y="83.1327286" class="st1" width="12.8926363" height="1.1252095"/>
			<rect x="75.7188339" y="83.1327286" class="st1" width="1.5066078" height="1.1252095"/>
			<polygon class="st0" points="100.4901505,79.3952103 92.2909851,79.3952103 91.3638611,52.0889854 91.3638611,49.8290749 
				91.2770309,49.278595 97.4769363,49.278595 			"/>
			<polygon class="st0" points="81.6292648,49.278595 81.5712662,49.8290749 81.5712662,52.0889854 80.6441345,79.3952103 
				72.4161453,79.3952103 75.5161819,49.278595 			"/>
			<polygon class="st0" points="91.3638611,52.9291115 90.0022507,52.9291115 90.813385,79.3952103 82.1217422,79.3952103 
				82.9330444,52.9291115 81.5712662,52.9291115 81.5712662,52.9001122 91.3638611,52.9001122 			"/>
			<polygon class="st2" points="92.2909851,79.3952103 90.813385,79.3952103 90.0022507,52.9291115 91.3638611,52.9291115 
				91.3638611,52.0889854 			"/>
			<polygon class="st2" points="82.9330444,52.9291115 82.1217422,79.3952103 80.6441345,79.3952103 81.5712662,52.0889854 
				81.5712662,52.9291115 			"/>
			<path class="st3" d="M77.225441,83.1327286v1.1252136h2.7813873v-1.1252136H77.225441z M92.8994675,83.1327286v1.1252136
				h2.7812119v-1.1252136H92.8994675z"/>
			<polygon class="st2" points="72.4161453,87.9430008 72.4161453,90 100.4901505,90 100.4901505,87.9430008 95.1012039,87.9430008 
				95.1012039,86.0479202 77.8049164,86.0479202 77.8049164,87.9430008 			"/>
		</g>
		<polygon points="98.9926834,34.1994667 73.9473495,34.1994667 73.490036,34.7022133 99.4499969,34.7022133 		"/>
		<g>
			<path d="M97.5400848,34.0820961l-1.0900879-1.2199707c-0.0700684-0.0800781-0.1699219-0.1298828-0.2800293-0.1298828H76.7700653
				c-0.1101074,0-0.2099609,0.0498047-0.2800293,0.1298828l-1.0900879,1.2199707
				c-0.0998535,0.1101074-0.119873,0.2700195-0.0600586,0.4001465c0.0600586,0.1398926,0.1901855,0.2199707,0.3400879,0.2199707
				h21.5800781c0.1499023,0,0.2800293-0.0800781,0.3400879-0.2199707
				C97.6599579,34.3521156,97.6401825,34.1922035,97.5400848,34.0820961z M82.6001434,33.922184l-0.0102539,0.0300293h-6.0698242
				l0.4099121-0.4699707h5.8000488L82.6001434,33.922184z M83.3799286,33.9522133l0.1401367-0.4699707h5.8999023
				l0.0100098,0.0400391l0.130127,0.4299316H83.3799286z M90.3501434,33.9522133l-0.0102539-0.0300293l-0.1298828-0.4399414
				h5.8000488l0.4099121,0.4699707H90.3501434z"/>
			<polygon class="st4" points="96.4199677,33.9522133 90.3501434,33.9522133 90.3398895,33.922184 90.2100067,33.4822426 
				96.0100555,33.4822426 			"/>
			<polygon class="st5" points="89.5601044,33.9522133 83.3799286,33.9522133 83.5200653,33.4822426 89.4199677,33.4822426 
				89.4299774,33.5222816 			"/>
			<polygon class="st4" points="82.7300262,33.4822426 82.6001434,33.922184 82.5898895,33.9522133 76.5200653,33.9522133 
				76.9299774,33.4822426 			"/>
		</g>
	</g>
	<g>
		<path class="st2" d="M99.9969101,79.3475418l-11.0975952-1.7118073c-1.6200867-0.2499008-3.2687836-0.251503-4.8893509-0.0047531
			l-11.2765808,1.7169952c-0.0880661,0.0134048-0.1600952-0.0694427-0.1345749-0.1547852l2.0645218-6.904274h23.4039841
			l2.0644073,6.9038773C100.1572723,79.2782364,100.0850449,79.3611374,99.9969101,79.3475418z"/>
		<g>
			<path d="M78.6170883,77.4152908h-1.6813202c-0.6827698,0-1.2362595-0.5534973-1.2362595-1.2362671v-1.0054932h4.1538467
				v1.0054932C79.8533554,76.8617935,79.2998581,77.4152908,78.6170883,77.4152908z"/>
			<path d="M95.9742355,77.4152908h-1.6813202c-0.6827698,0-1.2362671-0.5534973-1.2362671-1.2362671v-1.0054932h4.1538467
				v1.0054932C97.210495,76.8617935,96.6570053,77.4152908,95.9742355,77.4152908z"/>
		</g>
		<g>
			<path class="st6" d="M90.3726959,69.2161026l-3.7600098-1.079834c-0.0400391-0.0200195-0.0800781-0.0300293-0.1201172-0.0200195
				c-0.0200195-0.0100098-0.0397949-0.0100098-0.0598145-0.0100098c-0.0500488,0-0.0900879,0.0100098-0.1401367,0.0300293
				l-3.75,1.0898438l0.0200195-0.2800293l0.0100098-0.1499023l0.0700684-0.7600098v-0.0100098l0.0097656-0.1398926l0.0302734-0.25
				v-0.0400391l0.0598145-0.7299805l0.0300293-0.3300781l0.0100098-0.0700684l0.0100098-0.1999512l0.0500488-0.5600586
				l0.0400391-0.5l0.3498535-4.1098671V61.086216c0.6000977-0.1999512,1.1501465-0.4799805,1.5600586-0.7800293h3.3300781
				c0.4099121,0.2900391,0.9599609,0.5800781,1.5498047,0.7800293v0.0100098l0.3500977,4.0998573l0.0500488,0.5l0.0500488,0.5600586
				l0.0100098,0.1999512l0.0100098,0.0700684l0.0297852,0.3400879l0.0600586,0.7199707v0.0400391l0.0200195,0.25
				l0.0100098,0.1499023l0.0800781,0.7600098l0.0100098,0.1501465L90.3726959,69.2161026z"/>
			<polygon class="st7" points="90.3364487,68.786171 86.446312,67.6662979 82.5664291,68.7961807 82.6362534,68.036171 
				82.6362534,68.0261612 86.446312,66.9260635 90.2563705,68.0261612 			"/>
			<polygon class="st7" points="90.2264633,67.5862198 90.2264633,67.6262589 86.446434,66.536171 82.6764145,67.6362686 
				82.6764145,67.5962296 82.7364731,66.8662491 86.446434,65.7961807 90.1666489,66.8662491 			"/>
			<polygon class="st7" points="90.1264877,66.4560928 86.446312,65.3962784 82.7763901,66.4661026 82.7863998,66.2661514 
				82.8364487,65.7060928 86.446312,64.656044 90.0664291,65.6960831 90.116478,66.2561417 			"/>
			<path class="st8" d="M100.1524811,70.6062393l-1.0397949,1.5100098
				c-1.7102051-0.3000488-8.6501465-1.5200195-11.6901855-1.8601074c-0.2299805-0.0200195-0.4399414-0.0400391-0.619873-0.0600586
				h-0.0100098c-0.1201172-0.0097656-0.2199707-0.0200195-0.3200684-0.0200195h-0.0300293
				c-0.0898438,0-0.1799316,0.0102539-0.2998047,0.0200195h-0.0300293c-0.170166,0.0100098-0.3400879,0.0400391-0.5600586,0.0500488
				c-0.0100098,0.0100098-0.0300293,0.0100098-0.0400391,0.0100098H85.492569c-0.0100098,0-0.0200195,0-0.0200195,0
				c-0.0100098,0-0.0100098,0-0.0197754,0h-0.0102539v0.0100098c-0.0097656,0-0.0097656,0-0.0097656,0s0,0-0.0102539,0
				c0,0,0,0-0.0097656,0h-0.0200195c-0.0100098,0.0100098-0.0200195,0.0100098-0.0300293,0.0100098h-0.0100098
				c-3.1101074,0.3500977-9.880127,1.5400391-11.5500488,1.8400879l-1.0900879-1.5700684l3.6501465,0.3901367
				c0.0397949,0.0097656,0.079834,0.0097656,0.1098633,0l5.9101562-0.630127l4.0700684-1.1799316l4.1398926,1.1899414
				l5.8498535,0.8398438c0.0500488,0.0102539,0.1000977,0.0102539,0.1501465,0L100.1524811,70.6062393z"/>
			<path class="st7" d="M85.452774,70.2561417c0,0.0100098,0,0.0100098-0.0102539,0.0100098v-0.0100098H85.452774z"/>
			<path class="st9" d="M73.4927979,72.5520248"/>
			<path class="st6" d="M82.7225494,61.2461281l-0.6899414,8.1001015l-5.329834,0.5598145
				c0.0898438-1.5698242,0.4199219-6.2299843,1.119873-10.7998085c0.0100098,0,0.0100098,0,0.0100098,0
				c0.1398926,0.2998047,1.1499023,2.2900391,3.8500977,2.2900391
				C82.0225983,61.3962746,82.3726959,61.336216,82.7225494,61.2461281z"/>
			<path class="st6" d="M96.2225494,70.1162491l-5.3498535-0.7600098l-0.6801758-8.1001015v-0.0100098
				c0.3500977,0.0900879,0.7001953,0.1501465,1.0300293,0.1501465c0.0100098,0,0.0100098,0,0.0100098,0
				c2.7299805,0,3.7399902-2.0500488,3.8500977-2.3000488c0.3798828,2.3999023,0.6398926,4.829834,0.8198242,6.8098183
				C96.0826569,67.906044,96.1827545,69.4560928,96.2225494,70.1162491z"/>
			<path d="M85.452774,70.2561417c0,0.0100098,0,0.0100098-0.0102539,0.0100098v-0.0100098H85.452774z"/>
			<g>
				<path class="st7" d="M101.9225006,74.6760635l-1.1499023-2.8999023
					c-0.0300293-0.0700684-0.0600586-0.1201172-0.1098633-0.1599121l0.9599609-1.3701172
					c0.0297852-0.0400391,0.0600586-0.0900879,0.0800781-0.1499023c0.0197754-0.0500488,0.0297852-0.1101074,0.0297852-0.170166
					c0-0.0297852,0-0.0598145-0.0100098-0.0898438c0,0,0-0.0100098-0.0100098-0.0400391
					c-0.079834-0.3901367-0.7299805-3.6401367-1.3798828-6.7900429c-0.6699219-3.2700195-1.5100098-5.2900391-2.7199707-6.5
					l-1.1000977-0.7399902l0.130127,1.0400391c0.0200195,0.119873,0.0698242,0.2199707,0.1599121,0.3000488
					c1.1101074,1.0400391,1.9001465,2.9199219,2.5500488,6.0998535c0.5300293,2.5800819,1.0698242,5.2302284,1.2900391,6.3100624
					l-3.920166,0.6101074l-0.2099609,0.0297852l-0.2900391-0.0397949l-5.3498535-0.7600098l-0.0700684-0.0100098
					l-0.4299316-0.130127l-3.7600098-1.079834c-0.0400391-0.0200195-0.0800781-0.0300293-0.1201172-0.0200195
					c-0.0200195-0.0100098-0.0397949-0.0100098-0.0598145-0.0100098c-0.0500488,0-0.0900879,0.0100098-0.1401367,0.0300293
					l-3.75,1.0898438L82.1925201,69.32621l-0.1599121,0.0200195l-5.329834,0.5598145l-0.2802734,0.0302734l-0.2197266-0.0200195
					l-3.920166-0.420166c0.2199707-1.0900879,0.7399902-3.7199707,1.2700195-6.2900429
					c0.6599121-3.1799316,1.4499512-5.0598145,2.5600586-6.0998535c0.079834-0.0800781,0.1398926-0.1801758,0.1499023-0.3000488
					l0.130127-1.0400391l-1.1000977,0.7399902c-1.1999512,1.2099609-2.0400391,3.2299805-2.7199707,6.5
					c-0.6501465,3.1499062-1.2900391,6.3999062-1.369873,6.7900429c-0.0102539,0.0300293-0.0102539,0.0400391-0.0102539,0.0400391
					c-0.0297852,0.1499023,0.0102539,0.3000488,0.1000977,0.4099121l0.9499512,1.380127
					c-0.0397949,0.0400391-0.079834,0.0898438-0.0998535,0.1499023L70.992569,74.656044
					c-0.1799316,0.420166-0.079834,0.7402344,0.0300293,0.9401855c0.2800293,0.5100098,0.9599609,0.6999512,1.3200684,0.7700195
					c0.0100098,0.0300293,0.0400391,0.0700684,0.0598145,0.0998535c0.4902344,0.6601562,1.3601074,0.670166,1.6401367,0.6801758
					h0.1201172c0.5,0,1.0400391-0.0600586,1.6098633-0.170166c0.9699707-0.1999512,5.4799805-1.1899414,8.3601074-1.8200684
					c0.3498535,0.7900391,1.2600098,1.3500977,2.3200684,1.3500977c1.0598145,0,1.9599609-0.5600586,2.3198242-1.3398438
					c2.8798828,0.6298828,7.3999023,1.6098633,8.3701172,1.8098145c0.5600586,0.1101074,1.0998535,0.170166,1.6098633,0.170166
					h0.1101074c0.2897949-0.0100098,1.1499023-0.0200195,1.6499023-0.6801758
					c0.0300293-0.0400391,0.0600586-0.079834,0.0700684-0.119873c0,0,0,0,0.0100098,0
					c0.3798828-0.0800781,1.0200195-0.2800293,1.2900391-0.75
					C102.0426178,75.3162003,102.0626373,74.9861221,101.9225006,74.6760635z M100.782608,75.2461319
					c-0.0100098,0.0100098-0.0300293,0.0200195-0.0500488,0.0200195c0.0300293-0.079834,0.0200195-0.1599121-0.0100098-0.2299805
					l-0.0598145-0.1699219v-0.0100098c-0.0102539-0.0400391-0.0200195-0.0700684-0.0400391-0.1000977
					c-0.1000977-0.2199707-0.2399902-0.4199219-0.3901367-0.5898438c-0.2399902-0.25-0.5200195-0.4702148-0.869873-0.670166
					c-0.2700195-0.1599121-0.5800781-0.3000488-0.9299316-0.4199219c-0.5600586-0.1999512-1.5400391-0.4799805-2.7102051-0.7900391
					c-0.0100098-0.0100098-0.0300293-0.0100098-0.0500488-0.0100098c-2.7700195-0.7399902-6.5598145-1.6298828-8.25-2.0200195
					c-0.2299805-0.0200195-0.4399414-0.0400391-0.619873-0.0600586c0.0400391,0.0300293,0.0700684,0.0700684,0.0900879,0.1201172
					c0.579834,0.1000977,1.079834,0.3898926,1.3798828,0.8000488h0.0100098c0.1101074,0.1298828,0.1899414,0.2800293,0.25,0.4299316
					c2.9499512,0.6899414,8.0100098,1.9099121,9.5600586,2.4699707c0.6298828,0.2299805,1.0900879,0.5,1.4099121,0.8400879
					c0.1801758,0.1899414,0.380127,0.5498047,0.2900391,0.8498535c0,0.0100098,0,0.0100098,0,0.0100098
					c-0.0200195,0.0500488-0.0400391,0.1101074-0.0800781,0.1501465c-0.1398926,0.1799316-0.4199219,0.2700195-0.869873,0.2800293
					c-0.4499512,0-0.9699707-0.0500488-1.5-0.1501465c-0.9799805-0.1999512-5.5700684-1.1999512-8.4299316-1.829834
					c-0.0102539,0-0.0200195-0.0102539-0.0300293-0.0102539c0.0197754-0.0197754,0.0197754-0.0498047,0.0197754-0.079834
					c0-0.0500488,0-0.0900879-0.0197754-0.130127c-0.0100098-0.0200195-0.0100098-0.0400391-0.0200195-0.0598145
					c-0.1501465-0.5-0.5100098-0.9401855-1-1.2199707c-0.0500488-0.0300293-0.1000977-0.0600586-0.1599121-0.0800781
					c-0.0900879-0.0400391-0.1901855-0.0800781-0.300293-0.1201172c-0.0397949-0.0200195-0.0898438-0.0400391-0.1298828-0.0400391
					c-0.0500488-0.0200195-0.1000977-0.0297852-0.1499023-0.0397949c-0.0100098-0.0100098-0.0300293-0.0100098-0.0400391-0.0100098
					c-0.1000977-0.0200195-0.1999512-0.0400391-0.3100586-0.0500488c-0.2700195-0.0200195-0.5400391-0.0200195-0.8100586,0.0300293
					c-0.1699219,0.0200195-0.329834,0.0698242-0.4899902,0.119873c-0.0700684,0.0200195-0.1398926,0.0500488-0.2099609,0.0900879
					c-0.0200195,0-0.0400391,0.0100098-0.0598145,0.0200195c-0.050293,0.0300293-0.1000977,0.0500488-0.1501465,0.0800781
					c-0.4199219,0.2397461-0.7600098,0.5998535-0.9399414,1.0698242c-0.0400391,0.0800781-0.0700684,0.1801758-0.1000977,0.2700195
					c0,0.0100098,0,0.0100098,0,0.0200195l-0.0200195,0.1401367c-2.8598633,0.619873-7.4499512,1.6298828-8.4299316,1.829834
					c-0.5300293,0.1000977-1.0300293,0.1599121-1.5,0.1501465c-0.4399414-0.0100098-0.7299805-0.1000977-0.8598633-0.2800293
					c-0.0400391-0.0500488-0.0600586-0.1000977-0.0800781-0.1601562c-0.0900879-0.2897949,0.0998535-0.6499023,0.2900391-0.8498535
					c0.3098145-0.3400879,0.7700195-0.6101074,1.3999023-0.8400879c1.5500488-0.5600586,6.6000977-1.7800293,9.5500488-2.4699707
					c0.0598145-0.1499023,0.1398926-0.3000488,0.25-0.4299316c0.3098145-0.4001465,0.8200684-0.6999512,1.4099121-0.8000488
					c0.0200195-0.0500488,0.0500488-0.0900879,0.0900879-0.1201172c-0.170166,0.0100098-0.3400879,0.0400391-0.5600586,0.0500488
					c-0.0100098,0.0100098-0.0300293,0.0100098-0.0400391,0.0100098H85.492569c-0.0100098,0-0.0200195,0-0.0200195,0
					c-0.0100098,0-0.0100098,0-0.0197754,0c0,0.0100098,0,0.0100098-0.0102539,0.0100098c-0.0097656,0-0.0097656,0-0.0097656,0
					s0,0-0.0102539,0c0,0,0,0-0.0097656,0h-0.0200195c-0.0100098,0.0100098-0.0200195,0.0100098-0.0300293,0.0100098h-0.0100098
					c0,0,0,0.0100098-0.0100098,0.0100098s-0.0100098,0-0.0200195,0c-0.0100098,0.0100098-0.0300293,0.0100098-0.0400391,0.0100098
					c-0.0100098,0.0100098-0.0200195,0.0100098-0.0300293,0.0100098s-0.0100098,0-0.0200195,0
					c-0.0100098,0.0100098-0.0200195,0.0100098-0.0297852,0.0100098C85.1925201,70.32621,85.1827545,70.32621,85.1725006,70.32621
					c-0.0097656,0-0.0097656,0-0.0200195,0c-0.0097656,0.0100098-0.0097656,0.0100098-0.0197754,0.0100098
					c-0.1201172,0.0300293-0.2302246,0.0500488-0.3601074,0.0800781c-0.0100098,0-0.0100098,0-0.0200195,0.0097656
					c-0.0100098,0-0.0200195,0-0.0400391,0.0102539c-0.0400391,0.0097656-0.0898438,0.0197754-0.1298828,0.0297852
					c-0.0100098,0-0.0100098,0-0.0200195,0c-0.0200195,0.0100098-0.0500488,0.0100098-0.0700684,0.0200195
					c-0.0598145,0.0100098-0.119873,0.0300293-0.1899414,0.0400391c-0.0700684,0.0200195-0.1398926,0.0300293-0.2099609,0.0500488
					c-0.0100098,0.0100098-0.0200195,0.0100098-0.0300293,0.0100098s-0.0200195,0.0100098-0.0300293,0.0100098
					s-0.0100098,0-0.0200195,0c-0.119873,0.0300293-0.2600098,0.0598145-0.3999023,0.0998535c-0.0100098,0-0.0200195,0-0.0200195,0
					s-0.0100098,0-0.0200195,0.0100098c0,0-0.0100098,0-0.0200195,0h-0.0100098
					c-0.0500488,0.0200195-0.1000977,0.0300293-0.1599121,0.0400391c-0.4401855,0.1101074-0.9101562,0.2199707-1.4001465,0.3400879
					c-0.0800781,0.0200195-0.1599121,0.0400391-0.25,0.0600586c-0.1999512,0.0498047-0.3999023,0.0998535-0.6098633,0.1499023
					c-0.0100098,0-0.0100098,0-0.0200195,0c-0.2900391,0.0700684-0.5900879,0.1401367-0.880127,0.2199707
					c-0.2800293,0.0700684-0.5598145,0.1398926-0.8398438,0.2099609c-0.1901855,0.0500488-0.380127,0.0900879-0.5700684,0.1401367
					c-0.5700684,0.1499023-1.1298828,0.2897949-1.6499023,0.4299316h-0.0300293
					c-1.1401367,0.3100586-2.1101074,0.5800781-2.6601562,0.7800293c-0.3498535,0.119873-0.6599121,0.2600098-0.9299316,0.4299316
					c-0.3398438,0.1899414-0.6298828,0.4101562-0.8598633,0.6601562c-0.1501465,0.1499023-0.2802734,0.3398438-0.3701172,0.5397949
					c-0.0100098,0.0100098-0.0200195,0.0200195-0.0200195,0.0400391l-0.1098633,0.2900391
					c-0.0302734,0.0800781-0.0302734,0.1599121,0,0.2399902c-0.0200195,0-0.0302734-0.0100098-0.0500488-0.0200195
					c-0.1201172-0.0600586-0.2102051-0.1298828-0.2199707-0.2099609l0.9897461-2.4699707l0.1201172,0.1699219l0.1201172-0.3098145
					v-0.0102539c0.0200195-0.0397949,0.0400391-0.079834,0.0600586-0.1098633
					c0.0297852-0.0300293,0.0598145-0.0600586,0.0998535-0.0800781h0.0100098
					c0.0300293-0.0300293,0.0600586-0.0400391,0.0898438-0.0400391c0.0102539-0.0097656,0.0200195-0.0097656,0.0302734-0.0097656
					c0.0097656,0,0.0397949-0.0102539,0.0698242-0.0102539c0.0600586-0.0097656,0.1601562-0.0297852,0.3000488-0.0598145
					l-1.0900879-1.5700684l3.6501465,0.3901367c0.0397949,0.0097656,0.079834,0.0097656,0.1098633,0l5.9101562-0.630127
					l4.0700684-1.1799316l4.1398926,1.1899414l5.8498535,0.8398438c0.0500488,0.0102539,0.1000977,0.0102539,0.1501465,0
					l3.5598145-0.5498047l-1.0397949,1.5100098c0.1298828,0.0300293,0.2299805,0.0397949,0.2897949,0.0598145
					c0.0400391,0,0.0700684,0.0102539,0.0800781,0.0102539c0.0200195,0,0.0400391,0.0097656,0.0600586,0.0197754
					c0.0100098,0,0.0200195,0.0100098,0.0300293,0.0100098c0.0200195,0.0100098,0.0400391,0.0200195,0.0500488,0.0300293
					c0.0297852,0.0100098,0.0600586,0.0400391,0.0800781,0.0700684c0.0297852,0.0300293,0.0498047,0.0700684,0.0698242,0.1098633
					l0.1201172,0.3200684l0.119873-0.1799316l1.0100098,2.5300293
					C101.0025787,75.1362686,100.912735,75.1960831,100.782608,75.2461319z"/>
				<path class="st8" d="M101.0225983,75.0962296c-0.0200195,0.0400391-0.1098633,0.0998535-0.2399902,0.1499023
					c-0.0100098-0.0700684-0.0300293-0.1398926-0.0600586-0.2099609l-0.0598145-0.1699219v-0.0100098
					c-0.0102539-0.0400391-0.0200195-0.0700684-0.0400391-0.1000977l-0.7299805-2.0100098l0.119873-0.1799316
					L101.0225983,75.0962296z"/>
				<path class="st8" d="M99.3626862,73.4961319c-0.2700195-0.1599121-0.5800781-0.3000488-0.9299316-0.4199219
					c-0.5600586-0.1999512-1.5400391-0.4799805-2.7102051-0.7900391c1.5100098,0.2600098,2.7600098,0.4799805,3.3100586,0.5800781
					c0.0400391,0.0100098,0.0800781,0.0200195,0.1101074,0.0300293l0.0297852,0.0898438L99.3626862,73.4961319z"/>
				<path class="st8" d="M87.702774,72.5862198c-0.0900879-0.0400391-0.1901855-0.0800781-0.300293-0.1201172
					c-0.0397949-0.0200195-0.0898438-0.0400391-0.1298828-0.0400391c-0.0500488-0.0200195-0.1000977-0.0297852-0.1499023-0.0397949
					c-0.0100098-0.0100098-0.0300293-0.0100098-0.0400391-0.0100098c-0.1000977-0.0200195-0.1999512-0.0400391-0.3100586-0.0500488
					c-0.2700195-0.0300293-0.5500488-0.0200195-0.8100586,0.0300293c-0.1699219,0.0200195-0.329834,0.0698242-0.4899902,0.119873
					c-0.0700684,0.0200195-0.1398926,0.0500488-0.2099609,0.0900879c-0.0200195,0-0.0400391,0.0100098-0.0598145,0.0200195
					l0.0598145-0.4599609c0-0.4599609,0.5500488-0.8500977,1.1901855-0.8500977c0.6499023,0,1.1899414,0.3901367,1.199707,0.9101562
					L87.702774,72.5862198z"/>
				<path class="st6" d="M99.7926178,75.7060928c0,0.0100098,0,0.0100098,0,0.0100098
					c-0.0200195,0.0500488-0.0400391,0.1101074-0.0800781,0.1501465c-0.1398926,0.1799316-0.4199219,0.2700195-0.869873,0.2800293
					c-0.4499512,0-0.9699707-0.0500488-1.5-0.1501465c-0.9799805-0.1999512-5.5700684-1.1999512-8.4299316-1.829834
					L88.9024811,74.07621v-0.0700684l-0.2597656-1.8798828c0-0.2001953-0.0400391-0.4001465-0.1101074-0.5800781
					c2.9499512,0.6899414,8.0100098,1.9099121,9.5600586,2.4699707c0.6298828,0.2299805,1.0900879,0.5,1.4099121,0.8400879
					C99.6827545,75.0461807,99.8827057,75.406044,99.7926178,75.7060928z"/>
				<path class="st6" d="M84.3626862,71.5461807c-0.0600586,0.1599121-0.0900879,0.3300781-0.0900879,0.5100098l-0.25,1.869873
					l-0.0100098,0.0800781c0,0.0100098,0,0.0100098,0,0.0200195l-0.0200195,0.1401367
					c-2.8598633,0.619873-7.4499512,1.6298828-8.4299316,1.829834c-0.5300293,0.1000977-1.0300293,0.1599121-1.5,0.1501465
					c-0.4399414-0.0100098-0.7299805-0.1000977-0.8598633-0.2800293c-0.0400391-0.0500488-0.0600586-0.1000977-0.0800781-0.1601562
					c-0.0900879-0.2897949,0.0998535-0.6499023,0.2900391-0.8498535c0.3098145-0.3400879,0.7700195-0.6101074,1.3999023-0.8400879
					C76.3626862,73.4560928,81.412735,72.2361221,84.3626862,71.5461807z"/>
				<path class="st8" d="M77.1327057,72.2961807c-1.1401367,0.3100586-2.1101074,0.5800781-2.6601562,0.7800293
					c-0.3498535,0.119873-0.6599121,0.2600098-0.9299316,0.4299316l0.1899414-0.5100098l0.0300293-0.0998535
					c0.0400391-0.0100098,0.0800781-0.0200195,0.1201172-0.0300293
					C74.4425201,72.7661514,75.6427155,72.5461807,77.1327057,72.2961807z"/>
				<path class="st8" d="M73.0225983,72.7461319l-0.7099609,1.9599609
					c-0.0100098,0.0100098-0.0200195,0.0200195-0.0200195,0.0400391l-0.1098633,0.2900391
					c-0.0302734,0.0700684-0.0500488,0.1398926-0.0500488,0.2199707c-0.1201172-0.0600586-0.2102051-0.1298828-0.2199707-0.2099609
					l0.9897461-2.4699707L73.0225983,72.7461319z"/>
				<path class="st7" d="M82.532608,49.3662453c-0.0500488,0.2399902-0.2600098,0.3898926-0.4899902,0.3898926
					c-0.0400391,0-0.0700684,0-0.1098633-0.0100098l-1.3500977-0.3000488v-0.0097656c-0.0400391,0-0.0800781,0-0.1101074-0.0102539
					c-0.0700684-0.0200195-0.1398926-0.0498047-0.1899414-0.0898438c-0.0100098,0-0.0100098,0-0.0100098-0.0100098
					c-0.0300293-0.0200195-0.0600586-0.0500488-0.0800781-0.0800781c-0.0097656-0.0100098-0.0200195-0.0200195-0.0200195-0.0300293
					c-0.0097656-0.0100098-0.0200195-0.0200195-0.0200195-0.0400391c-0.0498047-0.0698242-0.0698242-0.1599121-0.0698242-0.25
					c0-0.0097656,0-0.0097656,0-0.0200195c0.0100098-0.7998047-0.5900879-1.1999512-1.1999512-1.2597656
					c-0.6901855-0.0600586-1.4499512,0.329834-1.6101074,1.329834v0.0200195
					c-0.0500488,0.2700195-0.3000488,0.4499512-0.5698242,0.4099121c-0.2402344-0.0397949-0.420166-0.2397461-0.4301758-0.4897461
					c0-0.0200195,0.0100098-0.0400391,0.0100098-0.0600586c0,0,0-0.0100098,0-0.0200195
					c0.2399902-1.6401367,1.5700684-2.2800293,2.6899414-2.1899414c0.880127,0.079834,1.7700195,0.6599121,2.0200195,1.6298828
					h0.0100098c0.0300293,0.0800781,0.0500488,0.1699219,0.0600586,0.2600098l1.0898438,0.2399902
					c0.1000977,0.0200195,0.1901855,0.0700684,0.25,0.1401367C82.5225983,49.0361671,82.5726471,49.1960793,82.532608,49.3662453z"
					/>
				<path class="st7" d="M80.5791092,49.4363136v0.0097656l-0.1101074-0.0200195
					C80.4990311,49.4363136,80.5390701,49.4363136,80.5791092,49.4363136z"/>
				<path class="st7" d="M72.1827545,75.036171c-0.0302734,0.0800781-0.0302734,0.1599121,0,0.2399902
					c-0.0200195,0-0.0302734-0.0100098-0.0500488-0.0200195C72.1327057,75.1760635,72.1524811,75.1062393,72.1827545,75.036171z"/>
				<path class="st7" d="M100.7325592,75.2661514c0.0300293-0.079834,0.0200195-0.1599121-0.0100098-0.2299805
					c0.0300293,0.0700684,0.0500488,0.1398926,0.0600586,0.2099609
					C100.7725983,75.2561417,100.7525787,75.2661514,100.7325592,75.2661514z"/>
				<path class="st7" d="M96.6427155,48.9162941c-0.0100098,0.25-0.1899414,0.4499512-0.4301758,0.4897461
					c-0.2700195,0.0400391-0.5200195-0.1398926-0.5698242-0.4099121v-0.0200195
					c0-0.0200195-0.0100098-0.0397949-0.0100098-0.0598145c-0.1799316-0.9602051-0.920166-1.3300781-1.6000977-1.2700195
					c-0.619873,0.0598145-1.2299805,0.4699707-1.1999512,1.2797852c0,0.0500488-0.0100098,0.1000977-0.0300293,0.1401367
					c0,0.0200195,0,0.0400391-0.0100098,0.0600586c0,0.0100098-0.0100098,0.0100098-0.0100098,0.0200195
					c0,0.0097656,0,0.0097656-0.0100098,0.0200195l-0.0100098,0.0097656h-0.0100098c0,0.0102539,0,0.0102539,0,0.0200195
					c0,0.0100098,0,0.0100098-0.0100098,0.0200195c-0.0397949,0.0600586-0.0900879,0.1101074-0.1499023,0.1401367
					c-0.0300293,0.0200195-0.0600586,0.0400391-0.0900879,0.0400391c-0.0200195,0.0200195-0.0498047,0.0200195-0.0698242,0.0297852
					H92.412735c-0.0200195,0-0.0300293,0.0102539-0.0400391,0.0102539h-0.0500488v0.0197754l-1.3500977,0.2900391
					c-0.0300293,0.0100098-0.0700684,0.0100098-0.0998535,0.0100098c-0.2299805,0-0.4399414-0.1499023-0.4899902-0.3898926
					c-0.0400391-0.170166,0.0100098-0.3300781,0.1298828-0.4499512c0.0600586-0.0700684,0.1501465-0.1201172,0.25-0.1401367
					l1.0900879-0.2399902c0.0100098-0.0900879,0.0300293-0.1799316,0.0600586-0.2600098h0.0097656
					c0.2402344-0.9699707,1.130127-1.5500488,2.0200195-1.6298828c1.130127-0.0900879,2.4401855,0.5498047,2.6901855,2.1899414
					c0,0.0100098,0,0.0200195,0,0.0200195C96.6327057,48.876255,96.6427155,48.8962746,96.6427155,48.9162941z"/>
				<polygon class="st7" points="92.3691483,49.4363136 92.3190994,49.4460793 92.3190994,49.4363136 				"/>
				<path class="st7" d="M88.9327545,49.6362648c-0.0400391,0.0500488-0.1101074,0.0898438-0.1801758,0.1098633
					c-0.0600586,0.0200195-0.1398926,0.0400391-0.2299805,0.0400391c-0.0100098,0-0.0100098,0-0.0200195,0
					c-0.3999023,0-0.9699707-0.2299805-1.25-1.119873c-0.0498047-0.1401367-0.1000977-0.2402344-0.1499023-0.3000488h-0.0100098
					c-0.0900879-0.130127-0.170166-0.1401367-0.1799316-0.1401367h-0.9101562c-0.0100098,0-0.1000977,0.0100098-0.1899414,0.1401367
					c-0.0500488,0.0598145-0.1098633,0.1599121-0.1499023,0.3000488c-0.2900391,0.8999023-0.8701172,1.119873-1.2700195,1.119873
					c-0.0900879-0.0100098-0.170166-0.0200195-0.2402344-0.0400391c-0.0698242-0.0200195-0.1298828-0.0500488-0.1699219-0.0998535
					c-0.0898438-0.0900879-0.119873-0.2299805-0.0800781-0.3601074c0.050293-0.1999512,0.2602539-0.3200684,0.4602051-0.2600098
					c0.0500488,0.0100098,0.3798828,0.0500488,0.579834-0.5800781v-0.0097656
					c0.2602539-0.7900391,0.7700195-0.9802246,1.0800781-0.9602051h0.8901367
					c0.2597656-0.0100098,0.7998047,0.170166,1.0498047,0.9602051v0.0097656
					c0.2099609,0.630127,0.5300293,0.5900879,0.6000977,0.5800781c0.1999512-0.0400391,0.3999023,0.0800781,0.4499512,0.2700195
					C89.0426178,49.4260597,89.0125885,49.5461769,88.9327545,49.6362648z"/>
				<path class="st7" d="M84.1126862,73.7361221c-0.0400391,0.0800781-0.0700684,0.1801758-0.1000977,0.2700195l0.0100098-0.0800781
					C84.032608,73.8562393,84.0626373,73.786171,84.1126862,73.7361221z"/>
				<path d="M88.9625397,51.586216c-0.0097656,0.0500488-0.0698242,0.0500488-0.079834,0
					c-0.0500488-0.6101074-0.170166-1.2199707-0.3601074-1.8000488c0.0900879,0,0.1699219-0.0200195,0.2299805-0.0400391
					c0.0700684-0.0200195,0.1401367-0.0598145,0.1801758-0.1098633
					C89.032608,50.2861671,89.0225983,50.9460793,88.9625397,51.586216z"/>
				<path d="M80.4690018,49.4260597l0.1101074,0.0200195v-0.0097656
					C80.5390701,49.4363136,80.4990311,49.4363136,80.4690018,49.4260597z M92.3190994,49.4363136v0.0097656l0.0500488-0.0097656
					H92.3190994z"/>
				<path d="M95.2525787,57.0962257c-0.0100098-0.0500488-0.0300293-0.0800781-0.0498047-0.1101074
					c-0.0302734-0.1398926-0.0600586-0.2800293-0.0900879-0.3898926c0-0.0300293-0.0100098-0.0500488-0.0200195-0.0800781
					c0-0.0100098,0-0.0100098,0-0.0200195V56.456089c0-0.0100098-0.0100098-0.0197754-0.0100098-0.0300293v-0.0097656
					c-0.0200195-0.0800781-0.0500488-0.170166-0.0700684-0.2602539c-0.0100098-0.0197754-0.0200195-0.0397949-0.0200195-0.0698242
					c-0.5500488-2.1699219-1.8999023-5.9799805-2.2299805-6.8999023v-0.0102539h-0.0100098c0,0.0102539,0,0.0102539,0,0.0200195
					c0,0.0100098,0,0.0100098-0.0100098,0.0200195c-0.0397949,0.0600586-0.0900879,0.1101074-0.1499023,0.1401367
					c-0.0300293,0.0200195-0.0600586,0.0400391-0.0900879,0.0400391c-0.0200195,0.0200195-0.0498047,0.0200195-0.0698242,0.0297852
					H92.412735c-0.0200195,0-0.0300293,0.0102539-0.0400391,0.0102539l-0.0500488,0.0097656v0.0100098
					c0.25,0.6901855,0.869873,2.4401855,1.4199219,4.1401367c-1-1.1901855-2.6799316-1.7299805-4.2700195-1.3400879
					c-1.1398926,0.2800293-1.9599609,1.2399902-2.2399902,2.1499023h-1.5498047
					c-0.2802734-0.9099121-1.1000977-1.869873-2.2402344-2.1499023c-1.579834-0.3898926-3.2597656,0.1401367-4.2597656,1.3200684
					c0.2797852-0.8500977,0.5598145-1.7199707,0.8198242-2.4499512c0.25-0.7399902,0.4599609-1.3400879,0.5800781-1.6801758
					l-0.1101074-0.0200195c-0.0700684-0.0200195-0.1398926-0.0498047-0.1899414-0.0898438
					c-0.0100098,0-0.0100098,0-0.0100098-0.0100098c-0.0300293-0.0200195-0.0600586-0.0500488-0.0800781-0.0800781
					c-0.0097656-0.0100098-0.0200195-0.0200195-0.0200195-0.0300293c-0.0097656-0.0100098-0.0200195-0.0200195-0.0200195-0.0400391
					c-0.3198242,0.920166-1.7299805,4.8901367-2.2597656,7.0400391c-0.0300293,0.0800781-0.0500488,0.1501465-0.0600586,0.1899414
					c0,0.0102539,0,0.0102539,0,0.0200195c0,0.0102539-0.0100098,0.0200195-0.0100098,0.0300293s0,0.0100098,0,0.0300293
					c-0.0100098,0.0100098-0.0100098,0.0200195-0.0100098,0.0300293c0,0,0,0.0100098,0,0.0200195
					c0,0.0200195-0.0100098,0.0400391-0.0200195,0.0600586c-0.0200195,0.1098633-0.0500488,0.25-0.0800781,0.3898926
					c0,0.0100098,0,0.0200195-0.0097656,0.0300293c-0.0302734,0.0200195-0.0302734,0.0500488-0.0400391,0.0800781
					c-0.9599609,5.1799316-1.3601074,11.0798378-1.4599609,12.8200722l0.2197266,0.0200195l0.2802734-0.0302734
					c0.0898438-1.5698242,0.4199219-6.2299843,1.119873-10.7998085c0.0100098,0,0.0100098,0,0.0100098,0
					c0.1398926,0.2998047,1.1499023,2.2900391,3.8500977,2.2900391c0.3398438,0,0.6899414-0.0600586,1.0397949-0.1501465
					l-0.6899414,8.1001015l0.1599121-0.0200195l0.3500977-0.1000977l0.0200195-0.2800293l0.0100098-0.1499023l0.0700684-0.7600098
					v-0.0100098l0.0097656-0.1398926l0.0302734-0.25v-0.0400391l0.0598145-0.7299805l0.0300293-0.3300781l0.0100098-0.0700684
					l0.0100098-0.1999512l0.0500488-0.5600586l0.0400391-0.5l0.3498535-4.1098671V61.086216
					c0.6000977-0.1999512,1.1501465-0.4799805,1.5600586-0.7800293h3.3300781
					c0.4099121,0.2900391,0.9599609,0.5800781,1.5498047,0.7800293v0.0100098l0.3500977,4.0998573l0.0500488,0.5
					l0.0500488,0.5600586l0.0100098,0.1999512l0.0100098,0.0700684l0.0297852,0.3400879l0.0600586,0.7199707v0.0400391
					l0.0200195,0.25l0.0100098,0.1499023l0.0800781,0.7600098l0.0100098,0.1501465l0.0200195,0.2797852l0.4299316,0.130127
					l0.0700684,0.0100098l-0.6801758-8.1001015v-0.0100098c0.3500977,0.0900879,0.7001953,0.1501465,1.0300293,0.1501465
					c0.0100098,0,0.0100098,0,0.0100098,0c2.7299805,0,3.7399902-2.0500488,3.8500977-2.3000488
					c0.3798828,2.3999023,0.6398926,4.829834,0.8198242,6.8098183c0.1801758,2,0.2802734,3.5500488,0.3200684,4.2102051
					l0.2900391,0.0397949l0.2099609-0.0297852C96.6427155,68.7161026,96.2525787,62.5161476,95.2525787,57.0962257z
					 M87.6226959,54.9260597c0-0.0097656,0.0100098-0.0097656,0.0100098-0.0200195
					c0.079834-0.829834,0.8598633-1.8999023,1.9599609-2.1699219c1.4399414-0.3498535,3.0300293,0.1801758,3.8798828,1.3000488
					c-0.5998535-0.3999023-1.4199219-0.7099609-2.5-0.7099609c-1.9899902,0-2.9099121,0.829834-3.3498535,1.6298828V54.9260597z
					 M93.492569,56.7661476c-0.6999512-0.4499512-1.5500488-0.7099609-2.5-0.7199707
					c-1.6599121-0.0200195-2.6499023,0.6599121-3.1398926,1.1799316c-0.0500488-0.2800293-0.0800781-0.5598145-0.1101074-0.8398438
					c0-0.0100098,0-0.0100098,0-0.0100098c0.0200195-0.6000977,0.2900391-2.5500488,3.2299805-2.5500488
					c0.1999512,0,0.3901367,0.0200195,0.5700684,0.0400391c0.0200195,0.0100098,0.0300293,0.0300293,0.0500488,0.0300293
					C92.492569,54.0962257,93.1524811,55.6560402,93.492569,56.7661476z M83.3226471,52.7361183
					c1.0998535,0.2700195,1.880127,1.3400879,1.9599609,2.1699219c0,0.0102539,0.0100098,0.0102539,0.0100098,0.0200195v0.0300293
					c-0.4399414-0.8000488-1.3598633-1.6298828-3.3500977-1.6298828c-1.079834,0-1.8999023,0.3100586-2.5,0.7099609
					C80.2926178,52.9162941,81.8827057,52.3862648,83.3226471,52.7361183z M85.1725006,56.3862648
					c-0.0297852,0.2800293-0.0598145,0.5598145-0.119873,0.8398438c-0.4799805-0.5100098-1.4599609-1.1799316-3.0800781-1.1799316
					h-0.0500488c-0.9499512,0.0100098-1.7998047,0.2700195-2.5,0.7199707c0.3400879-1.1101074,1-2.6699219,1.9001465-2.869873
					c0.0200195,0,0.0300293-0.0200195,0.0500488-0.0300293c0.1799316-0.0200195,0.369873-0.0400391,0.5698242-0.0400391
					c2.9401855,0,3.2099609,1.9499512,3.2202148,2.5500488C85.162735,56.376255,85.1725006,56.376255,85.1725006,56.3862648z
					 M78.282608,56.7160988c0.0600586-0.2600098,0.130127-0.5,0.2099609-0.7299805
					c0.2102051-0.5200195,0.6599121-1.2800293,1.5800781-1.75c-0.8000488,1.0300293-1.2199707,2.6601562-1.3200684,3.0800781
					c-0.2399902,0.2399902-0.4399414,0.5200195-0.619873,0.8200684
					C78.1026764,57.5661964,78.2125397,56.9961281,78.282608,56.7160988z M84.492569,59.9060402
					c-0.6799316,0.4902344-1.8598633,0.9902344-2.8098145,0.9902344c-1.1401367,0-1.9401855-0.3901367-2.4799805-0.8300781
					c-0.5302734-0.4399414-0.800293-0.9299316-0.8901367-1.1201172c0.1799316-0.5,0.4599609-0.9199219,0.8000488-1.2700195
					c0.0200195-0.0200195,0.0300293-0.0397949,0.0500488-0.0598145c0.6799316-0.670166,1.6398926-1.0600586,2.7700195-1.0700684
					h0.0397949c1.9802246,0,2.8000488,1.0800781,2.9499512,1.3100586L84.492569,59.9060402z M85.032608,59.8061867
					l0.5100098-2.4199219c0.0800781-0.4301758,0.1401367-0.8601074,0.1699219-1.3000488l0.0800781-1.1801758h1.3300781
					l0.0800781,1.1801758c0.0197754,0.4399414,0.079834,0.869873,0.1699219,1.3000488l0.5100098,2.4199219H85.032608z
					 M91.2325592,60.8962746c0,0,0,0-0.0100098,0c-0.9399414,0-2.119873-0.5-2.8098145-0.9902344l-0.4301758-2.0498047
					c0.1601562-0.2399902,0.9899902-1.3200684,3-1.3100586c1.130127,0.0100098,2.0800781,0.3999023,2.7700195,1.0700684
					c0.0200195,0.0200195,0.0300293,0.0397949,0.0500488,0.0598145c0.3400879,0.3500977,0.619873,0.7700195,0.8000488,1.2700195
					C94.4225006,59.3262062,93.5125885,60.8962746,91.2325592,60.8962746z M94.7725983,58.1362648
					c-0.1699219-0.3000488-0.3798828-0.5800781-0.6098633-0.8200684c-0.1000977-0.4199219-0.5200195-2.0400391-1.3100586-3.0700684
					c0.9099121,0.4699707,1.3598633,1.2399902,1.5698242,1.7600098c0.0800781,0.2199707,0.1501465,0.4599609,0.2102051,0.7099609
					C94.702774,56.9961281,94.8126373,57.5661964,94.7725983,58.1362648z"/>
				<path class="st6" d="M94.7725983,58.1362648c-0.1699219-0.3000488-0.3798828-0.5800781-0.6098633-0.8200684
					c-0.1000977-0.4199219-0.5200195-2.0400391-1.3100586-3.0700684c0.9099121,0.4699707,1.3598633,1.2399902,1.5698242,1.7600098
					c0.0800781,0.2199707,0.1501465,0.4599609,0.2102051,0.7099609
					C94.702774,56.9961281,94.8126373,57.5661964,94.7725983,58.1362648z"/>
				<path class="st10" d="M93.4725494,54.0361671c-0.5998535-0.3999023-1.4199219-0.7099609-2.5-0.7099609
					c-1.9899902,0-2.9099121,0.829834-3.3498535,1.6298828v-0.0300293c0-0.0097656,0.0100098-0.0097656,0.0100098-0.0200195
					c0.079834-0.829834,0.8598633-1.8999023,1.9599609-2.1699219C91.032608,52.3862648,92.6226959,52.9162941,93.4725494,54.0361671
					z"/>
				<path class="st6" d="M93.492569,56.7661476c-0.6999512-0.4499512-1.5500488-0.7099609-2.5-0.7199707
					c-1.6599121-0.0200195-2.6499023,0.6599121-3.1398926,1.1799316c-0.0500488-0.2800293-0.0800781-0.5598145-0.1101074-0.8398438
					c0-0.0100098,0-0.0100098,0-0.0100098c0.0200195-0.6000977,0.2900391-2.5500488,3.2299805-2.5500488
					c0.1999512,0,0.3901367,0.0200195,0.5700684,0.0400391c0.0200195,0.0100098,0.0300293,0.0300293,0.0500488,0.0300293
					C92.492569,54.0962257,93.1524811,55.6560402,93.492569,56.7661476z"/>
				<path class="st10" d="M94.6026764,58.9460793c-0.1801758,0.380127-1.0900879,1.9501953-3.3701172,1.9501953c0,0,0,0-0.0100098,0
					c-0.9399414,0-2.119873-0.5-2.8098145-0.9902344l-0.4301758-2.0498047c0.1601562-0.2399902,0.9899902-1.3200684,3-1.3100586
					c1.130127,0.0100098,2.0800781,0.3999023,2.7700195,1.0700684c0.0200195,0.0200195,0.0300293,0.0397949,0.0500488,0.0598145
					C94.1427155,58.0261574,94.4225006,58.4460793,94.6026764,58.9460793z"/>
				<path class="st8" d="M87.8827057,59.8061867H85.032608l0.5100098-2.4199219
					c0.0800781-0.4301758,0.1401367-0.8601074,0.1699219-1.3000488l0.0800781-1.1801758h1.3300781l0.0800781,1.1801758
					c0.0197754,0.4399414,0.079834,0.869873,0.1699219,1.3000488L87.8827057,59.8061867z"/>
				<path class="st6" d="M80.0726471,54.2361183c-0.8000488,1.0300293-1.2199707,2.6601562-1.3200684,3.0800781
					c-0.2399902,0.2399902-0.4399414,0.5200195-0.619873,0.8200684c-0.0300293-0.5700684,0.079834-1.1401367,0.1499023-1.420166
					c0.0600586-0.2600098,0.130127-0.5,0.2099609-0.7299805C78.702774,55.4660988,79.1524811,54.706089,80.0726471,54.2361183z"/>
				<path class="st10" d="M85.2926178,54.9260597v0.0300293c-0.4399414-0.8000488-1.3598633-1.6298828-3.3500977-1.6298828
					c-1.079834,0-1.8999023,0.3100586-2.5,0.7099609c0.8500977-1.119873,2.4401855-1.6499023,3.880127-1.3000488
					c1.0998535,0.2700195,1.880127,1.3400879,1.9599609,2.1699219
					C85.282608,54.9162941,85.2926178,54.9162941,85.2926178,54.9260597z"/>
				<path class="st6" d="M85.1725006,56.3862648c-0.0297852,0.2800293-0.0598145,0.5598145-0.119873,0.8398438
					c-0.4799805-0.5100098-1.4599609-1.1799316-3.0800781-1.1799316h-0.0500488
					c-0.9499512,0.0100098-1.7998047,0.2700195-2.5,0.7199707c0.3400879-1.1101074,1-2.6699219,1.9001465-2.869873
					c0.0200195,0,0.0300293-0.0200195,0.0500488-0.0300293c0.1799316-0.0200195,0.369873-0.0400391,0.5698242-0.0400391
					c2.9401855,0,3.2099609,1.9499512,3.2202148,2.5500488C85.162735,56.376255,85.1725006,56.376255,85.1725006,56.3862648z"/>
				<path class="st10" d="M84.9225006,57.8562355l-0.4299316,2.0498047
					c-0.6799316,0.4902344-1.8598633,0.9902344-2.8098145,0.9902344c-1.1401367,0-1.9401855-0.3901367-2.4799805-0.8300781
					c-0.5302734-0.4399414-0.800293-0.9299316-0.8901367-1.1201172c0.1799316-0.5,0.4599609-0.9199219,0.8000488-1.2700195
					c0.0200195-0.0200195,0.0300293-0.0397949,0.0500488-0.0598145c0.6799316-0.670166,1.6398926-1.0600586,2.7700195-1.0700684
					h0.0397949C83.952774,56.5461769,84.7725983,57.626255,84.9225006,57.8562355z"/>
				<path d="M100.6226959,74.7561417c-0.1000977-0.2199707-0.2399902-0.4199219-0.3901367-0.5898438
					c-0.2399902-0.25-0.5200195-0.4702148-0.869873-0.670166l-0.1901855-0.5100098l-0.0297852-0.0898438
					c-0.0300293-0.0100098-0.0700684-0.0200195-0.1101074-0.0300293c-0.5500488-0.1000977-1.8000488-0.3200684-3.3100586-0.5800781
					c-0.0100098-0.0100098-0.0300293-0.0100098-0.0500488-0.0100098c-2.7700195-0.7399902-6.5598145-1.6298828-8.25-2.0200195
					c3.0400391,0.3400879,9.9799805,1.5600586,11.6901855,1.8601074c0.1298828,0.0300293,0.2299805,0.0397949,0.2897949,0.0598145
					c0.0400391,0,0.0700684,0.0102539,0.0800781,0.0102539c0.0200195,0,0.0400391,0.0097656,0.0600586,0.0197754
					c0.0100098,0,0.0200195,0.0100098,0.0300293,0.0100098c0.0200195,0.0100098,0.0400391,0.0200195,0.0500488,0.0300293
					c0.0297852,0.0100098,0.0600586,0.0400391,0.0800781,0.0700684c0.0297852,0.0300293,0.0498047,0.0700684,0.0698242,0.1098633
					l0.1201172,0.3200684L100.6226959,74.7561417z"/>
				<path d="M85.3526764,70.2761612c0,0,0,0.0100098-0.0100098,0.0100098s-0.0100098,0-0.0200195,0
					c-0.0100098,0.0100098-0.0300293,0.0100098-0.0400391,0.0100098c-0.0100098,0.0100098-0.0200195,0.0100098-0.0300293,0.0100098
					s-0.0100098,0-0.0200195,0c-0.0100098,0.0100098-0.0200195,0.0100098-0.0297852,0.0100098
					C85.1925201,70.32621,85.1827545,70.32621,85.1725006,70.32621c-0.0097656,0-0.0097656,0-0.0200195,0
					c-0.0097656,0.0100098-0.0097656,0.0100098-0.0197754,0.0100098c-0.1201172,0.0300293-0.2302246,0.0500488-0.3601074,0.0800781
					c-0.0100098,0-0.0100098,0-0.0200195,0.0097656c-0.0100098,0-0.0200195,0-0.0400391,0.0102539
					c-0.0400391,0.0097656-0.0898438,0.0197754-0.1298828,0.0297852c-0.0100098,0-0.0100098,0-0.0200195,0
					c-0.0200195,0.0100098-0.0500488,0.0100098-0.0700684,0.0200195c-0.0598145,0.0100098-0.119873,0.0300293-0.1899414,0.0400391
					c-0.0700684,0.0200195-0.1398926,0.0300293-0.2099609,0.0500488c-0.0100098,0.0100098-0.0200195,0.0100098-0.0300293,0.0100098
					s-0.0200195,0.0100098-0.0300293,0.0100098s-0.0100098,0-0.0200195,0
					c-0.119873,0.0300293-0.2600098,0.0598145-0.3999023,0.0998535c-0.0100098,0-0.0200195,0-0.0200195,0
					s-0.0100098,0-0.0200195,0.0100098c0,0-0.0100098,0-0.0200195,0h-0.0100098
					c-0.0500488,0.0200195-0.1000977,0.0300293-0.1599121,0.0400391c-0.4401855,0.1101074-0.9101562,0.2199707-1.4001465,0.3400879
					c-0.0800781,0.0200195-0.1599121,0.0400391-0.25,0.0600586c-0.1999512,0.0498047-0.3999023,0.0998535-0.6098633,0.1499023
					c-0.0100098,0-0.0100098,0-0.0200195,0c-0.2900391,0.0700684-0.5900879,0.1401367-0.880127,0.2199707
					c-0.2800293,0.0700684-0.5598145,0.1398926-0.8398438,0.2099609c-0.1901855,0.0500488-0.380127,0.0900879-0.5700684,0.1401367
					c-0.5700684,0.1499023-1.1298828,0.2897949-1.6499023,0.4299316h-0.0300293c-1.4899902,0.25-2.6901855,0.4699707-3.25,0.5700684
					c-0.0400391,0.0100098-0.0800781,0.0200195-0.1201172,0.0300293l-0.0300293,0.0998535l-0.1899414,0.5100098
					c-0.3398438,0.1899414-0.6298828,0.4101562-0.8598633,0.6601562c-0.1501465,0.1499023-0.2802734,0.3398438-0.3701172,0.5397949
					l0.7099609-1.9599609l0.1201172-0.3098145v-0.0102539c0.0200195-0.0397949,0.0400391-0.079834,0.0600586-0.1098633
					c0.0297852-0.0300293,0.0598145-0.0600586,0.0998535-0.0800781h0.0100098
					c0.0300293-0.0300293,0.0600586-0.0400391,0.0898438-0.0400391c0.0102539-0.0097656,0.0200195-0.0097656,0.0302734-0.0097656
					c0.0097656,0,0.0397949-0.0102539,0.0698242-0.0102539c0.0600586-0.0097656,0.1601562-0.0297852,0.3000488-0.0598145
					C75.4725494,71.8162003,82.242569,70.6262589,85.3526764,70.2761612z"/>
				<path class="st8" d="M100.6427155,69.5161514l-3.920166,0.6101074
					c-0.079834-1.4101562-0.4699707-7.6101112-1.4699707-13.0300331c-0.0100098-0.0500488-0.0300293-0.0800781-0.0498047-0.1101074
					c-0.0302734-0.1398926-0.0600586-0.2800293-0.0900879-0.3898926c0-0.0300293-0.0100098-0.0500488-0.0200195-0.0800781
					c0-0.0100098,0-0.0100098,0-0.0200195V56.456089c0-0.0100098-0.0100098-0.0197754-0.0100098-0.0300293v-0.0097656
					c-0.0200195-0.0800781-0.0500488-0.170166-0.0700684-0.2602539c-0.0100098-0.0197754-0.0200195-0.0397949-0.0200195-0.0698242
					c-0.5500488-2.1699219-1.8999023-5.9799805-2.2299805-6.8999023v-0.0102539l0.0100098-0.0097656
					c0.0100098-0.0102539,0.0100098-0.0102539,0.0100098-0.0200195c0-0.0100098,0.0100098-0.0100098,0.0100098-0.0200195
					c0.0100098-0.0200195,0.0100098-0.0400391,0.0100098-0.0600586c0.0200195-0.0400391,0.0300293-0.0900879,0.0300293-0.1401367
					c-0.0300293-0.8098145,0.5800781-1.2199707,1.1999512-1.2797852c0.6799316-0.0600586,1.420166,0.3098145,1.6000977,1.2700195
					c0,0.0200195,0.0100098,0.0397949,0.0100098,0.0598145v0.0200195l0.619873,4.8200684l0.25,1.9499512l0.130127,1.0400391
					c0.0200195,0.119873,0.0698242,0.2199707,0.1599121,0.3000488c1.1101074,1.0400391,1.9001465,2.9199219,2.5500488,6.0998535
					C99.8827057,65.786171,100.4225006,68.4363174,100.6427155,69.5161514z"/>
				<path d="M97.6126862,56.5061378l-1.1000977-0.7399902l-0.25-1.9499512l-0.619873-4.8200684
					c0.0498047,0.2700195,0.2998047,0.4499512,0.5698242,0.4099121c0.2402344-0.0397949,0.420166-0.2397461,0.4301758-0.4897461
					l0.6799316,5.329834L97.6126862,56.5061378z"/>
				<path d="M84.3927155,49.7861671c-0.1899414,0.5800781-0.3200684,1.1799316-0.3701172,1.8000488
					c0,0.0500488-0.0698242,0.0500488-0.0698242,0c-0.0700684-0.6401367-0.0700684-1.2900391,0.0297852-1.9399414
					c0.0400391,0.0498047,0.1000977,0.079834,0.1699219,0.0998535
					C84.2225494,49.7661476,84.3026276,49.7761574,84.3927155,49.7861671z"/>
				<path class="st6" d="M93.742569,53.5962257c-1-1.1901855-2.6799316-1.7299805-4.2700195-1.3400879
					c-1.1398926,0.2800293-1.9599609,1.2399902-2.2399902,2.1499023h-1.5498047
					c-0.2802734-0.9099121-1.1000977-1.869873-2.2402344-2.1499023c-1.579834-0.3898926-3.2597656,0.1401367-4.2597656,1.3200684
					c0.2797852-0.8500977,0.5598145-1.7199707,0.8198242-2.4499512c0.25-0.7399902,0.4599609-1.3400879,0.5800781-1.6801758
					l1.3500977,0.3000488c0.0397949,0.0100098,0.0698242,0.0100098,0.1098633,0.0100098
					c0.2299805,0,0.4399414-0.1499023,0.4899902-0.3898926c0.0400391-0.170166-0.0100098-0.3300781-0.130127-0.4499512
					c0.7102051-0.1801758,1.6000977-0.3701172,2.5400391-0.4799805v0.0097656
					c-0.1999512,0.630127-0.5297852,0.5900879-0.579834,0.5800781c-0.1999512-0.0600586-0.4099121,0.0600586-0.4602051,0.2600098
					c-0.0397949,0.130127-0.0097656,0.2700195,0.0800781,0.3601074c-0.0998535,0.6499023-0.0998535,1.2998047-0.0297852,1.9399414
					c0,0.0500488,0.0698242,0.0500488,0.0698242,0c0.0500488-0.6201172,0.1801758-1.2199707,0.3701172-1.8000488
					c0.3999023,0,0.9799805-0.2199707,1.2700195-1.119873c0.0400391-0.1401367,0.0998535-0.2402344,0.1499023-0.3000488
					c0.0898438-0.130127,0.1799316-0.1401367,0.1899414-0.1401367h0.9101562c0.0097656,0,0.0898438,0.0100098,0.1799316,0.1401367
					h0.0100098c0.0498047,0.0598145,0.1000977,0.1599121,0.1499023,0.3000488c0.2800293,0.8898926,0.8500977,1.119873,1.25,1.119873
					c0.0100098,0,0.0100098,0,0.0200195,0c0.1899414,0.5800781,0.3100586,1.1899414,0.3601074,1.8000488
					c0.0100098,0.0500488,0.0700684,0.0500488,0.079834,0c0.0600586-0.6401367,0.0700684-1.3000488-0.0297852-1.9499512
					c0.079834-0.0900879,0.1098633-0.2102051,0.079834-0.3400879c-0.0500488-0.1899414-0.25-0.3100586-0.4499512-0.2700195
					c-0.0700684,0.0100098-0.3901367,0.0500488-0.6000977-0.5800781v-0.0097656
					c0.9501953,0.1098633,1.8400879,0.2998047,2.5500488,0.4799805c-0.119873,0.119873-0.1699219,0.2797852-0.1298828,0.4499512
					c0.0500488,0.2399902,0.2600098,0.3898926,0.4899902,0.3898926c0.0297852,0,0.0698242,0,0.0998535-0.0100098
					l1.3500977-0.2900391C92.5726471,50.1462746,93.1925201,51.8962746,93.742569,53.5962257z"/>
				<path d="M91.912735,48.2761574c-0.0300293,0.0800781-0.0500488,0.1699219-0.0600586,0.2600098l-1.0900879,0.2399902
					c-0.0998535,0.0200195-0.1899414,0.0700684-0.25,0.1401367c-0.7099609-0.1801758-1.5998535-0.3701172-2.5500488-0.4799805
					c-0.25-0.7900391-0.7900391-0.9702148-1.0498047-0.9602051h-0.8901367
					c-0.3100586-0.0200195-0.8198242,0.170166-1.0800781,0.9602051c-0.9399414,0.1098633-1.829834,0.2998047-2.5400391,0.4799805
					c-0.0598145-0.0700684-0.1499023-0.1201172-0.25-0.1401367l-1.0898438-0.2399902
					c-0.0100098-0.0900879-0.0300293-0.1799316-0.0600586-0.2600098c1.0300293-0.3300781,3.2299805-0.9299316,5.4501953-0.9299316
					C88.6827545,47.3462257,90.9024811,47.956089,91.912735,48.2761574z"/>
				<path class="st8" d="M80.1524811,49.1760597c-0.3198242,0.920166-1.7299805,4.8901367-2.2597656,7.0400391
					c-0.0300293,0.0800781-0.0500488,0.1501465-0.0600586,0.1899414c0,0.0102539,0,0.0102539,0,0.0200195
					c0,0.0102539-0.0100098,0.0200195-0.0100098,0.0300293s0,0.0100098,0,0.0300293
					c-0.0100098,0.0100098-0.0100098,0.0200195-0.0100098,0.0300293c0,0,0,0.0100098,0,0.0200195
					c0,0.0200195-0.0100098,0.0400391-0.0200195,0.0600586c-0.0200195,0.1098633-0.0500488,0.25-0.0800781,0.3898926
					c0,0.0100098,0,0.0200195-0.0097656,0.0300293c-0.0302734,0.0200195-0.0302734,0.0500488-0.0400391,0.0800781
					c-0.9599609,5.1799316-1.3601074,11.0798378-1.4599609,12.8200722l-3.920166-0.420166
					c0.2199707-1.0900879,0.7399902-3.7199707,1.2700195-6.2900429c0.6599121-3.1799316,1.4499512-5.0598145,2.5600586-6.0998535
					c0.079834-0.0800781,0.1398926-0.1801758,0.1499023-0.3000488l0.130127-1.0400391l0.2597656-1.9499512l0.6201172-4.8200684
					v-0.0200195c0.1601562-1,0.9199219-1.3898926,1.6101074-1.329834c0.6098633,0.0598145,1.2099609,0.4599609,1.1999512,1.2597656
					c0,0.0102539,0,0.0102539,0,0.0200195C80.0826569,49.0161476,80.1026764,49.1062355,80.1524811,49.1760597z"/>
				<path d="M77.2725983,48.9961281l-0.6201172,4.8200684l-0.2597656,1.9499512l-1.1000977,0.7399902l0.2900391-2.2600098
					l0.6899414-5.329834c0.0100098,0.25,0.1899414,0.4499512,0.4301758,0.4897461
					C76.9725494,49.4460793,77.2225494,49.2661476,77.2725983,48.9961281z"/>
				<path d="M88.9024811,74.0061417V74.07621c0-0.0500488,0-0.0900879-0.0197754-0.130127
					c-0.0100098-0.0200195-0.0100098-0.0400391-0.0200195-0.0598145c-0.1501465-0.5-0.5100098-0.9401855-1-1.2199707
					c-0.0500488-0.0300293-0.1000977-0.0600586-0.1599121-0.0800781l-0.050293-0.3999023
					c-0.0097656-0.5200195-0.5498047-0.9101562-1.199707-0.9101562c-0.6401367,0-1.1901855,0.3901367-1.1901855,0.8500977
					l-0.0598145,0.4599609c-0.050293,0.0300293-0.1000977,0.0500488-0.1501465,0.0800781
					c-0.4199219,0.2397461-0.7600098,0.5998535-0.9399414,1.0698242c-0.0400391,0.0800781-0.0700684,0.1801758-0.1000977,0.2700195
					l0.0100098-0.0800781l0.25-1.869873c0-0.1799316,0.0300293-0.3500977,0.0900879-0.5100098
					c0.0598145-0.1499023,0.1398926-0.3000488,0.25-0.4299316c0.3098145-0.4001465,0.8200684-0.6999512,1.4099121-0.8000488
					c0.0200195-0.0500488,0.0500488-0.0900879,0.0900879-0.1201172h0.0300293
					c0.119873-0.0097656,0.2099609-0.0200195,0.2998047-0.0200195h0.0300293c0.1000977,0,0.1999512,0.0102539,0.3200684,0.0200195
					h0.0100098c0.0400391,0.0300293,0.0700684,0.0700684,0.0900879,0.1201172
					c0.579834,0.1000977,1.079834,0.3898926,1.3798828,0.8000488h0.0100098c0.1101074,0.1298828,0.1899414,0.2800293,0.25,0.4299316
					c0.0700684,0.1799316,0.1101074,0.3798828,0.1101074,0.5800781L88.9024811,74.0061417z"/>
				<path class="st7" d="M88.912735,74.1662979c-0.0102539,0-0.0200195-0.0102539-0.0300293-0.0102539
					c0.0197754-0.0197754,0.0197754-0.0498047,0.0197754-0.079834L88.912735,74.1662979z"/>
			</g>
			<g>
				<path d="M88.2411652,55.5685616c0-0.25-0.25-0.4499512-0.5600586-0.4499512
					c-0.1298828,0-0.2399902,0.0400391-0.3400879,0.0900879v-0.2700195c0-0.0100098,0.0102539-0.0100098,0.0102539-0.0200195
					c0-0.380127-0.4001465-0.6899414-0.9001465-0.6899414c-0.4799805,0-0.8798828,0.2998047-0.8898926,0.6799316
					c0,0,0,0,0,0.0100098v0.2900391c-0.1000977-0.0500488-0.2099609-0.0900879-0.3300781-0.0900879
					c-0.3100586,0-0.5700684,0.1999512-0.5700684,0.4499512c0,0.0200195,0,0.4199219,0.0600586,0.6298828
					c0.0700684,0.25,0.3300781,0.3901367,0.7199707,0.3901367c0.130127,0,0.2099609-0.0300293,0.2700195-0.0900879
					c0.0300293-0.0300293,0.0300293-0.0598145,0.0400391-0.0898438c0.1599121,0.1499023,0.3999023,0.2299805,0.6999512,0.2299805
					c0.3500977,0,0.5600586-0.1201172,0.6999512-0.25c0.0100098,0.0400391,0.0200195,0.0700684,0.0600586,0.1098633
					c0.0600586,0.0600586,0.1499023,0.0900879,0.2700195,0.0900879c0.3798828,0,0.6298828-0.1401367,0.7099609-0.3901367
					C88.2511749,55.9884834,88.2411652,55.5885811,88.2411652,55.5685616z M85.5312042,56.2384834v0.0900879
					c0,0-0.0200195,0.0100098-0.0900879,0.0100098c-0.1000977,0-0.4199219-0.0100098-0.4799805-0.2099609
					c-0.0200195-0.0500488-0.0200195-0.1101074-0.0300293-0.1801758c0.0900879,0.0400391,0.1901855,0.0800781,0.3000488,0.0800781
					s0.2099609-0.0400391,0.3000488-0.0800781c0,0.0900879-0.0100098,0.170166-0.0100098,0.2102051
					C85.5211945,56.1886787,85.5312042,56.2086983,85.5312042,56.2384834z M85.2311554,55.7785225
					c-0.1699219,0-0.3200684-0.0998535-0.3200684-0.2099609c0-0.1098633,0.1501465-0.1999512,0.3200684-0.1999512
					s0.3200684,0.0900879,0.3200684,0.1999512C85.5512238,55.678669,85.4010773,55.7785225,85.2311554,55.7785225z
					 M87.0910187,56.0785713c-0.0698242,0.130127-0.25,0.3100586-0.6398926,0.3100586
					c-0.329834,0-0.5700684-0.1101074-0.6398926-0.3000488v-0.6899414c0.1599121,0.1398926,0.3898926,0.2199707,0.6398926,0.2199707
					s0.4799805-0.0800781,0.6398926-0.2099609V56.0785713z M87.0910187,54.9186592v0.0200195
					c-0.0097656,0.2299805-0.2897949,0.4299316-0.6398926,0.4299316c-0.3498535,0-0.6398926-0.1999512-0.6398926-0.4499512
					c0-0.2399902,0.2900391-0.4399414,0.6398926-0.4399414c0.3500977,0,0.6398926,0.1999512,0.6501465,0.4399414H87.0910187z
					 M87.9411163,56.1286201c-0.0498047,0.1799316-0.3100586,0.2099609-0.4599609,0.2099609
					c-0.0800781,0-0.0898438-0.0200195-0.0898438-0.0200195c-0.0102539-0.0100098-0.0102539-0.0700684-0.0102539-0.1000977
					v-0.0598145c0-0.0400391,0-0.1201172-0.0097656-0.2102051c0.0898438,0.0400391,0.1899414,0.0800781,0.3098145,0.0800781
					c0.1101074,0,0.2102051-0.0400391,0.3000488-0.0800781C87.9711456,56.0185127,87.9611359,56.0785713,87.9411163,56.1286201z
					 M87.6811066,55.7785225c-0.1799316,0-0.3200684-0.0998535-0.3200684-0.2099609
					c0-0.1098633,0.1401367-0.1999512,0.3200684-0.1999512c0.170166,0,0.3100586,0.0900879,0.3100586,0.1999512
					C87.9911652,55.678669,87.8512726,55.7785225,87.6811066,55.7785225z"/>
				<path class="st7" d="M85.5512238,55.5685616c0,0.1101074-0.1501465,0.2099609-0.3200684,0.2099609
					s-0.3200684-0.0998535-0.3200684-0.2099609c0-0.1098633,0.1501465-0.1999512,0.3200684-0.1999512
					S85.5512238,55.4586983,85.5512238,55.5685616z"/>
				<path d="M85.5211945,56.1586494c0,0.0300293,0.0100098,0.0500488,0.0100098,0.079834v0.0900879
					c0,0-0.0200195,0.0100098-0.0900879,0.0100098c-0.1000977,0-0.4199219-0.0100098-0.4799805-0.2099609
					c-0.0200195-0.0500488-0.0200195-0.1101074-0.0300293-0.1801758c0.0900879,0.0400391,0.1901855,0.0800781,0.3000488,0.0800781
					s0.2099609-0.0400391,0.3000488-0.0800781C85.5312042,56.0385323,85.5211945,56.1186104,85.5211945,56.1586494z"/>
				<path class="st7" d="M87.9911652,55.5685616c0,0.1101074-0.1398926,0.2099609-0.3100586,0.2099609
					c-0.1799316,0-0.3200684-0.0998535-0.3200684-0.2099609c0-0.1098633,0.1401367-0.1999512,0.3200684-0.1999512
					C87.8512726,55.3686104,87.9911652,55.4586983,87.9911652,55.5685616z"/>
				<path d="M87.9811554,55.9484444c-0.0100098,0.0700684-0.0200195,0.130127-0.0400391,0.1801758
					c-0.0498047,0.1799316-0.3100586,0.2099609-0.4599609,0.2099609c-0.0800781,0-0.0898438-0.0200195-0.0898438-0.0200195
					c-0.0102539-0.0100098-0.0102539-0.0700684-0.0102539-0.1000977v-0.0598145c0-0.0400391,0-0.1201172-0.0097656-0.2102051
					c0.0898438,0.0400391,0.1899414,0.0800781,0.3098145,0.0800781
					C87.791214,56.0285225,87.8913116,55.9884834,87.9811554,55.9484444z"/>
				<path d="M87.0910187,55.4086494v0.6699219c-0.0698242,0.130127-0.25,0.3100586-0.6398926,0.3100586
					c-0.329834,0-0.5700684-0.1101074-0.6398926-0.3000488v-0.6899414c0.1599121,0.1398926,0.3898926,0.2199707,0.6398926,0.2199707
					S86.9311066,55.5385323,87.0910187,55.4086494z"/>
				<path class="st0" d="M87.1012726,54.9186592h-0.0102539v0.0200195
					c-0.0097656,0.2299805-0.2897949,0.4299316-0.6398926,0.4299316c-0.3498535,0-0.6398926-0.1999512-0.6398926-0.4499512
					c0-0.2399902,0.2900391-0.4399414,0.6398926-0.4399414C86.8012238,54.4787178,87.0910187,54.678669,87.1012726,54.9186592z"/>
			</g>
			<g>
				<path d="M87.1613998,59.2779007c0-0.0200195-0.0100098-0.0297852-0.0100098-0.0498047v-0.0100098
					c0-0.1000977-0.0400391-0.1999512-0.119873-0.2800293c-0.130127-0.1401367-0.3500977-0.2199707-0.5800781-0.2199707
					c-0.2399902,0-0.4499512,0.079834-0.5800781,0.2199707c-0.079834,0.0800781-0.1098633,0.1799316-0.119873,0.2800293H85.741478
					v0.0598145l0.1298828,2.2202148c0.0100098,0.2099609,0.2600098,0.3598633,0.5800781,0.3598633
					s0.5700684-0.1599121,0.5800781-0.3598633l0.1298828-2.1401367l-0.0100098-0.0600586
					C87.1613998,59.2879105,87.1613998,59.2779007,87.1613998,59.2779007z M86.781517,61.478096
					c0,0.0400391-0.130127,0.1298828-0.3300781,0.1298828c-0.2099609,0-0.3300781-0.0898438-0.3300781-0.1298828
					l-0.1098633-1.8000488h0.0100098c0.119873,0.0700684,0.2700195,0.1098633,0.4299316,0.1098633
					s0.3100586-0.0397949,0.4399414-0.1098633L86.781517,61.478096z M86.9013901,59.30793
					c-0.0400391,0.130127-0.2399902,0.2299805-0.4499512,0.2299805c-0.2199707,0-0.4001465-0.0998535-0.4599609-0.2399902
					v-0.0400391c0-0.0498047,0.0200195-0.0998535,0.0598145-0.1499023c0.0900879-0.0898438,0.2402344-0.1398926,0.4001465-0.1398926
					s0.3100586,0.0500488,0.4001465,0.1398926c0.0397949,0.0500488,0.0598145,0.1000977,0.0598145,0.1499023
					C86.9113998,59.2779007,86.9113998,59.2879105,86.9013901,59.30793z"/>
				<path class="st8" d="M86.9113998,59.2578812c0,0.0200195,0,0.0300293-0.0100098,0.0500488
					c-0.0400391,0.130127-0.2399902,0.2299805-0.4499512,0.2299805c-0.2199707,0-0.4001465-0.0998535-0.4599609-0.2399902
					v-0.0400391c0-0.0498047,0.0200195-0.0998535,0.0598145-0.1499023c0.0900879-0.0898438,0.2402344-0.1398926,0.4001465-0.1398926
					s0.3100586,0.0500488,0.4001465,0.1398926C86.8913803,59.1580276,86.9113998,59.2080765,86.9113998,59.2578812z"/>
				<path class="st0" d="M86.8913803,59.6780472L86.781517,61.478096c0,0.0400391-0.130127,0.1298828-0.3300781,0.1298828
					c-0.2099609,0-0.3300781-0.0898438-0.3300781-0.1298828l-0.1098633-1.8000488h0.0100098
					c0.119873,0.0700684,0.2700195,0.1098633,0.4299316,0.1098633S86.7614975,59.7481155,86.8913803,59.6780472z"/>
				<path d="M88.7214584,59.4480667c-0.130127-0.1401367-0.3500977-0.2299805-0.5800781-0.2299805
					s-0.4399414,0.079834-0.579834,0.2199707c-0.0700684,0.0898438-0.1101074,0.1899414-0.1201172,0.2900391l-0.0100098,0.0598145
					l0.130127,2.2199707c0.0200195,0.2102051,0.2597656,0.3601074,0.579834,0.3601074s0.5700684-0.1599121,0.5800781-0.3601074
					l0.130127-2.1398926V59.80793c0-0.0100098,0-0.0200195,0-0.0200195V59.728096
					C88.8413315,59.6279984,88.8012924,59.5279007,88.7214584,59.4480667z M88.4714584,61.9878616
					c0,0.0400391-0.119873,0.130127-0.3300781,0.130127c-0.2099609,0-0.3200684-0.0900879-0.329834-0.130127l-0.1000977-1.7998047
					c0.1201172,0.0698242,0.2700195,0.1098633,0.4299316,0.1098633c0.170166,0,0.3200684-0.0400391,0.4401855-0.1098633
					L88.4714584,61.9878616z M88.6015854,59.8179398c-0.050293,0.130127-0.25,0.2299805-0.4602051,0.2299805
					c-0.2099609,0-0.3999023-0.0998535-0.4499512-0.2399902c-0.0100098-0.0100098-0.0100098-0.0300293-0.0100098-0.0397949
					c0-0.0500488,0.0200195-0.1101074,0.0700684-0.1501465c0.0800781-0.0900879,0.2299805-0.1499023,0.3898926-0.1499023
					s0.3200684,0.0598145,0.4001465,0.1499023c0.0498047,0.0500488,0.0698242,0.1000977,0.0600586,0.1501465V59.8179398z"/>
				<path class="st8" d="M88.6015854,59.7681351v0.0498047c-0.050293,0.130127-0.25,0.2299805-0.4602051,0.2299805
					c-0.2099609,0-0.3999023-0.0998535-0.4499512-0.2399902c-0.0100098-0.0100098-0.0100098-0.0300293-0.0100098-0.0397949
					c0-0.0500488,0.0200195-0.1101074,0.0700684-0.1501465c0.0800781-0.0900879,0.2299805-0.1499023,0.3898926-0.1499023
					s0.3200684,0.0598145,0.4001465,0.1499023C88.5913315,59.6680374,88.611351,59.7180862,88.6015854,59.7681351z"/>
				<path class="st0" d="M88.5815659,60.1880569l-0.1101074,1.7998047c0,0.0400391-0.119873,0.130127-0.3300781,0.130127
					c-0.2099609,0-0.3200684-0.0900879-0.329834-0.130127l-0.1000977-1.7998047
					c0.1201172,0.0698242,0.2700195,0.1098633,0.4299316,0.1098633
					C88.3115463,60.2979202,88.4614487,60.2578812,88.5815659,60.1880569z"/>
				<path d="M85.4614487,59.7378616V59.728096c-0.0100098-0.1000977-0.0500488-0.2001953-0.1201172-0.2800293
					c-0.1398926-0.1401367-0.3498535-0.2299805-0.579834-0.2299805c-0.2399902,0-0.4499512,0.079834-0.5800781,0.2199707
					c-0.079834,0.0898438-0.119873,0.1899414-0.119873,0.2900391l-0.0102539,0.0598145l0.130127,2.2199707
					c0.0100098,0.2001953,0.25,0.3601074,0.5800781,0.3601074c0.3200684,0,0.5598145-0.1599121,0.579834-0.3601074
					l0.1201172-2.1398926V59.80793c0,0,0.0100098-0.0100098,0.0100098-0.0200195
					C85.4714584,59.7681351,85.4614487,59.7578812,85.4614487,59.7378616z M85.0913315,61.9878616
					c-0.0097656,0.0400391-0.1298828,0.130127-0.329834,0.130127c-0.2199707,0-0.3300781-0.0900879-0.3300781-0.130127
					l-0.1101074-1.7998047c0.1201172,0.0698242,0.2700195,0.1098633,0.4401855,0.1098633
					c0.1599121,0,0.3098145-0.0400391,0.4299316-0.1098633L85.0913315,61.9878616z M85.2114487,59.8179398
					c-0.0500488,0.130127-0.2399902,0.2299805-0.4499512,0.2299805c-0.2199707,0-0.4099121-0.0998535-0.4602051-0.2399902
					v-0.0397949c-0.0097656-0.0500488,0.0102539-0.1101074,0.0600586-0.1501465
					c0.0800781-0.0900879,0.2299805-0.1499023,0.4001465-0.1499023c0.1599121,0,0.3098145,0.0598145,0.3898926,0.1499023
					c0.0500488,0.0500488,0.0700684,0.1000977,0.0700684,0.1501465
					C85.2214584,59.7879105,85.2214584,59.7979202,85.2114487,59.8179398z M85.0913315,61.9878616
					c-0.0097656,0.0400391-0.1298828,0.130127-0.329834,0.130127c-0.2199707,0-0.3300781-0.0900879-0.3300781-0.130127
					l-0.1101074-1.7998047c0.1201172,0.0698242,0.2700195,0.1098633,0.4401855,0.1098633
					c0.1599121,0,0.3098145-0.0400391,0.4299316-0.1098633L85.0913315,61.9878616z M85.2114487,59.8179398
					c-0.0500488,0.130127-0.2399902,0.2299805-0.4499512,0.2299805c-0.2199707,0-0.4099121-0.0998535-0.4602051-0.2399902
					v-0.0397949c-0.0097656-0.0500488,0.0102539-0.1101074,0.0600586-0.1501465
					c0.0800781-0.0900879,0.2299805-0.1499023,0.4001465-0.1499023c0.1599121,0,0.3098145,0.0598145,0.3898926,0.1499023
					c0.0500488,0.0500488,0.0700684,0.1000977,0.0700684,0.1501465
					C85.2214584,59.7879105,85.2214584,59.7979202,85.2114487,59.8179398z M85.0913315,61.9878616
					c-0.0097656,0.0400391-0.1298828,0.130127-0.329834,0.130127c-0.2199707,0-0.3300781-0.0900879-0.3300781-0.130127
					l-0.1101074-1.7998047c0.1201172,0.0698242,0.2700195,0.1098633,0.4401855,0.1098633
					c0.1599121,0,0.3098145-0.0400391,0.4299316-0.1098633L85.0913315,61.9878616z M85.2114487,59.8179398
					c-0.0500488,0.130127-0.2399902,0.2299805-0.4499512,0.2299805c-0.2199707,0-0.4099121-0.0998535-0.4602051-0.2399902
					v-0.0397949c-0.0097656-0.0500488,0.0102539-0.1101074,0.0600586-0.1501465
					c0.0800781-0.0900879,0.2299805-0.1499023,0.4001465-0.1499023c0.1599121,0,0.3098145,0.0598145,0.3898926,0.1499023
					c0.0500488,0.0500488,0.0700684,0.1000977,0.0700684,0.1501465
					C85.2214584,59.7879105,85.2214584,59.7979202,85.2114487,59.8179398z M85.0913315,61.9878616
					c-0.0097656,0.0400391-0.1298828,0.130127-0.329834,0.130127c-0.2199707,0-0.3300781-0.0900879-0.3300781-0.130127
					l-0.1101074-1.7998047c0.1201172,0.0698242,0.2700195,0.1098633,0.4401855,0.1098633
					c0.1599121,0,0.3098145-0.0400391,0.4299316-0.1098633L85.0913315,61.9878616z M85.2114487,59.8179398
					c-0.0500488,0.130127-0.2399902,0.2299805-0.4499512,0.2299805c-0.2199707,0-0.4099121-0.0998535-0.4602051-0.2399902
					v-0.0397949c-0.0097656-0.0500488,0.0102539-0.1101074,0.0600586-0.1501465
					c0.0800781-0.0900879,0.2299805-0.1499023,0.4001465-0.1499023c0.1599121,0,0.3098145,0.0598145,0.3898926,0.1499023
					c0.0500488,0.0500488,0.0700684,0.1000977,0.0700684,0.1501465
					C85.2214584,59.7879105,85.2214584,59.7979202,85.2114487,59.8179398z"/>
				<path class="st8" d="M85.2214584,59.7681351c0,0.0197754,0,0.0297852-0.0100098,0.0498047
					c-0.0500488,0.130127-0.2399902,0.2299805-0.4499512,0.2299805c-0.2199707,0-0.4099121-0.0998535-0.4602051-0.2399902
					v-0.0397949c-0.0097656-0.0500488,0.0102539-0.1101074,0.0600586-0.1501465
					c0.0800781-0.0900879,0.2299805-0.1499023,0.4001465-0.1499023c0.1599121,0,0.3098145,0.0598145,0.3898926,0.1499023
					C85.2014389,59.6680374,85.2214584,59.7180862,85.2214584,59.7681351z"/>
				<path class="st0" d="M85.1914291,60.1880569l-0.1000977,1.7998047c-0.0097656,0.0400391-0.1298828,0.130127-0.329834,0.130127
					c-0.2199707,0-0.3300781-0.0900879-0.3300781-0.130127l-0.1101074-1.7998047
					c0.1201172,0.0698242,0.2700195,0.1098633,0.4401855,0.1098633
					C84.9214096,60.2979202,85.071312,60.2578812,85.1914291,60.1880569z"/>
			</g>
			<ellipse cx="86.4550018" cy="74.4614563" rx="1.5576923" ry="1.3086215"/>
		</g>
	</g>
</g>
</svg>
