<?xml version="1.0" encoding="utf-8"?>
<!-- Generator: Adobe Illustrator 27.6.1, SVG Export Plug-In . SVG Version: 6.00 Build 0)  -->
<svg version="1.1" id="Layer_1" xmlns="http://www.w3.org/2000/svg" xmlns:xlink="http://www.w3.org/1999/xlink" x="0px" y="0px"
	 viewBox="0 0 172.91 90" style="enable-background:new 0 0 172.91 90;" xml:space="preserve">
<style type="text/css">
	.st0{fill:#888888;}
	.st1{fill:#72C6EF;}
	.st2{fill:#F79420;}
	.st3{fill:#FFFFFF;}
	.st4{fill:#333366;}
	.st5{fill:#3751A0;}
	.st6{fill:#BABABA;}
	.st7{fill:#BC202E;}
</style>
<g>
	<path class="st0" d="M82.98,79.63l0.01,0.02l0.33-0.19l4.97-2.86l-0.01-0.02c0.11-0.06,0.22-0.12,0.33-0.19l1.58-0.91l36.45-21.04
		V53.2l-1.24-0.53c-0.29,0.18-0.61,0.35-0.93,0.56c-0.35,0.2-0.73,0.43-1.1,0.66c-0.38,0.23-0.78,0.44-1.19,0.67
		c-0.81,0.46-1.68,0.95-2.52,1.45c-0.41,0.23-0.84,0.46-1.25,0.69c-0.14,0.35-0.26,0.7-0.49,1.05c-0.35,0.57-0.78,1.1-1.27,1.53
		c-0.09,0.09-0.21,0.17-0.29,0.23c-0.09,0.09-0.21,0.15-0.29,0.21c-0.12,0.08-0.21,0.14-0.32,0.2c-0.49,0.29-0.96,0.43-1.39,0.46
		c-0.23,0-0.44-0.03-0.64-0.09c-0.12-0.02-0.2-0.05-0.35-0.14c0,0-0.14-0.09-0.2-0.12c0,0-1.33-0.78-1.39-0.81
		c0,0-0.44-0.26-0.49-0.29c-0.03-0.03-0.06-0.06-0.09-0.06c-0.23-0.2-0.29-0.28-0.38-0.37c-0.03-0.06-0.06-0.12-0.08-0.18
		c-0.12-0.17-0.18-0.34-0.24-0.55c0-0.02-0.03-0.08-0.03-0.11l-2.37,1.37L86.6,71.46c0.06,0.14,0.12,0.26,0.17,0.43
		c0.03,0.09,0.06,0.23,0.09,0.32c0.03,0.12,0.03,0.26,0.03,0.41c0.03,0.08,0.03,0.23,0.03,0.37c0,0.61-0.12,1.31-0.35,2.03
		c-0.2,0.6-0.46,1.19-0.79,1.73c-0.05,0.09-0.1,0.18-0.16,0.27c-0.41,0.61-0.85,1.19-1.4,1.71c-0.26,0.26-0.58,0.51-0.91,0.71
		C83.2,79.51,83.09,79.57,82.98,79.63z"/>
	<path class="st0" d="M47.53,79.86L65.09,90l17.9-10.35l-0.01-0.02c-0.44,0.23-0.99,0.43-1.48,0.43c-0.23,0-0.46,0-0.69-0.11
		c-0.15-0.09-0.29-0.12-0.44-0.21c-0.17-0.08-0.32-0.2-0.49-0.29c-0.41-0.23-0.84-0.43-1.22-0.69c-0.09-0.03-0.17-0.09-0.26-0.15
		c-0.09-0.02-0.23-0.11-0.32-0.2c-0.11-0.11-0.2-0.23-0.29-0.32c-0.03,0-0.03-0.03-0.11-0.2c-0.12-0.17-0.21-0.38-0.26-0.67
		c-0.03-0.08-0.06-0.2-0.09-0.31c-0.03-0.03-0.03-0.06-0.03-0.09l-2.93,1.74l-1.21,0.72L72.2,78.7l-0.9-0.52l-0.17-0.09l-1.45-0.84
		c-0.05-0.03-1.14-0.65-1.33-0.76l-3.49,2.01l-2.18,1.27l-0.01-0.01l-2.14-1.24l-3.86-2.23l-1.46-0.86h-0.03l-4.55,2.63L47.53,79.86
		z"/>
	<path d="M46.27,70.29c0.06,0.03,3.36,1.94,3.36,1.94l1.51,0.87l4.03,2.32h0.03l0.01,0.01l1.46,0.86l3.86,2.23l2.14,1.24l2.17-1.27
		l3.48-2.02c0,0,0.01,0.01,0.03,0.02c0.19,0.11,1.28,0.73,1.33,0.76l1.45,0.84l0.17,0.09l0.9,0.52l0.96,0.58l1.21-0.72l2.93-1.74
		c0,0.03,0,0.06,0.03,0.09c0.03,0.11,0.06,0.23,0.09,0.31c0.05,0.29,0.14,0.5,0.26,0.67c0.08,0.17,0.08,0.2,0.11,0.2
		c0.09,0.09,0.18,0.21,0.29,0.32c0.09,0.09,0.23,0.18,0.32,0.2c0.09,0.06,0.17,0.12,0.26,0.15c0.38,0.26,0.81,0.46,1.22,0.69
		c0.17,0.09,0.32,0.21,0.49,0.29c0.15,0.09,0.29,0.12,0.44,0.21c0.23,0.11,0.46,0.11,0.69,0.11c0.49,0,1.04-0.2,1.48-0.43
		c0.11-0.06,0.22-0.12,0.33-0.19c0.33-0.2,0.65-0.45,0.91-0.71c0.55-0.52,0.99-1.1,1.4-1.71c0.06-0.09,0.11-0.18,0.16-0.27
		c0.33-0.54,0.59-1.13,0.79-1.73c0.23-0.72,0.35-1.42,0.35-2.03c0-0.14,0-0.29-0.03-0.37c0-0.15,0-0.29-0.03-0.41
		c-0.03-0.09-0.06-0.23-0.09-0.32c-0.05-0.17-0.11-0.29-0.17-0.43l21.5-12.43l2.37-1.37c0,0.03,0.03,0.09,0.03,0.11
		c0.06,0.21,0.12,0.38,0.24,0.55c0.02,0.06,0.05,0.12,0.08,0.18c0.09,0.09,0.15,0.17,0.38,0.37c0.03,0,0.06,0.03,0.09,0.06
		c0.05,0.03,0.49,0.29,0.49,0.29c0.06,0.03,1.39,0.81,1.39,0.81c0.06,0.03,0.2,0.12,0.2,0.12c0.15,0.09,0.23,0.12,0.35,0.14
		c0.2,0.06,0.41,0.09,0.64,0.09c0.43-0.03,0.9-0.17,1.39-0.46c0.11-0.06,0.2-0.12,0.32-0.2c0.08-0.06,0.2-0.12,0.29-0.21
		c0.08-0.06,0.2-0.14,0.29-0.23c0.49-0.43,0.92-0.96,1.27-1.53c0.23-0.35,0.35-0.7,0.49-1.05c0.41-0.23,0.84-0.46,1.25-0.69
		c0.84-0.5,1.71-0.99,2.52-1.45c0.41-0.23,0.81-0.44,1.19-0.67c0.37-0.23,0.75-0.46,1.1-0.66c0.32-0.21,0.64-0.38,0.93-0.56
		c0.02,0,0.02-0.02,0.05-0.02c0.21-0.15,0.44-0.26,0.64-0.38l0.55-0.29v-4.46l-2.95-1.74V42.1l-0.73-2.43l-1.53-5.28l-0.12-0.4
		l-14.51-8.35l-2.18-1.24l-2.14,1.21l-4.64,2.7l-0.63-0.38l-0.99-0.58l-0.26,0.18l-0.23,0.11l-0.76,0.47l-0.49,0.29l-1.1-0.61
		l-2.69,1.56v12.87L46.33,67.83C46.27,67.86,46.27,70.29,46.27,70.29z"/>
	<g>
		<polygon class="st0" points="57.34,74.17 58.85,75.04 99.55,51.43 99.58,51.43 98.1,50.59 		"/>
		<polygon class="st0" points="51.84,70.99 53.31,71.85 94.13,48.27 92.72,47.43 92.69,47.43 		"/>
		<polygon class="st1" points="111.63,39.9 109.2,41.32 109.2,41.46 119.49,35.52 119.46,35.44 104.65,26.89 100.02,29.55 
			111.66,36.33 111.66,39.9 		"/>
		<path class="st2" d="M109.2,38.86v0.58l1.25-0.7v-0.61l-0.12,0.06l-0.2,0.14L109.2,38.86z M105.2,34.57l4,2.29v0.12l0.52-0.32
			l-4.03-2.38h-0.03L105.2,34.57z"/>
		<polygon class="st3" points="104.86,33.82 104.4,34.08 100.92,32.08 101.38,31.82 		"/>
		<path class="st0" d="M117.52,55.2c0.03-0.06,0.03-0.09,0.03-0.14l-0.06-0.52c-0.03-0.14-0.12-0.29-0.2-0.38
			c0-0.03,0-0.03-0.06-0.06c0-0.03-0.03-0.09-0.06-0.09c-0.03-0.03-0.03-0.03-0.06-0.03c0,0,0-0.03-0.03-0.03l-0.03-0.03
			c-0.03-0.03-0.06-0.06-0.09-0.06h-0.03c0,0,0,0-0.03,0v-0.03h-0.03c-0.09-0.03-0.17-0.06-0.26-0.06h-0.12
			c-0.09,0-0.14,0.03-0.23,0.06c-0.14,0.03-0.32,0.09-0.49,0.2h-0.03l-0.29,0.2l-0.2,0.12c-0.26,0.23-0.49,0.52-0.7,0.84
			c-0.17,0.29-0.35,0.61-0.43,0.96c-0.09,0.2-0.12,0.41-0.12,0.61c-0.06,0.12-0.06,0.23-0.06,0.35v0.03l0.09,0.49
			c0.03,0.09,0.06,0.17,0.09,0.23l0.03,0.03c0,0.06,0.03,0.09,0.06,0.15c0.03,0.03,0.06,0.09,0.09,0.12l0.09,0.06c0,0,0,0,0.03,0.03
			h0.03l0.03,0.03c0.06,0.03,0.09,0.06,0.14,0.06c0.06,0.03,0.14,0.06,0.2,0.03c0.03,0,0.03,0,0.03,0h0.03l0.06,0.03H115
			c0,0,0,0,0.03,0c0,0,0,0,0.03,0h0.06c0.09,0,0.17-0.03,0.29-0.09c0.12,0,0.23-0.06,0.35-0.14l0.49-0.35
			c0.23-0.2,0.43-0.43,0.61-0.7c0.03-0.03,0.06-0.09,0.06-0.12s0-0.03,0-0.03c0.23-0.29,0.38-0.64,0.46-0.96
			C117.46,55.75,117.52,55.46,117.52,55.2z M116.27,55.14c0,0.12-0.03,0.26-0.06,0.38c-0.03,0.12-0.12,0.29-0.2,0.41
			c0,0.03-0.03,0.06-0.03,0.06c-0.09,0.12-0.17,0.23-0.26,0.32l-0.23,0.14c-0.03,0.03-0.09,0.06-0.14,0.06
			c-0.06,0.03-0.09,0.03-0.12,0.03h-0.03c-0.03,0-0.03,0-0.03,0h-0.06c0,0,0,0-0.03,0c0,0-0.06,0-0.09-0.03c0,0-0.03,0-0.06,0v-0.03
			h-0.03l-0.03-0.03c-0.03-0.03-0.03-0.03-0.06-0.06c0-0.03-0.03-0.03-0.03-0.06V56.3c0,0-0.03-0.06-0.03-0.09l-0.06-0.2h0v-0.03
			c0-0.06,0-0.09,0.03-0.14c0-0.09,0.03-0.17,0.06-0.26c0.03-0.17,0.12-0.29,0.2-0.43c0.09-0.12,0.17-0.26,0.29-0.35l0.09-0.06
			l0.12-0.09h0.03c0.06-0.06,0.14-0.09,0.2-0.09c0.06-0.03,0.06-0.03,0.12-0.03h0.03c0.06,0,0.09,0,0.12,0.03h0.06l0.03,0.03v0.03
			c0.03,0,0.03,0,0.03,0s0,0,0.03,0c0,0,0.03,0.03,0.03,0.06c0.03,0,0.03,0,0.03,0.03c0.03,0.03,0.06,0.09,0.09,0.14v0.23
			C116.27,55.12,116.27,55.12,116.27,55.14z"/>
		<path class="st0" d="M82.55,77.98v-0.03h0.12c0,0,0,0,0.03,0c0.15-0.03,0.29-0.09,0.43-0.2c0.06-0.03,0.12-0.03,0.17-0.12h0.03
			c0.06-0.06,0.12-0.09,0.17-0.12h0.03c0.09-0.09,0.12-0.14,0.2-0.17c0.29-0.29,0.55-0.61,0.78-0.93c0.03-0.09,0.06-0.12,0.09-0.14
			c0.23-0.38,0.43-0.81,0.58-1.22c0.09-0.23,0.14-0.52,0.17-0.75c0.03-0.17,0.03-0.32,0.03-0.46c0-0.09,0-0.12-0.03-0.2
			c0-0.06,0-0.17-0.03-0.23c0-0.06,0-0.15-0.03-0.2c0-0.03-0.03-0.09-0.06-0.14c0-0.03-0.03-0.03-0.06-0.06
			c0-0.09-0.03-0.14-0.06-0.17c-0.03,0-0.03-0.03-0.03-0.03c-0.09-0.14-0.17-0.26-0.29-0.32c0,0,0,0-0.03,0
			c-0.03-0.03-0.06-0.09-0.09-0.09c0,0,0,0-0.03,0l-0.03-0.03c0,0,0-0.03-0.03-0.03c0,0,0,0-0.03,0c-0.03-0.03-0.06-0.03-0.09-0.03
			s-0.06,0-0.06,0c-0.03,0-0.03,0-0.06,0h-0.03c-0.06-0.03-0.12-0.03-0.17-0.03h-0.14c-0.12,0-0.17,0.03-0.29,0.03
			c-0.06,0-0.12,0.03-0.17,0.06c0,0,0,0-0.03,0c-0.06,0.03-0.12,0.09-0.2,0.12H83.3c-0.06,0-0.12,0.03-0.17,0.06
			s-0.14,0.12-0.2,0.15c-0.09,0.06-0.14,0.12-0.2,0.17c-0.09,0.03-0.14,0.12-0.2,0.17c-0.35,0.26-0.64,0.64-0.87,1.04
			c-0.26,0.38-0.46,0.75-0.58,1.19h-0.03c-0.12,0.43-0.2,0.84-0.2,1.22v0.17h0.03v0.2l0.03,0.03c0.03,0.09,0.03,0.15,0.06,0.2
			c0.03,0.12,0.06,0.26,0.12,0.32c0,0.03,0.03,0.03,0.03,0.03c0,0.03,0,0.09,0.03,0.12c0.03,0,0.06,0.03,0.06,0.06
			c0.03,0.03,0.03,0.03,0.03,0.03c0.03,0.09,0.06,0.09,0.09,0.12v0.03h0.03v0.03c0.03,0.06,0.06,0.06,0.06,0.06h0.03v0.03
			c0.03,0.03,0.06,0.03,0.09,0.03h0.03c0,0,0.03,0,0.06,0.03c0,0,0.03,0,0.06,0v0.03c0,0,0.03,0.03,0.09,0.03
			c0.03,0,0.09,0.06,0.14,0.06c0.06,0.03,0.09,0.03,0.17,0.03h0.03c0,0,0.03,0,0.06,0c0,0,0,0,0.03,0
			C82.32,78.1,82.4,78.07,82.55,77.98z M82.52,76.3c-0.09,0.06-0.14,0.06-0.2,0.06c-0.03,0-0.03,0-0.03,0h-0.03
			c-0.06,0-0.06,0-0.12,0c-0.03,0-0.06-0.03-0.06-0.03c-0.03,0-0.06-0.03-0.06-0.03H82c0-0.03-0.03-0.03-0.03-0.03
			c-0.03,0-0.06,0-0.06,0v-0.03h-0.03c0,0,0,0-0.03-0.03v-0.03c-0.03,0-0.03,0-0.06-0.06c0,0,0,0,0-0.03l-0.03-0.03
			c-0.03,0-0.03-0.03-0.03-0.06c-0.03-0.03-0.06-0.12-0.09-0.17c0-0.03,0-0.06-0.03-0.12v-0.12h-0.03h0h0v-0.09
			c0-0.2,0.06-0.43,0.12-0.67h0.03c0.06-0.23,0.14-0.41,0.29-0.61c0.12-0.23,0.29-0.43,0.46-0.55c0.03-0.06,0.06-0.09,0.12-0.12
			c0.03-0.03,0.06-0.06,0.12-0.09c0.03,0,0.06-0.06,0.09-0.09c0.03,0,0.06-0.03,0.09-0.03h0.03c0.06,0,0.09-0.03,0.12-0.06
			c0.03,0,0.06-0.03,0.09-0.03h0.35c0.03,0,0.03,0,0.03,0h0.03c0.03,0,0.03,0,0.06,0.03c0.03,0,0.03,0,0.03,0v0.03
			c0.03,0,0.03,0,0.03,0s0.03,0.03,0.06,0.03c0.06,0.03,0.12,0.12,0.14,0.17c0,0,0,0.03,0.03,0.03c0,0,0.03,0.03,0.03,0.09
			c0.03,0.03,0.03,0.03,0.03,0.03c0.03,0.03,0.03,0.06,0.03,0.09C84,73.81,84,73.84,84,73.87v0.15c0.03,0.03,0.03,0.06,0.03,0.09
			c0,0.09,0,0.17-0.03,0.26c0,0.12-0.03,0.26-0.09,0.41c-0.09,0.2-0.17,0.43-0.32,0.64c0,0-0.03,0.03-0.03,0.09
			c-0.12,0.15-0.26,0.32-0.43,0.49c-0.03,0-0.06,0.03-0.09,0.09h-0.03c-0.03,0-0.06,0.03-0.09,0.06H82.9
			c-0.03,0.06-0.06,0.06-0.09,0.06c-0.06,0.06-0.14,0.09-0.23,0.12H82.52z"/>
		<polygon class="st4" points="110.65,43.21 110.65,47.73 118.01,43.87 116.74,39.67 		"/>
		<polygon class="st5" points="97.15,37.07 101.41,39.51 101.41,42.26 97.15,39.83 		"/>
		<path class="st5" d="M115.69,49.58c0.61,0.35,0.96,0.96,1.04,1.65c-0.03-0.03-0.06-0.06-0.09-0.06c-0.06-0.03-0.14-0.03-0.23-0.03
			c-0.2,0-0.41,0.06-0.64,0.14c-0.26,0.06-0.52,0.17-0.78,0.32c-0.09,0.06-0.2,0.12-0.29,0.2c-0.09,0.06-0.2,0.14-0.29,0.2
			c-0.09,0.09-0.2,0.17-0.29,0.26c-0.49,0.43-0.96,0.99-1.3,1.54l-1.22,0.7l-0.93,0.55l-1.48,0.87v-3.88l4.32-2.46
			C114.19,49.18,115.03,49.18,115.69,49.58z"/>
		<path class="st5" d="M109.2,41.46v8.08l3.22-1.85c0.49-0.29,1.01-0.46,1.54-0.55c0.96-0.17,1.94,0.03,2.84,0.55
			c0.87,0.49,1.54,1.25,1.85,2.17c0.09,0.14,0.14,0.29,0.17,0.43l0.29-0.17h0.03l2.38-1.33v-5.71l-2.03-7.56L109.2,41.46z
			 M110.65,43.2l6.08-3.53l1.27,4.2l-7.36,3.85V43.2z"/>
		<path class="st6" d="M123.69,50.02v-1.71l0.78,0.46v1.94c-1.62,0.93-3.51,2.03-5.39,3.13c0-0.12-0.03-0.23-0.03-0.32
			c-0.03-0.12-0.06-0.23-0.09-0.32c-0.06-0.14-0.09-0.26-0.14-0.38l2.69-1.56L123.69,50.02z"/>
		<path class="st6" d="M114.8,55.58c0.03-0.17,0.12-0.29,0.2-0.43c0.09-0.12,0.17-0.26,0.29-0.35l0.09-0.06l0.12-0.09h0.03
			c0.06-0.06,0.14-0.09,0.2-0.09c0.06-0.03,0.06-0.03,0.12-0.03h0.03c0.06,0,0.09,0,0.12,0.03h0.06l0.03,0.03v0.03
			c0.03,0,0.03,0,0.03,0s0,0,0.03,0c0,0,0.03,0.03,0.03,0.06c0.03,0,0.03,0,0.03,0.03c0.03,0.03,0.06,0.09,0.09,0.14v0.23
			c0,0.03,0,0.03,0,0.06c0,0.12-0.03,0.26-0.06,0.38c-0.03,0.12-0.12,0.29-0.2,0.41c0,0.03-0.03,0.06-0.03,0.06
			c-0.09,0.12-0.17,0.23-0.26,0.32l-0.23,0.14c-0.03,0.03-0.09,0.06-0.14,0.06c-0.06,0.03-0.09,0.03-0.12,0.03h-0.03
			c-0.03,0-0.03,0-0.03,0h-0.06c0,0,0,0-0.03,0c0,0-0.06,0-0.09-0.03c0,0-0.03,0-0.06,0v-0.03h-0.03l-0.03-0.03
			c-0.03-0.03-0.03-0.03-0.06-0.06c0-0.03-0.03-0.03-0.03-0.06V56.3c0,0-0.03-0.06-0.03-0.09l-0.06-0.23c0-0.06,0-0.09,0.03-0.14
			C114.74,55.75,114.77,55.67,114.8,55.58z"/>
		<path class="st6" d="M81.74,74.86c0.06-0.23,0.14-0.41,0.29-0.61c0.12-0.23,0.29-0.43,0.46-0.55c0.03-0.06,0.06-0.09,0.12-0.12
			c0.03-0.03,0.06-0.06,0.12-0.09c0.03,0,0.06-0.06,0.09-0.09c0.03,0,0.06-0.03,0.09-0.03h0.03c0.06,0,0.09-0.03,0.12-0.06
			c0.03,0,0.06-0.03,0.09-0.03h0.35c0.03,0,0.03,0,0.03,0h0.03c0.03,0,0.03,0,0.06,0.03c0.03,0,0.03,0,0.03,0v0.03
			c0.03,0,0.03,0,0.03,0s0.03,0.03,0.06,0.03c0.06,0.03,0.12,0.12,0.14,0.17c0,0,0,0.03,0.03,0.03c0,0,0.03,0.03,0.03,0.09
			c0.03,0.03,0.03,0.03,0.03,0.03c0.03,0.03,0.03,0.06,0.03,0.09C84,73.81,84,73.84,84,73.87v0.15c0.03,0.03,0.03,0.06,0.03,0.09
			c0,0.09,0,0.17-0.03,0.26c0,0.12-0.03,0.26-0.09,0.41c-0.09,0.2-0.17,0.43-0.32,0.64c0,0-0.03,0.03-0.03,0.09
			c-0.12,0.14-0.26,0.32-0.43,0.49c-0.03,0-0.06,0.03-0.09,0.09h-0.03c-0.03,0-0.06,0.03-0.09,0.06H82.9
			c-0.03,0.06-0.06,0.06-0.09,0.06c-0.06,0.06-0.14,0.09-0.23,0.12h-0.06c-0.09,0.06-0.14,0.06-0.2,0.06c-0.03,0-0.03,0-0.03,0
			h-0.03c-0.06,0-0.06,0-0.12,0c-0.03,0-0.06-0.03-0.06-0.03c-0.03,0-0.06-0.03-0.06-0.03H82c0-0.03-0.03-0.03-0.03-0.03
			c-0.03,0-0.06,0-0.06,0v-0.03h-0.03c0,0,0,0-0.03-0.03v-0.03c-0.03,0-0.03,0-0.06-0.06c0,0,0,0,0-0.03l-0.03-0.03
			c-0.03,0-0.03-0.03-0.03-0.06c-0.03-0.03-0.06-0.12-0.09-0.17c0-0.03,0-0.06-0.03-0.12v-0.12h-0.03v-0.09
			c0-0.2,0.06-0.43,0.12-0.67H81.74z"/>
		<path d="M96.42,35.84v4.4l5.71,3.24v-4.37L96.42,35.84z M97.15,37.09l1.19,0.7l3.07,1.74v2.75l-4.26-2.43V37.09z"/>
		<polygon points="95.44,43.67 95.44,43.67 95.44,43.67 		"/>
		<rect x="95.45" y="43.67" width="0" height="0.02"/>
		<polygon points="95.44,43.67 95.44,43.67 95.44,43.67 		"/>
	</g>
	<polygon class="st2" points="96.11,29.32 97.64,30.19 98.28,30.57 100.05,31.58 100.51,31.32 98.74,30.28 98.13,29.93 96.6,29.03 	
		"/>
	<polygon class="st5" points="72.2,74.24 72.2,76.21 71.8,75.98 71.4,75.75 71.4,74.7 	"/>
	<polygon class="st7" points="71.4,74.7 71.4,75.75 70.49,75.22 	"/>
	<path class="st6" d="M92.86,29.96v12.6l2.26,1.3l0.06-0.03l0.26-0.17l0.78-0.43l7.16,4.08v1.33l0.67,0.38l2.98,1.71v-12.6
		L92.86,29.96z M96.42,35.84l5.71,3.27v4.37l-5.71-3.24V35.84z"/>
	<polygon class="st6" points="93.35,46.19 93.35,47 99.26,50.44 99.26,49.63 	"/>
	<polygon class="st6" points="93.64,45.52 99.61,49.02 100.42,48.56 101.87,47.69 102.25,47.49 96.22,44.04 95.87,44.24 94.4,45.08 
			"/>
	<polygon class="st6" points="48.5,69.07 51.84,70.99 92.69,47.43 92.63,47.4 92.63,45.29 93.67,44.71 92.14,43.87 90.69,44.71 	"/>
	<polygon class="st6" points="53.31,71.85 57.34,74.17 98.1,50.59 96.8,49.81 94.13,48.27 	"/>
	<polygon class="st6" points="58.85,75.04 62.7,77.27 71.48,72.17 73.65,70.93 77.5,68.7 79.68,67.42 106.3,52.01 104.04,50.7 
		102.59,49.86 99.73,51.54 99.7,51.52 99.58,51.43 99.55,51.43 	"/>
	<path class="st5" d="M74.37,72.99v3.01l5.3-3.07c0.06-0.12,0.12-0.2,0.17-0.32c0.43-0.7,0.96-1.33,1.54-1.85
		c0.12-0.12,0.26-0.2,0.38-0.26c0.12-0.12,0.2-0.2,0.32-0.29c0.12-0.09,0.26-0.17,0.38-0.23c0.64-0.35,1.25-0.55,1.77-0.55
		c0.26,0.03,0.46,0.06,0.67,0.12c0.14,0.03,0.26,0.12,0.38,0.17l21.76-12.55v-3.04L76.72,71.63L74.37,72.99z"/>
</g>
</svg>
