<?xml version="1.0" encoding="utf-8"?>
<!-- Generator: Adobe Illustrator 27.6.1, SVG Export Plug-In . SVG Version: 6.00 Build 0)  -->
<svg version="1.1" id="Layer_1" xmlns="http://www.w3.org/2000/svg" xmlns:xlink="http://www.w3.org/1999/xlink" x="0px" y="0px"
	 viewBox="0 0 172.9100037 90" style="enable-background:new 0 0 172.9100037 90;" xml:space="preserve">
<style type="text/css">
	.st0{fill:#0E3198;}
	.st1{fill:#EEDE26;}
	.st2{fill:#EE0000;}
	.st3{fill:#D1ECF2;}
	.st4{fill:#A9DDE9;}
	.st5{fill:#CCCCCC;}
	.st6{fill:#B3A71C;}
	.st7{fill:#888888;}
	.st8{fill:#BABABA;}
	.st9{fill:#9697CA;}
	.st10{fill:#3751A0;}
	.st11{fill:#72C6EF;}
	.st12{fill:#F79420;}
	.st13{fill:#FFFFFF;}
	.st14{clip-path:url(#SVGID_00000030479704756718241680000002672681338468548255_);}
	.st15{fill:#FF0000;}
	.st16{fill:#333333;}
	.st17{fill:#1A1A1A;}
</style>
<g>
	<g>
		<g>
			<g>
				<path class="st0" d="M91.5399628,19.6743259c-0.0108795,0.2282295-0.0326385,0.47822-0.0543976,0.6087875
					c-0.0217667,0.1738262-0.1411896,0.3913059-0.2823715,0.5979061l-0.0761642-0.9784641
					c-0.0108795-0.1411839-0.1305695-0.2499905-0.2717514-0.2499905h-8.6527863
					c-0.1411896,0-0.2606049,0.1088066-0.2717514,0.2499905l-0.0759048,0.9784641
					c-0.1305618-0.1957188-0.2499847-0.4132004-0.2826309-0.5979061c-0.021759-0.1305676-0.0435181-0.380558-0.0435181-0.6087875
					c0.2173462-0.130434,0.4673386-0.2173481,0.7499695-0.2173481h8.5113373
					C91.0617447,19.4569778,91.3117371,19.5438919,91.5399628,19.6743259z"/>
				<path class="st1" d="M80.6068344,22.4273319l-0.3300781,2.0600586l0.7900391-0.5400391l0.0100098-0.0999756l0.0200195-0.1400146
					v0.2299805c0,0.0800781,0.0400391,0.1501465,0.1098633,0.2000732l-0.4799805,3.6600342l-1.4599609,2.3598633
					l1.2399902-7.7698975l0.9699707-0.6700439c-0.1000977,0.1300049-0.1899414,0.2900391-0.2099609,0.4599609L80.6068344,22.4273319
					z"/>
				<path class="st1" d="M81.3766098,22.8174686l-0.0197754,0.1599121
					c-0.0800781,0.0900879-0.1501465,0.1899414-0.1901855,0.3000488l0.0900879-0.6400146
					C81.2567368,22.717371,81.3067856,22.7774296,81.3766098,22.8174686z"/>
				<path class="st1" d="M93.7967758,30.1573124l-1.4599609-2.3598633l-0.4799805-3.6600342
					c0.0598145-0.0499268,0.119873-0.1199951,0.119873-0.2000732v-0.2999268c0-0.2600098-0.1098633-0.4801025-0.2700195-0.6600342
					l-0.0297852-0.1599121c0.079834-0.0500488,0.1298828-0.1201172,0.1298828-0.210083v-0.289917
					c0-0.2200928-0.0800781-0.4200439-0.2099609-0.5800781l0.9599609,0.6600342L93.7967758,30.1573124z"/>
				<polygon class="st1" points="90.8443985,22.6635933 82.2242508,22.6635933 82.3221741,21.8809814 90.7355957,21.8809814 				"/>
				<polygon class="st2" points="90.69207,21.3374786 82.3656998,21.3374786 82.4524765,20.1960678 90.6050262,20.1960678 				"/>
				<path class="st1" d="M91.4855652,27.5768814c-0.7934952,0.0652847-2.6413498,0.2064667-4.95681,0.2064667
					c-2.3152008,0-4.1630554-0.1411819-4.9456711-0.2064667l0.5652695-4.3697853h8.7613297L91.4855652,27.5768814z"/>
				<path class="st1" d="M94.0074921,32.0444603c-0.6849518,0.2066002-3.0978088,0.8045044-7.4787369,0.8045044
					c-4.3912811,0-6.8044052-0.5979042-7.4784775-0.8045044l2.2828217-3.6740856
					c0.6629257,0.0652847,2.6413498,0.2282295,5.1956558,0.2282295c2.5654449,0,4.543869-0.1629448,5.1961823-0.2282295
					L94.0074921,32.0444603z"/>
				<path class="st3" d="M86.5287552,32.5769501c-3.8703384,0-6.1743851-0.4713211-7.0559921-0.6968937l2.0020447-3.2233353
					c0.6448822,0.0589161,2.5651855,0.2133675,5.0539474,0.2133675c2.5168839,0,4.4159546-0.1539211,5.0544662-0.2133675
					l2.0020447,3.2228031C92.641037,32.1226158,90.3603439,32.5769501,86.5287552,32.5769501z"/>
				<path d="M96.0900116,37.6474228l-2.7099609-17.0699444c-0.2099609-1.2800293-1.2900391-2.210083-2.5900879-2.210083H82.279953
					c-1.2900391,0-2.3798828,0.9300537-2.5898438,2.210083l-2.7099609,17.0699444l-0.2802734,1.75v0.0098877l0.0200195-0.0098877
					l1.2001953-0.6500244l0.1699219-1.0999756l0.75-4.8099365c0.75,0.2199707,3.1999512,0.829834,7.6899414,0.829834
					c4.4799805,0,6.9399414-0.5998535,7.7001953-0.829834l0.75,4.8099365l0.1799316,1.1400146l1.0500488-0.4100342
					L96.0900116,37.6474228z M92.2501678,20.5774784c0.0097656,0.0499268,0.0397949,0.1098633,0.0498047,0.1599121l1.5,9.4199219
					l-1.4599609-2.3598633l-0.4799805-3.6600342c0.0600586-0.0499268,0.1201172-0.1199951,0.1201172-0.2000732v-0.2999268
					c0-0.2600098-0.1101074-0.4801025-0.2700195-0.6600342l-0.0300293-0.1599121
					c0.079834-0.0500488,0.1298828-0.1201172,0.1298828-0.210083v-0.289917c0-0.2299805-0.0900879-0.4400635-0.2199707-0.6000977
					C91.7999725,21.467371,92.1200409,21.0374393,92.2501678,20.5774784z M82.279953,19.4573612h8.5100098
					c0.2800293,0,0.5200195,0.0900879,0.75,0.2199707c-0.0100098,0.2299805-0.0300293,0.4799805-0.0500488,0.6101074
					c-0.0200195,0.1699219-0.1398926,0.3898926-0.2797852,0.5899658l-0.0800781-0.9700928
					c-0.0100098-0.1499023-0.1298828-0.25-0.2700195-0.25h-8.6499023c-0.1501465,0-0.2602539,0.1000977-0.2800293,0.25
					l-0.0700684,0.9700928c-0.1298828-0.1900635-0.25-0.4100342-0.2800293-0.5899658
					c-0.0300293-0.130127-0.0500488-0.380127-0.0500488-0.6101074
					C81.7501678,19.5474491,82.0001678,19.4573612,82.279953,19.4573612z M90.7399139,21.8774052l0.1101074,0.789917h-8.619873
					l0.0998535-0.789917H90.7399139z M82.3700409,21.3374882l0.0900879-1.1401367h8.1499023l0.0898438,1.1401367H82.3700409z
					 M90.91008,23.2073612l0.579834,4.3701172c-0.7900391,0.0599365-2.6398926,0.2099609-4.9599609,0.2099609
					c-2.3100586,0-4.1599121-0.1500244-4.9399414-0.2099609l0.5600586-4.3701172H90.91008z M80.7699432,20.7373905
					c0-0.0500488,0.0300293-0.1099854,0.0600586-0.1599121c0.130127,0.4599609,0.4399414,0.8898926,0.6501465,1.1398926
					c-0.1000977,0.1300049-0.1901855,0.2900391-0.2102051,0.4599609c-0.0197754,0.0500488-0.0197754,0.0900879-0.0197754,0.1401367
					v0.289917c0,0.0100098,0,0.0200195,0.0097656,0.0300293c0,0.0799561,0.0500488,0.1400146,0.1201172,0.1800537
					l-0.0200195,0.1599121c-0.0800781,0.0900879-0.1499023,0.1899414-0.1899414,0.3000488L81.16008,23.3174686
					c-0.0400391,0.0998535-0.0600586,0.2099609-0.0600586,0.3199463v0.2999268c0,0.0800781,0.0400391,0.1501465,0.1101074,0.2000732
					l-0.4799805,3.6600342l-1.4602051,2.3598633L80.7699432,20.7373905z M86.529953,32.847374
					c-4.3898926,0-6.7998047-0.5999756-7.4799805-0.7999268l2.2900391-3.6800518
					c0.6601562,0.0699463,2.6401367,0.2299805,5.1899414,0.2299805c2.5700684,0,4.5500488-0.1600342,5.2001953-0.2299805
					l2.2797852,3.6800518C93.3300018,32.2473984,90.91008,32.847374,86.529953,32.847374z"/>
				<path d="M81.2667465,22.1773319c-0.0200195,0.0500488-0.0200195,0.0900879-0.0200195,0.1401367v0.289917
					c0,0.0100098,0,0.0200195,0.0100098,0.0300293l0.0700684-0.4801025L81.2667465,22.1773319z"/>
				<path d="M81.0968246,23.7073612l0.0600586-0.3898926c-0.0400391,0.0998535-0.0600586,0.2099609-0.0600586,0.3199463V23.7073612z
					"/>
			</g>
			<polygon class="st4" points="80.207489,24.9363613 81.0175476,24.3764248 80.5675964,27.7764492 79.4775085,29.5464687 			"/>
			<path class="st4" d="M81.246727,22.6073856c0,0.0100098,0,0.0200195,0.0100098,0.0300293l-0.0900879,0.6400146
				l-0.0097656,0.0400391c-0.0400391,0.0998535-0.0600586,0.2099609-0.0600586,0.3199463v0.0699463l-0.0200195,0.1400146
				l-0.0100098,0.0999756l-0.7900391,0.5400391l0.3300781-2.0600586l0.6599121-0.25
				c-0.0200195,0.0500488-0.0200195,0.0900879-0.0200195,0.1401367V22.6073856z"/>
			
				<rect x="80.4637222" y="23.0203667" transform="matrix(0.5479224 0.8365292 -0.8365292 0.5479224 56.9043274 -56.2638779)" width="0.0881627" height="2.9917583"/>
			<polygon class="st4" points="92.8500137,24.9363613 92.0399551,24.3764248 92.4899063,27.7764492 93.5799942,29.5464687 			"/>
			<path class="st4" d="M91.8107758,22.6073856c0,0.0100098,0,0.0200195-0.0100098,0.0300293l0.0900879,0.6400146
				l0.0097656,0.0400391c0.0400391,0.0998535,0.0600586,0.2099609,0.0600586,0.3199463v0.0699463l0.0200195,0.1400146
				l0.0100098,0.0999756l0.7900391,0.5400391l-0.3300781-2.0600586l-0.6599121-0.25
				c0.0200195,0.0500488,0.0200195,0.0900879,0.0200195,0.1401367V22.6073856z"/>
			
				<rect x="92.5056229" y="23.0203667" transform="matrix(-0.5479224 0.8365292 -0.8365292 -0.5479224 163.7683105 -39.4712791)" width="0.0881627" height="2.9917583"/>
			<path class="st0" d="M81.4767075,21.717371l-0.9699707,0.6700439l0.2600098-1.6500244
				c0-0.0500488,0.0300293-0.1099854,0.0600586-0.1599121C80.9566879,21.0374393,81.2667465,21.467371,81.4767075,21.717371z"/>
			<path class="st0" d="M92.5567856,22.3974247l-0.9599609-0.6600342c0-0.0100098,0-0.0100098-0.0100098-0.0200195
				c0.2099609-0.25,0.5300293-0.6799316,0.6599121-1.1398926c0.0100098,0.0499268,0.0400391,0.1098633,0.0500488,0.1599121
				L92.5567856,22.3974247z"/>
			<g>
				<g>
					<polygon points="85.3487778,22.7187233 83.2354736,22.7187233 83.342926,21.7809238 85.41716,21.7809238 					"/>
					<g>
						<path d="M85.0879211,21.5000038v-0.4347343c0-0.2324467-0.3228226-0.4174995-0.7403183-0.4174995
							c-0.4131927,0-0.7360077,0.1850529-0.7360077,0.4174995v0.439043
							c-0.1593094,0.0946808-0.2453766,0.2152119-0.2453766,0.3486176v0.3830833
							c0,0.3055859,0.4304276,0.5509586,0.9813843,0.5509586c0.5508499,0,0.9856873-0.2453728,0.9856873-0.5509586v-0.3830833
							C85.3332901,21.7195244,85.2471237,21.5989933,85.0879211,21.5000038z M84.3476028,20.7553768
							c0.3787231,0,0.6327133,0.1592026,0.6327133,0.3098927c0,0.16782-0.2884598,0.3098946-0.6327133,0.3098946
							c-0.3400497,0-0.6284027-0.1420746-0.6284027-0.3098946C83.7192001,20.9145794,83.9730835,20.7553768,84.3476028,20.7553768z
							 M83.7192001,21.2847919c0,0.0043087,0.0042038,0.0043087,0.0085068,0.0086155
							c0.030159,0.0257988,0.0646286,0.0515976,0.103302,0.0731392c0.0043106,0.0043087,0.0129242,0.0043087,0.0215378,0.0086174
							c0.0344696,0.0172329,0.0688324,0.0344143,0.1119156,0.0473404c0.0129242,0.0043087,0.030159,0.0086174,0.0473938,0.0128727
							c0.0343628,0.0129261,0.073143,0.0215416,0.1119156,0.0258503c0.0172348,0.0043087,0.0300522,0.0086174,0.047287,0.0086174
							c0.060318,0.0086174,0.1162262,0.0129261,0.1765442,0.0129261c0.0645218,0,0.1204224-0.0043087,0.1764374-0.0129261
							c0.0172348,0,0.0343628-0.0043087,0.0515976-0.0086174c0.0387726-0.0043087,0.0775528-0.0129242,0.1120148-0.0258503
							c0.017128-0.0042553,0.0343628-0.008564,0.047287-0.0128727c0.0386734-0.0129261,0.0774536-0.0301075,0.1119156-0.0473404
							c0.0043106-0.0043087,0.0129242-0.0043087,0.0215454-0.0086174c0.0386734-0.0215416,0.0731354-0.0473404,0.1032944-0.0731392
							c0.0043106-0.0043068,0.0043106-0.0043068,0.0086212-0.0086155v0.4777126
							c0,0.1679249-0.2884598,0.3099461-0.6327133,0.3099461c-0.3400497,0-0.6284027-0.1420212-0.6284027-0.3099461V21.2847919z
							 M85.2256851,22.2360134c0,0.2367554-0.4003677,0.4433517-0.8780823,0.4433517
							c-0.4735107,0-0.8737793-0.2065964-0.8737793-0.4433517v-0.1248398
							c0.0043106,0.0043087,0.017128,0.0129261,0.0257492,0.0172348c0.0258484,0.030159,0.060318,0.0559578,0.0989914,0.0817547
							c0.013031,0.0086174,0.0258484,0.0172348,0.0387726,0.0258503c0.0517044,0.0301609,0.1119156,0.060215,0.1764374,0.0817566
							c0.0172348,0.0043087,0.030159,0.0086174,0.0473938,0.0129261c0.0560074,0.0172329,0.1162186,0.0344677,0.1808472,0.0473404
							c0.017128,0,0.0343628,0.0043068,0.0559082,0.0086155c0.0817566,0.0129261,0.1635132,0.0171814,0.2496796,0.0171814
							c0.0903702,0,0.1721268-0.0042553,0.2538834-0.0171814c0.0172348-0.0043087,0.0387726-0.0086155,0.0560074-0.0086155
							c0.0645218-0.0128727,0.1247406-0.0301075,0.180748-0.0473404c0.0172348-0.0043087,0.030159-0.0086174,0.0429764-0.0129261
							c0.0689392-0.0215416,0.1248398-0.0515957,0.1808548-0.0817566c0.0129242-0.0086155,0.0215378-0.0172329,0.0343628-0.0258503
							c0.0387726-0.0257969,0.0732422-0.0515957,0.1034012-0.0817547c0.0086136-0.0086174,0.0172348-0.0129261,0.0258484-0.0172348
							V22.2360134z M84.8468552,22.2144718c-0.1420746,0.0517025-0.3142014,0.0817566-0.4992523,0.0817566
							c-0.1765442,0-0.3443604-0.0257988-0.4821243-0.0731392c-0.2367554-0.0817566-0.391655-0.2195206-0.391655-0.3701591
							c0-0.0774994,0.047287-0.1549473,0.1377716-0.2195225v0.129097c0,0.2367554,0.3228149,0.4175529,0.7360077,0.4175529
							c0.4174957,0,0.7403183-0.1807976,0.7403183-0.4175529v-0.1334038c0.0903702,0.068882,0.137764,0.1463299,0.137764,0.2238293
							C85.2256851,21.9992599,85.0749969,22.1327171,84.8468552,22.2144718z"/>
						<path class="st5" d="M85.2256851,21.8529301c0,0.1463299-0.1506882,0.2797871-0.37883,0.3615417
							c-0.1420746,0.0517025-0.3142014,0.0817566-0.4992523,0.0817566c-0.1765442,0-0.3443604-0.0257988-0.4821243-0.0731392
							c-0.2367554-0.0817566-0.391655-0.2195206-0.391655-0.3701591c0-0.0774994,0.047287-0.1549473,0.1377716-0.2195225v0.129097
							c0,0.2367554,0.3228149,0.4175529,0.7360077,0.4175529c0.4174957,0,0.7403183-0.1807976,0.7403183-0.4175529v-0.1334038
							C85.1782913,21.6979828,85.2256851,21.7754307,85.2256851,21.8529301z"/>
						<path class="st5" d="M85.2256851,22.1111736v0.1248398c0,0.2367554-0.4003677,0.4433517-0.8780823,0.4433517
							c-0.4735107,0-0.8737793-0.2065964-0.8737793-0.4433517v-0.1248398
							c0.0043106,0.0043087,0.017128,0.0129261,0.0257492,0.0172348c0.0258484,0.030159,0.060318,0.0559578,0.0989914,0.0817547
							c0.013031,0.0086174,0.0258484,0.0172348,0.0387726,0.0258503c0.0517044,0.0301609,0.1119156,0.060215,0.1764374,0.0817566
							c0.0172348,0.0043087,0.030159,0.0086174,0.0473938,0.0129261c0.0560074,0.0172329,0.1162186,0.0344677,0.1808472,0.0473404
							c0.017128,0,0.0343628,0.0043068,0.0559082,0.0086155c0.0817566,0.0129261,0.1635132,0.0171814,0.2496796,0.0171814
							c0.0903702,0,0.1721268-0.0042553,0.2538834-0.0171814c0.0172348-0.0043087,0.0387726-0.0086155,0.0560074-0.0086155
							c0.0645218-0.0128727,0.1247406-0.0301075,0.180748-0.0473404c0.0172348-0.0043087,0.030159-0.0086174,0.0429764-0.0129261
							c0.0689392-0.0215416,0.1248398-0.0515957,0.1808548-0.0817566c0.0129242-0.0086155,0.0215378-0.0172329,0.0343628-0.0258503
							c0.0387726-0.0257969,0.0732422-0.0515957,0.1034012-0.0817547
							C85.2084503,22.119791,85.2170715,22.1154823,85.2256851,22.1111736z"/>
						<path class="st2" d="M84.9803162,21.0652695c0,0.16782-0.2884598,0.3098946-0.6327133,0.3098946
							c-0.3400497,0-0.6284027-0.1420746-0.6284027-0.3098946c0-0.1506901,0.2538834-0.3098927,0.6284027-0.3098927
							C84.726326,20.7553768,84.9803162,20.9145794,84.9803162,21.0652695z"/>
						<path class="st2" d="M84.9803162,21.2847919v0.4777126c0,0.1679249-0.2884598,0.3099461-0.6327133,0.3099461
							c-0.3400497,0-0.6284027-0.1420212-0.6284027-0.3099461v-0.4777126c0,0.0043087,0.0042038,0.0043087,0.0085068,0.0086155
							c0.030159,0.0257988,0.0646286,0.0515976,0.103302,0.0731392c0.0043106,0.0043087,0.0129242,0.0043087,0.0215378,0.0086174
							c0.0344696,0.0172329,0.0688324,0.0344143,0.1119156,0.0473404c0.0129242,0.0043087,0.030159,0.0086174,0.0473938,0.0128727
							c0.0343628,0.0129261,0.073143,0.0215416,0.1119156,0.0258503c0.0172348,0.0043087,0.0300522,0.0086174,0.047287,0.0086174
							c0.060318,0.0086174,0.1162262,0.0129261,0.1765442,0.0129261c0.0645218,0,0.1204224-0.0043087,0.1764374-0.0129261
							c0.0172348,0,0.0343628-0.0043087,0.0515976-0.0086174c0.0387726-0.0043087,0.0775528-0.0129242,0.1120148-0.0258503
							c0.017128-0.0042553,0.0343628-0.008564,0.047287-0.0128727c0.0386734-0.0129261,0.0774536-0.0301075,0.1119156-0.0473404
							c0.0043106-0.0043087,0.0129242-0.0043087,0.0215454-0.0086174c0.0386734-0.0215416,0.0731354-0.0473404,0.1032944-0.0731392
							C84.9760056,21.2891006,84.9760056,21.2891006,84.9803162,21.2847919z"/>
					</g>
				</g>
				<g>
					<polygon points="87.7184906,22.7187233 89.8317947,22.7187233 89.7243423,21.7809238 87.6501083,21.7809238 					"/>
					<g>
						<path d="M87.7339783,21.8529301v0.3830833c0,0.3055859,0.4348373,0.5509586,0.9856873,0.5509586
							c0.5509567,0,0.9813843-0.2453728,0.9813843-0.5509586v-0.3830833c0-0.1334057-0.0860672-0.2539368-0.245369-0.3486176
							v-0.439043c0-0.2324467-0.3228226-0.4174995-0.7360153-0.4174995c-0.4174957,0-0.7403183,0.1850529-0.7403183,0.4174995
							v0.4347343C87.8201447,21.5989933,87.7339783,21.7195244,87.7339783,21.8529301z M89.3480682,21.0652695
							c0,0.16782-0.2883453,0.3098946-0.6284027,0.3098946c-0.3442535,0-0.6327133-0.1420746-0.6327133-0.3098946
							c0-0.1506901,0.2539902-0.3098927,0.6327133-0.3098927C89.0941849,20.7553768,89.3480682,20.9145794,89.3480682,21.0652695z
							 M89.3480682,21.7625046c0,0.1679249-0.2883453,0.3099461-0.6284027,0.3099461
							c-0.3442535,0-0.6327133-0.1420212-0.6327133-0.3099461v-0.4777126
							c0.0043106,0.0043087,0.0043106,0.0043087,0.0086212,0.0086155c0.030159,0.0257988,0.064621,0.0515976,0.1032944,0.0731392
							c0.0086212,0.0043087,0.0172348,0.0043087,0.0215454,0.0086174c0.034462,0.0172329,0.0732422,0.0344143,0.1119156,0.0473404
							c0.0129242,0.0043087,0.030159,0.0086174,0.047287,0.0128727c0.0344696,0.0129261,0.0732422,0.0215416,0.1120148,0.0258503
							c0.0172348,0.0043087,0.0343628,0.0086174,0.0515976,0.0086174c0.056015,0.0086174,0.1119156,0.0129261,0.1764374,0.0129261
							c0.060318,0,0.1162262-0.0043087,0.1765442-0.0129261c0.0172348,0,0.0300522-0.0043087,0.047287-0.0086174
							c0.0387726-0.0043087,0.0775528-0.0129242,0.1119156-0.0258503c0.0172348-0.0042553,0.0344696-0.008564,0.0473938-0.0128727
							c0.0430832-0.0129261,0.077446-0.0301075,0.1119156-0.0473404c0.0086136-0.0043087,0.0172348-0.0043087,0.0215378-0.0086174
							c0.0386734-0.0215416,0.073143-0.0473404,0.103302-0.0731392c0.004303-0.0043068,0.0085068-0.0043068,0.0085068-0.0086155
							V21.7625046z M87.8415833,22.1111736c0.0086136,0.0043087,0.0172348,0.0086174,0.0258484,0.0172348
							c0.030159,0.030159,0.0646286,0.0559578,0.1034012,0.0817547c0.012825,0.0086174,0.0214386,0.0172348,0.0343628,0.0258503
							c0.056015,0.0301609,0.1119156,0.060215,0.1808548,0.0817566c0.0128174,0.0043087,0.0257416,0.0086174,0.0429764,0.0129261
							c0.056015,0.0172329,0.1162262,0.0344677,0.180748,0.0473404c0.0172348,0,0.0387726,0.0043068,0.0560074,0.0086155
							c0.0817566,0.0129261,0.1635132,0.0171814,0.2538834,0.0171814c0.086174,0,0.167923-0.0042553,0.2496796-0.0171814
							c0.0215454-0.0043087,0.0387802-0.0086155,0.0559082-0.0086155c0.0646286-0.0128727,0.1248398-0.0301075,0.1808472-0.0473404
							c0.0172348-0.0043087,0.030159-0.0086174,0.0473938-0.0129261c0.0645218-0.0215416,0.124733-0.0515957,0.1764374-0.0817566
							c0.0129242-0.0086155,0.0257492-0.0172329,0.0387726-0.0258503c0.0386734-0.0257969,0.073143-0.0515957,0.0989914-0.0817547
							c0.0086212-0.0043087,0.0214386-0.0129261,0.0257492-0.0172348v0.1248398
							c0,0.2367554-0.4002686,0.4433517-0.8737793,0.4433517c-0.4777145,0-0.8780823-0.2065964-0.8780823-0.4433517V22.1111736z
							 M87.8415833,21.8529301c0-0.0774994,0.0473938-0.1549473,0.137764-0.2238293v0.1334038
							c0,0.2367554,0.3228226,0.4175529,0.7403183,0.4175529c0.4131927,0,0.7360153-0.1807976,0.7360153-0.4175529v-0.129097
							c0.090477,0.0645752,0.137764,0.1420231,0.137764,0.2195225c0,0.1506386-0.1548996,0.2884026-0.391655,0.3701591
							c-0.137764,0.0473404-0.3055801,0.0731392-0.4821243,0.0731392c-0.185051,0-0.3571777-0.0300541-0.4992523-0.0817566
							C87.9922714,22.1327171,87.8415833,21.9992599,87.8415833,21.8529301z"/>
						<path class="st5" d="M87.8415833,21.8529301c0,0.1463299,0.1506882,0.2797871,0.37883,0.3615417
							c0.1420746,0.0517025,0.3142014,0.0817566,0.4992523,0.0817566c0.1765442,0,0.3443604-0.0257988,0.4821243-0.0731392
							c0.2367554-0.0817566,0.391655-0.2195206,0.391655-0.3701591c0-0.0774994-0.047287-0.1549473-0.137764-0.2195225v0.129097
							c0,0.2367554-0.3228226,0.4175529-0.7360153,0.4175529c-0.4174957,0-0.7403183-0.1807976-0.7403183-0.4175529v-0.1334038
							C87.8889771,21.6979828,87.8415833,21.7754307,87.8415833,21.8529301z"/>
						<path class="st5" d="M87.8415833,22.1111736v0.1248398c0,0.2367554,0.4003677,0.4433517,0.8780823,0.4433517
							c0.4735107,0,0.8737793-0.2065964,0.8737793-0.4433517v-0.1248398
							c-0.0043106,0.0043087-0.017128,0.0129261-0.0257492,0.0172348c-0.0258484,0.030159-0.060318,0.0559578-0.0989914,0.0817547
							c-0.0130234,0.0086174-0.0258484,0.0172348-0.0387726,0.0258503c-0.0517044,0.0301609-0.1119156,0.060215-0.1764374,0.0817566
							c-0.0172348,0.0043087-0.030159,0.0086174-0.0473938,0.0129261c-0.0560074,0.0172329-0.1162186,0.0344677-0.1808472,0.0473404
							c-0.017128,0-0.0343628,0.0043068-0.0559082,0.0086155c-0.0817566,0.0129261-0.1635056,0.0171814-0.2496796,0.0171814
							c-0.0903702,0-0.1721268-0.0042553-0.2538834-0.0171814c-0.0172348-0.0043087-0.0387726-0.0086155-0.0560074-0.0086155
							c-0.0645218-0.0128727-0.124733-0.0301075-0.180748-0.0473404c-0.0172348-0.0043087-0.030159-0.0086174-0.0429764-0.0129261
							c-0.0689392-0.0215416-0.1248398-0.0515957-0.1808548-0.0817566
							c-0.0129242-0.0086155-0.0215378-0.0172329-0.0343628-0.0258503
							c-0.0387726-0.0257969-0.0732422-0.0515957-0.1034012-0.0817547
							C87.8588181,22.119791,87.8501968,22.1154823,87.8415833,22.1111736z"/>
						<path class="st0" d="M88.0869522,21.0652695c0,0.16782,0.2884598,0.3098946,0.6327133,0.3098946
							c0.3400574,0,0.6284027-0.1420746,0.6284027-0.3098946c0-0.1506901-0.2538834-0.3098927-0.6284027-0.3098927
							C88.3409424,20.7553768,88.0869522,20.9145794,88.0869522,21.0652695z"/>
						<path class="st0" d="M88.0869522,21.2847919v0.4777126c0,0.1679249,0.2884598,0.3099461,0.6327133,0.3099461
							c0.3400574,0,0.6284027-0.1420212,0.6284027-0.3099461v-0.4777126c0,0.0043087-0.0042038,0.0043087-0.0085068,0.0086155
							c-0.030159,0.0257988-0.0646286,0.0515976-0.103302,0.0731392c-0.004303,0.0043087-0.0129242,0.0043087-0.0215378,0.0086174
							c-0.0344696,0.0172329-0.0688324,0.0344143-0.1119156,0.0473404c-0.0129242,0.0043087-0.030159,0.0086174-0.0473938,0.0128727
							c-0.0343628,0.0129261-0.073143,0.0215416-0.1119156,0.0258503c-0.0172348,0.0043087-0.0300522,0.0086174-0.047287,0.0086174
							c-0.060318,0.0086174-0.1162262,0.0129261-0.1765442,0.0129261c-0.0645218,0-0.1204224-0.0043087-0.1764374-0.0129261
							c-0.0172348,0-0.0343628-0.0043087-0.0515976-0.0086174c-0.0387726-0.0043087-0.0775452-0.0129242-0.1120148-0.0258503
							c-0.017128-0.0042553-0.0343628-0.008564-0.047287-0.0128727c-0.0386734-0.0129261-0.0774536-0.0301075-0.1119156-0.0473404
							c-0.0043106-0.0043087-0.0129242-0.0043087-0.0215454-0.0086174
							c-0.0386734-0.0215416-0.0731354-0.0473404-0.1032944-0.0731392
							C88.0912628,21.2891006,88.0912628,21.2891006,88.0869522,21.2847919z"/>
					</g>
				</g>
			</g>
		</g>
		<path d="M87.4879837,23.7073612h-1.9086914l-0.4985352,1.3671875l-0.0073242,1.2866211h2.9204102v-1.2436523
			L87.4879837,23.7073612z M85.830513,25.2425175l-0.5070801,0.6362305v-0.6362305H85.830513z M86.1476517,25.2460575
			c-0.0922852,0.1136475-0.1506348,0.2528076-0.1506348,0.368042c0,0.2375488,0.2402344,0.4299316,0.5366211,0.4299316
			s0.5366211-0.1923828,0.5366211-0.4299316c0-0.1152344-0.0583496-0.2546387-0.1506348-0.3684082l0.6896973,0.8654785h-2.1513672
			L86.1476517,25.2460575z M87.236763,25.2425175h0.5070801v0.6362305L87.236763,25.2425175z M85.754097,23.9573612h1.559082
			l0.3771973,1.0351562h-2.3134766L85.754097,23.9573612z"/>
		<path class="st6" d="M94.9801483,37.6474228H78.0900116l0.75-4.8099365c0.75,0.2199707,3.1999512,0.829834,7.6899414,0.829834
			c4.4799805,0,6.9399414-0.5998535,7.7001953-0.829834L94.9801483,37.6474228z"/>
	</g>
	<g>
		<g>
			<rect x="72.8367996" y="83.4226608" class="st7" width="27.2449627" height="6.5773411"/>
			<rect x="72.8367996" y="81.6920242" width="5.6347814" height="6.0479417"/>
			<rect x="94.4469757" y="81.6920242" width="5.6347814" height="6.0479417"/>
			<path d="M89.1210632,54.0292282H83.797226l-0.1091614,1.0713348h5.5314865L89.1210632,54.0292282z M96.1616058,54.0292282
				h-5.947319l0.1094284,1.0713348h5.9908218L96.1616058,54.0292282z M89.1210632,54.0292282H83.797226l-0.1091614,1.0713348
				h5.5314865L89.1210632,54.0292282z M96.1616058,54.0292282h-5.947319l0.1094284,1.0713348h5.9908218L96.1616058,54.0292282z
				 M89.1210632,54.0292282H83.797226l-0.1091614,1.0713348h5.5314865L89.1210632,54.0292282z M76.7569504,54.0292282
				l-0.1529312,1.0713348h5.9908218l0.0982208-1.0713348H76.7569504z M89.1210632,54.0292282H83.797226l-0.1091614,1.0713348
				h5.5314865L89.1210632,54.0292282z M96.1616058,54.0292282h-5.947319l0.1094284,1.0713348h5.9908218L96.1616058,54.0292282z"/>
			<polygon class="st7" points="100.8625107,79.4820633 100.8625107,80.9251862 99.6598587,82.5321884 73.2586975,82.5321884 
				72.0560532,80.9251862 72.0560532,79.4820633 73.2586975,81.0893326 99.6598587,81.0893326 			"/>
			<polygon class="st8" points="100.8625107,77.8422318 100.8625107,79.4820633 99.6598587,81.0893326 73.2586975,81.0893326 
				72.0560532,79.4820633 72.0560532,77.8422318 72.220192,77.8422318 72.220192,79.4385605 100.6876907,79.4385605 
				100.6876907,77.8422318 			"/>
			<polygon class="st9" points="98.5065842,72.2122574 98.5065842,72.2560272 74.411972,72.2560272 75.188118,62.5590363 
				97.7301712,62.5590363 			"/>
			<rect x="74.411972" y="72.2560272" class="st10" width="24.094614" height="4.9960909"/>
			<polygon class="st11" points="97.7303085,62.4936447 97.7303085,62.5590363 75.1882477,62.5590363 76.2924118,55.1472397 
				96.637085,55.1472397 			"/>
			<rect x="76.5164719" y="56.1966858" class="st12" width="6.0236535" height="0.5794387"/>
			<rect x="83.6333466" y="56.1966858" class="st13" width="5.6518626" height="0.5794387"/>
			<rect x="90.3784332" y="56.1966858" class="st12" width="6.0236535" height="0.5794387"/>
			<polygon class="st12" points="96.3148041,55.103466 90.3237152,55.103466 90.2145538,54.0321312 96.1616058,54.0321312 			"/>
			<polygon class="st13" points="89.2195511,55.103466 83.6877975,55.103466 83.797226,54.0321312 89.1213303,54.0321312 			"/>
			<polygon class="st12" points="82.6930618,54.0321312 82.594574,55.103466 76.6037521,55.103466 76.7569504,54.0321312 			"/>
			<path d="M102.5307541,75.6566849h-1.8474731v-3.4873047l-0.7980347-9.9265289l-1.3884048-9.521904v-2.3393745
				l-0.3717957-1.0494461H74.7521286l-0.3608475,1.0494461v2.5798531l-1.3774719,9.3580284l-0.798027,9.849926v3.4873047h-1.825592
				l-0.5247269,6.00177l2.2956085,3.0610657h28.5878601l2.2956085-3.0610657L102.5307541,75.6566849z M96.1574631,54.0327606
				l0.1529312,1.071331h-5.9908218l-0.1091614-1.071331H96.1574631z M96.3979416,56.1973152v0.5794373h-6.0236511v-0.5794373
				H96.3979416z M83.7930832,54.0327606h5.3241043l0.0982208,1.071331h-5.5317535L83.7930832,54.0327606z M83.6292038,56.1973152
				h5.6518631v0.5794373h-5.6518631V56.1973152z M76.7528076,54.0327606h5.9361115l-0.0984879,1.071331h-5.9908218
				L76.7528076,54.0327606z M76.5120621,56.1973152h6.0239182v0.5794373h-6.0239182V56.1973152z M74.4022217,72.2566528
				l0.776413-9.6967239l0.6995392-4.6899567h21.153656l0.6888657,4.6242981v0.0656586l0.7761459,9.6532211v5.0395966H74.4022217
				V72.2566528z M100.8581009,80.9260788l-1.2023849,1.6070023H73.2542877l-1.2023849-1.6070023v-3.0829544h0.1638794v1.5960617
				h28.4674988v-1.5960617h0.1748199V80.9260788z"/>
			<g>
				<polygon class="st7" points="84.1307144,37.1825333 83.5622177,49.3283272 82.4689941,49.3283272 83.0374908,37.1825333 				"/>
				<polygon class="st7" points="90.4495621,49.3283272 89.3563385,49.3283272 88.7878418,37.1825333 89.8810654,37.1825333 				"/>
				<path d="M96.0100021,36.0602837l-0.1531982-1.0603905H77.0534668l-0.1529312,1.0603905l-1.8805771,13.271843h2.2192688
					l1.7164307-12.1457939h14.9989548l1.7164307,12.1457939h2.2190018L96.0100021,36.0602837z"/>
				<polygon class="st8" points="95.6751862,49.3283272 90.4495621,49.3283272 89.8810654,37.1825333 93.9587555,37.1825333 				"/>
				<polygon class="st8" points="89.3563385,49.3283272 83.5622177,49.3283272 84.1307144,37.1825333 88.7878418,37.1825333 				"/>
				<polygon class="st8" points="83.0374908,37.1825333 82.4689941,49.3283272 77.2433701,49.3283272 78.9598007,37.1825333 				"/>
			</g>
			<path class="st13" d="M79.5113144,76.2866974h-3.2195587c-0.4807816,0-0.8705368-0.3897552-0.8705368-0.8705444v-0.1623001
				c0-0.4807892,0.3897552-0.8705444,0.8705368-0.8705444h3.2195587c0.4807816,0,0.8705368,0.3897552,0.8705368,0.8705444v0.1623001
				C80.3818512,75.8969421,79.9920959,76.2866974,79.5113144,76.2866974z"/>
			<path class="st13" d="M96.6268005,76.2866974h-3.2195587c-0.4807816,0-0.8705368-0.3897552-0.8705368-0.8705444v-0.1623001
				c0-0.4807892,0.3897552-0.8705444,0.8705368-0.8705444h3.2195587c0.4807816,0,0.8705368,0.3897552,0.8705368,0.8705444v0.1623001
				C97.4973373,75.8969421,97.1075821,76.2866974,96.6268005,76.2866974z"/>
		</g>
		<g>
			<defs>
				<rect id="SVGID_1_" x="74.7630692" y="32.1029282" width="23.3729191" height="17.2291965"/>
			</defs>
			<clipPath id="SVGID_00000156578707396957857520000012587259759403926447_">
				<use xlink:href="#SVGID_1_"  style="overflow:visible;"/>
			</clipPath>
			<g style="clip-path:url(#SVGID_00000156578707396957857520000012587259759403926447_);">
				<g>
					<g>
						<path class="st15" d="M94.4354935,54.7417908H78.4524841c-0.0218811,0.4809532-0.0437698,0.8636894-0.0544434,1.0932198
							h16.0921707C94.4792633,55.6054802,94.4573822,55.222744,94.4354935,54.7417908z"/>
						<path class="st15" d="M96.5891037,46.826622l-0.7433167,2.0225639l-0.3498993-1.9350204
							c-0.0109482-0.0763321-0.0109482-0.152935,0.0109406-0.2185898c0-0.0328293,0.5356674-2.4050331,0.0656586-5.4879875
							c-0.229538-1.4538002-1.1588821-5.3676147-1.574173-7.401123l-1.9678497,1.147934h-0.0109406v0.0109444
							c-0.054718,0.0547142-0.1203766,0.098484-0.2076492,0.1203728l-0.3061371,0.0872765l-2.6238861,0.7761421
							l-0.1748199,0.0547142c-0.0437698,0.0109444-0.0875397,0.0218849-0.1310501,0.0218849l-0.2407379,0.0109444
							l-1.8146515,0.3280182h-0.0328293l-1.9350204-0.3280182l-0.229538-0.0109444
							c-0.0437698,0-0.0875397-0.0109406-0.1419907-0.0218849l-0.1641388-0.0437698l-2.6345673-0.7870865l-0.2951889-0.0872765
							c-0.0875397-0.0218887-0.1531982-0.0656586-0.2076492-0.1203728l-0.0112076-0.0109444l-1.9785233-1.147934
							c-0.4046249,2.0335083-1.3337021,5.9473228-1.5632324,7.401123c-0.4812164,3.0829544,0.0653915,5.4551582,0.0653915,5.4879875
							c0.0218811,0.0656548,0.0218811,0.1422577,0.0109406,0.2185898l-0.3496399,1.9350204l-0.743576-2.0225639
							c-0.1201096-0.5354004-0.5247269-2.8422127-0.0656586-5.7938538c0.2951889-1.8912506,1.7164307-8.122818,1.7711411-8.4180069
							c0.0437698-0.1967049,0.1857605-0.3496399,0.3717957-0.4152985c0.196701-0.0547142,0.4043503-0.0109406,0.546608,0.1313171
							l2.5907898,1.7380486l2.8969269,0.8636856l2.0772781,0.3389626l1.9678497-0.3389626l2.9078751-0.8636856l2.5910568-1.7380486
							c0.1419907-0.1422577,0.3499069-0.1860313,0.5356674-0.1313171c0.196701,0.0656586,0.3389587,0.2185936,0.371521,0.4152985
							c0.0656586,0.2951889,1.4759598,6.5267563,1.7711487,8.4180069
							C97.10289,43.9844093,96.6985321,46.2912216,96.5891037,46.826622z"/>
					</g>
					<g>
						<g>
							<path d="M86.4549332,42.1478729c-0.2951889,0-0.5356674,0.1748199-0.5356674,0.3715248
								c0,0.2076492,0.2404785,0.3827362,0.5356674,0.3827362s0.5247269-0.175087,0.5356674-0.3608513v-0.0218849h0.0109406
								C86.9906006,42.3226929,86.7501221,42.1478729,86.4549332,42.1478729z M86.4549332,42.1478729
								c-0.2951889,0-0.5356674,0.1748199-0.5356674,0.3715248c0,0.2076492,0.2404785,0.3827362,0.5356674,0.3827362
								s0.5247269-0.175087,0.5356674-0.3608513v-0.0218849h0.0109406
								C86.9906006,42.3226929,86.7501221,42.1478729,86.4549332,42.1478729z M86.4549332,42.1478729
								c-0.2951889,0-0.5356674,0.1748199-0.5356674,0.3715248c0,0.2076492,0.2404785,0.3827362,0.5356674,0.3827362
								s0.5247269-0.175087,0.5356674-0.3608513v-0.0218849h0.0109406
								C86.9906006,42.3226929,86.7501221,42.1478729,86.4549332,42.1478729z M86.4549332,42.1478729
								c-0.2951889,0-0.5356674,0.1748199-0.5356674,0.3715248c0,0.2076492,0.2404785,0.3827362,0.5356674,0.3827362
								s0.5247269-0.175087,0.5356674-0.3608513v-0.0218849h0.0109406
								C86.9906006,42.3226929,86.7501221,42.1478729,86.4549332,42.1478729z M86.4549332,42.1478729
								c-0.2951889,0-0.5356674,0.1748199-0.5356674,0.3715248c0,0.2076492,0.2404785,0.3827362,0.5356674,0.3827362
								s0.5247269-0.175087,0.5356674-0.3608513v-0.0218849h0.0109406
								C86.9906006,42.3226929,86.7501221,42.1478729,86.4549332,42.1478729z M86.4549332,42.1478729
								c-0.2951889,0-0.5356674,0.1748199-0.5356674,0.3715248c0,0.2076492,0.2404785,0.3827362,0.5356674,0.3827362
								s0.5247269-0.175087,0.5356674-0.3608513v-0.0218849h0.0109406
								C86.9906006,42.3226929,86.7501221,42.1478729,86.4549332,42.1478729z M86.4549332,42.1478729
								c-0.2951889,0-0.5356674,0.1748199-0.5356674,0.3715248c0,0.2076492,0.2404785,0.3827362,0.5356674,0.3827362
								s0.5247269-0.175087,0.5356674-0.3608513v-0.0218849h0.0109406
								C86.9906006,42.3226929,86.7501221,42.1478729,86.4549332,42.1478729z M97.1247711,49.8441887l-0.5356674-3.0175667
								l-0.7433167,2.0225639l0.1967087,1.1151047l0.8527451,4.7775002h-2.4597473
								c-0.0875397-1.672657-0.2514191-4.5917358-0.4700089-7.0405388c0.0328293-0.0653915,0.0653915-0.1419907,0.0872726-0.2076492
								c0.0109482-0.0328293,0.0218887-0.0765991,0.0218887-0.120369c0-0.5466118-0.1091614-1.0820122-0.2951889-1.5960617
								c0-0.0106735,0-0.0106735-0.0106812-0.0218849c-0.5140457-4.6242981-1.4431229-9.3358765-1.7492523-10.7899437
								c-0.054718,0.0547142-0.1203766,0.098484-0.2076492,0.1203728l-0.3061371,0.0872765
								c0.2733078,1.3555794,0.9947357,5.0289192,1.5085144,8.920578c-0.6669769-1.1695518-1.825592-2.5798492-3.5420227-2.699955
								v-0.0112076l-0.5903778-5.4332733l-0.1748199,0.0547142c-0.0437698,0.0109444-0.0875397,0.0218849-0.1310501,0.0218849
								l-0.2407379,0.0109444l0.0218811,0.1857605l0.0437698,0.4374504l0.0218887,0.2185898l0.054718,0.4371796l0.0218811,0.2185936
								l0.0435028,0.4265022l0.3717957,3.4328613v0.0106773c-0.5684967,0.0437698-0.972847,0.2079124-1.2570953,0.4046173
								c-0.054718-0.0218849-0.1094284-0.0328255-0.1748199-0.0328255c-0.0984879,0-0.3608475,0.120369-0.3936768,0.371788
								h-0.0875473c-0.1419907-0.1094284-0.3280182-0.2076454-0.546608-0.2076454s-0.3936768,0.098217-0.5356674,0.2076454
								h-0.0763321c0-0.3061333-0.3170776-0.371788-0.4046173-0.371788c-0.0656586,0-0.1313171,0.0109406-0.1857681,0.0328255
								c-0.2845078-0.1967049-0.7107468-0.3608475-1.2792435-0.4046173v-0.0218849l0.371788-3.4216537l0.0437698-0.4265022
								l0.0218887-0.2295341l0.0544434-0.426239l0.0218887-0.2295341l0.0437698-0.426506l0.0218887-0.1857605l-0.229538-0.0109444
								c-0.0437698,0-0.0875397-0.0109406-0.1419907-0.0218849l-0.1641388-0.0437698l-0.5903854,5.4223289v0.0112076
								c-1.7052155,0.1201057-2.8640976,1.5413437-3.5420227,2.7111664c0-0.0112114,0-0.0112114,0-0.0218849
								c0.5137863-3.8919296,1.2354813-7.5543251,1.4978409-8.9099045l-0.2951889-0.0872765
								c-0.0875397-0.0218887-0.1531982-0.0656586-0.2076492-0.1203728
								c-0.3061295,1.4540672-1.2354736,6.1549683-1.7492599,10.7792664c0,0.0106773,0,0.0106773,0,0.0218887
								c-0.1857605,0.5135117-0.2951889,1.0601234-0.2951889,1.6067352c0,0.0437698,0.0109406,0.0875397,0.0218887,0.120369
								c0.0218811,0.0656586,0.0547104,0.1422577,0.0875397,0.2185898c-0.0109406,0-0.0109406,0.0109444-0.0109406,0.0109444
								c-0.2185898,2.4378586-0.3827362,5.3459969-0.4812241,7.0186539H76.003952l0.852478-4.7775002l0.1969681-1.1151047
								l-0.743576-2.0225639l-0.5356674,3.0175667l-0.9619064,5.345726
								c-0.0328293,0.152935,0.0109406,0.3170776,0.1201019,0.4481239c0.0984879,0.1203728,0.2516861,0.1969719,0.4155655,0.1969719
								h3.0501251c-0.0109406,0.1638794-0.0109406,0.2514191-0.0109406,0.2623634l0.546608,0.0328293
								c0-0.0112114,0-0.1094284,0.0109406-0.2951927c0.0218887-0.2407417,0.0325623-0.6122665,0.054451-1.0932198
								c0.0765991-1.4868965,0.2188568-3.9575844,0.4046173-6.1987381c0-0.0109444,0.0109406-0.0109444,0.0109406-0.0109444
								c0.5575562,0.7542572,1.4975739,1.4978409,2.9078751,1.4978409c1.2573624,0,2.7004852-0.8855743,3.1048355-1.147934h2.055397
								c0.4043503,0.2623596,1.8365326,1.147934,3.0936279,1.147934c1.4103012,0,2.3505859-0.7435837,2.9078674-1.4978409
								c0.1860352,2.2411575,0.3280258,4.7118454,0.4046249,6.2096825c0.0218811,0.4700127,0.0437698,0.852478,0.0547104,1.0932198
								c0.0109482,0.1857643,0.0109482,0.2839813,0.0109482,0.2951927l0.546608-0.0328293
								c0-0.0109444,0-0.098484-0.0109406-0.2623634h3.0610657c0.1638794,0,0.3170776-0.0765991,0.4152985-0.1969719
								c0.1094284-0.1310463,0.1531982-0.2951889,0.1201019-0.4481239L97.1247711,49.8441887z M87.9199448,42.6397705
								c0-0.0109444,0-0.0218849,0-0.0218849c0.1857605-0.1748199,0.5903778-0.426239,1.3118134-0.426239
								c0.972847,0,1.7602005,0.5791702,2.3612595,1.2899246c-0.3824692-0.1422577-0.7980347-0.2514191-1.2680435-0.2514191
								c-1.2461548,0-2.0335083,0.4481239-2.5144577,0.8527451l-0.0656586-0.87463
								C87.8433456,43.0660095,87.8871155,42.8364754,87.9199448,42.6397705z M85.6897354,43.4487419
								c0.0218811,0,0.0437698,0.0109444,0.0656509,0.0109444v0.2076454c0.109169,0.1967049,0.3824692,0.328022,0.6995468,0.328022
								c0.3280182,0,0.601326-0.1419907,0.7107544-0.3389626v-0.1857643
								c0.0218887-0.0109406,0.0325623-0.0109406,0.0544434-0.0218849l0.0766068,1.0822792h-1.6945496L85.6897354,43.4487419z
								 M83.6781082,42.1916466c0.7326431,0,1.1260529,0.2620964,1.3118134,0.426239
								c0.0330963,0.1967049,0.0656586,0.426239,0.1641464,0.5794373l-0.0656586,0.8855743
								c-0.4700089-0.4046211-1.2570953-0.8527451-2.5144577-0.8527451c-0.4590683,0-0.8743668,0.1091614-1.257103,0.2514191
								C81.9072342,42.7708168,82.6943207,42.1916466,83.6781082,42.1916466z M90.5763931,49.2100334
								c-1.1917038,0-2.7221069-1.0603905-2.7330475-1.0713348c-0.0656586-0.0547142-0.1529312-0.0765991-0.2404785-0.0765991
								h-2.3065414c-0.0765991,0-0.1641464,0.0218849-0.229805,0.0765991
								c-0.426239,0.2951927-1.7489929,1.0713348-2.743988,1.0713348c-1.8474808,0-2.5360794-1.574173-2.6673965-1.9021912
								c0.0328293-1.5960579,1.0494461-3.2577744,2.9188156-3.2577744c1.7492523,0,2.3396378,1.0385056,2.3615265,1.0822754
								c0.0763321,0.1310501,0.2076416,0.2185898,0.3608475,0.2185898h2.3065414
								c0.1531982,0,0.2951889-0.0875397,0.3608475-0.2185898c0.0325623-0.0437698,0.6122665-1.0822754,2.3612595-1.0822754
								c1.8803101,0,2.8971939,1.6617165,2.9297562,3.2577744C93.1236801,47.6358604,92.4348145,49.2100334,90.5763931,49.2100334z
								 M86.4549332,42.1478729c-0.2951889,0-0.5356674,0.1748199-0.5356674,0.3715248
								c0,0.2076492,0.2404785,0.3827362,0.5356674,0.3827362s0.5247269-0.175087,0.5356674-0.3608513v-0.0218849h0.0109406
								C86.9906006,42.3226929,86.7501221,42.1478729,86.4549332,42.1478729z M86.4549332,42.1478729
								c-0.2951889,0-0.5356674,0.1748199-0.5356674,0.3715248c0,0.2076492,0.2404785,0.3827362,0.5356674,0.3827362
								s0.5247269-0.175087,0.5356674-0.3608513v-0.0218849h0.0109406
								C86.9906006,42.3226929,86.7501221,42.1478729,86.4549332,42.1478729z M86.4549332,42.1478729
								c-0.2951889,0-0.5356674,0.1748199-0.5356674,0.3715248c0,0.2076492,0.2404785,0.3827362,0.5356674,0.3827362
								s0.5247269-0.175087,0.5356674-0.3608513v-0.0218849h0.0109406
								C86.9906006,42.3226929,86.7501221,42.1478729,86.4549332,42.1478729z M86.4549332,42.1478729
								c-0.2951889,0-0.5356674,0.1748199-0.5356674,0.3715248c0,0.2076492,0.2404785,0.3827362,0.5356674,0.3827362
								s0.5247269-0.175087,0.5356674-0.3608513v-0.0218849h0.0109406
								C86.9906006,42.3226929,86.7501221,42.1478729,86.4549332,42.1478729z M86.4549332,42.1478729
								c-0.2951889,0-0.5356674,0.1748199-0.5356674,0.3715248c0,0.2076492,0.2404785,0.3827362,0.5356674,0.3827362
								s0.5247269-0.175087,0.5356674-0.3608513v-0.0218849h0.0109406
								C86.9906006,42.3226929,86.7501221,42.1478729,86.4549332,42.1478729z M86.4549332,42.1478729
								c-0.2951889,0-0.5356674,0.1748199-0.5356674,0.3715248c0,0.2076492,0.2404785,0.3827362,0.5356674,0.3827362
								s0.5247269-0.175087,0.5356674-0.3608513v-0.0218849h0.0109406
								C86.9906006,42.3226929,86.7501221,42.1478729,86.4549332,42.1478729z M86.4549332,42.1478729
								c-0.2951889,0-0.5356674,0.1748199-0.5356674,0.3715248c0,0.2076492,0.2404785,0.3827362,0.5356674,0.3827362
								s0.5247269-0.175087,0.5356674-0.3608513v-0.0218849h0.0109406
								C86.9906006,42.3226929,86.7501221,42.1478729,86.4549332,42.1478729z"/>
							<path class="st16" d="M87.2967377,44.5310211h-1.6945496l0.0875473-1.0822792
								c0.0218811,0,0.0437698,0.0109444,0.0656509,0.0109444v0.2076454c0.109169,0.1967049,0.3824692,0.328022,0.6995468,0.328022
								c0.3280182,0,0.601326-0.1419907,0.7107544-0.3389626v-0.1857643
								c0.0218887-0.0109406,0.0325623-0.0109406,0.0544434-0.0218849L87.2967377,44.5310211z"/>
							<path class="st16" d="M91.5930176,43.4815712c-0.3824692-0.1422577-0.7980347-0.2514191-1.2680435-0.2514191
								c-1.2461548,0-2.0335083,0.4481239-2.5144577,0.8527451l-0.0656586-0.87463
								c0.0984879-0.1422577,0.1422577-0.3717918,0.175087-0.5684967c0-0.0109444,0-0.0218849,0-0.0218849
								c0.1857605-0.1748199,0.5903778-0.426239,1.3118134-0.426239
								C90.2046051,42.1916466,90.9919586,42.7708168,91.5930176,43.4815712z"/>
							<path class="st3" d="M84.9354782,45.1323433c-0.0218887-0.0437698-0.6122742-1.0822754-2.3615265-1.0822754
								c-1.8693695,0-2.8859863,1.6617165-2.9188156,3.2577744c0.1313171,0.3280182,0.8199158,1.9021912,2.6673965,1.9021912
								c0.9949951,0,2.317749-0.7761421,2.743988-1.0713348c0.0317612-0.0264206,0.0728683-0.0248222,0.1112976-0.0370979
								v-2.7848282C85.0787964,45.2839432,84.9901886,45.2262917,84.9354782,45.1323433z"/>
							<path class="st4" d="M87.6028671,45.3509331h-2.3065414c-0.0432434,0-0.0795364-0.0210838-0.1185074-0.0341606v2.7848282
								c0.0408401-0.0130768,0.0790024-0.0395012,0.1185074-0.0395012h2.3065414
								c0.0285568,0,0.0504456,0.0200157,0.0782013,0.0248222v-2.7581406
								C87.6541138,45.3343887,87.6308899,45.3509331,87.6028671,45.3509331z"/>
							<path class="st3" d="M90.3249741,44.0500679c-1.7489929,0-2.3286972,1.0385056-2.3612595,1.0822754
								c-0.0536423,0.107029-0.1628036,0.1713486-0.2826462,0.1964378v2.7581406
								c0.0573883,0.0104103,0.1179733,0.014946,0.1622772,0.0517769c0.0109406,0.0109444,1.5413437,1.0713348,2.7330475,1.0713348
								c1.8584213,0,2.547287-1.574173,2.6783371-1.9021912C93.222168,45.7117844,92.2052841,44.0500679,90.3249741,44.0500679z"/>
							<path class="st16" d="M85.154068,43.1973228l-0.0656586,0.8855743
								c-0.4700089-0.4046211-1.2570953-0.8527451-2.5144577-0.8527451c-0.4590683,0-0.8743668,0.1091614-1.257103,0.2514191
								c0.5903854-0.7107544,1.3774719-1.2899246,2.3612595-1.2899246c0.7326431,0,1.1260529,0.2620964,1.3118134,0.426239
								C85.0230179,42.8145905,85.0555801,43.0441246,85.154068,43.1973228z"/>
							<path class="st17" d="M84.0170746,35.9600792l-0.5903854,5.4223289v0.0112076
								c-1.7052155,0.1201057-2.8640976,1.5413437-3.5420227,2.7111664c0-0.0112114,0-0.0112114,0-0.0218849
								c0.5137863-3.8919296,1.2354813-7.5543251,1.4978409-8.9099045L84.0170746,35.9600792z"/>
							<path class="st17" d="M88.925621,41.4042931c-0.5684967,0.0437698-0.9837875,0.2079124-1.2680359,0.4046173
								c-0.054718-0.0218849-0.1094284-0.0328255-0.1748199-0.0328255c-0.0984879,0-0.3608475,0.120369-0.3936768,0.371788
								h-0.0875473c-0.1419907-0.1094284-0.3280182-0.2076454-0.546608-0.2076454s-0.3936768,0.098217-0.5356674,0.2076454
								h-0.0763321c0-0.3061333-0.3170776-0.371788-0.4046173-0.371788c-0.0656586,0-0.1313171,0.0109406-0.1857681,0.0328255
								c-0.2845078-0.1967049-0.7107468-0.3608475-1.2792435-0.4046173v-0.0218849l0.5794373-5.3457298l1.9350204,0.3280182
								h0.0328293l1.8146515-0.3280182l0.5794373,5.3569374L88.925621,41.4042931z"/>
							<path class="st17" d="M93.0142517,44.0935707c-0.6669769-1.1695518-1.825592-2.5798492-3.5420227-2.699955v-0.0112076
								l-0.5903778-5.4332733l2.6238861-0.7761421C91.7790451,36.5285721,92.500473,40.2019119,93.0142517,44.0935707z"/>
							<path class="st16" d="M96.8952408,54.7417908h-2.4597473c-0.0875397-1.672657-0.2514191-4.5917358-0.4700089-7.0405388
								c0.0328293-0.0653915,0.0653915-0.1419907,0.0872726-0.2076492c0.0109482-0.0328293,0.0218887-0.0765991,0.0218887-0.120369
								c0-0.5466118-0.1091614-1.0820122-0.2951889-1.5960617c0-0.0106735,0-0.0106735-0.0106812-0.0218849
								c-0.5140457-4.6242981-1.4431229-9.3358765-1.7492523-10.7899437v-0.0109444h0.0109406l1.9678497-1.147934
								c0.4152908,2.0335083,1.344635,5.9473228,1.574173,7.401123c0.4700089,3.0829544-0.0656586,5.4551582-0.0656586,5.4879875
								c-0.0218887,0.0656548-0.0218887,0.1422577-0.0109406,0.2185898l0.3498993,1.9350204l0.1967087,1.1151047
								L96.8952408,54.7417908z"/>
							<path class="st16" d="M80.8796692,34.9653435c-0.3061295,1.4540672-1.2354736,6.1549683-1.7492599,10.7792664
								c0,0.0106773,0,0.0106773,0,0.0218887c-0.1857605,0.5135117-0.2951889,1.0601234-0.2951889,1.6067352
								c0,0.0437698,0.0109406,0.0875397,0.0218887,0.120369c0.0218811,0.0656586,0.0547104,0.1422577,0.0875397,0.2185898
								c-0.0109406,0-0.0109406,0.0109444-0.0109406,0.0109444c-0.2185898,2.4378586-0.3827362,5.3459969-0.4812241,7.0186539
								H76.003952l0.852478-4.7775002l0.1969681-1.1151047l0.3496399-1.9350204
								c0.0109406-0.0763321,0.0109406-0.152935-0.0109406-0.2185898c0-0.0328293-0.546608-2.4050331-0.0653915-5.4879875
								c0.2295303-1.4538002,1.1586075-5.3676147,1.5632324-7.401123l1.9785233,1.147934L80.8796692,34.9653435z"/>
							<path d="M85.4820862,51.9649696c-0.0109406,0.0109444-0.0109406,0.0109444-0.0109406,0.0218849h-0.0109482
								C85.4711456,51.975914,85.4711456,51.975914,85.4820862,51.9649696z"/>
							<path d="M85.4601974,51.9868546h0.0109482c-0.4374542,0.8636894-0.6779251,1.8146515-0.7980347,2.7549362
								c-0.0437698,0.3605804-0.0656586,0.7323723-0.0765991,1.0932198v0.0437737l-0.546608-0.0437737
								c0.0547104-0.371788,0.1313095-0.7326393,0.2185898-1.0932198c0.2295303-0.9402847,0.5794373-1.847744,1.1151047-2.6348305
								C85.4054871,52.0631905,85.4383163,52.0194168,85.4601974,51.9868546z"/>
							<path d="M85.380127,52.1029587c-0.0880737,0.1225052-0.151329,0.2105827-0.1830902,0.2548866
								C85.2418747,52.2951241,85.3128738,52.196373,85.380127,52.1029587z"/>
							<path class="st17" d="M87.4171066,51.9540291v0.0109406c0.0106735,0.0109444,0.0218887,0.0328293,0.0325623,0.0544472
								c0.4374466,0.8636856,0.6669769,1.7930298,0.776413,2.722374H84.673111
								c0.1201096-0.9402847,0.3605804-1.8912468,0.7980347-2.7549362c0.0109406-0.0109406,0.0109406-0.0109406,0.0109406-0.0218849
								c-0.0109406,0.0109444-0.0109406,0.0109444-0.0218887,0.0218849
								c-0.0218811,0.0325623-0.0547104,0.0763359-0.0765991,0.1201057
								c-0.5356674,0.7870865-0.8855743,1.6945457-1.1151047,2.6348305h-5.2693939
								c0.0765991-1.4868965,0.2188568-3.9575844,0.4046173-6.1987381c0-0.0109444,0.0109406-0.0109444,0.0109406-0.0109444
								c0.5575562,0.7542572,1.4975739,1.4978409,2.9078751,1.4978409c1.2573624,0,2.7004852-0.8855743,3.1048355-1.147934h2.055397
								c0.4043503,0.2623596,1.8365326,1.147934,3.0936279,1.147934c1.4103012,0,2.3505859-0.7435837,2.9078674-1.4978409
								c0.1860352,2.2411575,0.3280258,4.7118454,0.4046249,6.2096825h-5.2584534
								C88.3790131,53.7358475,88.0074844,52.7848854,87.4171066,51.9540291z"/>
							<path d="M88.302681,55.8787842v-0.0437737c-0.0112152-0.3608475-0.0330963-0.7326393-0.0765991-1.0932198
								c-0.109436-0.9293442-0.3389664-1.8586884-0.776413-2.722374c-0.0106735-0.0216179-0.0218887-0.0435028-0.0325623-0.0544472
								v-0.0109406c0.5903778,0.8308563,0.9619064,1.7818184,1.2133255,2.7877617
								c0.0875397,0.3605804,0.1638718,0.7214317,0.2188568,1.0932198L88.302681,55.8787842z"/>
						</g>
						<g>
							<path class="st8" d="M86.9984665,42.520916h-0.0085754v0.0167542
								c-0.0081787,0.1924591-0.2425232,0.3597908-0.5354996,0.3597908c-0.292778,0-0.5354996-0.1673317-0.5354996-0.376545
								c0-0.20084,0.2427216-0.3681679,0.5354996-0.3681679C86.7473679,42.1527481,86.9898911,42.320076,86.9984665,42.520916z"/>
							<path class="st15" d="M85.6792297,42.0380325c0,0.092144-0.1256561,0.175705-0.2678528,0.175705
								c-0.1422043,0-0.2678528-0.0835609-0.2678528-0.175705c0-0.0919418,0.1256485-0.1673317,0.2678528-0.1673317
								C85.5535736,41.8707008,85.6792297,41.9460907,85.6792297,42.0380325z"/>
							<path class="st15" d="M87.7808304,42.0380325c0,0.092144-0.1170654,0.175705-0.2594757,0.175705
								c-0.1505737,0-0.2678452-0.0835609-0.2678452-0.175705c0-0.0919418,0.1172714-0.1673317,0.2678452-0.1673317
								C87.663765,41.8707008,87.7808304,41.9460907,87.7808304,42.0380325z"/>
						</g>
					</g>
				</g>
				<g>
					<g>
						<path d="M87.0124893,39.0713272c0-0.0435028-0.0218887-0.0872765-0.0656586-0.1091614
							c-0.1201096-0.0765991-0.2839813-0.1094284-0.5028381-0.1094284c-0.1857605,0-0.3496399,0.0328293-0.4700089,0.0875435
							c-0.054718,0.0218849-0.0766068,0.0765991-0.0766068,0.120369l-0.0437698,2.5798531
							c0,0.0547142,0.0218887,0.098484,0.0765991,0.1313133c0.1310501,0.0653915,0.3170776,0.1091614,0.5137863,0.1091614
							c0.2295303,0,0.4155579-0.0437698,0.546608-0.1310463c0.0437698-0.0218849,0.0656586-0.0656586,0.0656586-0.1203728
							L87.0124893,39.0713272z M86.126915,41.5639l0.0437698-2.4050293c0.1638794-0.0547142,0.426506-0.0437698,0.5684967,0
							l0.0437698,2.3940887C86.6190796,41.6186142,86.3129425,41.6186142,86.126915,41.5639z"/>
						<path class="st8" d="M86.7829514,41.5529594c-0.1638718,0.0656548-0.4700089,0.0656548-0.6560364,0.0109406
							l0.0437698-2.4050293c0.1638794-0.0547142,0.426506-0.0437698,0.5684967,0L86.7829514,41.5529594z"/>
					</g>
					<g>
						<path d="M88.3680725,38.863678c0-0.0437698-0.0328293-0.0875397-0.0653915-0.1091614
							c-0.1203766-0.0765991-0.2951965-0.1094284-0.5031052-0.1094284c-0.1857681,0-0.3605804,0.0328293-0.480957,0.0875435
							c-0.0437698,0.0218849-0.0765991,0.0765991-0.0765991,0.1201057l-0.0325623,2.3831444
							c0,0.0437737,0.0216217,0.0875435,0.0653915,0.1203728c0.1313171,0.0656548,0.3170776,0.1094284,0.5247269,0.1094284
							c0.2297974,0,0.4155579-0.0437737,0.546608-0.1313133c0.0328293-0.0218887,0.0547104-0.0653915,0.0547104-0.1201057
							L88.3680725,38.863678z M87.4827652,41.1486053l0.0325623-2.1973839c0.1641388-0.0547142,0.4374466-0.0437698,0.5794373,0
							l0.0328293,2.1864433C87.9743958,41.2033195,87.6575851,41.2142639,87.4827652,41.1486053z"/>
						<path class="st8" d="M88.127594,41.1376648c-0.1531982,0.0656548-0.4700089,0.0765991-0.6448288,0.0109406
							l0.0325623-2.1973839c0.1641388-0.0547142,0.4374466-0.0437698,0.5794373,0L88.127594,41.1376648z"/>
					</g>
					<g>
						<path d="M85.6678467,38.863678c0-0.0437698-0.0328293-0.0875397-0.0656586-0.1091614
							c-0.1310425-0.0765991-0.2951889-0.1094284-0.5028381-0.1094284c-0.1857605,0-0.3608475,0.0328293-0.4809494,0.0875435
							c-0.0437775,0.0218849-0.0765991,0.0765991-0.0765991,0.1201057l-0.0437775,2.3831444
							c0,0.0437737,0.0328293,0.0875435,0.0765991,0.1203728c0.1313171,0.0656548,0.3170776,0.1094284,0.5247269,0.1094284
							c0.229538,0,0.4152985-0.0437737,0.546608-0.1313133c0.0328293-0.0218887,0.054718-0.0653915,0.054718-0.1201057
							L85.6678467,38.863678z M84.7822723,41.1486053l0.0328293-2.1973839c0.1641464-0.0547142,0.4374466-0.0437698,0.5794373,0
							l0.0328293,2.1864433C85.274437,41.2033195,84.9573593,41.2142639,84.7822723,41.1486053z"/>
						<path class="st8" d="M85.4273682,41.1376648c-0.1529312,0.0656548-0.4700089,0.0765991-0.6450958,0.0109406
							l0.0328293-2.1973839c0.1641464-0.0547142,0.4374466-0.0437698,0.5794373,0L85.4273682,41.1376648z"/>
					</g>
				</g>
				<polygon class="st15" points="88.4008942,36.6598892 86.5424728,36.9876404 86.498703,36.9876404 84.4870834,36.6489449 
					84.5308533,36.2224388 86.498703,36.5504608 86.5424728,36.5504608 88.3571243,36.2224388 				"/>
				<polygon class="st15" points="88.4775009,37.3156586 86.5424728,37.6655655 86.498703,37.6655655 84.4107513,37.304718 
					84.4651947,36.878479 86.498703,37.2283821 86.5424728,37.2283821 88.4227829,36.878479 				"/>
				<polygon class="st15" points="88.5428848,37.9607544 86.5424728,38.3216057 86.498703,38.3216057 84.3450928,37.9607544 
					84.3888626,37.5342522 86.498703,37.8841553 86.5424728,37.8841553 88.499382,37.5342522 				"/>
			</g>
		</g>
	</g>
</g>
</svg>
