<?xml version="1.0" encoding="utf-8"?>
<!-- Generator: Adobe Illustrator 27.6.1, SVG Export Plug-In . SVG Version: 6.00 Build 0)  -->
<svg version="1.1" id="Layer_1" xmlns="http://www.w3.org/2000/svg" xmlns:xlink="http://www.w3.org/1999/xlink" x="0px" y="0px"
	 viewBox="0 0 172.91 90" style="enable-background:new 0 0 172.91 90;" xml:space="preserve">
<style type="text/css">
	.st0{fill:#888888;}
	.st1{fill:#9697CA;}
	.st2{fill:#3751A0;}
	.st3{fill:#F79420;}
	.st4{fill:#FFFFFF;}
	.st5{fill:#BABABA;}
	.st6{fill:#72C6EF;}
	.st7{fill:#333366;}
</style>
<g>
	<path class="st0" d="M62.52,90H36.56v-8.6h14.2v2h6.49c-0.03,0.17-0.03,0.35-0.03,0.52C57.22,87.02,59.54,89.59,62.52,90z
		 M111.65,85.54h-2.46v-2.14H69.45c0.03,0.17,0.03,0.35,0.03,0.52c0,3.1-2.32,5.68-5.3,6.08h52.93
		C114.4,90,112.17,88.06,111.65,85.54z M133.79,85.54h-11.3c-0.52,2.52-2.72,4.46-5.39,4.46h16.72l2.55-2.5v-4.34L133.79,85.54z"/>
	<path d="M136.35,72.27v10.89l-2.58,2.38h-11.3c-0.52,2.52-2.72,4.46-5.39,4.46c-2.69,0-4.93-1.94-5.45-4.46h-2.46v-2.14H69.43
		c0.03,0.17,0.03,0.35,0.03,0.52c0,3.1-2.32,5.68-5.3,6.08h-1.65c-2.98-0.41-5.3-2.98-5.3-6.08c0-0.17,0-0.35,0.03-0.52h-6.49V79.8
		h-14.2v-6.14c0.35-0.43,0.67-0.87,1.01-1.3c0.12-0.14,0.26-0.32,0.38-0.49h71.24V53.03h2.17v0.72h4.37v1.71h10.92l5.68,10.49
		c0.64,1.13,0.96,2.43,1.04,3.74h0.06L136.35,72.27z"/>
	<path class="st1" d="M129.77,65.76v5.16l-3.8-7.01c-0.17-0.29-0.41-0.55-0.67-0.72v-5.53h0.06L129.77,65.76z"/>
	<path class="st2" d="M52.93,79.81v1.42h4.97c0.23-0.52,0.55-1.01,0.93-1.42H52.93z"/>
	<path class="st2" d="M119.02,77.95h-7.65v5.42h0.29c0.49-2.55,2.75-4.49,5.45-4.49c0.32,0,0.67,0.03,0.96,0.09
		c0.17,0.03,0.35,0.06,0.49,0.12c0.2,0.03,0.38,0.12,0.55,0.17c0.23,0.09,0.49,0.2,0.72,0.35c0.26,0.14,0.52,0.32,0.72,0.52
		c0.23,0.17,0.46,0.38,0.61,0.58c0.03,0.03,0.09,0.06,0.09,0.12c0.2,0.17,0.32,0.35,0.41,0.52c0.06,0.09,0.12,0.14,0.14,0.23
		c0.17,0.23,0.29,0.49,0.38,0.75c0.14,0.29,0.23,0.58,0.29,0.9c0,0.06,0.03,0.09,0.03,0.14h1.19v-0.75
		C123.69,80.04,121.6,77.95,119.02,77.95z"/>
	<path class="st2" d="M129.77,70.91l-3.8-7.01c-0.17-0.29-0.41-0.55-0.67-0.72c-0.38-0.32-0.84-0.46-1.33-0.46h-12.6v13.07h7.65
		c2.96,0,5.45,1.88,6.4,4.52h4.23c0.93,0,1.71-0.7,1.71-1.54v-4.81L129.77,70.91z M113.93,72.97v-7.21h8.31l2.52,7.21H113.93z"/>
	<path class="st3" d="M114.3,55.21v0.72h-2.23v-0.72H114.3z M112.07,58.86v0.64h2.23v-0.64H112.07z M112.07,61.35h2.23v-1.13h-2.23
		V61.35z"/>
	<rect x="112.07" y="56.59" class="st4" width="2.23" height="1.53"/>
	<path class="st0" d="M66.52,83.39c-0.12-0.7-0.41-1.27-0.87-1.74c-0.17-0.17-0.35-0.32-0.55-0.43c-0.49-0.32-1.1-0.52-1.74-0.52
		c-0.64,0-1.25,0.2-1.77,0.52c-0.17,0.12-0.32,0.23-0.46,0.35c-0.49,0.46-0.84,1.1-0.96,1.83c-0.03,0.17-0.06,0.35-0.06,0.52
		c0,1.8,1.45,3.25,3.24,3.25c1.77,0,3.22-1.45,3.22-3.25C66.58,83.74,66.55,83.57,66.52,83.39z M62.38,83.66
		c-0.64,0-1.16-0.49-1.16-1.13c0-0.61,0.52-1.13,1.16-1.13c0.61,0,1.13,0.52,1.13,1.13C63.51,83.16,62.99,83.66,62.38,83.66z"/>
	<path class="st2" d="M109.19,79.8v1.42H68.84c-0.26-0.52-0.58-1.01-0.96-1.42H109.19z"/>
	<path class="st0" d="M117.1,81.77c-1.48,0-2.67,1.19-2.67,2.67c0,1.45,1.19,2.67,2.67,2.67c1.45,0,2.64-1.22,2.64-2.67
		C119.74,82.96,118.55,81.77,117.1,81.77z M116.11,84c-0.46,0-0.87-0.38-0.87-0.87c0-0.49,0.41-0.87,0.87-0.87
		c0.49,0,0.9,0.38,0.9,0.87C117.01,83.63,116.61,84,116.11,84z"/>
	<rect x="105.2" y="74.04" class="st5" width="3.99" height="0.54"/>
	<path class="st6" d="M131.37,70.57v3.39l-1.59-3.04v-5.16l0.67,1.22C131.05,68.08,131.37,69.32,131.37,70.57z M115.75,57.65v5.07
		h8.23c0.49,0,0.96,0.14,1.33,0.46v-5.53H115.75z"/>
	<rect x="38.73" y="74.04" class="st5" width="65.24" height="0.54"/>
	<path class="st5" d="M133.54,72.65v6.11c0,2.03-1.74,3.71-3.88,3.71h-3.82c0,0.06,0.03,0.09,0.03,0.14v0.75h7.1l1.25-1.16v-8.95
		L133.54,72.65z"/>
	<rect x="38.72" y="75.31" class="st5" width="65.26" height="0.7"/>
	<polygon class="st5" points="109.21,77.19 109.21,77.63 38.72,77.63 38.72,76.73 103.97,76.73 103.97,77.19 	"/>
	<polygon class="st7" points="124.76,72.97 113.93,72.97 113.93,65.76 122.24,65.76 	"/>
	<path class="st5" d="M63.51,82.53c0,0.64-0.52,1.13-1.13,1.13c-0.64,0-1.16-0.49-1.16-1.13c0-0.61,0.52-1.13,1.16-1.13
		C62.99,81.4,63.51,81.92,63.51,82.53z"/>
	<path class="st5" d="M117.01,83.13c0,0.49-0.41,0.87-0.9,0.87c-0.46,0-0.87-0.38-0.87-0.87c0-0.49,0.41-0.87,0.87-0.87
		C116.61,82.26,117.01,82.64,117.01,83.13z"/>
	<rect x="38.72" y="76.01" class="st0" width="65.26" height="0.72"/>
	<rect x="38.73" y="74.58" class="st0" width="65.24" height="0.72"/>
</g>
</svg>
