<?xml version="1.0" encoding="utf-8"?>
<!-- Generator: Adobe Illustrator 27.6.1, SVG Export Plug-In . SVG Version: 6.00 Build 0)  -->
<svg version="1.1" id="Layer_1" xmlns="http://www.w3.org/2000/svg" xmlns:xlink="http://www.w3.org/1999/xlink" x="0px" y="0px"
	 viewBox="0 0 172.91 90" style="enable-background:new 0 0 172.91 90;" xml:space="preserve">
<style type="text/css">
	.st0{fill:#888888;}
	.st1{fill:#BABABA;}
	.st2{fill:#F79420;}
	.st3{fill:#9697CA;}
	.st4{fill:#72C6EF;}
	.st5{fill:#333366;}
	.st6{fill:#FFFFFF;}
	.st7{fill:#3751A0;}
</style>
<g>
	<path class="st0" d="M47.46,57.42v0.01l16.37,9.45c-0.35-0.2-0.7-0.46-1.02-0.75c-0.32-0.32-0.61-0.64-0.9-0.99
		c-0.55-0.69-1.04-1.53-1.36-2.37c-0.17-0.45-0.31-0.92-0.4-1.39c-0.08-0.39-0.12-0.79-0.12-1.16c0-0.15,0-0.29,0.03-0.41v-0.08
		c0-0.09,0.03-0.15,0.03-0.27c0-0.02,0.03-0.05,0.03-0.08c0.03-0.21,0.08-0.41,0.17-0.55c0-0.06,0.03-0.12,0.03-0.15
		c0.03-0.03,0.03-0.06,0.06-0.08c0.06-0.12,0.11-0.21,0.17-0.32l-0.11-0.09c0.03-0.03,0.03-0.03,0.05-0.06l-1.33-0.78l-2.17-1.28
		v-4.15l-8.59,4.96L47.46,57.42z"/>
	<path class="st0" d="M63.83,66.88l32.34,18.67l0.26,0.15l7.44,4.3h5.07l16.51-10.14v-2.72l-2.2-1.28l-14,8.09l-4.52-0.76
		l-2.34-0.92l-1.57,1.15l-0.03,0.03h-0.05l-0.21,0.15c-0.08,0.06-0.2,0.11-0.32,0.14c-0.05,0.03-0.14,0.06-0.23,0.06
		c-0.05,0.03-0.14,0.03-0.23,0.03h-0.23c-0.09,0-0.17,0-0.26-0.03c-0.17,0-0.35-0.03-0.52-0.11c-0.29-0.06-0.61-0.21-0.93-0.38
		c-0.09-0.05-0.18-0.1-0.26-0.16c-0.26-0.18-0.52-0.38-0.75-0.59c-0.32-0.29-0.61-0.61-0.87-0.96H95.9
		c-0.03-0.03-0.06-0.09-0.09-0.12c-0.26-0.32-0.49-0.69-0.72-1.04c-0.21-0.38-0.41-0.78-0.55-1.22v-0.03h-0.03
		c-0.23-0.55-0.38-1.1-0.44-1.68v-0.03l-1.31-0.76l-2.6-1.49l-15.28-8.81l-4.82-2.78c0,0.43-0.09,0.89-0.32,1.33
		c-0.03,0.06-0.06,0.12-0.12,0.2c-0.05,0.07-0.12,0.16-0.23,0.29c-0.15,0.15-0.29,0.29-0.46,0.38c-0.03,0.03-0.06,0.03-0.18,0.11
		c0,0-2.14,1.19-2.2,1.22c-0.06,0.03-0.12,0.06-0.17,0.06c-0.03,0.03-0.06,0.03-0.09,0.03c-0.09,0.06-0.18,0.08-0.29,0.08
		c-0.03,0.03-0.12,0.03-0.17,0.03C65.25,67.46,64.55,67.29,63.83,66.88z"/>
	<path d="M121.87,69h-0.01c0.01,0.01,0.02,0.02,0.02,0.03C121.88,69.02,121.87,69.01,121.87,69z M47.46,43.82v2.23l0.23,0.15
		l3.8,2.2l5.5,3.18v4.49l2.17,1.28l1.33,0.78c-0.02,0.03-0.02,0.03-0.05,0.06l0.11,0.09c-0.06,0.11-0.11,0.2-0.17,0.32
		c-0.03,0.02-0.03,0.05-0.06,0.08c0,0.03-0.03,0.09-0.03,0.15c-0.09,0.14-0.14,0.34-0.17,0.55c0,0.03-0.03,0.06-0.03,0.08
		c0,0.12-0.03,0.18-0.03,0.27v0.08c-0.03,0.12-0.03,0.26-0.03,0.41c0,0.37,0.04,0.77,0.12,1.16c0.09,0.47,0.23,0.94,0.4,1.39
		c0.32,0.84,0.81,1.68,1.36,2.37c0.29,0.35,0.58,0.67,0.9,0.99c0.32,0.29,0.67,0.55,1.02,0.75c0.72,0.41,1.42,0.58,2,0.49
		c0.05,0,0.14,0,0.17-0.03c0.11,0,0.2-0.02,0.29-0.08c0.03,0,0.06,0,0.09-0.03c0.05,0,0.11-0.03,0.17-0.06
		c0.06-0.03,2.2-1.22,2.2-1.22c0.12-0.08,0.15-0.08,0.18-0.11c0.17-0.09,0.31-0.23,0.46-0.38c0.11-0.13,0.18-0.22,0.23-0.29
		c0.06-0.08,0.09-0.14,0.12-0.2c0.23-0.44,0.32-0.9,0.32-1.33l4.82,2.78l15.28,8.81l2.6,1.49l1.31,0.76v0.03
		c0.06,0.58,0.21,1.13,0.44,1.68h0.03v0.03c0.14,0.44,0.34,0.84,0.55,1.22c0.23,0.35,0.46,0.72,0.72,1.04
		c0.03,0.03,0.06,0.09,0.09,0.12h0.03c0.26,0.35,0.55,0.67,0.87,0.96c0.23,0.21,0.49,0.41,0.75,0.59c0.08,0.06,0.17,0.11,0.26,0.16
		c0.32,0.17,0.64,0.32,0.93,0.38c0.17,0.08,0.35,0.11,0.52,0.11c0.09,0.03,0.17,0.03,0.26,0.03h0.23c0.09,0,0.18,0,0.23-0.03
		c0.09,0,0.18-0.03,0.23-0.06c0.12-0.03,0.24-0.08,0.32-0.14l0.21-0.15h0.05l0.03-0.03l1.57-1.15l2.34,0.92l4.52,0.76l14-8.09
		l0.84-0.49l1.36-0.78v-3.36l-1.1-0.96l-0.03-3.45l-4.38-11.04l-7.53-4.34v-1.19l-2.26-1.3l-0.66-0.41l-1.13-0.66v-0.47l-2.12-1.24
		l-0.03,0.03l-10.86,6.25l-3.48-2L75.7,41.12l-9.64-5.56l-2.18-1.24l-2.2,1.27l-3.47,2l-1.45,0.84l-1.1,0.64l-2.73,1.59l-1.42,0.81
		l-3.85,2.23L47.46,43.82z M121.57,68.81c0.03,0,0.06,0.01,0.09,0.03c0.03,0.01,0.05,0.02,0.08,0.04c0.04,0.03,0.09,0.06,0.12,0.11
		c0,0.01,0,0.01,0,0.01c0.01,0.01,0.02,0.02,0.02,0.03c0.01,0.01,0.02,0.02,0.02,0.04c0.02,0.02,0.03,0.05,0.03,0.08
		c0,0,0.01,0,0,0.01c0.01,0.03,0.01,0.07,0.01,0.1v0.23c0,0.18-0.04,0.34-0.12,0.47c0,0,0.01,0,0,0.01
		c-0.03,0.06-0.08,0.12-0.14,0.18c-0.01,0-0.01,0-0.01,0v0.01h-0.01c-0.05,0.05-0.11,0.1-0.17,0.14h-0.01l-0.07,0.05h-0.01
		l-0.02,0.01l-0.54,0.31h-0.01v0.01h-0.02l-0.01,0.01l-0.58,0.33h-0.01c-0.04,0.02-0.08,0.04-0.12,0.05
		c-0.11,0.03-0.21,0.02-0.3-0.01c-0.01-0.01-0.01-0.01-0.01-0.01c-0.02-0.01-0.04-0.02-0.05-0.03h-0.01
		c-0.01-0.01-0.02-0.01-0.03-0.03h-0.01c-0.02-0.01-0.03-0.02-0.03-0.03c-0.05-0.04-0.08-0.09-0.1-0.14v-0.01
		c-0.01-0.01-0.01-0.02-0.01-0.04c-0.01-0.01-0.02-0.03-0.02-0.04c-0.01-0.03-0.01-0.06-0.01-0.1v-0.24c0-0.08,0.01-0.16,0.03-0.24
		c0.04-0.15,0.12-0.29,0.24-0.4c-0.01-0.01,0-0.01,0.01-0.01c0.01-0.02,0.02-0.03,0.03-0.03c0.04-0.05,0.09-0.09,0.15-0.11
		l1.28-0.75c0.04-0.02,0.07-0.04,0.11-0.04c0,0,0,0.01,0.01,0c0.02-0.01,0.03-0.01,0.05-0.01c0.01-0.01,0.02-0.01,0.03,0
		c0.01-0.01,0.01-0.01,0.02-0.01c0.02,0,0.03,0,0.05,0.01C121.54,68.8,121.56,68.8,121.57,68.81z"/>
	<path d="M119.51,70.39v0.23c0,0.38,0.38,0.58,0.7,0.41l1.27-0.72c0.29-0.17,0.46-0.46,0.46-0.81v-0.23c0-0.35-0.38-0.58-0.7-0.41
		l-1.27,0.75C119.68,69.75,119.51,70.07,119.51,70.39z M108.39,76.79v0.23c0,0.26,0.23,0.46,0.46,0.46c0.06,0,0.14-0.03,0.2-0.06
		l1.3-0.72c0.26-0.17,0.43-0.49,0.43-0.81v-0.23c0-0.38-0.38-0.58-0.67-0.41l-1.27,0.75C108.56,76.15,108.39,76.47,108.39,76.79z
		 M119.51,70.39v0.23c0,0.38,0.38,0.58,0.7,0.41l1.27-0.72c0.29-0.17,0.46-0.46,0.46-0.81v-0.23c0-0.35-0.38-0.58-0.7-0.41
		l-1.27,0.75C119.68,69.75,119.51,70.07,119.51,70.39z M108.39,76.79v0.23c0,0.26,0.23,0.46,0.46,0.46c0.06,0,0.14-0.03,0.2-0.06
		l1.3-0.72c0.26-0.17,0.43-0.49,0.43-0.81v-0.23c0-0.38-0.38-0.58-0.67-0.41l-1.27,0.75C108.56,76.15,108.39,76.47,108.39,76.79z
		 M119.51,70.39v0.23c0,0.38,0.38,0.58,0.7,0.41l1.27-0.72c0.29-0.17,0.46-0.46,0.46-0.81v-0.23c0-0.35-0.38-0.58-0.7-0.41
		l-1.27,0.75C119.68,69.75,119.51,70.07,119.51,70.39z M108.39,76.79v0.23c0,0.26,0.23,0.46,0.46,0.46c0.06,0,0.14-0.03,0.2-0.06
		l1.3-0.72c0.26-0.17,0.43-0.49,0.43-0.81v-0.23c0-0.38-0.38-0.58-0.67-0.41l-1.27,0.75C108.56,76.15,108.39,76.47,108.39,76.79z
		 M119.51,70.39v0.23c0,0.38,0.38,0.58,0.7,0.41l1.27-0.72c0.29-0.17,0.46-0.46,0.46-0.81v-0.23c0-0.35-0.38-0.58-0.7-0.41
		l-1.27,0.75C119.68,69.75,119.51,70.07,119.51,70.39z M108.39,76.79v0.23c0,0.26,0.23,0.46,0.46,0.46c0.06,0,0.14-0.03,0.2-0.06
		l1.3-0.72c0.26-0.17,0.43-0.49,0.43-0.81v-0.23c0-0.38-0.38-0.58-0.67-0.41l-1.27,0.75C108.56,76.15,108.39,76.47,108.39,76.79z
		 M119.51,70.39v0.23c0,0.38,0.38,0.58,0.7,0.41l1.27-0.72c0.29-0.17,0.46-0.46,0.46-0.81v-0.23c0-0.35-0.38-0.58-0.7-0.41
		l-1.27,0.75C119.68,69.75,119.51,70.07,119.51,70.39z M108.39,76.79v0.23c0,0.26,0.23,0.46,0.46,0.46c0.06,0,0.14-0.03,0.2-0.06
		l1.3-0.72c0.26-0.17,0.43-0.49,0.43-0.81v-0.23c0-0.38-0.38-0.58-0.67-0.41l-1.27,0.75C108.56,76.15,108.39,76.47,108.39,76.79z
		 M108.39,76.79v0.23c0,0.26,0.23,0.46,0.46,0.46c0.06,0,0.14-0.03,0.2-0.06l1.3-0.72c0.26-0.17,0.43-0.49,0.43-0.81v-0.23
		c0-0.38-0.38-0.58-0.67-0.41l-1.27,0.75C108.56,76.15,108.39,76.47,108.39,76.79z M119.51,70.39v0.23c0,0.38,0.38,0.58,0.7,0.41
		l1.27-0.72c0.29-0.17,0.46-0.46,0.46-0.81v-0.23c0-0.35-0.38-0.58-0.7-0.41l-1.27,0.75C119.68,69.75,119.51,70.07,119.51,70.39z
		 M119.51,70.39v0.23c0,0.38,0.38,0.58,0.7,0.41l1.27-0.72c0.29-0.17,0.46-0.46,0.46-0.81v-0.23c0-0.35-0.38-0.58-0.7-0.41
		l-1.27,0.75C119.68,69.75,119.51,70.07,119.51,70.39z M108.39,76.79v0.23c0,0.26,0.23,0.46,0.46,0.46c0.06,0,0.14-0.03,0.2-0.06
		l1.3-0.72c0.26-0.17,0.43-0.49,0.43-0.81v-0.23c0-0.38-0.38-0.58-0.67-0.41l-1.27,0.75C108.56,76.15,108.39,76.47,108.39,76.79z
		 M108.39,76.79v0.23c0,0.26,0.23,0.46,0.46,0.46c0.06,0,0.14-0.03,0.2-0.06l1.3-0.72c0.26-0.17,0.43-0.49,0.43-0.81v-0.23
		c0-0.38-0.38-0.58-0.67-0.41l-1.27,0.75C108.56,76.15,108.39,76.47,108.39,76.79z M119.51,70.39v0.23c0,0.38,0.38,0.58,0.7,0.41
		l1.27-0.72c0.29-0.17,0.46-0.46,0.46-0.81v-0.23c0-0.35-0.38-0.58-0.7-0.41l-1.27,0.75C119.68,69.75,119.51,70.07,119.51,70.39z
		 M119.51,70.39v0.23c0,0.38,0.38,0.58,0.7,0.41l1.27-0.72c0.29-0.17,0.46-0.46,0.46-0.81v-0.23c0-0.35-0.38-0.58-0.7-0.41
		l-1.27,0.75C119.68,69.75,119.51,70.07,119.51,70.39z M108.39,76.79v0.23c0,0.26,0.23,0.46,0.46,0.46c0.06,0,0.14-0.03,0.2-0.06
		l1.3-0.72c0.26-0.17,0.43-0.49,0.43-0.81v-0.23c0-0.38-0.38-0.58-0.67-0.41l-1.27,0.75C108.56,76.15,108.39,76.47,108.39,76.79z"/>
	<polygon class="st1" points="49.83,44.95 92.1,69.37 92.1,64.91 92.07,64.91 53.69,42.72 	"/>
	<polygon class="st1" points="55.11,41.91 71.71,51.47 92.05,63.17 92.05,58.8 75.18,49.06 58.93,39.68 	"/>
	<polygon class="st1" points="92.05,57.12 92.05,54.34 92.07,54.34 92.07,64.91 92.1,64.91 92.1,54.34 93.15,53.73 63.86,36.84 
		60.38,38.87 	"/>
	<polygon class="st0" points="53.69,42.72 92.07,64.91 92.07,63.2 92.05,63.2 92.05,63.17 71.71,51.47 55.11,41.91 	"/>
	<path class="st0" d="M100.1,80.48c0.03-0.06,0.03-0.14,0.03-0.23c0-0.49-0.12-1.04-0.32-1.54c-0.41-1.01-1.16-1.94-2-2.43
		c-0.09-0.06-0.14-0.09-0.23-0.09c-0.29-0.17-0.58-0.23-0.81-0.23h-0.12l-0.06,0.03c-0.03,0-0.03,0-0.06,0.03
		c-0.09-0.03-0.2,0-0.26,0.06l-0.09,0.03l-0.09,0.09h-0.03v0.03c-0.06,0-0.09,0.03-0.14,0.12v0.03c-0.03-0.03-0.06,0-0.06,0.03
		l-0.03,0.03c-0.06,0.09-0.12,0.17-0.14,0.29c-0.03,0.03-0.03,0.06-0.03,0.09c-0.06,0.06-0.06,0.15-0.09,0.26
		c-0.03,0.14-0.06,0.32-0.06,0.52c0,0.32,0.06,0.64,0.14,0.96c0.03,0.2,0.09,0.38,0.17,0.55c0.2,0.52,0.46,1.04,0.81,1.45h0.03
		c0.09,0.14,0.23,0.29,0.35,0.41c0.23,0.23,0.49,0.46,0.78,0.61c0.38,0.23,0.72,0.32,1.04,0.32h0.12c0.03,0,0.06-0.03,0.09-0.03
		c0.09,0,0.14-0.03,0.2-0.06h0.03c0.03,0,0.03,0,0.03,0c0.03,0,0.06,0,0.06-0.03c0.03,0,0.06-0.03,0.09-0.03l0.06-0.03l0.03-0.03
		c0.03,0,0.03-0.03,0.03-0.06c0.03,0,0.06-0.06,0.06-0.06c0.06-0.03,0.12-0.06,0.14-0.14h0.03l0.03-0.03h-0.03v-0.03
		c0.06-0.06,0.12-0.14,0.14-0.23c0-0.03,0.03-0.06,0.03-0.09c0.06-0.06,0.06-0.14,0.09-0.23c0.03-0.09,0.03-0.17,0.03-0.29V80.48z
		 M98.25,78.27c0,0.03,0,0.09-0.03,0.12v0.15c-0.03,0.06-0.03,0.09-0.06,0.12c0,0.03,0,0.03,0,0.06c-0.03,0.03-0.06,0.09-0.09,0.12
		h0.03l-0.03,0.03c-0.03,0.03-0.06,0.06-0.09,0.06c0,0,0,0.03-0.03,0.03c0,0.03,0,0.03,0,0.03L97.93,79H97.9l-0.03,0.03h-0.03
		c0,0,0,0-0.03,0c-0.03,0.03-0.06,0.03-0.12,0.03l-0.03,0.03h-0.06c-0.17,0-0.35-0.06-0.52-0.17c-0.14-0.06-0.29-0.17-0.41-0.29
		c-0.06-0.06-0.12-0.14-0.17-0.2c-0.17-0.2-0.32-0.46-0.41-0.72c-0.06-0.09-0.09-0.17-0.09-0.29c-0.06-0.14-0.09-0.32-0.09-0.46
		c0-0.12,0.03-0.2,0.03-0.26c0.03-0.06,0.03-0.12,0.06-0.14v-0.03c0.03-0.06,0.06-0.12,0.09-0.14v-0.03c0,0,0,0,0.03,0V76.3
		c0.03-0.03,0.06-0.06,0.09-0.06l0.06-0.06h0.03c0.03-0.03,0.09-0.06,0.14-0.03c0-0.03,0-0.03,0.03-0.03h0.09
		c0.12,0,0.26,0.03,0.41,0.12c0.03,0,0.06,0,0.12,0.03c0.41,0.26,0.78,0.72,0.99,1.22C98.19,77.75,98.25,78.01,98.25,78.27z"/>
	<polygon class="st0" points="58.93,39.68 75.18,49.06 92.05,58.8 92.05,63.2 92.07,63.2 92.07,54.34 92.05,54.34 92.05,57.12 
		60.38,38.87 	"/>
	<path class="st0" d="M65.8,65v-0.06h0.03v-0.03c0.03,0,0.03,0,0.03,0c0-0.03,0.03-0.03,0.03-0.03c0.03-0.03,0.03-0.03,0.03-0.06
		V64.8c0.03-0.06,0.06-0.15,0.09-0.2c0.03-0.03,0.03-0.06,0.03-0.09v-0.03c0.03-0.03,0.03-0.06,0.03-0.09
		c0.03-0.09,0.06-0.17,0.03-0.26c0.06-0.12,0.06-0.23,0.06-0.35v-0.03c0-0.43-0.09-0.87-0.26-1.3c0-0.09-0.03-0.15-0.06-0.2
		c-0.12-0.26-0.23-0.52-0.35-0.75c-0.14-0.23-0.29-0.46-0.46-0.67c-0.09-0.09-0.14-0.17-0.23-0.26v-0.03l-0.09-0.09
		c-0.03-0.03-0.03-0.06-0.06-0.06c-0.09-0.12-0.17-0.17-0.29-0.26h-0.03c-0.06-0.06-0.09-0.09-0.14-0.12
		c-0.03-0.06-0.09-0.09-0.14-0.09c0,0,0-0.03-0.03-0.03c0,0-0.03-0.06-0.06-0.06c-0.03-0.03-0.03-0.06-0.06-0.03v-0.03h-0.03
		c-0.12-0.06-0.23-0.12-0.35-0.14c-0.03,0-0.06-0.03-0.12-0.06c-0.06-0.03-0.14-0.06-0.2-0.06c-0.06,0-0.14,0-0.23-0.03
		c-0.03-0.03-0.09-0.03-0.12-0.03h-0.06l-0.03,0.03c-0.03,0-0.03,0-0.03,0c-0.03,0-0.03,0-0.03,0c-0.03,0-0.03,0-0.03,0h-0.09v0.03
		h-0.06l-0.06,0.03c-0.03,0-0.03,0-0.06,0c-0.03,0-0.03,0-0.06,0.03h-0.03l-0.12,0.09c-0.06,0.03-0.12,0.06-0.17,0.12
		c0,0-0.03,0-0.03,0.06l-0.03,0.03c-0.03,0-0.09,0.06-0.12,0.09h-0.03c0,0,0,0,0,0.06c-0.09,0.06-0.14,0.2-0.17,0.29
		c-0.03,0.12-0.06,0.17-0.09,0.29c-0.03,0.17-0.06,0.35-0.06,0.55c0,0.32,0.06,0.61,0.14,0.93c0.03,0.2,0.09,0.41,0.17,0.58
		c0.03,0.09,0.06,0.15,0.12,0.2c0.09,0.26,0.2,0.46,0.32,0.64c0.06,0.09,0.09,0.17,0.14,0.23c0.03,0.12,0.09,0.17,0.17,0.26
		c0,0.06,0.03,0.06,0.06,0.09h0.03c0.09,0.14,0.2,0.32,0.35,0.41h0.03c0.03,0.06,0.06,0.09,0.09,0.09c0,0,0,0.03,0.03,0.03
		c0.03,0.06,0.06,0.12,0.09,0.12c0.17,0.14,0.38,0.29,0.58,0.41c0.03,0.03,0.09,0.06,0.12,0.06c0.35,0.17,0.64,0.29,0.93,0.29
		c0.03,0,0.09,0,0.12-0.03h0.03c0.09,0,0.17-0.06,0.26-0.09c0.06-0.03,0.12-0.03,0.17-0.06l0.09-0.09l0.06-0.03
		c0.06-0.06,0.09-0.06,0.12-0.12c0.03,0,0.03-0.03,0.03-0.03c0.03,0,0.03,0,0.03,0C65.77,65,65.8,65,65.8,65z M64.18,61.73
		c0,0.12-0.03,0.23-0.06,0.29c0,0.03,0,0.03,0,0.06c0,0.03,0,0.03-0.03,0.06c0,0.03-0.03,0.06-0.03,0.09c0,0.03,0,0.03-0.03,0.03
		v0.03H64v0.03c0,0-0.03,0-0.03,0.03c-0.03,0.03-0.03,0.03-0.06,0.06l-0.06,0.06c-0.03,0-0.06,0.03-0.09,0.03
		c-0.06,0-0.09,0.03-0.12,0.03h-0.03c0,0-0.03,0-0.06,0c-0.14,0-0.26-0.03-0.43-0.12c0,0-0.03,0-0.06-0.03
		c-0.09-0.06-0.17-0.12-0.26-0.2c-0.03,0-0.03,0-0.06-0.03c-0.03,0-0.03-0.03-0.06-0.06c-0.06-0.06-0.12-0.12-0.17-0.2
		c-0.03,0-0.03-0.03-0.03-0.06c-0.06-0.03-0.09-0.06-0.09-0.12c-0.03,0-0.03-0.06-0.06-0.09c-0.06-0.12-0.12-0.2-0.17-0.32
		c-0.03-0.03-0.03-0.06-0.06-0.09c-0.03-0.09-0.06-0.17-0.06-0.26c-0.06-0.17-0.09-0.32-0.09-0.46c0-0.09,0.03-0.17,0.03-0.26
		c0.03-0.06,0.03-0.09,0.06-0.12c0-0.06,0.03-0.12,0.06-0.17h0.03c0-0.03,0.03-0.03,0.06-0.06c0-0.03,0.03-0.03,0.03-0.03
		c0.03-0.03,0.06-0.06,0.09-0.06l0.06-0.03c0-0.03,0-0.03,0.03-0.03c0,0,0,0,0.03,0h0.03V59.7h0.06c0,0,0,0,0.03,0c0,0,0,0,0.03,0
		h0.03c0.03,0,0.12,0,0.17,0.03c0.09,0,0.2,0.06,0.32,0.12c0,0,0,0.03,0.03,0.03c0.03,0.03,0.06,0.03,0.09,0.09
		c0.03,0,0.06,0.03,0.09,0.06c0.06,0.03,0.12,0.06,0.14,0.12c0.03,0.03,0.03,0.03,0.06,0.06v0.03c0.06,0.03,0.09,0.09,0.12,0.12
		c0.09,0.09,0.14,0.2,0.23,0.32c0.06,0.12,0.09,0.23,0.14,0.35c0.03,0.03,0.03,0.06,0.03,0.12C64.12,61.32,64.18,61.52,64.18,61.73z
		"/>
	<path d="M104.33,79.17l1.59,0.64l2.49,0.98l1.51-0.87l2.06-1.19c0.09-0.06,0.2-0.12,0.29-0.17l0.14-0.06l10.84-6.26v1.1
		l-14.46,8.31l-3.51-0.55l-0.96-0.38h0V79.17z"/>
	<path d="M94.34,59.38l0.55-0.32l0.52,0.32l3.22,1.88l1.13-0.64l0.43-0.26l10.75-6.23l0.87-0.52h0.03l6.34,3.68l0.38,0.9v0.03
		l3.04,7.68l0.61,1.54v2.9l-11.33,6.52l-0.06,0.03l-1.56,0.9l-0.06,0.03l-0.12,0.06l-0.06,0.06l-0.84,0.46l-3.91-1.56l-0.03-0.03
		c0,0,0.03-0.03,0-0.06c0,0,0,0,0-0.03c0.03-0.03,0-0.09,0-0.14c0.03-0.03,0-0.09,0-0.12c-0.09-0.49-0.26-1.13-0.58-1.77
		c-0.09-0.17-0.17-0.35-0.29-0.52c-0.29-0.49-0.7-0.96-1.19-1.39c-0.29-0.23-0.61-0.46-0.99-0.7c-2.35-1.42-5.79-3.16-6.95-3.74h0
		v-8.89l0.06-0.06H94.34z"/>
	<path d="M97.55,72.51c0.09,0.03,0.14,0.06,0.23,0.12c0.09,0.06,0.17,0.09,0.26,0.14c0.06,0.03,1.54,0.78,2.84,1.68
		c1.3,0.9,1.48,2.69,1.48,4.23v1.19c0-0.55-0.41-1.27-0.7-1.77c-0.55-1.04-1.39-1.97-2.38-2.64c-0.52-0.35-1.04-0.67-1.59-0.99
		c-0.49-0.29-1.07-0.58-1.68-0.61c-0.43-0.03-0.84,0.2-1.19,0.49c0,0-0.06,0.09-0.09,0.09l-0.49-0.32h0v-3.36
		c0.23,0.12,0.52,0.26,0.81,0.43C95.82,71.58,96.68,72.05,97.55,72.51z"/>
	<polygon points="110.94,51.94 110.91,51.94 110.71,52.08 109.95,52.52 109.92,52.52 109.78,52.6 107.43,53.97 107.4,53.97 
		107.4,54.46 107.43,54.46 107.43,54.46 107.43,54.46 107.61,54.34 110.33,52.78 110.91,52.43 110.94,52.43 	"/>
	<rect x="107.4" y="53.97" width="0.03" height="0.49"/>
	<polygon points="107.43,54.46 107.43,54.46 107.43,54.46 	"/>
	<rect x="107.43" y="53.97" transform="matrix(0.7071 -0.7071 0.7071 0.7071 -6.8677 91.8455)" width="0" height="0.49"/>
	<polygon points="110.71,52.08 110.91,51.94 110.91,51.97 	"/>
	<polygon points="106.71,54.4 103.58,56.2 103.58,56.17 106.71,54.37 	"/>
	<path class="st2" d="M109.78,52.6l0.14-0.09l0.99-0.58v0.49l-0.58,0.35l-2.93,1.68v-0.49L109.78,52.6z M96.42,57.82v0.52l1.45,0.81
		v-0.49l-1.16-0.67l-0.17-0.12L96.42,57.82z M99.32,58.66v0.49l3.51-2.03v-0.49L99.32,58.66z M97.06,56.52l0.93,0.55l0.17,0.09
		l0.43,0.26l3.62-2.09l-0.43-0.26l-1.13-0.67h-0.03L97.06,56.52z M105.2,51.79l1.1,0.64l0.43,0.26l1.59-0.93l0.12-0.09l1.33-0.75
		l0.43-0.26l-1.54-0.9L105.2,51.79z"/>
	<polygon class="st3" points="104.91,66.08 105.12,66.71 107.64,73.93 121.6,65.9 118.56,58.23 118.53,58.23 	"/>
	<polygon class="st4" points="94.34,59.38 104.65,65.35 104.91,66.08 118.53,58.23 118.56,58.23 118.56,58.2 118.18,57.3 
		111.84,53.62 111.81,53.62 110.94,54.14 100.19,60.37 99.76,60.63 98.63,61.27 95.41,59.38 94.89,59.07 	"/>
	<path class="st1" d="M62.06,60.1c0-0.06,0.03-0.12,0.06-0.17h0.03c0-0.03,0.03-0.03,0.06-0.06c0-0.03,0.03-0.03,0.03-0.03
		c0.03-0.03,0.06-0.06,0.09-0.06l0.06-0.03c0-0.03,0-0.03,0.03-0.03c0,0,0,0,0.03,0h0.03V59.7h0.06c0,0,0,0,0.03,0c0,0,0,0,0.03,0
		h0.03c0.03,0,0.12,0,0.17,0.03c0.09,0,0.2,0.06,0.32,0.12c0,0,0,0.03,0.03,0.03c0.03,0.03,0.06,0.03,0.09,0.09
		c0.03,0,0.06,0.03,0.09,0.06c0.06,0.03,0.12,0.06,0.14,0.12c0.03,0.03,0.03,0.03,0.06,0.06v0.03c0.06,0.03,0.09,0.09,0.12,0.12
		c0.09,0.09,0.14,0.2,0.23,0.32c0.06,0.12,0.09,0.23,0.14,0.35c0.03,0.03,0.03,0.06,0.03,0.12c0.09,0.2,0.14,0.41,0.14,0.61
		c0,0.12-0.03,0.23-0.06,0.29c0,0.03,0,0.03,0,0.06c0,0.03,0,0.03-0.03,0.06c0,0.03-0.03,0.06-0.03,0.09c0,0.03,0,0.03-0.03,0.03
		v0.03H64v0.03c0,0-0.03,0-0.03,0.03c-0.03,0.03-0.03,0.03-0.06,0.06l-0.06,0.06c-0.03,0-0.06,0.03-0.09,0.03
		c-0.06,0-0.09,0.03-0.12,0.03h-0.03c0,0-0.03,0-0.06,0c-0.14,0-0.26-0.03-0.43-0.12c0,0-0.03,0-0.06-0.03
		c-0.09-0.06-0.17-0.12-0.26-0.2c-0.03,0-0.03,0-0.06-0.03c-0.03,0-0.03-0.03-0.06-0.06c-0.06-0.06-0.12-0.12-0.17-0.2
		c-0.03,0-0.03-0.03-0.03-0.06c-0.06-0.03-0.09-0.06-0.09-0.12c-0.03,0-0.03-0.06-0.06-0.09c-0.06-0.12-0.12-0.2-0.17-0.32
		c-0.03-0.03-0.03-0.06-0.06-0.09c-0.03-0.09-0.06-0.17-0.06-0.26c-0.06-0.17-0.09-0.32-0.09-0.46c0-0.09,0.03-0.17,0.03-0.26
		C62.03,60.16,62.03,60.13,62.06,60.1z"/>
	<path class="st1" d="M96.02,76.54v-0.03c0.03-0.06,0.06-0.12,0.09-0.15v-0.03c0,0,0,0,0.03,0V76.3c0.03-0.03,0.06-0.06,0.09-0.06
		l0.06-0.06h0.03c0.03-0.03,0.09-0.06,0.14-0.03c0-0.03,0-0.03,0.03-0.03h0.09c0.12,0,0.26,0.03,0.41,0.12c0.03,0,0.06,0,0.12,0.03
		c0.41,0.26,0.78,0.72,0.99,1.22c0.12,0.26,0.17,0.52,0.17,0.78c0,0.03,0,0.09-0.03,0.12v0.14c-0.03,0.06-0.03,0.09-0.06,0.12
		c0,0.03,0,0.03,0,0.06c-0.03,0.03-0.06,0.09-0.09,0.12h0.03l-0.03,0.03c-0.03,0.03-0.06,0.06-0.09,0.06c0,0,0,0.03-0.03,0.03
		c0,0.03,0,0.03,0,0.03L97.93,79H97.9l-0.03,0.03h-0.03c0,0,0,0-0.03,0c-0.03,0.03-0.06,0.03-0.12,0.03l-0.03,0.03h-0.06
		c-0.17,0-0.35-0.06-0.52-0.17c-0.14-0.06-0.29-0.17-0.41-0.29c-0.06-0.06-0.12-0.14-0.17-0.2c-0.17-0.2-0.32-0.46-0.41-0.72
		c-0.06-0.09-0.09-0.17-0.09-0.29c-0.06-0.14-0.09-0.32-0.09-0.46c0-0.12,0.03-0.2,0.03-0.26C95.99,76.62,95.99,76.56,96.02,76.54z"
		/>
	<path class="st1" d="M108.42,80.79l1.51-0.87l2.06-1.19c0.09-0.06,0.2-0.12,0.29-0.17l0.14-0.06l10.84-6.26v1.1l-14.46,8.31
		l-3.51-0.55l-0.96-0.38v-1.56l1.59,0.64L108.42,80.79z"/>
	<polygon class="st1" points="71.71,51.47 92.05,63.2 92.05,63.17 	"/>
	<polygon class="st5" points="95.5,62.69 95.5,67.84 102.94,71.67 101.49,65.96 	"/>
	<path class="st6" d="M119.98,69.61l1.27-0.75c0.32-0.17,0.7,0.06,0.7,0.41v0.23c0,0.35-0.17,0.64-0.46,0.81l-1.27,0.72
		c-0.32,0.17-0.7-0.03-0.7-0.41v-0.23C119.51,70.08,119.69,69.76,119.98,69.61z"/>
	<path class="st6" d="M108.85,76.01l1.27-0.75c0.29-0.17,0.67,0.03,0.67,0.41v0.23c0,0.32-0.17,0.64-0.43,0.81l-1.3,0.72
		c-0.29,0.17-0.67-0.06-0.67-0.41V76.8C108.39,76.48,108.56,76.16,108.85,76.01z"/>
	<polygon class="st6" points="106.71,54.86 103.58,56.66 103.58,56.17 106.71,54.37 	"/>
	<polygon class="st6" points="104.48,52.2 105.61,52.84 106.01,53.1 102.97,54.86 102.54,54.6 102.16,54.4 101.44,53.97 
		101.99,53.65 	"/>
	<path class="st7" d="M102.19,72.77c0.49,0.43,0.9,0.9,1.19,1.39c0.12,0.17,0.2,0.35,0.29,0.52c0.32,0.64,0.49,1.27,0.58,1.77
		c0,0.03,0.03,0.09,0,0.12c0,0.06,0.03,0.12,0,0.15c0,0.03,0,0.03,0,0.03c0.03,0.03,0,0.06,0,0.06l0.03,0.03l3.91,1.56l0.84-0.46
		l0.06-0.06l0.12-0.06l0.06-0.03l1.56-0.9l0.06-0.03l11.33-6.52v-2.9l-0.61-1.54l-13.96,8.03l-2.52-7.21l-0.2-0.64l-0.26-0.72
		l-10.31-5.97h-0.03l-0.06,0.06v8.89c1.16,0.58,4.61,2.32,6.95,3.74C101.58,72.31,101.9,72.54,102.19,72.77z M119.51,70.39
		c0-0.32,0.17-0.64,0.46-0.78l1.27-0.75c0.32-0.17,0.7,0.06,0.7,0.41v0.23c0,0.35-0.17,0.64-0.46,0.81l-1.27,0.72
		c-0.32,0.17-0.7-0.03-0.7-0.41V70.39z M108.39,77.03L108.39,77.03l0-0.23c0-0.32,0.17-0.64,0.46-0.78l1.27-0.75
		c0.29-0.17,0.67,0.03,0.67,0.41v0.23c0,0.32-0.17,0.64-0.43,0.81l-1.3,0.72C108.77,77.61,108.39,77.38,108.39,77.03z M102.94,71.67
		l-7.45-3.82v-5.16l6,3.27L102.94,71.67z"/>
	<path class="st7" d="M97.55,72.51c0.09,0.03,0.14,0.06,0.23,0.12c0.09,0.06,0.17,0.09,0.26,0.15c0.06,0.03,1.54,0.78,2.84,1.68
		c1.3,0.9,1.48,2.69,1.48,4.23v1.19c0-0.55-0.41-1.27-0.7-1.77c-0.55-1.04-1.39-1.97-2.38-2.64c-0.52-0.35-1.04-0.67-1.59-0.99
		c-0.49-0.29-1.07-0.58-1.68-0.61c-0.43-0.03-0.84,0.2-1.19,0.49c0,0-0.06,0.09-0.09,0.09l-0.49-0.32v-3.36
		c0.23,0.12,0.52,0.26,0.81,0.43C95.82,71.58,96.68,72.05,97.55,72.51z"/>
	<path class="st7" d="M59.16,52.83v2l3.01,1.77c0.29-0.06,0.64-0.06,1.04-0.06c1.62,0.03,3.36,2,4.2,3.07L92.1,73.86v-2L59.16,52.83
		z"/>
</g>
</svg>
