<?xml version="1.0" encoding="utf-8"?>
<!-- Generator: Adobe Illustrator 27.6.1, SVG Export Plug-In . SVG Version: 6.00 Build 0)  -->
<svg version="1.1" id="Layer_1" xmlns="http://www.w3.org/2000/svg" xmlns:xlink="http://www.w3.org/1999/xlink" x="0px" y="0px"
	 viewBox="0 0 172.9100037 90" style="enable-background:new 0 0 172.9100037 90;" xml:space="preserve">
<style type="text/css">
	.st0{fill:#888888;}
	.st1{fill:#9697CA;}
	.st2{fill:#3751A0;}
	.st3{fill:#F79420;}
	.st4{fill:#FFFFFF;}
	.st5{fill:#BABABA;}
	.st6{fill:#72C6EF;}
	.st7{fill:#333366;}
	.st8{opacity:0.65;fill:#1A1A1A;}
	.st9{fill:#D1ECF2;}
	.st10{fill:#A9DDE9;}
	.st11{fill:#333333;}
	.st12{fill:#1A1A1A;}
	.st13{fill:#CA2026;}
</style>
<g>
	<g>
		<path class="st0" d="M115.6291656,83.9157486c0-0.1738281,0-0.3476562-0.029007-0.5214844h6.4897308v-1.9990845h14.202713V90
			h-25.9653931C113.3114243,89.5943451,115.6291656,87.0157852,115.6291656,83.9157486z M55.7500916,90h52.9256897
			c-2.9840393-0.4056549-5.3019562-2.9842148-5.3019562-6.0842514c0-0.1738281,0-0.3476562,0.029007-0.5214844H63.6594276v2.1439133
			h-2.462738C60.6752129,88.0589142,58.4444809,90,55.7500916,90z M36.483551,83.1626205v4.3367157L39.0331116,90h16.71698
			c-2.6655655,0-4.8674736-1.9410858-5.3889503-4.4618225H39.0621109L36.483551,83.1626205z"/>
		<path d="M36.4953499,72.2690659v10.8935547l2.5785637,2.3755569h11.2990265C50.8944168,88.0589142,53.0963287,90,55.7617149,90
			c2.6945648,0,4.9253006-1.9410858,5.4467773-4.4618225h2.462738v-2.1439133h39.7433968
			c-0.0289993,0.1738281-0.0289993,0.3476562-0.0289993,0.5214844c0,3.1000366,2.3177338,5.6785965,5.3019485,6.0842514h1.6514359
			c2.9840393-0.4056549,5.3019485-2.9842148,5.3019485-6.0842514c0-0.1738281,0-0.3476562-0.0289993-0.5214844h6.4897308v-3.592514
			h14.2027054v-6.1420746c-0.3476562-0.4346542-0.6664734-0.869133-1.0141296-1.3037872
			c-0.1158295-0.1448212-0.2606506-0.3186493-0.3766479-0.4924774H63.6712303V53.0315247h-2.1729126v0.7243042H57.123497v1.7094345
			H46.2009468L40.522522,65.9531631c-0.6374817,1.129776-0.956131,2.4335556-1.0431328,3.7373428H39.421566L36.4953499,72.2690659z"
			/>
		<path class="st1" d="M43.07621,65.757309v5.1570435l3.7953453-7.0112572
			c0.1738243-0.2897148,0.4056511-0.5504761,0.6663017-0.7243004v-5.5336914h-0.0580025L43.07621,65.757309z"/>
		<path class="st2" d="M119.9169846,79.8088226v1.4196091h-4.9654388c-0.2318268-0.5214767-0.5504837-1.0141296-0.9271317-1.4196091
			H119.9169846z"/>
		<path class="st2" d="M53.8249245,77.954567h7.6486855v5.4177704h-0.28965
			c-0.4924774-2.5495605-2.752388-4.4906464-5.4467773-4.4906464c-0.3186493,0-0.6663017,0.029007-0.956131,0.0868301
			c-0.1738243,0.0289993-0.3476486,0.0579987-0.4924736,0.1159973c-0.2028275,0.0288239-0.3766556,0.1158295-0.5504799,0.1738281
			c-0.2318268,0.0868225-0.4924774,0.202652-0.7243042,0.3476486c-0.2608261,0.1448288-0.5214767,0.3186569-0.7243042,0.5214767
			c-0.231823,0.1738281-0.4634743,0.3766556-0.6084785,0.579483c-0.0289993,0.0288239-0.086998,0.0578232-0.086998,0.1158218
			c-0.2028275,0.1738281-0.3186531,0.3476562-0.4056549,0.5214767c-0.0579987,0.0870056-0.1158257,0.1448288-0.144825,0.2318268
			c-0.1738243,0.2318268-0.28965,0.4924774-0.3766518,0.7533035c-0.144825,0.28965-0.2318268,0.5792999-0.28965,0.8981323
			c0,0.0578232-0.0289993,0.0868225-0.0289993,0.1448212H49.16045v-0.7533035
			C49.1602745,80.0404739,51.2463608,77.954567,53.8249245,77.954567z"/>
		<path class="st2" d="M41.4824104,73.956398v4.8092957c0,0.8403015,0.7823029,1.5356064,1.7094345,1.5356064h4.2299957
			c0.956131-2.6365662,3.4476891-4.5196457,6.4029045-4.5196457h7.6486893V62.7151909H48.8706245
			c-0.4926529,0-0.956131,0.144825-1.3327827,0.4634781c-0.2606506,0.1738243-0.4924774,0.4346542-0.6663017,0.7243042
			L43.0761948,70.91436L41.4824104,73.956398z M48.0884972,72.9712677l2.5205612-7.214035h8.3149872v7.214035H48.0884972z"/>
		<path class="st3" d="M60.7783203,55.2114563v0.7243042h-2.2309113v-0.7243042H60.7783203z M58.5472336,58.8619499v0.6373901
			h2.2309113v-0.6373901H58.5472336z M60.7781448,60.2236443h-2.2309113v1.1299133h2.2309113V60.2236443z"/>
		<rect x="58.548687" y="56.5894279" class="st4" width="2.2307343" height="1.5282006"/>
		<path class="st0" d="M106.2710419,83.9157486c0,1.7964325,1.4486084,3.2450409,3.2160416,3.2450409
			c1.796257,0,3.2448654-1.4486084,3.2448654-3.2450409c0-0.1738281-0.0289993-0.3476562-0.0579987-0.5214844
			c-0.1158295-0.7242966-0.4634781-1.3616028-0.956131-1.8252563c-0.1448288-0.1158218-0.28965-0.2316513-0.4634781-0.3476486
			c-0.5214767-0.3186493-1.1299591-0.5214767-1.7672577-0.5214767c-0.6374817,0-1.2457809,0.2028275-1.7384338,0.5214767
			c-0.2028275,0.1159973-0.3766556,0.2608261-0.5504761,0.4346542c-0.4634781,0.4634705-0.7533035,1.0429535-0.869133,1.7382507
			C106.3000412,83.5680923,106.2710419,83.7419205,106.2710419,83.9157486z M109.3420792,82.5251389
			c0-0.6084747,0.5216599-1.1299591,1.1299591-1.1299591c0.6374817,0,1.1589584,0.5214844,1.1589584,1.1299591
			c0,0.6374817-0.5214767,1.1299591-1.1589584,1.1299591C109.863739,83.655098,109.3420792,83.1626205,109.3420792,82.5251389z"/>
		<path class="st2" d="M63.6594276,79.8017502v1.4196091h40.3518791c0.2606506-0.5214767,0.5794754-1.0139542,0.956131-1.4196091
			H63.6594276z"/>
		<path class="st0" d="M53.1135292,84.4374008c0,1.4486084,1.1879539,2.6653824,2.6365623,2.6653824
			c1.4774323,0,2.6653862-1.216774,2.6653862-2.6653824c0-1.4776077-1.1879539-2.6655655-2.6653862-2.6655655
			C54.3014832,81.7718353,53.1135292,82.9597931,53.1135292,84.4374008z M55.8369179,83.1336212
			c0-0.4926605,0.4056511-0.869133,0.8981285-0.869133c0.4636536,0,0.8691292,0.3764725,0.8691292,0.869133
			c0,0.4924698-0.4054756,0.8691254-0.8691292,0.8691254C56.242569,84.0027466,55.8369179,83.626091,55.8369179,83.1336212z"/>
		<rect x="63.6594276" y="74.0363235" class="st5" width="3.9868224" height="0.5428739"/>
		<path class="st6" d="M42.4099083,66.9741364L43.07621,65.757309v5.1570435l-1.5934296,3.0420761v-3.3897324
			C41.4827805,69.3208923,41.8014297,68.0750885,42.4099083,66.9741364z M47.5378571,57.6451035v5.5336914
			c0.3766518-0.3186951,0.8403053-0.4635658,1.3327827-0.4635658h8.2281647v-5.0701256H47.5378571z"/>
		<rect x="68.8750992" y="74.0432205" class="st5" width="65.2445908" height="0.5359775"/>
		<path class="st5" d="M39.3098526,72.6526108v6.1130829c0,2.0280838,1.7382584,3.708519,3.8823471,3.708519h3.8243408
			c0,0.0578232-0.0289993,0.0868225-0.0289993,0.1448212v0.7533035h-7.0982094l-1.2457809-1.1589508v-8.9522934
			L39.3098526,72.6526108z"/>
		<rect x="68.8748322" y="75.3111038" class="st5" width="65.2566605" height="0.695303"/>
		<polygon class="st5" points="63.642231,77.1943665 63.642231,77.6288376 134.131485,77.6288376 134.131485,76.7307129 
			68.8748322,76.7307129 68.8748322,77.1943665 		"/>
		<polygon class="st7" points="48.0883331,72.9713669 58.9240608,72.9713669 58.9240608,65.757309 50.6088943,65.757309 		"/>
		<path class="st5" d="M109.3420792,82.5251389c0,0.6374817,0.5216599,1.1299591,1.1299591,1.1299591
			c0.6374817,0,1.1589584-0.4924774,1.1589584-1.1299591c0-0.6084747-0.5214767-1.1299591-1.1589584-1.1299591
			C109.863739,81.3951797,109.3420792,81.9166641,109.3420792,82.5251389z"/>
		<path class="st5" d="M55.8369179,83.1336212c0,0.4924698,0.4056511,0.8691254,0.8981285,0.8691254
			c0.4636536,0,0.8691292-0.3766556,0.8691292-0.8691254c0-0.4926605-0.4054756-0.869133-0.8691292-0.869133
			C56.242569,82.2644882,55.8369179,82.6409607,55.8369179,83.1336212z"/>
		<rect x="68.8748322" y="76.0064087" class="st0" width="65.2566605" height="0.7243034"/>
		<rect x="68.8750992" y="74.5758362" class="st0" width="65.2447662" height="0.7243034"/>
	</g>
	<g>
		<path class="st8" d="M76.5906525,76.1522675h-2.1916962l-7.7201614-0.4907761v-1.7991562l5.4629745-0.3597946h0.6868362
			C73.3848648,75.0726852,74.8569794,76.1522675,76.5906525,76.1522675z M113.0654373,73.2735291
			c-4.3181,0-9.6502991,0.1307755-15.3095398,0.2617569c-3.2387238,0.0652847-6.5100021,0.1307755-9.6502991,0.1962662h-0.0327454
			c-0.1635208,0.3597946-0.3925323,0.6215515-0.4252777,0.6540985l-0.0982361,0.0982285h-6.0845184
			c-0.6542969-0.1307755-1.0468369-0.2617569-1.3411407-0.3270416c-0.71978,1.1776047-2.0281677,1.99543-3.5330276,1.99543
			h40.3348694C115.0936127,76.1522675,113.5560074,74.9419098,113.0654373,73.2735291z M124.8419495,72.782753
			c-1.3411331,0.2290192-2.6824722,0.4252853-4.0236053,0.4580307c-0.4907684,1.7011261-2.0281754,2.9114838-3.8928223,2.9114838
			h4.4816284l14.1972198-1.243103v-1.243103L124.8419495,72.782753z"/>
		<g>
			<path d="M65.4336929,70.3290176c0,1.6372681,1.7724609,2.9470825,3.2403564,2.9470825h3.3044434
				c0.3250122,2.2647095,2.2540283,4.0115356,4.6087646,4.0115356c1.963501,0,3.6380005-1.2130737,4.3310547-2.9281616
				c0.1620483,0.0398254,0.3381348,0.0811768,0.5487061,0.1248169h6.0855103l0.0906372-0.1016235
				c0.0338745-0.0340271,0.2709961-0.2935791,0.4290771-0.6550598h0.0338745
				c3.1387329-0.0566101,6.413269-0.124054,9.6536255-0.191803c5.3375244-0.1278687,10.3717041-0.2441406,14.5568848-0.2572632
				c0.3262329,2.2637939,2.2549438,4.0090942,4.6087646,4.0090942c2.3858643,0,4.3319702-1.7933655,4.6182251-4.1015625
				c1.1010742-0.0714111,2.2024536-0.2124023,3.303833-0.4067993c0.1919556-0.0338745,0.4177856-0.0564575,0.6207275-0.090332
				l0.7791138-0.135498c0.8242798-0.135498,1.6375732-0.2258301,2.4163895-0.3613281
				c1.1178589-0.1580811,2.2357178-0.2935791,3.3422852-0.5194092c0.135498,0,0.2935791-0.0338745,0.5194092-0.067749
				c1.4111328-0.1921082,3.7371826-0.5532837,3.8955688-2.0324707c0.0335693-0.383606-0.0680542-0.9481812-0.8132935-1.3322449
				c-0.4968262-0.2708435-0.9707642-0.4292297-1.5014648-0.4969788l1.907959-3.9067039
				c0.067749-0.1353455,0.2258301-0.3611755,0.2258301-0.5531311c0.0338745-0.1693726-0.0338745-0.2709961-0.2935791-0.2709961
				h-0.9820557l0.428772-0.8468628c0.0680542-0.1242065,0.2258301-0.3611755,0.2597046-0.5532837
				c0-0.1353455-0.067749-0.2597046-0.3274536-0.2597046h-2.4838257
				c-4.1439819-0.0338745-12.7365189-0.0674438-19.6240311-0.0338745h-0.0564575l0.1016235-0.2484131l1.0162354-3.3081055
				c0.0338745-0.1245117,0.0338745-0.2258301-0.0338745-0.3161621c-0.0338745-0.1019287-0.1358032-0.1693726-0.2597046-0.2032471
				l-1.2194824-0.2935791c-0.1919556-0.067749-0.3839111,0.0338745-0.4855347,0.2258301l-1.7050171,3.8952637l-0.1239014,0.2822876
				c-0.1245117-0.0338745-0.2822876,0-0.4180908,0c-0.0564575-0.0338745-0.090332-0.0338745-0.1580811,0
				c-0.2258301-0.0338745-0.3948975-0.0338745-0.5871582,0c-0.4290771-0.0338745-0.7565308-0.0338745-1.0839844,0
				l-0.6658936,0.0112915c-0.0338745,0-0.0338745,0-0.0338745,0h-0.0680542
				c-0.1916504-0.090332-0.2935791-0.191803-0.451355-0.2597046c-0.2032471-0.135498-0.3952026-0.191803-0.5307007-0.2597046
				c-2.1228027-0.8467102-3.9855957-1.0838318-4.0536499-1.1177063c-0.1351929,0-0.2597046,0.0338745-0.3613281,0.1353455
				c-0.0335693,0.0338745-0.0335693,0.0338745-0.0335693,0.067749c-0.3842163-0.067749-0.7794189-0.1351929-1.1407471-0.2030945
				c-0.3952026-0.2935791-0.8242798-0.7115173-0.9143066-1.1064148c-0.1696777-0.6890869,1.2081909-1.5019226,1.2081909-1.5019226
				s0.0109863-0.0338745,0.0222778-0.0566101c0.0112915-0.0674438,0.022583-0.214386-0.1013184-0.2932739
				c-0.1696777-0.1016235-0.5984497-0.1919556-1.1178589-0.1580811c-0.4858398,0.0338745-0.4290771,0.3274536-0.4290771,0.3274536
				c-0.0115967,0.0112915-0.0115967,0.0112915-0.0115967,0.0112915s0,0.0674438,0,0.16922
				c0.0341797,0.1582336,0.0341797,0.3501892,0,0.5871582l-0.0338745-0.16922l0.0112915-0.1130676
				c-0.022583-0.191803-0.1916504-0.3274536-0.383606-0.3274536h-1.0165405c-0.1916504,0-0.3613281,0.1356506-0.3948975,0.3274536
				l-0.0112915,0.0791931l-0.3613281,2.2242737c-0.4968262,0.0338745-0.9146118,0.1017761-1.2081909,0.16922
				c0-0.0338745,0-0.0338745,0-0.0338745c-0.0341797-0.0674438-0.0341797-0.1014709-0.1019287-0.1353455
				c-0.0674438-0.0566101-0.1916504-0.1243591-0.2932739-0.0904846c-5.2053833,0.3840637-7.9827881,2.2583008-8.9651489,3.1051636
				c-6.1425781-0.1014709-13.4588623-0.1014709-20.2337646,0.0338745c0-0.0112915,0-0.0112915,0-0.022583h-0.3613281
				c-0.1916504,0-0.3948975,0.1693726-0.3948975,0.3952026c0,0.2935791,0.0338745,0.5871582,0.1016235,0.8468628
				c0.1016235,0.3161583,0.2145386,0.5871544,0.3497314,0.801693c0,0.0112915,0.022583,0.022583,0.022583,0.0338745
				c-0.0112915,0-0.0112915,0-0.022583,0c-0.1242065,0.0338745-0.2481079,0.045166-0.3387451,0.0900269l-0.0109863-0.0109863
				c-0.1922607,0.0335693-0.2938843,0.1014709-0.3613281,0.1693726c-0.0906372,0.067749-0.1583862,0.2256775-0.1583862,0.3613281
				c0.0338745,0.39505,0.3274536,1.0160828,0.7229614,1.603241c0.2255249,0.3953552,0.519104,0.7789612,0.7791138,1.1404419
				c0,0,0,0.0112915,0.0109863,0.0112915l-0.022583,0.0112915C66.0886002,68.6578751,65.4336929,69.3806839,65.4336929,70.3290176z
				 M99.555397,61.0028496c0.8126831,0.0335693,1.7047119,0.1013184,2.5854492,0.3271484l0.0567627,0.3500366
				c-0.8016968,0.067749-1.5585327,0.1919556-2.3034668,0.2935791c-0.0906372,0.0338745-0.1919556,0.0338745-0.2935791,0.067749
				h-0.0115967l-0.0335693-1.0049438V61.0028496z M96.1566544,61.2398186c0.519104-0.1017761,1.5356445-0.236969,2.8115845-0.236969
				l0.067749,1.1401367c-0.9484863,0.1242065-1.8292236,0.2822876-2.6422119,0.4516602
				c-0.0564575,0.0338745-0.1693726,0.0453186-0.2371216,0.0453186V61.2398186z"/>
			<path class="st9" d="M108.6579971,63.0268021h-1.0468292c-0.1962738-0.0982323-0.4252853-0.1962662-0.6215515-0.2617569
				c-0.1962738-0.0982361-0.39254-0.1635246-0.5888062-0.2290115c-0.1307831-0.0654907-0.2943039-0.0980377-0.4580307-0.1635246
				c-0.5560608-0.19627-1.1448669-0.3597946-1.7336655-0.4580269c-0.39254-0.0654907-0.78508-0.1307793-1.1450653-0.1635246
				l-0.032547-0.1635246l-0.0654907-0.4252815l-0.0654907-0.3272476l-0.0327454-0.1962662
				c0.6870422,0.1309776,1.9301376,0.4252815,3.3040237,0.9487953c0.2617569,0.0980339,0.6542892,0.2943039,1.0795746,0.5560608
				c0.0327454,0,0.0654907,0.0327454,0.0980301,0.0654907c0.2617645,0.1307793,0.4907761,0.2615585,0.752533,0.3925362h0.0327454
				C108.3309479,62.7322998,108.461731,62.8630791,108.6579971,63.0268021z M87.2311859,63.3538513
				c0.6542969,0.4907684,1.6028976,0.7850723,2.6169815,0.9160538c1.4721146-1.7993622,3.3695068-2.4862022,5.4957199-2.8134499
				v-0.9813423C90.5024643,60.9003944,88.0490112,62.6668091,87.2311859,63.3538513z"/>
			<path class="st10" d="M107.6111679,63.0268021h-1.99543c-0.7523346,0-1.5048599,0.0652924-2.2899323,0.1307793
				l-0.1307831-0.7850723h-0.0327454l-0.0982285-0.6215515c0.3599854,0.0327454,0.7525253,0.0980339,1.1450653,0.1635246
				c0.5887985,0.0982323,1.1776047,0.2617569,1.7336655,0.4580269c0.1637268,0.0654869,0.3272476,0.0980339,0.4580307,0.1635246
				c0.1962662,0.0654869,0.3925323,0.1307755,0.5888062,0.2290115
				C107.1858826,62.8305359,107.4148941,62.9285698,107.6111679,63.0268021z M89.8481674,64.2699051
				c0.0327454,0.0325394,0.0654907,0.0325394,0.0982361,0.0325394c2.4207077,0.2617645,3.3365631,0.2617645,4.4816284,0.2617645
				v0.0327454c0.2943039-0.0654907,0.5888062-0.1307831,0.9158554-0.2290192v-2.9114799
				C93.2176743,61.7837029,91.320282,62.4705429,89.8481674,64.2699051z"/>
			<path class="st11" d="M88.9323196,65.7092743c0,0.0325394-0.0327454,0.0652847-0.0327454,0.0980301
				c-0.0327454,0.0654907-0.0327454,0.1307831-0.0654907,0.1962738c-0.0654907,0.1962662-0.0982361,0.4252777-0.1635284,0.6542892
				h-0.0327454l-10.5008621-0.1635208c-0.1635208-0.0327454-0.2942963-0.0654907-0.4578247-0.0654907
				c-0.1637192-0.0327454-0.3272476-0.0654907-0.5235138-0.0654907c-0.1635208-0.032547-0.3597946-0.032547-0.5560608-0.032547
				c-0.2945023,0-0.5560608,0.032547-0.8178177,0.0652924c-0.1635284,0-0.2945023,0.0327454-0.4580307,0.0654907h-0.0980301
				l-8.6362152-0.0982361c-0.1635208-0.2943039-0.2945023-0.5233154-0.359787-0.7195816
				c0.1635208-0.0327454,0.4250793-0.0654907,0.752327-0.1307831c3.5330276-0.2945023,15.4077759,0.032547,19.6603928,0.1307831
				C87.6237259,65.6765289,88.4087982,65.7092743,88.9323196,65.7092743z M132.865509,68.4242859h-0.2290192
				c-0.4907684-0.0652924-0.9487915-0.0980377-1.4066162-0.1307831c-0.6542969-0.0654831-1.2758484-0.1307755-1.9301453-0.1635208
				c-1.4066238-0.0982361-2.8132477-0.1635208-4.2198715-0.2290115c-1.1123199-0.0327454-2.1918945-0.0982361-3.2712708-0.1635284
				c-0.1309814,0-0.2290192-0.0327377-0.2945023-0.1309738c-0.0327454,0-1.5701523-1.7009277-4.5796661-1.7009277
				c-1.9301453,0-3.6965561,1.1448669-3.6965561,1.1448669c-0.0982361,0.0654907-0.1637268,0.0654907-0.2617569,0.0654907
				l-8.9960098-0.1962738v1.3411407l8.2436752,0.2290115c0.0980377-0.0982361,0.1962738-0.1962738,0.3270493-0.2945023
				c0.0982361-0.0980377,0.2290115-0.2288132,0.3597946-0.3270493c0.0654907-0.0327454,0.1309738-0.0982361,0.2290115-0.1307831
				c0.0982361-0.0982285,0.2290115-0.1962662,0.3272476-0.2617569c0.032547,0,0.032547,0,0.032547,0
				c0.2290115-0.1635208,0.4580231-0.2945023,0.71978-0.3925323c0.2943039-0.1309814,0.5888062-0.2617569,0.9486008-0.3597946
				c0.1309814-0.0327454,0.3272476-0.0982361,0.4907684-0.0982361c0.1635284-0.0654831,0.3270493-0.0980301,0.5233154-0.0980301
				c0.2945023-0.0327454,0.5888062-0.0654907,0.9160538-0.0654907c2.6169815,0,4.1871262,1.7336731,4.6451569,2.3226776h0.0654907
				l13.0195999-0.0327454C134.2393799,68.522522,133.5523529,68.4897766,132.865509,68.4242859z M96.4234619,67.410202v0.0327377
				c-0.1962662,0.0654907-0.3597946,0.0654907-0.3597946,0.0654907s0-0.0654907-0.0327454-0.1309738L96.4234619,67.410202z
				 M95.5074081,67.3774567v0.0327454c0,0.0327377-0.032547,0.0327377-0.032547,0.0327377c0,0.0654907,0,0.0982361,0,0.0982361
				c-0.2617569,0-0.4580231-0.0982361-0.5890045-0.1962662L95.5074081,67.3774567z M103.1622772,66.886879v0.7195892
				l-6.2154999-0.1962662c0-0.0652924,0-0.0980377-0.0327454-0.1307831
				c-0.032547-0.1307755-0.0652847-0.1962662-0.0652847-0.1962662c-0.0327454,0.1962662-0.2290192,0.2943039-0.39254,0.3270493
				h-0.0327454v0.0327377c-0.1962662,0.0654907-0.3597946,0.0654907-0.3597946,0.0654907s0-0.0654907-0.0327454-0.1309738
				c0-0.0980377-0.0654831-0.1962738-0.0982285-0.2615585c0-0.0654907-0.0652924,0.1307755-0.1635284,0.1307755
				c-0.0654907,0-0.1307755-0.0654907-0.1962662-0.0980301c0,0-0.0327454,0.0325394-0.0327454,0.0652847
				c-0.0327454,0-0.0327454,0.0327454-0.0327454,0.0654907v0.1307831c0,0.0327377-0.032547,0.0327377-0.032547,0.0327377
				c0,0.0654907,0,0.0982361,0,0.0982361c-0.2617569,0-0.4580231-0.0982361-0.5890045-0.1962662
				c-0.0652847-0.0327454-0.0980301-0.0982361-0.1635208-0.1309814c0-0.0327454,0-0.0327454-0.0327454-0.0327454
				c0,0-0.032547-0.0325394-0.032547,0.0327454c-0.0327454,0.0327454-0.0327454,0.0327454-0.0654907,0.0654907
				c0,0,0,0.0327454-0.0327377,0.0654907l-5.1686707-0.1962662c0.0654907-0.3272476,0.1635208-0.6542969,0.2290115-0.9487991
				c0.0327454-0.0654907,0.0654907-0.0980377,0.0654907-0.1635284c0.0327454-0.0654831,0.0654907-0.1635208,0.0980301-0.2290115
				c0-0.0327454,0.0327454-0.0980301,0.0327454-0.1307755v-0.0327454c0,0,0,0,0.0327454-0.0327454
				c0.0654907-0.1635208,0.1307831-0.3270493,0.1635284-0.4580307c0.5887985,0.0327454,1.0795746,0.0982361,1.5048523,0.1309814
				c-0.3925323,0.1307831-0.6215439,0.1962662-0.6215439,0.1962662c-0.0654907,0.0327454-0.1307831,0.0652924-0.1635284,0.1307831
				c-0.0654907,0.0654907-0.1309814,0.1962662-0.1309814,0.2945023c0.0327454,0.1962662,0.1962738,0.3597946,0.39254,0.39254
				c0.359993,0.0327377,0.7197876,0.0652847,1.1123199,0.0980301c0.3597946,0.0327454,0.7850723,0.0654907,1.1776123,0.0982361
				C97.3067703,66.7886505,102.4752426,66.886879,103.1622772,66.886879z"/>
			<path class="st4" d="M113.4013824,57.9236221l-0.9813385,3.1402969l-0.0654907,0.2617569l-0.1635284,0.5560608
				l-0.0982285,0.2617569l-0.1635284,0.4907722h-1.0795746v-0.0327454l0.1962662-0.4580269l0.0982361-0.2617569l0.2290115-0.5560608
				l0.0980377-0.2617569l1.4393692-3.2712746L113.4013824,57.9236221z"/>
			<path class="st5" d="M75.534462,72.8221359V72.94207c0-0.0300293,0.0146484-0.0750732,0.0146484-0.1199341
				c0-0.0300293,0-0.0450439,0.0153809-0.0748901C75.534462,72.777092,75.534462,72.7921066,75.534462,72.8221359z
				 M75.6241837,73.362114c0,0-0.0450439-0.0750732-0.0750732-0.2250366
				c0.0153809,0.1499634,0.0600586,0.2400513,0.0600586,0.2400513S75.609169,73.362114,75.6241837,73.362114z
				 M76.2093887,73.0922165c-0.1651611,0-0.3153076,0.0748901-0.4200439,0.1347656
				c0.1047363-0.0598755,0.2398682-0.119751,0.4200439-0.119751c0.0596924,0,0.1051025,0.0150146,0.1497803,0.0448608
				C76.3144913,73.1072311,76.2690811,73.0922165,76.2093887,73.0922165z M76.3741837,72.6571579
				c0,0,0-0.1201172,0.0300293-0.210022c-0.0450439,0.0899048-0.0450439,0.1799927-0.0450439,0.1799927
				c-0.1497803,0-0.2698975-0.0300293-0.3449707-0.0750732c-0.0446777,0-0.0446777,0-0.0446777,0
				C76.0742569,72.612114,76.2093887,72.6571579,76.3741837,72.6571579z M76.4342422,72.402092h0.0150146v-0.0150146h-0.0150146
				V72.402092z M76.5693741,73.3470993c-0.0450439-0.0450439-0.1051025-0.1349487-0.1951904-0.1799927
				c0.1051025,0.0899048,0.1801758,0.210022,0.1801758,0.210022s0,0,0.0150146-0.0150146
				C76.5693741,73.362114,76.5693741,73.362114,76.5693741,73.3470993z M76.5693741,72.4621506
				c0.0150146,0.0148315,0.0150146,0.0148315,0.0300293,0.0148315c0.0245361,0,0.0322266-0.0197754,0.0490723-0.0305786
				c-0.0161133,0.0060425-0.0256348,0.0157471-0.0490723,0.0157471
				C76.5843887,72.4621506,76.5693741,72.4621506,76.5693741,72.4621506z M76.7195206,72.402092
				c-0.0179443,0.0177612-0.0472412,0.0283813-0.0710449,0.0443115
				C76.6931534,72.4291916,76.7195206,72.402092,76.7195206,72.402092z M76.7491837,72.3870773
				c-0.0150146,0-0.0150146,0-0.0296631,0.0150146c0.0596924,0.0450439,0.0897217,0.1349487,0.1047363,0.1799927
				C76.8242569,72.5220261,76.8092422,72.4471359,76.7491837,72.3870773z M76.659462,73.2419968
				c0.074707-0.0748901,0.1647949-0.1347656,0.2548828-0.1347656c-0.0150146-0.0150146-0.0150146-0.0150146-0.0300293-0.0150146
				C76.7942276,73.0922165,76.7041397,73.1671066,76.659462,73.2419968z M77.2292862,72.5520554
				c-0.0450439,0.0150146-0.0900879,0.0300293-0.1347656,0.0450439c0.0446777,0,0.1047363-0.0150146,0.1497803-0.0450439H77.2292862
				z M77.4991837,73.3470993c0.0300293,0.0150146,0.0450439,0.0300293,0.0450439,0.0300293
				c0.1501465-0.3149414,0.1051025-0.5549927,0.0750732-0.75h-0.0150146
				C77.6343155,72.8221359,77.6493301,73.0772018,77.4991837,73.3470993z M77.2292862,72.5520554
				c-0.0450439,0.0150146-0.0900879,0.0300293-0.1347656,0.0450439c0.0446777,0,0.1047363-0.0150146,0.1497803-0.0450439H77.2292862
				z M75.534462,72.8221359V72.94207c0-0.0300293,0.0146484-0.0750732,0.0146484-0.1199341
				c0-0.0300293,0-0.0450439,0.0153809-0.0748901C75.534462,72.777092,75.534462,72.7921066,75.534462,72.8221359z
				 M76.0141983,72.5520554c-0.0446777,0-0.0446777,0-0.0446777,0c0.1047363,0.0600586,0.2398682,0.1051025,0.4046631,0.1051025
				c0,0,0-0.1201172,0.0300293-0.210022c-0.0450439,0.0899048-0.0450439,0.1799927-0.0450439,0.1799927
				C76.2093887,72.6271286,76.0892715,72.5970993,76.0141983,72.5520554z M76.4342422,72.3870773v0.0150146h0.0150146v-0.0150146
				H76.4342422z M76.7195206,72.402092c-0.0179443,0.0177612-0.0472412,0.0283813-0.0710449,0.0443115
				C76.6931534,72.4291916,76.7195206,72.402092,76.7195206,72.402092z M76.5994034,72.4621506
				c-0.0150146,0-0.0300293,0-0.0300293,0c0.0150146,0.0148315,0.0150146,0.0148315,0.0300293,0.0148315
				c0.0245361,0,0.0322266-0.0197754,0.0490723-0.0305786C76.6323624,72.452446,76.6228409,72.4621506,76.5994034,72.4621506z
				 M76.7491837,72.3870773c-0.0150146,0-0.0150146,0-0.0296631,0.0150146
				c0.0596924,0.0450439,0.0897217,0.1349487,0.1047363,0.1799927
				C76.8242569,72.5220261,76.8092422,72.4471359,76.7491837,72.3870773z M73.6894913,72.7472458
				c0,1.6047363,1.3348389,2.9099121,2.9099121,2.9099121c1.6047363,0,2.9399414-1.3051758,2.9399414-2.9099121
				c0-1.6051025-1.3352051-2.9100952-2.9399414-2.9100952C75.0243301,69.8371506,73.6894913,71.1421432,73.6894913,72.7472458z
				 M77.5742569,70.5120773l-0.9448242,1.6049194l-0.9752197-1.6049194H77.5742569z M76.989418,73.2570114l1.7248535,0.7800293
				l-1.5300293,1.1099854L76.989418,73.2570114z M76.359169,73.152092
				c-0.0446777-0.0448608-0.0900879-0.0598755-0.1497803-0.0598755c-0.1651611,0-0.3153076,0.0748901-0.4200439,0.1347656
				c-0.1051025,0.0600586-0.1651611,0.1351318-0.1651611,0.1351318s-0.0450439-0.0750732-0.0750732-0.2250366
				c0-0.0448608-0.0146484-0.1199341-0.0146484-0.1950073c0-0.0300293,0.0146484-0.0750732,0.0146484-0.1199341
				c0-0.0300293,0-0.0450439,0.0153809-0.0748901c0-0.0450439,0-0.0900879,0.0146484-0.1201172L74.1692276,72.94207
				l0.5852051-1.7698975l1.2597656,1.3798828c-0.0446777,0-0.0446777,0-0.0446777,0
				c0.1047363,0.0600586,0.2398682,0.1051025,0.4046631,0.1051025c0,0,0-0.1201172,0.0300293-0.210022l0.0150146-0.0150146
				c-0.0150146-0.0150146,0-0.0150146,0.0150146-0.0300293h0.0150146c0.0150146,0,0.0300293,0.0150146,0.0450439,0.0300293
				c0,0,0,0,0.0150146,0.0150146c0.0150146,0,0.0300293,0.0150146,0.0600586,0.0150146
				c0.0150146,0.0148315,0.0150146,0.0148315,0.0300293,0.0148315c0.0245361,0,0.0322266-0.0197754,0.0490723-0.0305786
				c0.0446777-0.0172119,0.0710449-0.0443115,0.0710449-0.0443115c0.0596924,0.0450439,0.0897217,0.1349487,0.1047363,0.1799927
				c0.0150146,0.0150146,0.0150146,0.0150146,0.0150146,0.0300293s0,0.0150146,0,0.0150146s0.0300293,0,0.0600586,0
				c0.0150146,0,0.0450439,0,0.0600586-0.0150146h0.0596924c0.0300293-0.0150146,0.0600586-0.0150146,0.0754395-0.0150146
				c0.0446777,0,0.1047363-0.0150146,0.1497803-0.0450439h-0.0150146l1.2451172-1.3798828l0.5998535,1.7698975l-1.4549561-0.3149414
				h-0.0150146c0.0300293,0.1950073,0.0450439,0.4500732-0.1051025,0.7199707c0,0,0,0-0.0150146,0l-0.0146484-0.0150146
				c0,0-0.0153809,0-0.0300293-0.0150146c0,0,0,0-0.0153809,0c-0.0146484,0-0.0300293-0.0150146-0.0446777-0.0300293
				c-0.1351318-0.0748901-0.3303223-0.1798096-0.4650879-0.1798096c-0.0150146-0.0150146-0.0150146-0.0150146-0.0300293-0.0150146
				c-0.0900879,0-0.1801758,0.0748901-0.2248535,0.1497803l-0.0300293,0.0300293
				c-0.0300293,0.0300293-0.0450439,0.0600586-0.0600586,0.0750732c-0.0450439-0.0450439-0.1051025-0.1349487-0.1951904-0.1799927
				C76.3741837,73.1671066,76.3741837,73.1671066,76.359169,73.152092z M74.5141983,74.0370407l1.7252197-0.7800293
				l-0.1951904,1.8900146L74.5141983,74.0370407z M75.534462,72.8221359V72.94207
				c0-0.0300293,0.0146484-0.0750732,0.0146484-0.1199341c0-0.0300293,0-0.0450439,0.0153809-0.0748901
				C75.534462,72.777092,75.534462,72.7921066,75.534462,72.8221359z M75.6241837,73.362114
				c0,0-0.0450439-0.0750732-0.0750732-0.2250366c0.0153809,0.1499634,0.0600586,0.2400513,0.0600586,0.2400513
				S75.609169,73.362114,75.6241837,73.362114z M76.2093887,73.0922165c-0.1651611,0-0.3153076,0.0748901-0.4200439,0.1347656
				c0.1047363-0.0598755,0.2398682-0.119751,0.4200439-0.119751c0.0596924,0,0.1051025,0.0150146,0.1497803,0.0448608
				C76.3144913,73.1072311,76.2690811,73.0922165,76.2093887,73.0922165z M76.3741837,72.6571579
				c0,0,0-0.1201172,0.0300293-0.210022c-0.0450439,0.0899048-0.0450439,0.1799927-0.0450439,0.1799927
				c-0.1497803,0-0.2698975-0.0300293-0.3449707-0.0750732c-0.0446777,0-0.0446777,0-0.0446777,0
				C76.0742569,72.612114,76.2093887,72.6571579,76.3741837,72.6571579z M76.4342422,72.402092h0.0150146v-0.0150146h-0.0150146
				V72.402092z M76.5693741,73.3470993c-0.0450439-0.0450439-0.1051025-0.1349487-0.1951904-0.1799927
				c0.1051025,0.0899048,0.1801758,0.210022,0.1801758,0.210022s0,0,0.0150146-0.0150146
				C76.5693741,73.362114,76.5693741,73.362114,76.5693741,73.3470993z M76.7195206,72.402092
				c-0.0179443,0.0177612-0.0472412,0.0283813-0.0710449,0.0443115
				C76.6931534,72.4291916,76.7195206,72.402092,76.7195206,72.402092z M76.5693741,72.4621506
				c0.0150146,0.0148315,0.0150146,0.0148315,0.0300293,0.0148315c0.0245361,0,0.0322266-0.0197754,0.0490723-0.0305786
				c-0.0161133,0.0060425-0.0256348,0.0157471-0.0490723,0.0157471
				C76.5843887,72.4621506,76.5693741,72.4621506,76.5693741,72.4621506z M76.7491837,72.3870773
				c-0.0150146,0-0.0150146,0-0.0296631,0.0150146c0.0596924,0.0450439,0.0897217,0.1349487,0.1047363,0.1799927
				C76.8242569,72.5220261,76.8092422,72.4471359,76.7491837,72.3870773z M76.659462,73.2419968
				c0.074707-0.0748901,0.1647949-0.1347656,0.2548828-0.1347656c-0.0150146-0.0150146-0.0150146-0.0150146-0.0300293-0.0150146
				C76.7942276,73.0922165,76.7041397,73.1671066,76.659462,73.2419968z M77.2292862,72.5520554
				c-0.0450439,0.0150146-0.0900879,0.0300293-0.1347656,0.0450439c0.0446777,0,0.1047363-0.0150146,0.1497803-0.0450439H77.2292862
				z M77.4991837,73.3470993c0.0300293,0.0150146,0.0450439,0.0300293,0.0450439,0.0300293
				c0.1501465-0.3149414,0.1051025-0.5549927,0.0750732-0.75h-0.0150146
				C77.6343155,72.8221359,77.6493301,73.0772018,77.4991837,73.3470993z M75.534462,72.8221359V72.94207
				c0-0.0300293,0.0146484-0.0750732,0.0146484-0.1199341c0-0.0300293,0-0.0450439,0.0153809-0.0748901
				C75.534462,72.777092,75.534462,72.7921066,75.534462,72.8221359z M75.6241837,73.362114
				c0,0-0.0450439-0.0750732-0.0750732-0.2250366c0.0153809,0.1499634,0.0600586,0.2400513,0.0600586,0.2400513
				S75.609169,73.362114,75.6241837,73.362114z M76.2093887,73.0922165c-0.1651611,0-0.3153076,0.0748901-0.4200439,0.1347656
				c0.1047363-0.0598755,0.2398682-0.119751,0.4200439-0.119751c0.0596924,0,0.1051025,0.0150146,0.1497803,0.0448608
				C76.3144913,73.1072311,76.2690811,73.0922165,76.2093887,73.0922165z M76.3741837,72.6571579
				c0,0,0-0.1201172,0.0300293-0.210022c-0.0450439,0.0899048-0.0450439,0.1799927-0.0450439,0.1799927
				c-0.1497803,0-0.2698975-0.0300293-0.3449707-0.0750732c-0.0446777,0-0.0446777,0-0.0446777,0
				C76.0742569,72.612114,76.2093887,72.6571579,76.3741837,72.6571579z M76.4342422,72.402092h0.0150146v-0.0150146h-0.0150146
				V72.402092z M76.5693741,73.3470993c-0.0450439-0.0450439-0.1051025-0.1349487-0.1951904-0.1799927
				c0.1051025,0.0899048,0.1801758,0.210022,0.1801758,0.210022s0,0,0.0150146-0.0150146
				C76.5693741,73.362114,76.5693741,73.362114,76.5693741,73.3470993z M76.5693741,72.4621506
				c0.0150146,0.0148315,0.0150146,0.0148315,0.0300293,0.0148315c0.0245361,0,0.0322266-0.0197754,0.0490723-0.0305786
				c-0.0161133,0.0060425-0.0256348,0.0157471-0.0490723,0.0157471
				C76.5843887,72.4621506,76.5693741,72.4621506,76.5693741,72.4621506z M76.7195206,72.402092
				c-0.0179443,0.0177612-0.0472412,0.0283813-0.0710449,0.0443115
				C76.6931534,72.4291916,76.7195206,72.402092,76.7195206,72.402092z M76.7491837,72.3870773
				c-0.0150146,0-0.0150146,0-0.0296631,0.0150146c0.0596924,0.0450439,0.0897217,0.1349487,0.1047363,0.1799927
				C76.8242569,72.5220261,76.8092422,72.4471359,76.7491837,72.3870773z M76.659462,73.2419968
				c0.074707-0.0748901,0.1647949-0.1347656,0.2548828-0.1347656c-0.0150146-0.0150146-0.0150146-0.0150146-0.0300293-0.0150146
				C76.7942276,73.0922165,76.7041397,73.1671066,76.659462,73.2419968z M77.2292862,72.5520554
				c-0.0450439,0.0150146-0.0900879,0.0300293-0.1347656,0.0450439c0.0446777,0,0.1047363-0.0150146,0.1497803-0.0450439H77.2292862
				z M77.4991837,73.3470993c0.0300293,0.0150146,0.0450439,0.0300293,0.0450439,0.0300293
				c0.1501465-0.3149414,0.1051025-0.5549927,0.0750732-0.75h-0.0150146
				C77.6343155,72.8221359,77.6493301,73.0772018,77.4991837,73.3470993z"/>
			<path class="st5" d="M114.0307693,72.7472458c0,0.5848389,0.1948242,1.1848755,0.5097656,1.6047363
				c0.0750732,0.1651611,0.1948242,0.3151245,0.3599854,0.4350586c0.0750732,0.1201172,0.1501465,0.1951904,0.2252197,0.1951904
				c0.0446777,0.0748901,0.074707,0.119751,0.1647949,0.1647949c0.4650879,0.3151245,1.0198975,0.5101318,1.6051025,0.5101318
				c1.2147217,0,2.2800293-0.75,2.7147217-1.7700806c0.1501465-0.3599854,0.2252197-0.75,0.2252197-1.1398315
				c0-0.1501465,0-0.2702637-0.0300293-0.4350586c-0.0450439-0.2250366-0.1201172-0.4650879-0.1951904-0.7049561
				c-0.3149414-0.7051392-0.869751-1.2601318-1.574707-1.5300293c-0.1651611-0.0750732-0.3149414-0.1201172-0.5101318-0.1951904
				c-0.1951904,0-0.4350586-0.0448608-0.6298828-0.0448608c-0.5852051,0-1.1400146,0.1950073-1.6051025,0.5099487
				c-0.0450439,0.0450439-0.0900879,0.0900879-0.1201172,0.1201172c-0.074707,0.0448608-0.1647949,0.1199341-0.2698975,0.2398682
				c-0.119751,0.1201172-0.2398682,0.2400513-0.2849121,0.3449707
				C114.2255936,71.5321579,114.0307693,72.1169968,114.0307693,72.7472458z M117.870491,70.4371872l-0.9298096,1.6049194
				l-0.9451904-1.6049194H117.870491z M117.2856522,73.1821213l1.7248535,0.7800293l-1.5300293,1.0949707L117.2856522,73.1821213z
				 M114.8554764,73.9621506l1.7248535-0.7800293l-0.1948242,1.875L114.8554764,73.9621506z M114.495491,72.8669968
				l0.6002197-1.7698975l1.125,1.289978l0.0446777,0.0450439c0.1201172,0.0448608,0.2402344,0.0748901,0.4350586,0.0748901
				c0,0,0-0.1497803,0.0750732-0.2248535c0.0750732,0.0300293,0.1201172,0.0750732,0.1651611,0.0750732
				c0.074707,0,0.1497803-0.1201172,0.1497803-0.0750732c0.0750732,0.0750732,0.1201172,0.2248535,0.1201172,0.2248535
				s0.0750732,0,0.1497803-0.0300293c0.0900879,0,0.1651611,0,0.2402344-0.0448608l1.1850586-1.3200073l0.5848389,1.7548828
				l-1.4099121-0.2698975c0.0300293,0.1501465,0.0300293,0.3900146-0.0900879,0.6599121
				c0,0-0.4200439-0.2698975-0.6148682-0.2698975c-0.2102051,0-0.3599854,0.2698975-0.3599854,0.2698975
				s-0.1501465-0.2698975-0.3599854-0.2698975c-0.3449707,0-0.5852051,0.2698975-0.5852051,0.2698975
				s-0.074707-0.1948242-0.074707-0.5548096v-0.1051025L114.495491,72.8669968z"/>
			<path class="st12" d="M66.2894058,70.097084l4.5498657-0.1623535c0.1000977-0.2375793,0.2999878-0.5625916,0.562439-0.9500122
				c0.062561-0.0750732,0.1251221-0.1376343,0.1876831-0.2375793c0.2624512-0.3250122,0.562439-0.6500244,0.9500122-0.9750366
				c0.2374268-0.2000427,0.4623413-0.3999329,0.7498169-0.5250549c0.2627563-0.1998901,0.6002808-0.3623962,0.9249878-0.4873657
				c0,0,0.0250244,0,0.062561-0.0375366c0.1626587-0.062561,0.3250122-0.1000977,0.4873657-0.1251221
				c0.1376343-0.0749207,0.300293-0.0997925,0.4626465-0.1373291l-8.6373901-0.1000977
				c0.2624512,0.4251099,0.625,0.9500122,0.9872437,1.4375305c0.1251221,0.1750183,0.2502441,0.3375244,0.3875732,0.5000305
				c0.1626587,0.1873779,0.3250122,0.3875732,0.4876709,0.5874634l-1.0501099,0.0250244
				c-0.0250244,0-0.0250244-0.0250244-0.062561-0.062561C66.8518448,69.1470718,66.3895035,69.5721817,66.2894058,70.097084z
				 M78.1393814,66.4972305c0.3625488,0.0997925,0.6872559,0.1873779,0.9750366,0.3248596
				c0.4248047,0.1625061,0.7623291,0.3625488,1.0873413,0.587616c0.1251221,0.0999451,0.2624512,0.1998901,0.3875732,0.2999878
				c0.1373291,0.0874329,0.2624512,0.1873779,0.3625488,0.3250122c0.1000977,0.0624084,0.1623535,0.1623535,0.2249146,0.2249146
				c0.562439,0.5874634,0.8499146,1.1125183,1.0125732,1.4375305l6.1248779-0.1625061
				c0.0250244-0.5499268,0.1000977-1.5625,0.1876831-2.1624756c0.0372314-0.2250671,0.0997925-0.4875183,0.1623535-0.7125854
				h-0.0250244L78.1393814,66.4972305z M103.9767838,68.2596207v0.8499146l7.8500366-0.1998901
				c0.0750732-0.0875854,0.2374268-0.2624512,0.4000854-0.4251099L103.9767838,68.2596207z M89.1269302,69.5096207
				l14.0374756-0.3625488v-1.5374756l-6.2127686-0.1998901c0.0628662,0.2999878,0.1251221,0.7873535-0.0747681,1.3374329
				c0,0-0.5252075-0.4499817-0.7501221-0.4499817s-0.3622437,0.4499817-0.3622437,0.4499817
				s-0.2252197-0.4499817-0.4876709-0.4499817c-0.4251099,0-0.687561,0.4499817-0.687561,0.4499817
				s-0.1248169-0.3250122-0.0997925-0.9126282c0-0.2249146,0.0372314-0.3874207,0.0747681-0.4873657l-5.1748657-0.2000427
				c-0.0375366,0.1374817-0.062561,0.2250671-0.062561,0.3625488
				C89.2267227,68.0347061,89.1641617,68.9471817,89.1269302,69.5096207z M89.1269302,69.5096207l14.0374756-0.3625488v-1.5374756
				l-6.2127686-0.1998901c0.0628662,0.2999878,0.1251221,0.7873535-0.0747681,1.3374329
				c0,0-0.5252075-0.4499817-0.7501221-0.4499817s-0.3622437,0.4499817-0.3622437,0.4499817
				s-0.2252197-0.4499817-0.4876709-0.4499817c-0.4251099,0-0.687561,0.4499817-0.687561,0.4499817
				s-0.1248169-0.3250122-0.0997925-0.9126282c0-0.2249146,0.0372314-0.3874207,0.0747681-0.4873657l-5.1748657-0.2000427
				c-0.0375366,0.1374817-0.062561,0.2250671-0.062561,0.3625488
				C89.2267227,68.0347061,89.1641617,68.9471817,89.1269302,69.5096207z M111.8268204,68.9096451
				c0.0750732-0.0875854,0.2374268-0.2624512,0.4000854-0.4251099l-8.2501221-0.2249146v0.8499146L111.8268204,68.9096451z
				 M66.3895035,70.9096146c0.1373291,0.2999878,0.3622437,0.5625916,0.5871582,0.7875061h5.0378418
				c0.4122925-2.1374512,2.2998047-3.7625122,4.5748901-3.7625122c2.2622681,0,4.1622925,1.625061,4.5748901,3.7625122h31.187439
				c0.4125977-2.1374512,2.3001099-3.7625122,4.5751953-3.7625122c2.2250366,0,4.1000366,1.5750122,4.5498657,3.6624146
				l13.64991-1.5374756c0.2252197-0.1623535,0.3875732-0.2999878,0.4251099-0.4873657l-14.2001419,0.0250244l-0.1373291-0.1876831
				c-0.0250244,0-1.499939-2.124939-4.1125488-2.124939c-3.1500244,0-4.6499634,2.1499634-4.7125244,2.250061l-0.1373291,0.1625061
				l-0.1876831,0.037384l-30.4251099,0.7876587l-0.0997925-0.2626038c-0.062561-0.1374817-1.1502075-3.1124878-4.937439-3.1124878
				c-3.8000488,0-5.1000977,3.2749939-5.1000977,3.3000183l-0.1000977,0.2624512L66.3895035,70.9096146z M103.9767838,68.2596207
				v0.8499146l7.8500366-0.1998901c0.0750732-0.0875854,0.2374268-0.2624512,0.4000854-0.4251099L103.9767838,68.2596207z
				 M89.1269302,69.5096207l14.0374756-0.3625488v-1.5374756l-6.2127686-0.1998901
				c0.0628662,0.2999878,0.1251221,0.7873535-0.0747681,1.3374329c0,0-0.5252075-0.4499817-0.7501221-0.4499817
				s-0.3622437,0.4499817-0.3622437,0.4499817s-0.2252197-0.4499817-0.4876709-0.4499817
				c-0.4251099,0-0.687561,0.4499817-0.687561,0.4499817s-0.1248169-0.3250122-0.0997925-0.9126282
				c0-0.2249146,0.0372314-0.3874207,0.0747681-0.4873657l-5.1748657-0.2000427
				c-0.0375366,0.1374817-0.062561,0.2250671-0.062561,0.3625488
				C89.2267227,68.0347061,89.1641617,68.9471817,89.1269302,69.5096207z M93.3768082,65.6720352
				c3.9251709,0.2626038,8.9373779,0.3625488,9.750061,0.4000854v-2.0999107
				c-0.3625488,0.0373802-0.7125854,0.0749168-1.0751343,0.0999413c-2.0248413,0.2250671-4.0249634,0.5874634-5.7623291,0.9124756
				c-0.2624512,0.0749207-0.5249023,0.1374817-0.7876587,0.1625061c-0.0250244,0-0.062561,0.0375366-0.0875854,0.0375366
				c-0.2624512,0.062561-0.5249023,0.0999451-0.7623291,0.1623535h-0.0250244c-0.0375366,0-0.062561,0.0375366-0.1000977,0.0375366
				c-0.0372314,0-0.0622559,0.0250244-0.0997925,0.0250244c-0.1626587,0.0375366-0.3250122,0.1000977-0.4876709,0.1376343
				c-0.0375366,0-0.0375366,0-0.062561,0C93.7143326,65.5720901,93.5391617,65.6470108,93.3768082,65.6720352z
				 M103.9517593,63.9096489v2.1874962l8.9251709,0.1998901c0.2249146-0.1248169,0.7498169-0.4248047,1.4373779-0.6874084
				c0.7250977-0.2626038,1.6375732-0.5250549,2.6251221-0.5250549c0.0250244,0,0.0250244,0,0.0622559,0
				c0.3625488,0,0.687561,0.0375366,0.9750366,0.062561c0.2001953,0.0375366,0.3625488,0.0750732,0.562439,0.1000977
				c0.4501343,0.0997925,0.8752441,0.2374268,1.2750244,0.3997803h0.0375366
				c0.3250122,0.1251221,0.5874634,0.2626038,0.8499146,0.3875732c0.2252197,0.1625061,0.4501343,0.2999878,0.6500244,0.4000854
				c0.1251221,0.0874329,0.2252197,0.1623535,0.3253174,0.2249146c0.1623535,0.1251221,0.2624512,0.2250671,0.324707,0.2874756
				c1.0501099,0.0375366,2.0626831,0.1000977,3.112793,0.1376343c1.3998413,0.0624084,2.8497314,0.1248169,4.2498856,0.2249146
				c0.6500244,0.0375366,1.2750244,0.1000977,1.9250488,0.1625061c0.4623413,0.0375366,0.9500122,0.0749207,1.4123535,0.1374817
				h0.3625488l0.1873779,0.0250244l0.9503174-1.9625854l0.9246826-1.8249474h-0.5874634
				c-5.1373291-0.0375366-23.0999832-0.0999451-28.9248734,0C105.0644302,63.8470879,104.5016861,63.8721123,103.9517593,63.9096489
				z"/>
			<path class="st13" d="M66.7586212,64.0320053c-0.0652924-0.1309738-0.0980377-0.2944984-0.1307755-0.4580231
				c0,0-0.0982361-0.1962662-0.0982361-0.8178177h-0.3597946c-0.1962662,0-0.3925323,0.1635246-0.3925323,0.3925362
				c0,0.2945023,0.0327377,0.5888062,0.0982285,0.850563c0.0980377,0.3270454,0.2290115,0.5888023,0.3597946,0.8178215
				c0.2290115-0.0327454,0.5233154-0.0982361,0.9158554-0.1309814
				C67.0531235,64.6208115,66.8896027,64.3917999,66.7586212,64.0320053z M96.069313,67.4995499
				c0,0-0.0327454-0.2617569-0.1307831-0.3925323c0-0.0654907-0.0654907,0.1307755-0.1637192,0.1307755
				c-0.0652924,0-0.1307831-0.0654907-0.1962738-0.0982361c-0.0980301,0.1309814-0.0980301,0.3927383-0.0980301,0.3927383
				c-0.4580307,0-0.7197876-0.2945023-0.7850723-0.359993c0,0-0.1635284,0.0654907-0.1962738,0.6542969
				s0.0980377,0.9160538,0.0980377,0.9160538s0.2617569-0.4580307,0.6870422-0.4580307
				c0.2617569,0,0.4905701,0.4580307,0.4905701,0.4580307s0.1309738-0.4580307,0.359993-0.4580307
				c0.2290115,0,0.752327,0.4580307,0.752327,0.4580307c0.3270493-0.9487991-0.0327454-1.6683807-0.0327454-1.6683807
				C96.7563477,67.4668045,96.069313,67.4995499,96.069313,67.4995499z M135.9461517,63.0179214h-2.4862061
				c-4.3833923-0.0327454-13.7393875-0.0654869-20.8052521-0.0327454h-0.8178177c-0.3925323,0-0.7850723,0-1.1776123,0.0327454
				c-0.0654831-0.0327454-0.0982285-0.0327454-0.1637192,0c-0.032547,0-0.0652924,0-0.0652924,0
				c-0.1962662-0.0327454-0.3597946-0.0327454-0.5235138,0c-0.0327454,0-0.0327454,0-0.0652924,0
				c-0.3272476-0.0327454-0.4907684-0.0327454-0.71978,0h-3.5002899c-0.752327,0-1.5046616,0.0652885-2.2899323,0.1307793
				c-0.2615585,0-0.5233154,0.0327454-0.8178177,0.0654907c-0.9813461,0.0980339-1.9299393,0.2290115-2.845993,0.3597908
				c-0.1962662,0.0327454-0.39254,0.0654907-0.5560608,0.0980339c-1.0468292,0.163723-2.0281754,0.3272476-2.9440308,0.5235176
				c-0.2617569,0.0654907-0.5562592,0.1307755-0.8178177,0.1635208c-0.3272476,0.0982361-0.6215439,0.1635284-0.9160538,0.2290115
				c-1.2430954,0.2945099-2.2571869,0.5560608-2.8787308,0.6870422h-0.0327454
				c-0.39254,0.1307831-0.6215515,0.1962662-0.6215515,0.1962662c-0.0652924,0.032547-0.1307831,0.0652924-0.1635208,0.1307831
				l2.6497192,0.0654907c0.1635284-0.0327454,0.3272476-0.0982361,0.4907684-0.1309814c0.0327454,0,0.0327454,0,0.0652924,0
				c0.1637268-0.0327454,0.3272476-0.0980301,0.4907684-0.1307755c0.0327454,0,0.0654907-0.0327454,0.0982361-0.0327454
				c0.032547,0,0.0652924-0.0327454,0.0980377-0.0327454h0.0327454c0.2290115-0.0652924,0.4905701-0.0980377,0.752327-0.1635284
				c0.0327454,0,0.0654907-0.0327454,0.0982361-0.0327454c0.2615585-0.0327377,0.5233154-0.0980301,0.7850723-0.1635208
				c1.7336731-0.3270493,3.7293015-0.6870422,5.7574768-0.9158554l1.0793762-0.0982323
				c0.2617569,0,0.5562592-0.0327415,0.8178177-0.0654869c0.5562592-0.0327454,1.1123199-0.0652924,1.6683807-0.0652924
				c5.8229675-0.0982323,23.7822342-0.0327415,28.9181595,0h0.5887909l-0.9160461,1.8319092l-0.9485931,1.9626846
				l0.6215515,0.0654907c0.0654907,0,0.1635132,0.0327377,0.2290039,0.0327377l1.8973999-3.8928223
				c0.0652924-0.1309776,0.2290192-0.3599892,0.2290192-0.5562592
				C136.2731934,63.1159554,136.2079163,63.0179214,135.9461517,63.0179214z M96.8543854,67.0742722
				c-0.0980377,0.3925323-0.7850723,0.4252777-0.7850723,0.4252777s-0.0327454-0.2617569-0.1307831-0.3925323
				c0-0.0654907-0.0654907,0.1307755-0.1637192,0.1307755c-0.0652924,0-0.1307831-0.0654907-0.1962738-0.0982361
				c-0.0980301,0.1309814-0.0980301,0.3927383-0.0980301,0.3927383c-0.4580307,0-0.7197876-0.2945023-0.7850723-0.359993
				c0,0-0.1635284,0.0654907-0.1962738,0.6542969s0.0980377,0.9160538,0.0980377,0.9160538s0.2617569-0.4580307,0.6870422-0.4580307
				c0.2617569,0,0.4905701,0.4580307,0.4905701,0.4580307s0.1309738-0.4580307,0.359993-0.4580307
				c0.2290115,0,0.752327,0.4580307,0.752327,0.4580307C97.21418,67.7938538,96.8543854,67.0742722,96.8543854,67.0742722z
				 M135.2263641,68.9061737c-0.1307678-0.0654907-0.2615509-0.1309738-0.3925323-0.1635208l-13.0196075,0.032547h-0.0654907
				c-0.4578247-0.5888062-2.0281754-2.3224792-4.6451492-2.3224792c-0.3270493,0-0.6215515,0.0327454-0.9158554,0.0654907
				c-0.1962662,0-0.359993,0.0325394-0.5235138,0.0980301c-0.1635284,0-0.3597946,0.0654907-0.4905777,0.0982361
				c-0.3599854,0.0980377-0.6542892,0.2288132-0.9487915,0.3597946c-0.2617569,0.0980301-0.4905777,0.2290115-0.7195892,0.3925323
				c0,0,0,0-0.0327454,0c-0.0982285,0.0654907-0.2290115,0.1635284-0.3272476,0.2617569
				c-0.0980301,0.032547-0.1635208,0.0980377-0.2288132,0.1307831c-0.1309738,0.0980377-0.2617569,0.2290115-0.3599854,0.3270493
				c-0.1307831,0.0982285-0.2290192,0.1962662-0.3270493,0.2945023c-0.1635284,0.1635208-0.3270493,0.3270493-0.39254,0.4252777
				l-7.8511353,0.1962738l-0.8178177,0.0327377l-14.033699,0.3597946l-0.8178177,0.0327454l-6.1172638,0.1635208
				c-0.1635284-0.3270416-0.4580307-0.850563-1.0140915-1.4393616c-0.0654907-0.0654907-0.1309738-0.1635284-0.2290115-0.2290192
				c-0.0982361-0.1307755-0.2290115-0.2290115-0.3597946-0.3270416c-0.1309738-0.0982361-0.2617569-0.1962738-0.3925323-0.2945023
				c-0.3272476-0.2290192-0.6542969-0.4252853-1.0795822-0.5888062c-0.2945023-0.1307831-0.6215439-0.2290192-0.9813385-0.3270493
				c-0.1637268-0.0327454-0.2945023-0.0654907-0.4580231-0.0654907c-0.1635284-0.0327454-0.3270493-0.0654907-0.5235214-0.0654907
				c-0.1635208-0.0327454-0.359787-0.0327454-0.5560608-0.0327454c-0.2943039,0-0.5560608,0.0327454-0.8178177,0.0654907
				c-0.1635208,0-0.2943039,0.0327454-0.4580231,0.0654907c-0.1962738,0.0327454-0.3597946,0.0654907-0.5560608,0.1307755
				c-0.1635284,0.0327454-0.3270493,0.0654907-0.4905701,0.1309814c-0.0327454,0.032547-0.0654907,0.032547-0.0654907,0.032547
				c-0.3272476,0.1309738-0.6542969,0.2945023-0.9160538,0.4907684c-0.2943039,0.1635284-0.5233154,0.3270493-0.752327,0.5233154
				c-0.39254,0.3272476-0.6870422,0.6542969-0.9486008,0.9815445c-0.0654907,0.0980301-0.1309814,0.1635208-0.1962662,0.2290115
				c-0.2617569,0.39254-0.4580307,0.7195816-0.5562592,0.9486008l-4.5469208,0.1635208
				c-0.0327454,0.0654907-0.0327454,0.1635208-0.0327454,0.2290115c0,0.1962738,0.0327454,0.39254,0.1307755,0.5888062
				l5.0051498-0.1962662l0.0980301-0.2617569c0-0.0327454,1.3085938-3.3040237,5.1031799-3.3040237
				c3.7947922,0,4.8741684,2.9769745,4.9396591,3.1077499l0.0982361,0.2617645l30.4228058-0.78508l0.1962738-0.0327454
				l0.1307755-0.1635208c0.0654907-0.0982361,1.5701523-2.2571869,4.7106476-2.2571869
				c2.6169739,0,4.0890884,2.1262054,4.1218338,2.1262054l0.1307755,0.1962738l14.1974258-0.032547h0.0327454
				c0.0327454-0.0327454,0.0327454-0.0654907,0.0327454-0.0982361
				C135.6191101,69.3967438,135.6516571,69.1679306,135.2263641,68.9061737z M67.9689789,68.2846222
				c-0.1307831-0.1635208-0.2615585-0.32724-0.39254-0.4907684c-0.3597946-0.4905701-0.7195816-1.0140839-0.9813385-1.4393692
				c-0.1635284-0.2943039-0.2943039-0.5233154-0.3597946-0.7195816l-0.3597946-0.7197876
				c-0.1962662,0.0327454-0.2945023,0.0982361-0.359993,0.1637268c-0.0980301,0.0652847-0.1635208,0.2288132-0.1635208,0.3597946
				c0.0327454,0.3925323,0.3272476,1.0140839,0.7197876,1.60289c0.2290115,0.3925323,0.5233154,0.7850723,0.7850723,1.1448669
				c0.1635208,0.2290115,0.3270493,0.4580231,0.4905701,0.6542892c0.0327454,0.0327454,0.0327454,0.0654907,0.0654907,0.0654907
				l1.0468292-0.0327454C68.2962265,68.6771622,68.1326981,68.480896,67.9689789,68.2846222z M96.8543854,67.0742722
				c-0.0980377,0.3925323-0.7850723,0.4252777-0.7850723,0.4252777s-0.0327454-0.2617569-0.1307831-0.3925323
				c0-0.0654907-0.0654907,0.1307755-0.1637192,0.1307755c-0.0652924,0-0.1307831-0.0654907-0.1962738-0.0982361
				c-0.0980301,0.1309814-0.0980301,0.3927383-0.0980301,0.3927383c-0.4580307,0-0.7197876-0.2945023-0.7850723-0.359993
				c0,0-0.1635284,0.0654907-0.1962738,0.6542969s0.0980377,0.9160538,0.0980377,0.9160538s0.2617569-0.4580307,0.6870422-0.4580307
				c0.2617569,0,0.4905701,0.4580307,0.4905701,0.4580307s0.1309738-0.4580307,0.359993-0.4580307
				c0.2290115,0,0.752327,0.4580307,0.752327,0.4580307C97.21418,67.7938538,96.8543854,67.0742722,96.8543854,67.0742722z
				 M101.0744553,56.7696762c-0.1637192-0.0980339-0.5890045-0.19627-1.1123199-0.1635246
				c-0.4907684,0.0327454-0.4252853,0.3270493-0.4252853,0.3270493c0-0.032547,0.5233231-0.0980339,0.5888062-0.0980339
				c0.1962738-0.0327454,0.3597946,0,0.5235214,0.0327415c0.1962662,0.0327454,0.359787,0.1307793,0.5233154,0.2290154
				C101.172493,57.0969238,101.2379837,56.8679085,101.0744553,56.7696762z M97.7017593,57.4222221v0.0624084l1.7999268,0.037384
				v-0.0997925c-0.0250244-0.2001953-0.1998901-0.3250122-0.3872681-0.3250122h-1.0125732
				C97.9019547,57.0972099,97.739296,57.2220268,97.7017593,57.4222221z M112.9141617,62.134594
				c7.5875854-0.037384,17.4002151,0,21.0000687,0.0375366h0.5874634l-0.3872681,0.8500671h0.8499146l0.4248047-0.8500671
				c0.0628662-0.1374817,0.2252197-0.3623962,0.2627563-0.5625916c0-0.1248169-0.062561-0.2624512-0.3250122-0.2624512h-2.4874878
				c-4.1500854-0.0250244-12.762764-0.062561-19.6624832-0.0250244l-0.1626587,0.5125427L112.9141617,62.134594z
				 M107.551918,61.3470879c0.2999878,0.1625061,0.6497192,0.3625488,0.9750366,0.562439h0.0372314
				c0.1376343,0.062561,0.2624512,0.1626587,0.4000854,0.2250671h1.1752319l0.0997925-0.2624512l0.2249146-0.5250549
				c-0.1373291-0.0250244-0.2999878,0-0.4248047,0c-0.062561-0.0250244-0.1000977-0.0250244-0.1626587,0
				c-0.2374268-0.0250244-0.4000854-0.0250244-0.5874634,0c-0.4248047-0.0250244-0.7623291-0.0250244-1.0876465,0H107.551918z
				 M107.551918,61.3470879c0.2999878,0.1625061,0.6497192,0.3625488,0.9750366,0.562439h0.0372314
				c0.1376343,0.062561,0.2624512,0.1626587,0.4000854,0.2250671h1.1752319l0.0997925-0.2624512l0.2249146-0.5250549
				c-0.1373291-0.0250244-0.2999878,0-0.4248047,0c-0.062561-0.0250244-0.1000977-0.0250244-0.1626587,0
				c-0.2374268-0.0250244-0.4000854-0.0250244-0.5874634,0c-0.4248047-0.0250244-0.7623291-0.0250244-1.0876465,0H107.551918z
				 M96.1642838,62.6221123v0.8250427c0.1376343,0,0.2374268-0.0375366,0.3625488-0.0749207
				c0.7873535-0.1626587,1.6375732-0.2876282,2.5500488-0.4501343c0.1623535-0.0375366,0.3625488-0.062561,0.562439-0.0999451
				c0.8499146-0.1374817,1.7251587-0.2626038,2.6498413-0.3625488h0.0875854l-0.1623535-0.7875061
				c-0.8126831,0.0750732-1.5625,0.2000427-2.3126221,0.2999878c-0.0997925,0.0375366-0.1998901,0.0375366-0.2999878,0.062561
				c-0.1000977,0-0.1998901,0.0375366-0.2624512,0.0375366c-0.1000977,0-0.2001953,0.0250244-0.2874756,0.0624084
				c-0.9500122,0.1249695-1.8374634,0.3001404-2.6501465,0.4624939
				C96.3266373,62.6221123,96.2268448,62.6221123,96.1642838,62.6221123z M116.040535,72.2633133
				c0,0,0.2402344,0.2400513,0.6599121,0.2400513c0,0,0-0.164978,0.0900879-0.2400513
				c0.0300293,0.0450439,0.1051025,0.0750732,0.1501465,0.0750732c0.074707,0,0.119751-0.0750732,0.1647949-0.0750732
				c0.0750732,0.0750732,0.0750732,0.2400513,0.0750732,0.2400513s0.5848389-0.0450439,0.6599121-0.2700806
				c0,0,0.3153076,0.4200439,0.0450439,1.0200806c0,0-0.4350586-0.2850952-0.6298828-0.2850952
				c-0.1951904,0-0.3599854,0.2850952-0.3599854,0.2850952s-0.1501465-0.2850952-0.3449707-0.2850952
				c-0.3599854,0-0.5852051,0.2850952-0.5852051,0.2850952s-0.119751-0.1950073-0.0897217-0.5549927
				C115.9204178,72.3383865,116.040535,72.2633133,116.040535,72.2633133z M75.5491104,72.8221359
				c0-0.0300293,0-0.0450439,0.0153809-0.0748901c0-0.0450439,0-0.0900879,0.0146484-0.1201172
				c0.0450439-0.1950073,0.1201172-0.2400513,0.1201172-0.2400513s0.0900879,0.1049194,0.2548828,0.164978h0.0153809
				c0.1047363,0.0600586,0.2398682,0.1051025,0.4046631,0.1051025c0,0,0-0.1201172,0.0300293-0.210022
				c0.0150146-0.0150146,0.0150146-0.0150146,0.0150146-0.0150146c0-0.0150146,0.0150146-0.0300293,0.0150146-0.0300293h0.0150146
				c0.0150146,0,0.0300293,0.0150146,0.0450439,0.0300293c0,0,0,0,0.0150146,0.0150146
				c0.0150146,0,0.0300293,0.0150146,0.0600586,0.0150146c0.0150146,0.0148315,0.0150146,0.0148315,0.0300293,0.0148315
				c0.0600586,0,0.0900879-0.0448608,0.1201172-0.0748901c0.0596924,0.0450439,0.0897217,0.1349487,0.1047363,0.1799927
				c0,0.0150146,0.0150146,0.0150146,0.0150146,0.0300293s0,0.0150146,0,0.0150146s0.0300293,0,0.0600586,0
				c0.0150146,0,0.0450439,0,0.0600586-0.0150146h0.0596924c0.0300293,0,0.0454102,0,0.0754395-0.0150146
				c0.0446777,0,0.1047363-0.0150146,0.1497803-0.0450439h0.0150146c0.1051025-0.0300293,0.2102051-0.1049194,0.2398682-0.2098389
				c0,0,0.0600586,0.1199341,0.1051025,0.2849121c0.0300293,0.1950073,0.0450439,0.4500732-0.1051025,0.7199707c0,0,0,0-0.0150146,0
				l-0.0146484-0.0150146c0,0-0.0153809-0.0150146-0.0300293-0.0150146c0,0,0,0-0.0153809,0
				c-0.0146484-0.0150146-0.0300293-0.0300293-0.0446777-0.0300293c-0.1351318-0.0748901-0.3303223-0.1798096-0.4650879-0.1798096
				c-0.0150146-0.0150146-0.0150146-0.0150146-0.0300293-0.0150146c-0.0900879,0-0.1801758,0.0748901-0.2248535,0.1497803
				l-0.0153809,0.0150146c-0.0146484,0.0150146-0.0146484,0.0150146-0.0146484,0.0150146
				c-0.0300293,0.0300293-0.0450439,0.0600586-0.0600586,0.0750732c-0.0450439-0.0450439-0.1051025-0.1349487-0.1951904-0.1799927
				c0,0,0-0.0150146-0.0150146-0.0150146c-0.0446777-0.0448608-0.0900879-0.0598755-0.1497803-0.0598755
				c-0.1651611,0-0.3153076,0.0748901-0.4200439,0.1347656c-0.1051025,0.0600586-0.1651611,0.1351318-0.1651611,0.1351318
				s-0.0450439-0.0750732-0.0750732-0.2250366c0-0.0448608-0.0146484-0.1199341-0.0146484-0.1950073
				C75.534462,72.9120407,75.5491104,72.8669968,75.5491104,72.8221359z M77.3517227,73.2596207c0,0,0,0-0.0125122-0.0125122
				c0.0125122,0,0.0125122,0,0.0125122,0V73.2596207z M76.5768814,72.5096512c0,0,0.0125122,0,0.0250244,0
				c0.0195312,0,0.0274658-0.0080872,0.0408936-0.0131226c-0.0140381,0.0090027-0.0204468,0.0254822-0.0408936,0.0254822
				C76.5893936,72.5220108,76.5893936,72.5220108,76.5768814,72.5096512z M76.6427994,72.4965286
				c0.0198364-0.0132751,0.0442505-0.0221252,0.0592041-0.0369263
				C76.7020035,72.4596024,76.6800308,72.4821854,76.6427994,72.4965286z"/>
		</g>
	</g>
</g>
</svg>
