<?xml version="1.0" encoding="utf-8"?>
<!-- Generator: Adobe Illustrator 27.6.1, SVG Export Plug-In . SVG Version: 6.00 Build 0)  -->
<svg version="1.1" id="Layer_1" xmlns="http://www.w3.org/2000/svg" xmlns:xlink="http://www.w3.org/1999/xlink" x="0px" y="0px"
	 viewBox="0 0 172.9100037 90" style="enable-background:new 0 0 172.9100037 90;" xml:space="preserve">
<style type="text/css">
	.st0{fill:#BABABA;}
	.st1{fill:#3751A0;}
	.st2{fill:#888888;}
	.st3{fill:#BC202E;}
	.st4{fill:#F79420;}
	.st5{fill:#FFFFFF;}
</style>
<g>
	<g>
		<path d="M83.1936951,48.4094658l-0.1448288,1.0429573h0.029007l0.1448212-1.0429573H83.1936951z M82.9908676,50.1767235v1.2747841
			h0.0289993v-1.2747841H82.9908676z M90.9582062,46.9608612h-0.0289993l0.1160049,0.8691292h0.0289993L90.9582062,46.9608612z
			 M83.1936951,48.4094658l-0.1448288,1.0429573h0.029007l0.1448212-1.0429573H83.1936951z M82.9908676,50.1767235v1.2747841
			h0.0289993v-1.2747841H82.9908676z M90.9582062,46.9608612h-0.0289993l0.1160049,0.8691292h0.0289993L90.9582062,46.9608612z
			 M83.1936951,48.4094658l-0.1448288,1.0429573h0.029007l0.1448212-1.0429573H83.1936951z M82.9908676,50.1767235v1.2747841
			h0.0289993v-1.2747841H82.9908676z M90.9582062,46.9608612h-0.0289993l0.1160049,0.8691292h0.0289993L90.9582062,46.9608612z
			 M83.1936951,48.4094658l-0.1448288,1.0429573h0.029007l0.1448212-1.0429573H83.1936951z M82.9908676,50.1767235v1.2747841
			h0.0289993v-1.2747841H82.9908676z M90.9582062,46.9608612h-0.0289993l0.1160049,0.8691292h0.0289993L90.9582062,46.9608612z
			 M90.9582062,46.9608612h-0.0289993l0.1160049,0.8691292h0.0289993L90.9582062,46.9608612z M83.1936951,48.4094658
			l-0.1448288,1.0429573h0.029007l0.1448212-1.0429573H83.1936951z M82.9908676,50.1767235v1.2747841h0.0289993v-1.2747841
			H82.9908676z M90.9582062,46.9608612h-0.0289993l0.1160049,0.8691292h0.0289993L90.9582062,46.9608612z M82.9908676,50.1767235
			v1.2747841h0.0289993v-1.2747841H82.9908676z M83.1936951,48.4094658l-0.1448288,1.0429573h0.029007l0.1448212-1.0429573
			H83.1936951z M90.9582062,46.9608612h-0.0289993l0.1160049,0.8691292h0.0289993L90.9582062,46.9608612z M82.9908676,50.1767235
			v1.2747841h0.0289993v-1.2747841H82.9908676z M83.1936951,48.4094658l-0.1448288,1.0429573h0.029007l0.1448212-1.0429573
			H83.1936951z M90.9582062,46.9608612h-0.0289993l0.1160049,0.8691292h0.0289993L90.9582062,46.9608612z M82.9908676,50.1767235
			v1.2747841h0.0289993v-1.2747841H82.9908676z M83.1936951,48.4094658l-0.1448288,1.0429573h0.029007l0.1448212-1.0429573
			H83.1936951z"/>
		<polygon points="102.7200165,79.3992233 102.7200165,83.1292038 100.490036,83.1292038 100.490036,87.9326782 
			95.1001434,87.9326782 95.1001434,86.0527954 77.8000946,86.0527954 77.8000946,87.9326782 72.4199677,87.9326782 
			72.4199677,83.1292038 70.1899872,83.1292038 70.1899872,79.3093796 73.490036,48.4109764 73.490036,34.7022133 
			99.4499969,34.7022133 99.4499969,48.4109764 		"/>
		<polygon points="91.0452118,47.8299904 90.9292068,46.9608612 90.9582062,46.9608612 91.0742111,47.8299904 		"/>
		<path class="st0" d="M83.0045013,50.1839333v1.2747803h6.8953857v-1.2747803H83.0045013z M89.6970596,48.4165001h-6.4897308
			L83.0625,49.4596291h6.7795639L89.6970596,48.4165001z M83.0045013,50.1839333v1.2747803h6.8953857v-1.2747803H83.0045013z
			 M83.0045013,50.1839333v1.2747803h6.8953857v-1.2747803H83.0045013z M83.0045013,50.1839333v1.2747803h6.8953857v-1.2747803
			H83.0045013z M83.0045013,50.1839333v1.2747803h6.8953857v-1.2747803H83.0045013z M84.018631,41.8341942v2.6073837h4.8673019
			v-2.6073837H84.018631z M75.6456451,36.8798943l-0.0289993,10.9573021h6.2000732l0.1158295-0.8693047h9.0102921
			l0.1159973,0.8693047h6.2000809V36.8798943H75.6456451z M90.3345413,45.8901863h-7.7645111v-5.5046005h7.7645111V45.8901863z
			 M88.8859329,41.8341942H84.018631v2.6073837h4.8673019V41.8341942z M89.6970596,48.4165001h-6.4897308L83.0625,49.4596291
			h6.7795639L89.6970596,48.4165001z"/>
		<path d="M88.8859329,44.4415779H84.018631v-2.6073837h4.8673019V44.4415779z"/>
		<rect x="84.018631" y="41.8341942" class="st1" width="4.8672981" height="2.6073864"/>
		<rect x="95.6806793" y="83.1327286" class="st1" width="1.5066078" height="1.1252095"/>
		<rect x="80.0068283" y="83.1327286" class="st1" width="12.8926363" height="1.1252095"/>
		<rect x="75.7188339" y="83.1327286" class="st1" width="1.5066078" height="1.1252095"/>
		<polygon class="st0" points="100.4901505,79.3952103 92.2909851,79.3952103 91.3638611,52.0889854 91.3638611,49.8290749 
			91.2770309,49.278595 97.4769363,49.278595 		"/>
		<polygon class="st0" points="81.6292648,49.278595 81.5712662,49.8290749 81.5712662,52.0889854 80.6441345,79.3952103 
			72.4161453,79.3952103 75.5161819,49.278595 		"/>
		<polygon class="st0" points="91.3638611,52.9291115 90.0022507,52.9291115 90.813385,79.3952103 82.1217422,79.3952103 
			82.9330444,52.9291115 81.5712662,52.9291115 81.5712662,52.9001122 91.3638611,52.9001122 		"/>
		<polygon class="st2" points="92.2909851,79.3952103 90.813385,79.3952103 90.0022507,52.9291115 91.3638611,52.9291115 
			91.3638611,52.0889854 		"/>
		<polygon class="st2" points="82.9330444,52.9291115 82.1217422,79.3952103 80.6441345,79.3952103 81.5712662,52.0889854 
			81.5712662,52.9291115 		"/>
		<path class="st3" d="M77.225441,83.1327286v1.1252136h2.7813873v-1.1252136H77.225441z M92.8994675,83.1327286v1.1252136
			h2.7812119v-1.1252136H92.8994675z"/>
		<polygon class="st2" points="72.4161453,87.9430008 72.4161453,90 100.4901505,90 100.4901505,87.9430008 95.1012039,87.9430008 
			95.1012039,86.0479202 77.8049164,86.0479202 77.8049164,87.9430008 		"/>
	</g>
	<polygon points="98.9926834,34.1994667 73.9473495,34.1994667 73.490036,34.7022133 99.4499969,34.7022133 	"/>
	<g>
		<path d="M97.5400848,34.0820961l-1.0900879-1.2199707c-0.0700684-0.0800781-0.1699219-0.1298828-0.2800293-0.1298828H76.7700653
			c-0.1101074,0-0.2099609,0.0498047-0.2800293,0.1298828l-1.0900879,1.2199707
			c-0.0998535,0.1101074-0.119873,0.2700195-0.0600586,0.4001465c0.0600586,0.1398926,0.1901855,0.2199707,0.3400879,0.2199707
			h21.5800781c0.1499023,0,0.2800293-0.0800781,0.3400879-0.2199707
			C97.6599579,34.3521156,97.6401825,34.1922035,97.5400848,34.0820961z M82.6001434,33.922184l-0.0102539,0.0300293h-6.0698242
			l0.4099121-0.4699707h5.8000488L82.6001434,33.922184z M83.3799286,33.9522133l0.1401367-0.4699707h5.8999023l0.0100098,0.0400391
			l0.130127,0.4299316H83.3799286z M90.3501434,33.9522133l-0.0102539-0.0300293l-0.1298828-0.4399414h5.8000488
			l0.4099121,0.4699707H90.3501434z"/>
		<polygon class="st4" points="96.4199677,33.9522133 90.3501434,33.9522133 90.3398895,33.922184 90.2100067,33.4822426 
			96.0100555,33.4822426 		"/>
		<polygon class="st5" points="89.5601044,33.9522133 83.3799286,33.9522133 83.5200653,33.4822426 89.4199677,33.4822426 
			89.4299774,33.5222816 		"/>
		<polygon class="st4" points="82.7300262,33.4822426 82.6001434,33.922184 82.5898895,33.9522133 76.5200653,33.9522133 
			76.9299774,33.4822426 		"/>
	</g>
</g>
</svg>
