<?xml version="1.0" encoding="utf-8"?>
<!-- Generator: Adobe Illustrator 27.6.1, SVG Export Plug-In . SVG Version: 6.00 Build 0)  -->
<svg version="1.1" id="Layer_1" xmlns="http://www.w3.org/2000/svg" xmlns:xlink="http://www.w3.org/1999/xlink" x="0px" y="0px"
	 viewBox="0 0 172.9100037 90" style="enable-background:new 0 0 172.9100037 90;" xml:space="preserve">
<style type="text/css">
	.st0{fill:#888888;}
	.st1{fill:#72C6EF;}
	.st2{fill:#F79420;}
	.st3{fill:#FFFFFF;}
	.st4{fill:#333366;}
	.st5{fill:#3751A0;}
	.st6{fill:#BABABA;}
	.st7{fill:#BC202E;}
	.st8{opacity:0.65;fill:#1A1A1A;}
	.st9{fill:#A9DDE9;}
	.st10{fill:#D1ECF2;}
	.st11{fill:#1A1A1A;}
	.st12{fill:#333333;}
	.st13{fill:#EC1C24;}
</style>
<g>
	<g>
		<path class="st0" d="M89.9299774,79.6298828l-0.0100098,0.0200195l-0.329834-0.1899414l-4.9702148-2.8601074l0.0102539-0.0200195
			c-0.1101074-0.0599365-0.2202148-0.119873-0.3300781-0.1899414l-1.5800781-0.9099121L46.2700653,54.4399414v-1.2399902
			l1.2399902-0.5300293c0.2900391,0.1799316,0.6098633,0.3500977,0.9299316,0.5600586
			c0.3500977,0.1999512,0.7299805,0.4299316,1.1000977,0.6599121c0.3798828,0.2299805,0.7800293,0.4399414,1.1899414,0.6700439
			c0.8100586,0.4599609,1.6799316,0.9500732,2.5200195,1.4500732c0.4099121,0.2299805,0.8400879,0.4599609,1.25,0.6899414
			c0.1398926,0.3499756,0.2600098,0.6999512,0.4899902,1.0500488c0.3500977,0.5699463,0.7800293,1.0998535,1.2700195,1.5299072
			c0.0898438,0.0899658,0.2099609,0.1700439,0.2900391,0.2301025c0.0898438,0.0898438,0.2099609,0.1499023,0.2900391,0.2099609
			c0.119873,0.0799561,0.2099609,0.1398926,0.3198242,0.1999512c0.4899902,0.2900391,0.9599609,0.4299316,1.3901367,0.4599609
			c0.2299805,0,0.4399414-0.0300293,0.6398926-0.0899658c0.1201172-0.0200195,0.1999512-0.0499268,0.3500977-0.1400146
			c0,0,0.1398926-0.0899658,0.1999512-0.1199951c0,0,1.3300781-0.7799072,1.3901367-0.8099365
			c0,0,0.4399414-0.2600098,0.4897461-0.2900391c0.0300293-0.0300293,0.0600586-0.0600586,0.0900879-0.0600586
			c0.2299805-0.1999512,0.2900391-0.2800293,0.380127-0.369873c0.0297852-0.0600586,0.0598145-0.1201172,0.079834-0.1800537
			c0.1201172-0.1700439,0.1799316-0.3399658,0.2399902-0.5500488c0-0.0198975,0.0300293-0.0799561,0.0300293-0.1099854
			l2.3701172,1.3699951l21.5,12.4300537c-0.0600586,0.1398926-0.1201172,0.2600098-0.170166,0.4299316
			c-0.0297852,0.0900879-0.0600586,0.2299805-0.0898438,0.3200684c-0.0300293,0.119873-0.0300293,0.2600098-0.0300293,0.4099121
			c-0.0300293,0.0800781-0.0300293,0.2299805-0.0300293,0.3701172c0,0.6098633,0.1201172,1.3099365,0.3500977,2.0299072
			c0.1999512,0.5999756,0.4599609,1.1900635,0.7900391,1.7301025c0.0498047,0.0898438,0.0998535,0.1799316,0.1599121,0.2698975
			c0.4099121,0.6099854,0.8498535,1.1900635,1.3999023,1.710083c0.2600098,0.2600098,0.5800781,0.5100098,0.9099121,0.7099609
			C89.7100067,79.5100098,89.8201141,79.5699463,89.9299774,79.6298828z"/>
		<path class="st0" d="M125.3801727,79.8598633L107.8201141,90L89.9199677,79.6499023l0.0100098-0.0200195
			c0.4399414,0.2299805,0.9899902,0.4300537,1.4799805,0.4300537c0.2299805,0,0.4599609,0,0.6899414-0.1099854
			c0.1501465-0.0900879,0.2900391-0.1201172,0.4401855-0.2099609c0.1699219-0.0800781,0.3200684-0.2000732,0.4899902-0.2900391
			c0.4099121-0.2299805,0.8398438-0.4300537,1.2199707-0.6899414c0.0900879-0.0300293,0.1699219-0.0900879,0.2600098-0.1501465
			C94.5998993,78.5898438,94.740036,78.5,94.8298798,78.4099121c0.1101074-0.1099854,0.2001953-0.2299805,0.2900391-0.3200684
			c0.0300293,0,0.0300293-0.0299072,0.1101074-0.1999512c0.119873-0.1699219,0.2099609-0.3798828,0.2600098-0.6699219
			c0.0300293-0.0800781,0.0600586-0.2000732,0.0898438-0.3100586c0.0302734-0.0300293,0.0302734-0.0600586,0.0302734-0.0899658
			l2.9299316,1.7399902l1.2099609,0.7199707l0.9599609-0.5799561l0.9001465-0.5200195l0.1699219-0.0900879L103.2300262,77.25
			c0.0500488-0.0300293,1.1398926-0.6501465,1.3300781-0.7600098L108.0500946,78.5l2.1799316,1.2698975l0.0100098-0.0098877
			l2.1401367-1.2401123l3.8598633-2.2299805l1.4599609-0.8599854h0.0300293l4.5500488,2.6300049L125.3801727,79.8598633z"/>
		<path d="M126.6399384,70.289917c-0.0600586,0.0300293-3.3598633,1.9400635-3.3598633,1.9400635l-1.5100098,0.869873
			l-4.0300293,2.3200684h-0.0300293l-0.0100098,0.0100098l-1.4599609,0.8599854l-3.8598633,2.2299805l-2.1401367,1.2401123
			l-2.1699219-1.2700195l-3.4799805-2.0200195c0,0-0.0102539,0.0100098-0.0300293,0.0200195
			c-0.1901855,0.1098633-1.2800293,0.7299805-1.3300781,0.7600098l-1.4499512,0.8398438l-0.1699219,0.0900879l-0.9001465,0.5200195
			l-0.9599609,0.5799561l-1.2099609-0.7199707l-2.9299316-1.7399902c0,0.0299072,0,0.0599365-0.0302734,0.0899658
			c-0.0297852,0.1099854-0.0598145,0.2299805-0.0898438,0.3100586c-0.0500488,0.2900391-0.1401367,0.5-0.2600098,0.6699219
			c-0.0800781,0.1700439-0.0800781,0.1999512-0.1101074,0.1999512c-0.0898438,0.0900879-0.1799316,0.210083-0.2900391,0.3200684
			C94.740036,78.5,94.5998993,78.5898438,94.5100555,78.6098633c-0.0900879,0.0600586-0.1699219,0.1201172-0.2600098,0.1501465
			c-0.380127,0.2598877-0.8100586,0.4599609-1.2199707,0.6899414c-0.1699219,0.0899658-0.3200684,0.2099609-0.4899902,0.2900391
			c-0.1501465,0.0898438-0.2900391,0.119873-0.4401855,0.2099609c-0.2299805,0.1099854-0.4599609,0.1099854-0.6899414,0.1099854
			c-0.4899902,0-1.0400391-0.2000732-1.4799805-0.4300537c-0.1098633-0.0599365-0.2199707-0.119873-0.3300781-0.1899414
			c-0.329834-0.1999512-0.6499023-0.4499512-0.9099121-0.7099609c-0.5500488-0.5200195-0.9899902-1.1000977-1.3999023-1.710083
			c-0.0600586-0.0899658-0.1101074-0.1800537-0.1599121-0.2698975c-0.3300781-0.5400391-0.5900879-1.130127-0.7900391-1.7301025
			c-0.2299805-0.7199707-0.3500977-1.4200439-0.3500977-2.0299072c0-0.1401367,0-0.2900391,0.0300293-0.3701172
			c0-0.1499023,0-0.2900391,0.0300293-0.4099121c0.0297852-0.0900879,0.0600586-0.2299805,0.0898438-0.3200684
			c0.0500488-0.1699219,0.1101074-0.2900391,0.170166-0.4299316l-21.5-12.4300537l-2.3701172-1.3699951
			c0,0.0300293-0.0300293,0.0900879-0.0300293,0.1099854c-0.0600586,0.210083-0.119873,0.3800049-0.2399902,0.5500488
			c-0.0200195,0.0599365-0.0500488,0.1199951-0.079834,0.1800537c-0.0900879,0.0898438-0.1501465,0.1699219-0.380127,0.369873
			c-0.0300293,0-0.0600586,0.0300293-0.0900879,0.0600586c-0.0498047,0.0300293-0.4897461,0.2900391-0.4897461,0.2900391
			C61.0701141,59.25,59.740036,60.0299072,59.740036,60.0299072c-0.0600586,0.0300293-0.1999512,0.1199951-0.1999512,0.1199951
			c-0.1501465,0.0900879-0.2299805,0.1199951-0.3500977,0.1400146c-0.1999512,0.0599365-0.4099121,0.0899658-0.6398926,0.0899658
			c-0.4301758-0.0300293-0.9001465-0.1699219-1.3901367-0.4599609c-0.1098633-0.0600586-0.1999512-0.1199951-0.3198242-0.1999512
			c-0.0800781-0.0600586-0.2001953-0.1201172-0.2900391-0.2099609c-0.0800781-0.0600586-0.2001953-0.1401367-0.2900391-0.2301025
			C55.7700653,58.8498535,55.3401337,58.3199463,54.990036,57.75c-0.2299805-0.3500977-0.3500977-0.7000732-0.4899902-1.0500488
			c-0.4099121-0.2299805-0.8400879-0.4599609-1.25-0.6899414c-0.8400879-0.5-1.7099609-0.9901123-2.5200195-1.4500732
			c-0.4099121-0.2301025-0.8100586-0.4400635-1.1899414-0.6700439c-0.3701172-0.2299805-0.75-0.4599609-1.1000977-0.6599121
			c-0.3200684-0.2099609-0.6398926-0.380127-0.9299316-0.5600586c-0.0200195,0-0.0200195-0.0200195-0.0500488-0.0200195
			C47.2500458,52.5,47.0200653,52.3898926,46.8201141,52.2700195l-0.5500488-0.2900391v-4.4599609l2.9499512-1.7402344v-3.6799316
			l0.7299805-2.4299316l1.5300293-5.2800293l0.119873-0.3999023l14.5102539-8.3500977l2.1799316-1.2399902l2.1398926,1.2099609
			l4.6401367,2.7001953l0.6298828-0.380127l0.9899902-0.5800781l0.2600098,0.1799316l0.2299805,0.1101074l0.7600098,0.4699707
			l0.4899902,0.2900391l1.1000977-0.6098633l2.6899414,1.5598145v12.8701172l44.3598633,25.6098633
			C126.6399384,67.8598633,126.6399384,70.289917,126.6399384,70.289917z"/>
		<g>
			<polygon class="st0" points="115.5699997,74.1720886 114.0633926,75.0412216 73.3575745,51.4290314 73.3285751,51.4290314 
				74.8061829,50.5887299 			"/>
			<polygon class="st0" points="121.0746002,70.9852295 119.5969925,71.8543549 78.7753525,48.2709923 80.1949539,47.4308624 
				80.2239532,47.4308624 			"/>
			<polygon class="st1" points="61.2760658,39.8980026 63.7098045,41.3176079 63.7098045,41.4626122 53.4247284,35.5231819 
				53.4537315,35.4363556 68.2584534,26.8895416 72.8939209,29.5549278 61.247242,36.3344841 61.247242,39.8980026 			"/>
			<path class="st2" d="M62.7826729,38.3335724l-0.2028275-0.1448288l-0.1158218-0.0579987v0.6084785l1.2457809,0.6953011
				v-0.5794754L62.7826729,38.3335724z M67.2443161,34.277401h-0.0288239l-4.0271683,2.3757362l0.5214806,0.3186493v-0.1158218
				l3.9981651-2.2887383L67.2443161,34.277401z"/>
			<polygon class="st3" points="68.0513763,33.8208199 68.5150299,34.081646 71.9917221,32.0825615 71.5280685,31.8217354 			"/>
			<path class="st0" d="M55.5350418,56.0135765c0.0870018,0.3186531,0.2318268,0.6663017,0.4634743,0.9559555c0,0,0,0,0,0.0289993
				s0.0290031,0.0870018,0.0580025,0.1160011c0.1738243,0.2606506,0.3766518,0.4924774,0.6084785,0.6953011l0.4924774,0.3476524
				c0.1158257,0.0868263,0.2318268,0.144825,0.3476524,0.144825c0.1158218,0.0580025,0.2028236,0.0870018,0.28965,0.0870018
				h0.0579987c0.0290031,0,0.0290031,0,0.0290031,0c0.0289993,0,0.0289993,0,0.0289993,0h0.0580025l0.0579987-0.0289993h0.0289993
				c0,0,0,0,0.0290031,0c0.0579987,0.0289993,0.144825,0,0.2028236-0.0289993c0.0580025,0,0.0870018-0.0290031,0.144825-0.0580025
				l0.0290031-0.0289993h0.0289993c0.0289993-0.0288239,0.0289993-0.0288239,0.0289993-0.0288239l0.0870018-0.0580025
				c0.0289993-0.0289993,0.0580025-0.0870018,0.0870018-0.1158257c0.0289993-0.0579987,0.0580025-0.086998,0.0580025-0.1450005
				l0.0289993-0.0289993c0.0289993-0.057827,0.0579987-0.144825,0.0870018-0.2316513l0.0870018-0.4926529v-0.0288239
				c-0.0001793-0.1160011-0.0001793-0.2318268-0.0581779-0.3476524c0-0.2028236-0.0290031-0.4056511-0.1158257-0.6084785
				c-0.0870018-0.3476524-0.2608261-0.6663017-0.4346542-0.956131c-0.2028236-0.3186493-0.4346504-0.6082993-0.6953011-0.840126
				l-0.2028275-0.1160011l-0.28965-0.202652h-0.0289993c-0.1738281-0.1160011-0.3476524-0.1738243-0.4924774-0.2028236
				c-0.0870018-0.0290031-0.144825-0.0580025-0.2318268-0.0580025h-0.1158257c-0.0870018,0-0.1738243,0.0289993-0.2608261,0.0580025
				h-0.0290031v0.0289993c-0.0289993,0-0.0289993,0-0.0289993,0h-0.0289993c-0.0289993,0-0.0580025,0.0288239-0.0870018,0.0578232
				l-0.0289993,0.0290031c-0.0290031,0-0.0290031,0.0289993-0.0290031,0.0289993c-0.0289993,0-0.0289993,0-0.0579987,0.0289993
				c-0.0289993,0-0.0580025,0.0578232-0.0580025,0.0868263c-0.0579987,0.0289993-0.0579987,0.0289993-0.0579987,0.0579987
				c-0.0870018,0.0868263-0.1738281,0.2318268-0.2028275,0.3766518l-0.0580025,0.5214767
				c0,0.0580025,0,0.0868263,0.0290031,0.144825C55.3902168,55.4631004,55.4482155,55.7527504,55.5350418,56.0135765z
				 M56.6358185,55.0864487v-0.2318268c0.0290031-0.057827,0.0580025-0.1158257,0.0870018-0.144825
				c0-0.0290031,0-0.0290031,0.0290031-0.0290031c0-0.0289993,0.0289993-0.0578232,0.0289993-0.0578232
				c0.0289993,0,0.0289993,0,0.0289993,0s0,0,0.0289993,0v-0.0289993l0.0290031-0.0289993h0.0579987
				c0.0290031-0.0290031,0.0580025-0.0290031,0.1158257-0.0290031h0.0289993c0.0580025,0,0.0580025,0,0.1158257,0.0290031
				c0.0580025,0,0.144825,0.0289993,0.2028275,0.0868225h0.0289993l0.1158257,0.0870018l0.0870018,0.0578232
				c0.1158257,0.0870018,0.2028236,0.2318268,0.28965,0.3478279c0.0870018,0.144825,0.1738243,0.2606506,0.2028275,0.4344749
				c0.0289993,0.0870018,0.0579987,0.1738281,0.0579987,0.2608299c0.0289993,0.0578232,0.0289993,0.0868225,0.0289993,0.144825
				v0.0289993h0.0003548l-0.0579987,0.2028275c0,0.0289993-0.0290031,0.0868225-0.0290031,0.0868225v0.0290031
				c0,0.0289993-0.0289993,0.0289993-0.0289993,0.0579987c-0.0289993,0.0289993-0.0289993,0.0289993-0.0580025,0.0578232
				l-0.0289993,0.0290031H57.968956v0.0289993c-0.0289993,0-0.0580025,0-0.0580025,0
				c-0.0289993,0.0289993-0.0870018,0.0289993-0.0870018,0.0289993c-0.0289993,0-0.0289993,0-0.0289993,0h-0.0579987
				c0,0,0,0-0.0290031,0h-0.0289993c-0.0289993,0-0.0580025,0-0.1158257-0.0289993
				c-0.0579987,0-0.1158257-0.0289993-0.144825-0.0580025l-0.2318268-0.144825
				c-0.0870018-0.0868225-0.1738243-0.2028236-0.2608261-0.3186493c0,0-0.0289993-0.0289993-0.0289993-0.0580025
				c-0.0870018-0.1158257-0.1738281-0.28965-0.2028275-0.4054756c-0.0289993-0.1160011-0.0580025-0.2608261-0.0580025-0.3766518
				C56.6358185,55.115448,56.6358185,55.115448,56.6358185,55.0864487z"/>
			<path class="st0" d="M90.737999,78.1002045c0.0289993,0,0.0289993,0,0.0289993,0c0.0289993,0,0.0580063,0,0.0580063,0h0.0289993
				c0.086998,0,0.1158218,0,0.1738205-0.0289993c0.0580063,0,0.1158295-0.0579987,0.1448288-0.0579987
				c0.0579987,0,0.086998-0.0288239,0.086998-0.0288239v-0.0289993c0.0289993,0,0.0580063,0,0.0580063,0
				c0.0289993-0.0289993,0.0579987-0.0289993,0.0579987-0.0289993h0.0289993c0.0289993,0,0.0579987,0,0.086998-0.0289993v-0.029007
				h0.029007c0,0,0.0289993,0,0.0579987-0.0579987v-0.0288239h0.0289993v-0.0289993
				c0.0289993-0.0289993,0.0579987-0.0289993,0.086998-0.1160049c0,0,0,0,0.029007-0.0289993
				c0-0.0288239,0.0289993-0.0578232,0.0579987-0.0578232c0.0289993-0.0289993,0.0289993-0.086998,0.0289993-0.1159973
				c0,0,0.0289993,0,0.0289993-0.0288239c0.0579987-0.0580063,0.0870056-0.2028275,0.1158295-0.3188324
				c0.0289993-0.0578232,0.0289993-0.1158218,0.0579987-0.2028275l0.0289993-0.0288239v-0.2028198h0.0289993v-0.1738281
				c-0.000351-0.3766556-0.0871735-0.7823029-0.2031784-1.2169571h-0.0289993
				c-0.1158295-0.4344788-0.3186493-0.8111267-0.579483-1.1877823c-0.2318192-0.4056473-0.5214767-0.7823029-0.8691254-1.0429535
				c-0.0579987-0.0579987-0.1158218-0.1450043-0.2028275-0.1738281c-0.0579987-0.0579987-0.1158218-0.1159973-0.2028275-0.1738205
				c-0.0579987-0.0289993-0.1448212-0.1160049-0.2028198-0.1450043c-0.0580063-0.0289993-0.1158295-0.0578232-0.1738281-0.0578232
				h-0.0289993c-0.0870056-0.0289993-0.1448288-0.0870056-0.2028275-0.1160049c-0.0289993,0-0.0289993,0-0.0289993,0
				c-0.0580063-0.0289993-0.1158295-0.0578232-0.1738281-0.0578232c-0.1158218,0-0.1738281-0.0289993-0.28965-0.0289993h-0.1448288
				c-0.0579987,0-0.1158218,0-0.1738205,0.0289993h-0.0289993c-0.029007,0-0.029007,0-0.0580063,0c0,0-0.0289993,0-0.0579987,0
				s-0.0579987,0-0.086998,0.0289993c-0.029007,0-0.029007,0-0.029007,0c-0.0289993,0-0.0289993,0.0288239-0.0289993,0.0288239
				l-0.0289993,0.0289993c-0.0289993,0-0.0289993,0-0.0289993,0c-0.0289993,0-0.0579987,0.0580063-0.086998,0.0870056
				c-0.029007,0-0.029007,0-0.029007,0c-0.1158218,0.0578232-0.2028198,0.1738281-0.28965,0.3186493
				c0,0,0,0.0289993-0.0289993,0.0289993c-0.0289993,0.0289993-0.0579987,0.0868301-0.0579987,0.1738281
				c-0.0289993,0.0289993-0.0579987,0.0289993-0.0579987,0.0579987c-0.029007,0.0578232-0.0580063,0.1158295-0.0580063,0.1448288
				c-0.0289993,0.0578232-0.0289993,0.1448212-0.0289993,0.2028275c-0.0289993,0.0578232-0.0289993,0.1738205-0.0289993,0.2316437
				c-0.0289993,0.0870056-0.0289993,0.1160049-0.0289993,0.2028275c0,0.1450043,0,0.2898331,0.0289993,0.4636536
				c0.0289993,0.2318268,0.086998,0.5214767,0.1738281,0.7533035c0.1448212,0.4054794,0.3476486,0.8401337,0.5794754,1.2167816
				c0.0289993,0.0289993,0.0579987,0.0579987,0.0870056,0.1448288c0.2318192,0.3186493,0.4924698,0.6374741,0.7823029,0.927124
				c0.086998,0.029007,0.1158218,0.0870056,0.2028275,0.1738281H89.40522
				c0.0579987,0.0289993,0.1158218,0.0579987,0.1738205,0.1158218h0.029007
				c0.0579987,0.0870056,0.1158218,0.0870056,0.1738205,0.1160049c0.1448288,0.1158218,0.28965,0.1738281,0.4346542,0.2028275
				c0.0289993,0,0.0289993,0,0.0289993,0h0.1158295v0.0289993C90.5061722,78.0712051,90.5931778,78.1002045,90.737999,78.1002045z
				 M90.3321686,76.3039474c-0.086998-0.0289993-0.1738205-0.0579987-0.2318268-0.1159973
				c-0.0289993,0-0.0579987,0-0.086998-0.0578232h-0.0289993c-0.0289993-0.029007-0.0580063-0.0580063-0.0870056-0.0580063
				h-0.0289993c-0.0289993-0.0578232-0.0579987-0.0868225-0.086998-0.0868225
				c-0.1738281-0.1738281-0.3186569-0.3476486-0.4346542-0.4926529c0-0.0578232-0.0289993-0.0868225-0.0289993-0.0868225
				c-0.1448288-0.2028275-0.2318268-0.4346542-0.3186569-0.6374817c-0.0579987-0.1448288-0.086998-0.28965-0.086998-0.4054718
				c-0.0289993-0.0870056-0.0289993-0.1738281-0.0289993-0.2608337c0-0.0289993,0-0.0578232,0.0289993-0.0868225v-0.1450043
				c0-0.0288239,0-0.0578232,0.0289993-0.0868225c0-0.0289993,0-0.0579987,0.0289993-0.086998c0,0,0,0,0.0289993-0.0288239
				c0-0.0580063,0.029007-0.0870056,0.029007-0.0870056c0.0289993,0,0.0289993-0.0289993,0.0289993-0.0289993
				c0.0289993-0.0578232,0.086998-0.1448212,0.1448212-0.1738205c0.0289993,0,0.0580063-0.029007,0.0580063-0.029007
				s0,0,0.0289993,0v-0.0289993c0,0,0,0,0.0289993,0c0.0289993-0.0288239,0.0289993-0.0288239,0.0579987-0.0288239h0.0289993
				c0,0,0,0,0.0289993,0h0.3476562c0.0289993,0,0.0579987,0.0288239,0.086998,0.0288239
				c0.0289993,0.0289993,0.0580063,0.0580063,0.1158295,0.0580063h0.0289993c0.0289993,0,0.0579987,0.0289993,0.086998,0.0289993
				c0.0289993,0.0289993,0.0580063,0.0868225,0.0870056,0.0868225c0.0579987,0.0289993,0.086998,0.0579987,0.1158218,0.086998
				c0.0579987,0.0289993,0.0870056,0.0580063,0.1158218,0.1158295c0.1738281,0.1159973,0.3476562,0.3188248,0.4634781,0.5504761
				c0.1448288,0.2028275,0.2318268,0.3766479,0.28965,0.6084747h0.0289993
				c0.0580063,0.2318268,0.1158295,0.4634781,0.1158295,0.6663055v0.0868225h0.000885h-0.000885h-0.0281143v0.1160049
				c-0.029007,0.0578232-0.029007,0.0868225-0.029007,0.1158218c-0.0289993,0.0580063-0.0579987,0.1448288-0.086998,0.1738281
				c0,0.0289993,0,0.0579987-0.0289993,0.0579987L91.11483,76.10112c0,0.029007,0,0.029007,0,0.029007
				c-0.0289993,0.0578232-0.0289993,0.0578232-0.0580063,0.0578232v0.0289993
				c-0.0289993,0.0289993-0.0289993,0.0289993-0.0289993,0.0289993h-0.0289993v0.0289993c0,0-0.0289993,0-0.0579987,0
				c0,0-0.0289993,0-0.0289993,0.0289993h-0.0289993c0,0-0.029007,0.0289993-0.0580063,0.0289993
				c0,0-0.0289993,0.0288239-0.0579987,0.0288239c-0.0579987,0-0.0579987,0-0.1158218,0h-0.029007c0,0,0,0-0.0289993,0
				c-0.0579987,0-0.1158218,0-0.2028198-0.0578232H90.3321686z"/>
			<polygon class="st4" points="62.2568893,43.2078896 62.2568893,47.7275581 54.8980331,43.8742599 56.1728134,39.6732864 			"/>
			<polygon class="st5" points="75.7633743,37.0733795 71.5045547,39.5071144 71.5045547,42.2593269 75.7633743,39.8257675 			"/>
			<path class="st5" d="M57.2158279,49.5816689c-0.6083031,0.3476524-0.9559517,0.956131-1.0429535,1.6514359
				c0.0289993-0.0290031,0.0579987-0.0580025,0.0870018-0.0580025c0.0579987-0.0288239,0.144825-0.0288239,0.2318268-0.0288239
				c0.2026482,0,0.4054756,0.0578232,0.6373024,0.144825c0.2608261,0.0580025,0.5214767,0.1738281,0.7823029,0.3186531
				c0.0868263,0.0579987,0.2026482,0.1158257,0.28965,0.2028236c0.0868263,0.0580025,0.2026482,0.144825,0.28965,0.2028275
				c0.0868263,0.0868263,0.202652,0.1738243,0.2896538,0.2606506c0.4924736,0.4346542,0.9561272,0.9851303,1.3037796,1.5356064
				l1.2167816,0.6953049l0.9271278,0.5504761l1.4776077,0.8691292v-3.8821678l-4.3168182-2.462738
				C58.722435,49.1760178,57.8821297,49.1760178,57.2158279,49.5816689z"/>
			<path class="st5" d="M53.4247284,35.5231819l-2.0280838,7.5618629v5.7074242l2.3757362,1.3327827h0.0289993l0.2896538,0.1738243
				c0.0289993-0.144825,0.086998-0.2898254,0.1738243-0.4346504c0.3186493-0.9271317,0.9851303-1.6802559,1.8542595-2.1729126
				c0.8981285-0.5214767,1.8830833-0.7243004,2.8392105-0.5504761c0.5214806,0.0870018,1.0429573,0.2608261,1.5356102,0.5504761
				l3.2158661,1.8542595v-8.0831604L53.4247284,35.5231819z M62.2611961,47.7205162l-7.35886-3.853344l1.2747803-4.2008209
				l6.0840797,3.5345154V47.7205162z"/>
			<path class="st6" d="M49.2196655,50.0163231v-1.7094345l-0.7823029,0.4636536v1.9410858
				c1.6224327,0.9271278,3.5055161,2.0280838,5.3887749,3.1290398c0-0.1160011,0.0289993-0.2318268,0.0289993-0.3188286
				c0.0290031-0.1158257,0.0580025-0.2316513,0.0870018-0.3186531c0.0578232-0.144825,0.0868263-0.2606468,0.144825-0.3766518
				l-2.6943855-1.5644302L49.2196655,50.0163231z"/>
			<path class="st6" d="M58.1136055,55.5789223c-0.0290031-0.1738243-0.1158257-0.28965-0.2028275-0.4344749
				c-0.0868263-0.1160011-0.1738243-0.2608261-0.28965-0.3478279l-0.0870018-0.0578232l-0.1158257-0.0870018h-0.0289993
				c-0.0580025-0.0578232-0.144825-0.0868225-0.2028275-0.0868225c-0.0578232-0.0290031-0.0578232-0.0290031-0.1158257-0.0290031
				h-0.0289993c-0.0578232,0-0.0868225,0-0.1158257,0.0290031h-0.0579987l-0.0290031,0.0289993v0.0289993
				c-0.0289993,0-0.0289993,0-0.0289993,0s0,0-0.0289993,0c0,0-0.0289993,0.0288239-0.0289993,0.0578232
				c-0.0290031,0-0.0290031,0-0.0290031,0.0290031c-0.0289993,0.0289993-0.0579987,0.086998-0.0870018,0.144825v0.2318268
				c0,0.0289993,0,0.0289993,0,0.0579987c0,0.1158257,0.0290031,0.2606506,0.0580025,0.3766518
				c0.0289993,0.1158257,0.1158257,0.28965,0.2028275,0.4054756c0,0.0290031,0.0289993,0.0580025,0.0289993,0.0580025
				c0.0870018,0.1158257,0.1738243,0.2318268,0.2608261,0.3186493l0.2318268,0.144825
				c0.0289993,0.0290031,0.0868263,0.0580025,0.144825,0.0580025c0.0578232,0.0289993,0.0868263,0.0289993,0.1158257,0.0289993
				h0.0289993c0.0290031,0,0.0290031,0,0.0290031,0h0.0579987c0,0,0,0,0.0289993,0c0,0,0.0580025,0,0.0870018-0.0289993
				c0,0,0.0290031,0,0.0580025,0v-0.0289993h0.0289993l0.0289993-0.0290031
				c0.0290031-0.0288239,0.0290031-0.0288239,0.0580025-0.0578232c0-0.0289993,0.0289993-0.0289993,0.0289993-0.0579987v-0.0290031
				c0,0,0.0290031-0.0578232,0.0290031-0.0868225l0.0579987-0.2318268c0-0.0580025,0-0.0870018-0.0293541-0.144825
				C58.1716042,55.7527504,58.1426048,55.6659241,58.1136055,55.5789223z"/>
			<path class="st6" d="M91.1721191,74.8553391c-0.0578232-0.2318268-0.1448212-0.4056473-0.28965-0.6084747
				c-0.1158218-0.2318268-0.28965-0.4344788-0.4634781-0.5504761c-0.0288162-0.0580063-0.0578232-0.0868301-0.1158218-0.1158295
				c-0.0288239-0.0289993-0.0578232-0.0579987-0.1158218-0.086998c-0.0289993,0-0.0580063-0.0578232-0.0870056-0.0868225
				c-0.0289993,0-0.0579987-0.0289993-0.086998-0.0289993h-0.0289993c-0.0578232,0-0.0868301-0.029007-0.1158295-0.0580063
				c-0.0289993,0-0.0579987-0.0289993-0.086998-0.0289993h-0.3476562c-0.0289993,0-0.0289993,0-0.0289993,0h-0.0289993
				c-0.0289993,0-0.0289993,0-0.0579987,0.0289993c-0.0289993,0-0.0289993,0-0.0289993,0v0.0289993
				c-0.0289993,0-0.0289993,0-0.0289993,0s-0.029007,0.029007-0.0580063,0.029007
				c-0.0578232,0.0289993-0.1158218,0.1158218-0.1448212,0.1738205c0,0,0,0.0289993-0.0289993,0.0289993
				c0,0-0.029007,0.0289993-0.029007,0.0868301c-0.0289993,0.0289993-0.0289993,0.0289993-0.0289993,0.0289993
				c-0.0289993,0.0289993-0.0289993,0.0579987-0.0289993,0.086998c-0.0289993,0.0289993-0.0289993,0.0578232-0.0289993,0.0868225
				v0.1450043c-0.0289993,0.0288239-0.0289993,0.0578232-0.0289993,0.0868225c0,0.0870056,0,0.1738281,0.0289993,0.2608337
				c0,0.1158218,0.0289993,0.260643,0.086998,0.4054718c0.0868301,0.2028275,0.1738281,0.4346542,0.3186569,0.6374817
				c0,0,0.0289993,0.0289993,0.0289993,0.0868225c0.1159973,0.1448212,0.2608261,0.3188248,0.4346542,0.4926529
				c0.0289993,0,0.0579987,0.0288239,0.086998,0.0868225h0.0289993c0.0289993,0,0.0580063,0.0289993,0.0870056,0.0580063h0.0289993
				c0.0289993,0.0578232,0.0579987,0.0578232,0.086998,0.0578232c0.0580063,0.0579987,0.1448288,0.086998,0.2318268,0.1159973
				h0.0580063c0.086998,0.0578232,0.1448212,0.0578232,0.2028198,0.0578232c0.0289993,0,0.0289993,0,0.0289993,0h0.029007
				c0.0578232,0,0.0578232,0,0.1158218,0c0.0289993,0,0.0579987-0.0289993,0.0579987-0.0289993
				c0.0289993,0,0.0580063-0.0288239,0.0580063-0.0288239h0.0289993c0-0.0289993,0.0289993-0.0289993,0.0289993-0.0289993
				c0.0289993,0,0.0579987,0,0.0579987,0v-0.0289993h0.0289993c0,0,0,0,0.0289993-0.0289993v-0.0289993
				c0.029007,0,0.029007,0,0.0580063-0.0580063c0,0,0,0,0-0.0288239l0.0289993-0.0289993
				c0.0289993,0,0.0289993-0.0289993,0.0289993-0.0579987c0.0289993-0.0289993,0.0579987-0.1158218,0.086998-0.1738281
				c0-0.0289993,0-0.0579987,0.029007-0.1158218v-0.1160049h0.0289993v-0.0868225
				c0-0.2028275-0.0578232-0.4346542-0.1167145-0.6663055H91.1721191z"/>
			<path d="M70.7790146,39.1158752v4.3746452l5.7074203-3.2448654v-4.4036446L70.7790146,39.1158752z M75.7621307,39.8401794
				l-4.258812,2.4335594v-2.752388l3.0710373-1.7382584l1.1877747-0.6953011V39.8401794z"/>
			<polygon points="77.4673233,43.6714172 77.4674988,43.6714172 77.4673233,43.6714172 			"/>
			<rect x="77.4591904" y="43.6667557" width="0.0000884" height="0.0186985"/>
			<polygon points="77.4674988,43.6714172 77.4673233,43.6714172 77.4673233,43.6714172 			"/>
		</g>
		<polygon class="st2" points="76.8052673,29.3232784 75.2696609,30.1924076 74.6323547,30.5690594 72.8649216,31.5830135 
			72.4014435,31.3223629 74.1687012,30.279232 74.7771835,29.9315796 76.3126144,29.0334511 		"/>
		<polygon class="st5" points="100.7090225,74.2397919 100.7090225,76.2100525 101.1146698,75.9782257 101.5072403,75.7513504 
			101.5072403,74.6999054 		"/>
		<polygon class="st7" points="101.5072403,74.6999054 101.5072403,75.7513504 102.4182739,75.2249222 		"/>
		<path class="st6" d="M65.8827133,38.1307449v12.6028099l2.9840393-1.709259l0.666481-0.3766518v-1.3327827l7.1560287-4.0849915
			l0.7823029,0.4344749l0.2608337,0.1740036l0.0578232,0.0288239l2.2599106-1.3036041V29.9605808L65.8827133,38.1307449z
			 M76.4864349,40.2456551l-5.7074203,3.2448654v-4.3746452l5.7074203-3.2738647V40.2456551z"/>
		<polygon class="st6" points="79.5574799,46.1850853 79.5574799,46.996212 73.6472244,50.4439011 73.6472244,49.6327744 		"/>
		<polygon class="st6" points="79.2678299,45.5186043 73.2995758,49.0242958 72.488266,48.5606422 71.0396652,47.6915131 
			70.6631851,47.4886894 76.6892624,44.0409966 77.0369186,44.243824 78.5145264,45.0841293 		"/>
		<polygon class="st6" points="124.4064636,69.0729675 121.0746002,70.9852295 80.2239532,47.4308624 80.2817841,47.4018631 
			80.2817841,45.286953 79.2388229,44.7074776 80.774437,43.8671722 82.2230377,44.7074776 		"/>
		<polygon class="st6" points="119.5969925,71.8543549 115.5699997,74.1720886 74.8061829,50.5887299 76.109787,49.8066025 
			78.7753525,48.2709923 		"/>
		<polygon class="st6" points="114.0633926,75.0412216 110.2100449,77.2721329 101.4315796,72.1730042 99.2586746,70.9272232 
			95.4053268,68.696312 93.2324219,67.4215317 66.6070175,52.0083351 68.8667526,50.704731 70.315361,49.8644257 
			73.1837463,51.544857 73.2125702,51.5158577 73.3285751,51.4290314 73.3575745,51.4290314 		"/>
		<path class="st5" d="M98.5361099,72.9940109v3.0132141l-5.3019485-3.0710373
			c-0.0578232-0.1160049-0.1158295-0.2028275-0.1738281-0.3188324c-0.4344788-0.6952972-0.956131-1.3326035-1.5354309-1.8540802
			c-0.1160049-0.1160049-0.2608261-0.2028275-0.3766556-0.2608261c-0.1159973-0.1158218-0.2028198-0.2028275-0.3188248-0.28965
			c-0.1158218-0.0870056-0.2606506-0.1738281-0.3764725-0.2318268c-0.6374817-0.3476562-1.2459641-0.5504761-1.7674408-0.5504761
			c-0.2606506,0.0289993-0.4634705,0.0579987-0.6662979,0.1158218c-0.1448288,0.0289993-0.2608261,0.1160049-0.3766556,0.1738281
			L65.8827133,57.1654587v-3.042038l30.3066635,17.5089874L98.5361099,72.9940109z"/>
	</g>
	<g>
		<g>
			<path class="st8" d="M75.7503891,57.9127655l-4.698967-2.7071419c-0.8719788-0.4947777-0.8719788-1.744278,0-2.2388992
				l1.9784775-1.1454277l0.013031,0.013031c-0.1299744,0.2863159-0.2081451,0.5856628-0.2081451,0.9240952
				C72.8347855,54.6328316,74.1363983,56.8976288,75.7503891,57.9127655z M95.7560425,67.4927902
				c-0.1039124-0.3384323-0.1820831-0.6768646-0.2341995-1.0152969c-0.0521164-0.4946213,0-1.0413589,0.1693726-1.522789
				c0.0127106-0.0260544-15.0858307-8.7598419-15.0858307-8.7598419c-0.0781708,0.3382759-0.221489,0.5596085-0.5468903,0.7547226
				c-0.3902283,0.2343597-0.793808,0.4556923-1.1973877,0.7029228l-0.6895752,0.3644905l-0.3387451,0.1952744
				c-0.4944611,0.2343597-1.1583023,0.2083015-1.9133377-0.1952744l22.413765,12.937973
				c-0.2993469-0.1820831-0.5726318-0.4034195-0.793808-0.6117172
				C96.732254,69.5623169,96.0687332,68.5861053,95.7560425,67.4927902z M123.1160126,66.152092
				c-0.090889,0.0912018-0.1951141,0.1822433-0.2993469,0.2602539c-0.5726318,0.4556961-1.2234421,0.8332138-1.8221359,1.2366333
				c-1.0804443,0.6767044-2.2129974,1.3146439-3.3322067,1.9654465c-0.9501572,0.5076523-1.9393921,0.9110718-2.8504639,1.4187164
				c-0.8201828,0.4035797-1.6270142,0.8200226-2.4862823,1.1193695c-0.4684067,0.182251-1.1452713,0.2734528-1.8612213,0.2734528
				c-1.0540695,0-2.1605682-0.1954346-2.9156036-0.6508102l-4.2432785-2.4472046
				c-0.1039124,0.4035797-0.2863159,0.5727997-0.6247482,0.768074c-0.4035797,0.2341995-0.7941284,0.4815903-1.1973877,0.702919
				l-0.6508026,0.3644943l-0.3254089,0.2081375c-0.5729523,0.2211761-1.2498169,0.0651474-1.8745651-0.2472305l5.0634613,2.9286346
				l5.1942825,2.6371918l4.7549591-3.483551c1.9003067-1.2364731,3.519516-2.1906357,5.5501099-3.2188034l6.2982178-2.4773026
				L123.1160126,66.152092z"/>
			<path d="M124.8472595,59.0322952l-1.8354797,3.2410088c0.3775177,0.143158,0.7550354,0.3123741,0.95047,0.5856628
				c0.0390854,0,0.1039124,0.0260582,0.1299744,0.0651436c0.0651398,0.0651436,0.1433182,0.143158,0.1433182,0.2341995
				c0,0.0390892,0,0.0390892,0,0.0651474v0.4166031c0,0.0390892-0.026062,0.0649872-0.0521164,0.1040726
				c-0.026062,0.5206757-0.0781784,1.0933151-0.2993469,1.5229492c-0.0781784,0.1299667-0.1433182,0.2341995-0.2081451,0.3384323
				c-0.1693726,0.1951141-0.3644943,0.3903885-0.5599213,0.5465775c-0.090889,0.0912018-0.1951141,0.1822433-0.2993469,0.2602539
				c-0.5726318,0.4556961-1.2234421,0.8332138-1.8221359,1.2366333c-1.0804443,0.6767044-2.2129974,1.3146439-3.3322067,1.9654465
				c-0.9501572,0.5076523-1.9393921,0.9110718-2.8504639,1.4187164c-0.8201828,0.4035797-1.6270142,0.8200226-2.4862823,1.1193695
				c-0.4684067,0.182251-1.1452713,0.2734528-1.8612213,0.2734528c-1.0540695,0-2.1605682-0.1954346-2.9156036-0.6508102
				l-4.2432785-2.4472046c-0.1039124,0.4035797-0.2863159,0.5727997-0.6247482,0.768074
				c-0.4035797,0.2341995-0.7941284,0.4815903-1.1973877,0.702919l-0.6508026,0.3644943l-0.3254089,0.2081375
				c-0.5729523,0.2211761-1.2498169,0.0651474-1.8745651-0.2472305c-0.1039124-0.0521164-0.1951141-0.1042252-0.2993469-0.1693726
				c-0.2993469-0.1820831-0.5726318-0.4034195-0.793808-0.6117172c-0.8071518-0.7809372-1.4706726-1.7571487-1.7833633-2.8504639
				c-0.1039124-0.3384323-0.1820831-0.6768646-0.2341995-1.0152969c-0.0521164-0.4946213,0-1.0413589,0.1693726-1.522789
				c0.0127106-0.0260544-15.0858307-8.7598419-15.0858307-8.7598419c-0.0781708,0.3382759-0.221489,0.5596085-0.5468903,0.7547226
				c-0.3902283,0.2343597-0.793808,0.4556923-1.1973877,0.7029228l-0.6895752,0.3644905l-0.3387451,0.1952744
				c-0.4944611,0.2343597-1.1583023,0.2083015-1.9133377-0.1952744c-0.0257416-0.013031-0.051796-0.0260582-0.077858-0.0390892
				c-0.0260544-0.0130272-0.0651398-0.0390854-0.0912018-0.0651436c-1.6139908-1.0151367-2.9156036-3.2799339-2.9156036-5.1543427
				c0-0.3384323,0.0781708-0.6377792,0.2081451-0.9240952l-0.013031-0.013031l-2.96772-1.7182198l-0.0778503-0.0389252
				c-0.2084656-0.2734489-0.4166107-0.5467377-0.5468979-0.8460846c-0.1690598-0.2993431-0.2602615-0.6117172-0.2993469-0.885006
				c-0.0521164-0.2732887-0.0521164-0.5078087,0.013031-0.7550392c0.0390854-0.0651436,0.0390854-0.1301308,0.0651398-0.1690559
				c0.10392-0.1954346,0.2081451-0.3384361,0.3775253-0.4817505c0.0912018-0.0910454,0.2081375-0.156189,0.3123703-0.195118
				c-0.1042328-0.1563454-0.2472305-0.3384323-0.3123703-0.5078049c-0.0651474-0.1040726-0.1433182-0.2342033-0.1693802-0.3384323
				c-0.3123703-0.8459244-0.038765-1.6270218,0.742012-2.1735954c0.6508102-0.4296341,1.522789-0.6768646,2.3169098-0.611721
				c0.5726395,0.0781708,1.2104111,0.1040726,1.7312546,0.1040726c0.3902283,0.0390854,0.7416916,0.0390854,0.9110641,0.0390854
				c0.0390854,0,1.5618744-0.88517,1.5618744-0.88517c0.2993469-0.885006,1.0543823-1.6009598,2.0045395-1.7571449
				c0.2993469-0.0780144,0.5986862,0,0.8719788,0.0521126c0.0390854,0,1.1325531-0.6118774,1.1325531-0.6118774l0.2993469-0.1560287
				c0-0.0781746,0-0.1433182,0.0387726-0.2083015c0.0133438-0.8200264,0.2996597-2.4731026,1.3797836-3.123909
				c0.742012-0.4426651,1.6009598,0.0651436,2.3038864,0.3775177c0.0781708,0.0390892,0.23452,0.1301308,0.3384323,0.1301308
				c0.013031,0,14.0575027,7.8096886,14.0575027,7.8096886c0.0781708,0,0.9501495,0.3773613,2.1087646,0.8460808
				c1.7569962,0.7418518,4.1781387,1.7960777,5.0240555,2.1996536c4.9201431,2.6423149,18.3268433,10.3998871,18.4310684,10.4780617
				c0.1299744,0.1040726,0.1951141,0.2472305,0.1951141,0.3644905c0,0.0780144,0,0.1820869-0.0651398,0.2342033
				L124.8472595,59.0322952z"/>
			<path class="st6" d="M98.5172577,65.7558365c-0.9842224-0.6246185-1.8277283-0.1717911-1.8277283,0.9683914
				c0,1.187088,0.8122406,2.5616074,1.8277283,3.1395111c0.9838333,0.5622787,1.7960739,0.1248856,1.8273392-1.0152969
				C100.3445969,67.6613541,99.501091,66.2714005,98.5172577,65.7558365z M97.3297882,65.9901657l0.5311966,0.9371262
				l0.0781708,0.0781708l0.1250763,0.2966766c0,0.0312729,0.046524,0.0781784,0.046524,0.0781784v0.0312653l-0.2028732-0.0312653
				l-0.0781708-0.0469055H97.73629v-0.0312729l-0.7184372-0.2497711L97.3297882,65.9901657z M98.2670975,68.1143799
				l-0.1090546,1.1401825l-0.9373169-1.2652588l0.9373169,0.0469055h0.1090546V68.1143799z M97.9078827,65.8652802
				l1.1714554,0.7027969l-0.5620804,0.7340622L97.9078827,65.8652802z M98.8451996,69.6919479l-0.0781708-1.3432388h0.0156326
				V68.286171l0.2185059,0.2343292l0.8122406,0.9683914L98.8451996,69.6919479z M99.2513199,68.1925507l-0.0781708-0.0781708
				l-0.2501526-0.2497711l0.0472794-0.0781784l0.0777969-0.0468979l0.0781708-0.0312729l0.5311966-0.3748474l0.3592148,1.5150299
				L99.2513199,68.1925507z"/>
			<path class="st6" d="M75.8189621,52.5661888c-1.0151062-0.5620842-1.8273468-0.1561546-1.8273468,1.0152969
				c0,1.1403732,0.8122406,2.5303307,1.8273468,3.1395111c0.9842148,0.5310059,1.7964554,0.1248856,1.7964554-1.0622025
				C77.6154175,54.5186119,76.8031769,53.1442871,75.8189621,52.5661888z M76.427948,54.5655136v-0.0469017l0.5311966-0.3279495
				l0.3748474,1.468132l-0.7809677-0.6402588v-0.0469017h-0.0312729c0-0.0469055,0-0.0469055,0-0.0469055H76.475235
				l-0.2501602-0.2028694l-0.0312653-0.0312691l0.0312653-0.0469017c0,0,0.0156403-0.0156364,0.0312729-0.0312691
				c0,0,0,0,0.0156326,0c0.0156403,0,0.0156403,0,0.0312729-0.0156364c0.0156326,0,0.0469055,0,0.0469055,0
				c0.0468979,0,0.0468979,0,0.0468979,0h0.0308914C76.427948,54.5655136,76.427948,54.5655136,76.427948,54.5655136z
				 M74.6475067,52.8474197l0.4842911,0.9371262l0.0312729,0.0469017v0.0469055h0.0468979v0.0156326
				c-0.0156326,0.0312729-0.0156326,0.0469055-0.0156326,0.0469055s0,0,0.0156326,0v0.0156364c0,0,0,0,0,0.0310783
				c0,0,0,0,0.046524,0.0469017c0.0312729,0,0.0312729,0.0467148,0.0312729,0.0467148l0.0472794,0.0312691l0.0308914,0.1250763
				l-0.2028656-0.0469055l-0.0781784-0.0312691h-0.0781708l-0.7340622-0.2497711L74.6475067,52.8474197z M75.4597473,56.1118164
				l-0.9369354-1.2963409l0.9369354,0.0310822h0.109436v0.0625381l0.0156403,0.0156326L75.4597473,56.1118164z
				 M75.7876892,54.1124916l-0.5777206-1.4212265l1.187088,0.6871605L75.7876892,54.1124916z M76.146904,56.5648384
				l-0.1246948-1.3901443l0.1246948,0.07798l0.0469055,0.0469055l0.9373169,1.0152969L76.146904,56.5648384z"/>
			<path class="st6" d="M95.6858902,48.6353989c-0.0679474,0.1696548-0.1697617,0.3394127-0.3733902,0.441227
				c-0.1018143,0-0.2036285,0.0338707-0.2714691,0h-0.0339737c-0.0678406-0.0679436-0.135788-0.1018143-0.1018143-0.1697578
				l0.0339737-0.4412308C95.1428452,48.5674515,95.448288,48.6353989,95.6858902,48.6353989z M96.3306503,47.651123
				c-0.2375031-0.2376022-0.5429459-0.3394165-0.8823624-0.2376022c-0.0339737,0-0.0679398,0.0339737-0.1018143,0.0339737
				c-0.169754,0.0678406-0.3394165,0.2036285-0.3394165,0.3732834c0,0.0679474,0.0339737,0.1019173,0.135788,0.1697617
				c0.2375031,0.1696548,0.6108856,0.1696548,0.8823547,0.0678406
				C96.1949615,47.9905396,96.5343781,47.8547516,96.3306503,47.651123z"/>
			<path class="st3" d="M104.136795,51.0450745c-0.135788,0.4412308-0.2715759,0.9163284-0.4072571,1.3915291
				c-0.0339737,0.1696587-0.1018143,0.3394165-0.135788,0.5090752c-0.0678406,0.2375984-0.135788,0.4752007-0.2036285,0.6788292
				c0,0-0.0339737,0.0338707-0.0678406,0.0678444c-0.1697617,0.0678406-0.4073639,0.0678406-0.4752045,0.0339699
				c0-0.0339699,0-0.0339699,0-0.0339699l0.2714691-1.0181465l0.135788-0.5090714h0.0339737l0.0678406-0.3394165
				l0.2376022-0.8146172h0.0339737c0,0,0,0,0.0338669,0c0.0679474,0.0339737,0.1697617,0.0339737,0.2715759,0.0339737H104.136795z
				 M102.5756073,51.3505173c-0.0339737,0-0.0339737,0-0.0679474,0c-0.0338669-0.0338707-0.1018143-0.0338707-0.135788-0.0338707
				c-0.1018143,0-0.1696548-0.0339737-0.2374954-0.0679436l-0.135788,0.4752007l-0.135788,0.5090714l-0.6448593,2.2738914
				c0,0.0339699,0,0.0679436-0.0338669,0.1018143c0.1356812,0.0679436,0.4412308,0.0679436,0.6787262-0.0338707
				c0.1018143-0.0339737,0.135788-0.1018143,0.135788-0.1018143c0.1696548-0.6448593,0.3732834-1.3575592,0.5770187-2.1042328
				c0,0,0,0,0-0.0339737c0.0338669-0.0678406,0.0338669-0.1357841,0.0678406-0.2375984s0.0678406-0.1696587,0.0678406-0.2714729
				c0.0339737-0.1018143,0.0679474-0.2036285,0.1018143-0.3054428c0.0339737-0.0679436,0.0339737-0.135788,0.0679474-0.2036285
				C102.7792358,51.3166466,102.6774216,51.3505173,102.5756073,51.3505173z M100.8786316,52.911705c0,0-0.0339737,0-0.0679474,0
				c-0.1018143,0-0.2036285,0-0.3054428-0.0338707l-0.7466736,2.6812515c-0.0339737,0-0.0339737,0-0.0339737,0.0338669
				c0.1018143,0.0339737,0.3394165,0.0339737,0.4752045-0.0338669c0.0678406-0.0339737,0.1018143-0.0679474,0.1018143-0.0679474
				c0.2036285-0.7805405,0.4752045-1.7309456,0.7126999-2.5794334H100.8786316z"/>
			<path class="st9" d="M100.0756607,50.6371117c0.5093765,0.2773743,1.0452805,0.440403,1.5991974,0.5182915l-0.1854019,0.6023941
				h-0.305336c0,0-0.6110916-0.0339737-0.6448593-0.0339737l-0.678833-0.1356812
				c0.0339737-0.2715759,0.1017151-0.5771217,0.2036285-0.9164352L100.0756607,50.6371117z M93.5361328,46.3014565
				c-0.1503906,0.2328377-0.264122,0.4749985-0.327919,0.7726707c-0.0677414,0.3732872-0.0677414,0.678833,0.0679398,0.9504051
				V48.0583l0.0339737-0.0337677h0.0339737l0.2713699-0.1698608l0.2036285-0.135685h0.0679398c0,0,0-0.0339737,0.0339737-0.0339737
				h0.1017151c0.0679474-0.0339699,0.1698608-0.0339699,0.2715759-0.0339699h0.2375946c0-0.0339737,0-0.0339737,0-0.0339737
				l0.0339737-0.0677376c0-0.0339737,0.0339737-0.135891,0.1017151-0.2036285c0-0.0339737,0.0339737-0.0679474,0.0679398-0.1019173
				c0.0182343-0.0182304,0.0362549-0.0360451,0.0544815-0.0542755
				C94.3454666,46.9376144,93.9276428,46.6415977,93.5361328,46.3014565z M93.751358,54.5068893
				c-0.0339737,0.1696548-0.0679474,0.3732834-0.1019135,0.5769119c0.305542,0.0339737,0.7805405,0.135891,0.8484879,0.135891
				c0.5769119,0.0677376,1.0860825,0.0337639,1.5273132-0.0339737c0.6108856-0.1019173,1.0181427-0.3055458,1.2557449-0.5771179
				c0.006218-0.0089073,0.0028992-0.0225792,0.0089111-0.0314903c-1.099144-0.1288452-2.1829529-0.3150749-3.2994919-0.6081924
				C93.9013367,54.1483116,93.8110199,54.3274956,93.751358,54.5068893z M87.3027725,51.8934784
				c0.0339737,0.0679474,0.1019135,0.135891,0.1696548,0.2036285c0.1358871,0.1698647,0.2376022,0.2715759,0.4072571,0.4072609
				c0.1019211,0.0679436,0.2036285,0.1358871,0.2715759,0.2036285c0-0.0677414,0.0339737-0.135685,0.0339737-0.2036285
				c0-0.2036285,0.1017075-0.4412308,0.1356812-0.6448593c0.0679474-0.2036285,0.1696548-0.4410248,0.2376022-0.6448593
				c0.0159454-0.0354233,0.0437088-0.0681534,0.0604858-0.1033669c-0.5849915-0.3086548-1.1086655-0.632637-1.4235382-1.0088234
				C86.9216156,50.6982231,86.8783188,51.3797455,87.3027725,51.8934784z"/>
			<path class="st10" d="M92.6991959,50.0947723h-0.0339737c-0.4751968-0.2376022-1.0181427-0.4072571-1.5611877-0.543045
				c-0.1018143-0.0339737-0.2375946-0.0678406-0.3733826-0.0678406c0.0339661-0.0339737,0.1018143-0.0679474,0.135788-0.0679474
				c0.0678406-0.0338669,0.1018143-0.0678406,0.1357803-0.1018143c0.1696625-0.0678406,0.3393173-0.135685,0.4751053-0.1696548
				h0.4072571c0.0339737,0,0.0339737,0,0.0679398,0.0339699h0.0338745l0.135788,0.0338707h0.0339661
				c0,0.0339737,0.0338745,0.0339737,0.0338745,0.0339737l0.0339737,0.0339737h0.0339661
				c0.1018143,0.1018143,0.1696625,0.1356812,0.2376022,0.2714691c0.0338745,0.0339737,0.0678406,0.1018143,0.1018143,0.1697578
				C92.6312561,49.8232994,92.6652222,49.9589844,92.6991959,50.0947723z M101.7610321,50.8073921
				c0-0.0337677,0-0.1017113,0.0339737-0.1696587c0-0.0339699,0.0339737-0.0339699,0.0339737-0.0677376
				c0-0.0339699,0.0677338-0.135891,0.1017075-0.1698608c0.0339737-0.0677414,0.0679474-0.0677414,0.1356888-0.1017113
				c0-0.0339737,0.0679398-0.0679474,0.1019135-0.0679474c0.2376022-0.1356812,0.5429459-0.1696548,0.7805405-0.1356812
				l0.0339737,0.0339699c0.0339737-0.0339699,0.0339737-0.0339699,0.0679474,0c0.0677414,0,0.1017075,0.0337677,0.1696548,0.0677414
				l0.0339737,0.0339699c0.0339737-0.0339699,0.0339737,0,0.0679474,0l0.0337601-0.0339699
				c0.0339737-0.0339737,0.0679474-0.0677414,0.1019211-0.0677414c0.0339737-0.0339699,0.0679474-0.0679436,0.1356812-0.0679436
				c0.0339737,0,0.0339737-0.0339737,0.0679474-0.0339737c-0.0339737-0.0679436-0.0339737-0.1017113-0.0339737-0.1017113
				c-0.0339737-0.1019173-0.0339737-0.1698608-0.0679474-0.2375984c-0.0337601-0.1019211-0.0337601-0.1698647-0.0677338-0.2376022
				c-0.0339737-0.135891-0.0679474-0.1696587-0.1019211-0.2376022c-0.0677338-0.1019173-0.0677338-0.1696548-0.1017075-0.2376022
				c-0.0339737-0.0679436-0.1019211-0.1356812-0.1019211-0.1356812c0-0.0339737-0.0679398-0.135891-0.0679398-0.135891
				c-0.1356888-0.2036285-0.3053436-0.3053398-0.5429459-0.3393135c-0.1017075,0-0.2036285,0-0.305542,0.0339737
				c-0.1017151,0-0.1696625,0.0339737-0.3053436,0.0677376c-0.3393097,0.2036285-0.4752045,0.2715721-0.5769119,0.3734932
				c-0.2036285,0.1356812-0.4072571,0.3393097-0.5771179,0.5769119c-0.3053436,0.3393135-0.5429459,0.7465706-0.7126007,1.1540337
				l-0.0223694,0.0671158c0.5093765,0.2773743,1.0452805,0.440403,1.5991974,0.5182915l0.086174-0.2800674
				C101.7610321,50.841362,101.7610321,50.841362,101.7610321,50.8073921z M98.774292,46.2257233
				c-0.0338669-0.0679474-0.0678406-0.1019211-0.1018143-0.1697617c-0.0678406-0.1018143-0.1356812-0.1696548-0.2036285-0.2376022
				h-0.0338669l-0.0679474-0.0678406c-0.1018143-0.0339737-0.2036285-0.0678406-0.3054428-0.0678406l-0.0339737-0.0339737
				c-0.0678406,0.0339737-0.2036285,0.0339737-0.3393097,0.0339737c-0.135788,0-0.2715759,0.0338669-0.4752045,0.1356812
				l-0.2036285,0.1018143c-0.0339737,0-0.0678406,0.0679474-0.0678406,0.0679474
				c0.1018143,0,0.2374954,0.0338669,0.3732834,0.0678406c0.543045,0.135788,1.0521164,0.3394165,1.5273209,0.543045
				c0.0338669,0,0.0338669,0,0.0678406,0C98.8761063,46.4632187,98.8422394,46.3275375,98.774292,46.2257233z
				 M94.8374481,47.1420746c0,0,0.1017075-0.0679474,0.1696548-0.1019173
				c0.1017151-0.0679474,0.1356888-0.0679474,0.1696548-0.1017113h0.0679474l0.0337677-0.0339737
				c0.0679474-0.1019173,0.1358871-0.2036285,0.2036285-0.2715759c0.0679474-0.1017075,0.1698608-0.2036285,0.2715759-0.305336
				c0.0339661-0.0679474,0.1019135-0.135891,0.1358871-0.1698647c0.0337677-0.0339737,0.0337677-0.0339737,0.0677414-0.0677376
				c0.1019135-0.1019173,0.2036285-0.2036285,0.305542-0.2376022c0.0339737-0.0679436,0.0677414-0.1019173,0.1017151-0.0679436
				c0.1358871-0.135685,0.2715683-0.2376022,0.4072571-0.3053398c0.1019135-0.0339737,0.1698608-0.1019211,0.2376022-0.135891
				c0.0339661,0,0.0339661,0,0.0339661,0h0.0339737c0.0339737-0.0339737,0.1017151-0.0339737,0.1356888-0.0679474
				c-0.2036285-0.0337639-0.373291-0.0677376-0.5429459-0.1017113l-0.2036285-0.0339699
				c-0.2376022,0-0.4412308-0.0339737-0.6448593-0.0339737c-0.1696548,0-0.3395157,0-0.5091705,0.0679436
				c-0.5769196,0.1017113-1.0860901,0.3732872-1.4593735,0.7128067c-0.1394119,0.1394119-0.2272491,0.2763367-0.3169403,0.4151268
				c0.39151,0.3401413,0.8093338,0.636158,1.2538757,0.8880539C94.8057556,47.1737671,94.8217087,47.1578178,94.8374481,47.1420746z
				 M97.348938,53.0814857c-0.0339737-0.0679436-0.0339737-0.1019173-0.0679474-0.1698608v-0.0337677
				c0-0.0339699,0-0.0339699-0.0339661-0.0679436c-0.0679474-0.1019173-0.1017151-0.2376022-0.1696625-0.3393135
				c0-0.0339737-0.0339737-0.0679436-0.0339737-0.1019173c-0.0339661-0.0339737-0.0339661-0.0339737-0.0339661-0.0679436
				c-0.0339737-0.0337677-0.0677414-0.0337677-0.0677414-0.0677414c-0.1019211-0.135891-0.1698608-0.2375984-0.3055496-0.3055458
				c-0.3393097-0.1696548-0.7805405,0-1.0181427,0.1019173c-0.0339737,0.0337677-0.1019135,0.0677376-0.1358871,0.1017113
				c-0.1017151,0.1019173-0.3053436,0.2036285-0.4410248,0.3055458c-0.1358871,0.1017113-0.2715759,0.2376022-0.3734894,0.4072609
				c-0.2713699,0.305336-0.5089722,0.6788292-0.6448593,1.0521164c-0.0122223,0.0242348-0.0203018,0.0486794-0.0323181,0.0729141
				c1.116539,0.2931175,2.2003479,0.4793472,3.2994919,0.6081924c0.156189-0.2309723,0.2286911-0.4901161,0.2286911-0.8169975
				C97.5185928,53.5227165,97.3829117,53.319088,97.348938,53.0814857z M90.2894669,49.1443901
				c0.0679398-0.0339737,0.2036285-0.0677414,0.2715683-0.135685c0.1356888-0.1019173,0.2036285-0.135685,0.3053436-0.1696548
				c0.0339737-0.0339737,0.1019135-0.0339737,0.1358871-0.0679474c-0.1019135-0.0339737-0.1358871-0.0679436-0.2036285-0.0679436
				c-0.305542-0.1017113-0.6110916-0.135685-0.9164276-0.135685c-0.678833,0-1.3236923,0.1696548-1.7988968,0.4752045
				c-0.1356812,0.0677376-0.2376022,0.1696548-0.305336,0.2375984c-0.2552109,0.2204094-0.4402008,0.5129051-0.5825119,0.8221817
				c0.3148727,0.3761864,0.8385468,0.7001686,1.4235382,1.0088234c0.3061676-0.6427879,0.7519531-1.2787399,1.3311462-1.7292938
				C90.0518646,49.2802773,90.1537781,49.2123337,90.2894669,49.1443901z"/>
			<path class="st11" d="M114.0131073,59.0580673h-0.0351791l-3.022438,1.1479988l-1.5930176,1.9679642l0.6443558,0.4101219
				h0.0351791l1.7689056-2.1321259l0.0586243-0.0351753l2.7175674-0.984127L114.0131073,59.0580673z M115.1728363,59.7376022
				h-0.0703583l-2.9869766,1.1128235l-1.628479,1.9679604l0.6443558,0.3749428l1.7923584-2.1673012h0.0703506l2.6123199-0.9841232
				L115.1728363,59.7376022z M105.6256027,54.1380196l-5.0607605,2.9518013l8.3174362,4.8147964l1.7689056-2.1321259h0.0703583
				l2.7058334-1.0190125L105.6256027,54.1380196z M104.6414795,51.0804024l-0.4684677,1.628479l12.042572,7.0987892
				l1.1828995,0.6795349l0.0354614-0.0351791h0.1052475l2.3780823-0.2107811L104.6414795,51.0804024z M110.7215424,59.7724915
				l2.7058334-1.0190125l-7.8017731-4.6154594l-5.0607605,2.9518013l8.3174362,4.8147964l1.7689056-2.1321259H110.7215424z
				 M115.102478,59.7376022l-2.9869766,1.1128235l-1.628479,1.9679604l0.6443558,0.3749428l1.7923584-2.1673012h0.0703506
				l2.6123199-0.9841232l-0.4335709-0.3043022H115.102478z M111.8695374,60.416851l2.7175674-0.984127l-0.5739975-0.3746567
				h-0.0351791l-3.022438,1.1479988l-1.5930176,1.9679642l0.6443558,0.4101219h0.0351791l1.7689056-2.1321259L111.8695374,60.416851
				z M105.6256027,54.1380196l-5.0607605,2.9518013l8.3174362,4.8147964l1.7689056-2.1321259h0.0703583l2.7058334-1.0190125
				L105.6256027,54.1380196z M115.1728363,59.7376022h-0.0703583l-2.9869766,1.1128235l-1.628479,1.9679604l0.6443558,0.3749428
				l1.7923584-2.1673012h0.0703506l2.6123199-0.9841232L115.1728363,59.7376022z M114.0131073,59.0580673h-0.0351791
				l-3.022438,1.1479988l-1.5930176,1.9679642l0.6443558,0.4101219h0.0351791l1.7689056-2.1321259l0.0586243-0.0351753
				l2.7175674-0.984127L114.0131073,59.0580673z M105.6256027,54.1380196l-5.0607605,2.9518013l8.3174362,4.8147964
				l1.7689056-2.1321259h0.0703583l2.7058334-1.0190125L105.6256027,54.1380196z M104.0323029,53.2242508l-0.1404266,0.5388222
				c-0.0351791,0.1052513-0.1289825,0.269413-0.3749466,0.3749466c-0.1289825,0.1052475-0.3397675,0.1287003-0.5036469,0.1287003
				c-0.1641617,0-0.3045883-0.0234528-0.4101181-0.0935211l-0.1287003,0.4332886
				c-0.0351791,0.1758881-0.1758881,0.3045883-0.4101257,0.4453011c-0.1756058,0.0700684-0.3749466,0.1404266-0.5739975,0.1404266
				c-0.2107849,0-0.4101257-0.0703583-0.5505524-0.1404266c-0.0351791,0.1990547-0.0938034,0.4098358-0.1289825,0.5737152
				c-0.0700684,0.1758881-0.1756058,0.2814217-0.3749466,0.3749428c-0.1756058,0.1055336-0.3394775,0.1407127-0.5153732,0.1407127
				c-0.1990509,0-0.3746567-0.0703545-0.5036392-0.1758881c-0.1404266-0.0935249-0.1990585-0.2342339-0.1990585-0.3981133
				c0,0,0-0.0351753,0-0.0703545l0.8785934-3.0224419c0-0.0703545,0-0.1052475,0.0351715-0.175602
				c0.0348969-0.0586319,0.0348969-0.0938072,0.070076-0.1289864h0.0234451V52.134594c0-0.034893,0-0.034893,0.0351791-0.0700684
				c-0.0586243,0.1052475-0.6443558,0-0.6443558,0c-0.0935211,0-0.23423,0.0700684-0.23423,0.0700684l-1.4877701,0.8785896
				c0.0586319,0.2462463,0.1289825,0.4804802,0.1289825,0.7498894c0,0.445015-0.1055298,0.8434143-0.374939,1.1480026
				c-0.093811,0.1407127-0.1990585,0.2459602-0.3397675,0.3397675l2.7178497,1.5695648l5.0956497-2.9869766L104.0323029,53.2242508z
				 M96.7693481,55.5319824c-0.1756058,0.0586281-0.4101257,0.1289825-0.6443558,0.1638756
				c-0.2694092,0.0351791-0.5739975,0.0703545-0.8785934,0.0703545c-0.2459564,0-0.5153656,0-0.8199539-0.0351753
				c-0.4801941-0.0700722-0.7847824-0.1404266-0.9838409-0.1404266l17.7825775,10.1915855h0.0351791l0.7496033-1.4643173
				L96.7693481,55.5319824z M92.7044373,47.0037651c0.0935211-0.6091766,0.3632202-1.0192986,0.773056-1.4525909
				l-11.8432312-5.0607567l-1.1480026,0.6443558c0.4332886,0.3045921,0.8785934,0.6795349,1.2884293,0.9137688
				c0,0,0.1289902,0.1052475,0.3749466,0.269413c0.0938034,0.0703545,0.2694092,0.175602,0.4684677,0.3045883
				c0.2694092,0.175602,0.5742874,0.3749428,0.8551331,0.5857277c0.2694168,0.1638756,0.538826,0.3749428,0.8085251,0.5388222
				c0.3394775,0.1993408,0.6443558,0.4101219,0.8434067,0.5740013c0.2459641,0.175602,0.5153732,0.3397675,0.7496109,0.4804764
				c0.4452972,0.304306,0.7498856,0.5036469,0.8903122,0.6440697c0.0586319,0.0703583,0.1289902,0.1055336,0.1641617,0.1641655
				l-0.23452-0.1289864l-0.2459564-0.1404266l-0.1990585-0.1289825l-4.7209854-2.7879219
				c-0.5740051-0.2696991-1.0424728-0.6795349-1.5933075-0.9841232h-0.0348892
				c-0.3749466-0.1641655-0.7381668-0.3045921-1.1131058-0.1990585c-0.7847824,0.1990585-1.4291458,1.0541954-1.4992142,1.8275375
				l3.7368698,2.0380325c1.2532501,0.7850647,2.8817291,1.5581207,3.8306732,2.4484367
				c-2.3080139-1.2649727-5.7285614-2.7879181-8.1418304-3.8775787l-0.23423-0.0935211v-0.1407127l-0.5857239,0.3397675
				l10.6603394,7.7431488c-0.2694168-0.925209,0.140419-1.9679642,0.8551331-2.6237602
				c0.1289902-0.0938072,0.2694092-0.1993408,0.3632202-0.2694092c0.7496033-0.4687538,1.5698471-0.5742874,2.1086731-0.5742874
				c0.3397675,0,0.7144241,0.0351791,1.0541916,0.1407127c0.2342377,0.0586281,0.445015,0.1638756,0.6443558,0.2342339
				c0.1638794,0.0703545,0.3045959,0.1289825,0.4801941,0.1638756c0.0586319,0.0354652,0.093811,0.0703545,0.1289902,0.0703545
				c0.3045883-0.1286964,0.5388184-0.3045883,0.679245-0.3746567
				C92.6340866,47.9175339,92.6340866,47.4839592,92.7044373,47.0037651z M114.0131073,59.0580673h-0.0351791l-3.022438,1.1479988
				l-1.5930176,1.9679642l0.6443558,0.4101219h0.0351791l1.7689056-2.1321259l0.0586243-0.0351753l2.7175674-0.984127
				L114.0131073,59.0580673z M115.1728363,59.7376022h-0.0703583l-2.9869766,1.1128235l-1.628479,1.9679604l0.6443558,0.3749428
				l1.7923584-2.1673012h0.0703506l2.6123199-0.9841232L115.1728363,59.7376022z M116.2155838,60.3816719l-2.9872589,1.0779305
				l-1.6636581,2.0031395l0.7147141,0.4098358l1.7689056-2.0969467c0.0351791-0.0348892,0.1055298-0.0700684,0.1641617-0.1052475
				l2.553688-0.9841232L116.2155838,60.3816719z M98.8780212,47.1793709l-0.0703583-0.0700722h-0.1055298
				c-0.4684677-0.23423-0.9838409-0.4101219-1.5226593-0.5391083c-0.2694168-0.1052475-0.538826-0.1404228-0.8202515-0.175602
				c-0.1287003,0.1407127-0.23423,0.2342339-0.3042984,0.3397675l1.6633682,0.9137688
				c0.0703583-0.0703583,0.0703583-0.1289864,0.1052475-0.1993446v-0.0348892c0-0.0351791,0.0351791-0.0351791,0.0351791-0.0703583
				c0-0.0703545,0.0703583-0.1055336,0.1407089-0.1641617c0.1990585-0.1052475,0.538826-0.1052475,0.7730637,0.0351791
				c0.1055298,0.0938072,0.1407089,0.1993408,0.1407089,0.3045883h-0.0351791v0.0351753
				c-0.0351791,0.0234528-0.0351791,0.0234528-0.0703583,0.0586319c-0.0351715,0.1052475-0.1638718,0.3045883-0.2694092,0.5153694
				l1.8275375,1.0193024l0.0351791-0.0351791v-0.0351753c0.2107773-0.1990585,0.4098358-0.4101257,0.6091766-0.5388222
				C100.1315536,47.8589058,99.1826096,47.3787117,98.8780212,47.1793709z M96.9100571,47.7885475v0.1289864
				c0,0.0351791-0.0351715,0.0351791,0,0.0703583l0.0348969,0.175602c0.0938034,0,0.23452,0,0.3749466-0.0351791
				c0.0234451,0,0.0586243-0.0351753,0.0586243-0.0703545L96.9100571,47.7885475z M92.6340866,50.6353874l-0.1055374-0.0351791
				c-0.4684677-0.2342339-0.9838333-0.3983955-1.5226593-0.5740013c-0.2694092-0.0703545-0.5857239-0.1055336-0.8551407-0.1407127
				c-0.0938034,0.0703583-0.1993408,0.1756058-0.3045883,0.2811394l4.3108673,2.4367142
				c0.2107849-0.1993408,0.3397675-0.3749466,0.538826-0.5036469
				C93.8524399,51.3849907,92.9386749,50.8461685,92.6340866,50.6353874z M89.5415726,50.5650291
				c-0.4452972,0.5857277-0.7498932,1.2652626-0.8436966,2.0031395c-0.0348892,0.1756058-0.0700684,0.3397675-0.0700684,0.4801941
				c0.2694092,0.1055336,0.9486542,0.4687538,1.862709,0.8785896h0.0348969l0.0351791,0.0351791
				c0.7498856,0.3045883,1.628479,0.6795349,2.6123123,0.9841232c0.0351791-0.1993408,0.0703583-0.3749466,0.1055374-0.5388222
				c0.0351791-0.1758919,0.0703506-0.269413,0.0938034-0.4101257c0.1404266-0.3397675,0.3163147-0.6792488,0.5153732-0.9489441
				L89.5415726,50.5650291z M98.3623657,48.5967827c-0.0348892,0.0354652-0.0348892,0.1055336-0.0348892,0.1407127
				c0.0348892,0.2694092,0.1052475,0.6091766,0.140419,0.8434105v0.0351791
				c0.4801941,0.4101219,0.8199615,0.890316,0.9489517,1.3590698c0.0351715,0,0.0351715,0,0.0351715,0
				c0.0351791-0.1289864,0.0703583-0.3048782,0.1407166-0.4687538l0.0348892-0.1404266
				c0.1289902-0.2694092,0.2694092-0.5391083,0.4335785-0.7850685L98.3623657,48.5967827z M121.7213593,62.4786186
				c0,0-3.2566757,0.3045883-5.2598114,1.3238907c-2.1086731,1.0893745-3.8423996,3.2915688-4.5571136,4.2405128
				l-0.1990585,0.2459564c-0.1641617,0.23452-0.2694092,0.6443558-0.3397675,1.0544815v0.1287003
				c0,0.0351791,0,0.0351791,0,0.0703583v0.0351715c-0.0351791,0.1287003-0.0351791,0.2694168-0.0351791,0.4101257
				c0.3397675-0.1055298,0.5740051-0.2462463,0.7498932-0.3749466v-0.1055298c0-0.1052475,0.0351791-0.1990585,0.1055374-0.2694092
				l2.0265884-2.4836197l2.7527466-2.7761993c0.0351715-0.0351753,0.1055298-0.1055336,0.1993408-0.1055336l3.771759-0.8082314
				l2.1086731-0.1756058C122.6351242,62.6896858,122.1546478,62.5489731,121.7213593,62.4786186z M116.2155838,60.3816719
				l-2.9872589,1.0779305l-1.6636581,2.0031395l0.7147141,0.4098358l1.7689056-2.0969467
				c0.0351791-0.0348892,0.1055298-0.0700684,0.1641617-0.1052475l2.553688-0.9841232L116.2155838,60.3816719z
				 M114.0482864,61.775631c0.0351791-0.0348892,0.1055298-0.0700684,0.1641617-0.1052475l2.553688-0.9841232l-0.5505524-0.3045883
				l-2.9872589,1.0779305l-1.6636581,2.0031395l0.7147141,0.4098358L114.0482864,61.775631z M121.1708145,60.9556732
				c-0.0351791,0-0.093811,0.0351753-0.1641693,0.0351753l-3.3267441,0.269413l-3.0576172,1.1597252l-1.7923584,2.1673012
				l-0.9603882,1.8275375c-0.0234451,0.1052475-0.0938034,0.1756058-0.1993408,0.2107849l-0.8082275,0.3045883l-0.2811432,0.0703583
				l0.5153732,1.3236008c0.0351791-0.1404266,0.1055298-0.2459564,0.1990585-0.3397675l0.2110672-0.2459564
				c0.0348892-0.0234528,0.0348892-0.0586319,0.0938034-0.0935211v-0.0351791
				c0.7847824-1.0193024,2.5185089-3.1628647,4.6503525-4.240799c2.073494-1.0541954,5.3301697-1.3587837,5.4708786-1.3939629
				c0.0586319,0,0.1289902,0.0351791,0.2342377,0.0351791l1.628479-2.2960014L121.1708145,60.9556732z M116.2155838,60.3816719
				l-2.9872589,1.0779305l-1.6636581,2.0031395l0.7147141,0.4098358l1.7689056-2.0969467
				c0.0351791-0.0348892,0.1055298-0.0700684,0.1641617-0.1052475l2.553688-0.9841232L116.2155838,60.3816719z
				 M78.9515915,52.3339348c-0.0703583-0.0351753-0.1289902-0.1055336-0.1641617-0.1641617
				c-0.4098434-0.7847824-1.0190201-1.4291382-1.6281967-1.8037987c-0.1758881-0.1055336-0.3397675-0.1055336-0.4801941-0.1407127
				c-0.23452-0.1286964-0.46875-0.1990547-0.7850647-0.1990547c-0.0231705,0-0.0586319,0-0.0935211,0.034893
				c-0.1758957,0-0.3397675,0.0354652-0.5508347,0.1055336c0.1407089,0,0.3048706,0.0351791,0.4452972,0.0938072
				c0.1758881,0.0703545,0.3749466,0.175602,0.538826,0.2811394c0.7496033,0.4335747,1.4291382,1.1479988,1.9096146,2.0265884
				l19.0259399,10.9807281c0.2928619-0.1289825,0.5977325-0.1876144,0.9140472-0.1641617v-0.0117264L78.9515915,52.3339348z
				 M70.4351044,47.4138908c-0.2459641,0.1052475-0.3749466,0.2342339-0.480484,0.4098358v0.0351791l4.2759781,2.4367142
				c0.2694092-0.1289864,0.5740051-0.1641655,0.913765-0.1289864L70.4351044,47.4138908z"/>
			<path class="st12" d="M110.4494934,69.1687546c-0.2714691-0.1018143-0.543045-0.1696548-0.8484879-0.2714691
				c-0.8823547-0.2715759-1.1539307-0.4752045-1.1539307-0.4752045l-6.0484543-3.5214386
				c-0.4412308-0.8484879-1.1200638-1.5611877-1.9007111-2.0362892c-0.7126999-0.4412308-1.4253998-0.5091743-1.9684448-0.2036285
				L79.4627075,51.6559601c-0.4750977-0.8823586-1.1539307-1.5951614-1.8666306-2.0024185
				c-0.7466736-0.4412308-1.4593735-0.543045-2.0363922-0.2376022l-4.68367-2.7151184l-0.0338669-0.0339737
				c-0.0339737-0.1018143-0.1018143-0.1696548-0.1697617-0.2374954c-0.1018143-0.2036285-0.2374954-0.3733902-0.3393097-0.5770187
				c-0.1697617-0.3054428-0.2037354-0.543045-0.1697617-0.7806473l14.8655243,8.5188522
				c0,0,0.7466736,0.3394127,1.7309494,0.7806435c1.4593735,0.67873,3.4278183,1.5951614,4.3781204,2.1042328
				c4.3782196,2.2400208,16.9358826,9.6048317,18.5649109,10.5551338L110.4494934,69.1687546z M118.1538239,64.5190582
				l-0.6788254,0.1696625l-0.5090714,0.5091705l-0.2715759,0.2714691c-0.2036285,0.2376022-0.1696548,0.543045,0,0.7466736
				l0.7127991,0.4072571l0.2714767,0.1697617V66.759079c0-0.1018143,0-0.2036285,0.0679398-0.3054428
				c0.1018143-0.6108856,0.5429459-1.2218781,1.0181503-1.5273209h0.0339661L118.1538239,64.5190582z M94.4640121,48.1601944
				h-0.3054428c-0.0678406,0-0.0678406,0-0.1018143,0l-0.0339661,0.0339737h-0.0338745l-0.0679474,0.0678406H93.887001
				l-0.0338745,0.0339737l-0.0679398,0.0339737l-0.0338745,0.0338669l-0.2036285,0.1018143l-0.1018143,0.0679474
				l-0.1018143,0.0678406c0,0,0,0-0.0339737,0c-0.0339661,0-0.0678406,0.0339737-0.0678406,0.0339737
				c-0.0679398,0.0338669-0.1018143,0.1018143-0.2037277,0.1696548c0.169754,0.0339737,0.3733826,0.0679436,0.5770111,0.135788
				c0.1696625,0.0339699,0.3054428,0.1018143,0.4412308,0.1696548h0.0339737c0,0,0,0,0.0338745,0h0.0679398
				c0.0338745-0.0338707,0.0338745-0.0338707,0.0678406-0.0338707h0.1696625
				c-0.0338745-0.0679436-0.0338745-0.1697578-0.0338745-0.2375984L94.4640121,48.1601944z M98.1634064,49.9929581
				c0,0-0.4072571-0.4072571-0.9503021-0.814518c-0.135788-0.1357841-0.1696548-0.1697578-0.2376022-0.1697578
				c-0.0338669,0.2376022-0.1696548,0.4412308-0.4072571,0.5770187c-0.0678406,0.0339699-0.1357803,0.0678406-0.2375946,0.1018143
				c0,0.2375984,0.0339661,0.4750977,0.0679398,0.6787262c0.0338745,0.135788,0.0338745,0.2715759,0.1018143,0.3733902
				c0.135788,0.2714691,0.3732834,0.4750977,0.543045,0.7466736c0.0678406,0.1357841,0.1696548,0.2375984,0.2714691,0.3732834
				c0.0679474,0.1018143,0.1018143,0.2376022,0.2036285,0.3394165c0.0679474,0.0679436,0.1018143,0.1357841,0.1018143,0.1697578
				c0.0339737,0.1018143,0.0679474,0.135685,0.0679474,0.1696587c0,0,0,0,0.0338669,0
				c0.1697617-0.1018181,1.3236923-0.7806473,1.3236923-0.7806473v-0.3732872
				C98.9440536,50.9432602,98.6724777,50.4681587,98.1634064,49.9929581z M95.8215714,50.8074722
				c-0.6448517-0.543045-1.4593735-1.119957-2.3757019-1.3915329c-0.169754-0.0678406-0.3394165-0.1018143-0.5091705-0.1356812
				c0.0339737,0.0678406,0.0679398,0.1356812,0.135788,0.2374954c0.1018143,0.2037315,0.1357803,0.4752045,0.169754,0.7466736
				l0.0338745,0.2037315c0.4751968,0.3054428,1.1878967,0.7805443,1.832756,1.3235893
				c0.1018143-0.1018143,0.2036285-0.135788,0.3054428-0.2036285c0.3394165-0.1696587,0.6448593-0.2376022,0.9503021-0.2376022
				C96.1609879,51.112915,95.991333,50.9432602,95.8215714,50.8074722z M105.8300781,48.7058678
				c-1.1200638-0.6108856-5.4302368-2.3755989-6.7199554-2.9527206H99.076149
				c0.0679474,0.1019173,0.1356888,0.1698647,0.1696548,0.2715721c0.1019211,0.2036285,0.1696625,0.4752045,0.1696625,0.7467766
				l0.0339661,0.1696587c0.4752045,0.2376022,1.2217789,0.6788292,1.9685516,1.2557449
				c0.1696548-0.1019173,0.2715759-0.135685,0.3732834-0.2036285c0.1356888-0.0339737,0.2715759-0.0679474,0.4072571-0.1019173
				c0.1696548-0.0339737,0.3055496-0.0339737,0.4412308,0c0.2036285,0.0339699,0.4072571,0.0679436,0.5769119,0.2036285
				c0.1698685,0.1019173,0.3055496,0.3055458,0.4072647,0.5091743c0.1358871,0.2036285,0.2715683,0.4072571,0.3395157,0.6448593
				c0.0339737,0.1017113,0.0339737,0.1696548,0.0677414,0.2376022c0.0339661,0.1356812,0.0679398,0.2715721,0.1019135,0.441227
				c0.1696548,0.0339737,0.3393097,0.0677414,0.4752045,0.1696587v0.0339737c0.0339737,0,0.1017075,0.0677376,0.1356812,0.1356812
				c0,0,0,0,0.0339737,0.0339737c0.0339737,0.1017113,0.0339737,0.1696548,0,0.2715721v0.0339737l15.9855804,9.5369911h0.1017151
				l2.7490387-1.4085159C121.001091,57.1061211,110.1064911,50.9799614,105.8300781,48.7058678z M83.3621445,37.0986137
				c-1.357666,0.1019173-1.4933472,2.341835-1.5273209,2.9187469l12.1164322,5.1928444
				c0.3732834-0.2715721,0.7805405-0.4412308,1.2217712-0.5429382c0.4751968-0.1019211,0.9164276-0.0679474,1.3576584,0h0.2036285
				c0.1696548,0.0337639,0.3053436,0.0337639,0.4752045,0.1017075L83.3621445,37.0986137z M90.3197021,54.3739128
				c-1.2557449-0.543148-2.036293-0.9843788-2.0702591-0.9843788c-0.1356888-0.1017075-0.2036285-0.1696548-0.2715759-0.2036285
				c-0.0339737,0-0.0679474-0.0337639-0.1017151-0.0337639c-0.1019135-0.0679474-0.2036285-0.1698647-0.305542-0.2376022
				c-0.0679474-0.0679436-0.1356812-0.1019173-0.2036285-0.1698647l-11.9805374-8.6885033
				c-0.0339737,0.0339737-0.0679474,0.0339737-0.1019211,0.0339737c-0.0679474,0-1.6290283,0-2.9187469-0.135685
				c-0.5091782-0.0679436-1.1540375,0.135685-1.663002,0.4412308l14.6956558,8.4509048
				c0.0339737,0,0.1019211,0.0339699,0.1698608,0.0679436c0.7126007,0.3053398,4.4798355,2.0362892,5.939415,2.8168297
				c4.3781204,2.2401237,16.9697571,9.6049347,18.5987854,10.5891113l0.5769119-0.2373962
				C109.6652603,65.4719925,90.3197021,54.3739128,90.3197021,54.3739128z"/>
			<path class="st13" d="M115.6459198,60.0435257h-0.0390854l-2.6162567,0.9762115h-0.0651398l-1.7960815,2.1737518
				l0.4423447,0.2734489l1.6661072-2.0045395l2.980751-1.0804405L115.6459198,60.0435257z M114.5915375,59.4318047
				l-2.7204895,0.9762115l-0.064827,0.0390854l-1.7703323,2.1346664l0.4426651,0.2343636l1.6397247-1.9654503l2.980751-1.1195297
				L114.5915375,59.4318047z M113.4332428,58.75494l-2.7074585,1.0152969h-0.0781784l-1.7573013,2.1346664l0.4687195,0.2734489
				l1.6009598-1.9654503l3.0198364-1.1586151L113.4332428,58.75494z M111.1293564,63.1934891l0.4423447,0.2734489
				l1.6661072-2.0045395l2.980751-1.0804405l-0.5726395-0.3384323h-0.0390854l-2.6162567,0.9762115h-0.0651398
				L111.1293564,63.1934891z M111.871048,60.4080162l-0.064827,0.0390854l-1.7703323,2.1346664l0.4426651,0.2343636
				l1.6397247-1.9654503l2.980751-1.1195297l-0.5074921-0.2993469L111.871048,60.4080162z M124.8744888,58.7679672
				c0-0.1429977-0.0654678-0.2732849-0.2084656-0.3775177c-0.1042328-0.0649834-13.4978943-7.8225594-18.430748-10.4648743
				c-0.8462448-0.4164467-3.2540359-1.4578018-5.0113449-2.212841l-2.2778244-0.1299706l0.1302872,0.1690559h0.0390854
				c1.288269,0.5727959,5.5966873,2.3429718,6.716217,2.9546928c4.2823639,2.2647972,15.176712,8.3953514,17.7799454,10.0223694
				l-2.7462311,1.4058456h-0.1042328l-0.8459167,0.1042328l-2.3690338,0.2081413h-0.1042252l-0.0390854,0.0390892
				l-0.6377792,0.1951141l-2.5511169,0.9892387c-0.0651474,0.0260582-0.1299667,0.0651436-0.1690598,0.1042328l-1.7573013,2.0955811
				l-0.1693802,0.2473869l-0.1039124,0.1951141l-0.7550354,1.457962h-0.026062l-0.0390854,0.1039124l-0.468399,0.2084656
				c0,0,0,0-0.039093,0h-0.0130234l-0.5596085,0.2341995c-1.6270142-0.9892426-14.2265625-8.343235-18.6001205-10.5951614
				c-1.4576492-0.76791-5.2325211-2.4991608-5.9484711-2.8115349l1.1973801,1.457962
				c1.457962,0.6768646,3.4234161,1.6009598,4.3735657,2.1084518c4.3735657,2.238739,16.934021,9.6060829,18.5610428,10.5562325
				l0.7550354,2.1345062c0.1299744,0.039093,0.2732925,0.1042328,0.4035797,0.1302948
				c0.038765-0.2993469,0.1039124-0.6768646,0.2341995-0.9762115l-0.5078049-1.3276749l0.2736053-0.0651474l0.8198624-0.2993393
				c0.0912018-0.039093,0.1690598-0.1042328,0.1951141-0.2081451l0.9501572-1.8354797l1.8094177-2.1735992l3.045578-1.1454239
				l3.3322067-0.2734489c0.0651474,0,0.1302948-0.038929,0.1693802-0.038929l2.4077911-1.2366295l-1.6270142,2.2908554
				c0.23452,0.0260582,0.5338669,0.1042328,0.8462372,0.2083054c0.0651474,0.0260544,0.1299744,0.0260544,0.2081451,0.0651436
				l1.8221359-3.241169l-0.026062-0.0389252C124.8744888,58.9373436,124.8744888,58.8331146,124.8744888,58.7679672z
				 M114.5915375,59.4318047l-2.7204895,0.9762115l-0.064827,0.0390854l-1.7703323,2.1346664l0.4426651,0.2343636
				l1.6397247-1.9654503l2.980751-1.1195297L114.5915375,59.4318047z M115.6459198,60.0435257h-0.0390854l-2.6162567,0.9762115
				h-0.0651398l-1.7960815,2.1737518l0.4423447,0.2734489l1.6661072-2.0045395l2.980751-1.0804405L115.6459198,60.0435257z
				 M98.946106,45.5827637c0,0,0,0-0.0390854,0h-0.2081451l0.0390854,0.038929c0,0,0.1299744,0.0651436,0.3384323,0.130127
				L98.946106,45.5827637z M84.7195435,36.9268341c-0.71595-0.2993431-1.5621872-0.8068352-2.3038788-0.3773575
				c-1.0934753,0.6508064-1.3667603,2.3167534-1.3928223,3.1239052l0.4687195,0.2081451l0.3384399,0.1302872
				c0.0390854-0.5727921,0.1690521-2.8115311,1.5358124-2.9156036c0.0260544-0.0260582,0.0260544-0.0260582,0.0651474-0.0260582
				h1.6270142C84.953743,37.0701523,84.7843704,36.9659233,84.7195435,36.9268341z M83.4309616,37.0701523
				c-0.039093,0-0.039093,0-0.0651474,0.0260582c0.0260544-0.0130272,0.3775177-0.0130272,0.742012-0.0260582H83.4309616z
				 M74.2023926,43.2007065c-0.5074844,0-1.1582947-0.0260582-1.7312469-0.0912018
				c-0.780777-0.0780144-1.6657867,0.1693764-2.3038788,0.5988503c-0.7807846,0.5467377-1.0540695,1.3276749-0.7547226,2.1737556
				l1.0934677,0.611721l0.1039124,0.0651436l0.2214966,0.0910416c-0.0394058-0.1040688-0.0912094-0.1561852-0.1563492-0.2213287
				c-0.1042328-0.2081451-0.2341995-0.3775215-0.3384323-0.5726357c-0.1693726-0.3123741-0.2081451-0.5467339-0.1693726-0.7810974
				c0.0260544-0.2732887,0.1954269-0.4814301,0.4687195-0.6508064c0.0390854,0,0.0390854-0.0260582,0.0651398-0.0260582
				c0.5205231-0.3123741,1.1583023-0.5205193,1.6661072-0.4423447c1.2885895,0.1299706,2.8504639,0.1299706,2.9156036,0.1299706
				c0.0390854,0,0.0781708,0,0.1042328-0.025898L74.2023926,43.2007065z M118.3143005,67.1113663
				c0,0-0.0133514,0.0130234-0.0133514,0.0260544h0.026062v-0.0260544
				C118.3143005,67.1113663,118.3143005,67.1113663,118.3143005,67.1113663z M118.2752075,67.1374207l0.013031,0.013031v-0.013031
				H118.2752075z M118.3143005,67.0983353v0.013031h-0.026062v0.0260544h0.0387726v-0.0390854H118.3143005z M118.3143005,67.0983353
				v0.013031h-0.026062v0.0260544h0.0387726v-0.0390854H118.3143005z M118.2752075,67.1374207l0.013031,0.013031v-0.013031
				H118.2752075z M118.3143005,67.1113663c0,0-0.0133514,0.0130234-0.0133514,0.0260544h0.026062v-0.0260544
				C118.3143005,67.1113663,118.3143005,67.1113663,118.3143005,67.1113663z M118.3143005,67.1113663
				c0,0-0.0133514,0.0130234-0.0133514,0.0260544h0.026062v-0.0260544
				C118.3143005,67.1113663,118.3143005,67.1113663,118.3143005,67.1113663z M118.3270111,67.1504517v0.013031h0.0260544
				C118.3530655,67.1634827,118.3403549,67.1634827,118.3270111,67.1504517z M118.3270111,67.0983353h-0.0127106v0.013031h-0.026062
				v0.0260544h-0.013031l0.013031,0.013031h0.0127106v-0.013031h0.026062V67.0983353z M124.0933914,62.9202042
				c-0.0390854-0.0260582-0.1042328-0.0649872-0.1302872-0.0649872c-0.0781784-0.0390854-0.1042328-0.0651436-0.1690598-0.0390854
				l-0.6508102,0.0780144h-0.1042252l-2.1087723,0.1692162l-3.761528,0.8069954
				c-0.1039124,0-0.1693726,0.0780144-0.2081451,0.1040688l-2.7465439,2.7856369l-2.0302734,2.4729385
				c-0.0654678,0.0651474-0.1042328,0.16922-0.1042328,0.2732849v0.1042328
				c-0.1693802,0.1301346-0.4035797,0.2732925-0.742012,0.3775177c-0.0390854,0-0.0781708,0.026062-0.1042328,0.026062
				c-0.1039124,0.0389252-0.1690521,0.0649872-0.2732849,0.1039124h-0.013031
				c-0.0390854,0.013031-0.0908813,0.013031-0.1302872,0.0390854c-0.2341995,0.0651474-0.5074921,0.1042328-0.806839,0.1302872
				h-0.0390854c-0.4035721,0-0.9110641-0.0260544-1.4185562-0.1693726l-7.4708176-4.2962723
				c-0.4817505-0.88517-1.1325607-1.6009674-1.9133377-2.0696869c-0.1693726-0.1040688-0.3387527-0.1690559-0.5078049-0.2081413
				c-0.1690598-0.1042328-0.3384323-0.130291-0.5074921-0.130291c-0.013031,0-0.0521164-0.0260544-0.0651474-0.0260544
				c-0.3254013-0.0259018-0.6247482,0.0390854-0.9110641,0.1563454L78.1333008,52.5722694
				c-0.4684067-0.8850098-1.1452713-1.6009598-1.9003067-2.0304375c-0.1690598-0.1040688-0.3644943-0.2083015-0.5338669-0.2734451
				c-0.1429977-0.0780144-0.3120575-0.1039124-0.4423447-0.1039124c-0.0390854,0-0.0390854,0-0.0651474,0h-0.0781708
				c-0.3123779-0.0390892-0.6247482,0-0.8719788,0.1299706l-4.2823639-2.433857v-0.0390854l-0.742012-0.4035759
				c-0.038765,0.0260582-0.038765,0.0912018-0.077858,0.1692162c-0.0651398,0.2343597-0.0651398,0.4685631-0.0260544,0.7418518
				c0,0,0.8980408,0.5078049,1.1322403,0.6508064c0.0390854,0.0130272,0.0521164,0.0260582,0.0521164,0.0260582l3.7357864,2.1737518
				c0.1299667,0.0649872,0.2993469,0.0649872,0.4423447-0.0389252c0.3384323-0.2604218,0.8071518-0.1954346,1.3537292,0.1429977
				c0.6117172,0.3384323,1.2234421,1.0152969,1.6270218,1.7963943c0.0390854,0.0649834,0.1042252,0.1039124,0.1690521,0.1690559
				l19.3816605,11.1797829c0.1302872,0.0651474,0.3384323,0.0651474,0.4687195-0.0651398
				c0.2732849-0.2472305,0.742012-0.1820908,1.2625275,0.0912018c0.6768646,0.4166031,1.2494965,1.0934677,1.6530762,1.8742447
				c0.0390854,0.0651474,0.0781708,0.1042328,0.1690598,0.1693802l7.6141357,4.4005051c0,0,0.0387726,0.0390854,0.1042328,0.0390854
				c0.5465775,0.130127,1.0149765,0.1951141,1.496727,0.1951141c0.4423447,0,0.8459244-0.0649872,1.1843567-0.130127
				c0.1693726-0.0389328,0.2993469-0.1040726,0.4687195-0.143158c0.4423447-0.16922,0.780777-0.3384323,1.0543823-0.5076523
				c0.064827,0,0.1430054-0.0259018,0.1690598-0.0259018l2.1475372-0.9503098l2.6423187-1.8353195l0.2736053-0.1429977
				l-0.8201828-0.5078125l-2.5120316,1.77034l-0.9762115,0.4034195l1.4576492-1.7571487l1.2237549-1.2234421l0.6114044-0.6118851
				l0.2605743-0.2732849l0.5205231-0.5076523l0.6768646-0.1692123l0.702919-0.143158l2.2126846-0.5076485l1.7312469-0.1301308
				l-1.9654465,1.1843567l-0.7810974,0.3775177c-0.0781708-0.1690598-0.1429977-0.2732925-0.2732925-0.3775177l-0.0390854-0.026062
				h-0.0260544l-0.0390854-0.0258942v-0.013031h-0.0387726l-0.0912018-0.0390854
				c-0.2475433-0.1040726-0.4817505-0.0649872-0.7550354,0.1040726h-0.026062
				c-0.4814301,0.3123703-0.9240952,0.9242554-1.0283203,1.5229416c-0.0651474,0.1040726-0.0651474,0.2083054-0.0651474,0.3125381
				v0.0389252c0,0.2343597,0.0651474,0.4294739,0.1693726,0.5337067c0.0390854,0.0910416,0.1042328,0.156189,0.1693802,0.2081451
				v0.013031l0.038765,0.0260544h0.026062v0.013031c0.0260544,0,0.0260544,0.0130234,0.0390854,0.0130234l0.1042328,0.0521164
				l0.0651398,0.013031c0.0387726,0,0.1429977,0.0390854,0.2081451,0.0390854c0.1693726,0,0.3644867-0.0390854,0.5335464-0.1302872
				c0.4426651-0.2732849,0.8201828-0.7809372,0.9892426-1.3016129l1.2237549-0.6117249l2.238739-1.3146439h0.013031
				l0.026062-0.0260544c0.0648193-0.0651474,0.1690521-0.1171036,0.2732849-0.1690598
				c0.064827-0.0260544,0.1429977-0.0781708,0.2081451-0.1433182c0.0260544,0,0.0260544,0,0.0390854-0.0260544
				c0.0521164-0.0260582,0.0651474-0.0780144,0.1042328-0.1301308c0.064827-0.0649834,0.0781708-0.1301308,0.0781708-0.2213326
				v-0.4034157c0-0.0390892,0-0.0390892,0-0.0649872C124.2236786,63.0633621,124.1582184,62.9851875,124.0933914,62.9202042z
				 M119.576828,65.6665878c0,0.3514633-0.1302948,0.6898956-0.3384323,0.9892426
				c-0.1302948,0.2081451-0.2993469,0.3775177-0.4687271,0.4815903c-0.1433182,0.0649872-0.3123703,0.0910416-0.4166031,0.026062
				c0,0-0.0127106,0-0.0260544-0.013031v0.013031l-0.026062-0.013031v-0.013031h0.026062v-0.0390854h-0.0127106
				c-0.0912018-0.0780182-0.0912018-0.2213287-0.0912018-0.3382721c0-0.2084656,0.0651398-0.4035797,0.1690521-0.6118851
				c0.1302872-0.3384323,0.3775177-0.6508026,0.6377792-0.8200226c0.1042328-0.0260544,0.2084656-0.0651398,0.2732925-0.0651398
				c0.0393982,0,0.1042252,0,0.1433105,0.0390854c0.0651474,0.0260544,0.1042328,0.1302872,0.1302948,0.2732849V65.6665878z
				 M118.2752075,67.1374207l0.013031,0.013031h0.0127106v-0.013031H118.2752075z M118.3143005,67.0983353v0.013031
				c0,0-0.0133514,0.0130234-0.0133514,0.0260544h0.026062v-0.0390854H118.3143005z M118.3270111,67.1504517v0.013031h0.0260544
				C118.3530655,67.1634827,118.3403549,67.1634827,118.3270111,67.1504517z M118.3143005,67.1113663
				c0,0-0.0133514,0.0130234-0.0133514,0.0260544h0.026062v-0.0260544
				C118.3143005,67.1113663,118.3143005,67.1113663,118.3143005,67.1113663z M118.2752075,67.1374207l0.013031,0.013031v-0.013031
				H118.2752075z M118.3143005,67.0983353v0.013031h-0.026062v0.0260544h0.0387726v-0.0390854H118.3143005z M118.2752075,67.1374207
				l0.013031,0.013031v-0.013031H118.2752075z M118.3143005,67.0983353v0.013031h-0.026062v0.0260544h0.0387726v-0.0390854
				H118.3143005z M118.3143005,67.0983353v0.013031h-0.026062v0.0260544h0.0387726v-0.0390854H118.3143005z M118.2752075,67.1374207
				l0.013031,0.013031v-0.013031H118.2752075z M118.3143005,67.1113663c0,0-0.0133514,0.0130234-0.0133514,0.0260544h0.026062
				v-0.0260544C118.3143005,67.1113663,118.3143005,67.1113663,118.3143005,67.1113663z M118.3270111,67.1504517v0.013031h0.0260544
				C118.3530655,67.1634827,118.3403549,67.1634827,118.3270111,67.1504517z M118.2882385,67.1113663v0.0260544h-0.013031
				l0.013031,0.013031h0.0127106v-0.013031c0-0.013031,0.0133514-0.0260544,0.0133514-0.0260544H118.2882385z
				 M118.3143005,67.0983353v0.013031c0,0,0,0,0.0127106,0v-0.013031H118.3143005z M118.3270111,67.1504517v0.013031h0.0260544
				C118.3530655,67.1634827,118.3403549,67.1634827,118.3270111,67.1504517z M118.2882385,67.1113663v0.0260544h-0.013031
				l0.013031,0.013031h0.0127106v-0.013031c0-0.013031,0.0133514-0.0260544,0.0133514-0.0260544H118.2882385z
				 M118.3143005,67.0983353v0.013031c0,0,0,0,0.0127106,0v-0.013031H118.3143005z M96.7334213,48.1990242
				c-0.2084579-0.1433182-0.5726318-0.1433182-0.7810974-0.0390892c-0.2081375,0.1430016-0.2081375,0.3123741,0.039093,0.4425049
				c0.1954269,0.143158,0.5074844,0.143158,0.7420044,0C96.9415665,48.4983673,96.9415665,48.3029366,96.7334213,48.1990242z
				 M98.7767258,47.2097816c-0.2341995-0.1302872-0.5853424-0.1302872-0.780777-0.0390854
				c-0.0651398,0.0780144-0.1433182,0.1040726-0.1433182,0.1690559c0,0.0390892-0.0260544,0.0390892-0.0260544,0.0781746v0.0260582
				c0.0260544,0.0651436,0.0651474,0.143158,0.1693726,0.1692162c0.1954346,0.143158,0.5465775,0.143158,0.742012,0.0389252
				c0.038765,0,0.038765-0.0389252,0.064827-0.0389252c0.0394058-0.0260582,0.0394058-0.0260582,0.0781708-0.0649872v-0.0390854
				h0.026062C98.9070206,47.4179268,98.8809586,47.3138542,98.7767258,47.2097816z M99.2669525,68.1612854v0.0156326
				c0,0.1092529,0,0.187233-0.0156326,0.2497711c0,0.0312729,0,0.0781708-0.0156326,0.093811
				c0,0.0312653,0,0.0312653-0.0312729,0.0468979v0.0156403c-0.0156326-0.0156403-0.0156326-0.0156403-0.0156326-0.0156403
				c-0.0156326-0.0468979-0.0469055-0.0781708-0.1094437-0.1250763l-0.0156326-0.0156326
				c0-0.0625381-0.0469055-0.1092529-0.0934296-0.1405182c-0.0312653-0.0310822-0.0472794-0.0623474-0.0625381-0.0623474
				c-0.0312653-0.0312729-0.0312653-0.0312729-0.0312653-0.0312729c-0.0156403-0.0156326-0.0156403-0.0156326-0.0156403-0.0156326
				c-0.0156326-0.0156326-0.0156326-0.0156326-0.0156326-0.0156326c-0.0312653-0.0312729-0.0312653-0.0312729-0.0312653-0.0312729
				c-0.0156403,0-0.0156403-0.0156326-0.0312729-0.0156326c-0.0156326-0.0156326-0.0469055,0-0.0625381,0H98.595047
				c-0.0152512,0-0.0152512,0-0.0152512,0.0156326l-0.0312729,0.0312729h-0.0160141v0.0156326c0,0,0,0,0,0.0156326h-0.0152512
				c0,0,0,0,0-0.0156326c-0.0160217-0.0625381-0.1407166-0.2812347-0.2188873-0.3435822
				c-0.1563492-0.0781708-0.4686584-0.0469055-0.4686584-0.0469055c-0.0934219-0.218689-0.1094437-0.3748474-0.0934219-0.4999237
				c0-0.2497711,0.0934219-0.3279495,0.0934219-0.3279495c0.0312729,0.1250839,0.1563492,0.2497787,0.2501526,0.3279495
				c0.0934296,0.0625381,0.1246948,0.093811,0.1716003,0.1407089h0.0156326
				c0.0312729,0.0156403,0.0469055,0.0156403,0.0469055,0.0156403l0.0312729-0.0625381l0.0312653-0.0156403l0.0156403-0.0156326
				v-0.0312729h0.0156326l0.0934219,0.093811l0.1094437,0.0156326l0.0469055,0.2654114
				c0.1250763,0.0781708,0.2188873,0.0938034,0.3126907,0.0938034h0.0152588
				c0.0938034-0.0156326,0.1563416-0.0625381,0.1563416-0.0625381S99.2356873,67.8489685,99.2669525,68.1612854z
				 M88.8302612,56.4841881v0.0156326c0,0.1092529,0,0.1872368-0.0156326,0.2497749c0,0.0312691,0,0.0781708-0.0156403,0.0938072
				c0,0.0312691,0,0.0312691-0.0312653,0.0469055v0.0156326c-0.0156403-0.0156326-0.0156403-0.0156326-0.0156403-0.0156326
				c-0.0156326-0.0469055-0.0468979-0.0781746-0.109436-0.1250801l-0.0156403-0.0156326
				c0-0.0625381-0.0468979-0.1092529-0.0934219-0.140522c-0.0312729-0.0310783-0.047287-0.0623474-0.0625381-0.0623474
				c-0.0312729-0.0312691-0.0312729-0.0312691-0.0312729-0.0312691c-0.0156326-0.0156364-0.0156326-0.0156364-0.0156326-0.0156364
				c-0.0156326-0.0156326-0.0156326-0.0156326-0.0156326-0.0156326c-0.0312729-0.0312691-0.0312729-0.0312691-0.0312729-0.0312691
				c-0.0156326,0-0.0156326-0.0156364-0.0312653-0.0156364c-0.0156403-0.0156326-0.0469055,0-0.0625381,0h-0.1250839
				c-0.0152512,0-0.0152512,0-0.0152512,0.0156364l-0.0312653,0.0312691h-0.0160217v0.0156326c0,0,0,0,0,0.0156364h-0.0152512
				c0,0,0,0,0-0.0156364c-0.0160141-0.0625381-0.1407089-0.2812309-0.2188873-0.3435783
				c-0.1563416-0.0781746-0.4686508-0.0469055-0.4686508-0.0469055c-0.0934296-0.2186928-0.1094437-0.3748474-0.0934296-0.4999275
				c0-0.2497711,0.0934296-0.3279457,0.0934296-0.3279457c0.0312653,0.1250801,0.1563416,0.2497749,0.2501526,0.3279457
				c0.0934219,0.062542,0.1246948,0.093811,0.1716003,0.1407127h0.0156326
				c0.0312653,0.0156364,0.0469055,0.0156364,0.0469055,0.0156364l0.0312653-0.0625381l0.0312729-0.0156364l0.0156326-0.0156326
				v-0.0312691h0.0156326l0.0934296,0.0938072l0.1094437,0.0156326l0.0469055,0.2654076
				c0.1250763,0.0781746,0.2188797,0.0938072,0.3126907,0.0938072h0.0152512
				c0.093811-0.0156326,0.1563492-0.0625381,0.1563492-0.0625381S88.7989883,56.171875,88.8302612,56.4841881z
				 M76.5373917,54.9559975c0,0.0156364,0,0.0156364,0,0.0469055c0.0156326,0.2186928-0.0308914,0.3435783-0.0621567,0.4061165
				c0,0.0156364,0,0.0312729,0,0.0312729s0,0-0.0312729-0.0156364c0-0.0156364,0-0.0156364,0-0.0156364H76.427948v-0.0312691
				c0-0.0156326,0-0.0156326-0.0152512-0.0312691c0,0,0,0,0-0.0156326l-0.0156403-0.0312691c0,0,0-0.0156364-0.0312653-0.0156364
				c0-0.0156326-0.0156326-0.0156326-0.0156326-0.0156326c-0.0156403-0.0467148-0.0469055-0.0623474-0.0625381-0.0936165
				c0-0.0156364-0.0156403-0.0156364-0.0156403-0.0156364c0-0.0156326,0-0.0156326,0-0.0156326s0,0-0.0312653,0v-0.0310822
				c0-0.0156326,0-0.0156326-0.0156403-0.0156326c-0.0625381-0.0625381-0.1250763-0.0938072-0.1876144-0.1407127h-0.0152512
				c-0.0156326-0.0156326-0.0469055-0.0156326-0.0469055-0.0156326c-0.0156326,0-0.0156326,0-0.0312653,0.0156326
				c-0.0469055,0-0.0625381,0.0156364-0.0781784,0.0469055l-0.0312653,0.0312691h-0.0156326
				c-0.0156403-0.0156364-0.0469055,0-0.0469055,0s-0.0156326-0.0625381-0.046524-0.1250763l-0.0312653-0.0156364
				c0-0.0312691-0.0160217-0.0779839-0.0312729-0.0936165c0,0-0.0312729,0-0.0312729-0.0312691
				c-0.0156326-0.0310783-0.0312653-0.0779839-0.0781708-0.0936165c-0.1407089-0.0781746-0.4686584-0.0469055-0.4686584-0.0469055
				c-0.0781708-0.2030602-0.0938034-0.3592148-0.0781708-0.4842911c0-0.2497749,0.0781708-0.3279457,0.0781708-0.3279457
				c0.0156403,0.0469017,0.0469055,0.0781708,0.1094437,0.1250763c0,0.0156364,0.0156326,0.0156364,0.0312729,0.0310783
				c0,0.0312691,0,0.0312691,0.0308838,0.0469055c0.0160141,0.0156326,0.0312729,0.046711,0.047287,0.0623474l0.0312653,0.0156326
				c0.0621643,0.0625381,0.1247025,0.1094437,0.1559677,0.1250801c0,0.0156326,0,0.0156326,0.0312729,0.0156326
				c0.0156326,0,0.0156326,0.0312691,0.0312653,0.0312691c0.0156326,0.0156364,0.0156326,0.0156364,0.0156326,0.0156364V54.268837
				l0.0312729-0.0312691l0.0625381-0.0781746l0.0777893,0.0781746h0.0156403v0.0312691h0.1250763l0.0156326,0.1248856
				l0.0312653,0.0469055v0.0623474h0.0156403c0.0625381,0.0469055,0.0934219,0.0625381,0.1407089,0.0625381
				c0.0152512,0.0312691,0.046524,0.0312691,0.0621567,0.0312691c0.0469055,0,0.0781708,0.0156364,0.1250763,0.0156364
				c0.0312729,0,0.0781784-0.0156364,0.093811-0.0156364c0.0312653,0,0.0312653,0,0.0312653,0h0.0308914
				c0.0160141,0.0312691,0.0625381,0.1407127,0.0785522,0.3123131
				C76.5065002,54.9090958,76.5373917,54.9403648,76.5373917,54.9559975z"/>
		</g>
	</g>
</g>
</svg>
