<?xml version="1.0" encoding="utf-8"?>
<!-- Generator: Adobe Illustrator 27.6.1, SVG Export Plug-In . SVG Version: 6.00 Build 0)  -->
<svg version="1.1" id="Layer_1" xmlns="http://www.w3.org/2000/svg" xmlns:xlink="http://www.w3.org/1999/xlink" x="0px" y="0px"
	 viewBox="0 0 172.91 90" style="enable-background:new 0 0 172.91 90;" xml:space="preserve">
<style type="text/css">
	.st0{fill:#888888;}
	.st1{fill:#BABABA;}
	.st2{fill:#F79420;}
	.st3{fill:#9697CA;}
	.st4{fill:#72C6EF;}
	.st5{fill:#333366;}
	.st6{fill:#FFFFFF;}
	.st7{fill:#3751A0;}
</style>
<g>
	<path class="st0" d="M125.45,57.42v0.01l-16.37,9.45c0.35-0.2,0.7-0.46,1.02-0.75c0.32-0.32,0.61-0.64,0.9-0.99
		c0.55-0.69,1.04-1.53,1.36-2.37c0.17-0.45,0.31-0.92,0.4-1.39c0.08-0.39,0.12-0.79,0.12-1.16c0-0.15,0-0.29-0.03-0.41v-0.08
		c0-0.09-0.03-0.15-0.03-0.27c0-0.02-0.03-0.05-0.03-0.08c-0.03-0.21-0.08-0.41-0.17-0.55c0-0.06-0.03-0.12-0.03-0.15
		c-0.03-0.03-0.03-0.06-0.06-0.08c-0.06-0.12-0.11-0.21-0.17-0.32l0.11-0.09c-0.03-0.03-0.03-0.03-0.05-0.06l1.33-0.78l2.17-1.28
		v-4.15l8.59,4.96L125.45,57.42z"/>
	<path class="st0" d="M109.08,66.88L76.74,85.55l-0.26,0.15L69.04,90h-5.07L47.46,79.86v-2.72l2.2-1.28l14,8.09l4.52-0.76l2.34-0.92
		l1.57,1.15l0.03,0.03h0.05l0.21,0.15c0.08,0.06,0.2,0.11,0.32,0.14c0.05,0.03,0.14,0.06,0.23,0.06c0.05,0.03,0.14,0.03,0.23,0.03
		h0.23c0.09,0,0.17,0,0.26-0.03c0.17,0,0.35-0.03,0.52-0.11c0.29-0.06,0.61-0.21,0.93-0.38c0.09-0.05,0.18-0.1,0.26-0.16
		c0.26-0.18,0.52-0.38,0.75-0.59c0.32-0.29,0.61-0.61,0.87-0.96h0.03c0.03-0.03,0.06-0.09,0.09-0.12c0.26-0.32,0.49-0.69,0.72-1.04
		c0.21-0.38,0.41-0.78,0.55-1.22v-0.03h0.03c0.23-0.55,0.38-1.1,0.44-1.68v-0.03l1.31-0.76l2.6-1.49l15.28-8.81l4.82-2.78
		c0,0.43,0.09,0.89,0.32,1.33c0.03,0.06,0.06,0.12,0.12,0.2c0.05,0.07,0.12,0.16,0.23,0.29c0.15,0.15,0.29,0.29,0.46,0.38
		c0.03,0.03,0.06,0.03,0.18,0.11c0,0,2.14,1.19,2.2,1.22c0.06,0.03,0.12,0.06,0.17,0.06c0.03,0.03,0.06,0.03,0.09,0.03
		c0.09,0.06,0.18,0.08,0.29,0.08c0.03,0.03,0.12,0.03,0.17,0.03C107.66,67.46,108.36,67.29,109.08,66.88z"/>
	<path d="M51.03,69.03c0-0.01,0.01-0.02,0.02-0.03h-0.01C51.04,69.01,51.03,69.02,51.03,69.03z M125.25,43.7l-3.85-2.23l-1.42-0.81
		l-2.73-1.59l-1.1-0.64l-1.45-0.84l-3.47-2l-2.2-1.27l-2.18,1.24l-9.64,5.56l-16.17,9.33l-3.48,2L66.7,46.2l-0.03-0.03l-2.12,1.24
		v0.47l-1.13,0.66l-0.66,0.41l-2.26,1.3v1.19l-7.53,4.34l-4.38,11.04l-0.03,3.45l-1.1,0.96v3.36l1.36,0.78l0.84,0.49l14,8.09
		l4.52-0.76l2.34-0.92l1.57,1.15l0.03,0.03h0.05l0.21,0.15c0.08,0.06,0.2,0.11,0.32,0.14c0.05,0.03,0.14,0.06,0.23,0.06
		c0.05,0.03,0.14,0.03,0.23,0.03h0.23c0.09,0,0.17,0,0.26-0.03c0.17,0,0.35-0.03,0.52-0.11c0.29-0.06,0.61-0.21,0.93-0.38
		c0.09-0.05,0.18-0.1,0.26-0.16c0.26-0.18,0.52-0.38,0.75-0.59c0.32-0.29,0.61-0.61,0.87-0.96h0.03c0.03-0.03,0.06-0.09,0.09-0.12
		c0.26-0.32,0.49-0.69,0.72-1.04c0.21-0.38,0.41-0.78,0.55-1.22v-0.03h0.03c0.23-0.55,0.38-1.1,0.44-1.68v-0.03l1.31-0.76l2.6-1.49
		l15.28-8.81l4.82-2.78c0,0.43,0.09,0.89,0.32,1.33c0.03,0.06,0.06,0.12,0.12,0.2c0.05,0.07,0.12,0.16,0.23,0.29
		c0.15,0.15,0.29,0.29,0.46,0.38c0.03,0.03,0.06,0.03,0.18,0.11c0,0,2.14,1.19,2.2,1.22c0.06,0.03,0.12,0.06,0.17,0.06
		c0.03,0.03,0.06,0.03,0.09,0.03c0.09,0.06,0.18,0.08,0.29,0.08c0.03,0.03,0.12,0.03,0.17,0.03c0.58,0.09,1.28-0.08,2-0.49
		c0.35-0.2,0.7-0.46,1.02-0.75c0.32-0.32,0.61-0.64,0.9-0.99c0.55-0.69,1.04-1.53,1.36-2.37c0.17-0.45,0.31-0.92,0.4-1.39
		c0.08-0.39,0.12-0.79,0.12-1.16c0-0.15,0-0.29-0.03-0.41v-0.08c0-0.09-0.03-0.15-0.03-0.27c0-0.02-0.03-0.05-0.03-0.08
		c-0.03-0.21-0.08-0.41-0.17-0.55c0-0.06-0.03-0.12-0.03-0.15c-0.03-0.03-0.03-0.06-0.06-0.08c-0.06-0.12-0.11-0.21-0.17-0.32
		l0.11-0.09c-0.03-0.03-0.03-0.03-0.05-0.06l1.33-0.78l2.17-1.28v-4.49l5.5-3.18l3.8-2.2l0.23-0.15v-2.23L125.25,43.7z M51.39,68.8
		c0.02-0.01,0.03-0.01,0.05-0.01c0.01,0,0.01,0,0.02,0.01c0.01-0.01,0.02-0.01,0.03,0c0.02,0,0.03,0,0.05,0.01
		c0.01,0.01,0.01,0,0.01,0c0.04,0,0.07,0.02,0.11,0.04l1.28,0.75c0.06,0.02,0.11,0.06,0.15,0.11c0.01,0,0.02,0.01,0.03,0.03
		c0.01,0,0.02,0,0.01,0.01c0.12,0.11,0.2,0.25,0.24,0.4c0.02,0.08,0.03,0.16,0.03,0.24v0.24c0,0.04,0,0.07-0.01,0.1
		c0,0.01-0.01,0.03-0.02,0.04c0,0.02,0,0.03-0.01,0.04v0.01c-0.02,0.05-0.05,0.1-0.1,0.14c0,0.01-0.01,0.02-0.03,0.03h-0.01
		c-0.01,0.02-0.02,0.02-0.03,0.03h-0.01c-0.01,0.01-0.03,0.02-0.05,0.03c0,0,0,0-0.01,0.01c-0.09,0.03-0.19,0.04-0.3,0.01
		c-0.04-0.01-0.08-0.03-0.12-0.05h-0.01l-0.58-0.33l-0.01-0.01h-0.02v-0.01h-0.01l-0.54-0.31l-0.02-0.01H51.5l-0.07-0.05h-0.01
		c-0.06-0.04-0.12-0.09-0.17-0.14h-0.01v-0.01c0,0,0,0-0.01,0c-0.06-0.06-0.11-0.12-0.14-0.18c-0.01-0.01,0-0.01,0-0.01
		c-0.08-0.13-0.12-0.29-0.12-0.47v-0.23c0-0.03,0-0.07,0.01-0.1c-0.01-0.01,0-0.01,0-0.01c0-0.03,0.01-0.06,0.03-0.08
		c0-0.02,0.01-0.03,0.02-0.04c0-0.01,0.01-0.02,0.02-0.03c0,0,0,0,0-0.01c0.03-0.05,0.08-0.08,0.12-0.11
		c0.03-0.02,0.05-0.03,0.08-0.04c0.03-0.02,0.06-0.03,0.09-0.03C51.35,68.8,51.37,68.8,51.39,68.8z"/>
	<path d="M52.94,69.6l-1.27-0.75c-0.32-0.17-0.7,0.06-0.7,0.41v0.23c0,0.35,0.17,0.64,0.46,0.81l1.27,0.72
		c0.32,0.17,0.7-0.03,0.7-0.41v-0.23C53.4,70.07,53.23,69.75,52.94,69.6z M64.06,76.01l-1.27-0.75c-0.29-0.17-0.67,0.03-0.67,0.41
		v0.23c0,0.32,0.17,0.64,0.43,0.81l1.3,0.72c0.06,0.03,0.14,0.06,0.2,0.06c0.23,0,0.46-0.2,0.46-0.46v-0.23
		C64.53,76.47,64.35,76.15,64.06,76.01z M52.94,69.6l-1.27-0.75c-0.32-0.17-0.7,0.06-0.7,0.41v0.23c0,0.35,0.17,0.64,0.46,0.81
		l1.27,0.72c0.32,0.17,0.7-0.03,0.7-0.41v-0.23C53.4,70.07,53.23,69.75,52.94,69.6z M64.06,76.01l-1.27-0.75
		c-0.29-0.17-0.67,0.03-0.67,0.41v0.23c0,0.32,0.17,0.64,0.43,0.81l1.3,0.72c0.06,0.03,0.14,0.06,0.2,0.06
		c0.23,0,0.46-0.2,0.46-0.46v-0.23C64.53,76.47,64.35,76.15,64.06,76.01z M52.94,69.6l-1.27-0.75c-0.32-0.17-0.7,0.06-0.7,0.41v0.23
		c0,0.35,0.17,0.64,0.46,0.81l1.27,0.72c0.32,0.17,0.7-0.03,0.7-0.41v-0.23C53.4,70.07,53.23,69.75,52.94,69.6z M64.06,76.01
		l-1.27-0.75c-0.29-0.17-0.67,0.03-0.67,0.41v0.23c0,0.32,0.17,0.64,0.43,0.81l1.3,0.72c0.06,0.03,0.14,0.06,0.2,0.06
		c0.23,0,0.46-0.2,0.46-0.46v-0.23C64.53,76.47,64.35,76.15,64.06,76.01z M52.94,69.6l-1.27-0.75c-0.32-0.17-0.7,0.06-0.7,0.41v0.23
		c0,0.35,0.17,0.64,0.46,0.81l1.27,0.72c0.32,0.17,0.7-0.03,0.7-0.41v-0.23C53.4,70.07,53.23,69.75,52.94,69.6z M64.06,76.01
		l-1.27-0.75c-0.29-0.17-0.67,0.03-0.67,0.41v0.23c0,0.32,0.17,0.64,0.43,0.81l1.3,0.72c0.06,0.03,0.14,0.06,0.2,0.06
		c0.23,0,0.46-0.2,0.46-0.46v-0.23C64.53,76.47,64.35,76.15,64.06,76.01z M52.94,69.6l-1.27-0.75c-0.32-0.17-0.7,0.06-0.7,0.41v0.23
		c0,0.35,0.17,0.64,0.46,0.81l1.27,0.72c0.32,0.17,0.7-0.03,0.7-0.41v-0.23C53.4,70.07,53.23,69.75,52.94,69.6z M64.06,76.01
		l-1.27-0.75c-0.29-0.17-0.67,0.03-0.67,0.41v0.23c0,0.32,0.17,0.64,0.43,0.81l1.3,0.72c0.06,0.03,0.14,0.06,0.2,0.06
		c0.23,0,0.46-0.2,0.46-0.46v-0.23C64.53,76.47,64.35,76.15,64.06,76.01z M64.06,76.01l-1.27-0.75c-0.29-0.17-0.67,0.03-0.67,0.41
		v0.23c0,0.32,0.17,0.64,0.43,0.81l1.3,0.72c0.06,0.03,0.14,0.06,0.2,0.06c0.23,0,0.46-0.2,0.46-0.46v-0.23
		C64.53,76.47,64.35,76.15,64.06,76.01z M52.94,69.6l-1.27-0.75c-0.32-0.17-0.7,0.06-0.7,0.41v0.23c0,0.35,0.17,0.64,0.46,0.81
		l1.27,0.72c0.32,0.17,0.7-0.03,0.7-0.41v-0.23C53.4,70.07,53.23,69.75,52.94,69.6z M52.94,69.6l-1.27-0.75
		c-0.32-0.17-0.7,0.06-0.7,0.41v0.23c0,0.35,0.17,0.64,0.46,0.81l1.27,0.72c0.32,0.17,0.7-0.03,0.7-0.41v-0.23
		C53.4,70.07,53.23,69.75,52.94,69.6z M64.06,76.01l-1.27-0.75c-0.29-0.17-0.67,0.03-0.67,0.41v0.23c0,0.32,0.17,0.64,0.43,0.81
		l1.3,0.72c0.06,0.03,0.14,0.06,0.2,0.06c0.23,0,0.46-0.2,0.46-0.46v-0.23C64.53,76.47,64.35,76.15,64.06,76.01z M64.06,76.01
		l-1.27-0.75c-0.29-0.17-0.67,0.03-0.67,0.41v0.23c0,0.32,0.17,0.64,0.43,0.81l1.3,0.72c0.06,0.03,0.14,0.06,0.2,0.06
		c0.23,0,0.46-0.2,0.46-0.46v-0.23C64.53,76.47,64.35,76.15,64.06,76.01z M52.94,69.6l-1.27-0.75c-0.32-0.17-0.7,0.06-0.7,0.41v0.23
		c0,0.35,0.17,0.64,0.46,0.81l1.27,0.72c0.32,0.17,0.7-0.03,0.7-0.41v-0.23C53.4,70.07,53.23,69.75,52.94,69.6z M52.94,69.6
		l-1.27-0.75c-0.32-0.17-0.7,0.06-0.7,0.41v0.23c0,0.35,0.17,0.64,0.46,0.81l1.27,0.72c0.32,0.17,0.7-0.03,0.7-0.41v-0.23
		C53.4,70.07,53.23,69.75,52.94,69.6z M64.06,76.01l-1.27-0.75c-0.29-0.17-0.67,0.03-0.67,0.41v0.23c0,0.32,0.17,0.64,0.43,0.81
		l1.3,0.72c0.06,0.03,0.14,0.06,0.2,0.06c0.23,0,0.46-0.2,0.46-0.46v-0.23C64.53,76.47,64.35,76.15,64.06,76.01z"/>
	<polygon class="st1" points="123.08,44.95 80.81,69.37 80.81,64.91 80.84,64.91 119.22,42.72 	"/>
	<polygon class="st1" points="117.8,41.91 101.2,51.47 80.87,63.17 80.87,58.8 97.73,49.06 113.98,39.68 	"/>
	<polygon class="st1" points="80.87,57.12 80.87,54.34 80.84,54.34 80.84,64.91 80.81,64.91 80.81,54.34 79.76,53.73 109.06,36.84 
		112.53,38.87 	"/>
	<polygon class="st0" points="119.22,42.72 80.84,64.91 80.84,63.2 80.87,63.2 80.87,63.17 101.2,51.47 117.8,41.91 	"/>
	<path class="st0" d="M72.81,80.51c0,0.12,0,0.2,0.03,0.29c0.03,0.09,0.03,0.17,0.09,0.23c0,0.03,0.03,0.06,0.03,0.09
		c0.03,0.09,0.09,0.17,0.14,0.23v0.03h-0.03l0.03,0.03h0.03c0.03,0.09,0.09,0.12,0.14,0.14c0,0,0.03,0.06,0.06,0.06
		c0,0.03,0,0.06,0.03,0.06l0.03,0.03l0.06,0.03c0.03,0,0.06,0.03,0.09,0.03c0,0.03,0.03,0.03,0.06,0.03c0,0,0,0,0.03,0h0.03
		c0.06,0.03,0.12,0.06,0.2,0.06c0.03,0,0.06,0.03,0.09,0.03h0.12c0.32,0,0.67-0.09,1.04-0.32c0.29-0.14,0.55-0.38,0.78-0.61
		c0.12-0.12,0.26-0.26,0.35-0.41h0.03c0.35-0.41,0.61-0.93,0.81-1.45c0.09-0.17,0.14-0.35,0.17-0.55c0.09-0.32,0.14-0.64,0.14-0.96
		c0-0.2-0.03-0.38-0.06-0.52c-0.03-0.12-0.03-0.2-0.09-0.26c0-0.03,0-0.06-0.03-0.09c-0.03-0.12-0.09-0.2-0.14-0.29l-0.03-0.03
		c0-0.03-0.03-0.06-0.06-0.03v-0.03c-0.06-0.09-0.09-0.12-0.14-0.12v-0.03h-0.03l-0.09-0.09l-0.09-0.03
		c-0.06-0.06-0.17-0.09-0.26-0.06c-0.03-0.03-0.03-0.03-0.06-0.03l-0.06-0.03h-0.12c-0.23,0-0.52,0.06-0.81,0.23
		c-0.09,0-0.14,0.03-0.23,0.09c-0.84,0.49-1.59,1.42-2,2.43c-0.2,0.49-0.32,1.04-0.32,1.54c0,0.09,0,0.17,0.03,0.23V80.51z
		 M74.83,77.49c0.2-0.49,0.58-0.96,0.99-1.22c0.06-0.03,0.09-0.03,0.12-0.03c0.14-0.09,0.29-0.12,0.41-0.12h0.09
		c0.03,0,0.03,0,0.03,0.03c0.06-0.03,0.12,0,0.14,0.03h0.03l0.06,0.06c0.03,0,0.06,0.03,0.09,0.06v0.03c0.03,0,0.03,0,0.03,0v0.03
		c0.03,0.03,0.06,0.09,0.09,0.14v0.03c0.03,0.03,0.03,0.09,0.06,0.14c0,0.06,0.03,0.14,0.03,0.26c0,0.15-0.03,0.32-0.09,0.46
		c0,0.12-0.03,0.2-0.09,0.29c-0.09,0.26-0.23,0.52-0.41,0.72c-0.06,0.06-0.12,0.15-0.17,0.2c-0.12,0.12-0.26,0.23-0.41,0.29
		c-0.17,0.12-0.35,0.17-0.52,0.17h-0.06l-0.03-0.03c-0.06,0-0.09,0-0.12-0.03c-0.03,0-0.03,0-0.03,0h-0.03L75.01,79h-0.03
		l-0.03-0.03c0,0,0,0,0-0.03c-0.03,0-0.03-0.03-0.03-0.03c-0.03,0-0.06-0.03-0.09-0.06l-0.03-0.03h0.03
		c-0.03-0.03-0.06-0.09-0.09-0.12c0-0.03,0-0.03,0-0.06c-0.03-0.03-0.03-0.06-0.06-0.12v-0.15c-0.03-0.03-0.03-0.09-0.03-0.12
		C74.66,78.01,74.72,77.75,74.83,77.49z"/>
	<polygon class="st0" points="113.98,39.68 97.73,49.06 80.87,58.8 80.87,63.2 80.84,63.2 80.84,54.34 80.87,54.34 80.87,57.12 
		112.53,38.87 	"/>
	<path class="st0" d="M107.14,65.03c0,0,0,0,0.03,0c0,0,0,0.03,0.03,0.03c0.03,0.06,0.06,0.06,0.12,0.12l0.06,0.03l0.09,0.09
		c0.06,0.03,0.12,0.03,0.17,0.06c0.09,0.03,0.17,0.09,0.26,0.09h0.03c0.03,0.03,0.09,0.03,0.12,0.03c0.29,0,0.58-0.12,0.93-0.29
		c0.03,0,0.09-0.03,0.12-0.06c0.2-0.12,0.41-0.26,0.58-0.41c0.03,0,0.06-0.06,0.09-0.12c0.03,0,0.03-0.03,0.03-0.03
		c0.03,0,0.06-0.03,0.09-0.09h0.03c0.14-0.09,0.26-0.26,0.35-0.41h0.03c0.03-0.03,0.06-0.03,0.06-0.09
		c0.09-0.09,0.14-0.14,0.17-0.26c0.06-0.06,0.09-0.15,0.14-0.23c0.12-0.17,0.23-0.38,0.32-0.64c0.06-0.06,0.09-0.12,0.12-0.2
		c0.09-0.17,0.14-0.38,0.17-0.58c0.09-0.32,0.14-0.61,0.14-0.93c0-0.2-0.03-0.38-0.06-0.55c-0.03-0.12-0.06-0.17-0.09-0.29
		c-0.03-0.09-0.09-0.23-0.17-0.29c0-0.06,0-0.06,0-0.06h-0.03c-0.03-0.03-0.09-0.09-0.12-0.09l-0.03-0.03
		c0-0.06-0.03-0.06-0.03-0.06c-0.06-0.06-0.12-0.09-0.17-0.12l-0.12-0.09h-0.03c-0.03-0.03-0.03-0.03-0.06-0.03s-0.03,0-0.06,0
		l-0.06-0.03h-0.06V59.5h-0.09c0,0,0,0-0.03,0c0,0,0,0-0.03,0c0,0,0,0-0.03,0l-0.03-0.03h-0.06c-0.03,0-0.09,0-0.12,0.03
		c-0.09,0.03-0.17,0.03-0.23,0.03c-0.06,0-0.14,0.03-0.2,0.06c-0.06,0.03-0.09,0.06-0.12,0.06c-0.12,0.03-0.23,0.09-0.35,0.14h-0.03
		v0.03c-0.03-0.03-0.03,0-0.06,0.03c-0.03,0-0.06,0.06-0.06,0.06c-0.03,0-0.03,0.03-0.03,0.03c-0.06,0-0.12,0.03-0.14,0.09
		c-0.06,0.03-0.09,0.06-0.14,0.12h-0.03c-0.12,0.09-0.2,0.15-0.29,0.26c-0.03,0-0.03,0.03-0.06,0.06l-0.09,0.09v0.03
		c-0.09,0.09-0.14,0.17-0.23,0.26c-0.17,0.2-0.32,0.43-0.46,0.67c-0.12,0.23-0.23,0.49-0.35,0.75c-0.03,0.06-0.06,0.12-0.06,0.2
		c-0.17,0.43-0.26,0.87-0.26,1.3v0.03c0,0.12,0,0.23,0.06,0.35c-0.03,0.09,0,0.17,0.03,0.26c0,0.03,0,0.06,0.03,0.09v0.03
		c0,0.03,0,0.06,0.03,0.09c0.03,0.06,0.06,0.14,0.09,0.2v0.03c0,0.03,0,0.03,0.03,0.06c0,0,0.03,0,0.03,0.03c0,0,0,0,0.03,0v0.03
		h0.03V65C107.11,65,107.14,65,107.14,65.03z M108.88,61.12c0-0.06,0-0.09,0.03-0.12c0.06-0.12,0.09-0.23,0.14-0.35
		c0.09-0.12,0.14-0.23,0.23-0.32c0.03-0.03,0.06-0.09,0.12-0.12v-0.03c0.03-0.03,0.03-0.03,0.06-0.06c0.03-0.06,0.09-0.09,0.14-0.12
		c0.03-0.03,0.06-0.06,0.09-0.06c0.03-0.06,0.06-0.06,0.09-0.09c0.03,0,0.03-0.03,0.03-0.03c0.12-0.06,0.23-0.12,0.32-0.12
		c0.06-0.03,0.14-0.03,0.17-0.03h0.03c0.03,0,0.03,0,0.03,0c0.03,0,0.03,0,0.03,0h0.06v0.03h0.03c0.03,0,0.03,0,0.03,0
		c0.03,0,0.03,0,0.03,0.03l0.06,0.03c0.03,0,0.06,0.03,0.09,0.06c0,0,0.03,0,0.03,0.03c0.03,0.03,0.06,0.03,0.06,0.06h0.03
		c0.03,0.06,0.06,0.12,0.06,0.17c0.03,0.03,0.03,0.06,0.06,0.12c0,0.09,0.03,0.17,0.03,0.26c0,0.15-0.03,0.29-0.09,0.46
		c0,0.09-0.03,0.17-0.06,0.26c-0.03,0.03-0.03,0.06-0.06,0.09c-0.06,0.12-0.12,0.2-0.17,0.32c-0.03,0.03-0.03,0.09-0.06,0.09
		c0,0.06-0.03,0.09-0.09,0.12c0,0.03,0,0.06-0.03,0.06c-0.06,0.09-0.12,0.14-0.17,0.2c-0.03,0.03-0.03,0.06-0.06,0.06
		c-0.03,0.03-0.03,0.03-0.06,0.03c-0.09,0.09-0.17,0.14-0.26,0.2c-0.03,0.03-0.06,0.03-0.06,0.03c-0.17,0.09-0.29,0.12-0.43,0.12
		c-0.03,0-0.06,0-0.06,0h-0.03c-0.03,0-0.06-0.03-0.12-0.03c-0.03,0-0.06-0.03-0.09-0.03l-0.06-0.06c-0.03-0.03-0.03-0.03-0.06-0.06
		c0-0.03-0.03-0.03-0.03-0.03v-0.03h-0.03v-0.03c-0.03,0-0.03,0-0.03-0.03c0-0.03-0.03-0.06-0.03-0.09
		c-0.03-0.03-0.03-0.03-0.03-0.06c0-0.03,0-0.03,0-0.06c-0.03-0.06-0.06-0.17-0.06-0.29C108.73,61.52,108.79,61.32,108.88,61.12z"/>
	<path d="M68.58,79.17l-1.59,0.64l-2.49,0.98l-1.51-0.87l-2.06-1.19c-0.09-0.06-0.2-0.12-0.29-0.17l-0.14-0.06l-10.84-6.26v1.1
		l14.46,8.31l3.51-0.55l0.96-0.38h0V79.17z"/>
	<path d="M78.57,59.38l-0.55-0.32l-0.52,0.32l-3.22,1.88l-1.13-0.64l-0.43-0.26l-10.75-6.23l-0.87-0.52h-0.03l-6.34,3.68l-0.38,0.9
		v0.03l-3.04,7.68l-0.61,1.54v2.9l11.33,6.52l0.06,0.03l1.56,0.9l0.06,0.03l0.12,0.06l0.06,0.06l0.84,0.46l3.91-1.56l0.03-0.03
		c0,0-0.03-0.03,0-0.06c0,0,0,0,0-0.03c-0.03-0.03,0-0.09,0-0.14c-0.03-0.03,0-0.09,0-0.12c0.09-0.49,0.26-1.13,0.58-1.77
		c0.09-0.17,0.17-0.35,0.29-0.52c0.29-0.49,0.7-0.96,1.19-1.39c0.29-0.23,0.61-0.46,0.99-0.7c2.35-1.42,5.79-3.16,6.95-3.74h0v-8.89
		l-0.06-0.06H78.57z"/>
	<path d="M75.36,72.51c-0.09,0.03-0.14,0.06-0.23,0.12c-0.09,0.06-0.17,0.09-0.26,0.14c-0.06,0.03-1.54,0.78-2.84,1.68
		c-1.3,0.9-1.48,2.69-1.48,4.23v1.19c0-0.55,0.41-1.27,0.7-1.77c0.55-1.04,1.39-1.97,2.38-2.64c0.52-0.35,1.04-0.67,1.59-0.99
		c0.49-0.29,1.07-0.58,1.68-0.61c0.43-0.03,0.84,0.2,1.19,0.49c0,0,0.06,0.09,0.09,0.09l0.49-0.32h0v-3.36
		c-0.23,0.12-0.52,0.26-0.81,0.43C77.1,71.58,76.23,72.05,75.36,72.51z"/>
	<polygon points="61.97,51.94 62,51.94 62.2,52.08 62.96,52.52 62.99,52.52 63.13,52.6 65.48,53.97 65.51,53.97 65.51,54.46 
		65.48,54.46 65.48,54.46 65.48,54.46 65.3,54.34 62.58,52.78 62,52.43 61.97,52.43 	"/>
	<rect x="65.48" y="53.97" width="0.03" height="0.49"/>
	<polygon points="65.48,54.46 65.48,54.46 65.48,54.46 	"/>
	<rect x="65.23" y="54.21" transform="matrix(0.7071 -0.7071 0.7071 0.7071 -19.1564 62.1779)" width="0.49" height="0"/>
	<polygon points="62.2,52.08 62,51.94 62,51.97 	"/>
	<polygon points="66.2,54.4 69.33,56.2 69.33,56.17 66.2,54.37 	"/>
	<path class="st2" d="M65.51,53.97v0.49l-2.93-1.68L62,52.43v-0.49l0.99,0.58l0.14,0.09L65.51,53.97z M76.37,57.88l-0.17,0.12
		l-1.16,0.67v0.49l1.45-0.81v-0.52L76.37,57.88z M70.08,56.63v0.49l3.51,2.03v-0.49L70.08,56.63z M72.29,54.4h-0.03l-1.13,0.67
		l-0.43,0.26l3.62,2.09l0.43-0.26l0.17-0.09l0.93-0.55L72.29,54.4z M64.23,49.77l-1.54,0.9l0.43,0.26l1.33,0.75l0.12,0.09l1.59,0.93
		l0.43-0.26l1.1-0.64L64.23,49.77z"/>
	<polygon class="st3" points="68,66.08 67.79,66.71 65.27,73.93 51.31,65.9 54.35,58.23 54.38,58.23 	"/>
	<polygon class="st4" points="78.57,59.38 68.26,65.35 68,66.08 54.38,58.23 54.35,58.23 54.35,58.2 54.73,57.3 61.07,53.62 
		61.1,53.62 61.97,54.14 72.72,60.37 73.15,60.63 74.28,61.27 77.5,59.38 78.02,59.07 	"/>
	<path class="st1" d="M110.85,60.1c0-0.06-0.03-0.12-0.06-0.17h-0.03c0-0.03-0.03-0.03-0.06-0.06c0-0.03-0.03-0.03-0.03-0.03
		c-0.03-0.03-0.06-0.06-0.09-0.06l-0.06-0.03c0-0.03,0-0.03-0.03-0.03c0,0,0,0-0.03,0h-0.03V59.7h-0.06c0,0,0,0-0.03,0
		c0,0,0,0-0.03,0h-0.03c-0.03,0-0.12,0-0.17,0.03c-0.09,0-0.2,0.06-0.32,0.12c0,0,0,0.03-0.03,0.03c-0.03,0.03-0.06,0.03-0.09,0.09
		c-0.03,0-0.06,0.03-0.09,0.06c-0.06,0.03-0.12,0.06-0.14,0.12c-0.03,0.03-0.03,0.03-0.06,0.06v0.03c-0.06,0.03-0.09,0.09-0.12,0.12
		c-0.09,0.09-0.14,0.2-0.23,0.32c-0.06,0.12-0.09,0.23-0.14,0.35c-0.03,0.03-0.03,0.06-0.03,0.12c-0.09,0.2-0.14,0.41-0.14,0.61
		c0,0.12,0.03,0.23,0.06,0.29c0,0.03,0,0.03,0,0.06c0,0.03,0,0.03,0.03,0.06c0,0.03,0.03,0.06,0.03,0.09c0,0.03,0,0.03,0.03,0.03
		v0.03h0.03v0.03c0,0,0.03,0,0.03,0.03c0.03,0.03,0.03,0.03,0.06,0.06l0.06,0.06c0.03,0,0.06,0.03,0.09,0.03
		c0.06,0,0.09,0.03,0.12,0.03h0.03c0,0,0.03,0,0.06,0c0.14,0,0.26-0.03,0.43-0.12c0,0,0.03,0,0.06-0.03
		c0.09-0.06,0.17-0.12,0.26-0.2c0.03,0,0.03,0,0.06-0.03c0.03,0,0.03-0.03,0.06-0.06c0.06-0.06,0.12-0.12,0.17-0.2
		c0.03,0,0.03-0.03,0.03-0.06c0.06-0.03,0.09-0.06,0.09-0.12c0.03,0,0.03-0.06,0.06-0.09c0.06-0.12,0.12-0.2,0.17-0.32
		c0.03-0.03,0.03-0.06,0.06-0.09c0.03-0.09,0.06-0.17,0.06-0.26c0.06-0.17,0.09-0.32,0.09-0.46c0-0.09-0.03-0.17-0.03-0.26
		C110.88,60.16,110.88,60.13,110.85,60.1z"/>
	<path class="st1" d="M76.89,76.54v-0.03c-0.03-0.06-0.06-0.12-0.09-0.15v-0.03c0,0,0,0-0.03,0V76.3c-0.03-0.03-0.06-0.06-0.09-0.06
		l-0.06-0.06H76.6c-0.03-0.03-0.09-0.06-0.14-0.03c0-0.03,0-0.03-0.03-0.03h-0.09c-0.12,0-0.26,0.03-0.41,0.12
		c-0.03,0-0.06,0-0.12,0.03c-0.41,0.26-0.78,0.72-0.99,1.22c-0.12,0.26-0.17,0.52-0.17,0.78c0,0.03,0,0.09,0.03,0.12v0.14
		c0.03,0.06,0.03,0.09,0.06,0.12c0,0.03,0,0.03,0,0.06c0.03,0.03,0.06,0.09,0.09,0.12h-0.03l0.03,0.03
		c0.03,0.03,0.06,0.06,0.09,0.06c0,0,0,0.03,0.03,0.03c0,0.03,0,0.03,0,0.03L74.98,79h0.03l0.03,0.03h0.03c0,0,0,0,0.03,0
		c0.03,0.03,0.06,0.03,0.12,0.03l0.03,0.03h0.06c0.17,0,0.35-0.06,0.52-0.17c0.14-0.06,0.29-0.17,0.41-0.29
		c0.06-0.06,0.12-0.14,0.17-0.2c0.17-0.2,0.32-0.46,0.41-0.72c0.06-0.09,0.09-0.17,0.09-0.29c0.06-0.14,0.09-0.32,0.09-0.46
		c0-0.12-0.03-0.2-0.03-0.26C76.92,76.62,76.92,76.56,76.89,76.54z"/>
	<path class="st1" d="M64.49,80.79l-1.51-0.87l-2.06-1.19c-0.09-0.06-0.2-0.12-0.29-0.17l-0.14-0.06l-10.84-6.26v1.1l14.46,8.31
		l3.51-0.55l0.96-0.38v-1.56l-1.59,0.64L64.49,80.79z"/>
	<polygon class="st1" points="101.2,51.47 80.87,63.2 80.87,63.17 	"/>
	<polygon class="st5" points="77.41,62.69 77.41,67.84 69.97,71.67 71.42,65.96 	"/>
	<path class="st6" d="M52.93,69.61l-1.27-0.75c-0.32-0.17-0.7,0.06-0.7,0.41v0.23c0,0.35,0.17,0.64,0.46,0.81l1.27,0.72
		c0.32,0.17,0.7-0.03,0.7-0.41v-0.23C53.4,70.08,53.22,69.76,52.93,69.61z"/>
	<path class="st6" d="M64.06,76.01l-1.27-0.75c-0.29-0.17-0.67,0.03-0.67,0.41v0.23c0,0.32,0.17,0.64,0.43,0.81l1.3,0.72
		c0.29,0.17,0.67-0.06,0.67-0.41V76.8C64.52,76.48,64.35,76.16,64.06,76.01z"/>
	<polygon class="st6" points="66.2,54.86 69.33,56.66 69.33,56.17 66.2,54.37 	"/>
	<polygon class="st6" points="68.43,52.2 67.3,52.84 66.9,53.1 69.94,54.86 70.37,54.6 70.75,54.4 71.47,53.97 70.92,53.65 	"/>
	<path class="st7" d="M71.71,72.07c2.35-1.42,5.79-3.16,6.95-3.74v-8.89l-0.06-0.06h-0.03l-10.31,5.97L68,66.08l-0.2,0.64
		l-2.52,7.21L51.31,65.9l-0.61,1.54v2.9l11.33,6.52l0.06,0.03l1.56,0.9l0.06,0.03l0.12,0.06l0.06,0.06l0.84,0.46l3.91-1.56
		l0.03-0.03c0,0-0.03-0.03,0-0.06c0,0,0,0,0-0.03c-0.03-0.03,0-0.09,0-0.15c-0.03-0.03,0-0.09,0-0.12c0.09-0.49,0.26-1.13,0.58-1.77
		c0.09-0.17,0.17-0.35,0.29-0.52c0.29-0.49,0.7-0.96,1.19-1.39C71.01,72.54,71.33,72.31,71.71,72.07z M53.4,70.63
		c0,0.38-0.38,0.58-0.7,0.41l-1.27-0.72c-0.29-0.17-0.46-0.46-0.46-0.81v-0.23c0-0.35,0.38-0.58,0.7-0.41l1.27,0.75
		c0.29,0.14,0.46,0.46,0.46,0.78V70.63z M63.85,77.43l-1.3-0.72c-0.26-0.17-0.43-0.49-0.43-0.81v-0.23c0-0.38,0.38-0.58,0.67-0.41
		l1.27,0.75c0.29,0.14,0.46,0.46,0.46,0.78v0.23h0C64.52,77.38,64.14,77.61,63.85,77.43z M71.42,65.96l6-3.27v5.16l-7.45,3.82
		L71.42,65.96z"/>
	<path class="st7" d="M75.36,72.51c-0.09,0.03-0.14,0.06-0.23,0.12c-0.09,0.06-0.17,0.09-0.26,0.15c-0.06,0.03-1.54,0.78-2.84,1.68
		c-1.3,0.9-1.48,2.69-1.48,4.23v1.19c0-0.55,0.41-1.27,0.7-1.77c0.55-1.04,1.39-1.97,2.38-2.64c0.52-0.35,1.04-0.67,1.59-0.99
		c0.49-0.29,1.07-0.58,1.68-0.61c0.43-0.03,0.84,0.2,1.19,0.49c0,0,0.06,0.09,0.09,0.09l0.49-0.32v-3.36
		c-0.23,0.12-0.52,0.26-0.81,0.43C77.1,71.58,76.23,72.05,75.36,72.51z"/>
	<path class="st7" d="M113.75,52.83v2l-3.01,1.77c-0.29-0.06-0.64-0.06-1.04-0.06c-1.62,0.03-3.36,2-4.2,3.07L80.81,73.86v-2
		L113.75,52.83z"/>
</g>
</svg>
