<?xml version="1.0" encoding="utf-8"?>
<!-- Generator: Adobe Illustrator 27.6.1, SVG Export Plug-In . SVG Version: 6.00 Build 0)  -->
<svg version="1.1" id="Layer_1" xmlns="http://www.w3.org/2000/svg" xmlns:xlink="http://www.w3.org/1999/xlink" x="0px" y="0px"
	 viewBox="0 0 172.9100037 90" style="enable-background:new 0 0 172.9100037 90;" xml:space="preserve">
<style type="text/css">
	.st0{fill:#888888;}
	.st1{fill:#BABABA;}
	.st2{fill:#9697CA;}
	.st3{fill:#3751A0;}
	.st4{fill:#72C6EF;}
	.st5{fill:#F79420;}
	.st6{fill:#FFFFFF;}
</style>
<g>
	<rect x="72.8367996" y="83.4226608" class="st0" width="27.2449627" height="6.5773411"/>
	<rect x="72.8367996" y="81.6920242" width="5.6347814" height="6.0479417"/>
	<rect x="94.4469757" y="81.6920242" width="5.6347814" height="6.0479417"/>
	<path d="M89.1210632,54.0292282H83.797226l-0.1091614,1.0713348h5.5314865L89.1210632,54.0292282z M96.1616058,54.0292282
		h-5.947319l0.1094284,1.0713348h5.9908218L96.1616058,54.0292282z M89.1210632,54.0292282H83.797226l-0.1091614,1.0713348
		h5.5314865L89.1210632,54.0292282z M96.1616058,54.0292282h-5.947319l0.1094284,1.0713348h5.9908218L96.1616058,54.0292282z
		 M89.1210632,54.0292282H83.797226l-0.1091614,1.0713348h5.5314865L89.1210632,54.0292282z M76.7569504,54.0292282
		l-0.1529312,1.0713348h5.9908218l0.0982208-1.0713348H76.7569504z M89.1210632,54.0292282H83.797226l-0.1091614,1.0713348
		h5.5314865L89.1210632,54.0292282z M96.1616058,54.0292282h-5.947319l0.1094284,1.0713348h5.9908218L96.1616058,54.0292282z"/>
	<polygon class="st0" points="100.8625107,79.4820633 100.8625107,80.9251862 99.6598587,82.5321884 73.2586975,82.5321884 
		72.0560532,80.9251862 72.0560532,79.4820633 73.2586975,81.0893326 99.6598587,81.0893326 	"/>
	<polygon class="st1" points="100.8625107,77.8422318 100.8625107,79.4820633 99.6598587,81.0893326 73.2586975,81.0893326 
		72.0560532,79.4820633 72.0560532,77.8422318 72.220192,77.8422318 72.220192,79.4385605 100.6876907,79.4385605 
		100.6876907,77.8422318 	"/>
	<polygon class="st2" points="98.5065842,72.2122574 98.5065842,72.2560272 74.411972,72.2560272 75.188118,62.5590363 
		97.7301712,62.5590363 	"/>
	<rect x="74.411972" y="72.2560272" class="st3" width="24.094614" height="4.9960909"/>
	<polygon class="st4" points="97.7303085,62.4936447 97.7303085,62.5590363 75.1882477,62.5590363 76.2924118,55.1472397 
		96.637085,55.1472397 	"/>
	<rect x="76.5164719" y="56.1966858" class="st5" width="6.0236535" height="0.5794387"/>
	<rect x="83.6333466" y="56.1966858" class="st6" width="5.6518626" height="0.5794387"/>
	<rect x="90.3784332" y="56.1966858" class="st5" width="6.0236535" height="0.5794387"/>
	<polygon class="st5" points="96.3148041,55.103466 90.3237152,55.103466 90.2145538,54.0321312 96.1616058,54.0321312 	"/>
	<polygon class="st6" points="89.2195511,55.103466 83.6877975,55.103466 83.797226,54.0321312 89.1213303,54.0321312 	"/>
	<polygon class="st5" points="82.6930618,54.0321312 82.594574,55.103466 76.6037521,55.103466 76.7569504,54.0321312 	"/>
	<path d="M102.5307541,75.6566849h-1.8474731v-3.4873047l-0.7980347-9.9265289l-1.3884048-9.521904v-2.3393745l-0.3717957-1.0494461
		H74.7521286l-0.3608475,1.0494461v2.5798531l-1.3774719,9.3580284l-0.798027,9.849926v3.4873047h-1.825592l-0.5247269,6.00177
		l2.2956085,3.0610657h28.5878601l2.2956085-3.0610657L102.5307541,75.6566849z M96.1574631,54.0327606l0.1529312,1.071331
		h-5.9908218l-0.1091614-1.071331H96.1574631z M96.3979416,56.1973152v0.5794373h-6.0236511v-0.5794373H96.3979416z
		 M83.7930832,54.0327606h5.3241043l0.0982208,1.071331h-5.5317535L83.7930832,54.0327606z M83.6292038,56.1973152h5.6518631
		v0.5794373h-5.6518631V56.1973152z M76.7528076,54.0327606h5.9361115l-0.0984879,1.071331h-5.9908218L76.7528076,54.0327606z
		 M76.5120621,56.1973152h6.0239182v0.5794373h-6.0239182V56.1973152z M74.4022217,72.2566528l0.776413-9.6967239
		l0.6995392-4.6899567h21.153656l0.6888657,4.6242981v0.0656586l0.7761459,9.6532211v5.0395966H74.4022217V72.2566528z
		 M100.8581009,80.9260788l-1.2023849,1.6070023H73.2542877l-1.2023849-1.6070023v-3.0829544h0.1638794v1.5960617h28.4674988
		v-1.5960617h0.1748199V80.9260788z"/>
	<g>
		<polygon class="st0" points="84.1307144,37.1825333 83.5622177,49.3283272 82.4689941,49.3283272 83.0374908,37.1825333 		"/>
		<polygon class="st0" points="90.4495621,49.3283272 89.3563385,49.3283272 88.7878418,37.1825333 89.8810654,37.1825333 		"/>
		<path d="M96.0100021,36.0602837l-0.1531982-1.0603905H77.0534668l-0.1529312,1.0603905l-1.8805771,13.271843h2.2192688
			l1.7164307-12.1457939h14.9989548l1.7164307,12.1457939h2.2190018L96.0100021,36.0602837z"/>
		<polygon class="st1" points="95.6751862,49.3283272 90.4495621,49.3283272 89.8810654,37.1825333 93.9587555,37.1825333 		"/>
		<polygon class="st1" points="89.3563385,49.3283272 83.5622177,49.3283272 84.1307144,37.1825333 88.7878418,37.1825333 		"/>
		<polygon class="st1" points="83.0374908,37.1825333 82.4689941,49.3283272 77.2433701,49.3283272 78.9598007,37.1825333 		"/>
	</g>
	<path class="st6" d="M79.5113144,76.2866974h-3.2195587c-0.4807816,0-0.8705368-0.3897552-0.8705368-0.8705444v-0.1623001
		c0-0.4807892,0.3897552-0.8705444,0.8705368-0.8705444h3.2195587c0.4807816,0,0.8705368,0.3897552,0.8705368,0.8705444v0.1623001
		C80.3818512,75.8969421,79.9920959,76.2866974,79.5113144,76.2866974z"/>
	<path class="st6" d="M96.6268005,76.2866974h-3.2195587c-0.4807816,0-0.8705368-0.3897552-0.8705368-0.8705444v-0.1623001
		c0-0.4807892,0.3897552-0.8705444,0.8705368-0.8705444h3.2195587c0.4807816,0,0.8705368,0.3897552,0.8705368,0.8705444v0.1623001
		C97.4973373,75.8969421,97.1075821,76.2866974,96.6268005,76.2866974z"/>
</g>
</svg>
