<?xml version="1.0" encoding="utf-8"?>
<!-- Generator: Adobe Illustrator 27.6.1, SVG Export Plug-In . SVG Version: 6.00 Build 0)  -->
<svg version="1.1" id="Layer_1" xmlns="http://www.w3.org/2000/svg" xmlns:xlink="http://www.w3.org/1999/xlink" x="0px" y="0px"
	 viewBox="0 0 172.91 90" style="enable-background:new 0 0 172.91 90;" xml:space="preserve">
<style type="text/css">
	.st0{fill:#888888;}
	.st1{fill:#9697CA;}
	.st2{fill:#3751A0;}
	.st3{fill:#F79420;}
	.st4{fill:#FFFFFF;}
	.st5{fill:#BABABA;}
	.st6{fill:#72C6EF;}
	.st7{fill:#333366;}
</style>
<g>
	<path class="st0" d="M115.69,83.92c0-0.17,0-0.35-0.03-0.52h6.49v-2h14.2V90h-25.97C113.37,89.59,115.69,87.02,115.69,83.92z
		 M55.81,90h52.93c-2.98-0.41-5.3-2.98-5.3-6.08c0-0.17,0-0.35,0.03-0.52H63.72v2.14h-2.46C60.74,88.06,58.51,90,55.81,90z
		 M36.54,83.16v4.34l2.55,2.5h16.72c-2.67,0-4.87-1.94-5.39-4.46h-11.3L36.54,83.16z"/>
	<path d="M36.56,72.27v10.89l2.58,2.38h11.3c0.52,2.52,2.72,4.46,5.39,4.46c2.69,0,4.93-1.94,5.45-4.46h2.46v-2.14h39.74
		c-0.03,0.17-0.03,0.35-0.03,0.52c0,3.1,2.32,5.68,5.3,6.08h1.65c2.98-0.41,5.3-2.98,5.3-6.08c0-0.17,0-0.35-0.03-0.52h6.49V79.8
		h14.2v-6.14c-0.35-0.43-0.67-0.87-1.01-1.3c-0.12-0.14-0.26-0.32-0.38-0.49H63.73V53.03h-2.17v0.72h-4.37v1.71H46.26l-5.68,10.49
		c-0.64,1.13-0.96,2.43-1.04,3.74h-0.06L36.56,72.27z"/>
	<path class="st1" d="M43.14,65.76v5.16l3.8-7.01c0.17-0.29,0.41-0.55,0.67-0.72v-5.53h-0.06L43.14,65.76z"/>
	<path class="st2" d="M119.98,79.81v1.42h-4.97c-0.23-0.52-0.55-1.01-0.93-1.42H119.98z"/>
	<path class="st2" d="M53.89,77.95h7.65v5.42h-0.29c-0.49-2.55-2.75-4.49-5.45-4.49c-0.32,0-0.67,0.03-0.96,0.09
		c-0.17,0.03-0.35,0.06-0.49,0.12c-0.2,0.03-0.38,0.12-0.55,0.17c-0.23,0.09-0.49,0.2-0.72,0.35c-0.26,0.14-0.52,0.32-0.72,0.52
		c-0.23,0.17-0.46,0.38-0.61,0.58c-0.03,0.03-0.09,0.06-0.09,0.12c-0.2,0.17-0.32,0.35-0.41,0.52c-0.06,0.09-0.12,0.14-0.14,0.23
		c-0.17,0.23-0.29,0.49-0.38,0.75c-0.14,0.29-0.23,0.58-0.29,0.9c0,0.06-0.03,0.09-0.03,0.14h-1.19v-0.75
		C49.22,80.04,51.31,77.95,53.89,77.95z"/>
	<path class="st2" d="M41.54,73.96v4.81c0,0.84,0.78,1.54,1.71,1.54h4.23c0.96-2.64,3.45-4.52,6.4-4.52h7.65V62.72h-12.6
		c-0.49,0-0.96,0.14-1.33,0.46c-0.26,0.17-0.49,0.43-0.67,0.72l-3.8,7.01L41.54,73.96z M48.15,72.97l2.52-7.21h8.31v7.21H48.15z"/>
	<path class="st3" d="M60.84,55.21v0.72h-2.23v-0.72H60.84z M58.61,58.86v0.64h2.23v-0.64H58.61z M60.84,60.22h-2.23v1.13h2.23
		V60.22z"/>
	<rect x="58.61" y="56.59" class="st4" width="2.23" height="1.53"/>
	<path class="st0" d="M106.33,83.92c0,1.8,1.45,3.25,3.22,3.25c1.8,0,3.24-1.45,3.24-3.25c0-0.17-0.03-0.35-0.06-0.52
		c-0.12-0.72-0.46-1.36-0.96-1.83c-0.14-0.12-0.29-0.23-0.46-0.35c-0.52-0.32-1.13-0.52-1.77-0.52c-0.64,0-1.25,0.2-1.74,0.52
		c-0.2,0.12-0.38,0.26-0.55,0.43c-0.46,0.46-0.75,1.04-0.87,1.74C106.36,83.57,106.33,83.74,106.33,83.92z M109.4,82.53
		c0-0.61,0.52-1.13,1.13-1.13c0.64,0,1.16,0.52,1.16,1.13c0,0.64-0.52,1.13-1.16,1.13C109.93,83.66,109.4,83.16,109.4,82.53z"/>
	<path class="st2" d="M63.72,79.8v1.42h40.35c0.26-0.52,0.58-1.01,0.96-1.42H63.72z"/>
	<path class="st0" d="M53.17,84.44c0,1.45,1.19,2.67,2.64,2.67c1.48,0,2.67-1.22,2.67-2.67c0-1.48-1.19-2.67-2.67-2.67
		C54.36,81.77,53.17,82.96,53.17,84.44z M55.9,83.13c0-0.49,0.41-0.87,0.9-0.87c0.46,0,0.87,0.38,0.87,0.87
		c0,0.49-0.41,0.87-0.87,0.87C56.3,84,55.9,83.63,55.9,83.13z"/>
	<rect x="63.72" y="74.04" class="st5" width="3.99" height="0.54"/>
	<path class="st6" d="M42.47,66.97l0.67-1.22v5.16l-1.59,3.04v-3.39C41.54,69.32,41.86,68.08,42.47,66.97z M47.6,57.65v5.53
		c0.38-0.32,0.84-0.46,1.33-0.46h8.23v-5.07H47.6z"/>
	<rect x="68.94" y="74.04" class="st5" width="65.24" height="0.54"/>
	<path class="st5" d="M39.37,72.65v6.11c0,2.03,1.74,3.71,3.88,3.71h3.82c0,0.06-0.03,0.09-0.03,0.14v0.75h-7.1l-1.25-1.16v-8.95
		L39.37,72.65z"/>
	<rect x="68.94" y="75.31" class="st5" width="65.26" height="0.7"/>
	<polygon class="st5" points="63.7,77.19 63.7,77.63 134.19,77.63 134.19,76.73 68.94,76.73 68.94,77.19 	"/>
	<polygon class="st7" points="48.15,72.97 58.99,72.97 58.99,65.76 50.67,65.76 	"/>
	<path class="st5" d="M109.4,82.53c0,0.64,0.52,1.13,1.13,1.13c0.64,0,1.16-0.49,1.16-1.13c0-0.61-0.52-1.13-1.16-1.13
		C109.93,81.4,109.4,81.92,109.4,82.53z"/>
	<path class="st5" d="M55.9,83.13c0,0.49,0.41,0.87,0.9,0.87c0.46,0,0.87-0.38,0.87-0.87c0-0.49-0.41-0.87-0.87-0.87
		C56.3,82.26,55.9,82.64,55.9,83.13z"/>
	<rect x="68.94" y="76.01" class="st0" width="65.26" height="0.72"/>
	<rect x="68.94" y="74.58" class="st0" width="65.24" height="0.72"/>
</g>
</svg>
