<?xml version="1.0" encoding="utf-8"?>
<!-- Generator: Adobe Illustrator 27.6.1, SVG Export Plug-In . SVG Version: 6.00 Build 0)  -->
<svg version="1.1" id="Layer_1" xmlns="http://www.w3.org/2000/svg" xmlns:xlink="http://www.w3.org/1999/xlink" x="0px" y="0px"
	 viewBox="0 0 172.8999939 90" style="enable-background:new 0 0 172.8999939 90;" xml:space="preserve">
<style type="text/css">
	.st0{fill:#888888;}
	.st1{fill:#FAEF94;}
	.st2{fill:#696969;}
	.st3{fill:#444444;}
	.st4{fill:#CCCCCC;}
	.st5{fill:#FFEB99;}
	.st6{fill:#FFCE00;}
	.st7{fill:#BF9B00;}
	.st8{fill:#999999;}
	.st9{fill:#B9AC3A;}
	.st10{fill:#333333;}
	.st11{fill:#FFFFFF;}
	.st12{fill:#E6E6E6;}
	.st13{fill:#F6E54D;}
	.st14{fill:none;stroke:#000000;stroke-linecap:round;stroke-linejoin:round;stroke-miterlimit:10;}
</style>
<g>
	<path class="st0" d="M104.1506653,84.3168716C104.4836044,84,104.8940277,83.723732,105.2466202,83.401474
		c0.271225-0.2479019,0.5082245-0.5230103,0.6492844-0.8647614c0.3469162-0.8406906-0.0208206-1.831604-0.801651-2.2822266
		l-30.2234955-17.443676l-12.1121407,6.9977684c-0.9185867,0.5307236-0.9184151,1.856781,0.0004044,2.3872147L88.242485,86.9081345
		c3.2432175,1.8723755,6.6327057,1.225647,10.1064224,0.815979c0.1858368,0.2970886,0.4733582,0.5775299,0.8852921,0.8153381
		c1.5013962,0.8668442,3.9124985,0.862442,5.3966141-0.000061c1.484169-0.8624954,1.4839325-2.259079-0.0175171-3.1259232
		c-0.3340988-0.1928635-0.7187729-0.3358994-1.1245575-0.4425049
		C103.7088623,84.7488098,103.9286346,84.5282288,104.1506653,84.3168716z"/>
	<g>
		<g>
			<path class="st1" d="M90.4141312,61.1699829l-8.9899902,5.1900024l-10.25-5.9199829l8.7299805-5.039978
				c0.3400269,0.0299683,0.6000366,0.0599976,0.7600098,0.1199951l9.5100098,5.4899902
				C90.254158,61.0599976,90.3341141,61.1099854,90.4141312,61.1699829z"/>
		</g>
		<g>
			<path class="st2" d="M97.3841019,67.2800293c0,0-2.9499512-0.1000366-3.9400024,1.0100098
				c-0.3599854,0.3999634-0.8699951,0.75-1.3699951,1.0099487c-0.0799561,0.0400391-0.1499634,0.0800171-0.2199707,0.1100464
				c-0.5700073,0.2699585-1.1199951,0.4299927-1.4400024,0.4299927c-0.039978,0-0.0800171,0-0.1199951,0.0100098
				c-0.25,0.0199585-0.5300293,0.0999756-0.7999878,0.289978c-0.0599976,0.0299683-0.1199951,0.0800171-0.1900024,0.1400146
				c-0.3500366,0.2699585-0.7000122,0.7199707-1,1.3800049c-0.6199951,1.3099976-2.1900024,2.1300049-2.1900024,2.1300049
				l-4.6900024-7.4300537l8.9899902-5.1900024c0.1799927,0.1000366,0.3599854,0.2400513,0.5499878,0.3800049
				c2.7200317,2.2400513,4.3800049,3.8099976,5.4700317,4.8400269
				C96.794136,66.7399902,97.0941238,67.0300293,97.3841019,67.2800293z"/>
		</g>
		<g>
			<polygon class="st3" points="83.4941483,73.0599976 74.964119,68.1400146 74.964119,63.7900391 79.6241531,66.4800415 			"/>
		</g>
		<g>
			<path class="st3" d="M74.1141434,63.2999878v4.3500366L66.4741287,63.25c0.5800171-0.5899658,1.9899902-1.75,4.0300293-1.6900024
				c0.2299805,0.0100098,0.4499512,0.0200195,0.6599731,0.0300293L74.1141434,63.2999878z"/>
		</g>
		<g>
			<g>
				<path class="st0" d="M67.2287521,70.9919205c-0.2912369-0.1681442-0.5271072-0.576683-0.5261536-0.9113464
					c0.000946-0.3346329,0.2383575-0.4699249,0.5295944-0.3017731c0.2912445,0.1681442,0.5271072,0.576683,0.5261612,0.9113159
					C67.7574081,71.0247803,67.5199966,71.1600723,67.2287521,70.9919205L67.2287521,70.9919205z M66.7055435,69.0417786
					c-0.9161453-0.5289383-1.6648941-0.1092606-1.6678925,0.9504623c-0.0029907,1.0527649,0.7409134,2.3412018,1.6570587,2.8701401
					c0.9161835,0.5289612,1.6649094,0.1022873,1.6678925-0.9504776
					C68.3656082,70.8521805,67.621727,69.5707397,66.7055435,69.0417786L66.7055435,69.0417786z"/>
			</g>
			<g>
				<path class="st4" d="M67.232193,69.778801c-0.2912369-0.1681519-0.5286484-0.0328598-0.5295944,0.3017731
					c-0.0009537,0.3346634,0.2349167,0.7432022,0.5261536,0.9113464c0.2912445,0.1681519,0.528656,0.0328598,0.5296021-0.3018036
					C67.7593002,70.355484,67.5234375,69.9469452,67.232193,69.778801L67.232193,69.778801z"/>
			</g>
		</g>
		<g>
			<path class="st0" d="M87.1655273,82.5104752c-0.2912445-0.1681519-0.5271149-0.5766907-0.5261612-0.9113464
				c0.000946-0.3346329,0.2383575-0.4699326,0.5295944-0.3017807c0.2912445,0.1681442,0.5271072,0.5766907,0.5261612,0.9113235
				C87.6941757,82.5433273,87.4567642,82.6786194,87.1655273,82.5104752L87.1655273,82.5104752z M86.6423111,80.5603256
				c-0.9161453-0.5289307-1.6648941-0.1092606-1.6678925,0.9504623c-0.0029907,1.0527649,0.7409134,2.3412094,1.6570587,2.8701477
				c0.9161835,0.5289612,1.6649094,0.1022873,1.6678925-0.9504852
				C88.3023758,82.3707275,87.5584946,81.0892868,86.6423111,80.5603256L86.6423111,80.5603256z"/>
		</g>
		<g>
			<path class="st4" d="M87.1689606,81.297348c-0.2912369-0.1681519-0.5286484-0.0328522-0.5295944,0.3017807
				c-0.0009537,0.3346558,0.2349167,0.7431946,0.5261612,0.9113464c0.2912369,0.1681442,0.5286484,0.0328522,0.5295944-0.3018036
				C87.6960678,81.8740387,87.4602051,81.4654922,87.1689606,81.297348L87.1689606,81.297348z"/>
		</g>
		<g>
			<g>
				<path class="st5" d="M92.8716507,43.0552673l-1.0107803,1.4712143l-1.4047699-0.0267258l0.1481171-0.2230911
					c0.1555023-0.2489166,0.17276-0.5516205,0.0763397-0.8241348l0.0231857-0.0562363l0.147171,0.2661209
					c0.1287613,0.2328262,0.4212036,0.3100395,0.6457596,0.1858559c0.2328796-0.1287842,0.3146133-0.4129333,0.1858597-0.6457596
					l-0.0919876-0.1663322L92.8716507,43.0552673z"/>
			</g>
			<g>
				<polygon class="st6" points="93.6033783,43.671402 94.6473236,46.9926758 94.0861816,47.9220009 92.6564713,45.042141 				"/>
			</g>
			<g>
				<polygon class="st7" points="91.8110428,45.4770699 93.2775574,48.4234734 92.3665543,48.406044 90.7384872,45.4620895 				"/>
			</g>
			<g>
				<path class="st8" d="M86.0221329,42.9229393c-0.1445618,0.3080177-0.069313,0.9939728,0.1376495,1.3682098l0.3909073,0.706852
					l1.2735443,0.1427765l0.0074463-0.01194l-1.453392-2.6280861
					C86.2442627,42.5948219,86.1174622,42.7222137,86.0221329,42.9229393z"/>
			</g>
			<g>
				<path class="st4" d="M88.3303375,43.0907822c-0.2667542-0.4823532-0.8329239-0.799118-1.3766098-0.7807388
					c-0.1771393,0.0023193-0.3849792,0.0570107-0.5754395,0.1907082l1.453392,2.6280861l0.861969-1.3810997L88.3303375,43.0907822z"
					/>
			</g>
		</g>
		<g>
			<path class="st9" d="M106.0410233,70.2137299c-0.2185516,0.085556-0.4275894,0.199585-0.6462021,0.2945938
				c-0.0189667-0.1520233-0.0379944-0.2945938-0.0570145-0.4466171L106.0410233,70.2137299z"/>
		</g>
		<g>
			<path class="st10" d="M100.7667999,77.2080765v0.6081619c-0.5321732,0.3231277-1.1783829,0.826767-1.5965195,1.5490112
				c-0.5321732,0.9313507-3.5066605,1.4065018-4.4759979,1.1689224c-0.4941254-0.1235428-0.5131454-0.1520767-0.8362198-0.6842499
				c-0.1805649-0.2850876-0.4276581-0.6746902-0.8362808-1.2069168c-0.7032852-0.9312897-2.3757858-2.2332153-3.7157593-3.2025528
				c1.083374,0.2090988,2.2712631,0.4466782,2.8509369,0.5797348c0.6937103,0.1615372,1.1974106,1.6345139,1.3304672,2.3282242
				c0.0379868,0.1900711,0.1995239,0.3421555,0.3896027,0.3801422c0.0760422,0.0095139,1.3209457,0.1995926,2.6798859,0.1995926
				c0.7222519,0,1.4729767-0.0570221,2.109726-0.2090988C99.7214813,78.4625015,100.329689,77.9017868,100.7667999,77.2080765z"/>
		</g>
		<g>
			<path class="st9" d="M98.6641312,81.9000244c-0.1599731,0.2099609-0.3499756,0.3900146-0.5599976,0.539978
				c-0.2800293,0.210022-0.5900269,0.3800049-0.9199829,0.5100098c-0.9900513,0.4000244-2.1400146,0.4199829-2.8600464,0.0599976
				c-0.3099976-0.1500244-0.5799561-0.4099731-0.8699951-0.7299805c0-0.0100098,0-0.0100098,0-0.0100098
				c-0.0299683-0.039978-0.0599976-0.0700073-0.0899658-0.1099854c-0.7399902-0.8500366-1.6400146-2.1100464-3.7300415-3.3200073
				c-2.3999634-1.3800049-18.5499878-10.7000122-25.0499878-14.460022c-0.039978,0.4199829-0.0799561,0.8500366-0.0999756,1.2399902
				c-0.0100098,0.1799927-0.0200195,0.3600464-0.0200195,0.5200195c-0.0100098,0.0800171-0.0100098,0.1500244-0.0100098,0.2199707
				c0.0500488-0.0099487,0.1000366-0.0299683,0.1400146-0.039978c0.7800293-0.2799683,1.710022-0.1400146,2.6199951,0.4000244
				c1.8699951,1.0599976,3.3300171,3.5599976,3.3800049,5.7299805l12.5300293,7.2299805
				c0.1999512-0.6900024,0.6099854-1.2399902,1.1699829-1.5599976c0.8499756-0.4799805,1.9500122-0.4199829,3.0299683,0.2000122
				c0.9900513,0.5900269,1.8000488,1.4899902,2.3800049,2.4899902c0.3099976,0.5100098,0.5500488,1.0599976,0.7200317,1.6300049
				c0.1300049,0.4100342,0.3099976,0.7999878,0.4400024,1.2200317c0.1099854,0.3599854,0.1799927,0.7699585,0.4400024,1.0700073
				c0.1799927,0.2099609,0.4400024,0.2799683,0.7099609,0.2799683h0.3200073c1.4100342,0,3.7399902,0.0200195,6.2300415-0.6699829
				c0.8399658-0.2399902,1.0099487-2.1700439,1.8499756-2.5900269c0.0700073-0.039978,0.1199951-0.0700073,0.1900024-0.0899658
				c0.0100098-0.0500488,0.0200195-0.1000366,0.0200195-0.1500244c0.0299683-0.289978,0.0499878-0.5999756,0.0599976-0.9000244
				v-0.0099487c0.0099487-0.1300049,0.0099487-0.2700195,0.0199585-0.4000244
				C99.9141312,80.7200317,99.0941238,81.3400269,98.6641312,81.9000244z"/>
		</g>
		<g>
			<g>
				<polygon class="st11" points="82.0171051,58.7007217 79.9549408,59.8886108 79.574791,59.6700592 81.6369553,58.4821663 				"/>
			</g>
			<g>
				<polygon class="st4" points="79.7173615,60.3067513 79.7173615,60.7344055 79.3372192,60.5157928 79.3372192,60.0881424 				"/>
			</g>
			<g>
				<polygon class="st4" points="82.2546844,59.1093483 82.2546844,59.5465126 80.1925201,60.7344055 80.1925201,60.3067513 				"/>
			</g>
		</g>
		<g>
			<path class="st12" d="M97.6441116,83.9400024c-0.0700073,0.0300293-0.1300049,0.0800171-0.2199707,0.1400146
				c-0.4800415,0.3099976-2.6199951-0.0200195-3.5300293-0.7800293C93.464119,82.9400024,93.3241043,82.5,93.3641434,82.1600342
				c-0.0100098-0.0200195,0-0.0400391,0-0.0599976c0.0100098-0.0100098,0.0100098-0.0100098,0.0100098-0.0100098
				c0.0581055-0.2908325,0.2436523-0.4868164,0.4815674-0.4971924c0.0032349-0.0003662,0.005188-0.0025024,0.0084229-0.0028076
				c0,0,0.0056152,0.0032349,0.0060425,0.00354c0.0440674-0.0004272,0.0866699-0.0072632,0.1339722,0.0064697
				c0,0,0.0199585,0.0299683,0.0799561,0.0899658c0.1700439,0.1699829,0.6400146,0.5599976,1.75,0.9100342
				c0.5900269,0.1900024,1.0300293,0.2799683,1.3500366,0.3499756c0.4899902,0.0999756,0.7199707,0.1300049,0.789978,0.3499756
				C98.0741043,83.6000366,97.964119,83.7200317,97.6441116,83.9400024z"/>
		</g>
		<g>
			<g>
				<path d="M82.6442947,58.5296631c-0.0189819-0.0095215-0.0189819-0.0285645-0.0380249-0.0380859l-0.8457642-0.4940796
					c-0.0759888-0.0380859-0.1710815-0.0380859-0.2376099,0l-2.5372925,1.4729614
					c-0.019043,0-0.0285645,0.019043-0.0379639,0.0285034c-0.0095215,0.0094604-0.019043,0.0189819-0.019043,0.0285034
					c-0.0380249,0.0380249-0.0665283,0.0855103-0.0665283,0.1425781v0.9788208c0,0.0855103,0.0474854,0.1710205,0.1235352,0.2090454
					l0.8457642,0.4941406c0.0380249,0.019043,0.0855103,0.0285645,0.1235962,0.0285645
					c0.0379639,0,0.0759888-0.0095215,0.1140137-0.0285645l2.5372925-1.4634399
					c0.0760498-0.0475464,0.1235962-0.1235352,0.1235962-0.2091064v-0.9788208c0-0.0570068-0.0285645-0.1044922-0.0665283-0.1520386
					C82.6633377,58.5391846,82.6538162,58.5391846,82.6442947,58.5296631z M79.7173538,60.734375l-0.380127-0.2185669v-0.4276733
					l0.380127,0.2186279V60.734375z M79.9549637,59.8886108l-0.380188-0.2185669l2.0621948-1.1878662l0.380127,0.2185059
					L79.9549637,59.8886108z M82.2547073,59.5465088l-2.0621948,1.1878662v-0.4276123l2.0621948-1.1974487V59.5465088z"/>
			</g>
			<g>
				<polygon points="82.2795486,74.796936 81.3376541,74.2531128 81.3574905,75.463562 82.2993851,76.0073853 				"/>
			</g>
			<g>
				<polygon points="80.3957596,73.7092896 79.4538651,73.1654663 79.4737015,74.3759766 80.415596,74.9197388 				"/>
			</g>
			<g>
				<polygon points="78.5119705,72.6217041 77.570076,72.0778809 77.5899124,73.2883301 78.5318069,73.8321533 				"/>
			</g>
			<g>
				<polygon points="76.6281815,71.5341187 75.6862869,70.9902954 75.7061234,72.2007446 76.6480179,72.7445679 				"/>
			</g>
			<g>
				<polygon points="80.4354324,76.130188 81.377327,76.6739502 81.3574905,75.463562 80.415596,74.9197388 				"/>
			</g>
			<g>
				<polygon points="78.5318069,73.8321533 78.5516434,75.0425415 79.4935379,75.5863647 79.4737015,74.3759766 				"/>
			</g>
			<g>
				<polygon points="76.6480179,72.7445679 76.6678543,73.9549561 77.6097488,74.4987793 77.5899124,73.2883301 				"/>
			</g>
			<g>
				<polygon points="74.7642288,71.6569214 74.7840652,72.8673706 75.7259598,73.4111328 75.7061234,72.2007446 				"/>
			</g>
			<g>
				<polygon points="79.5133743,76.796814 80.4552689,77.3406372 80.4354324,76.130188 79.4935379,75.5863647 				"/>
			</g>
			<g>
				<polygon points="77.6295853,75.7092285 78.5714798,76.2530518 78.5516434,75.0425415 77.6097488,74.4987793 				"/>
			</g>
			<g>
				<polygon points="75.7457962,74.6216431 76.6876907,75.1654053 76.6678543,73.9549561 75.7259598,73.4111328 				"/>
			</g>
			<g>
				<polygon points="73.1159744,69.5062866 72.1740189,68.9624634 72.1938553,70.1729736 73.1358109,70.7167358 				"/>
			</g>
			<g>
				<polygon points="71.2520218,69.6291504 71.2718582,70.8395386 72.2136917,71.3833618 72.1938553,70.1729736 				"/>
			</g>
			<g>
				<polygon points="72.2136917,71.3833618 72.2335281,72.593811 73.1754837,73.1376343 73.1556473,71.9271851 				"/>
			</g>
			<g>
				<polygon points="70.2902908,67.8748779 70.3101273,69.0853271 71.2520218,69.6291504 71.2321854,68.4187012 				"/>
			</g>
			<g>
				<path d="M88.294136,83.3599854v0.0700073c0,0.0599976,0,0.1000366-0.0100098,0.1500244
					c0.0100098-0.039978,0.0200195-0.0700073,0.0200195-0.1199951v-0.0300293
					C88.3041458,83.4000244,88.3041458,83.3800049,88.294136,83.3599854z M88.254158,82.9500122
					c0-0.0100098,0-0.0200195-0.0100098-0.0300293c0.0100098-0.0099487,0-0.0199585-0.0100098-0.0299683
					c0.0100098,0.0200195,0.0100098,0.0499878,0.0100098,0.0700073C88.254158,82.9700317,88.254158,82.9899902,88.254158,83
					c0.0099487,0.0100098,0.0099487,0.0200195,0.0099487,0.0300293
					C88.2641068,83.0100098,88.2641068,82.9800415,88.254158,82.9500122z M88.1741409,82.6099854
					c-0.0100098-0.0199585-0.0200195-0.0499878-0.0300293-0.0699463c0.0100098,0.0299683,0.0100098,0.0499878,0.0200195,0.0699463
					c0.0100098,0.0400391,0.0299683,0.0900269,0.039978,0.1400146
					C88.1940994,82.710022,88.1841507,82.6600342,88.1741409,82.6099854z M88.0941238,82.4100342
					c0,0.0099487,0,0.0199585,0,0.0199585s0,0.0100098,0.0100098,0.0100098
					C88.1141434,82.4299927,88.1041336,82.4199829,88.0941238,82.4100342z M68.0841141,70.6799927
					c-0.0100098-0.0100098-0.0100098-0.0100098-0.0100098-0.0100098s0,0,0,0.0100098
					c0.0100098,0.0100098,0.0200195,0.0300293,0.0200195,0.0400391
					C68.0941238,70.710022,68.0841141,70.6900024,68.0841141,70.6799927z M87.5841141,81.4500122
					c0.0100098,0,0.0100098,0.0100098,0.0100098,0.0200195c0.0200195,0.0199585,0.0300293,0.0299683,0.0499878,0.0499878
					C87.6241531,81.5,87.6041336,81.4700317,87.5841141,81.4500122z M68.0741043,70.6699829c0,0,0,0,0,0.0100098
					c0.0100098,0.0100098,0.0200195,0.0300293,0.0200195,0.0400391c0-0.0100098-0.0100098-0.0300293-0.0100098-0.0400391
					C68.0741043,70.6699829,68.0741043,70.6699829,68.0741043,70.6699829z M88.294136,83.3599854v0.0700073
					c0,0.0599976,0,0.1000366-0.0100098,0.1500244v0.0999756c0.0100098-0.0700073,0.0200195-0.1399536,0.0200195-0.2199707
					v-0.0300293C88.3041458,83.4000244,88.3041458,83.3800049,88.294136,83.3599854z M88.2441483,82.9199829
					c0.0100098-0.0099487,0-0.0199585-0.0100098-0.0299683c0.0100098,0.0200195,0.0100098,0.0499878,0.0100098,0.0700073
					C88.254158,82.9700317,88.254158,82.9899902,88.254158,83c0.0099487,0.0100098,0.0099487,0.0200195,0.0099487,0.0300293
					c0-0.0200195,0-0.0499878-0.0099487-0.0800171C88.254158,82.9400024,88.254158,82.9299927,88.2441483,82.9199829z
					 M88.1441116,82.5400391c0.0100098,0.0299683,0.0100098,0.0499878,0.0200195,0.0699463
					c0.0100098,0.0400391,0.0299683,0.0900269,0.039978,0.1400146c-0.0100098-0.039978-0.0199585-0.0899658-0.0299683-0.1400146
					C88.1641312,82.5900269,88.1541214,82.5599976,88.1441116,82.5400391z M88.0941238,82.4299927
					c0,0,0,0.0100098,0.0100098,0.0100098c0.0100098-0.0100098,0-0.0200195-0.0100098-0.0299683
					C88.0941238,82.4199829,88.0941238,82.4299927,88.0941238,82.4299927z M106.7741165,73.4700317
					c-0.2699585-0.710022-0.6900024-1.3699951-1.1799927-2.0100098c0.3099976-0.1400146,0.6199951-0.2999878,0.9400024-0.4100342
					c0.3599854-0.1300049,0.5900269-0.4799805,0.5599976-0.8599854c-0.0200195-0.3800049-0.2799683-0.7099609-0.6500244-0.7999878
					l-1.2799683-0.25c-0.3800049-1.8099976-0.9700317-4.2700195-1.6099854-5.4000244
					c-2.3400269-4.1499634-5.6100464-7.6300049-5.75-7.7799683c-1.0300293-1.5300293-4.0900269-5.1099854-4.6700439-6.1699829
					l-0.2399902-0.4300537l1.1500244,0.0300293c0.0800171,0,0.1699829-0.0300293,0.2299805-0.0599976
					c0.0800171-0.0499878,0.1300049-0.0999756,0.1799927-0.1699829l1.1199951-1.8500366
					c0.0700073-0.1199951,0.0900269-0.2600098,0.0400391-0.3999634l-1.3900146-4.460022
					c-0.0100098-0.0100098-0.0300293-0.0200195-0.0200195-0.0300293c-0.0100098-0.0199585-0.0100098-0.0299683-0.0100098-0.039978
					c-0.0199585-0.0299683-0.0499878-0.0499878-0.0699463-0.0700073C94.1041336,42.2800293,94.0741043,42.25,94.044136,42.2200317
					c-0.039978-0.0300293-0.0800171-0.0400391-0.1199951-0.0599976c-0.0300293-0.0100098-0.0499878-0.0300293-0.0900269-0.0300293
					h-0.0299683c-0.0100098,0-0.0200195-0.0100098-0.0300293-0.0100098l-2.7199707-0.0499878l-0.4800415-0.8800049
					c-0.0899658-0.1499634-0.2399902-0.2399902-0.4099731-0.2399902c-0.1699829-0.0100098-0.3200073,0.0800171-0.4199829,0.2299805
					l-0.210022,0.3600464c-0.6699829-0.7300415-1.6400146-1.1700439-2.6599731-1.1300049
					c-1.1300049,0.039978-2.1000366,0.6799927-2.5800171,1.7199707c-0.4500122,0.960022-0.2299805,2.3099976,0.2000122,3.0800171
					l0.6300049,1.1400146c0.1499634,0.2699585,0.4199829,0.4599609,0.7299805,0.4899902l0.2600098,0.0299683l2.8800049,5.1700439
					c0.6599731,1.3399658,3.0999756,5.3099976,4.1099854,6.6099854c0.0299683,0.039978,2.9500122,3.1499634,5.1400146,6.8399658
					c-0.1600342-0.1399536-0.3200073-0.289978-0.5-0.4599609c-1.1000366-1.0599976-2.7700195-2.6400146-5.5200195-4.9000244
					c-0.0200195-0.0200195-0.0499878-0.039978-0.0700073-0.0599976c-0.3300171-0.2600098-0.6900024-0.5100098-1.0299683-0.710022
					l-9.0400391-5.2199707l-0.539978-0.3099976c-0.039978-0.0200195-0.0900269-0.039978-0.1400146-0.0599976
					c-1.2199707-0.4700317-4.75-0.3400269-5.4500122-0.3099976c-0.0899658,0.0100098-0.1799927,0.0200195-0.2699585,0.0599976
					c-1.0800171,0.3699951-3.6700439,1.3099976-4.3300171,1.8900146c-0.3300171,0.2799683-2.5,1.4899902-3.6600342,2.1399536
					c-0.9799805,0.5400391-1.539978,0.8500366-1.7699585,1c-1.5400391,1.0500488-2.4399986,2.0599976-2.760006,3.0800171
					c-0.460022,1.4199829-0.6099854,3.960022-0.6099854,4.9100342c0,0.789978,0.3299561,1.5499878,0.6199951,2.0499878
					c0.1099854,0.2099609,0.289978,0.3399658,0.4899902,0.4199829c0,0.0499878-0.0100098,0.1099854-0.0100098,0.1799927
					c-0.0100098,1.9400024,1.3500328,4.2900391,3.0399742,5.2600098c0.7900391,0.460022,1.5100098,0.5300293,2.0600586,0.2800293
					c0.0199585-0.0100098,0.0299683-0.0200195,0.0499878-0.0300293l0.8800049-0.5l0.0499878-0.039978l13.7399902,7.9099731
					c0.0999756,0.0700073,0.2299805,0.0999756,0.3400269,0.1199951c0.4599609,1.5300293,1.539978,3.0499878,2.8099976,3.7800293
					C87.4141312,86.4299927,88.1341019,86.5,88.6741409,86.25c0.0199585-0.0100098,0.039978-0.0199585,0.0599976-0.0299683
					l0.8800049-0.5100098l0.0499878-0.0300293c0.4299927,0.6799927,1.1799927,1.2300415,2.3499756,1.2300415h0.7300415
					c1.5499878,0,3.8800049-0.0500488,6.3800049-0.7600098c0.4299927-0.1199951,0.7099609-0.6000366,0.9899902-1.1199951
					c-0.0100098,0.0199585-0.0100098,0.039978-0.0200195,0.0599976c-0.0200195,0.0899658-0.0700073,0.2299805-0.1199951,0.3800049
					c-0.1900024,0.5499878-0.3800049,1.1199951-0.2700195,1.6499634c0.2399902,1.0599976,1.1700439,1.75,2.4299927,1.7900391
					h0.1000366c1.1699829,0,2.5499878-0.6000366,2.8599854-1.75c0.5700073-2.0800171,0.7000122-4.25,0.7200317-6.4100342
					c0.4199829-0.289978,0.7099609-0.5299683,0.8799438-0.6900024
					C106.9241409,79.0300293,107.6041336,75.6099854,106.7741165,73.4700317z M92.3641434,48.4100342l-1.6300049-2.9500122
					l1.0800171,0.0200195l1.4599609,2.9399414L92.3641434,48.4100342z M94.6441116,46.9899902l-0.5599976,0.9299927
					l-1.4299927-2.8799438l0.9500122-1.3700562L94.6441116,46.9899902z M90.6041336,44.2800293
					c0.1599731-0.25,0.1699829-0.5499878,0.0800171-0.8300171l0.0199585-0.0499878l0.1500244,0.2600098
					c0.1300049,0.2399902,0.4199829,0.3099976,0.6400146,0.1900024c0.2399902-0.1300049,0.3200073-0.4100342,0.1900024-0.6500244
					l-0.0900269-0.1599731l1.2800293,0.0199585l-1.0100098,1.4700317L90.4541092,44.5L90.6041336,44.2800293z
					 M87.8241043,45.1400146L86.5541458,45l-0.3900146-0.7099609c-0.210022-0.3700562-0.289978-1.0599976-0.1400146-1.3700562
					c0.0300293-0.0599976,0.0599976-0.1099854,0.0900269-0.1599731c0.0299683-0.039978,0.0499878-0.0700073,0.0700073-0.0900269
					c0.0299683-0.039978,0.0599976-0.0699463,0.0899658-0.0899658c0.0300293-0.039978,0.0599976-0.0599976,0.1000366-0.0800171
					c0.0899658-0.0800171,0.1900024-0.1199951,0.289978-0.1400146c0.039978-0.0199585,0.0800171-0.0299683,0.1199951-0.0299683
					c0.0300293-0.0100098,0.0599976-0.0100098,0.0900269-0.0100098c0.0299683-0.0100098,0.0599976-0.0100098,0.0799561-0.0100098
					c0.5400391-0.0199585,1.1100464,0.2999878,1.3800049,0.7800293L88.6940994,43.75l-0.8599854,1.3800049L87.8241043,45.1400146z
					 M100.6241531,75.2399902c-0.4700317,1.2900391-0.8600464,2.2300415-2.1800537,2.5599976
					c-1.3399658,0.3200073-3.3299561,0.1199951-4.0999756,0.0300293c-0.0299683-0.1199951-0.0700073-0.25-0.1199951-0.4000244
					c-0.039978-0.1499634-0.0999756-0.3200073-0.1699829-0.4799805c-0.0100098-0.0200195-0.0200195-0.039978-0.0300293-0.0599976
					c-0.039978-0.1099854-0.0899658-0.2200317-0.1499634-0.3400269C93.8641434,76.5300293,93.8541336,76.5,93.8341141,76.4899902
					c-0.0100098-0.0499878-0.0299683-0.0999756-0.0599976-0.1399536c-0.0100098-0.0100098-0.0100098-0.0100098-0.0199585-0.0200195
					c-0.0100098-0.0300293-0.0300293-0.0599976-0.0600586-0.0900269c0-0.0099487-0.0099487-0.0099487-0.0099487-0.0199585
					c-0.0200195-0.0500488-0.0400391-0.0900269-0.0700073-0.1300049c-0.0100098-0.0100098-0.0100098-0.0100098-0.0200195-0.0200195
					c-0.0299683-0.0599976-0.0700073-0.1199951-0.1099854-0.1599731c0,0,0-0.0100098-0.0100098-0.0100098v-0.0100098
					c-0.0100098-0.0100098-0.0200195-0.0300293-0.0200195-0.039978c-0.0100098,0-0.0100098-0.0100098-0.0100098-0.0100098
					c-0.1899414-0.2399902-0.4099731-0.4500122-0.6699829-0.5800171c-0.039978-0.0200195-0.0800171-0.039978-0.1099854-0.0599976
					c-0.0200195-0.0200195-0.0300293-0.0200195-0.0499878-0.0200195c-0.0800171-0.0299683-0.1600342-0.0599976-0.25-0.0799561
					c-0.7800293-0.1800537-2.5900269-0.5300293-3.8300171-0.7700195l1.8800049-1.7000122
					c1.5-1.3599854,3.2700195-2.3800049,5.2000122-3.0100098l2.1699829-0.7000122l0.0300293-0.0199585h1.9299927
					c0.9400024,3.1699829,0.8999634,6.289978,0.8999634,6.3499756c-0.0100098,0-0.0100098,0-0.0100098,0v-0.0100098
					C100.6341019,75.2399902,100.6341019,75.2399902,100.6241531,75.2399902z M68.3541336,72.1099854
					c0,0.0200195,0,0.0400391-0.0100098,0.0599976v0.0100098c-0.0100098,0.0900269-0.0299683,0.1600342-0.0499878,0.2300415
					v0.0099487c-0.039978,0.1400146-0.1000366,0.2600098-0.1900024,0.3600464v0.0100098
					c-0.0300293,0.039978-0.0599976,0.0699463-0.0999756,0.0999756c-0.0100098,0.0100098-0.0200195,0.0200195-0.0300293,0.0200195
					c-0.0499878,0.0499878-0.0999756,0.0799561-0.1599731,0.0999756c-0.0500488,0.0300293-0.1000366,0.0499878-0.1600342,0.0599976
					c-0.0700073,0.0100098-0.1400146,0.0200195-0.210022,0.0200195c-0.0599976,0-0.1199951-0.0100098-0.1799927-0.0200195
					h-0.0299683c-0.0100098-0.0100098-0.0200195-0.0100098-0.0400391-0.0100098c-0.0099487,0-0.0199585,0-0.039978-0.0100098
					h-0.0299683c-0.0100098,0-0.0200195-0.0099487-0.0400391-0.0199585c-0.0299683,0-0.0599976-0.0200195-0.0899658-0.0300293
					c-0.0500488-0.0100098-0.1000366-0.0299683-0.1500244-0.0599976c-0.0299683-0.0100098-0.0700073-0.0299683-0.0999756-0.0499878
					c-0.0200195-0.0100098-0.0300293-0.0100098-0.0500488-0.0200195c-0.0799561-0.0499878-0.1599731-0.0999756-0.2399902-0.1699829
					c-0.0199585-0.0100098-0.0299683-0.0200195-0.0499878-0.039978c-0.0100098-0.0100098-0.0299683-0.0200195-0.039978-0.0300293
					c-0.0200195-0.0100098-0.0400391-0.0299683-0.0700073-0.0599976c-0.0300293-0.0299683-0.0499878-0.0499878-0.0800171-0.0800171
					h-0.0100098c-0.039978-0.0299683-0.0700073-0.0599976-0.0899658-0.0899658
					c-0.0200195-0.0200195-0.0400391-0.0400391-0.0499878-0.0599976l-0.0599976-0.0499878
					c-0.0300293-0.0300293-0.0600586-0.0700073-0.0900269-0.1000366c-0.039978-0.0499878-0.0900269-0.0999756-0.1300049-0.1599731
					c0-0.0100098-0.0100098-0.0100098-0.0100098-0.0200195c0,0,0-0.0100098-0.0100098-0.0100098
					c-0.0099487-0.0299683-0.0299683-0.0499878-0.039978-0.0800171H65.714119
					c-0.0100098-0.0199585-0.0100098-0.0199585-0.0200195-0.0299683c-0.039978-0.0499878-0.0799561-0.0999756-0.1099854-0.1599731
					c0-0.0100098-0.0100098-0.0100098-0.0100098-0.0200195c-0.0499878-0.0800171-0.0899658-0.1600342-0.1300049-0.2399902
					c-0.0299683-0.0400391-0.0499878-0.0800171-0.0699463-0.1199951c0-0.0100098-0.0100098-0.0300293-0.0200195-0.0400391
					c0-0.0299683-0.0200195-0.0599976-0.0300293-0.0899658c0-0.0100098-0.0099487-0.0100098-0.0099487-0.0200195
					c-0.0100098-0.0100098-0.0100098-0.0200195-0.0200195-0.0300293c0-0.0099487-0.0100098-0.0099487-0.0100098-0.0199585
					v-0.0100098c0-0.0200195-0.0100098-0.039978-0.0200195-0.0599976c-0.0299683-0.0900269-0.0599976-0.1600342-0.0899658-0.25
					c-0.0100098-0.0100098-0.0100098-0.0200195-0.0100098-0.0200195c-0.0100098-0.0299683-0.0200195-0.0700073-0.0200195-0.0999756
					c-0.0100098-0.0100098-0.0100098-0.0100098-0.0100098-0.0100098c0-0.0200195-0.0099487-0.0200195,0-0.039978
					c0-0.0200195-0.0099487-0.0400391-0.0099487-0.0599976c-0.0200195-0.0500488-0.0300293-0.1199951-0.0400391-0.1900024
					h-0.0100098v-0.0100098c0-0.0100098,0-0.0200195,0-0.0200195c0-0.0100098-0.0099487-0.0100098,0-0.0200195
					c-0.0099487-0.0099487-0.0099487-0.0199585-0.0099487-0.0299683c-0.0100098-0.0100098-0.0100098-0.0200195-0.0100098-0.0300293
					c0-0.0099487,0-0.0099487,0-0.0099487s0,0,0.0100098-0.0100098v-0.0100098
					c-0.0100098-0.039978-0.0100098-0.0800171-0.0100098-0.1099854C65.044136,70.1000366,65.044136,70.0400391,65.044136,70
					c0-0.1400146,0.0100098-0.2600098,0.039978-0.3699951c0-0.0200195,0.0100098-0.0299683,0.0100098-0.0499878
					c0.0100098-0.0599976,0.0200195-0.1199951,0.0499878-0.1600342c0-0.0099487,0-0.0099487,0-0.0099487
					c0-0.0100098,0-0.0300293,0.0100098-0.0400391c0.0200195-0.0499878,0.039978-0.0999756,0.0700073-0.1399536
					c0.0100098-0.0100098,0.0200195-0.0300293,0.039978-0.0500488c0.0100098-0.0299683,0.0200195-0.0499878,0.0400391-0.0599976
					c0.0100098-0.0199585,0.0100098-0.0299683,0.0199585-0.0199585c0.0100098-0.0200195,0.0200195-0.0300293,0.0300293-0.0400391
					c0.0100098-0.0199585,0.0200195-0.0299683,0.039978-0.0299683c0.0300293-0.0400391,0.0700073-0.0700073,0.1199951-0.0900269
					c0,0,0,0,0.0100098,0c0.0100098-0.0200195,0.0300293-0.0299683,0.0599976-0.0499878
					c0.0200195-0.0100098,0.0499878-0.0200195,0.0700073-0.0200195c0.0200195-0.0100098,0.039978-0.0199585,0.0599976-0.0199585
					c0.0499878-0.0200195,0.1000366-0.0100098,0.1500244-0.0200195c0.0299683,0,0.0599976-0.0100098,0.0899658-0.0100098
					c0.1199951,0,0.2399902,0.0200195,0.3600464,0.0499878c0.1299438,0.0400391,0.2599487,0.1000366,0.3899536,0.1700439
					c0.1199951,0.0699463,0.2300415,0.1499634,0.3400269,0.2299805c0.0599976,0.0499878,0.1099854,0.0999756,0.1599731,0.1499634
					c0.0400391,0.0300293,0.0700073,0.0700073,0.1100464,0.1100464c0.0099487,0.0100098,0.0199585,0.0199585,0.0299683,0.0299683
					l0.0100098,0.0100098c0.0200195,0.0100098,0.0299683,0.0300293,0.039978,0.039978
					c0.0100098,0.0100098,0.0100098,0.0100098,0.0200195,0.0200195c0.0200195,0.0200195,0.039978,0.039978,0.0599976,0.0700073
					c0.039978,0.039978,0.0800171,0.0900269,0.1099854,0.1300049c0,0,0,0,0,0.0100098
					c0.0200195,0.0100098,0.0300293,0.0199585,0.0400391,0.039978c0.0299683,0.0499878,0.0699463,0.1099854,0.0999756,0.1600342
					c0.0300293,0.039978,0.0599976,0.0799561,0.0800171,0.1199951v0.0099487
					c0.0299683,0.0300293,0.0499878,0.0700073,0.0700073,0.1100464c0.0199585,0.0199585,0.0299683,0.0499878,0.039978,0.0700073
					c0.0299683,0.0299683,0.039978,0.039978,0.039978,0.0699463c0.0500488,0.0700073,0.0800171,0.1300049,0.1100464,0.210022
					c0,0.0100098,0,0.0200195,0.0099487,0.0300293c0,0,0,0,0,0.0099487c0,0,0,0,0,0.0100098
					c0.0100098,0.0100098,0.0200195,0.0300293,0.0200195,0.0400391c0.0100098,0.0199585,0.0200195,0.0499878,0.0300293,0.0700073
					c0.0099487,0,0.0099487,0.0099487,0.0099487,0.0199585c0.0100098,0.0300293,0.0200195,0.0599976,0.0300293,0.0900269v0.0100098
					c0.0200195,0.039978,0.039978,0.0700073,0.0499878,0.1099854c0.0100098,0.0200195,0.0200195,0.0499878,0.0200195,0.0700073
					c0.0499878,0.1400146,0.0800171,0.2799683,0.0999756,0.4099731v0.0100098
					c0.0300293,0.1400146,0.0400391,0.2700195,0.0400391,0.4000244
					C68.3741531,71.9800415,68.3741531,72.0499878,68.3541336,72.1099854z M88.2841263,83.7000122
					c-0.0200195,0.1300049-0.0499878,0.25-0.0999756,0.3499756c-0.0100098,0.0300293-0.0200195,0.0599976-0.0400391,0.0800171
					v0.0100098c0,0.0100098-0.0100098,0.0200195-0.0199585,0.0200195l-0.0100098,0.0099487
					c-0.0200195,0.0600586-0.0599976,0.1100464-0.1099854,0.1600342C87.9440994,84.4000244,87.8741531,84.460022,87.794136,84.5
					c0,0.0100098-0.0100098,0.0100098-0.0200195,0.0100098c-0.0499878,0.0300293-0.0999756,0.0499878-0.1599731,0.0599976
					c-0.1199951,0.039978-0.2600098,0.039978-0.4000244,0.0200195h-0.0299683
					c-0.0400391-0.0100098-0.0900269-0.0200195-0.1500244-0.0400391c-0.0299683-0.0099487-0.0599976-0.0199585-0.0800171-0.0199585
					c-0.039978-0.0100098-0.0799561-0.0200195-0.1199951-0.0499878h-0.0100098
					c-0.0599976-0.0200195-0.1199951-0.0600586-0.1900024-0.1000366h-0.0099487
					c-0.0100098,0-0.0100098-0.0100098-0.0200195-0.0200195c-0.0100098,0-0.0200195-0.0099487-0.0300293-0.0199585
					c-0.0999756-0.0599976-0.1999512-0.1300049-0.2999878-0.210022c-0.0800171-0.0700073-0.1699829-0.1499634-0.25-0.2399902
					c-0.0100098-0.0100098-0.0199585-0.0200195-0.0299683-0.0300293c-0.0300293-0.0299683-0.0599976-0.0599976-0.0800171-0.0899658
					c-0.0100098-0.0100098-0.0200195-0.0100098-0.0200195-0.0200195l-0.0499878-0.0499878
					c-0.0499878-0.0599976-0.0899658-0.1199951-0.1400146-0.1799927c-0.0299683-0.0300293-0.0499878-0.0599976-0.0599976-0.0800171
					c-0.0199585-0.0299683-0.0299683-0.0499878-0.0499878-0.0800171c-0.0100098-0.0099487-0.0200195-0.0299683-0.0200195-0.039978
					c-0.0099487-0.0100098-0.0199585-0.0100098-0.0199585-0.0200195c-0.0400391-0.0499878-0.0700073-0.1099854-0.1000366-0.1499634
					v-0.0100098c-0.039978-0.0700073-0.0700073-0.1300049-0.0999756-0.1900024
					c-0.039978-0.0599976-0.0700073-0.1199951-0.0999756-0.1900024V82.75
					c-0.0600586-0.1400146-0.1100464-0.2799683-0.1500244-0.4199829c-0.0100098-0.0200195-0.0200195-0.039978-0.0200195-0.0599976
					c-0.0100098-0.0200195-0.0100098-0.039978-0.0100098-0.0599976c-0.0199585-0.0100098-0.0199585-0.0100098-0.0099487-0.0200195
					c0-0.0200195-0.0100098-0.0299683-0.0100098-0.0499878c-0.0100098-0.0200195-0.0100098-0.0499878-0.0100098-0.0700073
					c-0.0100098,0-0.0100098-0.0100098-0.0100098-0.0200195c0,0,0,0,0.0100098-0.0099487
					C85.0341263,82.0200195,85.0341263,82,85.0241165,81.9899902c0-0.0199585-0.0100098-0.039978-0.0100098-0.0599976
					c-0.0099487-0.0299683-0.0099487-0.0599976-0.0099487-0.0899658c-0.0100098-0.0300293-0.0100098-0.0599976-0.0100098-0.0900269
					c-0.0200195-0.0800171-0.0200195-0.1599731-0.0200195-0.2399902c0-0.0900269,0.0100098-0.1799927,0.0200195-0.2600098
					c0.0100098-0.0899658,0.0299683-0.1599731,0.0499878-0.2399902s0.0499878-0.1400146,0.0800171-0.2000122
					c0.0199585-0.039978,0.039978-0.0799561,0.0599976-0.1099854c0-0.0100098,0.0099487-0.0100098,0.0199585-0.0200195
					c0.0100098-0.0199585,0.0200195-0.039978,0.0300293-0.039978c0.039978-0.0499878,0.0800171-0.0900269,0.1300049-0.1300049
					c0.0299683-0.0299683,0.0599976-0.0499878,0.0999756-0.0599976c0.1199951-0.0800171,0.2700195-0.1199951,0.4299927-0.1199951
					c0.1199951,0,0.2399902,0.0200195,0.3600464,0.0599976c0.0199585,0.0100098,0.0499878,0.0100098,0.0699463,0.0299683
					c0.0500488,0.0100098,0.0800171,0.0300293,0.1300049,0.0500488c0.0400391,0.0199585,0.0800171,0.039978,0.1199951,0.0599976
					c0.0200195,0,0.0400391,0.0199585,0.0599976,0.0299683c0.0599976,0.0300293,0.1100464,0.0700073,0.1700439,0.1099854
					c0.0599976,0.0400391,0.1199951,0.0800171,0.1699829,0.1200562c0.0100098,0.0099487,0.0100098,0.0099487,0.0200195,0.0199585
					l0.0599976,0.0599976c0.0199585,0.0100098,0.039978,0.0300293,0.0599976,0.0499878
					c0.0100098,0,0.0100098,0.0100098,0.0199585,0.0100098c0.0200195,0.0100098,0.0300293,0.0200195,0.0400391,0.0400391
					c0,0.0100098,0.0100098,0.0100098,0.0100098,0.0199585C87.2041092,81,87.2041092,81.0100098,87.214119,81.0200195
					s0.0100098,0.0100098,0.0200195,0.0200195c0.0200195,0.0099487,0.0299683,0.0199585,0.039978,0.039978
					c0.0100098,0,0.0100098,0.0100098,0.0100098,0.0100098c0.0100098,0,0.0200195,0,0.0300293,0.0199585
					c0,0,0,0,0.0099487,0.0100098v0.0100098c0.0100098,0,0.0100098,0,0.0100098,0.0200195
					c0.0100098-0.0100098,0.0200195,0,0.0200195,0.0199585h0.0100098c0.0199585,0.0200195,0.0299683,0.0400391,0.039978,0.0600586
					c0.0300293,0.039978,0.0700073,0.0699463,0.1000366,0.1099854l0.0099487,0.0100098
					c0.0200195,0.0199585,0.0300293,0.0499878,0.0500488,0.0699463c0.0099487,0.0100098,0.0099487,0.0200195,0.0199585,0.0300293
					c0.0100098,0,0.0100098,0.0100098,0.0100098,0.0200195c0.0200195,0.0199585,0.0300293,0.0299683,0.0499878,0.0499878v0.0100098
					c0.0200195,0.0199585,0.0300293,0.039978,0.0400391,0.0700073c0.0099487,0.0099487,0.0199585,0.0199585,0.0299683,0.039978
					c0,0,0.0100098,0.0100098,0.0100098,0.0299683c0.0300293,0.0200195,0.039978,0.0400391,0.039978,0.0600586
					c0.0400391,0.0499878,0.0700073,0.0999756,0.0900269,0.1499634c0.0100098,0.0200195,0.0200195,0.0300293,0.0299683,0.0499878
					c0.0100098,0.0300293,0.0200195,0.0500488,0.0400391,0.0800171c0.0299683,0.0599976,0.0599976,0.1199951,0.0899658,0.1900024
					c0.0100098,0.0100098,0.0100098,0.0300293,0.0200195,0.039978C88.044136,82.25,88.044136,82.2600098,88.0541458,82.2800293
					c0,0.0199585,0.0100098,0.039978,0.0199585,0.0599976c0,0.0199585,0.0100098,0.0299683,0.0100098,0.0499878
					c0.0100098,0.0100098,0.0100098,0.0200195,0.0100098,0.0200195c0,0.0099487,0,0.0199585,0,0.0199585
					s0,0.0100098,0.0100098,0.0100098c0,0.0100098,0.0100098,0.0200195,0.0100098,0.0300293
					c0.0199585,0.0199585,0.0199585,0.039978,0.0299683,0.0700073c0.0100098,0.0299683,0.0100098,0.0499878,0.0200195,0.0699463
					c0.0100098,0.0400391,0.0299683,0.0900269,0.039978,0.1400146c0.0100098,0.0200195,0.0100098,0.0499878,0.0200195,0.0700073
					s0.0100098,0.0499878,0.0100098,0.0700073c0.0100098,0.0200195,0.0100098,0.0499878,0.0100098,0.0700073
					C88.254158,82.9700317,88.254158,82.9899902,88.254158,83c0.0099487,0.0100098,0.0099487,0.0200195,0.0099487,0.0300293
					v0.0100098c0,0.0099487,0.0100098,0.0299683,0.0100098,0.039978c0.0100098,0.0499878,0.0100098,0.0899658,0.0100098,0.1400146
					c0.0100098,0.039978,0.0100098,0.0700073,0.0100098,0.1099854c0,0.0100098,0.0100098,0.0200195,0,0.0299683v0.0700073
					c0,0.0599976,0,0.1000366-0.0100098,0.1500244v0.0999756C88.2841263,83.6900024,88.2841263,83.6900024,88.2841263,83.7000122z
					 M100.7041092,80.2000122c-0.0100098,0.1300049-0.0100098,0.2700195-0.0199585,0.4000244v0.0099487
					c-0.0100098,0.3000488-0.0300293,0.6100464-0.0599976,0.9000244c0,0.0499878-0.0100098,0.0999756-0.0200195,0.1500244
					c-0.0700073,0.0199585-0.1199951,0.0499878-0.1900024,0.0899658c-0.8400269,0.4199829-1.0100098,2.3500366-1.8499756,2.5900269
					c-2.4900513,0.6900024-4.8200073,0.6699829-6.2300415,0.6699829h-0.3200073
					c-0.2699585,0-0.5299683-0.0700073-0.7099609-0.2799683c-0.2600098-0.3000488-0.3300171-0.710022-0.4400024-1.0700073
					c-0.1300049-0.4200439-0.3099976-0.8099976-0.4400024-1.2200317c-0.1699829-0.5700073-0.4100342-1.1199951-0.7200317-1.6300049
					c-0.5799561-1-1.3899536-1.8999634-2.3800049-2.4899902c-1.0799561-0.6199951-2.1799927-0.6799927-3.0299683-0.2000122
					c-0.5599976,0.3200073-0.9700317,0.8699951-1.1699829,1.5599976l-12.5300293-7.2299805
					c-0.0499878-2.1699829-1.5100098-4.6699829-3.3800049-5.7299805c-0.9099731-0.5400391-1.8399658-0.6799927-2.6199951-0.4000244
					c-0.039978,0.0100098-0.0899658,0.0300293-0.1400146,0.039978c0-0.0699463,0-0.1399536,0.0100098-0.2199707
					c0-0.1599731,0.0100098-0.3400269,0.0200195-0.5200195c0.0200195-0.3899536,0.0599976-0.8200073,0.0999756-1.2399902
					c0.0499878-0.4299927,0.1099854-0.8599854,0.1700439-1.2399902c0.0099487-0.0800171,0.0199585-0.1599731,0.039978-0.2299805
					c0.0599976-0.2700195,0.1199951-0.5100098,0.1699829-0.7000122c0.1199951-0.3400269,0.5200195-1.0599976,2.0200195-2.0800171
					c0.1699829-0.0999756,0.9199829-0.5200195,1.6300049-0.9199829c2.3999634-1.3400269,3.6099854-2.0300293,3.9899902-2.3699951
					c0.3099976-0.2399902,2.0800171-0.960022,3.5800171-1.4899902c1.2799683-0.0500488,2.7799683-0.0400391,3.7199707,0.0499878
					c0.3400269,0.0299683,0.6000366,0.0599976,0.7600098,0.1199951l9.5100098,5.4899902
					c0.0800171,0.0499878,0.1599731,0.0999756,0.2399902,0.1599731c0.1799927,0.1000366,0.3599854,0.2400513,0.5499878,0.3800049
					c2.7200317,2.2400513,4.3800049,3.8099976,5.4700317,4.8400269c0.3599854,0.3499756,0.6599731,0.6400146,0.9499512,0.8900146
					c0.2900391,0.2699585,0.5500488,0.4899902,0.8099976,0.6699829h-0.5199585
					c-0.0800171,0-0.1600342,0.0300293-0.2300415,0.0700073l-2.6499634,0.8800049
					c-1.7200317,0.5700073-3.3200073,1.4599609-4.710022,2.6199951l-3.1300049,2.6300049
					c-0.1699829,0.0899658-0.2600098,0.289978-0.2199707,0.4899902c0.0200195,0.1300049,0.0999756,0.2299805,0.2199707,0.2999878
					l-0.0100098,0.0200195c0.0300293,0.0200195,4.2000122,2.7700195,5.3300171,4.25
					c0.3800049,0.5100098,0.6099854,0.8800049,0.7800293,1.1400146C93.4440994,80.9800415,93.6441116,81.25,94.464119,81.460022
					c0.2299805,0.0499878,0.5400391,0.0800171,0.9000244,0.0800171c1.5299683,0,3.9500122-0.5100098,4.6300049-1.710022
					c0.1999512-0.3400269,0.4799805-0.6199951,0.7600098-0.8400269
					C100.7441483,79.3900146,100.7241287,79.7999878,100.7041092,80.2000122z M100.7641068,77.8200073
					c-0.5299683,0.3200073-1.1799927,0.8200073-1.5899658,1.5499878c-0.5400391,0.9299927-3.5100098,1.4000244-4.4800415,1.1600342
					c-0.4899902-0.1199951-0.5099487-0.1500244-0.8399658-0.6799927c-0.1799927-0.2900391-0.4199829-0.6700439-0.8300171-1.210022
					c-0.7099609-0.9299927-2.3800049-2.2299805-3.7199707-3.2000122c1.0899658,0.210022,2.2699585,0.4500122,2.8499756,0.5800171
					c0.7000122,0.1599731,1.2000122,1.6300049,1.3300171,2.3300171c0.039978,0.1900024,0.2000122,0.3399658,0.3900146,0.3800049
					c0.0799561,0.0099487,1.3199463,0.1999512,2.6799927,0.1999512c0.7299805,0,1.4799805-0.0599976,2.1099854-0.2099609
					c1.0599976-0.2600098,1.6699829-0.8200073,2.0999756-1.5100098V77.8200073z M103.2641068,86.6400146
					c-0.0799561,0.1599731-0.6499634,0.4400024-1.2599487,0.3499756c-0.3900146-0.0599976-0.4300537-0.1999512-0.4300537-0.1999512
					c0-0.1400146,0.1300049-0.5100098,0.2000122-0.710022c0.0800171-0.2299805,0.1500244-0.4400024,0.1799927-0.5999756
					c0.2800293-1.3100586,0.4700317-2.5900269,0.5599976-3.8100586c0.0800171-1.0299683,0.1100464-2.1099854,0.1199951-3.1999512
					c0,0,0-0.0400391,0-0.0599976c0.0100098-0.0100098,0.0100098-0.0200195,0.0100098-0.0300293
					c0-0.460022,0-2.7600098-0.2999878-5.460022c-0.289978-2.6999512-0.8699951-5.7999878-2.039978-7.8599854
					c-2.3400269-4.1499634-5.6100464-7.6300049-5.75-7.7799683c-0.9899902-1.4000244-3.3200073-4.9800415-3.8900146-6.1199951
					l-2.25-4.0700073c0.1300049-0.0200195,0.25-0.0499878,0.3599854-0.1099854
					c0.1400146-0.0800171,0.25-0.1900024,0.3500366-0.3300171l0.0499878-0.0900269l2.289978,4.1500244
					c0.6099854,1.0999756,3.8300171,5.2099609,4.8900146,6.6199951c0.0299683,0.039978,3.2399902,3.460022,5.460022,7.3900146
					c0.5699463,1.0100098,1.1900024,3.1199951,1.539978,4.8299561c0.1199951,0.9200439,0.2299805,1.8300171,0.3099976,2.7400513
					c0.1300049,1.5499878,0.2000122,3.1799927,0.2199707,4.9899902l0.0200195,0.8299561
					C103.9440994,80.9899902,103.9841385,83.960022,103.2641068,86.6400146z M105.3341141,70.0599976l0.710022,0.1500244
					c-0.2200317,0.0899658-0.4299927,0.2000122-0.6500244,0.2999878
					C105.3741531,70.3599854,105.3541336,70.210022,105.3341141,70.0599976z M68.0841141,70.6799927
					c-0.0100098-0.0100098-0.0100098-0.0100098-0.0100098-0.0100098s0,0,0,0.0100098
					c0.0100098,0.0100098,0.0200195,0.0300293,0.0200195,0.0400391
					C68.0941238,70.710022,68.0841141,70.6900024,68.0841141,70.6799927z M87.5841141,81.4500122
					c0.0100098,0,0.0100098,0.0100098,0.0100098,0.0200195c0.0200195,0.0199585,0.0300293,0.0299683,0.0499878,0.0499878
					C87.6241531,81.5,87.6041336,81.4700317,87.5841141,81.4500122z M88.0941238,82.4100342c0,0.0099487,0,0.0199585,0,0.0199585
					s0,0.0100098,0.0100098,0.0100098C88.1141434,82.4299927,88.1041336,82.4199829,88.0941238,82.4100342z M88.1741409,82.6099854
					c-0.0100098-0.0199585-0.0200195-0.0499878-0.0300293-0.0699463c0.0100098,0.0299683,0.0100098,0.0499878,0.0200195,0.0699463
					c0.0100098,0.0400391,0.0299683,0.0900269,0.039978,0.1400146
					C88.1940994,82.710022,88.1841507,82.6600342,88.1741409,82.6099854z M88.254158,82.9500122
					c0-0.0100098,0-0.0200195-0.0100098-0.0300293c0.0100098-0.0099487,0-0.0199585-0.0100098-0.0299683
					c0.0100098,0.0200195,0.0100098,0.0499878,0.0100098,0.0700073C88.254158,82.9700317,88.254158,82.9899902,88.254158,83
					c0.0099487,0.0100098,0.0099487,0.0200195,0.0099487,0.0300293
					C88.2641068,83.0100098,88.2641068,82.9800415,88.254158,82.9500122z M88.294136,83.3599854v0.0700073
					c0,0.0599976,0,0.1000366-0.0100098,0.1500244v0.0999756c0.0100098-0.0700073,0.0200195-0.1399536,0.0200195-0.2199707
					v-0.0300293C88.3041458,83.4000244,88.3041458,83.3800049,88.294136,83.3599854z"/>
				<path class="st4" d="M103.2641068,86.6400146c-0.0499878,0.0999756-0.2699585,0.2299805-0.5799561,0.3099976
					c0.6799927-2.6500244,0.7299805-6.0100098,0.6900024-8.8400269l-0.0200195-0.8299561
					c-0.0200195-1.8099976-0.0900269-3.4400024-0.2200317-4.9899902c-0.0799561-0.9100342-0.1900024-1.8200073-0.3099976-2.7400513
					c-0.3499756-1.7099609-0.9699707-3.8199463-1.539978-4.8299561c-2.2199707-3.9299927-5.4299927-7.3500366-5.460022-7.3900146
					c-1.0599976-1.4100342-4.2799683-5.5200195-4.8899536-6.6199951l-2.0900269-3.7800293
					c0.1099854-0.0700073,0.2000122-0.1699829,0.2800293-0.2799683l0.0499878-0.0900269l2.289978,4.1500244
					c0.6099854,1.0999756,3.8300171,5.2099609,4.8900146,6.6199951c0.0299683,0.039978,3.2399902,3.460022,5.460022,7.3900146
					c0.5699463,1.0100098,1.1900024,3.1199951,1.539978,4.8299561c0.1199951,0.9200439,0.2299805,1.8300171,0.3099976,2.7400513
					c0.1300049,1.5499878,0.2000122,3.1799927,0.2199707,4.9899902l0.0200195,0.8299561
					C103.9440994,80.9899902,103.9841385,83.960022,103.2641068,86.6400146z"/>
				<path class="st8" d="M102.6841507,86.9500122c-0.2000122,0.0499878-0.4400024,0.0800171-0.6799927,0.039978
					c-0.3900146-0.0599976-0.4300537-0.1999512-0.4300537-0.1999512c0-0.1400146,0.1300049-0.5100098,0.2000122-0.710022
					c0.0800171-0.2299805,0.1500244-0.4400024,0.1799927-0.5999756c0.2800293-1.3100586,0.4700317-2.5900269,0.5599976-3.8100586
					c0.0800171-1.0299683,0.1100464-2.1099854,0.1199951-3.1999512c0,0,0-0.0400391,0-0.0599976
					c0.0100098-0.0100098,0.0100098-0.0200195,0.0100098-0.0300293c0-0.460022,0-2.7600098-0.2999878-5.460022
					c-0.289978-2.6999512-0.8699951-5.7999878-2.039978-7.8599854c-2.3400269-4.1499634-5.6100464-7.6300049-5.75-7.7799683
					c-0.9899902-1.4000244-3.3200073-4.9800415-3.8900146-6.1199951l-2.25-4.0700073
					c0.1300049-0.0200195,0.25-0.0499878,0.3599854-0.1099854c0.0300293-0.0100098,0.0499878-0.0300293,0.0700073-0.0500488
					l2.0900269,3.7800293c0.6099854,1.0999756,3.8299561,5.2099609,4.8899536,6.6199951
					c0.0300293,0.039978,3.2400513,3.460022,5.460022,7.3900146c0.5700073,1.0100098,1.1900024,3.1199951,1.539978,4.8299561
					c0.1199951,0.9200439,0.2300415,1.8300171,0.3099976,2.7400513c0.1300049,1.5499878,0.2000122,3.1799927,0.2200317,4.9899902
					l0.0200195,0.8299561C103.4141312,80.9400024,103.3641434,84.2999878,102.6841507,86.9500122z"/>
			</g>
			<g>
				<path class="st13" d="M99.9941483,79.8300171c-0.6799927,1.2000122-3.1000366,1.710022-4.6300049,1.710022
					c-0.3599854,0-0.6700439-0.0300293-0.9000244-0.0800171c-0.8200073-0.210022-1.0200195-0.4799805-1.4099731-1.1099854
					c-0.1700439-0.2600098-0.4000244-0.6300049-0.7800293-1.1400146c-1.1300049-1.4799805-5.2999878-4.2299805-5.3300171-4.25
					l0.0100098-0.0200195c-0.1199951-0.0700073-0.1999512-0.1699829-0.2199707-0.2999878
					c-0.0400391-0.2000122,0.0499878-0.4000244,0.2199707-0.4899902l3.1300049-2.6300049
					c1.3900146-1.1600342,2.9899902-2.0499878,4.710022-2.6199951l2.6499634-0.8800049
					c0.0700073-0.039978,0.1500244-0.0700073,0.2300415-0.0700073h0.5199585
					c-0.2599487-0.1799927-0.5199585-0.4000244-0.8099976-0.6699829c0,0-2.9499512-0.1000366-3.9400024,1.0100098
					c-0.8299561,0.9199829-2.3799438,1.5499878-3.0299683,1.5499878c-0.6599731,0-1.4799805,0.4500122-2.1099854,1.8200073
					c-0.6199951,1.3099976-2.1900024,2.1300049-2.1900024,2.1300049l-4.6900024-7.4300537l-10.25-5.9199829l8.7299805-5.039978
					c-0.9400024-0.0900269-2.4400024-0.1000366-3.7199707-0.0499878c-1.5,0.5299683-3.2700195,1.25-3.5800171,1.4899902
					c-0.3800049,0.3399658-1.5900269,1.0299683-3.9899902,2.3699951c-0.710022,0.3999634-1.460022,0.8200073-1.6300049,0.9199829
					c-1.5,1.0200195-1.9000244,1.7399902-2.0200195,2.0800171c-0.0499878,0.1900024-0.1099854,0.4299927-0.1699829,0.7000122
					c-0.0200195,0.0700073-0.0300293,0.1499634-0.039978,0.2299805c-0.0600586,0.3800049-0.1200562,0.8099976-0.1700439,1.2399902
					c6.5,3.7600098,22.6500244,13.0800171,25.0499878,14.460022c2.0900269,1.2099609,2.9900513,2.4699707,3.7300415,3.3200073
					c0.0299683,0.039978,0.0599976,0.0700073,0.0899658,0.1099854c-0.0593872-0.3464966,0.0882568-0.6420898,0.4016113-0.6771851
					c0.0046997-0.0002441,0.0096436,0.0007935,0.0144653,0.0007324c0.0075073,0.005127,0.0724487,0.0492554,0.2139282,0.0964355
					c0.2800293,0.1000366,0.8500366,0.2200317,1.8500366,0.1600342c1.5499878-0.0900269,2.0099487-0.4200439,2.25-0.1199951
					c0.1999512,0.2399902,0.1399536,0.3899536-0.0800171,0.7099609c0.210022-0.1499634,0.4000244-0.3300171,0.5599976-0.539978
					c0.4299927-0.5599976,1.25-1.1799927,2.039978-1.7000122c0.0200195-0.4000244,0.0400391-0.8099976,0.0500488-1.210022
					C100.4741287,79.210022,100.1940994,79.4899902,99.9941483,79.8300171z M74.1141434,67.6500244L66.4741287,63.25
					c0.5800171-0.5899658,1.9899902-1.75,4.0300293-1.6900024c0.2299805,0.0100098,0.4499512,0.0200195,0.6599731,0.0300293
					l2.9500122,1.7099609V67.6500244z M74.964119,68.1400146v-4.3499756l4.6600342,2.6900024l3.8699951,6.5799561
					L74.964119,68.1400146z"/>
				<path class="st10" d="M98.1041336,82.4400024c-0.2800293,0.210022-0.5900269,0.3800049-0.9199829,0.5100098
					c-0.3200073-0.0700073-0.7600098-0.1599731-1.3500366-0.3499756c-1.1099854-0.3500366-1.5799561-0.7400513-1.75-0.9100342
					c0.2800293,0.1000366,0.8500366,0.2200317,1.8500366,0.1600342c1.5499878-0.0900269,2.0099487-0.4200439,2.25-0.1199951
					C98.3841019,81.9700317,98.3241043,82.1199951,98.1041336,82.4400024z"/>
			</g>
			<g>
				<path class="st13" d="M97.5541458,75.1699829c0.2699585,1.3000488-1.3500366,0.7000122-2.7300415,0.1400146
					c-0.6599731-0.2699585-1.2999878-0.1199951-1.789978,0.1199951c-0.0800171-0.0700073-0.1699829-0.1199951-0.2600098-0.1699829
					c-0.039978-0.0200195-0.0800171-0.039978-0.1099854-0.0599976c-0.0200195-0.0200195-0.0300293-0.0200195-0.0499878-0.0200195
					c-0.0800171-0.0299683-0.1600342-0.0599976-0.25-0.0799561c-0.7800293-0.1800537-2.5900269-0.5300293-3.8300171-0.7700195
					l1.8800049-1.7000122c1.5-1.3599854,3.2700195-2.3800049,5.2000122-3.0100098l2.1699829-0.7000122l0.0300293-0.0199585
					h1.9299927c0.0999756,0.3300171,0.1799927,0.6599731,0.2600098,0.9799805
					c-1.1600342,0.5-2.1400146,0.9799805-2.5500488,1.3400269C96.1041336,72.4100342,97.294136,73.8599854,97.5541458,75.1699829z"
					/>
			</g>
		</g>
		<g>
			<path class="st9" d="M100.6441116,75.25c-0.0100098,0-0.0100098,0-0.0100098,0v-0.0100098c0,0,0,0-0.0099487,0
				c-0.4700317,1.2900391-0.8600464,2.2300415-2.1800537,2.5599976c-1.3399658,0.3200073-3.3299561,0.1199951-4.0999756,0.0300293
				c-0.0299683-0.1199951-0.0700073-0.25-0.1199951-0.4000244c-0.039978-0.1499634-0.0999756-0.3200073-0.1699829-0.4799805
				c-0.0100098-0.0200195-0.0200195-0.039978-0.0300293-0.0599976c-0.039978-0.1099854-0.0899658-0.2200317-0.1499634-0.3400269
				C93.8641434,76.5300293,93.8541336,76.5,93.8341141,76.4899902c-0.0100098-0.0499878-0.0299683-0.0999756-0.0599976-0.1399536
				c-0.0100098-0.0100098-0.0100098-0.0100098-0.0199585-0.0200195c-0.0100098-0.0300293-0.0300293-0.0599976-0.0600586-0.0900269
				c0-0.0099487-0.0099487-0.0099487-0.0099487-0.0199585c-0.0200195-0.0500488-0.0400391-0.0900269-0.0700073-0.1300049
				c-0.0100098-0.0100098-0.0100098-0.0100098-0.0200195-0.0200195c-0.0299683-0.0599976-0.0700073-0.1199951-0.1099854-0.1599731
				c0,0,0-0.0100098-0.0100098-0.0100098v-0.0100098c-0.0100098-0.0100098-0.0200195-0.0300293-0.0200195-0.039978
				c-0.0100098,0-0.0100098-0.0100098-0.0100098-0.0100098c-0.1199951-0.1600342-0.2599487-0.2999878-0.4099731-0.4100342
				c0.4899902-0.2399902,1.1300049-0.3899536,1.789978-0.1199951c1.3800049,0.5599976,3,1.1600342,2.7300415-0.1400146
				c-0.2600098-1.3099976-1.4500122-2.7599487-0.1000366-3.9499512c0.4100342-0.3600464,1.3900146-0.8400269,2.5500488-1.3400269
				C100.6741409,72.6799927,100.6441116,75.2000122,100.6441116,75.25z"/>
		</g>
		<g>
			<path class="st11" d="M92.0741043,69.2999878c-0.0799561,0.0400391-0.1499634,0.0800171-0.2199707,0.1100464
				l-0.8699951-1.9900513l-2.4500122-0.2699585l-0.0200195-0.0100098l-0.0099487-0.0100098l-1.7400513-2.0299683
				l1.8000488,1.9699707c0.1699829-0.0100098,1.9199829,0.1500244,2.3799438,0.1799927
				c0.0700073,0.0100098,0.1100464,0.0100098,0.1100464,0.0100098c0.0499878,0.0100098,0.0499878,0,0.0700073,0.0499878
				l0.039978,0.0700073v0.0100098L92.0741043,69.2999878z"/>
		</g>
		<g>
			<path class="st11" d="M90.9278641,67.3062134l0.5405273-1.3680725l0.0032349,0.0587769
				c-0.0044327-0.0179672-0.4676132-1.0296631-0.464653-1.0470581c-0.0000076-0.0000305,0.0385666-1.1598206,0.0385666-1.1598206
				l0.0385742,1.15979c-0.029213-0.0814819,0.5296173,0.9989777,0.5242996,0.9803619
				c0.0159607,0.0233231,0.013855,0.0323944,0.0032883,0.0591583c0,0-0.4484253,1.4009705-0.4484253,1.4009705
				L90.9278641,67.3062134L90.9278641,67.3062134z"/>
		</g>
		<g>
			<path class="st11" d="M84.464119,69.2999878c0.0100098,0,0.1099854-0.0199585,0.2399902-0.0299683L84.464119,69.2999878z"/>
		</g>
		<g>
			<path class="st11" d="M89.4941483,70.1400146c-0.0599976,0.0299683-0.1199951,0.0800171-0.1900024,0.1400146
				l-0.7900391-0.7200317c-0.289978,0.0700073-1.7199707,0.4700317-1.75,0.4700317
				c-0.0199585,0-1.539978-0.8200073-1.5299683-0.8099976l-0.5300293,0.0499878
				c0.210022-0.039978,0.5-0.0800171,0.5400391-0.0800171l1.539978,0.7399902h0.0100098
				c0.039978-0.0499878,1.7600098-0.5700073,1.710022-0.5700073l0.0499878-0.0099487l0.039978,0.0299683L89.4941483,70.1400146z"/>
		</g>
		<g>
			<path class="st11" d="M90.5371399,69.8336029l-0.1230087,0.006424c-0.039978,0-0.0800171,0-0.1199951,0.0100098
				l-0.210022-1.1600342l-1.789978-0.5200195l-0.0200195-0.0099487l-0.0100098-0.0100098l-1.1099854-1.5499878
				c0.2299805,0.289978,1.1699829,1.4499512,1.1699829,1.4799805l1.8699951,0.4500122
				c0.0700073,0.0100098,0.0600586,0,0.0700073,0.0700073L90.5371399,69.8336029z"/>
		</g>
		<g>
			<path class="st11" d="M94.3985062,67.6878662l-0.4468994-1.5511475l0.0773926,0.0566101l-1.2855225-0.0343018
				c-0.0365829-0.0023422-0.0425186,0.0108185-0.0463181-0.0383301c-0.0000076,0-0.2834549-1.7406921-0.2834549-1.7406921
				l0.3758545,1.723114l-0.0460815-0.038147l1.2855225-0.0343018c0.0679245-0.0041962,0.0559311-0.0070343,0.0776367,0.0568008
				c0-0.0000076,0.5301514,1.5247116,0.5301514,1.5247116L94.3985062,67.6878662L94.3985062,67.6878662z"/>
		</g>
		<g>
			<path class="st1" d="M95.2241287,74.2531128c0,0-1.143486-1.23423-0.9549866-1.9926147
				c0.1885071-0.7583847,0.925148-1.3995667,1.3505936-1.7504883c0.9395599-0.7749939,2.3736267-0.8808594,2.3736267-0.8808594
				s-1.4001236,0.3894501-1.825058,1.6257095c-0.424942,1.2362671-0.0046158,2.5812454,0.2426376,3.2439194
				S95.8340454,75.0654678,95.2241287,74.2531128z"/>
		</g>
		<g>
			<path d="M84.2741165,89.0900269l-0.5499878-1.3200073c-0.0100098-0.0300293-0.039978-0.0599976-0.0700073-0.0900269
				l-1.1900024-1.039978c-0.0599976-0.0499878-0.1400146-0.0700073-0.2199707-0.0499878l-2.1000366,0.4400024
				c-0.1099854,0.0299683-0.1900024,0.1199951-0.2000122,0.2299805c-0.0099487,0.1099854,0.0600586,0.210022,0.1600342,0.25
				l1.0999756,0.4000244c0.0500488,0.2099609,0.1700439,0.5999756,0.4200439,0.9099731
				c0.3599854,0.4400024,1.9299927,0.5800171,2.4099731,0.6199951h0.0100098c0.0800171,0,0.1599731-0.039978,0.210022-0.1099854
				C84.3041458,89.2600098,84.3141556,89.1699829,84.2741165,89.0900269z M82.0141068,88.5100098
				c-0.2699585-0.3400269-0.3399658-0.8200073-0.3399658-0.8200073c-0.0200195-0.0999756-0.0800171-0.1699829-0.1600342-0.2000122
				l-0.4099731-0.1499634l1.1199951-0.2399902l1.0599976,0.9199829l0.3699951,0.8800049
				C82.8941116,88.8200073,82.1441116,88.6600342,82.0141068,88.5100098z"/>
			<path class="st13" d="M83.6541214,88.9000244c-0.7600098-0.0800171-1.5100098-0.2399902-1.6400146-0.3900146
				c-0.2699585-0.3400269-0.3399658-0.8200073-0.3399658-0.8200073c-0.0200195-0.0999756-0.0800171-0.1699829-0.1600342-0.2000122
				l-0.4099731-0.1499634l1.1199951-0.2399902l1.0599976,0.9199829L83.6541214,88.9000244z"/>
		</g>
		<g>
			<path d="M91.8341141,89.3699951C91.754158,89.25,91.0641556,88.1099854,90.2041092,88.1099854
				c-0.789978,0-1.9599609,0.5500488-2.0100098,0.5700073c-0.0899658,0.0500488-0.1399536,0.1400146-0.1399536,0.2399902
				c0,0.0400391,0.0199585,0.4800415,0.3599854,0.7900391C88.6141434,89.9000244,88.8941116,90,89.2241287,90h0.0900269
				c0.9799805-0.0499878,2.289978-0.2399902,2.3399658-0.25c0.0800171-0.0100098,0.1500244-0.0700073,0.1900024-0.1400146
				C91.8841019,89.5300293,91.8741531,89.4500122,91.8341141,89.3699951z M89.294136,89.5
				c-0.25,0.0100098-0.4199829-0.039978-0.539978-0.1499634c-0.0900269-0.0900269-0.1400146-0.2000122-0.1700439-0.2900391
				c0.3400269-0.1499634,1.1000366-0.4500122,1.6199951-0.4500122c0.3500366,0,0.7300415,0.3800049,0.9800415,0.7000122
				C90.714119,89.3699951,89.9241409,89.4700317,89.294136,89.5z"/>
			<path class="st13" d="M91.1841507,89.3099976C90.714119,89.3699951,89.9241409,89.4700317,89.294136,89.5
				c-0.25,0.0100098-0.4199829-0.039978-0.539978-0.1499634c-0.0900269-0.0900269-0.1400146-0.2000122-0.1700439-0.2900391
				c0.3400269-0.1499634,1.1000366-0.4500122,1.6199951-0.4500122
				C90.5541458,88.6099854,90.9341507,88.9899902,91.1841507,89.3099976z"/>
		</g>
		<g>
			<ellipse cx="86.1447906" cy="89.0987625" rx="0.4893425" ry="0.2446712"/>
		</g>
		<g>
			<ellipse cx="96.6723022" cy="89.5775452" rx="0.3224257" ry="0.2552315"/>
		</g>
		<g>
			<ellipse cx="93.7081757" cy="88.9432602" rx="0.5609683" ry="0.2446712"/>
		</g>
		<g>
			<path d="M110.6441116,83.460022c-0.0499878-0.0100098-1.1499634-0.2900391-1.9500122-0.3800049
				c-0.9099731-0.0900269-1.6799927,0.7999878-1.7099609,0.8399658c-0.0499878,0.0600586-0.0700073,0.1400146-0.0499878,0.2200317
				c0.0199585,0.0700073,0.0700073,0.1400146,0.1399536,0.1699829c0.2300415,0.1000366,1.3200073,0.5599976,1.960022,0.5599976
				c0.0800171,0,0.1599731,0,0.2200317-0.0199585c0.5699463-0.1400146,1.3999634-0.8800049,1.4899902-0.960022
				c0.0700073-0.0700073,0.0999756-0.1599731,0.0799561-0.25C110.794136,83.5499878,110.7241287,83.4800415,110.6441116,83.460022z
				 M109.1341019,84.3699951c-0.25,0.0599976-0.9499512-0.1499634-1.5099487-0.3800049
				c0.2399902-0.1999512,0.6300049-0.4499512,1.0099487-0.4099731c0.4500122,0.0499878,1.0100098,0.1599731,1.4000244,0.25
				C109.7441483,84.0499878,109.3841019,84.2999878,109.1341019,84.3699951z"/>
			<path class="st13" d="M110.0341263,83.8300171c-0.289978,0.2199707-0.6500244,0.4699707-0.9000244,0.539978
				c-0.25,0.0599976-0.9499512-0.1499634-1.5099487-0.3800049c0.2399902-0.1999512,0.6300049-0.4499512,1.0099487-0.4099731
				C109.0841141,83.6300049,109.6441116,83.7399902,110.0341263,83.8300171z"/>
		</g>
		<g>
			<path d="M80.2441483,83.7300415c-0.0200195,0-0.0400391-0.0100098-0.0599976-0.0100098
				c-0.710022,0.0299683-1.8900146,0.3299561-1.8600464,1.2999878c0.0100098,0.4500122,0.2000122,0.6699829,0.3600464,0.7700195
				c0.1499634,0.0999756,0.3200073,0.1299438,0.4799805,0.1299438c0.1900024,0,0.3599854-0.039978,0.4500122-0.0699463
				l1.1599731,0.0699463c0.1600342,0.0100098,0.25-0.0899658,0.2700195-0.2199707
				C81.0641556,85.5300293,81.1641312,85,81.3941116,84.7800293c0.1199951-0.1000366,0.1600342-0.2399902,0.1199951-0.3800049
				C81.4241409,84.0599976,80.7741165,83.8500366,80.2441483,83.7300415z M80.5841141,85.4100342l-0.9899902-0.0599976
				c-0.0499878-0.0100098-0.0800171,0-0.1099854,0.0099487c-0.0900269,0.0400391-0.3699951,0.1100464-0.5200195,0.0200195
				C78.8741531,85.3200073,78.8241043,85.1900024,78.8241043,85c-0.0199585-0.6499634,1.1500244-0.7600098,1.3500366-0.7699585
				c0.3200073,0.0699463,0.6499634,0.1899414,0.7999878,0.2699585
				C80.7441483,84.7700195,80.6341019,85.1600342,80.5841141,85.4100342z"/>
			<path class="st13" d="M80.9741287,84.5c-0.2299805,0.2700195-0.3400269,0.6600342-0.3900146,0.9100342l-0.9899902-0.0599976
				c-0.0499878-0.0100098-0.0800171,0-0.1099854,0.0099487c-0.0900269,0.0400391-0.3699951,0.1100464-0.5200195,0.0200195
				C78.8741531,85.3200073,78.8241043,85.1900024,78.8241043,85c-0.0199585-0.6499634,1.1500244-0.7600098,1.3500366-0.7699585
				C80.4941483,84.2999878,80.8241043,84.4199829,80.9741287,84.5z"/>
		</g>
		<g>
			<path d="M93.4411392,85.2988205c0,0-0.6977463-0.4733887-1.0274353-1.3246078
				c-0.3296814-0.8512192-0.3296814-2.3222275,0.2142715-1.3641968c0.5439606,0.9580307-0.3121262,1.6677017,1.0802002,1.9931183
				c1.3923264,0.3254089,0.5609665,0.6956863,0.5609665,0.6956863H93.4411392z"/>
		</g>
		<g>
			<path d="M97.4988556,85.2988205c0,0,0.8406601-0.8750839,0.9148331-1.5007324
				c0.0741806-0.6256409,0.0247269-0.9592896,0.6428604-1.1880722s1.1868134-0.1999817,1.1868134-0.1999817l-0.3214264,1.5641785
				l-1.050827,1.3246078H97.4988556z"/>
		</g>
		<g>
			<path d="M98.4724808,48.3619385c-0.0146484,0-0.0292969-0.0014648-0.0449219-0.0039062l-2.1767578-0.3955078
				c-0.1357422-0.0249023-0.2255859-0.1547852-0.2011719-0.2910156c0.0244141-0.1352539,0.1445312-0.2246094,0.2910156-0.2011719
				l2.1767578,0.3955078c0.1357422,0.0249023,0.2255859,0.1547852,0.2011719,0.2910156
				C98.6961136,48.2774658,98.5916214,48.3619385,98.4724808,48.3619385z"/>
		</g>
		<g>
			<path d="M97.1511917,51.3687744c-0.0615234,0-0.1230469-0.0224609-0.171875-0.0683594l-1.515625-1.434082
				c-0.1005859-0.0947266-0.1044922-0.253418-0.0097656-0.3535156c0.09375-0.0996094,0.2519531-0.1054688,0.3535156-0.0097656
				l1.515625,1.434082c0.1005859,0.0947266,0.1044922,0.2529297,0.0097656,0.3535156
				C97.2840042,51.3424072,97.217598,51.3687744,97.1511917,51.3687744z"/>
		</g>
		<g>
			<path d="M96.3328323,45.5338135c-0.1005859,0-0.1953125-0.0615234-0.2333984-0.1611328
				c-0.0498047-0.1293945,0.015625-0.2734375,0.1445312-0.3227539l2.1025391-0.7983398
				c0.1279297-0.0493164,0.2724609,0.0161133,0.3222656,0.1450195c0.0498047,0.1293945-0.015625,0.2734375-0.1445312,0.3227539
				l-2.1025391,0.7983398C96.3924026,45.5284424,96.3621292,45.5338135,96.3328323,45.5338135z"/>
		</g>
		<g>
			<path d="M95.7029495,43.5938721c-0.0625,0-0.1259766-0.0234375-0.1748047-0.0708008
				c-0.0986328-0.0966797-0.1005859-0.2548828-0.0039062-0.3535156L96.905098,41.75354
				c0.0966797-0.0976562,0.2548828-0.1015625,0.3535156-0.0048828s0.1005859,0.2548828,0.0039062,0.3535156l-1.3808594,1.4160156
				C95.8328323,43.5684814,95.7683792,43.5938721,95.7029495,43.5938721z"/>
		</g>
		<path class="st14" d="M93.2741165,41.1154099"/>
	</g>
</g>
</svg>
