<?xml version="1.0" encoding="utf-8"?>
<!-- Generator: Adobe Illustrator 27.6.1, SVG Export Plug-In . SVG Version: 6.00 Build 0)  -->
<svg version="1.1" id="Layer_1" xmlns="http://www.w3.org/2000/svg" xmlns:xlink="http://www.w3.org/1999/xlink" x="0px" y="0px"
	 viewBox="0 0 172.8999939 90" style="enable-background:new 0 0 172.8999939 90;" xml:space="preserve">
<style type="text/css">
	.st0{fill:#8493BE;}
	.st1{fill:#636E8F;}
	.st2{fill:#9DA9CB;}
	.st3{fill:#E6E6E6;}
	.st4{fill:#B3B3B3;}
	.st5{fill:#323748;}
	.st6{fill:#4A536B;}
	.st7{fill:#DBAEB3;}
	.st8{fill:#8E6368;}
</style>
<g>
	<g>
		<g>
			<g>
				<path d="M109.154068,52.4399681c0,0.0090942,0,0.0090942,0,0.0181847v24.0075455
					c0,0.1816788-0.1089935,0.3451767-0.2724915,0.4178009l-7.7027435,3.4244766l-21.2734756,9.4649353
					c-0.3179016,0.1453705-0.6630707,0.2179947-0.9991531,0.2179947C78.8789215,90,78.8607941,90,78.833519,90
					c-0.6085739,0-1.2171555-0.2089005-1.6986008-0.6085739L63.90942,78.291481
					c-0.0999031-0.0817795-0.1634941-0.2089615-0.1634941-0.3451767V51.6678963c0,0,0,0,0-0.0090904
					c0-0.0726814,0.0272751-0.1453667,0.063591-0.2089577c0.0090904-0.0181274,0.0181847-0.0363121,0.0363121-0.0454063
					c0.0363693-0.0544968,0.0817757-0.0908127,0.1362762-0.127182c0.0090904,0,0.0181847-0.0181274,0.0272179-0.0181274
					c0-0.0090942,0-0.0090942,0.0090942-0.0090942s0.0181885-0.0090904,0.0181885-0.0090904l4.6598129-1.7440071v-0.4087677
					c0-0.0181847-0.0090942-0.0363121-0.0090942-0.0544968c0-0.1544037,0.063591-0.3088608,0.1453094-0.4359894
					c0.0999603-0.1271782,0.2180481-0.2270851,0.3542709-0.3270454c0.2634506-0.1816254,0.6267548-0.3178978,1.0173416-0.3723946
					c0.5813522-0.0726852,1.0809326,0.0181847,1.3625107,0.3178978c0.0726852,0.0908661,0.127182,0.2179947,0.1362762,0.3542671
					h0.0090942v0.0272751c0,0.009037,0,0.009037,0,0.0181313c0,0,0,0,0,0.0090904v0.0817757l20.2378922-5.6408386v-0.4450798
					c0-0.0090942-0.0090942-0.0272789-0.0090942-0.0454063c0-0.1544609,0.063591-0.317955,0.1453629-0.4360428
					c0.0999069-0.1271286,0.2179947-0.2361259,0.3542709-0.326992c0.2724915-0.1816788,0.6267624-0.3178978,1.0173416-0.3723984
					c0.5812988-0.0726814,1.0809326,0.0181313,1.3625183,0.3179016c0.0817184,0.0908127,0.1362152,0.2089005,0.1453094,0.3542671
					v0.0272217l0.0090942,0.0090904c0,0.0090942-0.0090942,0.0090942-0.0090942,0.0181847v1.2444267l12.2354355,5.5136604
					c0.0090332,0.0090942,0.0090332,0.0181847,0.0181274,0.0272217c0.063591,0.0272789,0.1180878,0.0726852,0.1544571,0.1362724
					c0.0090332,0.0090942,0.0181274,0.0181847,0.0272217,0.0272217l0.0090942,0.0090942l1.6895065,3.1156158v0.0090904
					c0.0090942,0.0090942,0.0090942,0.0181847,0.0090942,0.0272789
					C109.1358871,52.3309708,109.1449738,52.3854713,109.154068,52.4399681z"/>
			</g>
			<path class="st0" d="M106.0162354,55.379158c-0.1180878-0.0817757-0.2724915-0.1089973-0.4087677-0.0545006L92.690834,60.0843773
				L82.3356857,63.899437c-0.0090942,0-0.0090942,0.0090904-0.0090942,0.0090904
				c-0.0817184,0.0272217-0.1362152,0.0817184-0.1907196,0.1453133c-0.0090866,0.0090866-0.0181808,0.0272217-0.0272751,0.0454025
				c-0.0363159,0.063591-0.0544968,0.127182-0.063591,0.2089005c0,0-0.0090942,0.0090942-0.0090942,0.0181885v0.8356628
				c0-0.0090408,0.0090942-0.0181351,0.0090942-0.0181351c0.0090942-0.0817719,0.0272751-0.1453629,0.063591-0.2089539
				c0.0090942-0.0181274,0.0181885-0.0363159,0.0272751-0.0454025c0.0545044-0.063591,0.1090012-0.1180954,0.1907196-0.1453171
				c0,0,0-0.0090866,0.0090942-0.0090866l10.3551483-3.8150635l12.9166336-4.759716
				c0.1362762-0.0544968,0.2906799-0.0272751,0.4087677,0.0545006c0.127182,0.0817719,0.1998672,0.2270851,0.1998672,0.3723946
				v-0.8356628C106.2161026,55.6062431,106.1434174,55.4608765,106.0162354,55.379158z M106.0162354,55.379158
				c-0.1180878-0.0817757-0.2724915-0.1089973-0.4087677-0.0545006L92.690834,60.0843773L82.3356857,63.899437
				c-0.0090942,0-0.0090942,0.0090904-0.0090942,0.0090904c-0.0817184,0.0272217-0.1362152,0.0817184-0.1907196,0.1453133
				c-0.0090866,0.0090866-0.0181808,0.0272217-0.0272751,0.0454025c-0.0363159,0.063591-0.0544968,0.127182-0.063591,0.2089005
				c0,0-0.0090942,0.0090942-0.0090942,0.0181885v0.8356628c0-0.0090408,0.0090942-0.0181351,0.0090942-0.0181351
				c0.0090942-0.0817719,0.0272751-0.1453629,0.063591-0.2089539c0.0090942-0.0181274,0.0181885-0.0363159,0.0272751-0.0454025
				c0.0545044-0.063591,0.1090012-0.1180954,0.1907196-0.1453171c0,0,0-0.0090866,0.0090942-0.0090866l10.3551483-3.8150635
				l12.9166336-4.759716c0.1362762-0.0544968,0.2906799-0.0272751,0.4087677,0.0545006
				c0.127182,0.0817719,0.1998672,0.2270851,0.1998672,0.3723946v-0.8356628
				C106.2161026,55.6062431,106.1434174,55.4608765,106.0162354,55.379158z M107.6694336,53.3171959l-12.9257278,4.7415886
				l-7.8117981,2.8612518l-7.0578003,2.5888176c-0.2361832,0.1089973-0.4905396,0.1725883-0.7448502,0.19981v24.5162125
				c0.1362152-0.0181274,0.2724915-0.063591,0.3996735-0.1180878l6.7853088-3.0157089v-0.7720718
				c0-0.5359497,0.3269882-1.0264359,0.8175354-1.2444305l8.9744492-3.9967346l3.923996-1.7531052
				c0.3724518-0.1634903,0.7812195,0.1090012,0.7812195,0.5086746v0.8084412l7.4302521-3.3063889v-22.227169L107.6694336,53.3171959
				z M106.2161026,72.1562576c0,0.190773-0.1180878,0.3542709-0.2906799,0.4269485l-9.8191986,3.7877808l-13.4525833,5.1957092
				c-0.0454636,0.0181808-0.1090546,0.0272751-0.1635513,0.0272751c-0.0908127,0-0.1816254-0.0272751-0.2543106-0.0726852
				c-0.127182-0.0908127-0.1998672-0.2270813-0.1998672-0.381485V65.1619949c0-0.0090408,0.0090942-0.0181351,0.0090942-0.0181351
				c0.0090942-0.0817719,0.0272751-0.1453629,0.063591-0.2089539c0.0090942-0.0181274,0.0181885-0.0363159,0.0272751-0.0454025
				c0.0545044-0.063591,0.1090012-0.1180954,0.1907196-0.1453171c0,0,0-0.0090866,0.0090942-0.0090866l10.3551483-3.8150635
				l12.9166336-4.759716c0.1362762-0.0544968,0.2906799-0.0272751,0.4087677,0.0545006
				c0.127182,0.0817719,0.1998672,0.2270851,0.1998672,0.3723946V72.1562576z M107.6876144,69.8399887
				c0,0.127182-0.0999603,0.2270889-0.2270813,0.2270889c-0.127182,0-0.2270889-0.0999069-0.2270889-0.2270889v-15.305584
				l-12.1900253,4.5507584c-0.1180878,0.0363693-0.2452164-0.0181274-0.2906799-0.136219
				c-0.0454025-0.1180878,0.0181885-0.2452698,0.1362762-0.2906761l12.344429-4.6053123l0.1453094-0.0545006
				c0.0726852-0.0272217,0.1544037-0.0181847,0.2089005,0.0181847c0.063591,0.0454063,0.0999603,0.1180916,0.0999603,0.1907158
				V69.8399887z M106.0162354,55.379158c-0.1180878-0.0817757-0.2724915-0.1089973-0.4087677-0.0545006L92.690834,60.0843773
				L82.3356857,63.899437c-0.0090942,0-0.0090942,0.0090904-0.0090942,0.0090904
				c-0.0817184,0.0272217-0.1362152,0.0817184-0.1907196,0.1453133c-0.0090866,0.0090866-0.0181808,0.0272217-0.0272751,0.0454025
				c-0.0363159,0.063591-0.0544968,0.127182-0.063591,0.2089005c0,0-0.0090942,0.0090942-0.0090942,0.0181885v0.8356628
				c0-0.0090408,0.0090942-0.0181351,0.0090942-0.0181351c0.0090942-0.0817719,0.0272751-0.1453629,0.063591-0.2089539
				c0.0090942-0.0181274,0.0181885-0.0363159,0.0272751-0.0454025c0.0545044-0.063591,0.1090012-0.1180954,0.1907196-0.1453171
				c0,0,0-0.0090866,0.0090942-0.0090866l10.3551483-3.8150635l12.9166336-4.759716
				c0.1362762-0.0544968,0.2906799-0.0272751,0.4087677,0.0545006c0.127182,0.0817719,0.1998672,0.2270851,0.1998672,0.3723946
				v-0.8356628C106.2161026,55.6062431,106.1434174,55.4608765,106.0162354,55.379158z"/>
			<polygon class="st1" points="108.2416916,75.3354645 108.2416916,76.1711807 100.8114395,79.4775162 100.8114395,78.6418533 			
				"/>
			<path class="st1" d="M86.3142395,85.0910797v0.8357162l-6.7853088,3.0157089
				c-0.127182,0.0544968-0.2634583,0.0999069-0.3996735,0.1180344v-0.8356628
				c0.1362152-0.0181274,0.2724915-0.063591,0.3996735-0.1180878L86.3142395,85.0910797z"/>
			<path class="st1" d="M79.1292572,88.2248764v0.8356628c-0.4723587,0.0817719-0.9628448-0.0363159-1.3534775-0.3269882v-0.8356628
				C78.1664124,88.1885605,78.6568985,88.3066559,79.1292572,88.2248764z"/>
			<path class="st2" d="M79.1292572,63.7086639v24.5162125c-0.4723587,0.0817795-0.9628448-0.0363159-1.3534775-0.3269882
				V63.4997597C78.2027283,63.6814423,78.675087,63.7540703,79.1292572,63.7086639z"/>
			<path class="st1" d="M77.125824,63.113018l-12.47155-10.4732399v25.0975647l12.8984985,10.8184204V63.3946037
				C77.4074097,63.3128281,77.2621002,63.2220154,77.125824,63.113018z M74.0011139,81.7613068
				c0,0.1725845-0.0998993,0.3361359-0.2633972,0.4087677c-0.063591,0.0272751-0.127182,0.0454025-0.190773,0.0454025
				c-0.1089935,0-0.2089005-0.0363083-0.2906723-0.1089935l-6.8488998-5.7407455
				c-0.0999069-0.0817184-0.1634979-0.2089005-0.1634979-0.3451233V56.5911102c0-0.1725883,0.0999069-0.3360825,0.2633972-0.4087639
				c0.1544647-0.0726852,0.3451767-0.0545006,0.4814529,0.0635872l6.8488998,5.7498398
				c0.0998993,0.0817184,0.1634903,0.2089005,0.1634903,0.3451767V81.7613068z"/>
			<path class="st3" d="M94.5206451,42.1120949h-0.0090866v0.2361794c-0.127182,0.1907158-0.5358963,0.4268951-1.0264359,0.4995766
				H93.457901c-0.3360825,0.0454063-0.6449432,0.0181847-0.8357162-0.063591
				c-0.0999069-0.0363121-0.1725922-0.0908127-0.2179947-0.1362724l-0.063591-0.1271286l0.063591-0.1453667
				c0.1180878-0.1816788,0.5359497-0.4268951,1.0264359-0.4904861c0.0090866-0.0090904,0.0181808-0.0090904,0.0272751-0.0090904
				c0.3360825-0.0454063,0.6357956-0.0181847,0.8356628,0.063591c0.0998993,0.0454063,0.1725845,0.0908127,0.2179947,0.1453094
				L94.5206451,42.1120949z"/>
			<path class="st4" d="M94.5115585,42.8841629v2.2527351c-0.127182,0.1816254-0.5358963,0.4268951-1.0264359,0.4995766H93.457901
				c-0.3360825,0.0454063-0.6449432,0.0181313-0.8447571-0.063591c-0.0908661-0.0363121-0.1635513-0.0817757-0.2089539-0.1362724
				v-2.2526779c0.2815857,0.1180916,0.6449432,0.1544037,1.0537109,0.1089973
				c0.3814926-0.0544968,0.7357559-0.190773,1.0173416-0.3723984
				C94.4843369,42.9114418,94.5024643,42.8932571,94.5115585,42.8841629z"/>
			<path class="st3" d="M71.2670441,48.5704117h-0.0090866v0.2361794c-0.127182,0.190773-0.5359497,0.4359856-1.0264359,0.4995766
				c-0.0090942,0-0.0181885,0-0.0272751,0.0090942c-0.3360901,0.0454063-0.6448898,0.0181847-0.8356628-0.063591
				c-0.1090012-0.0454063-0.1816788-0.0999069-0.2179947-0.1453133l-0.063591-0.1271782l0.063591-0.1362762
				c0.1180878-0.1907158,0.5358887-0.4359856,1.0173416-0.4995766c0.0181808,0,0.0272217-0.0090942,0.0363159-0.0090942
				c0.3360825-0.0454063,0.635849-0.0181274,0.8357162,0.063591c0.0908127,0.0454063,0.1725311,0.0999069,0.2179947,0.1453667
				L71.2670441,48.5704117z"/>
			<path class="st4" d="M71.2579575,49.3515739v2.2436409c-0.127182,0.1816788-0.5359497,0.4268951-1.0264359,0.4995804h-0.0272751
				c-0.3360901,0.0454025-0.6448898,0.0181847-0.8447571-0.063591c-0.0908127-0.0363159-0.1634979-0.0817223-0.2089005-0.136219
				v-2.2527351c0.2815857,0.127182,0.6448898,0.1634979,1.0536575,0.1089973
				c0.3815384-0.0544968,0.7357559-0.1907158,1.0173416-0.3723946
				C71.2306747,49.3697586,71.2488632,49.3606682,71.2579575,49.3515739z"/>
			<path class="st1" d="M78.3390045,59.5938911c0.0544968,0.0454063,0.1089935,0.0908127,0.1725845,0.1271248l-1.1808929,2.3708229
				L65.0862274,51.8184052l3.606102-1.3625145v1.3080177c-0.0090332,0.0181847-0.0090332,0.0363693-0.0090332,0.0544968
				c0,0.0272789,0,0.0454636,0.0090332,0.063591v0.0090942c0.0090942,0.127182,0.063591,0.2452698,0.1362762,0.3179512
				c0.2270813,0.2543106,0.635849,0.3542137,1.0991135,0.3360863L78.3390045,59.5938911z"/>
			<path class="st0" d="M108.0509186,52.2090416L80.7278976,62.2280579L80.4826813,60.17519
				c0.1998062-0.0272217,0.3996735-0.0908127,0.5903931-0.1816826l26.0240936-9.5285263L108.0509186,52.2090416z"/>
			<path class="st0" d="M105.8113632,49.2970772l-1.3897324,0.5086708
				c-1.9347839,0.2270851-6.1495132,0.6449432-9.2015381,0.4541702c-2.5524445-0.1544037-5.1775742-0.6267586-6.5764618-0.9174347
				c-0.2634048-0.0545006-0.4178009,0.2816391-0.2089005,0.4451332l4.559906,3.6424179
				c-2.4434509,0.6177216-7.3666611,1.6986542-11.1635895,1.4624748c-3.542511-0.2179909-7.0305786-1.0446167-8.6292801-1.4624748
				l-1.7530975-1.4715157c0.0454636-0.0363121,0.0817795-0.0817184,0.1090012-0.1271248
				c0.0454559-0.0545006,0.0726776-0.1180916,0.0999603-0.1816826c0.0363083-0.0817719,0.0544968-0.1725845,0.0544968-0.2543602
				v-0.7175751l20.2378922-5.6953392v0.3270493c-0.0090942,0.0181274-0.0090942,0.0363121-0.0090942,0.0544968
				c0,0.0272217,0,0.0454063,0.0090942,0.0635376v0.0090904c0.0090866,0.127182,0.063591,0.2452698,0.1362686,0.317955
				c0.2724915,0.2997131,0.7811661,0.3996735,1.3625183,0.3178978c0.3905869-0.0545006,0.7448502-0.190773,1.0264359-0.3633614
				c0.1271286-0.0999031,0.2543106-0.19981,0.3360825-0.3360825c0.0454102-0.0544968,0.0726852-0.1180878,0.0999069-0.1816254
				c0.0363083-0.0817757,0.0544968-0.1725883,0.0544968-0.254364v-0.5268517L105.8113632,49.2970772z"/>
			<polygon class="st5" points="73.0927734,62.5498505 73.0927734,64.1394501 67.1522217,59.1526489 67.1522217,57.5630455 			"/>
			<path class="st6" d="M73.0927734,65.3202896v15.4691391l-3.5879211-3.0066223
				c-0.508667-0.7812195-1.0537109-1.7621918-1.335289-2.7432175c-0.4541779-1.5623779-0.7811661-3.2155762-1.0173416-4.6053162
				V60.3334846L73.0927734,65.3202896z"/>
			<polygon class="st7" points="101.3332367,73.3863983 82.948349,80.4805679 82.948349,73.3863983 			"/>
			<polygon class="st7" points="105.3117905,57.2450905 105.3117905,63.7579651 85.3645172,64.5936279 			"/>
			<path class="st8" d="M82.9442596,65.8342133v6.2039566c3.9513321,0.0090942,17.4130096,0.0181808,21.8002701,0.0272751
				l0.5632248-0.2179947v-6.9397659L82.9442596,65.8342133z M87.0772705,69.9671707
				c0,0.3542709-0.2906723,0.6358566-0.635849,0.6358566h-0.254364c-0.3542099,0-0.6357956-0.2815857-0.6357956-0.6358566
				v-1.4351959c0-0.0363159,0-0.0726852,0.0090332-0.1090012c0.0544968-0.2997665,0.3088608-0.5268555,0.6267624-0.5268555h0.254364
				c0.3451767,0,0.635849,0.2815857,0.635849,0.6358566V69.9671707z M91.864212,69.2768173
				c0,0.1362762-0.0999069,0.2452774-0.2270889,0.2724991c-0.0181274,0.0090866-0.0363083,0.0090866-0.0544968,0.0090866h-0.9628448
				c-0.1544037,0-0.2815857-0.127182-0.2815857-0.2815857v-1.3262024c0-0.1544037,0.127182-0.2815857,0.2815857-0.2815857h0.9628448
				c0.1544571,0,0.2815857,0.127182,0.2815857,0.2815857V69.2768173z M98.3043976,70.039856v-1.5896072
				c0-0.3088608,0.2543106-0.5541306,0.5631714-0.5541306h0.3996735c0.2997665,0,0.5449829,0.2270889,0.5631714,0.5268555v1.6168823
				c0,0.317894-0.254364,0.5631714-0.5631714,0.5631714H98.867569c-0.0454025,0-0.0908127-0.0090942-0.127182-0.0181885
				C98.4860764,70.5303421,98.3043976,70.3123474,98.3043976,70.039856z M102.5917587,69.3858185
				c-0.2089005,0-0.381485-0.1725922-0.381485-0.3814926v-1.1536102c0-0.2089081,0.1725845-0.3814926,0.381485-0.3814926h0.317955
				c0.2089005,0,0.3814926,0.1725845,0.3814926,0.3814926v1.1536102c0,0.1634979-0.0999069,0.2997131-0.2452774,0.3542709
				c-0.0363083,0.0181274-0.0908051,0.0272217-0.1362152,0.0272217H102.5917587z"/>
			<polygon class="st8" points="105.3077545,64.6715088 105.3077545,64.9076843 82.9442596,65.8342133 82.9442596,65.5980377 			"/>
		</g>
		<polygon class="st1" points="91.9500198,44.0014648 91.9500198,44.9824371 71.7121277,50.6777763 71.7121277,49.6422501 		"/>
	</g>
	<path class="st2" d="M80.7278976,62.2280579l-1.198967,0.4359856c-0.5995407,0.2634583-1.3171082,0.1725883-1.8166885-0.2543068
		l-0.381546-0.3178978l1.1808929-2.3708229c0.4541702,0.3270454,0.9900665,0.4995804,1.5260086,0.4995804
		c0.1453171,0,0.2997208-0.009037,0.4450836-0.0454063L80.7278976,62.2280579z"/>
</g>
</svg>
