<?xml version="1.0" encoding="utf-8"?>
<!-- Generator: Adobe Illustrator 27.6.1, SVG Export Plug-In . SVG Version: 6.00 Build 0)  -->
<svg version="1.1" id="Layer_1" xmlns="http://www.w3.org/2000/svg" xmlns:xlink="http://www.w3.org/1999/xlink" x="0px" y="0px"
	 viewBox="0 0 172.8999939 90" style="enable-background:new 0 0 172.8999939 90;" xml:space="preserve">
<style type="text/css">
	.st0{fill:#888888;}
	.st1{opacity:0.98;}
	.st2{fill:#333399;}
	.st3{fill:#999999;}
	.st4{fill:#C9C9C9;}
	.st5{fill:#E7E7E7;}
	.st6{fill:#FF6200;}
	.st7{fill:#FF8133;}
	.st8{fill:#6666CC;}
	.st9{fill:#BF4A00;}
	.st10{fill:#333333;}
	.st11{fill:#CCCCCC;}
	.st12{fill:#C27341;}
	.st13{fill:#A16546;}
	.st14{fill:#B2B2B2;}
	.st15{fill:#4D4D4D;}
</style>
<g>
	<g>
		<path class="st0" d="M107.7928772,81.661232L88.1441727,70.3118668c-2.3352585-0.6916351-4.6671295-1.4019394-6.9660492-2.2047119
			c-2.155014-0.7525024-4.154953-1.9237137-6.3988113-2.3802719c-0.6038055-0.1228714-1.1590881-0.3526993-1.6672592-0.6551361
			l-10.7208023,6.1937408c-0.4342728,0.2509308-0.4341049,0.877861,0.0002823,1.1285629l1.3610992,0.7854538L91.4986572,89.1903
			c1.8710327,1.0797043,4.1758194,1.0795898,6.0467377-0.0002823l10.2472-5.9146118
			C108.4139404,82.9167786,108.4141083,82.0200806,107.7928772,81.661232z"/>
		<g>
			<path class="st1" d="M109.2182922,78.5773087c-0.2403259,0.9797363-0.8503876,1.7931137-1.7284698,2.2922668
				l-4.2793961,2.4678268l-1.9040833,1.0999069c-2.162796,1.2570114-4.5012741,2.7728577-7.4959488,2.0888977
				c-0.5083466-0.120163-0.6285095-0.2126236-1.1553574-0.2680817h-0.0277023
				c-0.1017151,0.3512344-0.3235321,0.6655121-0.6562653,0.8596344l-1.2200623,0.7024078
				c-0.0277023,0.0185089-0.0369492,0.0185089-0.0554581,0.0277557c-0.2403183,0.1016617-0.4990921,0.1571198-0.7856216,0.1386108
				c-0.3789825-0.0276947-0.7764206-0.1571121-1.2108078-0.4066315c-1.2940292-0.7394714-2.3754272-2.3015213-2.7913666-3.8450623
				c0,0,0,0,0-0.0092545c-0.0462036-0.0092468-0.0832062-0.0276947-0.120163-0.0462036L73.4945908,76.590126l-1.0998993,0.6285095
				c-0.0277557,0.0185013-0.0369492,0.0185013-0.0554581,0.0276947c-0.2403183,0.1017151-0.4990921,0.1571732-0.7856216,0.1386642
				c-0.3789902-0.0277557-0.7764206-0.1571121-1.2108688-0.4066849c-1.3586731-0.7764282-2.4770813-2.45858-2.8467636-4.0760803
				h-0.0092468c-0.1941223,0.0277023-0.3881836-0.0092545-0.5638046-0.1109085l-3.586235-2.0704498
				c-1.2108116-0.7024078-1.8208733-2.0888367-1.5158424-3.4475708l0.5638008-2.5602951
				c0.2588272-1.2015572,1.0167503-2.2367554,2.0796432-2.8467598l8.4479904-4.8802605
				c1.9779892-1.164608,4.2054977-0.2680206,5.1759872,0.2310715l3.6047363-1.8762703
				c0.8688354-0.4991493,1.9872437-0.6008072,3.1702957-0.2957802c0.5638046,0.1386108,1.1368561,0.378933,1.7007141,0.7024689
				l6.848938,3.965168l1.1553574,0.6654587c0.8965912,0.5175972,1.5898056,1.2662697,2.0334396,2.1813583l0.6747131,1.3956261
				l0.2495728,0.5176544l0.2218246,0.4528961c0.0739594-0.0647125,0.1386642-0.1294174,0.2125626-0.1941223
				c0.2680817-0.2495804,0.5453568-0.5083466,0.8226318-0.7579231l0.6932144-0.6377602
				c0.6100616-0.5638008,1.2108154-1.118351,1.8023682-1.6637039c1.5897522-1.4696426,3.9651718-1.5527954,5.647377-0.2125702
				c0.1109161,0.0831566,0.175621,0.2125702,0.175621,0.3512344v0.0091972
				c0.0092468,0.1386642-0.0554581,0.2588272-0.1571121,0.3512306c-0.0277557,0.0277557-0.8133774,0.7209702-1.9964905,1.7746735
				c-0.0554581,0.0554504-0.1201096,0.1109085-0.1848145,0.1663666c-0.0092545,0.0092468-0.0185013,0.0184479-0.0370102,0.0276947
				c-0.1571121,0.1479187-0.3327255,0.2957764-0.5175934,0.4621429c-0.0554581,0.0462036-0.1109085,0.0924606-0.1663666,0.1479187
				c-0.2587738,0.2310715-0.5361023,0.4805908-0.8226318,0.7301636c-0.0184479,0.0185089-0.0462036,0.0369568-0.0647049,0.0554581
				c-0.1940613,0.1756134-0.397438,0.3512344-0.6007538,0.5268478c-0.1941147,0.175621-0.3789902,0.34198-0.563797,0.4990997
				c-0.1294174,0.1201553-0.2588272,0.2403183-0.3882446,0.3512268c-0.5823059,0.517601-1.1830521,1.0537033-1.7838669,1.5805511
				c-0.0092468,0.0092545-0.0184479,0.0185089-0.0276947,0.0277023c-0.0462036,0.046257-0.1017151,0.0924606-0.1571732,0.1386642
				c-0.0091934,0.0092545-0.0091934,0.0185013-0.0184479,0.0092545c-1.765419,1.5805511-3.530777,3.1333466-4.8617554,4.2978973
				l-0.0185013,0.0185013v0.0092545c-0.7301636,0.6377563-1.3309784,1.1646118-1.7284088,1.5065918
				c-0.7948761,0.6747131-1.5527954,1.0074387-2.2275085,1.1368561l6.1280212,3.8265533
				c0.9612427,0.5915604,2.1535492,0.6100082,3.1240921,0.0462036l2.8652725-1.645195l0.8688278-0.4991531l0.0277023-0.0184479
				l0.0370026-0.0185013l0.0739594-0.0462036l0.1016617-0.0554581l0.2587662-0.1571655l0.5361023-0.3049774l0.9242859-0.5361023
				l0.0462036-0.1109085l0.295784-0.7209702l0.1109085-0.2772751c0,0,0.0739594-0.7024689,0.5268478-1.1368561
				c0.4436417-0.4344406,0.4436417-0.4344406,0.4436417-0.4344406c0.1756134,0.0739594,0.3327866,0.1756134,0.4436951,0.3512344
				l1.1646118,1.8485718C109.2921906,76.5993729,109.4585571,77.6068192,109.2182922,78.5773087z"/>
			<polygon class="st2" points="78.7039719,66.2149277 78.7039719,71.150589 70.6256638,66.4922028 73.8422165,63.4143105 			"/>
			<polygon class="st2" points="86.1259689,75.4392853 80.0904007,71.9547119 80.0904007,67.0190506 84.4899597,69.5608368 			"/>
			<path class="st3" d="M109.3902435,72.3706512l-0.2680283,0.2772751
				c-0.6377563,0.6470108-1.1646042,0.7302246-1.5527878,0.7764282c-0.1479187,0.0276947-0.2865295,0.046196-0.4251938,0.1294098
				c0,0,0,0-0.4436417,0.4343872c-0.4528885,0.4344482-0.5268478,1.1368561-0.5268478,1.1368561l-0.1109085,0.2773285
				l-0.295784,0.7209167l-0.0462036,0.1109085l-0.9242859,0.5361023l-0.5361023,0.3050308l-0.2587662,0.1571121
				l-0.1017151,0.0554581l-0.0739059,0.0462036l-0.0370026,0.0185013c-0.0462036-0.0277557-0.1109161-0.0370102-0.1663666-0.0277557
				c-0.0554581,0-0.1016617,0.0092545-0.1571121,0.0185013c-0.4806519,0.0369492-0.9704895,0.0924072-1.4603882,0.0924072h-0.120163
				c-0.3789368,0-0.7579193-0.0369492-1.0999069-0.1571121c1.1369171-0.3604889,1.94104-0.34198,2.5233459-0.3327332h0.2495193
				c0.739418,0,0.9982452-0.1479111,1.645256-1.8670731c0.2865219-0.7671738,0.5452957-1.2939682,0.7948685-1.6637039
				c0.4713974-0.6932144,0.9150391-0.8318787,1.4418869-0.9057846c0.3327332-0.046257,0.6008072-0.0832062,1.0166931-0.5084
				l0.0370102-0.0369568l0.2403183-0.2403183c0.2403259-0.2403259,0.4621429-0.4713974,0.6469574-0.6932144
				c0.0739594-0.0831528,0.1479187-0.1663666,0.2126236-0.2403259c0.0739594-0.1016541,0.1571121-0.2125702,0.2218246-0.3234787
				c0.1016541-0.1571121,0.1848679-0.3050308,0.2403183-0.4713974c0.0277023-0.0554504,0.0554581-0.1109085,0.0647049-0.1663589
				c0.175621-0.5638046,0.1478653-1.2385178-0.1756134-2.1998062c-0.0832138-0.2495804-0.1756134-0.4713974-0.2588272-0.6747131
				c-0.0184479-0.0370102-0.0277023-0.0647049-0.0462036-0.0924606c-0.0554581-0.1201096-0.1109085-0.2218246-0.1571121-0.3234787
				c-0.0185013-0.0369492-0.0462036-0.0647049-0.0647049-0.1016617c-0.1941223-0.3512344-0.397438-0.6192551-0.6008072-0.8318787
				l-0.0092545-0.0092545c-0.0924072-0.1016541-0.1848145-0.1848068-0.2680206-0.2587662
				c-0.0092545-0.0092545-0.0277023-0.0185089-0.0369568-0.0277557c-0.046257-0.0369492-0.1017151-0.0739059-0.1479187-0.1016617
				c-0.0923996-0.0739594-0.1848679-0.120163-0.2587662-0.1478577c-0.0370102-0.0277557-0.0739594-0.0370102-0.1109085-0.046257
				c-0.0370102-0.0184479-0.0647125-0.0277023-0.0924683-0.0369568c-0.0092468,0-0.0184479,0-0.0184479,0
				c-0.0647049-0.0185013-0.1109619-0.0185013-0.1386642-0.0185013c-0.2310715,0.046257-0.5175934-0.0831528-0.5915527-0.3049774
				c-0.0369492-0.1294098,0-0.268074,0.0832062-0.3789825c0.0184479-0.0184479,0.0277023-0.0462036,0.0462036-0.0647125
				c0.0185089-0.0276947,0.0369568-0.0462036,0.0554581-0.0554504c0.0369492-0.0369568,0.0832062-0.0647125,0.1294098-0.0831528
				c0.2680283-0.1109123,0.6007538-0.295784,0.9242859-0.5638046c0.0462036-0.0370064,0.0924072-0.0739594,0.1386108-0.120163
				c0.2865295-0.2495728,0.5453568-0.5730515,0.7486725-0.9889908c0.0370102-0.0554581,0.0554504-0.1109123,0.0832062-0.1756172
				c0.0092545-0.0092545,0.0092545-0.0185051,0.0092545-0.0277557c0.0184479-0.0276985,0.0277023-0.0462036,0.0277023-0.0647087
				c0.0370026-0.1016579,0.0739594-0.2033157,0.1017151-0.3049736c0.0462036-0.1848679,0.0923996-0.3882408,0.1109085-0.6100616
				c0.2125702-2.0426369-1.4603882-3.2350006-2.0057449-3.5584793c-0.1386108-0.0647049-0.221817-0.1294136-0.2402649-0.1479187
				c-0.0555115-0.0461998-0.1017151-0.1016579-0.1294174-0.1663628c-0.0277557-0.0647087-0.0462036-0.1294136-0.0462036-0.2033157
				c0-0.08321,0.0277023-0.1663666,0.0739059-0.2403259c0.1294098-0.1941185,0.388237-0.2680206,0.6008072-0.1571121
				c0.0092545,0.0091972,0.0739594,0.036953,0.1571121,0.0831566c0.0462036,0.0185013,0.120163,0.0277557,0.1848679,0.0092506
				c0.0832138-0.036953,0.3881836-0.2033157,0.6470184-1.1461067c0.1201553-0.4436378,0.221817-0.859581,0.2772675-1.2570152
				c0.1294174-0.7764244,0.1294174-1.4696426-0.0739517-2.1351013c-0.0092545-0.0277557-0.0184479-0.0647049-0.0277023-0.0924606
				c-0.0092545-0.0647087-0.0370102-0.1386108-0.0739594-0.2033157c-0.0092545-0.0277557-0.0185013-0.0462036-0.0277557-0.0739594
				c-0.0184479-0.0739594-0.0554581-0.1478615-0.1016541-0.2218208c-0.0369568-0.0739594-0.0739059-0.1479187-0.120163-0.2218208
				c-0.0277023-0.0647049-0.0739059-0.1386642-0.120163-0.2126236c-0.2402649-0.3696785-0.5545502-0.7301636-0.9612427-1.0999031
				c-0.5453491-0.4990921-1.0906448-1.081398-1.6267471-1.6359482c-1.5250397-1.5898018-3.1055908-3.2350006-4.7323456-3.3551636
				c-0.5268478-0.0370064-1.1368561-0.1109123-1.7931137-0.1941223c-2.1258545-0.2495728-5.0281219-0.60075-6.0540695,0.2680817
				c-0.1571121,0.1293564-0.3697357,0.1478615-0.5361023,0.0462036c-1.081398-0.6470146-3.0778351-1.6452599-3.8450089-1.5805511
				c-1.201561,0.0924034-3.0409393,0-3.1148376,0c-0.0739594-0.0092545-0.1479187-0.0276985-0.2126236-0.0647087
				c-0.0277023-0.0184479-3.2534485-1.8670197-5.5641708-1.6637039c-0.1571655,0.0092506-0.3050308,0.036953-0.4621429,0.0647087
				c-0.2588272,0.0461998-0.5175934,0.1109085-0.7671738,0.1941185c-0.1201553,0.036953-0.2403183,0.0831566-0.3604813,0.1293564
				c-0.0369492,0.0185051-0.0739059,0.0277557-0.1016617,0.0462036c-0.1109085,0.0462608-0.221817,0.0924644-0.3327255,0.1479187
				c-0.3142853,0.1478615-0.6100616,0.3142242-0.8965912,0.5083466c-0.1016541,0.0647049-0.2033157,0.1386642-0.3049698,0.2125664
				c-0.1386642,0.0924644-0.2680817,0.1941223-0.3974915,0.3050308h-0.009201
				c-0.1571655,0.1294136-0.3142776,0.2680779-0.4529419,0.4066887c-0.1571198,0.1386642-0.295723,0.2772751-0.4158859,0.4251938
				c-0.0924606,0.0924034-0.1663666,0.1756134-0.2218781,0.25877c-0.0831528,0.0924606-0.1478577,0.1756172-0.2033157,0.2588272
				c-0.0277557,0.0276985-0.0554581,0.0554543-0.0647049,0.0831528c-0.0462036,0.0554543-0.0924072,0.1109123-0.120163,0.1756172
				c-0.0647049,0.08321-0.1109085,0.1663666-0.1663666,0.2495766c-0.4436417,0.7579193-0.0185013,1.1553574,1.3309784,2.0981483
				c0.3697357,0.25877,0.7579193,0.5268478,1.127655,0.8318214c1.4603348,1.201561,5.8968964,2.144352,7.8101807,2.4124336
				c0.7764206,0.1109085,1.6267471,0.4713364,2.449379,0.8225708c1.2385101,0.5268517,2.5232849,1.0814552,3.1148376,0.5268517
				c0.3789368-0.3512344,0.6192627-0.6932182,0.8318863-0.9982452c0.4713364-0.6747131,0.905777-1.3124733,2.3014603-0.7856216
				c0.9889984,0.378933,1.2662659,1.3587303,1.5342941,2.3107147c0.2403183,0.8318825,0.4806442,1.7007141,1.2200623,2.2275047
				c1.6729584,1.1831169,3.2164993,1.8116226,3.2350006,1.8208771c0.1848679,0.0739555,0.3050308,0.25877,0.295784,0.4528885
				c-0.0185089,0.1941223-0.1478653,0.3697395-0.3419876,0.4159431c-1.072197,0.305027-3.2350006,1.2570152-3.0501328,2.2552605
				c0.2680283,1.4695816,2.0703964,2.1627998,2.0796432,2.1720505c0.129364,0.0462036,0.2218246,0.1479187,0.2680283,0.2680779
				l0.4066849,1.0536461l-0.6932144,0.6377602c-0.0462036-0.0462036-0.0924072-0.1016579-0.1109085-0.1663666l-0.3881836-1.0166931
				c-0.5730515-0.2588272-2.1721115-1.1276588-2.4678879-2.7728577c-0.2680206-1.4603882,1.4141846-2.4308777,2.6157455-2.9299736
				c-0.6377563-0.3235359-1.4880829-0.8041801-2.3846741-1.4418831c-1.0074387-0.7117195-1.303215-1.7839241-1.5712433-2.7266579
				c-0.2588272-0.9150352-0.4436951-1.4881439-0.9797363-1.6914597c-0.7117233-0.2772751-0.7764282-0.1756172-1.2108688,0.4436378
				c-0.2310715,0.3235359-0.5083466,0.7302246-0.9612427,1.1461067c-1.0351944,0.9705467-2.5972443,0.2957802-4.1038361-0.3511772
				c-0.7671738-0.3327866-1.5620422-0.6655159-2.2182541-0.7579231c-1.589798-0.221817-6.5254593-1.1831131-8.2723694-2.6157455
				c-0.3512344-0.2865257-0.7117233-0.5453529-1.0629578-0.7856216c-1.1830521-0.822628-2.5232773-1.7561646-1.5989914-3.3274651
				c1.0444489-1.7746124,3.4383163-3.6878929,5.989357-3.9189644c2.3754196-0.2125664,5.4163055,1.3956833,6.0078583,1.7284126
				c0.4159393,0.0185013,1.9132843,0.0739555,2.9022751,0c1.1184082-0.0924072,3.3274078,1.1091537,4.1130905,1.5527916
				c1.4326324-0.8872757,4.1130829-0.5638008,6.4977036-0.2772751c0.6377563,0.0739594,1.2385635,0.1478615,1.7469101,0.1848717
				c1.9872437,0.1571121,3.6878967,1.9225311,5.3331528,3.6416893c0.5452957,0.5730553,1.0628967,1.1091576,1.5897446,1.5897446
				c2.403183,2.1905556,2.0519485,4.3811111,1.4880905,6.4423065c-0.1940613,0.7301674-0.4805908,1.2477646-0.8318253,1.5435448
				c0.8226318,0.7301674,1.8115692,1.9964333,1.6267548,3.8358116c-0.1294174,1.2662659-0.7486725,2.3384132-1.7469177,3.0685806
				c0.7117233,0.4344406,1.497345,1.3494797,2.0426941,2.9577255
				C111.728714,69.9859772,110.6380615,71.0858765,109.3902435,72.3706512z"/>
			<path class="st4" d="M107.0980301,57.1384277c0,0,0.0379105,0,0.0913315,0
				c0.0015793-0.0821953,0.0178299-0.1648979,0.0657806-0.2403259c0.1294098-0.1941185,0.388237-0.2680206,0.6008072-0.1571121
				c0.0092545,0.0091972,0.0739594,0.036953,0.1571121,0.0831566c0.0462036,0.0185013,0.120163,0.0277557,0.1848679,0.0092506
				c0.0832138-0.036953,0.3881836-0.2033157,0.6470184-1.1461067c0.4020615-1.4822769,0.528595-2.6594658,0.0719223-3.76157
				C108.6257782,53.663269,106.2292557,55.4008751,107.0980301,57.1384277z"/>
			<path class="st5" d="M109.6022263,61.2127724c-0.0184479,0.2218208-0.0647049,0.4251938-0.1109085,0.6100044
				c-0.0554581,0.2126236-0.1293564,0.3974915-0.2218246,0.5731087c-0.0647049-0.4898987-0.2310715-1.1831131-0.5915527-2.0334396
				c-0.7301636-1.6914597-4.0668259-1.2108154-5.8414993-2.0981483c-1.2200089-0.600811-1.5250397-1.940979-1.9779282-2.9577293
				c0,0,0,0,0-0.0092506c-0.1571732-0.3327293-0.3235321-0.6285095-0.5546036-0.8503304
				c-0.5083466-0.7486687-0.9335403-3.3828621-1.7099075-3.8727608c-1.2940292-0.8041267-2.3107224-1.9132805-5.1667862-3.197998
				c-2.8467636-1.2755165-5.4902649-0.1109657-8.5958557-0.1109657s-4.8154984-1.2200089-5.8507538-1.340168
				c-0.8872757-0.1017151-1.5897446-0.8688316-2.4678268-2.3292198c1.0167465-0.8410759,2.3107147-1.4973412,3.6231918-1.6082497
				c2.3107147-0.203373,5.5365219,1.6451988,5.5642166,1.6637039c0.0647125,0.0369492,0.1386642,0.0554543,0.2125702,0.0647049
				c0.0739594,0,1.9132767,0.0924072,3.1148987,0c0.7671127-0.0647049,2.7636032,0.9335403,3.8450089,1.5805511
				c0.1663589,0.1016579,0.3789291,0.0831528,0.5361023-0.0462608c1.0259399-0.8688316,3.928215-0.5175972,6.0540619-0.2680206
				c0.6562653,0.08321,1.2662659,0.1571121,1.7931213,0.1941185c1.6267471,0.120163,3.2072449,1.7653656,4.732338,3.3551674
				c0.5361023,0.5545464,1.081398,1.1368523,1.6267548,1.6359482c0.6470108,0.5915565,1.0537033,1.164608,1.3032227,1.7561646
				c-0.295784,1.7376633-2.6896515,3.4753265-1.8208237,5.2129898c0,0,0.0369568,0,0.0924072,0
				c0,0.1386108,0.0462036,0.2772751,0.1663666,0.3696823c0.0185013,0.0185051,0.1016617,0.08321,0.2403259,0.1479187
				C108.1418915,57.9777679,109.8148499,59.1700783,109.6022263,61.2127724z"/>
			<path class="st6" d="M105.6468887,62.0925903c-1.0628891,0.942791-3.2257462,2.8652649-5.5364609,4.907959
				c-0.0554581,0.0554504-0.120163,0.1109085-0.1848679,0.1663666c-0.979744,0.8688278-1.9779892,1.7561646-2.9299774,2.5972366
				v0.0092545c-0.0092468,0-0.0092468,0-0.0185013,0.0092545v0.0092468h-0.0092545c0,0-0.0091934,0.0092545-0.0091934,0.0184479
				c-0.1571732,0.1386719-0.3142853,0.2773361-0.4713974,0.4066925c-0.0739594,0.0554504-0.1479187,0.120163-0.221817,0.1941223
				c-0.0092545,0-0.0185013,0.0092468-0.0370102,0.0277557c-0.1848679,0.1571121-0.3696823,0.3234711-0.5452957,0.4805908
				c-0.046257,0.0277557-0.0832138,0.0647049-0.120163,0.1109085c-0.0185013,0-0.0277557,0.0185013-0.0370026,0.0277557
				c-0.2033234,0.1756134-0.397438,0.3512344-0.591507,0.5175934c-0.0185013,0.0185089-0.046257,0.0369568-0.0739594,0.0647125
				c-0.1016541,0.0923996-0.2125626,0.1848679-0.3142776,0.2772751c-0.0924072,0.0923996-0.1848679,0.1756134-0.2772751,0.2495728
				c-0.0092545,0-0.0185013,0.0091934-0.0277023,0.0184479c-0.0924606,0.0739594-0.1756134,0.1571655-0.268074,0.2403259
				c-0.1848679,0.1571121-0.3696823,0.3235321-0.5453033,0.4713898c-0.4159393,0.3697357-0.7671738,0.6747131-1.0351944,0.9057846
				c-1.4326859,1.2293167-2.6527557,1.0537033-3.364418,0.739418l-0.221817-0.1386108
				c1.2662659-1.1461029,4.7415924-4.3441544,8.0227966-7.3665924
				C99.6852341,64.6621323,102.6429596,62.4253197,105.6468887,62.0925903z"/>
			<path class="st7" d="M101.9035416,62.3514175c-1.2952652,1.1961441-3.1497574,2.9084778-5.0733643,4.6825867
				c2.8536987-2.3723221,5.8137436-4.610096,8.8164368-4.9410782c0.0862503-0.0763817,0.1693497-0.1499481,0.2406006-0.2129059
				C104.6116943,61.15905,103.0126953,61.3254166,101.9035416,62.3514175z"/>
			<path class="st8" d="M96.3763275,66.1871719c-3.7526016,3.4660721-7.1262665,6.5716629-8.2446747,7.5791626l-2.0149384-4.6953964
				l9.0487976-5.2221832l0.9981918,2.0518875C96.2099075,66.0115585,96.2931137,66.1132126,96.3763275,66.1871719z"/>
			<path class="st6" d="M77.2805405,58.8945389l-4.3718643,2.5325928c-0.0185013,0.0091934-0.0277557,0.0184441-0.0370026,0.0276985
				c-0.0184479,0.0092506-0.0277023,0.0185013-0.0462036,0.0277557l-3.539978,3.2350044l-3.7156525-1.3494797l8.272377-4.7877998
				C75.0807343,57.8593407,76.6612778,58.5618095,77.2805405,58.8945389z"/>
			<path class="st9" d="M107.338356,77.0475388c-3.2350082,2.0519485-8.5311508,5.2776947-9.991539,5.2684402
				c-1.3124695,0-2.5879898-0.3697357-3.7341537-0.9889908c-1.0536423-0.5730515-1.940979-1.3679276-2.8929672-2.0796432
				c-0.1017151-0.0739594-0.2033691-0.1571121-0.3142776-0.221817c-2.6804581-1.9779892-5.6935806-3.4475708-8.5681534-5.1113358
				c-2.4123764-1.3956223-4.8154984-2.7913055-7.2186813-4.1869888c-1.4141235-0.8226242-2.8190613-1.7007141-4.270195-2.449379
				c-0.859581-0.4343872-4.6029282-1.7838669-6.1187744-2.3384171c-0.0185013,0.0554581-0.0369492,0.1109085-0.0462036,0.1663666
				l-0.5638008,2.5694885c-0.1294136,0.5730515,0.1293602,1.1553574,0.6469536,1.4511337l2.5417938,1.4603882
				c0.2495728-0.5361023,0.6377563-0.9520416,1.1461639-1.2108154c0.905777-0.4713898,2.0241852-0.3697357,3.1517868,0.2865295
				c0.6285095,0.3604813,1.2200699,0.8688278,1.7376633,1.4880905l0.0092545,0.0092468
				c0.961235,1.1368561,1.6729584,2.5972443,1.8855209,4.0114288l10.4998856,6.0540695
				c0.120163-1.0814056,0.6008072-1.9040298,1.3864288-2.356926c0.9242859-0.5268478,2.0704498-0.4436951,3.2442551,0.2402725
				c0.1109085,0.0647049,0.221817,0.1294098,0.3327255,0.2033691c1.6360092,1.1091537,2.9392853,3.1610489,3.2905197,5.1667328
				c2.341362,0.7919769,3.5492249-0.1848145,5.1944809-0.8225708c0.5823059-0.2310715,1.1461105-0.4991531,1.6914062-0.8133774
				l6.1927338-3.5677338c0.4251862-0.2495728,0.7301636-0.6562653,0.8503265-1.1369095
				C107.5139694,77.7685089,107.4862137,77.3895187,107.338356,77.0475388z"/>
			<path class="st6" d="M107.1904373,76.7425079l-0.1293564-0.2125702l-6.5717239,3.7895508
				c-0.6100006,0.3512344-1.2939682,0.5268555-1.9779282,0.5268555c-0.7302246,0-1.4511414-0.1940689-2.0981522-0.6007538
				l-7.9026337-4.9357147c-0.4898987-0.2310715-0.7856827-0.4898453-0.7948761-0.4990921
				c-0.0092545-0.0092545-0.0092545-0.0277557-0.0185013-0.0370102c-0.0277557-0.0277023-0.0462036-0.0554581-0.0647049-0.0924072
				c-0.0092545-0.0185013-0.0185089-0.0462036-0.0277557-0.0647049c-0.0184479-0.0369492-0.0184479-0.0739594-0.0184479-0.120163
				c-0.0092545-0.0184479-0.0092545-0.0277023-0.0092545-0.0462036v-0.0276947
				c0.0092545-0.0370102,0.0185013-0.0647125,0.0369492-0.1017151c0.0092545-0.0277023,0.0092545-0.0554581,0.0185089-0.0739059
				c0.0092468-0.0092545,0.0092468-0.0185013,0.0092468-0.0185013c0.0184479-0.0369568,0.0462036-0.0554581,0.0739594-0.0832138
				c0.0184479-0.0091934,0.0184479-0.0276947,0.0369492-0.0369492c0.0369568-0.0369492,0.1663666-0.1478653,0.3789368-0.34198
				l-2.0149384-4.6953964l9.0487976-5.2221832l-0.2403183-0.4806442c-0.175621-0.3697395-0.4251938-0.7024689-0.7209702-0.9704895
				l-8.9008865,5.129776c-0.7024689,0.4066925-1.5620499,0.4066925-2.2737122,0l-9.4184799-5.4348068l-0.1941223,0.1109085
				l-3.7156448,3.3829193c-0.0647049,0.0554581-0.1478653,0.0831528-0.2218246,0.1016617
				c-0.0276947,0.0092468-0.0647049,0.0184479-0.0923996,0.0184479c-0.0554581,0-0.1016617-0.009201-0.1571198-0.0277023
				l-4.5105209-1.6360016c-0.2218781,0.2588272-0.388237,0.563797-0.4898987,0.8965836
				c1.5158463,0.5545502,5.2591934,1.9040298,6.1187744,2.3384171c1.4511337,0.7486649,2.8560715,1.6267548,4.270195,2.449379
				c2.403183,1.3956833,4.8063049,2.7913666,7.2186813,4.1869888c2.8745728,1.663765,5.8876953,3.1333466,8.5681534,5.1113358
				c0.1109085,0.0647049,0.2125626,0.1478577,0.3142776,0.221817c0.9519882,0.7117157,1.839325,1.5065918,2.8929672,2.0796432
				c1.1461639,0.6192551,2.4216843,0.9889908,3.7341537,0.9889908c1.4603882,0.0092545,6.7565308-3.2164917,9.991539-5.2684402
				C107.3013458,76.9366302,107.2551422,76.844223,107.1904373,76.7425079z M78.7039719,71.150589l-8.0783081-4.6583862
				l3.2165527-3.0778923l4.8617554,2.8006172V71.150589z M80.0904007,71.9547119v-4.9356613l4.399559,2.5417862l1.6175003,5.8044968
				l0.0185089,0.0739517L80.0904007,71.9547119z"/>
			<path class="st10" d="M103.7613678,77.3710709L102.89254,77.870163l-2.8653259,1.6452026
				c-0.9704895,0.563858-2.162796,0.5453568-3.1240921-0.0462036l-6.1279678-3.826561
				c0.6747131-0.1293564,1.4326324-0.4621429,2.2275085-1.1368484c0.3974304-0.3419876,0.9982452-0.8688354,1.7284088-1.5065918
				c-0.0462036,0.1479187-0.4713974,1.9225311,1.1461029,2.6804504c1.6914597,0.7948761,3.1702957,0.8688354,3.5677338,1.3864288
				c0.16642,0.2125702,0.3604889,0.3696823,0.5268478,0.4713974c0.2403259,0.1571121,0.4344482,0.2125702,0.4344482,0.2125702
				s0.1940613-0.0092545,0.4898453-0.0277557c0.6193085-0.0369568,1.7007065-0.1293564,2.551033-0.295723
				C103.5579987,77.4172745,103.6597137,77.3895187,103.7613678,77.3710709z"/>
			<path class="st7" d="M94.2042236,62.3976212l-8.9008865,5.129776c-0.7024689,0.4066925-1.5620499,0.4066925-2.2737122,0
				l-9.4184799-5.4348068l7.8009796-4.5105247l1.1738052-0.6100044c0.8688354-0.5084,2.1443558-0.1294136,3.0501938,0.3881874
				l8.0042953,4.6214294C93.8437347,62.101841,94.0378571,62.2404518,94.2042236,62.3976212z"/>
			<path class="st0" d="M70.7690735,73.4844818c-0.2364426-0.1365128-0.4255753-0.4659119-0.4248123-0.7358017
				c0.0007706-0.2716751,0.1911469-0.3801727,0.4275894-0.2436676c0.2348709,0.1356049,0.4240189,0.4632263,0.4232483,0.7348938
				C71.1943283,73.5098038,71.003952,73.6200867,70.7690735,73.4844818L70.7690735,73.4844818z M70.3466187,71.9175644
				c-0.7855072-0.4535141-1.4253235-0.0888977-1.427887,0.8137131c-0.0025558,0.9026108,0.63311,2.003624,1.4186172,2.4571304
				c0.7854996,0.4535141,1.4237747,0.0880051,1.4263306-0.8145981
				C71.7662354,73.4711914,71.1321259,72.3710785,70.3466187,71.9175644L70.3466187,71.9175644z"/>
			<path class="st11" d="M70.7718506,72.5050125c-0.2364426-0.1365051-0.4268188-0.0280075-0.4275894,0.2436676
				c-0.0007629,0.2698898,0.1883698,0.5992889,0.4248123,0.7358017c0.2348785,0.1356049,0.4252548,0.025322,0.4260254-0.2445755
				C71.1958694,72.9682388,71.0067215,72.6406174,70.7718506,72.5050125L70.7718506,72.5050125z"/>
			<path class="st0" d="M89.1286545,84.0818939c-0.2364349-0.1365051-0.4255753-0.4659042-0.4248047-0.7358017
				c0.0007706-0.2716675,0.1911469-0.3801727,0.4275818-0.2436676c0.2348785,0.1356125,0.4240189,0.4632263,0.4232483,0.7349014
				C89.5539169,84.1072159,89.363533,84.2174988,89.1286545,84.0818939L89.1286545,84.0818939z M88.7061996,82.5149765
				c-0.7854996-0.4535065-1.4253235-0.0888977-1.4278793,0.8137207c-0.0025635,0.9026031,0.6331024,2.0036163,1.4186096,2.4571304
				s1.4237747,0.0880051,1.4263306-0.8146057C90.125824,84.0686111,89.4917068,82.9684906,88.7061996,82.5149765
				L88.7061996,82.5149765z"/>
			<path class="st11" d="M89.1314316,83.1024246c-0.2364349-0.1365051-0.4268112-0.0279999-0.4275818,0.2436676
				c-0.0007706,0.2698975,0.1883698,0.5992966,0.4248047,0.7358017c0.2348785,0.1356049,0.4252625,0.025322,0.4260254-0.2445679
				C89.5554504,83.5656509,89.3663101,83.2380371,89.1314316,83.1024246L89.1314316,83.1024246z"/>
			<path class="st7" d="M108.6785812,72.4446106c0,0-1.3956833,0.1109085-2.4308777,1.0074387
				c-0.0370102,0.0370102-0.0739594,0.0554581-0.1109085,0.0924606c-0.9335403,0.8872833-1.0537033,2.4863358-1.3402328,3.2257538
				c-0.0277557,0.0739594-0.0554504,0.1478577-0.0924606,0.2033157c-0.1016541,0.1571732-0.4621429,0.2957764-0.9427338,0.3974915
				c-0.1016541,0.0184479-0.2033691,0.0462036-0.3142853,0.0554581c-0.8503265,0.1663666-1.9317245,0.2587662-2.551033,0.295723
				c-0.295784,0.0185013-0.4898453,0.0277557-0.4898453,0.0277557s-0.1941223-0.0554581-0.4344482-0.2125702
				c-0.1663589-0.1017151-0.3604279-0.2588272-0.5268478-0.4713974c-0.397438-0.5175934-1.8762741-0.5915527-3.5677338-1.3864288
				c-1.6175003-0.7579193-1.1923065-2.5325317-1.1461029-2.6804504v-0.0092545l0.0092545-0.0091934l0.0092468-0.0092545
				c0.0647125-0.2126236,0.2587738-0.4251938,0.4251404-0.6193085c0.0185013-0.0277023,0.0370026-0.0462036,0.0554504-0.0739059
				c0.0185089-0.0370102,0.0462646-0.0647049,0.0647049-0.0924606c0.0647125-0.0924072,0.120163-0.175621,0.1848755-0.2680206
				l0.3974304-0.5545502l0.0185089-0.0277557c0.0092468-0.0185089,0.0276947-0.0369568,0.0369492-0.0462036
				c0.0462036-0.0554581,0.1017151-0.1109085,0.1479187-0.1571121c0.4251328-0.3974991,0.9335403-0.7024689,1.3309708-1.1276627
				c0.2680283-0.2865219,0.517601-0.4898453,0.8133774-0.6654587h0.0091934
				c0.0185089-0.0092545,0.0370102-0.0185013,0.0554581-0.0277557h0.0092545
				c0.0277557-0.0185013,0.0647049-0.0277023,0.0924606-0.0462036c0.0277023-0.0092545,0.0554581-0.0277557,0.0924072-0.0462036
				h0.0092545c0.0092468,0,0.0185013-0.0092468,0.0276947-0.0092468c0.0739594-0.0370102,0.1571732-0.0739594,0.2310715-0.1109161
				c0.046257-0.0185013,0.0924606-0.0370026,0.1386642-0.0647049c0.0185089-0.0092545,0.0369568-0.0185013,0.0554581-0.0277557
				c0.2310715-0.0831528,0.4621429-0.1940613,0.6655121-0.3327255c0.009201,0.0092468,0.009201,0,0.0184479-0.0092545
				c0.0554581-0.0462036,0.1109085-0.0924072,0.1571732-0.1386108c0.0091934-0.0092545,0.0184479-0.0185013,0.0276947-0.0277557
				c0.0647125-0.0647049,0.1294174-0.1386108,0.1663666-0.2310715c0.0185013-0.0092545,0.0277557-0.0185013,0.0277557-0.0369492
				c0.0184479-0.0185013,0.0277023-0.0370102,0.0369492-0.0647049c0.0092545-0.0185089,0.0185089-0.0369568,0.0277557-0.0554581
				c0.0277023-0.0647049,0.0554581-0.1294098,0.0831604-0.1848679c0.0092468-0.0185013,0.0185013-0.0369492,0.0277557-0.0462036
				c0.0554504-0.1016541,0.1109085-0.1848679,0.1756134-0.2680817c0.0462036-0.0554504,0.1016617-0.1109085,0.1478577-0.1571121
				c0.0832138-0.0831528,0.175621-0.1478577,0.2680283-0.2125626c0.0832062-0.0554581,0.16642-0.1016617,0.2588272-0.1386719
				c0.0092468-0.0092468,0.0185013-0.0184479,0.0276947-0.0184479c0.0185089-0.0092468,0.0462646-0.0185013,0.0647125-0.0277557
				c0.046257-0.0185013,0.1017075-0.0369492,0.1571655-0.0554504c0.0091934-0.0092545,0.0277023-0.0092545,0.0369492-0.0092545
				c0.0924072-0.0276947,0.1848679-0.0554504,0.2772751-0.0739594c0.4991531-0.1016541,1.035202-0.0738983,1.5158463-0.0091934
				c0.8780823,0.1109085,1.5897446,0.3789291,1.5897446,0.3789291s-1.9224777,0.3604889-2.4678268,2.4955902
				c-0.5545502,2.1258469,2.5602875,0.6100006,4.3256531,0.8318253c1.1369095,0.1386642,1.6914597,0.8596344,1.9317856,1.349472
				C108.6323166,72.2412338,108.6785812,72.4446106,108.6785812,72.4446106z"/>
			<path class="st12" d="M107.2366943,72.1303253c-0.6100616,0.2310715-1.2940216,0.6100616-1.9132767,1.1831131
				c-0.0647125,0.0554581-0.1294174,0.1109161-0.1941223,0.1848679c-1.0259476,1.0536499-1.377182,2.6064453-1.6360092,3.7341003
				c-0.0184479,0.0647049-0.0276947,0.1294174-0.0462036,0.1941223c-0.8503265,0.1663666-1.9317245,0.2587662-2.551033,0.295723
				c-0.295784,0.0185013-0.4898453,0.0277557-0.4898453,0.0277557s-0.1941223-0.0554581-0.4344482-0.2125702
				c-0.1663589-0.1017151-0.3604279-0.2588272-0.5268478-0.4713974c-0.397438-0.5175934-1.8762741-0.5915527-3.5677338-1.3864288
				c-1.6175003-0.7579193-1.1923065-2.5325317-1.1461029-2.6804504v-0.0092545l0.0092545-0.0091934l0.0092468-0.0092545
				c0.0647125-0.2126236,0.2587738-0.4251938,0.4251404-0.6193085c0.0185013-0.0277023,0.0370026-0.0462036,0.0554504-0.0739059
				c0.0185089-0.0370102,0.0462646-0.0647049,0.0647049-0.0924606c0.0647125-0.0924072,0.120163-0.175621,0.1848755-0.2680206
				l0.3974304-0.5545502l0.0185089-0.0277557c0.0554504-0.0739594,0.120163-0.1386719,0.1848679-0.2033157
				c0.4251328-0.3974991,0.9335403-0.7024689,1.3309708-1.1276627c0.2680283-0.2865219,0.517601-0.4898453,0.8133774-0.6654587
				h0.0091934c0.0185089-0.0092545,0.0370102-0.0185013,0.0554581-0.0277557h0.0092545
				c0.0277557-0.0185013,0.0647049-0.0277023,0.0924606-0.0462036c0.0277023-0.0092545,0.0647049-0.0277557,0.1016617-0.0462036
				h0.1848679l0.0738983-0.120163c0.046257-0.0185013,0.0924606-0.0370026,0.1386642-0.0647049
				c0.0185089-0.0092545,0.0369568-0.0185013,0.0554581-0.0277557c0.2310715-0.0831528,0.4621429-0.1940613,0.6655121-0.3327255
				c0.009201,0.0092468,0.009201,0,0.0184479-0.0092545c0.0554581-0.0462036,0.1109085-0.0924072,0.1571732-0.1386108
				c0.0091934-0.0092545,0.0184479-0.0185013,0.0276947-0.0277557c0.0647125-0.0647049,0.1294174-0.1386108,0.1663666-0.2310715
				c0.0185013-0.0092545,0.0277557-0.0185013,0.0277557-0.0369492c0.0184479-0.0185013,0.0277023-0.0370102,0.0369492-0.0647049
				c0.0092545-0.0185089,0.0185089-0.0369568,0.0277557-0.0554581c0.2033157-0.517601,0.5638046-0.8318787,0.9889374-1.0259476
				c-0.3789291,0.5453033-0.7024078,1.2292633-0.905777,2.0796509c-0.2125702,0.8780212-0.1294174,1.6082458,0.268074,2.162796
				c0.5914993,0.8226318,1.5619888,0.8226318,1.8855286,0.8226318c0.5730515,0,1.1923065-0.1016617,1.8578262-0.2218246
				c0.6192551-0.1109085,1.2570114-0.221817,1.7746124-0.221817c0.120163,0,0.2403183,0.0091934,0.34198,0.0276947
				C106.700592,71.7790909,107.0056229,71.936264,107.2366943,72.1303253z"/>
			<path class="st13" d="M99.9305115,75.952301c0,0,0.3723679,0.768219,1.4807053,0.8105469
				c1.1083374,0.0423355,1.8836136-0.30513,2.0322113-0.9910965s-0.0459442-0.8344345-0.0589981-1.0905533
				c-0.0130463-0.2561188,0.4764557-0.8737106,0.4764557-0.8737106s-0.9212875,0.1237946-1.2697067,0.5665512
				c-0.3484116,0.4427643-0.5537033,0.9394989-0.9163818,0.9602127c-0.3626785,0.0207062-0.4443207-0.4447021-0.4589386-0.7971039
				c-0.0146179-0.3524094-0.5266724-0.770813-0.5266724-0.770813s0.2589035,0.2491608-0.0933456,0.6386414
				C100.2435989,74.7944565,99.6669235,75.4142838,99.9305115,75.952301z"/>
			<path class="st13" d="M95.7301865,74.7771606c0,0-1.046196-0.3013382-0.4945679-1.4318542
				c0.5516281-1.1305237,0.8940201-1.1685638,1.5787964-1.4348679c0.6847839-0.266304,0.3043518-0.4375,1.046196-0.9891281
				s0.7488022-0.2224426,0.7263031-0.1017075c-0.0224991,0.1207275-1.220871,0.8625717-1.4871674,1.5853958
				c-0.266304,0.7228241-1.407608,0.779892-0.7418518,1.3505402c0.6657639,0.5706482,0.951088,0.3233719,1.0271759,0.8559723
				c0.0760803,0.532608,1.1603165,0.8059845,0.8559723,1.0782623S96.1867065,74.8667221,95.7301865,74.7771606z"/>
			<path class="st4" d="M100.3039093,54.4469872c-0.0739059-0.0924034-0.1663666-0.1663628-0.2680283-0.2310715
				c-1.1831131-0.739418-3.7433472-3.1148415-5.2869492-4.085331c-1.543541-0.9797401-2.0518875-1.0351944-3.9744186-0.2495728
				c-1.9224777,0.7948723-1.1923065,1.0351944-2.6434479,0.6100578c-1.4511337-0.42519-5.1852341-2.070446-8.0412979-2.4308777
				c-2.8560181-0.3697357-4.4550705-3.6324387-4.4550705-3.6324387c0.2588272-0.2865257,0.5546036-0.5731087,0.8780823-0.8318787
				c0.8780823,1.4603882,1.5805511,2.2275047,2.4678268,2.3292198c1.0352554,0.1201591,2.745163,1.340168,5.8507538,1.340168
				s5.7490921-1.1645508,8.5958557,0.1109657c2.8560638,1.2847176,3.872757,2.3938713,5.1667862,3.197998
				C99.370369,51.0641251,99.7955627,53.6983185,100.3039093,54.4469872z"/>
			<path class="st4" d="M103.421196,56.315712c-0.9192352-1.6852722,0.2125092-4.2964096-1.8134155-5.9418449
				c-2.0259247-1.6454315-2.4191055-2.9709206-3.4337387-2.8338013s-2.9993286-0.0097618-2.9993286-0.0097618
				s1.5733414-0.630127,2.990242-0.7672462s2.8393707,1.4626045,3.7479248,2.513855s0.9598389-0.8227158,2.1025009,0.182827
				s2.148201,1.6454315,1.3711929,3.6108093c-0.7770081,1.9653816,0.0591583,1.7368469-0.3132172,2.879509
				S103.9696732,57.3212547,103.421196,56.315712z"/>
			<path class="st4" d="M109.8154373,70.4666214c-0.4621506-1.0444489-1.2847748-2.6804504-2.1905594-3.5954895
				c-1.4141846-1.4141235-3.2904587-1.1368484-3.2904587-1.1368484c1.2200699-0.8410797,1.7746201-0.6470184,3.5400314-0.7579269
				c0,0,0.009201,0,0.0184479,0c0.397438,0.1109085,1.377182,0.6655197,2.0519485,2.6527023
				C110.3977356,68.9692841,110.2775803,69.7549057,109.8154373,70.4666214z"/>
			<path class="st14" d="M109.8190384,70.4620972c-0.2587662,0.4159393-0.6377563,0.8041306-1.081398,1.257019l-0.2403183,0.2403259
				c-0.2403259-0.4898987-0.7948761-1.2108154-1.9317856-1.3494797c-0.8041229-0.1016617-1.8947754,0.1571655-2.7820587,0.268074
				c-0.1109085,1.2200699-1.6083069,1.9964371-3.0963898,1.7838669c0,0,1.1831131-0.905838,1.987236-1.7931137
				c-0.4159393-0.1016617-0.6100616-0.4066925-0.4344406-1.0906525c0.5453491-2.1351013,2.4678802-2.4955826,2.4678802-2.4955826
				s-0.5268478-0.2033768-1.2385635-0.3235397c0.0092468,0.0092545,0.0185013,0.0092545,0.0185013,0.0092545
				s-1.3771744,0.4898987-1.3956833,1.6822052c-0.0277557,1.201561-1.1831131,1.2940292-1.7561646,2.7266617
				c-0.5823059,1.4326324-0.7116623,1.7838669-1.5342941,1.7007065c-0.8133774-0.0832062,0.7209167,1.6452026,0.7209167,1.6452026
				c-0.4528885,0.2865295-1.5804901-0.6932144-1.6729584-1.5527954c-0.0647049-0.5175934,0.4898987-1.1831131,1.1091537-0.9889908
				c0,0-0.221817-1.3402252,0.9704971-2.4955826c1.1831131-1.1553574-0.0184479-0.5730591,0.3235321-1.5157928
				c0.34198-0.9427872,0.9797363-1.6637573,1.3494186-1.6637573c0.0832138,0,0.2218781,0.0185013,0.3882446,0.0554581
				c1.0166931-0.8965378,2.2460098-1.9779358,2.9576721-2.6156921c1.1831131-1.0537033,1.9687347-1.7469177,1.9964905-1.7746735
				c0.1016541-0.0924034,0.1663589-0.2125664,0.1571121-0.3512306V61.810791c0-0.1386642-0.0647049-0.2680779-0.175621-0.3512344
				c-1.6822052-1.3402252-4.0576248-1.2570724-5.647377,0.2125702c-0.5915527,0.5453529-1.1923065,1.0999031-1.8023682,1.6637039
				l-0.4066849-1.0536995c-0.0462036-0.1201057-0.1386108-0.2218208-0.2680283-0.2680244
				c-0.0092468-0.0092506-1.8116226-0.7024651-2.0796432-2.1720505c-0.1848679-0.9982452,1.9779892-1.9502869,3.0501328-2.2552605
				c0.1941223-0.0462036,0.3234787-0.2218208,0.3419876-0.4159393c0.0092468-0.1941223-0.1109161-0.3789902-0.295784-0.4528923
				c-0.0184479-0.0092506-1.5620422-0.6377602-3.2350006-1.8208733c-0.739418-0.5268517-0.979744-1.3956833-1.2200623-2.2275047
				c-0.2680283-0.9520454-0.5453033-1.9317856-1.5342941-2.3107185c-1.3956833-0.5268478-1.8300705,0.1109085-2.3014603,0.7856216
				c-0.2126312,0.3050308-0.4528961,0.6470108-0.8318863,0.9982452c-0.5915527,0.5545502-1.8762665,0-3.1148376-0.5268517
				c-0.8226318-0.3512306-1.6729584-0.7117157-2.449379-0.822628c-1.9132309-0.2680206-6.3498459-1.2108116-7.8101807-2.4123726
				c-0.3697357-0.3050308-0.7579193-0.5730553-1.127655-0.8318825c-1.3494263-0.9427338-1.7746201-1.340168-1.3309784-2.0980911
				c0.2033768-0.3327293,0.4621429-0.6839638,0.7764282-1.0259438c0,0,1.598999,3.2627029,4.4550629,3.6324387
				c2.8560181,0.3604279,6.5901718,2.0056877,8.0412521,2.4308777c1.4511337,0.4251366,0.7209702,0.1848145,2.6435013-0.6100616
				c1.9224777-0.7856178,2.4308777-0.7301636,3.9744186,0.2495766c1.543541,0.9704895,4.1038361,3.3459129,5.2868958,4.085331
				c1.1923599,0.7301674,1.026001,3.1702957,2.8006134,4.048378c1.7746124,0.8873367,5.1112747,0.4066887,5.8414993,2.0981483
				c0.3604813,0.8503304,0.5268478,1.5435448,0.5915527,2.0334435c-0.4621429,0.9519844-1.2755203,1.4418831-1.8116226,1.6729584
				c-0.0924072,0.0369492-0.1756134,0.1109085-0.2310715,0.2033157c-0.0832062,0.1109085-0.120163,0.2495728-0.0832062,0.3789291
				c0.0739594,0.2218781,0.3604813,0.3512344,0.5915527,0.3050308c0.0277557,0,0.0739594,0,0.1386642,0.0185013
				c-1.765419,0.1109161-2.3199615-0.0832062-3.5400314,0.7579269c0,0,1.8763275-0.2772751,3.2904587,1.1368561
				C108.5342712,67.7816467,109.3568954,69.4176483,109.8190384,70.4620972z"/>
			<path class="st4" d="M97.7726898,60.8863564c-0.0163879-1.5083122,2.5318527-1.862648,2.5318527-1.862648
				s-1.5911102-0.834034-2.5966568,0.1943626C96.7023468,60.2464676,97.7726898,60.8863564,97.7726898,60.8863564z"/>
			<polygon class="st15" points="100.8079758,81.1176682 100.2495575,81.4403305 99.2162857,82.0369263 99.2162857,83.1767426 
				100.8079758,82.2576141 			"/>
			<polygon class="st15" points="107.0849991,77.5068588 106.5265808,77.8295212 105.493309,78.4261169 105.493309,79.5659332 
				107.0849991,78.6468048 			"/>
		</g>
	</g>
	<path class="st4" d="M103.7613678,69.6605148c0,0,0.2440186-1.1154785,1.2190933-1.2281036
		c0.9750671-0.1126175,1.5724182,0.7100983,1.9288712,0.7405701s0.6611633,0.0304718,1.0268097,0.4875336
		c0.365654,0.4570618,0.3225632,0.9511414,0.3225632,0.9511414s-0.4708328-0.9816132-1.1737061-0.859726
		c-0.7028732,0.1218796-1.2513504-1.0664902-2.0435944-0.6703644
		C104.2491531,69.4776917,103.7613678,69.6605148,103.7613678,69.6605148z"/>
</g>
</svg>
