<?xml version="1.0" encoding="utf-8"?>
<!-- Generator: Adobe Illustrator 27.6.1, SVG Export Plug-In . SVG Version: 6.00 Build 0)  -->
<svg version="1.1" id="Layer_1" xmlns="http://www.w3.org/2000/svg" xmlns:xlink="http://www.w3.org/1999/xlink" x="0px" y="0px"
	 viewBox="0 0 172.8999939 90" style="enable-background:new 0 0 172.8999939 90;" xml:space="preserve">
<style type="text/css">
	.st0{fill:#4D4D4D;}
	.st1{fill:#808080;}
	.st2{fill:#FFFFFF;}
	.st3{fill:#CCCCCC;}
	.st4{opacity:0.98;}
	.st5{fill:#F79420;}
</style>
<g>
	<path d="M97.6276245,44.4694252h0.45327c0.1428452,0,0.2586136-0.1157684,0.2586136-0.2585487v-8.6061707
		c0-0.1428452-0.1157684-0.2586136-0.2586136-0.2586136h-0.45327V44.4694252z"/>
	<path d="M75.2723694,44.4694252h-0.45327c-0.1428452,0-0.2586136-0.1157684-0.2586136-0.2585487v-8.6061707
		c0-0.1428452,0.1157684-0.2586136,0.2586136-0.2586136h0.45327V44.4694252z"/>
	<path d="M96.5357285,86.6743622h1.545166c0.1428452,0,0.2586136-0.1157684,0.2586136-0.2585526V77.809639
		c0-0.1428375-0.1157684-0.2586136-0.2586136-0.2586136h-0.45327L96.5357285,86.6743622z"/>
	<path d="M76.1401443,86.6743622h-1.3210449c-0.1428452,0-0.2586136-0.1157684-0.2586136-0.2585526V77.809639
		c0-0.1428375,0.1157684-0.2586136,0.2586136-0.2586136h0.45327L76.1401443,86.6743622z"/>
	<g>
		<g>
			<path class="st0" d="M76.9388046,58.7542419v-26.612957h19.0223846v26.612957h-0.7832336V33.2411423
				c0-0.2332764-0.1916199-0.4166107-0.4166107-0.4166107H78.1469345c-0.2332764,0-0.4166107,0.1833344-0.4166107,0.4166107
				v25.5130997H76.9388046z"/>
			<rect x="89.2954254" y="33.8660545" class="st1" width="4.8410072" height="24.679882"/>
			<rect x="84.0294647" y="33.8660545" class="st1" width="4.8493476" height="24.679882"/>
			<rect x="78.7718506" y="33.8660545" class="st1" width="4.8410072" height="24.679882"/>
			<rect x="76.9388046" y="60.420681" class="st2" width="19.0223808" height="12.1035614"/>
			<polygon class="st2" points="95.5904007,86.3685455 95.9611893,84.2091064 95.9611893,76.7269592 76.9388046,76.7269592 
				76.9388046,84.2091064 77.3052216,86.3685455 			"/>
			<polygon class="st3" points="95.2529678,88.3335571 90.2292862,88.3335571 90.3786011,86.3671722 95.5862274,86.3671722 			"/>
			<polygon class="st3" points="77.3053741,86.3671722 82.5130005,86.3671722 82.6623154,88.3335571 77.6386795,88.3335571 			"/>
			<rect x="76.9388046" y="72.5242462" class="st3" width="19.0223808" height="4.2027173"/>
			<rect x="77.1892319" y="72.7459106" class="st1" width="18.5215321" height="3.759387"/>
			<path class="st4" d="M76.1222153,89.3084106C76.1888885,89.7083435,76.5304871,90,76.9388046,90h19.0223846
				c0.3999786,0,0.7499161-0.2916565,0.8165894-0.6915894l0.8332214-4.8826523
				c0.0082855-0.0499954,0.0166245-0.0916443,0.0166245-0.1416397V31.3080635c0-0.4582615-0.3749542-0.8332195-0.8332138-0.8332195
				H76.1055832c-0.4583054,0-0.8332138,0.374958-0.8332138,0.8332195v52.9760551
				c0,0.0499954,0.0082855,0.0916443,0.0166245,0.1416397L76.1222153,89.3084106z M76.9388046,32.1412849h19.0223846v26.612957
				h-0.7832336V33.2411423c0-0.2332764-0.1916199-0.4166107-0.4166107-0.4166107H78.1469345
				c-0.2332764,0-0.4166107,0.1833344-0.4166107,0.4166107v25.5130997h-0.7915192V32.1412849z M94.1364365,44.6479263v13.8980103
				h-4.841011v-24.679882h4.841011v1.3236046c-0.625885,0.1003914-1.1053543,0.6384926-1.1053543,1.2925987v6.8730202
				C93.0310822,44.0094337,93.5105515,44.5475388,94.1364365,44.6479263z M88.8788147,33.8660545v24.679882h-4.84935v-24.679882
				H88.8788147z M78.7718506,35.1896591v-1.3236046h4.8410034v24.679882h-4.8410034V44.6479263
				c0.625885-0.1003876,1.1053467-0.6384926,1.1053467-1.2926483v-6.8730202
				C79.8771973,35.8281517,79.3977356,35.2900505,78.7718506,35.1896591z M76.9388046,60.420681h19.0223846v23.7884254
				l-0.7082214,4.1244507H77.6386795l-0.6998749-4.1244507V60.420681z"/>
			<polygon points="82.6623154,88.3335571 82.5130005,86.3671722 90.3786011,86.3671722 90.2292862,88.3335571 			"/>
		</g>
		<g>
			<path d="M77.6415482,65.2439651H95.21418c0.2332764,0,0.4166107-0.1832809,0.4166107-0.4166107v-3.4911919
				c0-0.2332726-0.1833344-0.4166107-0.4166107-0.4166107H77.6415482c-0.2249374,0-0.4166107,0.1833382-0.4166107,0.4166107
				v3.4911919C77.2249374,65.0606842,77.4166107,65.2439651,77.6415482,65.2439651z M89.7732315,61.7527733h5.0243378v2.6579781
				h-5.0243378V61.7527733z M83.9157181,61.7527733h5.024292v2.6579781h-5.024292V61.7527733z M78.0581589,61.7527733h5.0243378
				v2.6579781h-5.0243378V61.7527733z"/>
			<rect x="78.0581589" y="61.7527733" class="st5" width="5.0243421" height="2.6579745"/>
			<rect x="83.9157181" y="61.7527733" class="st5" width="5.0242915" height="2.6579745"/>
			<rect x="89.7732315" y="61.7527733" class="st5" width="5.0243421" height="2.6579745"/>
		</g>
	</g>
</g>
</svg>
