<?xml version="1.0" encoding="utf-8"?>
<!-- Generator: Adobe Illustrator 27.6.1, SVG Export Plug-In . SVG Version: 6.00 Build 0)  -->
<svg version="1.1" id="Layer_1" xmlns="http://www.w3.org/2000/svg" xmlns:xlink="http://www.w3.org/1999/xlink" x="0px" y="0px"
	 viewBox="0 0 172.8999939 90" style="enable-background:new 0 0 172.8999939 90;" xml:space="preserve">
<style type="text/css">
	.st0{fill:#4D4D4D;}
	.st1{fill:#808080;}
	.st2{fill:#FFFFFF;}
	.st3{fill:#CCCCCC;}
	.st4{opacity:0.98;}
	.st5{fill:#F79420;}
</style>
<g>
	<path d="M75.2723694,76.0054169h-0.45327c-0.1428452,0-0.2586136,0.1157684-0.2586136,0.2585526v8.6061707
		c0,0.1428452,0.1157684,0.2586136,0.2586136,0.2586136h0.45327V76.0054169z"/>
	<path d="M97.6276245,76.0054169h0.45327c0.1428452,0,0.2586136,0.1157684,0.2586136,0.2585526v8.6061707
		c0,0.1428452-0.1157684,0.2586136-0.2586136,0.2586136h-0.45327V76.0054169z"/>
	<path d="M76.3642654,33.8004799h-1.545166c-0.1428452,0-0.2586136,0.1157684-0.2586136,0.2585487v8.6061707
		c0,0.1428452,0.1157684,0.2586136,0.2586136,0.2586136h0.45327L76.3642654,33.8004799z"/>
	<path d="M96.7598495,33.8004799h1.3210449c0.1428452,0,0.2586136,0.1157684,0.2586136,0.2585487v8.6061707
		c0,0.1428452-0.1157684,0.2586136-0.2586136,0.2586136h-0.45327L96.7598495,33.8004799z"/>
	<g>
		<g>
			<path class="st0" d="M95.9611893,61.7206001v26.612957H76.9388046v-26.612957h0.7832336v25.5131035
				c0,0.2332764,0.1916199,0.4166107,0.4166107,0.4166107h16.6144104c0.2332764,0,0.4166107-0.1833344,0.4166107-0.4166107
				V61.7206001H95.9611893z"/>
			<rect x="78.7635574" y="61.9289055" class="st1" width="4.8410072" height="24.679882"/>
			<rect x="84.0211792" y="61.9289055" class="st1" width="4.8493476" height="24.679882"/>
			<rect x="89.2871399" y="61.9289055" class="st1" width="4.8410072" height="24.679882"/>
			<rect x="76.9388046" y="47.9505997" class="st2" width="19.0223808" height="12.1035614"/>
			<polygon class="st2" points="77.3095932,34.1062965 76.9388046,36.2657356 76.9388046,43.7478828 95.9611893,43.7478828 
				95.9611893,36.2657356 95.5947723,34.1062965 			"/>
			<polygon class="st3" points="77.6470261,32.1412849 82.6707077,32.1412849 82.5213928,34.1076698 77.3137665,34.1076698 			"/>
			<polygon class="st3" points="95.5946198,34.1076698 90.3869934,34.1076698 90.2376785,32.1412849 95.2613144,32.1412849 			"/>
			<rect x="76.9388046" y="43.7478828" class="st3" width="19.0223808" height="4.2027173"/>
			<rect x="77.1892319" y="43.9695473" class="st1" width="18.5215321" height="3.759387"/>
			<path class="st4" d="M96.7777786,31.1664295c-0.0666733-0.399929-0.4082718-0.6915855-0.8165894-0.6915855H76.9388046
				c-0.3999786,0-0.7499161,0.2916565-0.8165894,0.6915855l-0.8332214,4.882658
				c-0.0082855,0.0499916-0.0166245,0.0916443-0.0166245,0.1416359v52.9760551C75.2723694,89.6250381,75.6473236,90,76.1055832,90
				h20.6888275c0.4583054,0,0.8332138-0.3749619,0.8332138-0.8332214V36.1907234
				c0-0.0499916-0.0082855-0.0916443-0.0166245-0.1416359L96.7777786,31.1664295z M95.9611893,88.3335571H76.9388046v-26.612957
				h0.7832336v25.5131035c0,0.2332764,0.1916199,0.4166107,0.4166107,0.4166107h16.6144104
				c0.2332764,0,0.4166107-0.1833344,0.4166107-0.4166107V61.7206001h0.7915192V88.3335571z M78.7635574,75.8269196V61.9289055
				h4.841011v24.679882h-4.841011v-1.3236008c0.625885-0.1003952,1.1053543-0.6384964,1.1053543-1.2926025v-6.8730164
				C79.8689117,76.4654083,79.3894424,75.9273071,78.7635574,75.8269196z M84.0211792,86.6087875v-24.679882h4.84935v24.679882
				H84.0211792z M94.1281433,85.2851868v1.3236008h-4.8410034v-24.679882h4.8410034v13.8980141
				c-0.625885,0.1003876-1.1053467,0.6384888-1.1053467,1.2926483v6.8730164
				C93.0227966,84.6466904,93.5022583,85.1847916,94.1281433,85.2851868z M95.9611893,60.0541611H76.9388046V36.2657356
				l0.7082214-4.1244507h17.6142883l0.6998749,4.1244507V60.0541611z"/>
			<polygon points="90.2376785,32.1412849 90.3869934,34.1076698 82.5213928,34.1076698 82.6707077,32.1412849 			"/>
		</g>
		<g>
			<path d="M95.2584457,55.2308731H77.6858139c-0.2332764,0-0.4166107,0.1832848-0.4166107,0.4166107v3.4911957
				c0,0.2332764,0.1833344,0.4166107,0.4166107,0.4166107h17.5726318c0.2249374,0,0.4166107-0.1833344,0.4166107-0.4166107
				v-3.4911957C95.6750565,55.4141579,95.4833832,55.2308731,95.2584457,55.2308731z M83.1267624,58.7220688h-5.0243378v-2.6579742
				h5.0243378V58.7220688z M88.9842758,58.7220688h-5.024292v-2.6579742h5.024292V58.7220688z M94.841835,58.7220688h-5.0243378
				v-2.6579742h5.0243378V58.7220688z"/>
			<rect x="89.8174973" y="56.0640945" class="st5" width="5.0243421" height="2.6579745"/>
			<rect x="83.9599838" y="56.0640945" class="st5" width="5.0242915" height="2.6579745"/>
			<rect x="78.1024246" y="56.0640945" class="st5" width="5.0243421" height="2.6579745"/>
		</g>
	</g>
</g>
</svg>
