<?xml version="1.0" encoding="utf-8"?>
<!-- Generator: Adobe Illustrator 27.6.1, SVG Export Plug-In . SVG Version: 6.00 Build 0)  -->
<svg version="1.1" id="Layer_1" xmlns="http://www.w3.org/2000/svg" xmlns:xlink="http://www.w3.org/1999/xlink" x="0px" y="0px"
	 viewBox="0 0 172.8999939 90" style="enable-background:new 0 0 172.8999939 90;" xml:space="preserve">
<style type="text/css">
	.st0{fill:#888888;}
	.st1{fill:#FFFFFF;}
	.st2{fill:#4D4D4D;}
	.st3{fill:#B3B3B3;}
	.st4{fill:#999999;}
	.st5{fill:#808080;}
	.st6{fill:#CCCCCC;}
	.st7{fill:#F79420;}
	.st8{fill:#C1272D;}
</style>
<g>
	<g>
		<g>
			<path class="st0" d="M113.8159027,82.2086639l-13.2311325,7.6361771
				c-0.3585205,0.2069168-0.8001862,0.2068787-1.1586685-0.0000992L61.2151794,67.7853394l-1.8768234-1.5045853
				c-0.3380775-0.2710266-0.2980118-0.7971725,0.0772057-1.0138779l14.1164589-6.8281441l40.2838974,23.251049
				C114.0156631,81.805069,114.0156555,82.0933762,113.8159027,82.2086639z"/>
			<path class="st1" d="M94.2920303,55.8787346l-11.5200195,6.6600342c-0.039978,0.0200195-0.0800171,0.0499878-0.1199951,0.0700073
				c-0.1300049,0.0799561-0.2399902,0.2000122-0.3200073,0.3299561l-8.1099854-4.6699829l-0.289978,0.1699829l-4.4700317,2.6500244
				l-6.6874352-1.662056c-0.1700439-0.0299683-0.3500366-0.039978-0.5300293-0.0100098l11.700016-6.7699585l0.3400269-0.1900024
				c0.0199585-0.0100098,0.0499878-0.0300293,0.0699463-0.0500488c0.2400513-0.1099854,0.5200195-0.1300049,0.8400269-0.0700073
				l6.3474655,1.3720779c0.039978,0.0100098,0.0899658,0.0100098,0.1300049,0.0100098
				c0.0799561,0,0.1599731-0.0100098,0.2399902-0.039978c0.0999756-0.0100098,0.1900024-0.0500488,0.2700195-0.1000366
				c0.0099487,0,0.0099487-0.0100098,0.0199585-0.0100098c0.0100098-0.0099487,0.0200195-0.0099487,0.0300293-0.0199585h0.0100098
				l4-2.3099976L94.2920303,55.8787346z"/>
			<path class="st2" d="M108.3553848,72.3092194l-2,1.1500244l-10.083374-5.8204956l-6.3300171,3.6400146l-1.9899902-1.1500244
				l7.3400269-4.2399902v-4.909977c0,0.0199585,0.0100098,0.039978,0.0100098,0.0499878
				c0,0.0999756,0.0099487,0.1900024,0.0599976,0.2800293c0.0299683,0.1199951,0.0999756,0.2399902,0.1900024,0.3299561
				c0.0599976,0.0800171,0.1399536,0.1500244,0.2399902,0.210022l1.5,0.8699951v3.200016L108.3553848,72.3092194z"/>
			<g>
				<g>
					<g>
						<path class="st3" d="M99.0353775,78.8391876v1.0100098L64.0745697,59.6666908l5.3874435,1.4220657l4.4700317-2.6500244
							l0.289978-0.1699829l8.1099854,4.6699829c-0.0100098,0.0300293-0.0299683,0.0500488-0.039978,0.0800171
							c-0.0100098,0.0300293-0.0300293,0.0499878-0.0300293,0.0800171c-0.0199585,0.039978-0.039978,0.0800171-0.0499878,0.1300049
							c-0.0100098,0.0700073-0.0200195,0.1400146-0.0200195,0.2199707v5.0900307
							c0,0.0800171,0.0100098,0.1499634,0.0300293,0.2199707c0,0.0300293,0.0100098,0.0599976,0.0200195,0.0900269
							c0.0199585,0.0499878,0.0299683,0.0899658,0.0599976,0.1300049c0,0.0100098,0.0099487,0.0100098,0.0099487,0.0199585
							c0,0.0100098,0.0100098,0.0300293,0.0200195,0.0400391c0.0400391,0.0700073,0.0900269,0.1400146,0.1500244,0.2000122
							c0.039978,0.0499878,0.0899658,0.0899658,0.1499634,0.1300049c0.0100098,0,0.0200195,0.0099487,0.0300293,0.0199585
							s0.0200195,0.0100098,0.0299683,0.0200195L99.0353775,78.8391876z"/>
						<path class="st4" d="M99.0353775,79.8491974v5.0100098l-1.6999512-0.9799805
							c-0.2800293-2.5700073-2.0300293-5.3699951-4.1800537-6.6000366c-1.3099976-0.75-2.5899658-0.8499756-3.6199951-0.2699585
							c-0.6099854,0.3399658-1.0599976,0.8899536-1.3299561,1.5999756L69.4445648,67.7766724
							c-0.1400146-2.6399536-1.9400024-5.62994-4.210022-6.9499474c-1.3200111-0.7600098-2.6099892-0.8500366-3.6399574-0.2600098
							c-0.3300171,0.1900024-0.6100464,0.4299927-0.8300171,0.7299805v-0.3200073
							c0-0.2000122,0.039978-0.3800049,0.1199951-0.5499878c0.0100098-0.0200195,0.0299683-0.0499878,0.039978-0.0700073
							c0.0100098-0.0100098,0.0100098-0.0200195,0.0200195-0.0299683c0-0.0100098,0-0.0100098,0.0200195-0.0200195
							c0-0.0100098,0-0.0200195,0.0100098-0.0300293c0.0099487-0.0199585,0.0199585-0.039978,0.0299683-0.0499878
							s0.0200195-0.0199585,0.0300293-0.0299683c0-0.0100098,0.0099487-0.0200195,0.0199585-0.0300293
							c0.0400391-0.0499878,0.0900269-0.0999756,0.1400146-0.1400146l0.0100098-0.0099487l1.0299683-0.6000366
							c0.0100098,0,0.0100098,0,0.0100098,0c0.1799927-0.0299683,0.3599854-0.0199585,0.5300293,0.0100098l1.2999916,0.2399902
							L99.0353775,79.8491974z"/>
					</g>
				</g>
			</g>
			<polygon class="st5" points="106.3553848,73.4592438 100.0353775,77.1092072 89.9419937,71.2787628 96.2720108,67.6387482 			"/>
			<polygon class="st2" points="111.1354141,70.7092438 108.3553848,72.3092194 97.2920303,65.9187775 97.2920303,62.7187614 			"/>
			<polygon class="st2" points="95.2920303,57.6187859 95.2920303,65.8887482 87.9520035,70.1287384 84.1919937,67.9587555 
				84.1919937,64.0187531 			"/>
			<polygon class="st3" points="112.1354141,72.4392242 112.1354141,78.4592438 101.0353775,84.8592072 101.0353775,78.8391876 			
				"/>
			<path class="st2" d="M77.9299088,61.1479607c-1.2664795-0.7288818-2.4992676-1.4377441-3.6679077-2.1091919l-4.2600098,2.5499878
				c2.3591309,1.3610229,5.1050415,2.9472694,7.9279175,4.5762978V61.1479607z"/>
			<path class="st2" d="M78.9299088,61.7237053v5.0183754c0.8931885,0.5153198,1.7900391,1.0325317,2.6821289,1.5466919v-5.0200233
				C80.7095108,62.7484856,79.8155899,62.233654,78.9299088,61.7237053z"/>
			<polygon points="93.9079514,59.2245941 85.9760284,63.8040924 85.9760284,66.7237701 93.9079514,62.144268 			"/>
			<g>
				<g>
					<path class="st0" d="M65.2837982,66.1026077c-0.2229691-0.1287308-0.4081345-0.4495087-0.4073868-0.7142334
						c0.0007248-0.2561417,0.1871033-0.3624115,0.4100723-0.2336807c0.2303772,0.1330032,0.4155426,0.4537888,0.4148178,0.709938
						C65.7005539,66.1293488,65.5141754,66.2356186,65.2837982,66.1026077L65.2837982,66.1026077z M64.6856461,64.4058075
						c-0.8323479-0.4805603-1.5108604-0.093956-1.5135498,0.8539658c-0.0027122,0.9564362,0.6713982,2.1240387,1.503746,2.6045914
						c0.8323517,0.4805603,1.5034027,0.0895844,1.5061188-0.8668442
						C66.1846466,66.0495987,65.5179977,64.8863602,64.6856461,64.4058075L64.6856461,64.4058075z"/>
					<path class="st6" d="M65.2864838,65.1546936c-0.2229691-0.1287308-0.4093475-0.0224609-0.4100723,0.2336807
						c-0.0007477,0.2647247,0.1844177,0.5855026,0.4073868,0.7142334c0.2303772,0.1330109,0.4167557,0.026741,0.4175034-0.2379761
						C65.7020264,65.6084824,65.516861,65.2876968,65.2864838,65.1546936L65.2864838,65.1546936z"/>
				</g>
			</g>
			<g>
				<g>
					<g>
						<path class="st0" d="M92.8414154,82.0073624c-0.2229614-0.1287308-0.4081345-0.4495163-0.4073792-0.7142334
							c0.0007248-0.2561493,0.1871033-0.3624191,0.4100723-0.2336884c0.2303772,0.1330109,0.4155426,0.4537888,0.4148178,0.709938
							C93.2581711,82.0340958,93.0717926,82.1403656,92.8414154,82.0073624L92.8414154,82.0073624z M92.2432709,80.3105545
							c-0.8323517-0.4805527-1.5108643-0.0939484-1.5135498,0.8539734c-0.0027161,0.9564285,0.6713943,2.1240311,1.503746,2.6045914
							c0.8323517,0.4805527,1.5034027,0.0895844,1.5061188-0.8668518
							C93.7422714,81.9543533,93.0756226,80.7911148,92.2432709,80.3105545L92.2432709,80.3105545z"/>
						<path class="st6" d="M92.8441086,81.0594406c-0.2229691-0.1287308-0.4093475-0.0224609-0.4100723,0.2336884
							c-0.0007553,0.2647171,0.1844177,0.5855026,0.4073792,0.7142334c0.2303772,0.1330032,0.4167557,0.0267334,0.417511-0.2379837
							C93.2596512,81.5132294,93.0744858,81.1924515,92.8441086,81.0594406L92.8441086,81.0594406z"/>
					</g>
				</g>
				<path d="M114.1053925,70.4791794c-0.0100098-0.039978-0.0199585-0.0800171-0.039978-0.1199951
					c0-0.0299683-0.0100098-0.0499878-0.0300293-0.0800171c-0.0199585-0.039978-0.039978-0.0699463-0.0599976-0.1099854
					c-0.0799561-0.1199951-0.1799927-0.2199707-0.2999878-0.2999878c-0.0100098-0.0100098-0.0299683-0.0200195-0.039978-0.0300293
					l-0.0800171-0.039978L97.292038,60.3987312v-0.8900146v-3.4299927c0-0.0299683-0.0100098-0.0499878-0.0200195-0.0800171
					c0.0100098-0.039978,0.0200195-0.0799561,0.0200195-0.1199951c0-0.3499756-0.1900024-0.6799927-0.5-0.8599854
					l-10.0499878-5.7999878c-0.3000488-0.1799927-0.6900024-0.1799927-1,0l-4.2700195,2.460022l-5.937439-1.3120728
					c-0.9300537-0.1900024-1.8900146,0.0200195-2.6500244,0.5900269l-12.7200317,7.3399658
					c-0.0499878,0.0300293-0.0999756,0.0700073-0.1499634,0.1199951c-0.0599976,0.0300293-0.1099854,0.0700073-0.1600342,0.1099854
					c-0.6900024,0.6200562-1.0899658,1.5200195-1.0899658,2.4500122v2.0300293c0,0.3200073,0.1599731,0.6199951,0.4199829,0.8099976
					l1.2299805,0.8800087c0.1700439,0.1300049,0.3800049,0.1900024,0.5800171,0.1900024
					c0.1954956,0,0.3786621-0.0782471,0.5440674-0.1900635c0.1589355,1.9343262,1.491272,4.1357422,3.128418,5.0806274
					c0.8400269,0.4799805,1.6000366,0.5499878,2.1600342,0.2700195l1.2734985-0.7335815L88.41539,81.0491867
					c0.0100098,0,0.0200195,0.0100098,0.0300293,0.0100098c0.0700073,0.039978,0.1400146,0.0700073,0.2199707,0.0899658
					c0.0700073,0.0200195,0.1400146,0.0300293,0.2200317,0.0300293c0.0700073,0,0.1300049-0.0100098,0.1900024-0.0200195
					c0.0321655-0.0045776,0.0583496-0.0150757,0.0872192-0.0229492c0.3356323,1.7904053,1.5749512,3.6876221,3.0620117,4.5458374
					c0.8400269,0.4799805,1.6000366,0.5499878,2.1600342,0.2700195l1.3060303-0.7523193
					c0.0423584,0.041626,0.0842285,0.0841675,0.1347046,0.109436c0.0199585,0.0200195,0.0299683,0.0299683,0.0499878,0.039978
					l3.6599731,2.1199951c0.1500244,0.0900269,0.3300171,0.1300049,0.5,0.1300049c0.1700439,0,0.3400269-0.039978,0.5-0.1300049
					l13.1000366-7.5599976c0.3099976-0.1799927,0.5-0.5100098,0.5-0.8699951v-8.3299561
					C114.1354218,70.6292038,114.125412,70.5491867,114.1053925,70.4791794z M97.292038,62.7187386l13.8433838,7.9904823
					l-2.7800293,1.5999756L97.292038,65.9187546V62.7187386z M64.6770477,67.8673019
					c-0.8300171-0.4800415-1.5100098-1.6500244-1.5-2.6100464c0-0.9499512,0.6799927-1.3299599,1.5100098-0.8499756
					c0.8300171,0.4799805,1.5,1.6400146,1.4899902,2.5900269C66.1770477,67.9572678,65.5070648,68.3472824,64.6770477,67.8673019z
					 M92.2346649,83.7720871c-0.8300171-0.4800415-1.5100098-1.6500244-1.5-2.6100464
					c0-0.9499512,0.6799927-1.3299561,1.5100098-0.8499756s1.5,1.6400146,1.4899902,2.5900269
					C93.7346649,83.8620529,93.064682,84.2520676,92.2346649,83.7720871z M99.0353851,84.8591843l-1.6999512-0.9799805
					c-0.2800293-2.5700073-2.0300293-5.3699951-4.1800537-6.6000366c-1.3099976-0.75-2.5899658-0.8499756-3.6199951-0.2699585
					c-0.6099854,0.3399658-1.0599976,0.8899536-1.3299561,1.5999756L69.4445648,67.7766647
					c-0.1400146-2.6399536-1.9400024-5.6299477-4.210022-6.949955C63.9145355,60.0667,62.6245575,59.9766731,61.5945892,60.5667
					c-0.3300171,0.1900024-0.6100464,0.4299927-0.8300171,0.7299805v-0.3200073c0-0.2000122,0.039978-0.3800049,0.1199951-0.5499878
					c0.0100098-0.0200195,0.0299683-0.0499878,0.039978-0.0700073c0.0100098-0.0100098,0.0100098-0.0200195,0.0200195-0.0299683
					c0-0.0100098,0-0.0100098,0.0200195-0.0200195c0-0.0100098,0-0.0200195,0.0100098-0.0300293
					c0.0099487-0.0199585,0.0199585-0.039978,0.0299683-0.0499878s0.0200195-0.0199585,0.0300293-0.0299683
					c0-0.0100098,0.0099487-0.0200195,0.0199585-0.0300293c0.0400391-0.0499878,0.0900269-0.0999756,0.1400146-0.1400146
					l0.0100098-0.0099487l1.0299683-0.6000366c0.0100098,0,0.0100098,0,0.0100098,0l11.7000122-6.7699585l0.3400269-0.1900024
					c0.0199585-0.0100098,0.0499878-0.0300293,0.0699463-0.0500488c0.2400513-0.1099854,0.5200195-0.1300049,0.8400269-0.0700073
					l6.3474731,1.3720703c0.039978,0.0100098,0.0899658,0.0100098,0.1300049,0.0100098
					c0.0799561,0,0.1599731-0.0100098,0.2399902-0.039978c0.0999756-0.0100098,0.1900024-0.0500488,0.2700195-0.1000366
					c0.0099487,0,0.0099487-0.0100098,0.0199585-0.0100098c0.0100098-0.0099487,0.0200195-0.0099487,0.0300293-0.0199585h0.0100098
					l4-2.3099976l8.0499878,4.6399536l-11.5200195,6.6600342c-0.039978,0.0200195-0.0800171,0.0499878-0.1199951,0.0700073
					c-0.1300049,0.0799561-0.2399902,0.2000122-0.3200073,0.3299561c-0.0100098,0.0300293-0.0299683,0.0500488-0.039978,0.0800171
					c-0.0100098,0.0300293-0.0300293,0.0499878-0.0300293,0.0800171c-0.0199585,0.039978-0.039978,0.0800171-0.0499878,0.1300049
					c-0.0100098,0.0700073-0.0200195,0.1400146-0.0200195,0.2199707v5.0900307c0,0.0800171,0.0100098,0.1499634,0.0300293,0.2199707
					c0,0.0300293,0.0100098,0.0599976,0.0200195,0.0900269c0.0199585,0.0499878,0.0299683,0.0899658,0.0599976,0.1300049
					c0,0.0100098,0.0099487,0.0100098,0.0099487,0.0199585c0,0.0100098,0.0100098,0.0300293,0.0200195,0.0400391
					c0.0400391,0.0700073,0.0900269,0.1400146,0.1500244,0.2000122c0.039978,0.0499878,0.0899658,0.0899658,0.1499634,0.1300049
					c0.0100098,0,0.0200195,0.0099487,0.0300293,0.0199585s0.0200195,0.0100098,0.0299683,0.0200195l16.3433838,9.4304199
					V84.8591843z M95.292038,57.618763v1.8899536v1.4700317v4.909977l-7.3400269,4.2399902l-3.7600098-2.1699829v-3.9400024
					L95.292038,57.618763z M100.0353851,77.1091843l-10.0933838-5.8304443l6.3300171-3.6400146l10.083374,5.8204956
					L100.0353851,77.1091843z M112.1354218,78.4592209l-11.1000366,6.3999634v-6.0200195l11.1000366-6.3999634V78.4592209z"/>
			</g>
		</g>
		<g>
			<g>
				<polygon class="st7" points="85.6309586,58.5737419 82.6509781,60.2937737 81.2209854,59.4637566 84.2009659,57.7337761 				"/>
			</g>
			<g>
				<polygon class="st7" points="89.4409561,56.3737297 86.2510147,58.2137566 85.1110001,57.5537224 84.8110123,57.3837395 
					88.0010147,55.5437737 				"/>
			</g>
			<g>
				<path d="M93.5010147,54.1637688l-0.3500366-0.2000122l-1.460022-0.8400269l-0.25-0.1399536l-0.25,0.1399536
					l-2.8299561,1.6300049l-0.3599854,0.210022l-0.3900146,0.2299805l-3.0499878,1.7600098l-0.3600464,0.210022
					l-0.3800049,0.2199707l-2.8599854,1.6500244l-0.3599854,0.2099609l-0.1900024,0.1100464v2.039978l0.25,0.1500244
					l1.4299927,0.8299561l0.3599854,0.210022l0.2000122,0.1099854l0.1900024-0.1099854l0.3599854-0.210022l2.8500366-1.6499634
					l0.1399536-0.0800171l0.25-0.1400146l0.3600464-0.2099609l3.2000122-1.8400269l0.25-0.1400146v-0.0100098l0.3599854-0.2099609
					l2.8399658-1.6199951l0.25-0.1500244v-2.039978L93.5010147,54.1637688z M82.3409805,61.943737l-1.4299927-0.8399658v-1.1000366
					l1.4299927,0.8300171V61.943737z M82.6509781,60.2937737l-1.4299927-0.8300171l2.9799805-1.7299805l1.4299927,0.8399658
					L82.6509781,60.2937737z M85.9409561,60.2137566l-2.9899902,1.7299805v-1.1099854l2.9899902-1.7399902V60.2137566z
					 M86.2510147,58.2137566l-1.1400146-0.6600342l-0.2999878-0.1699829l3.1900024-1.8399658l1.4399414,0.8299561
					L86.2510147,58.2137566z M89.7510147,58.0237541l-3.2000122,1.8300171v-1.1000366l3.2000122-1.8499756V58.0237541z
					 M90.0610123,56.0237541l-1.4500122-0.8300171l2.8299561-1.6300049l1.460022,0.8300171L90.0610123,56.0237541z
					 M93.2009659,56.0337639l-2.8399658,1.6300049v-1.1000366l2.8399658-1.6399536V56.0337639z"/>
				<polygon class="st7" points="92.9009781,54.3937492 90.0610123,56.0237541 88.6110001,55.193737 91.4409561,53.5637321 				"/>
			</g>
			<g>
				<polygon class="st7" points="93.2009659,54.9237785 93.2009659,56.0337639 90.3610001,57.6637688 90.3610001,56.5637321 				"/>
			</g>
			<g>
				<polygon class="st7" points="89.7510147,56.903759 89.7510147,58.0237541 86.5510025,59.8537712 86.5510025,58.7537346 				"/>
			</g>
			<g>
				<polygon class="st7" points="85.9409561,59.0937614 85.9409561,60.2137566 82.9509659,61.943737 82.9509659,60.8337517 				"/>
			</g>
			<g>
				<polygon class="st7" points="82.3409805,60.8337517 82.3409805,61.943737 80.9109879,61.1037712 80.9109879,60.0037346 				"/>
			</g>
		</g>
		<polygon points="105.0562592,77.9399948 105.0562592,79.2701874 108.6353531,77.2037888 108.6353531,75.8736038 		"/>
		<polygon class="st8" points="103.0193634,80.7197266 101.2684708,81.7306061 101.2684708,84.1634064 103.0193634,83.1525269 		"/>
		<polygon class="st8" points="112.0144043,75.5349808 110.2635117,76.5458603 110.2635117,78.9786606 112.0144043,77.9677811 		"/>
	</g>
	<path d="M105.1036224,75.7882843l-11.6585693-6.7293091l-0.8599854,0.5l11.7387085,6.7756348
		C104.5655365,76.1429596,104.8179779,75.954422,105.1036224,75.7882843z"/>
	<path d="M108.7386932,72.9896469c-0.013916-0.0424805-0.0194702-0.085083-0.0348511-0.1274414
		c-0.5-1.4599609-1.5500488-2.8899536-2.7800293-3.5999756c-0.8599854-0.5-1.6400146-0.5499878-2.2199707-0.2200317
		l-0.0700073,0.0500488l-0.7300415,0.4199829l-0.5199585,0.2999878l-0.0100098,0.0100098l-0.2200317,0.1199951
		c-0.4099731,0.289978-0.6899414,0.789978-0.7799683,1.4700317l5.2184448,3.0153198
		C107.3110809,73.9532089,108.0188446,73.4621811,108.7386932,72.9896469z"/>
</g>
</svg>
