<?xml version="1.0" encoding="utf-8"?>
<!-- Generator: Adobe Illustrator 27.6.1, SVG Export Plug-In . SVG Version: 6.00 Build 0)  -->
<svg version="1.1" id="Layer_1" xmlns="http://www.w3.org/2000/svg" xmlns:xlink="http://www.w3.org/1999/xlink" x="0px" y="0px"
	 viewBox="0 0 172.8999939 90" style="enable-background:new 0 0 172.8999939 90;" xml:space="preserve">
<style type="text/css">
	.st0{fill:#888888;}
	.st1{fill:#4D4D4D;}
	.st2{fill:#B3B3B3;}
	.st3{fill:#999999;}
	.st4{fill:#CCCCCC;}
	.st5{fill:#FFFFFF;}
	.st6{fill:#808080;}
	.st7{fill:#F79420;}
</style>
<g>
	<path class="st0" d="M117.2183914,87.4629593H55.1777992V90h62.0405922c0.278244,0,0.5038071-0.225563,0.5038071-0.5038071
		v-1.5294266C117.7221985,87.6885223,117.4966354,87.4629593,117.2183914,87.4629593z"/>
	<g>
		<path d="M57.1777992,73.8719711h22.5343895v1.463623H57.1777992V73.8719711z M113.9221497,73.4062881l-11.2299805-1.3685532
			l-4.7299805-7.4415131c-0.1799927-0.2851028-0.5100098-0.465683-0.8599854-0.465683H80.7121887
			c-0.5499878,0-1,0.4276886-1,0.950386v6.890274H56.1777992c-0.5499878,0-1,0.4276886-1,0.950386v12.4120026
			c0,0.5226974,0.4500122,0.9503784,1,0.9503784h3.8500366c0.2299805,0,0.4299927-0.085495,0.5999756-0.209053
			C60.7678261,88.2607803,62.6577797,90,64.9978027,90c2.289978,0,4.1500244-1.6726837,4.3499756-3.8015289
			c0.1300049,0.0570145,0.2600098,0.085495,0.4100342,0.085495h33.9343567c0.2000122,0,0.3800049-0.0760422,0.5400391-0.1710587
			C104.3921814,88.279808,106.2721863,90,108.5921936,90c2.3099976,0,4.1799927-1.6917114,4.3599854-3.8490982
			c0.1500244,0.0760498,0.2999878,0.1330643,0.4799805,0.1330643h3.2900391c0.5499878,0,1-0.427681,1-0.9503784v-7.7646179
			C117.7221985,75.5066605,116.0921936,73.7199326,113.9221497,73.4062881z M115.7221985,84.3832016h-1.3699951v-1.9387589
			h1.3699951V84.3832016z M115.7221985,81.4940567h-1.8699951c-0.2800293,0-0.5,0.2185745-0.5,0.4751968v0.1805725
			c-1.0599976-1.4350891-2.8000488-2.3949814-4.7900391-2.3949814c-2.8999634,0-5.3099976,2.0052948-5.7799683,4.6283569H70.6677856
			c-0.4699707-2.6230621-2.8800049-4.6283569-5.7699585-4.6283569c-2.9000206,0-5.3099937,2.0052948-5.7800255,4.6283569h-1.9400024
			v-7.146843h23.5343895c0.5599976,0,1-0.427681,1-0.9503784v-7.8406601c0-0.0095139,0-0.0095139,0-0.0095139V66.031311h14.8300171
			l0.5599976,0.8838501l4.1199951,6.5006409c0.0799561,0.123558,0.1799927,0.2185745,0.2999878,0.2946167
			c0.1300049,0.0855026,0.2799683,0.1425247,0.4299927,0.1615524l0.1300049,0.0190201l11.5599976,1.3970413
			c1.1900024,0.1710587,2.0800171,1.1499786,2.0800171,2.2809372V81.4940567z"/>
		<rect x="114.3522034" y="82.4444427" class="st1" width="1.3699951" height="1.9387606"/>
		<path class="st2" d="M115.7221985,78.6333618l-1.1400146-0.4086304v-0.3041382
			c-0.25-0.0950317-0.5100098-0.1710815-0.789978-0.2090454l-12.2700195-1.5016479v-2.4995117
			c-0.1199951-0.0760498-0.2200317-0.1710205-0.2999878-0.2946167l-4.1199951-6.5006104l-0.5599976-0.8838501H81.7121887v2.40448
			c0,0,0,0,0,0.0095215v7.8406372c0,0.5227051-0.4400024,0.9503784-1,0.9503784H57.1777992v1.6964111h58.5443993V78.6333618z"/>
		<path class="st3" d="M57.1777992,78.9327393v5.4504395h1.9400024c0.4700317-2.6230469,2.8800049-4.6283569,5.7800255-4.6283569
			c2.8899536,0,5.2999878,2.0053101,5.7699585,4.6283569h32.1144104c0.4699707-2.6230469,2.8800049-4.6283569,5.7799683-4.6283569
			c1.9899902,0,3.7300415,0.9598999,4.7900391,2.3950195v-0.180603c0-0.2566528,0.2199707-0.4752197,0.5-0.4752197h1.8699951
			v-2.5612793H57.1777992z"/>
		<path class="st2" d="M115.7221985,77.5689697v0.4751968c-0.2399902-0.3421249-0.6199951-0.7223053-1.1400146-0.9219055v-1.4920502
			c0.1500244,0.0950165,0.289978,0.1995468,0.4099731,0.3135834c0.0500488,0.0475082,0.1000366,0.0950775,0.1500244,0.1425858
			c0.0100098,0.0284805,0.0299683,0.0475082,0.0499878,0.0665283c0.0499878,0.0570221,0.0900269,0.1140442,0.1300049,0.1805801
			c0.0499878,0.0665283,0.0999756,0.1425171,0.1400146,0.2185669c0.1199951,0.2185669,0.2000122,0.4656754,0.2399902,0.7222977
			C115.7121887,77.3693695,115.7221985,77.464447,115.7221985,77.5689697z"/>
		<rect x="57.1777992" y="73.8719711" class="st1" width="22.5343857" height="1.4636271"/>
	</g>
	<g>
		<ellipse class="st0" cx="64.9940338" cy="85.8234634" rx="2.0875146" ry="1.9839386"/>
		<ellipse class="st4" cx="65.8365479" cy="84.8437958" rx="0.5720984" ry="0.5437127"/>
	</g>
	<rect x="82.9961243" y="70.0532761" class="st1" width="4.9066162" height="5.5769329"/>
	<polygon class="st1" points="89.0206375,75.6302109 99.4796448,75.6302109 96.0181122,70.0532761 89.0206375,70.0532761 	"/>
	<g>
		<ellipse class="st0" cx="108.596756" cy="85.8234634" rx="2.0875146" ry="1.9839386"/>
		<ellipse class="st4" cx="109.43927" cy="84.8437958" rx="0.5720984" ry="0.5437127"/>
	</g>
	<rect x="81.7121887" y="66.031311" class="st5" width="14.8300171" height="2.4140103"/>
	<path class="st5" d="M114.5821838,75.6302109v2.2903976c-0.25-0.0950165-0.5100098-0.1710587-0.789978-0.209053
		l-12.2700195-1.5016251v-2.4995117c0.1300049,0.0855026,0.2799683,0.1425247,0.4299927,0.1615524l0.1300049,0.0190201
		l11.5599976,1.3970413c0.1500244,0.0190277,0.289978,0.0570221,0.4299927,0.1045837
		c0.1199951,0.0379944,0.2299805,0.0855026,0.3300171,0.1330109
		C114.4621887,75.5636749,114.5221863,75.5921631,114.5821838,75.6302109z"/>
	<path class="st4" d="M115.702179,77.274353c-0.4799805-0.636734-0.8599854-0.9598923-1.1199951-1.1214447v-0.5226974
		C115.1721497,75.9913025,115.6022034,76.5900497,115.702179,77.274353z"/>
	<path d="M115.7221985,77.5689697v0.4751968c-0.2399902-0.3421249-0.6199951-0.7223053-1.1400146-0.9219055v-0.9693527
		c0.2600098,0.1615524,0.6400146,0.4847107,1.1199951,1.1214447
		C115.7121887,77.3693695,115.7221985,77.464447,115.7221985,77.5689697z"/>
	<path class="st4" d="M101.5221863,73.7104187v2.4995117h-0.0499878l-0.2300415-0.3706589l-4.6999512-7.3939514V66.031311
		l0.5599976,0.8838501l4.1199951,6.5006409C101.3021545,73.53936,101.4021912,73.6343765,101.5221863,73.7104187z"/>
	<polygon class="st6" points="100.9988708,73.4323349 97.3999939,67.753006 97.3999939,69.4269638 100.9988708,75.0890656 	"/>
	<path class="st4" d="M115.7221985,78.0441666V78.6334l-1.1400146-0.4086609v-1.102478
		C115.1022034,77.3218613,115.4822083,77.7020416,115.7221985,78.0441666z"/>
	<g>
		<path d="M85.1890259,62.9107628h-3.3168793c-0.236145,0-0.4272614,0.1798668-0.4272614,0.416008v4.1938438
			c0,0.2248917,0.1911163,0.416008,0.4272614,0.416008h3.3168793c0.224884,0,0.416008-0.1911163,0.416008-0.416008v-4.1938438
			C85.6050339,63.0906296,85.4139099,62.9107628,85.1890259,62.9107628z M84.7617645,67.0933533h-2.4736099v-1.5965729h2.4736099
			V67.0933533z M84.7617645,64.653511h-2.4736099v-0.8994789h2.4736099V64.653511z"/>
		<rect x="82.2881546" y="63.7540321" class="st7" width="2.4736097" height="0.8994757"/>
		<rect x="82.2881546" y="65.4967804" class="st7" width="2.4736097" height="1.5965745"/>
	</g>
</g>
</svg>
