<?xml version="1.0" encoding="utf-8"?>
<!-- Generator: Adobe Illustrator 27.6.1, SVG Export Plug-In . SVG Version: 6.00 Build 0)  -->
<svg version="1.1" id="Layer_1" xmlns="http://www.w3.org/2000/svg" xmlns:xlink="http://www.w3.org/1999/xlink" x="0px" y="0px"
	 viewBox="0 0 172.8999939 90" style="enable-background:new 0 0 172.8999939 90;" xml:space="preserve">
<style type="text/css">
	.st0{fill:#888888;}
	.st1{fill:none;stroke:#000000;stroke-width:2;stroke-linecap:round;stroke-linejoin:round;stroke-miterlimit:10;}
	.st2{fill:#FFFFFF;}
	.st3{fill:#CCCCCC;}
	.st4{fill:#808080;}
	.st5{fill:#B3B3B3;}
	.st6{fill:#999999;}
	.st7{fill:#4D4D4D;}
	.st8{fill:#F79420;}
</style>
<g>
	<g>
		<path class="st0" d="M113.4315033,82.7203979l-11.977005,6.9210434c-0.602417,0.348114-1.3168488,0.4475632-1.9914398,0.2772064
			l-3.710289-0.9369583L72.0782776,75.3068161L58.6449509,67.546257c-0.2400322-0.1386414-0.2399788-0.4851303,0.0000954-0.6237106
			l13.0376701-7.093895c0.111412-0.0643082,7.1109848,1.4096832,7.2223969,1.4740028l33.0316849,19.0714378l1.592514,1.4804688
			C113.7961578,82.1026306,113.7469711,82.5381012,113.4315033,82.7203979z"/>
		<path class="st1" d="M77.0935287,61.7678719"/>
		<g>
			<g>
				<g>
					<polygon class="st2" points="99.5527802,60.9163132 87.9127655,67.6363449 78.4227753,62.1563034 90.0627899,55.4363327 					
						"/>
					<path class="st3" d="M103.5927582,67.3763351l-12.1099854,6.9899902l-3.5700073-6.7299805l11.6400146-6.7200317
						l0.2700195,0.1600342l3.0899658,5.1499634l0.6300049,1.0599976
						C103.5527802,67.3263474,103.5727997,67.3463058,103.5927582,67.3763351z"/>
					<polygon class="st4" points="88.5806732,67.8273239 99.5064545,61.5206833 102.9068451,67.1945114 91.6822357,73.6740036 					
						"/>
					<path class="st2" d="M112.2850723,75.2086563l-12.1000366,6.9900513
						c-0.2600098-0.5800171-0.6499634-1.1100464-1.1499634-1.5300293l-2.4100342-2.0100098l-5.1400146-4.289978
						l12.1100464-6.9899902l0.0100098,0.0100098c0.0299683,0.0699463,0.0799561,0.1299438,0.1499634,0.1899414
						c0,0.0100098,0.0100098,0.0200195,0.0200195,0.0300293c0.0100098,0.0200195,0.0299683,0.0300293,0.039978,0.039978
						l4.8599854,4.0500488l2.6900024,2.25C111.7750626,74.2886734,112.0950699,74.7286758,112.2850723,75.2086563z"/>
					<path class="st5" d="M100.0850601,81.9986954L60.3749313,59.0743523v-1.5200195l16.5500946,9.5643578
						c0.3099976,0.1699829,0.6900024,0.1699829,1,0c0.3099976-0.1799927,0.5-0.5100098,0.5-0.8699951v-4.0900269
						l9.4900513,5.4800415l3.5699463,6.7299805l7.5500488,6.2999878
						C99.4750748,81.0386734,99.8350601,81.4986954,100.0850601,81.9986954z"/>
					<path class="st6" d="M100.5150528,83.3787003l-2.4199829-1.3900146c-0.1500244-0.0900269-0.3400269-0.0900269-0.5,0
						c-0.1500244,0.0899658-0.25,0.2600098-0.25,0.4299927v0.7399902c-0.5800171-1.8599854-1.8900146-3.6599731-3.4500122-4.5599976
						c-1.1900024-0.6799927-2.4100342-0.7700195-3.3400269-0.2299805c-0.6499634,0.3800049-1.1099854,1.0200195-1.3200073,1.8399658
						L68.9849167,68.5143509c-0.0299683-2.4200439-1.6699829-5.2400475-3.7699585-6.4500084
						c-1.210022-0.6900024-2.3900146-0.7800293-3.3300171-0.2300415c-0.6500244,0.3700562-1.1000366,1.0100098-1.3200073,1.8200073
						l-0.1900024-0.1099854v-4.4699707l39.7101288,22.9243431C100.3150406,82.428688,100.4550552,82.8986588,100.5150528,83.3787003
						z"/>
					<path class="st7" d="M112.5255585,77.643837v1.0200195l-12.1100464,7l-2.0700073-0.5599976v-1.8200073l1.960022,1.1300049
						c0.039978,0.0300293,0.0900269,0.039978,0.1300049,0.0499878s0.0800171,0.0200195,0.1199951,0.0200195
						c0.0900269,0,0.1699829-0.0200195,0.25-0.0700073L112.5255585,77.643837z"/>
				</g>
			</g>
		</g>
		<path class="st3" d="M104.2750626,81.2587051l-3.7200317,2.1499634l-0.039978-0.0299683
			c-0.0499878-0.4100342-0.1599731-0.8099976-0.3300171-1.1799927l3.7200317-2.1500244
			c0.1699829,0.3699951,0.2799683,0.7700195,0.3299561,1.1799927L104.2750626,81.2587051z"/>
		<path class="st4" d="M77.465065,60.4086685l-0.4299927,0.25c-0.0400391,0.0200195-0.0700073,0.0300293-0.1100464,0.0599976
			c-0.0799561,0.0400391-0.1499634,0.1000366-0.2099609,0.1600342c-0.0499878,0.0499878-0.1000366,0.1099854-0.1400146,0.1699829
			c-0.0200195,0.0299683-0.039978,0.0700073-0.0499878,0.0999756c-0.0100098,0.0300293-0.0300293,0.0500488-0.0300293,0.0800171
			c-0.0199585,0.039978-0.039978,0.0900269-0.0499878,0.1400146c-0.0100098,0.0700073-0.0200195,0.1400146-0.0200195,0.2099609
			v2.9400024l-8.4000702-4.8643456l4.0699463-2.3499756L77.465065,60.4086685z"/>
		<polygon class="st7" points="84.3550797,56.428688 78.465065,59.8286514 72.594902,56.4443474 72.594902,49.6343498 		"/>
		<polygon class="st7" points="71.594902,49.9243279 71.594902,56.4443474 67.0249557,59.084301 61.3849411,55.8243523 		"/>
		<path class="st3" d="M112.5250626,76.428688v0.0599976l-3.4500122,2l-0.039978-0.0300293
			c-0.0500488-0.4099731-0.1600342-0.8099976-0.3300171-1.1799927l3.5800171-2.0700073
			C112.4450455,75.5886612,112.5250626,76.0087051,112.5250626,76.428688z"/>
		<polygon class="st7" points="82.9820938,69.4786758 90.5550308,73.848671 87.2950821,67.7286758 82.9820938,65.234108 		"/>
		<polygon class="st7" points="81.9820938,64.6557388 78.8750381,62.8586807 78.8750381,67.1086807 81.9820938,68.9016495 		"/>
		<g>
			<g>
				<path class="st0" d="M64.9565582,67.3920364c-0.2170563-0.1253204-0.3889084-0.4229584-0.3882065-0.6723938
					c0.0007095-0.2494431,0.1736832-0.3479691,0.3907394-0.2226486c0.2171021,0.1253433,0.388916,0.4229279,0.3882065,0.6723709
					S65.1736603,67.5173798,64.9565582,67.3920364 M64.3855591,65.7837296
					c-0.7853088-0.4533997-1.4258308-0.0883331-1.4283867,0.8140411c-0.0025597,0.9023819,0.6338005,2.0046234,1.4191093,2.4580231
					s1.4258728,0.0883865,1.4284286-0.8139954C65.8072739,67.3394241,65.1708679,66.2371292,64.3855591,65.7837296"/>
				<path class="st3" d="M64.9590912,66.496994c-0.2170563-0.1253204-0.3900299-0.0267944-0.3907394,0.2226486
					c-0.0007019,0.2494354,0.1711502,0.5470734,0.3882065,0.6723938c0.2171021,0.1253433,0.3900299,0.0267715,0.3907394-0.2226715
					S65.1761932,66.6223373,64.9590912,66.496994"/>
			</g>
		</g>
		<g>
			<g>
				<path class="st0" d="M93.0755615,83.6318359c-0.2170563-0.1253204-0.388916-0.4229584-0.3882065-0.6724014
					c0.0007095-0.2494354,0.1736832-0.3479614,0.3907394-0.222641c0.2171021,0.1253433,0.388916,0.4229279,0.3882065,0.6723709
					C93.4655914,83.6585999,93.2926559,83.7571716,93.0755615,83.6318359 M92.5045624,82.0235214
					c-0.7853088-0.453392-1.425827-0.0883331-1.4283905,0.8140488c-0.0025558,0.9023819,0.6338043,2.0046234,1.4191132,2.4580231
					s1.4258728,0.0883865,1.4284286-0.8139954C93.9262772,83.579216,93.2898712,82.4769211,92.5045624,82.0235214"/>
				<path class="st3" d="M93.0780945,82.7367935c-0.2170563-0.1253204-0.3900299-0.0267944-0.3907394,0.222641
					c-0.0007095,0.2494431,0.1711502,0.547081,0.3882065,0.6724014c0.2170944,0.1253357,0.3900299,0.0267639,0.3907394-0.2226715
					C93.4670105,83.1597214,93.2951965,82.8621368,93.0780945,82.7367935"/>
			</g>
		</g>
		<g>
			<path d="M112.6450577,72.4086685l-7.4199829-6.1900024l-3.8099976-6.3900146
				c-0.0900269-0.1499634-0.210022-0.2699585-0.3600464-0.3499756l-10.4899902-6.0599976
				c-0.3002319-0.1743164-0.664978-0.1760864-0.9693604-0.0127563c-0.0332031,0.0057983-0.0673218,0.0075684-0.0976562,0.0227661
				l-3.1671753,1.8259888L72.844902,47.4643059c-0.3099976-0.1699829-0.6900024-0.1699829-1,0l-12.9699707,7.4900513
				c-0.0800171,0.0499878-0.1500244,0.0999756-0.210022,0.1699829c-0.0700073,0.0599976-0.1199951,0.1300049-0.1599731,0.2099609
				c-0.039978,0.0599976-0.0700073,0.1300049-0.0900269,0.210022c-0.0100098,0.0200195-0.0100098,0.039978-0.0100098,0.0700073
				c-0.0199585,0.0700073-0.0299683,0.1400146-0.0299683,0.210022v8.299984c0,0.3599854,0.1900024,0.6900024,0.5,0.8699951
				l2.0700073,1.2000122c0.1531982,0.0881958,0.3216553,0.1265869,0.4899902,0.1272583
				c0.2414551,1.7562866,1.4602051,3.6905518,2.9400635,4.5374756c0.4800415,0.2799683,0.9400024,0.4099731,1.3400269,0.4099731
				c0.2399902,0,0.4699707-0.0499878,0.6699829-0.1400146l0.25-0.1400146l1.3122559-0.7602539l21.6298676,12.4964294
				c0.2927246,1.7111816,1.4832153,3.5531616,2.9168701,4.3736572c0.4800415,0.2799683,0.9400024,0.4099731,1.3400269,0.4099731
				c0.2399902,0,0.4699707-0.0499878,0.6699829-0.1400146l0.25-0.1400146l1.3174438-0.7632446
				c0.0193481,0.0129395,0.0331421,0.0315552,0.0535889,0.0431519l0.1400146,0.0799561
				c0.0800171,0.0400391,0.1599731,0.0700073,0.2399902,0.1000366l1.0200195,0.2699585l0.0899658,0.0200195l0.0900269,0.0200195
				v0.0100098l2.5900269,0.6999512c0.0899658,0.0200195,0.1699829,0.0300293,0.2599487,0.0300293
				c0.1700439,0,0.3500366-0.0499878,0.5-0.1300049l12.9700317-7.4899902c0.3099976-0.1799927,0.5-0.5100098,0.5-0.8699951
				V76.428688C114.5250626,74.8686905,113.8350601,73.4086685,112.6450577,72.4086685z M87.6606216,56.8707657l-3.1970215,1.8373413
				l-0.0307617-0.0178833l3.1896973-1.8414307L87.6606216,56.8707657z M87.9668961,57.397438v1.1146851l-3.1970215,1.8373413
				v-1.102417L87.9668961,57.397438z M83.8511734,59.0633316l-2.9888306,1.7271118l-0.0335693-0.0195312l2.9902344-1.7262573
				L83.8511734,59.0633316z M84.1573868,59.590004v1.1146851l-2.9887695,1.7271729v-1.102478L84.1573868,59.590004z
				 M80.5561295,61.3293839v1.102478l-1.2977905-0.7542725l0.9516602-0.5493774L80.5561295,61.3293839z M90.0650406,55.4386978
				l0.0430298,0.0248413L88.2731094,56.51548l-0.0366211-0.0211182L90.0650406,55.4386978z M88.5793228,57.0544205
				l2.1416626-1.2369385l0.7001343,0.4042969v0.3059692l-2.8417969,1.6291504V57.0544205z M72.594902,49.6343498
				l11.7312469,6.7776146L82.2587662,57.60569l-3.6012573,2.0823364c-0.0122681,0.0122681-0.0244751,0.0367432-0.0367432,0.0490112
				c-0.0064697,0.0065308-0.0130005,0.0097656-0.0195312,0.0130005l-0.1361694,0.0786133l-5.870163-3.384304V49.6343498z
				 M72.094902,57.3043327l5.370163,3.1043358l-0.4299927,0.25c-0.0400391,0.0200195-0.0700073,0.0300293-0.1100464,0.0599976
				c-0.0799561,0.0400391-0.1499634,0.1000366-0.2099609,0.1600342c-0.0499878,0.0499878-0.1000366,0.1099854-0.1400146,0.1699829
				c-0.0200195,0.0299683-0.039978,0.0700073-0.0499878,0.0999756c-0.0100098,0.0300293-0.0300293,0.0500488-0.0300293,0.0800171
				c-0.0199585,0.039978-0.039978,0.0900269-0.0499878,0.1400146c-0.0100098,0.0700073-0.0200195,0.1400146-0.0200195,0.2099609
				v2.9400024l-8.4000702-4.8643456L72.094902,57.3043327z M71.594902,49.9243279v6.5200195l-4.5699463,2.6399536
				l-5.6400146-3.2599487L71.594902,49.9243279z M65.1150436,69.2390213
				c-0.210022,0.0300293-0.4700317-0.0299683-0.7400513-0.1799927c-0.7799683-0.4599609-1.4199829-1.5599976-1.4199829-2.4599609
				c0-0.2900391,0.0700073-0.5300293,0.2000122-0.7000122c0.2399902-0.3500366,0.7000122-0.4199829,1.2299805-0.1199951
				c0.7900391,0.4599609,1.4200439,1.5599976,1.4200439,2.4599609
				C65.8050461,68.8390579,65.5250168,69.1990433,65.1150436,69.2390213z M93.2340469,85.4787979
				c-0.210022,0.0300293-0.4700317-0.0299683-0.7400513-0.1799927c-0.7799683-0.4599609-1.4199829-1.5599976-1.4199829-2.4599609
				c0-0.2900391,0.0700073-0.5300293,0.2000122-0.7000122c0.2399902-0.3500366,0.7000122-0.4199829,1.2299805-0.1199951
				c0.7900391,0.4599609,1.4200439,1.5599976,1.4200439,2.4599609
				C93.9240494,85.0788345,93.6440201,85.4388199,93.2340469,85.4787979z M112.5250626,78.6686783l-12.1099854,7
				l-2.0700073-0.5599976v-1.8200073l1.9599609,1.1300049c0.0400391,0.0300293,0.0900269,0.039978,0.1300049,0.0499878
				c0.0400391,0.0100098,0.0800171,0.0200195,0.1199951,0.0200195c0.0900269,0,0.1700439-0.0200195,0.25-0.0700073
				l11.7200317-6.7700195V78.6686783z M112.5250626,76.4886856l-1.9199829,1.1099854l-0.2900391,0.1699829h-0.0100098
				l-1.2399902,0.710022l-0.0299683-0.0200195c-0.0500488-0.4099731-0.1600342-0.8099976-0.3300171-1.1799927l-4.7999878,2.7700195
				c0.1699829,0.3699951,0.2799683,0.7700195,0.3299561,1.1799927l0.0400391,0.0300293l-3.7200317,2.1499634l-0.039978-0.0299683
				l-2.4199829-1.3900146c-0.1500244-0.0900269-0.3400269-0.0900269-0.5,0c-0.1500244,0.0899658-0.25,0.2600098-0.25,0.4299927
				v0.7399902c-0.5800171-1.8599854-1.8900146-3.6599731-3.4500122-4.5599976
				c-1.1900024-0.6799927-2.4100342-0.7700195-3.3400269-0.2299805c-0.6499634,0.3800049-1.1099854,1.0200195-1.3200073,1.8399658
				L68.9849167,68.5143509c-0.0299683-2.4200439-1.6699829-5.2400475-3.7699585-6.4500084
				c-1.210022-0.6900024-2.3900146-0.7800293-3.3300171-0.2300415c-0.6500244,0.3700562-1.1000366,1.0100098-1.3200073,1.8200073
				l-0.1900024-0.1099854v-5.9899902l16.5500946,9.5643578c0.3099976,0.1699829,0.6900024,0.1699829,1,0
				c0.3099976-0.1799927,0.5-0.5100098,0.5-0.8699951v-4.0900269l0.2232666-0.1289062
				c0.0036621,0.0028076,0.0054932,0.0074463,0.0092163,0.0101318l2.0455933,1.1881104
				c0.0490723,0.0245361,0.1102905,0.0368042,0.1592407,0.0368042c0.0490112,0,0.0980225-0.0122681,0.1470337-0.0368042
				l10.8649902-6.2593384c0.0980225-0.0612183,0.1592407-0.1592407,0.1592407-0.2694092v-0.1238403l7.5214233,4.3432617
				l0.2700195,0.1599731l3.7200317,6.210022c0.0099487,0.039978,0.0299683,0.0599976,0.0499878,0.0900269l0.0100098,0.0100098
				c0.039978,0.0699463,0.0899658,0.1399536,0.1499634,0.1899414c0,0.0100098,0.0100098,0.0200195,0.0200195,0.0300293
				c0.0100098,0.0200195,0.0299683,0.0300293,0.039978,0.039978l7.5499878,6.3000488
				c0.2200317,0.1799927,0.4100342,0.3799438,0.5599976,0.6099854c0.0700073,0.0899658,0.1400146,0.1900024,0.1900024,0.2999878
				c0.0700073,0.1099854,0.1199951,0.2299805,0.1700439,0.3499756c0.0299683,0.0700073,0.0599976,0.1500244,0.0799561,0.2200317
				c0.0300293,0.0700073,0.0500488,0.1400146,0.0599976,0.2199707c0.0400391,0.1300049,0.0599976,0.2700195,0.0800171,0.4200439
				c0.0100098,0.1199951,0.0200195,0.2399902,0.0200195,0.3599854V76.4886856z"/>
			<g>
				<polygon class="st8" points="83.8511658,59.0633469 80.8623657,60.7904434 79.4292374,59.9575119 82.4180374,58.2304115 				"/>
				<polygon class="st8" points="87.6606369,56.8707695 84.463623,58.7081451 83.3244629,58.0466423 83.0304947,57.8751373 
					86.2152481,56.0377617 				"/>
				<polygon class="st8" points="91.1149139,54.8863373 88.2730942,56.5154991 86.8277054,55.6825638 89.6572571,54.0534019 				"/>
				<polygon class="st8" points="91.4211426,55.4131165 91.4211426,56.5277596 88.5793228,58.1569176 88.5793228,57.0544624 				"/>
				<polygon class="st8" points="87.9668655,57.3974762 87.9668655,58.5121193 84.7698517,60.3494911 84.7698517,59.247036 				"/>
				<polygon class="st8" points="84.1573944,59.5900497 84.1573944,60.7046928 81.1685944,62.4318657 81.1685944,61.3294106 				"/>
				<polygon class="st8" points="80.5561371,61.3294106 80.5561371,62.4318657 79.1230087,61.5989304 79.1230087,60.4964752 				"/>
			</g>
		</g>
	</g>
	<path d="M79.8395691,59.5899162c-0.013916-0.0424805-0.0194702-0.085083-0.0348511-0.1274414
		c-0.5-1.4599609-1.5500488-2.8899536-2.7800293-3.5999756c-0.8599854-0.5-1.6400146-0.5499878-2.2199707-0.2200317
		l-0.0700073,0.0500488l-0.7300415,0.4199829l-0.5199585,0.2999878l-0.0100098,0.0100098l-0.2200317,0.1199951
		c-0.4099731,0.289978-0.6899414,0.789978-0.7799683,1.4700317l5.2184448,3.0153198
		C78.4119568,60.5534782,79.1197205,60.0624504,79.8395691,59.5899162z"/>
	<path d="M77.2709732,63.2011566c0.0205078-0.2958984,0.0477905-0.5961914,0.097229-0.8916016l-7.656189-4.4191284l-0.8599854,0.5
		l8.4143677,4.8567505C77.2675552,63.2317963,77.2698746,63.2165985,77.2709732,63.2011566z"/>
</g>
</svg>
