<?xml version="1.0" encoding="utf-8"?>
<!-- Generator: Adobe Illustrator 27.6.1, SVG Export Plug-In . SVG Version: 6.00 Build 0)  -->
<svg version="1.1" id="Layer_1" xmlns="http://www.w3.org/2000/svg" xmlns:xlink="http://www.w3.org/1999/xlink" x="0px" y="0px"
	 viewBox="0 0 172.8999939 90" style="enable-background:new 0 0 172.8999939 90;" xml:space="preserve">
<style type="text/css">
	.st0{fill:#888888;}
	.st1{fill:none;stroke:#000000;stroke-width:2;stroke-linecap:round;stroke-linejoin:round;stroke-miterlimit:10;}
	.st2{fill:#FFFFFF;}
	.st3{fill:#CCCCCC;}
	.st4{fill:#808080;}
	.st5{fill:#B3B3B3;}
	.st6{fill:#999999;}
	.st7{fill:#4D4D4D;}
	.st8{fill:#F79420;}
</style>
<g>
	<g>
		<path class="st0" d="M59.4684868,82.7203979l11.9770088,6.9210434c0.602417,0.348114,1.3168488,0.4475632,1.9914398,0.2772064
			l3.710289-0.9369583l23.6744919-13.6748734l13.4333267-7.7605591c0.2400284-0.1386414,0.2399826-0.4851303-0.0000916-0.6237106
			l-13.037674-7.093895c-0.111412-0.0643082-7.1109848,1.4096832-7.2223969,1.4740028L60.9631958,80.3740921l-1.592514,1.4804688
			C59.1038361,82.1026306,59.1530266,82.5381012,59.4684868,82.7203979z"/>
		<path class="st1" d="M95.8064651,61.7678719"/>
		<g>
			<g>
				<g>
					<polygon class="st2" points="73.3472137,60.9163132 84.9872284,67.6363449 94.4772186,62.1563034 82.837204,55.4363327 					
						"/>
					<path class="st3" d="M69.3072357,67.3763351l12.1099854,6.9899902l3.5700073-6.7299805l-11.6400146-6.7200317
						l-0.2700195,0.1600342l-3.0899658,5.1499634l-0.6300049,1.0599976
						C69.3472137,67.3263474,69.3271942,67.3463058,69.3072357,67.3763351z"/>
					<polygon class="st4" points="84.3193207,67.8273239 73.3935394,61.5206833 69.9931488,67.1945114 81.2177582,73.6740036 					
						"/>
					<path class="st2" d="M60.6149216,75.2086563l12.1000366,6.9900513
						c0.2600098-0.5800171,0.6499634-1.1100464,1.1499634-1.5300293l2.4100342-2.0100098l5.1400146-4.289978L69.304924,67.3787003
						L69.2949142,67.38871c-0.0299683,0.0699463-0.0799561,0.1299438-0.1499634,0.1899414
						c0,0.0100098-0.0100098,0.0200195-0.0200195,0.0300293c-0.0100098,0.0200195-0.0299683,0.0300293-0.039978,0.039978
						l-4.8599854,4.0500488l-2.6900024,2.25C61.1249313,74.2886734,60.804924,74.7286758,60.6149216,75.2086563z"/>
					<path class="st5" d="M72.8149338,81.9986954l39.7101288-22.9243431v-1.5200195L95.974968,67.1186905
						c-0.3099976,0.1699829-0.6900024,0.1699829-1,0c-0.3099976-0.1799927-0.5-0.5100098-0.5-0.8699951v-4.0900269
						L84.9849167,67.63871l-3.5699463,6.7299805l-7.5500488,6.2999878
						C73.4249191,81.0386734,73.0649338,81.4986954,72.8149338,81.9986954z"/>
					<path class="st6" d="M72.3849411,83.3787003l2.4199829-1.3900146c0.1500244-0.0900269,0.3400269-0.0900269,0.5,0
						c0.1500244,0.0899658,0.25,0.2600098,0.25,0.4299927v0.7399902c0.5800171-1.8599854,1.8900146-3.6599731,3.4500122-4.5599976
						c1.1900024-0.6799927,2.4100342-0.7700195,3.3400269-0.2299805c0.6499634,0.3800049,1.1099854,1.0200195,1.3200073,1.8399658
						l20.2501068-11.6943054c0.0299683-2.4200439,1.6699829-5.2400475,3.7699585-6.4500084
						c1.210022-0.6900024,2.3900146-0.7800293,3.3300171-0.2300415c0.6500244,0.3700562,1.1000366,1.0100098,1.3200073,1.8200073
						l0.1900024-0.1099854v-4.4699707L72.8149338,81.9986954C72.5849533,82.428688,72.4449387,82.8986588,72.3849411,83.3787003z"/>
					<path class="st7" d="M60.3744316,77.643837v1.0200195l12.1100502,7l2.0700073-0.5599976v-1.8200073l-1.960022,1.1300049
						c-0.039978,0.0300293-0.0900269,0.039978-0.1300049,0.0499878s-0.0800171,0.0200195-0.1199951,0.0200195
						c-0.0900269,0-0.1699829-0.0200195-0.25-0.0700073L60.3744316,77.643837z"/>
				</g>
			</g>
		</g>
		<path class="st3" d="M68.6249313,81.2587051l3.7200317,2.1499634l0.039978-0.0299683
			c0.0499878-0.4100342,0.1599731-0.8099976,0.3300171-1.1799927l-3.7200317-2.1500244
			c-0.1699829,0.3699951-0.2799683,0.7700195-0.3299561,1.1799927L68.6249313,81.2587051z"/>
		<path class="st4" d="M95.4349289,60.4086685l0.4299927,0.25c0.0400391,0.0200195,0.0700073,0.0300293,0.1100464,0.0599976
			c0.0799561,0.0400391,0.1499634,0.1000366,0.2099609,0.1600342c0.0499878,0.0499878,0.1000366,0.1099854,0.1400146,0.1699829
			c0.0200195,0.0299683,0.039978,0.0700073,0.0499878,0.0999756c0.0100098,0.0300293,0.0300293,0.0500488,0.0300293,0.0800171
			c0.0199585,0.039978,0.039978,0.0900269,0.0499878,0.1400146c0.0100098,0.0700073,0.0200195,0.1400146,0.0200195,0.2099609
			v2.9400024l8.4000702-4.8643456l-4.0699463-2.3499756L95.4349289,60.4086685z"/>
		<polygon class="st7" points="88.5449142,56.428688 94.4349289,59.8286514 100.3050919,56.4443474 100.3050919,49.6343498 		"/>
		<polygon class="st7" points="101.3050919,49.9243279 101.3050919,56.4443474 105.8750381,59.084301 111.5150528,55.8243523 		"/>
		<path class="st3" d="M60.3749313,76.428688v0.0599976l3.4500122,2l0.039978-0.0300293
			c0.0500488-0.4099731,0.1600342-0.8099976,0.3300171-1.1799927l-3.5800171-2.0700073
			C60.4549484,75.5886612,60.3749313,76.0087051,60.3749313,76.428688z"/>
		<polygon class="st7" points="89.9179001,69.4786758 82.3449631,73.848671 85.6049118,67.7286758 89.9179001,65.234108 		"/>
		<polygon class="st7" points="90.9179001,64.6557388 94.0249557,62.8586807 94.0249557,67.1086807 90.9179001,68.9016495 		"/>
		<g>
			<g>
				<path class="st0" d="M107.9434357,67.3920364c-0.2171021,0.1253433-0.3900299,0.0267715-0.3907394-0.2226715
					s0.1711044-0.5470276,0.3882065-0.6723709c0.2170563-0.1253204,0.3900299-0.0267944,0.3907394,0.2226486
					C108.3323441,66.9690781,108.1604919,67.266716,107.9434357,67.3920364 M108.5144348,65.7837296
					c-0.7853088,0.4533997-1.4217148,1.5556946-1.4191513,2.4580688c0.0025558,0.9023819,0.6431198,1.267395,1.4284286,0.8139954
					s1.421669-1.5556412,1.4191132-2.4580231C109.9402618,65.6953964,109.2997437,65.3303299,108.5144348,65.7837296"/>
				<path class="st3" d="M107.9409027,66.496994c0.2170563-0.1253204,0.3900299-0.0267944,0.3907394,0.2226486
					c0.0007019,0.2494354-0.1711502,0.5470734-0.3882065,0.6723938c-0.2171021,0.1253433-0.3900299,0.0267715-0.3907394-0.2226715
					S107.7238007,66.6223373,107.9409027,66.496994"/>
			</g>
		</g>
		<g>
			<g>
				<path class="st0" d="M79.8244324,83.6318359c-0.2170944,0.1253357-0.3900299,0.0267639-0.3907394-0.2226715
					c-0.0007095-0.2494431,0.1711044-0.5470276,0.3882065-0.6723709c0.2170563-0.1253204,0.3900299-0.0267944,0.3907394,0.222641
					C80.2133484,83.2088776,80.0414886,83.5065155,79.8244324,83.6318359 M80.3954315,82.0235214
					c-0.7853088,0.4533997-1.4217148,1.5556946-1.4191513,2.4580765c0.0025558,0.9023819,0.6431198,1.267395,1.4284286,0.8139954
					s1.421669-1.5556412,1.4191132-2.4580231C81.8212585,81.9351883,81.1807404,81.5701294,80.3954315,82.0235214"/>
				<path class="st3" d="M79.8218994,82.7367935c0.2170563-0.1253204,0.3900299-0.0267944,0.3907394,0.222641
					c0.0007095,0.2494431-0.1711502,0.547081-0.3882065,0.6724014c-0.2170944,0.1253357-0.3900299,0.0267639-0.3907394-0.2226715
					C79.4329834,83.1597214,79.6047974,82.8621368,79.8218994,82.7367935"/>
			</g>
		</g>
		<g>
			<path d="M58.3749313,76.428688v2.8200073c0,0.3599854,0.1900024,0.6900024,0.5,0.8699951l12.9700317,7.4899902
				c0.1499634,0.0800171,0.3299561,0.1300049,0.5,0.1300049c0.0899658,0,0.1699829-0.0100098,0.2599487-0.0300293
				l2.5900269-0.6999512v-0.0100098l0.0900269-0.0200195l0.0899658-0.0200195l1.0200195-0.2699585
				c0.0800171-0.0300293,0.1599731-0.0599976,0.2399902-0.1000366l0.1400146-0.0799561
				c0.0204468-0.0115967,0.0342407-0.0302124,0.0535889-0.0431519l1.3174438,0.7632446l0.25,0.1400146
				c0.2000122,0.0900269,0.4299927,0.1400146,0.6699829,0.1400146c0.4000244,0,0.8599854-0.1300049,1.3400269-0.4099731
				c1.4336548-0.8204956,2.6241455-2.6624756,2.9168701-4.3736572l21.6298676-12.4964294l1.3122559,0.7602539l0.25,0.1400146
				c0.2000122,0.0900269,0.4299927,0.1400146,0.6699829,0.1400146c0.4000244,0,0.8599854-0.1300049,1.3400269-0.4099731
				c1.4798584-0.8469238,2.6986084-2.781189,2.9400635-4.5374756c0.168335-0.0006714,0.336792-0.0390625,0.4899902-0.1272583
				l2.0700073-1.2000122c0.3099976-0.1799927,0.5-0.5100098,0.5-0.8699951v-8.299984
				c0-0.0700073-0.0100098-0.1400146-0.0299683-0.210022c0-0.0300293,0-0.0499878-0.0100098-0.0700073
				c-0.0200195-0.0800171-0.0500488-0.1500244-0.0900269-0.210022c-0.039978-0.0799561-0.0899658-0.1499634-0.1599731-0.2099609
				c-0.0599976-0.0700073-0.1300049-0.1199951-0.210022-0.1699829l-12.9699707-7.4900513
				c-0.3099976-0.1699829-0.6900024-0.1699829-1,0l-13.4859467,7.7903709l-3.1671753-1.8259888
				c-0.0303345-0.0151978-0.0644531-0.0169678-0.0976562-0.0227661c-0.3043823-0.1633301-0.6691284-0.1615601-0.9693604,0.0127563
				l-10.4899902,6.0599976c-0.1500244,0.0800171-0.2700195,0.2000122-0.3600464,0.3499756l-3.8099976,6.3900146
				l-7.4199829,6.1900024C59.0649338,73.4086685,58.3749313,74.8686905,58.3749313,76.428688z M85.2774582,56.848793
				l3.1896973,1.8414307l-0.0307617,0.0178833l-3.1970215-1.8373413L85.2774582,56.848793z M88.1301193,59.2470474v1.102417
				l-3.1970215-1.8373413V57.397438L88.1301193,59.2470474z M89.080986,59.0446548l2.9902344,1.7262573l-0.0335693,0.0195312
				l-2.9888306-1.7271118L89.080986,59.0446548z M91.7313766,61.3293839v1.102478l-2.9887695-1.7271729V59.590004
				L91.7313766,61.3293839z M92.6899948,61.128212l0.9516602,0.5493774l-1.2977905,0.7542725v-1.102478L92.6899948,61.128212z
				 M84.6635056,56.4943619L84.6268845,56.51548l-1.8349609-1.0519409l0.0430298-0.0248413L84.6635056,56.4943619z
				 M84.3206711,58.1568985l-2.8417969-1.6291504v-0.3059692l0.7001343-0.4042969l2.1416626,1.2369385V58.1568985z
				 M100.3050919,56.4443474l-5.870163,3.384304l-0.1361694-0.0786133
				c-0.0065308-0.0032349-0.0130615-0.0064697-0.0195312-0.0130005c-0.0122681-0.0122681-0.0244751-0.0367432-0.0367432-0.0490112
				L90.6412277,57.60569l-2.0673828-1.1937256l11.7312469-6.7776146V56.4443474z M104.8750381,59.6543083l-8.4000702,4.8643456
				v-2.9400024c0-0.0699463-0.0100098-0.1399536-0.0200195-0.2099609c-0.0100098-0.0499878-0.0300293-0.1000366-0.0499878-0.1400146
				c0-0.0299683-0.0200195-0.0499878-0.0300293-0.0800171c-0.0100098-0.0299683-0.0299683-0.0700073-0.0499878-0.0999756
				c-0.039978-0.0599976-0.0900269-0.1199951-0.1400146-0.1699829c-0.0599976-0.0599976-0.1300049-0.1199951-0.2099609-0.1600342
				c-0.0400391-0.0299683-0.0700073-0.039978-0.1100464-0.0599976l-0.4299927-0.25l5.370163-3.1043358L104.8750381,59.6543083z
				 M111.5150528,55.8243523l-5.6400146,3.2599487l-4.5699463-2.6399536v-6.5200195L111.5150528,55.8243523z
				 M107.0949478,68.2390213c0-0.8999634,0.6300049-2,1.4200439-2.4599609
				c0.5299683-0.2999878,0.9899902-0.2300415,1.2299805,0.1199951c0.1300049,0.1699829,0.2000122,0.4099731,0.2000122,0.7000122
				c0,0.8999634-0.6400146,2-1.4199829,2.4599609c-0.2700195,0.1500244-0.5300293,0.210022-0.7400513,0.1799927
				C107.3749771,69.1990433,107.0949478,68.8390579,107.0949478,68.2390213z M78.9759445,84.4787979
				c0-0.8999634,0.6300049-2,1.4200439-2.4599609c0.5299683-0.2999878,0.9899902-0.2300415,1.2299805,0.1199951
				c0.1300049,0.1699829,0.2000122,0.4099731,0.2000122,0.7000122c0,0.8999634-0.6400146,2-1.4199829,2.4599609
				c-0.2700195,0.1500244-0.5300293,0.210022-0.7400513,0.1799927
				C79.2559738,85.4388199,78.9759445,85.0788345,78.9759445,84.4787979z M60.3749313,77.6486588l11.7200317,6.7700195
				c0.0799561,0.0499878,0.1599731,0.0700073,0.25,0.0700073c0.039978,0,0.0799561-0.0100098,0.1199951-0.0200195
				c0.039978-0.0100098,0.0899658-0.0199585,0.1300049-0.0499878l1.9599609-1.1300049v1.8200073l-2.0700073,0.5599976l-12.1099854-7
				V77.6486588z M60.3749313,76.428688c0-0.1199951,0.0100098-0.2399902,0.0200195-0.3599854
				c0.0200195-0.1500244,0.039978-0.2900391,0.0800171-0.4200439c0.0099487-0.0799561,0.0299683-0.1499634,0.0599976-0.2199707
				c0.0199585-0.0700073,0.0499878-0.1500244,0.0799561-0.2200317c0.0500488-0.1199951,0.1000366-0.2399902,0.1700439-0.3499756
				c0.0499878-0.1099854,0.1199951-0.210022,0.1900024-0.2999878c0.1499634-0.2300415,0.3399658-0.4299927,0.5599976-0.6099854
				l7.5499878-6.3000488c0.0100098-0.0099487,0.0299683-0.0199585,0.039978-0.039978
				c0.0100098-0.0100098,0.0200195-0.0200195,0.0200195-0.0300293c0.0599976-0.0499878,0.1099854-0.1199951,0.1499634-0.1899414
				l0.0100098-0.0100098c0.0200195-0.0300293,0.0400391-0.0500488,0.0499878-0.0900269l3.7200317-6.210022l0.2700195-0.1599731
				l7.5214233-4.3432617v0.1238403c0,0.1101685,0.0612183,0.2081909,0.1592407,0.2694092l10.8649902,6.2593384
				c0.0490112,0.0245361,0.0980225,0.0368042,0.1470337,0.0368042c0.0489502,0,0.1101685-0.0122681,0.1592407-0.0368042
				l2.0455933-1.1881104c0.0037231-0.0026855,0.0055542-0.0073242,0.0092163-0.0101318l0.2232666,0.1289062v4.0900269
				c0,0.3599854,0.1900024,0.6900024,0.5,0.8699951c0.3099976,0.1699829,0.6900024,0.1699829,1,0l16.5500946-9.5643578v5.9899902
				l-0.1900024,0.1099854c-0.2199707-0.8099976-0.6699829-1.4499512-1.3200073-1.8200073
				c-0.9400024-0.5499878-2.1199951-0.4599609-3.3300171,0.2300415c-2.0999756,1.2099609-3.7399902,4.0299644-3.7699585,6.4500084
				L83.6649704,80.2086563c-0.210022-0.8199463-0.6700439-1.4599609-1.3200073-1.8399658
				c-0.9299927-0.5400391-2.1500244-0.4500122-3.3400269,0.2299805c-1.5599976,0.9000244-2.8699951,2.7000122-3.4500122,4.5599976
				v-0.7399902c0-0.1699829-0.0999756-0.3400269-0.25-0.4299927c-0.1599731-0.0900269-0.3499756-0.0900269-0.5,0
				l-2.4199829,1.3900146l-0.039978,0.0299683l-3.7200317-2.1499634l0.0400391-0.0300293
				c0.0499878-0.4099731,0.1599731-0.8099976,0.3299561-1.1799927l-4.7999878-2.7700195
				c-0.1699829,0.3699951-0.2799683,0.7700195-0.3300171,1.1799927l-0.0299683,0.0200195l-1.2399902-0.710022h-0.0100098
				l-0.2900391-0.1699829l-1.9199829-1.1099854V76.428688z"/>
			<g>
				<polygon class="st8" points="89.0488281,59.0633469 92.0376282,60.7904434 93.4707565,59.9575119 90.4819565,58.2304115 				"/>
				<polygon class="st8" points="85.239357,56.8707695 88.4363708,58.7081451 89.575531,58.0466423 89.8694992,57.8751373 
					86.6847458,56.0377617 				"/>
				<polygon class="st8" points="81.78508,54.8863373 84.6268997,56.5154991 86.0722885,55.6825638 83.2427368,54.0534019 				"/>
				<polygon class="st8" points="81.4788513,55.4131165 81.4788513,56.5277596 84.3206711,58.1569176 84.3206711,57.0544624 				"/>
				<polygon class="st8" points="84.9331284,57.3974762 84.9331284,58.5121193 88.1301422,60.3494911 88.1301422,59.247036 				"/>
				<polygon class="st8" points="88.7425995,59.5900497 88.7425995,60.7046928 91.7313995,62.4318657 91.7313995,61.3294106 				"/>
				<polygon class="st8" points="92.3438568,61.3294106 92.3438568,62.4318657 93.7769852,61.5989304 93.7769852,60.4964752 				"/>
			</g>
		</g>
	</g>
	<path d="M93.0604248,59.5899162c0.013916-0.0424805,0.0194702-0.085083,0.0348511-0.1274414
		c0.5-1.4599609,1.5500488-2.8899536,2.7800293-3.5999756c0.8599854-0.5,1.6400146-0.5499878,2.2199707-0.2200317
		l0.0700073,0.0500488l0.7300415,0.4199829l0.5199585,0.2999878l0.0100098,0.0100098l0.2200317,0.1199951
		c0.4099731,0.289978,0.6899414,0.789978,0.7799683,1.4700317l-5.2184448,3.0153198
		C94.4880371,60.5534782,93.7802734,60.0624504,93.0604248,59.5899162z"/>
	<path d="M95.6290207,63.2011566c-0.0205078-0.2958984-0.0477905-0.5961914-0.097229-0.8916016l7.656189-4.4191284l0.8599854,0.5
		l-8.4143677,4.8567505C95.6324387,63.2317963,95.6301193,63.2165985,95.6290207,63.2011566z"/>
</g>
</svg>
