<?xml version="1.0" encoding="utf-8"?>
<!-- Generator: Adobe Illustrator 27.6.1, SVG Export Plug-In . SVG Version: 6.00 Build 0)  -->
<svg version="1.1" id="Layer_1" xmlns="http://www.w3.org/2000/svg" xmlns:xlink="http://www.w3.org/1999/xlink" x="0px" y="0px"
	 viewBox="0 0 172.8999939 90" style="enable-background:new 0 0 172.8999939 90;" xml:space="preserve">
<style type="text/css">
	.st0{fill:#888888;}
	.st1{fill:#FFFFFF;}
	.st2{fill:#4D4D4D;}
	.st3{fill:#B3B3B3;}
	.st4{fill:#999999;}
	.st5{fill:#808080;}
	.st6{fill:#CCCCCC;}
	.st7{fill:#F79420;}
	.st8{fill:#C1272D;}
</style>
<g>
	<g>
		<g>
			<path class="st0" d="M59.0840912,82.2086639l13.2311325,7.6361771c0.3585205,0.2069168,0.8001862,0.2068787,1.1586685-0.0000992
				l38.2109222-22.0594025l1.8768234-1.5045853c0.3380814-0.2710266,0.2980118-0.7971725-0.0772095-1.0138779l-14.1164551-6.8281441
				l-40.2838974,23.251049C58.8843307,81.805069,58.8843384,82.0933762,59.0840912,82.2086639z"/>
			<path class="st1" d="M78.6079636,55.8787346l11.5200195,6.6600342c0.039978,0.0200195,0.0800171,0.0499878,0.1199951,0.0700073
				c0.1300049,0.0799561,0.2399902,0.2000122,0.3200073,0.3299561l8.1099854-4.6699829l0.289978,0.1699829l4.4700317,2.6500244
				l6.6874313-1.662056c0.1700439-0.0299683,0.3500366-0.039978,0.5300293-0.0100098l-11.7000122-6.7699585l-0.3400269-0.1900024
				c-0.0199585-0.0100098-0.0499878-0.0300293-0.0699463-0.0500488c-0.2400513-0.1099854-0.5200195-0.1300049-0.8400269-0.0700073
				l-6.3474655,1.3720779c-0.039978,0.0100098-0.0899658,0.0100098-0.1300049,0.0100098
				c-0.0799561,0-0.1599731-0.0100098-0.2399902-0.039978c-0.0999756-0.0100098-0.1900024-0.0500488-0.2700195-0.1000366
				c-0.0099487,0-0.0099487-0.0100098-0.0199585-0.0100098c-0.0100098-0.0099487-0.0200195-0.0099487-0.0300293-0.0199585
				h-0.0100098l-4-2.3099976L78.6079636,55.8787346z"/>
			<path class="st2" d="M64.5446091,72.3092194l2,1.1500244l10.083374-5.8204956l6.3300171,3.6400146l1.9899902-1.1500244
				l-7.3400269-4.2399902v-4.909977c0,0.0199585-0.0100098,0.039978-0.0100098,0.0499878
				c0,0.0999756-0.0099487,0.1900024-0.0599976,0.2800293c-0.0299683,0.1199951-0.0999756,0.2399902-0.1900024,0.3299561
				c-0.0599976,0.0800171-0.1399536,0.1500244-0.2399902,0.210022l-1.5,0.8699951v3.200016L64.5446091,72.3092194z"/>
			<g>
				<g>
					<g>
						<path class="st3" d="M73.8646164,78.8391876v1.0100098l34.9608078-20.1825066l-5.3874435,1.4220657l-4.4700317-2.6500244
							l-0.289978-0.1699829l-8.1099854,4.6699829c0.0100098,0.0300293,0.0299683,0.0500488,0.039978,0.0800171
							c0.0100098,0.0300293,0.0300293,0.0499878,0.0300293,0.0800171c0.0199585,0.039978,0.039978,0.0800171,0.0499878,0.1300049
							c0.0100098,0.0700073,0.0200195,0.1400146,0.0200195,0.2199707v5.0900307
							c0,0.0800171-0.0100098,0.1499634-0.0300293,0.2199707c0,0.0300293-0.0100098,0.0599976-0.0200195,0.0900269
							c-0.0199585,0.0499878-0.0299683,0.0899658-0.0599976,0.1300049c0,0.0100098-0.0099487,0.0100098-0.0099487,0.0199585
							c0,0.0100098-0.0100098,0.0300293-0.0200195,0.0400391c-0.0400391,0.0700073-0.0900269,0.1400146-0.1500244,0.2000122
							c-0.039978,0.0499878-0.0899658,0.0899658-0.1499634,0.1300049c-0.0100098,0-0.0200195,0.0099487-0.0300293,0.0199585
							s-0.0200195,0.0100098-0.0299683,0.0200195L73.8646164,78.8391876z"/>
						<path class="st4" d="M73.8646164,79.8491974v5.0100098l1.6999512-0.9799805
							c0.2800293-2.5700073,2.0300293-5.3699951,4.1800537-6.6000366c1.3099976-0.75,2.5899658-0.8499756,3.6199951-0.2699585
							c0.6099854,0.3399658,1.0599976,0.8899536,1.3299561,1.5999756l18.7608566-10.8325348
							c0.1400146-2.6399536,1.9400024-5.62994,4.210022-6.9499474c1.3200073-0.7600098,2.6099854-0.8500366,3.6399536-0.2600098
							c0.3300171,0.1900024,0.6100464,0.4299927,0.8300171,0.7299805v-0.3200073
							c0-0.2000122-0.039978-0.3800049-0.1199951-0.5499878c-0.0100098-0.0200195-0.0299683-0.0499878-0.039978-0.0700073
							c-0.0100098-0.0100098-0.0100098-0.0200195-0.0200195-0.0299683c0-0.0100098,0-0.0100098-0.0200195-0.0200195
							c0-0.0100098,0-0.0200195-0.0100098-0.0300293c-0.0099487-0.0199585-0.0199585-0.039978-0.0299683-0.0499878
							s-0.0200195-0.0199585-0.0300293-0.0299683c0-0.0100098-0.0099487-0.0200195-0.0199585-0.0300293
							c-0.0400391-0.0499878-0.0900269-0.0999756-0.1400146-0.1400146l-0.0100098-0.0099487l-1.0299683-0.6000366
							c-0.0100098,0-0.0100098,0-0.0100098,0c-0.1799927-0.0299683-0.3599854-0.0199585-0.5300293,0.0100098l-1.2999878,0.2399902
							L73.8646164,79.8491974z"/>
					</g>
				</g>
			</g>
			<polygon class="st5" points="66.5446091,73.4592438 72.8646164,77.1092072 82.9580002,71.2787628 76.6279831,67.6387482 			"/>
			<polygon class="st2" points="61.7645836,70.7092438 64.5446091,72.3092194 75.6079636,65.9187775 75.6079636,62.7187614 			"/>
			<polygon class="st2" points="77.6079636,57.6187859 77.6079636,65.8887482 84.9479904,70.1287384 88.7080002,67.9587555 
				88.7080002,64.0187531 			"/>
			<polygon class="st3" points="60.7645836,72.4392242 60.7645836,78.4592438 71.8646164,84.8592072 71.8646164,78.8391876 			"/>
			<path class="st2" d="M94.9700851,61.1479607c1.2664795-0.7288818,2.4992676-1.4377441,3.6679077-2.1091919l4.2600098,2.5499878
				c-2.3591309,1.3610229-5.1050415,2.9472694-7.9279175,4.5762978V61.1479607z"/>
			<path class="st2" d="M93.9700851,61.7237053v5.0183754c-0.8931885,0.5153198-1.7900391,1.0325317-2.6821289,1.5466919v-5.0200233
				C92.1904831,62.7484856,93.084404,62.233654,93.9700851,61.7237053z"/>
			<polygon points="78.9920425,59.2245941 86.9239655,63.8040924 86.9239655,66.7237701 78.9920425,62.144268 			"/>
			<g>
				<g>
					<path class="st0" d="M107.6161957,66.1026077c-0.2303772,0.1330109-0.4167557,0.026741-0.4175034-0.2379761
						c-0.0007248-0.2561493,0.1844406-0.5769348,0.4148178-0.709938c0.2229691-0.1287308,0.4093475-0.0224609,0.4100723,0.2336807
						C108.0243301,65.6530991,107.8391647,65.973877,107.6161957,66.1026077L107.6161957,66.1026077z M108.2143478,64.4058075
						c-0.8323517,0.4805527-1.4990005,1.6437912-1.496315,2.591713c0.0027161,0.9564285,0.6737671,1.3474045,1.5061188,0.8668442
						c0.8323517-0.4805527,1.5064545-1.6481552,1.503746-2.6045914
						C109.7252121,64.3118515,109.0466919,63.9252472,108.2143478,64.4058075L108.2143478,64.4058075z"/>
					<path class="st6" d="M107.6135101,65.1546936c0.2229691-0.1287308,0.4093475-0.0224609,0.4100723,0.2336807
						c0.0007477,0.2647247-0.1844177,0.5855026-0.4073868,0.7142334c-0.2303772,0.1330109-0.4167557,0.026741-0.4175034-0.2379761
						C107.1979675,65.6084824,107.3831329,65.2876968,107.6135101,65.1546936L107.6135101,65.1546936z"/>
				</g>
			</g>
			<g>
				<g>
					<g>
						<path class="st0" d="M80.0585785,82.0073624c-0.2303772,0.1330032-0.4167557,0.0267334-0.417511-0.2379837
							c-0.0007248-0.2561493,0.1844406-0.5769272,0.4148178-0.709938c0.2229691-0.1287308,0.4093475-0.0224609,0.4100723,0.2336884
							C80.466713,81.5578461,80.2815399,81.8786316,80.0585785,82.0073624L80.0585785,82.0073624z M80.656723,80.3105545
							c-0.8323517,0.4805603-1.4990005,1.6437988-1.496315,2.591713c0.0027161,0.9564362,0.6737671,1.3474045,1.5061188,0.8668518
							c0.8323517-0.4805603,1.5064621-1.6481628,1.503746-2.6045914
							C82.1675873,80.2166061,81.4890747,79.8300018,80.656723,80.3105545L80.656723,80.3105545z"/>
						<path class="st6" d="M80.0558853,81.0594406c0.2229691-0.1287308,0.4093475-0.0224609,0.4100723,0.2336884
							c0.0007553,0.2647171-0.1844177,0.5855026-0.4073792,0.7142334c-0.2303772,0.1330032-0.4167557,0.0267334-0.417511-0.2379837
							C79.6403427,81.5132294,79.8255081,81.1924515,80.0558853,81.0594406L80.0558853,81.0594406z"/>
					</g>
				</g>
				<path d="M58.7645721,70.7092209v8.3299561c0,0.3599854,0.1900024,0.6900024,0.5,0.8699951l13.1000366,7.5599976
					c0.1599731,0.0900269,0.3299561,0.1300049,0.5,0.1300049c0.1699829,0,0.3499756-0.039978,0.5-0.1300049l3.6599731-2.1199951
					c0.0200195-0.0100098,0.0300293-0.0199585,0.0499878-0.039978c0.0504761-0.0252686,0.0923462-0.0678101,0.1347046-0.109436
					l1.3060303,0.7523193c0.5599976,0.2799683,1.3200073,0.2099609,2.1600342-0.2700195
					c1.4870605-0.8582153,2.7263794-2.7554321,3.0620117-4.5458374c0.0288696,0.0078735,0.0550537,0.0183716,0.0872192,0.0229492
					c0.0599976,0.0100098,0.1199951,0.0200195,0.1900024,0.0200195c0.0800171,0,0.1500244-0.0100098,0.2200317-0.0300293
					c0.0799561-0.0199585,0.1499634-0.0499878,0.2199707-0.0899658c0.0100098,0,0.0200195-0.0100098,0.0300293-0.0100098
					l20.3148193-11.7354736l1.2734985,0.7335815c0.5599976,0.2799683,1.3200073,0.2099609,2.1600342-0.2700195
					c1.637146-0.9448853,2.9694824-3.1463013,3.128418-5.0806274c0.1654053,0.1118164,0.3485718,0.1900635,0.5440674,0.1900635
					c0.2000122,0,0.4099731-0.0599976,0.5800171-0.1900024l1.2299805-0.8800087
					c0.2600098-0.1900024,0.4199829-0.4899902,0.4199829-0.8099976v-2.0300293c0-0.9299927-0.3999634-1.8299561-1.0899658-2.4500122
					c-0.0500488-0.039978-0.1000366-0.0799561-0.1600342-0.1099854c-0.0499878-0.0499878-0.0999756-0.0899658-0.1499634-0.1199951
					l-12.7200317-7.3399658c-0.7600098-0.5700073-1.7199707-0.7800293-2.6500244-0.5900269l-5.937439,1.3120728l-4.2700195-2.460022
					c-0.3099976-0.1799927-0.6999512-0.1799927-1,0l-10.0499878,5.7999878c-0.3099976,0.1799927-0.5,0.5100098-0.5,0.8599854
					c0,0.0400391,0.0100098,0.0800171,0.0200195,0.1199951c-0.0100098,0.0300293-0.0200195,0.0500488-0.0200195,0.0800171v3.4299927
					v0.8900146l-16.2633667,9.4004555l-0.0800171,0.039978c-0.0100098,0.0100098-0.0299683,0.0200195-0.039978,0.0300293
					c-0.1199951,0.0800171-0.2200317,0.1799927-0.2999878,0.2999878c-0.0200195,0.0400391-0.0400391,0.0700073-0.0599976,0.1099854
					c-0.0200195,0.0300293-0.0300293,0.0500488-0.0300293,0.0800171c-0.0200195,0.039978-0.0299683,0.0800171-0.039978,0.1199951
					C58.7745819,70.5491867,58.7645721,70.6292038,58.7645721,70.7092209z M75.6079559,65.9187546l-11.0633545,6.3904419
					l-2.7800293-1.5999756l13.8433838-7.9904823V65.9187546z M106.7229462,66.9973068
					c-0.0100098-0.9500122,0.6599731-2.1100464,1.4899902-2.5900269c0.8300171-0.4799843,1.5100098-0.0999756,1.5100098,0.8499756
					c0.0100098,0.960022-0.6699829,2.1300049-1.5,2.6100464C107.3929291,68.3472824,106.7229462,67.9572678,106.7229462,66.9973068z
					 M79.165329,82.902092c-0.0100098-0.9500122,0.6599731-2.1100464,1.4899902-2.5900269s1.5100098-0.0999756,1.5100098,0.8499756
					c0.0100098,0.960022-0.6699829,2.1300049-1.5,2.6100464C79.8353119,84.2520676,79.165329,83.8620529,79.165329,82.902092z
					 M73.8646088,78.8391647l16.3433838-9.4304199c0.0099487-0.0100098,0.0199585-0.0100098,0.0299683-0.0200195
					s0.0200195-0.0199585,0.0300293-0.0199585c0.0599976-0.0400391,0.1099854-0.0800171,0.1499634-0.1300049
					c0.0599976-0.0599976,0.1099854-0.1300049,0.1500244-0.2000122c0.0100098-0.0100098,0.0200195-0.0300293,0.0200195-0.0400391
					c0-0.0099487,0.0099487-0.0099487,0.0099487-0.0199585c0.0300293-0.0400391,0.0400391-0.0800171,0.0599976-0.1300049
					c0.0100098-0.0300293,0.0200195-0.0599976,0.0200195-0.0900269c0.0200195-0.0700073,0.0300293-0.1399536,0.0300293-0.2199707
					V63.448719c0-0.0799561-0.0100098-0.1499634-0.0200195-0.2199707c-0.0100098-0.0499878-0.0300293-0.0900269-0.0499878-0.1300049
					c0-0.0300293-0.0200195-0.0499878-0.0300293-0.0800171c-0.0100098-0.0299683-0.0299683-0.0499878-0.039978-0.0800171
					c-0.0800171-0.1299438-0.1900024-0.25-0.3200073-0.3299561c-0.039978-0.0200195-0.0800171-0.0499878-0.1199951-0.0700073
					l-11.5200195-6.6600342l8.0499878-4.6399536l4,2.3099976h0.0100098
					c0.0100098,0.0100098,0.0200195,0.0100098,0.0300293,0.0199585c0.0100098,0,0.0100098,0.0100098,0.0199585,0.0100098
					c0.0800171,0.0499878,0.1700439,0.0900269,0.2700195,0.1000366c0.0800171,0.0299683,0.1600342,0.039978,0.2399902,0.039978
					c0.0400391,0,0.0900269,0,0.1300049-0.0100098l6.3474731-1.3720703c0.3200073-0.0599976,0.5999756-0.039978,0.8400269,0.0700073
					c0.0199585,0.0200195,0.0499878,0.0400391,0.0699463,0.0500488l0.3400269,0.1900024l11.7000122,6.7699585c0,0,0,0,0.0100098,0
					l1.0299683,0.6000366l0.0100098,0.0099487c0.0499878,0.0400391,0.0999756,0.0900269,0.1400146,0.1400146
					c0.0100098,0.0100098,0.0199585,0.0200195,0.0199585,0.0300293c0.0100098,0.0100098,0.0200195,0.0199585,0.0300293,0.0299683
					s0.0200195,0.0300293,0.0299683,0.0499878c0.0100098,0.0100098,0.0100098,0.0200195,0.0100098,0.0300293
					c0.0200195,0.0100098,0.0200195,0.0100098,0.0200195,0.0200195c0.0100098,0.0099487,0.0100098,0.0199585,0.0200195,0.0299683
					c0.0100098,0.0200195,0.0299683,0.0499878,0.039978,0.0700073c0.0800171,0.1699829,0.1199951,0.3499756,0.1199951,0.5499878
					v0.3200073c-0.2199707-0.2999878-0.5-0.539978-0.8300171-0.7299805c-1.0299683-0.5900269-2.3199463-0.5-3.6399536,0.2600098
					c-2.2700195,1.3200073-4.0700073,4.3100014-4.210022,6.949955L84.6945648,78.6091843
					c-0.2699585-0.710022-0.7199707-1.2600098-1.3299561-1.5999756c-1.0300293-0.5800171-2.3099976-0.4800415-3.6199951,0.2699585
					c-2.1500244,1.2300415-3.9000244,4.0300293-4.1800537,6.6000366l-1.6999512,0.9799805V78.8391647z M88.7079926,64.0187302
					v3.9400024l-3.7600098,2.1699829l-7.3400269-4.2399902v-4.909977v-1.4700317V57.618763L88.7079926,64.0187302z
					 M66.5446014,73.4592209l10.083374-5.8204956l6.3300171,3.6400146l-10.0933838,5.8304443L66.5446014,73.4592209z
					 M60.7645721,72.4392014l11.1000366,6.3999634v6.0200195l-11.1000366-6.3999634V72.4392014z"/>
			</g>
		</g>
		<g>
			<g>
				<polygon class="st7" points="87.2690353,58.5737419 90.2490158,60.2937737 91.6790085,59.4637566 88.699028,57.7337761 				"/>
			</g>
			<g>
				<polygon class="st7" points="83.4590378,56.3737297 86.6489792,58.2137566 87.7889938,57.5537224 88.0889816,57.3837395 
					84.8989792,55.5437737 				"/>
			</g>
			<g>
				<path d="M79.199028,54.2837639v2.039978l0.25,0.1500244l2.8399658,1.6199951l0.3599854,0.2099609v0.0100098l0.25,0.1400146
					l3.2000122,1.8400269l0.3600464,0.2099609l0.25,0.1400146l0.1399536,0.0800171l2.8500366,1.6499634l0.3599854,0.210022
					l0.1900024,0.1099854l0.2000122-0.1099854l0.3599854-0.210022l1.4299927-0.8299561l0.25-0.1500244v-2.039978
					l-0.1900024-0.1100464l-0.3599854-0.2099609l-2.8599854-1.6500244l-0.3800049-0.2199707l-0.3600464-0.210022
					l-3.0499878-1.7600098l-0.3900146-0.2299805l-0.3599854-0.210022l-2.8299561-1.6300049l-0.25-0.1399536l-0.25,0.1399536
					l-1.460022,0.8400269l-0.3500366,0.2000122L79.199028,54.2837639z M90.5590134,60.8337517l1.4299927-0.8300171v1.1000366
					l-1.4299927,0.8399658V60.8337517z M87.2690353,58.5737419l1.4299927-0.8399658l2.9799805,1.7299805l-1.4299927,0.8300171
					L87.2690353,58.5737419z M86.9590378,59.0937614l2.9899902,1.7399902v1.1099854l-2.9899902-1.7299805V59.0937614z
					 M83.4590378,56.3737297l1.4399414-0.8299561l3.1900024,1.8399658l-0.2999878,0.1699829l-1.1400146,0.6600342
					L83.4590378,56.3737297z M83.1489792,56.903759l3.2000122,1.8499756v1.1000366l-3.2000122-1.8300171V56.903759z
					 M79.9990158,54.3937492l1.460022-0.8300171l2.8299561,1.6300049l-1.4500122,0.8300171L79.9990158,54.3937492z
					 M79.699028,54.9237785l2.8399658,1.6399536v1.1000366l-2.8399658-1.6300049V54.9237785z"/>
				<polygon class="st7" points="79.9990158,54.3937492 82.8389816,56.0237541 84.2889938,55.193737 81.4590378,53.5637321 				"/>
			</g>
			<g>
				<polygon class="st7" points="79.699028,54.9237785 79.699028,56.0337639 82.5389938,57.6637688 82.5389938,56.5637321 				"/>
			</g>
			<g>
				<polygon class="st7" points="83.1489792,56.903759 83.1489792,58.0237541 86.3489914,59.8537712 86.3489914,58.7537346 				"/>
			</g>
			<g>
				<polygon class="st7" points="86.9590378,59.0937614 86.9590378,60.2137566 89.949028,61.943737 89.949028,60.8337517 				"/>
			</g>
			<g>
				<polygon class="st7" points="90.5590134,60.8337517 90.5590134,61.943737 91.989006,61.1037712 91.989006,60.0037346 				"/>
			</g>
		</g>
		<polygon points="67.8437347,77.9399948 67.8437347,79.2701874 64.2646408,77.2037888 64.2646408,75.8736038 		"/>
		<polygon class="st8" points="69.8806305,80.7197266 71.6315231,81.7306061 71.6315231,84.1634064 69.8806305,83.1525269 		"/>
		<polygon class="st8" points="60.8855896,75.5349808 62.6364861,76.5458603 62.6364861,78.9786606 60.8855896,77.9677811 		"/>
	</g>
	<path d="M67.7963715,75.7882843l11.6585693-6.7293091l0.8599854,0.5L68.5762177,76.33461
		C68.3344574,76.1429596,68.082016,75.954422,67.7963715,75.7882843z"/>
	<path d="M64.1613007,72.9896469c0.013916-0.0424805,0.0194702-0.085083,0.0348511-0.1274414
		c0.5-1.4599609,1.5500488-2.8899536,2.7800293-3.5999756c0.8599854-0.5,1.6400146-0.5499878,2.2199707-0.2200317
		l0.0700073,0.0500488l0.7300415,0.4199829l0.5199585,0.2999878l0.0100098,0.0100098l0.2200317,0.1199951
		c0.4099731,0.289978,0.6899414,0.789978,0.7799683,1.4700317l-5.2184448,3.0153198
		C65.588913,73.9532089,64.8811493,73.4621811,64.1613007,72.9896469z"/>
</g>
</svg>
