<?xml version="1.0" encoding="utf-8"?>
<!-- Generator: Adobe Illustrator 27.6.1, SVG Export Plug-In . SVG Version: 6.00 Build 0)  -->
<svg version="1.1" id="Layer_1" xmlns="http://www.w3.org/2000/svg" xmlns:xlink="http://www.w3.org/1999/xlink" x="0px" y="0px"
	 viewBox="0 0 172.8999939 90" style="enable-background:new 0 0 172.8999939 90;" xml:space="preserve">
<style type="text/css">
	.st0{fill:#888888;}
	.st1{fill:#4D4D4D;}
	.st2{fill:#B3B3B3;}
	.st3{fill:#999999;}
	.st4{fill:#CCCCCC;}
	.st5{fill:#FFFFFF;}
	.st6{fill:#808080;}
	.st7{fill:#F79420;}
</style>
<g>
	<path class="st0" d="M55.6816025,87.4629593h62.040596V90h-62.040596c-0.278244,0-0.5038033-0.225563-0.5038033-0.5038071
		v-1.5294266C55.1777992,87.6885223,55.4033585,87.4629593,55.6816025,87.4629593z"/>
	<g>
		<path d="M115.7221985,75.3355942H93.1878052v-1.463623h22.5343933V75.3355942z M55.1777992,77.5689697v7.7646179
			c0,0.5226974,0.4500122,0.9503784,1,0.9503784h3.2900391c0.1799927,0,0.3299561-0.0570145,0.4799805-0.1330643
			C60.1278114,88.3082886,61.9978065,90,64.3078003,90c2.3200073,0,4.2000122-1.720192,4.3599854-3.8870926
			c0.1600342,0.0950165,0.3400269,0.1710587,0.5400391,0.1710587h33.9343567c0.1500244,0,0.2800293-0.0284805,0.4100342-0.085495
			C103.7521667,88.3273163,105.6122131,90,107.9021912,90c2.3400269,0,4.2299805-1.7392197,4.3699951-3.925087
			c0.1699829,0.123558,0.3699951,0.209053,0.5999756,0.209053h3.8500366c0.5499878,0,1-0.427681,1-0.9503784V72.9215851
			c0-0.5226974-0.4500122-0.950386-1-0.950386H93.1878052v-6.890274c0-0.5226974-0.4500122-0.950386-1-0.950386H75.7977905
			c-0.3499756,0-0.6799927,0.1805801-0.8599854,0.465683l-4.7299805,7.4415131l-11.2299767,1.3685532
			C56.8078041,73.7199326,55.1777992,75.5066605,55.1777992,77.5689697z M57.1777992,82.4444427h1.3699951v1.9387589h-1.3699951
			V82.4444427z M57.1777992,77.5689697c0-1.1309586,0.8900146-2.1098785,2.0800171-2.2809372l11.5599937-1.3970413
			l0.1300049-0.0190201c0.1500244-0.0190277,0.2999878-0.0760498,0.4299927-0.1615524
			c0.1199951-0.0760422,0.2200317-0.1710587,0.2999878-0.2946167l4.1199951-6.5006409l0.5599976-0.8838501h14.8300171v2.4044952
			c0,0,0,0,0,0.0095139v7.8406601c0,0.5226974,0.4400024,0.9503784,1,0.9503784h23.5343933v7.146843h-1.9400024
			c-0.4700317-2.6230621-2.8800049-4.6283569-5.7800293-4.6283569c-2.8899536,0-5.2999878,2.0052948-5.7699585,4.6283569H70.1177979
			c-0.4699707-2.6230621-2.8800049-4.6283569-5.7799683-4.6283569c-1.9899864,0-3.7300377,0.9598923-4.7900352,2.3949814v-0.1805725
			c0-0.2566223-0.2199707-0.4751968-0.5-0.4751968h-1.8699951V77.5689697z"/>
		<rect x="57.1777992" y="82.4444427" class="st1" width="1.3699951" height="1.9387606"/>
		<path class="st2" d="M57.1777992,78.6333618l1.1400146-0.4086304v-0.3041382
			c0.25-0.0950317,0.5100098-0.1710815,0.789978-0.2090454l12.2700157-1.5016479v-2.4995117
			c0.1199951-0.0760498,0.2200317-0.1710205,0.2999878-0.2946167l4.1199951-6.5006104l0.5599976-0.8838501h14.8300171v2.40448
			c0,0,0,0,0,0.0095215v7.8406372c0,0.5227051,0.4400024,0.9503784,1,0.9503784h23.5343933v1.6964111H57.1777992V78.6333618z"/>
		<path class="st3" d="M115.7221985,78.9327393v5.4504395h-1.9400024c-0.4700317-2.6230469-2.8800049-4.6283569-5.7800293-4.6283569
			c-2.8899536,0-5.2999878,2.0053101-5.7699585,4.6283569H70.1177979c-0.4699707-2.6230469-2.8800049-4.6283569-5.7799683-4.6283569
			c-1.9899864,0-3.7300377,0.9598999-4.7900352,2.3950195v-0.180603c0-0.2566528-0.2199707-0.4752197-0.5-0.4752197h-1.8699951
			v-2.5612793H115.7221985z"/>
		<path class="st2" d="M57.1777992,77.5689697v0.4751968c0.2399902-0.3421249,0.6199951-0.7223053,1.1400146-0.9219055v-1.4920502
			c-0.1500244,0.0950165-0.289978,0.1995468-0.4099731,0.3135834c-0.0500488,0.0475082-0.1000366,0.0950775-0.1500244,0.1425858
			c-0.0100098,0.0284805-0.0299683,0.0475082-0.0499878,0.0665283c-0.0499878,0.0570221-0.0900269,0.1140442-0.1300049,0.1805801
			c-0.0499878,0.0665283-0.0999756,0.1425171-0.1400146,0.2185669c-0.1199951,0.2185669-0.2000122,0.4656754-0.2399902,0.7222977
			C57.187809,77.3693695,57.1777992,77.464447,57.1777992,77.5689697z"/>
		<rect x="93.1878052" y="73.8719711" class="st1" width="22.5343857" height="1.4636271"/>
	</g>
	<g>
		<ellipse class="st0" cx="107.9059601" cy="85.8234634" rx="2.0875146" ry="1.9839386"/>
		<ellipse class="st4" cx="107.063446" cy="84.8437958" rx="0.5720984" ry="0.5437127"/>
	</g>
	<rect x="84.9972534" y="70.0532761" class="st1" width="4.9066162" height="5.5769329"/>
	<polygon class="st1" points="83.8793564,75.6302109 73.4203491,75.6302109 76.8818817,70.0532761 83.8793564,70.0532761 	"/>
	<g>
		<ellipse class="st0" cx="64.3032379" cy="85.8234634" rx="2.0875146" ry="1.9839386"/>
		<ellipse class="st4" cx="63.4607239" cy="84.8437958" rx="0.5720984" ry="0.5437127"/>
	</g>
	<rect x="76.3577881" y="66.031311" class="st5" width="14.8300171" height="2.4140103"/>
	<path class="st5" d="M58.3178139,75.6302109v2.2903976c0.25-0.0950165,0.5100098-0.1710587,0.789978-0.209053l12.2700157-1.5016251
		v-2.4995117c-0.1300049,0.0855026-0.2799683,0.1425247-0.4299927,0.1615524l-0.1300049,0.0190201l-11.5599937,1.3970413
		c-0.1500244,0.0190277-0.289978,0.0570221-0.4299927,0.1045837c-0.1199951,0.0379944-0.2299805,0.0855026-0.3300171,0.1330109
		C58.437809,75.5636749,58.3778114,75.5921631,58.3178139,75.6302109z"/>
	<path class="st4" d="M57.1978188,77.274353c0.4799805-0.636734,0.8599854-0.9598923,1.1199951-1.1214447v-0.5226974
		C57.7278481,75.9913025,57.2977943,76.5900497,57.1978188,77.274353z"/>
	<path d="M57.1777992,77.5689697v0.4751968c0.2399902-0.3421249,0.6199951-0.7223053,1.1400146-0.9219055v-0.9693527
		c-0.2600098,0.1615524-0.6400146,0.4847107-1.1199951,1.1214447C57.187809,77.3693695,57.1777992,77.464447,57.1777992,77.5689697z
		"/>
	<path class="st4" d="M71.3778076,73.7104187v2.4995117h0.0499878l0.2300415-0.3706589l4.6999512-7.3939514V66.031311
		l-0.5599976,0.8838501l-4.1199951,6.5006409C71.5978394,73.53936,71.4978027,73.6343765,71.3778076,73.7104187z"/>
	<polygon class="st6" points="71.901123,73.4323349 75.5,67.753006 75.5,69.4269638 71.901123,75.0890656 	"/>
	<path class="st4" d="M57.1777992,78.0441666V78.6334l1.1400146-0.4086609v-1.102478
		C57.7977943,77.3218613,57.4177895,77.7020416,57.1777992,78.0441666z"/>
	<g>
		<path d="M87.29496,63.3267708v4.1938438c0,0.2248917,0.191124,0.416008,0.416008,0.416008h3.3168793
			c0.236145,0,0.4272614-0.1911163,0.4272614-0.416008v-4.1938438c0-0.2361412-0.1911163-0.416008-0.4272614-0.416008H87.710968
			C87.486084,62.9107628,87.29496,63.0906296,87.29496,63.3267708z M88.1382294,65.4967804h2.4736099v1.5965729h-2.4736099
			V65.4967804z M88.1382294,63.7540321h2.4736099v0.8994789h-2.4736099V63.7540321z"/>
		<rect x="88.1382294" y="63.7540321" class="st7" width="2.4736097" height="0.8994757"/>
		<rect x="88.1382294" y="65.4967804" class="st7" width="2.4736097" height="1.5965745"/>
	</g>
</g>
</svg>
