<?xml version="1.0" encoding="utf-8"?>
<!-- Generator: Adobe Illustrator 27.6.1, SVG Export Plug-In . SVG Version: 6.00 Build 0)  -->
<svg version="1.1" id="Layer_1" xmlns="http://www.w3.org/2000/svg" xmlns:xlink="http://www.w3.org/1999/xlink" x="0px" y="0px"
	 viewBox="0 0 172.8999939 90" style="enable-background:new 0 0 172.8999939 90;" xml:space="preserve">
<style type="text/css">
	.st0{fill:#888888;}
	.st1{fill:#668199;}
	.st2{fill:#555555;}
	.st3{fill:#99B4CC;}
	.st4{fill:#FFFFFF;}
</style>
<g id="wheel">
	<ellipse class="st0" cx="86.4499969" cy="88.9601746" rx="24.0314503" ry="1.0398223"/>
	<g>
		<g>
			<circle cx="86.4499969" cy="65.4476242" r="24.0314503"/>
		</g>
		<path class="st1" d="M99.0665283,67.2339172c0.0831528-0.5823059,0.1294174-1.1738663,0.1294174-1.7838669
			c0-0.6100616-0.0462646-1.201622-0.1294174-1.7839241l-4.4181137,0.822628
			c-0.1848679-1.5620461-0.7948761-2.9946785-1.7284088-4.1592903l3.7156448-2.5510406
			c-0.7209702-0.9519844-1.5712967-1.8023109-2.5232849-2.5232849l-2.5417862,3.7156525
			c-1.1738586-0.9242859-2.5972443-1.543602-4.168541-1.7284126l0.8225708-4.4181175
			c-0.5822449-0.0831528-1.1738052-0.1294136-1.7838669-0.1294136c-0.6007462,0-1.1923065,0.0462608-1.7746124,0.1294136
			l0.8226318,4.4181175c-1.5620499,0.1756172-2.9946823,0.7948723-4.168541,1.7284126l-2.5417938-3.7156525
			c-0.9520416,0.720974-1.8023682,1.5713005-2.5232849,2.5232849l3.7155991,2.5510406
			c-0.9334869,1.1646118-1.543541,2.5972443-1.7284164,4.1592903l-4.4180603-0.822628
			c-0.0832062,0.5823021-0.1294098,1.1738625-0.1294098,1.7839241c0,0.6100006,0.0462036,1.201561,0.1294098,1.7838669
			l4.4180603-0.8226318c0.1848755,1.5620422,0.7949295,2.9946823,1.7284164,4.1592865l-3.7155991,2.5417938
			c0.7209167,0.9519806,1.5712433,1.8023682,2.5232849,2.5232773l2.5417938-3.7155914
			c1.1738586,0.9427338,2.6064911,1.5620499,4.168541,1.7376099l-0.8226318,4.4088593
			c0.5823059,0.0832138,1.1738663,0.1294174,1.7746124,0.1294174c0.6100616,0,1.201622-0.0462036,1.7838669-0.1294174
			l-0.8225708-4.4088593c1.5712967-0.1848145,2.9946823-0.8041229,4.168541-1.7376099l2.5417862,3.7155914
			c0.0184479-0.0092468,0.0369568-0.0276947,0.0554581-0.046196c0.2033157-0.1478653,0.397438-0.3142853,0.5914993-0.4806519
			c0.0277557-0.0184479,0.046257-0.0369492,0.0739594-0.0647049c0.2125702-0.1848145,0.4251938-0.3789368,0.6285095-0.5822525
			c0.2033691-0.2033691,0.397438-0.4159393,0.5823059-0.6285629c0.0185013-0.0184479,0.0462036-0.0462036,0.0647049-0.0738983
			c0.1663666-0.1941223,0.3327255-0.3882446,0.4806442-0.5915604c0.0184479-0.0185013,0.0277023-0.0369492,0.0462036-0.0554504
			l-3.7156448-2.5417938c0.9335327-1.1646042,1.543541-2.5972443,1.7284088-4.1592865L99.0665283,67.2339172z
			 M86.4407425,67.5019379c-1.1368484,0-2.0518875-0.9150391-2.0518875-2.0518875
			c0-1.1369171,0.9150391-2.0611992,2.0518875-2.0611992c1.1369171,0,2.061203,0.9242821,2.061203,2.0611992
			C88.5019455,66.5868988,87.5776596,67.5019379,86.4407425,67.5019379z"/>
		<path class="st2" d="M86.4499969,43.26717c-12.2282944,0-22.1828766,9.9452782-22.1828766,22.1828804
			c0,12.2282867,9.9545822,21.0727234,22.1828766,21.0727234c12.2283478,0,21.5033875-10.3604355,21.5033875-21.0727234
			C107.9533844,53.2124481,98.6783447,43.26717,86.4499969,43.26717z M86.4592514,80.497406
			c-8.5127029,0-15.4078445-7.0430603-15.4078445-15.7313766c0-8.6790085,6.8951416-15.7220688,15.4078445-15.7220688
			c8.5034409,0,15.3985825,7.0430603,15.3985825,15.7220688C101.8578339,73.4543457,94.9626923,80.497406,86.4592514,80.497406z"/>
		<path class="st3" d="M90.0916901,78.14048c-0.0462036,0.0092545-0.0924072,0.0277023-0.1386108,0.0462036
			c-0.1848679,0.0462036-0.3789902,0.0924072-0.5823059,0.1386642c-0.1663666,0.0369568-0.3327866,0.0739059-0.4991531,0.1016617
			c-0.1663589,0.0369492-0.3604279,0.0647049-0.5730515,0.1016617h-0.0739594
			c-0.5822449,0.0739517-1.1738052,0.1294098-1.7746124,0.1294098c-0.6007538,0-1.1923065-0.0554581-1.7653656-0.1294098
			c-0.0092468,0-0.0092468,0-0.0092468,0H84.610672c-0.1294098-0.0185089-0.2587662-0.0462036-0.3881836-0.0739594
			c-0.2126236-0.0369568-0.4159393-0.0646515-0.6285019-0.1109161c-0.2033768-0.046196-0.415947-0.0923996-0.6193161-0.1386032
			c-0.0091934-0.0092545-0.1016541-0.0370102-0.1109085-0.0370102c-0.0739059-0.0184479-0.1386108-0.0462036-0.2125702-0.0739059
			c-0.0924072-0.0277557-0.1848679-0.0554504-0.2772751-0.0832062c-0.0370026-0.0092545-0.0739594-0.0277023-0.1109085-0.0369492
			c-0.2957764-0.0924683-0.6008072-0.2033768-0.8965836-0.3327332c-0.0184479-0.0092545-0.0369568-0.0092545-0.0462036-0.0185013
			c-0.0092545,0-0.0092545-0.0092545-0.0185089-0.0092545c-0.1848068-0.0739594-0.3881836-0.1663666-0.5823059-0.2588272
			l-0.1109085-0.0554504c-0.1293564-0.0646515-0.2495193-0.129364-0.3696823-0.2033234
			c-0.046196-0.0185013-0.0832062-0.0369492-0.1294098-0.0647049c-0.0462036-0.0185013-0.0924072-0.0462036-0.1386642-0.0739594
			c-0.5638046-0.3142242-1.0444489-0.6285095-1.4695892-0.9519806c-0.0185013-0.0185089-0.0370026-0.0462036-0.0554504-0.0739594
			c-0.9335403-0.7117233-1.765419-1.5435486-2.4770813-2.4678345l-0.0277557-0.0277557
			c-0.0369492-0.0276947-0.0924072-0.1109085-0.120163-0.1571121c-0.0831528-0.1016541-0.1940613-0.2587662-0.3142242-0.4343872
			c0-0.0092468-0.0092545-0.0185013-0.0185013-0.0277557c-0.0185089-0.0369492-0.0369568-0.0647049-0.0647125-0.1016541
			c-0.1478577-0.2218246-0.2957764-0.4528961-0.4343872-0.7024689c-0.0277557-0.0462036-0.0554504-0.1109085-0.0832062-0.1663666
			c-0.0462036-0.0739594-0.0924072-0.1571121-0.1294174-0.2403183c-0.0554504-0.1016617-0.120163-0.2033157-0.1756134-0.3142853
			c-0.0924072-0.1848145-0.1848145-0.397438-0.2680283-0.6007538c-0.0277557-0.0462036-0.0462036-0.0924606-0.0647049-0.1386642
			c-0.0092468-0.0184479-0.0185013-0.0462036-0.0276947-0.0647049c-0.1017151-0.2495193-0.1941223-0.4898453-0.2773361-0.739418
			c-0.0184479-0.0647125-0.0369492-0.120163-0.0554504-0.1848679c-0.0462036-0.120163-0.0831604-0.2402725-0.120163-0.3604279
			c-0.0184479-0.0832138-0.0462036-0.1571732-0.0646515-0.2310791c-0.0647049-0.2310715-0.120163-0.4621429-0.1756134-0.6932144
			c-0.0277557-0.1386642-0.0462646-0.2773285-0.0739594-0.4159393c-0.0370102-0.1663589-0.0647125-0.3512344-0.1016617-0.563797
			c0-0.0185089,0.0091934-0.0277557,0.0091934-0.0370102c-0.0831528-0.6007538-0.1386032-1.201561-0.1386032-1.8115616
			c0-0.6193161,0.0554504-1.2200699,0.1386032-1.8116264c0-0.0092506-0.0091934-0.0277557-0.0091934-0.0369492
			c0.0369492-0.2218781,0.0739059-0.4436951,0.1109085-0.6562653c0.0277023-0.1479149,0.0647125-0.2865257,0.0924072-0.42519
			c0.0462036-0.1940651,0.0924072-0.397438,0.1479187-0.5915031c0.0091934-0.0370064,0.0277023-0.08321,0.0369492-0.1201591
			c0.0554581-0.203373,0.120163-0.3974953,0.1848679-0.5823059c0.0092545-0.0370064,0.0184479-0.0647087,0.0277023-0.0924644
			c0.0739594-0.2310715,0.1663666-0.4713936,0.2680817-0.7209129c0-0.0092506,0.0091934-0.0277557,0.0184479-0.0370064
			c0.046196-0.1109123,0.0924606-0.2125702,0.1386642-0.3142281c0.0924072-0.2033691,0.1756134-0.3974342,0.2680206-0.5823021
			c0.0462036-0.0832138,0.0924606-0.1663666,0.1294098-0.2403259c0.0277023-0.0554543,0.0554581-0.1016579,0.0832138-0.1478615
			c0.0369492-0.0739555,0.0739059-0.1479149,0.1201019-0.2218742c0.1294174-0.2310715,0.2773361-0.4713402,0.4251938-0.7024117
			c0.0277557-0.0277557,0.0462036-0.0647049,0.0739594-0.0924606c0-0.0092545,0.0092545-0.0184479,0.0092545-0.0184479
			c0.120163-0.1756172,0.2310715-0.3420372,0.3604279-0.5084038c0.0027084-0.0072784,0.0103836-0.0095901,0.0135956-0.0163612
			l-0.5720367-0.5932465c-1.8101578,2.3641396-2.8983841,5.3093987-2.8983841,8.5123062
			c0,7.7362671,6.2943878,14.0306625,14.039917,14.0306625c1.5414581,0,3.0211945-0.259285,4.4097672-0.7206879l-0.4586487-0.71595
			C90.2986145,78.076004,90.1982574,78.1100159,90.0916901,78.14048z"/>
		<path class="st3" d="M100.4806595,65.4500504c0-7.7455292-6.2943878-14.039917-14.0306625-14.039917
			c-1.5622711,0-3.0569611,0.2734375-4.4595795,0.7473145l0.336731,0.7346802
			c0.1668167-0.0594597,0.3587952-0.1185265,0.5458679-0.1695251c0.0092468,0,0.0924606-0.0277557,0.1016541-0.0369492
			c0.2588272-0.0647087,0.517601-0.120163,0.785675-0.1756172c0.0554581-0.0092506,0.120163-0.0185051,0.175621-0.0277557
			c0.221817-0.0462036,0.4528885-0.08321,0.6747055-0.120163c0.0277557,0,0.0462036,0.0092545,0.0647125,0.0092545
			c0.5823059-0.0832138,1.1738586-0.1386681,1.7746124-0.1386681c0.6100616,0,1.201561,0.0554543,1.7838669,0.1386681
			c0.0185013,0,0.046257-0.0092545,0.0647049-0.0092545c0.2772751,0.0462036,0.5361023,0.0924644,0.8041229,0.1386681
			c0.0185089,0,0.0370102,0.0092506,0.0647125,0.0184441c0.268074,0.0554581,0.5361023,0.120163,0.8041229,0.1941223
			c0.0739594,0.0185051,0.1479187,0.0462036,0.2310715,0.0739594c0.120163,0.0369492,0.2403259,0.0739021,0.3697357,0.1109085
			c0.0647049,0.0276985,0.1294174,0.0462036,0.1940613,0.0647087c0.2310715,0.0739021,0.4713974,0.1663628,0.7209778,0.2680206
			c0.0369492,0.0092545,0.0647049,0.0277557,0.1016541,0.0462036h0.0092545
			c0.2865219,0.120163,0.5545502,0.2495766,0.8226242,0.3789902c0.2125702,0.1109085,0.4066925,0.2125664,0.6100082,0.3327293
			c0.2310715,0.1294136,0.4713898,0.2772751,0.7024612,0.42519c0.2125702,0.1478615,0.415947,0.2865295,0.6192627,0.4436417
			c0.0739594,0.0276985,0.1294098,0.0831528,0.16642,0.1478615c0.8965302,0.7024651,1.7006531,1.5065918,2.3938675,2.4031792
			c0.0369492,0.0276985,0.0739594,0.0554543,0.1016617,0.0924034c0.1941147,0.2588272,0.3604813,0.517601,0.5361023,0.7671738
			c0.1016541,0.1663666,0.2125626,0.3327293,0.3050308,0.4990959c0.0738983,0.120163,0.1294098,0.2403221,0.1940613,0.3604851
			c0.0092545,0.0185051,0.0277557,0.0462036,0.0370102,0.0647049c0.1756134,0.3327332,0.3234711,0.6470146,0.4528885,0.9519882
			c0.0554581,0.1017151,0.1016541,0.2126236,0.1386642,0.3235321c0.1016617,0.2218208,0.1848145,0.4436417,0.2680206,0.6839638
			c0.0185089,0.0554543,0.0369568,0.1294136,0.0554581,0.1848679c0.0369492,0.120163,0.0739594,0.2403259,0.1109085,0.3696823
			c0.0185089,0.0647049,0.0462036,0.120163,0.0647049,0.1941185c0.0092545,0.0185051,0.0185089,0.0462036,0.0185089,0.0647087
			c0.0646515,0.2495766,0.1293564,0.5083466,0.1848068,0.7671738c0.0092545,0.0091934,0.0092545,0.0184479,0.0092545,0.0276985
			c0.0092545,0.0554543,0.0185013,0.1016579,0.0277557,0.1479187c0.0369492,0.1848106,0.0831528,0.4343872,0.120163,0.6932144
			c0,0.0276985-0.0092545,0.0462036-0.0092545,0.0646515c0.0831604,0.5823021,0.1386108,1.1738625,0.1386108,1.7839241
			c0,0.6100006-0.0554504,1.201561-0.1386108,1.7931137c0,0.0184479,0.0092545,0.0369492,0,0.0554581
			c-0.0277557,0.2125626-0.0647049,0.4251328-0.1016541,0.6285095c-0.0277557,0.1016541-0.0462646,0.2125626-0.0647049,0.3142242
			c-0.0739594,0.3235321-0.1571732,0.6377563-0.2495804,0.9612961c-0.0277557,0.1016541-0.0647049,0.2033157-0.0924072,0.3049698
			c-0.1094971,0.3284988-0.2232819,0.6470718-0.3537674,0.9602203l0.6840744,0.4886627
			C100.076622,69.2654953,100.4806595,67.4047318,100.4806595,65.4500504z"/>
		<path class="st4" d="M98.6665573,70.4678421c-0.0126953,0.0304642-0.0213242,0.0631332-0.0344696,0.093483
			c-0.0092545,0.0277557-0.0277023,0.0647049-0.0369492,0.0923996c-0.1571198,0.3512344-0.3142853,0.684021-0.4990997,1.0167542
			c-0.0185013,0.0369492-0.0370026,0.0739594-0.0554504,0.1109085c-0.3050308,0.5545502-0.6470108,1.0999069-1.026001,1.6082458
			c-0.0184479,0.0277557-0.0462036,0.0369568-0.0739059,0.0554581c-0.7024689,0.9242859-1.5250931,1.7469177-2.4401321,2.4586334
			c-0.0370026,0.0462036-0.0739517,0.0831528-0.1201553,0.1109085c-0.0092545,0.0092545-0.0185089,0.0184479-0.0277557,0.0277023
			c-0.2033157,0.1479187-0.4066925,0.2865219-0.6192627,0.4251938c-0.2310715,0.1571121-0.4713898,0.3050308-0.7024612,0.4343872
			c-0.0739059,0.046257-0.1571121,0.0832062-0.2310715,0.1294098c-0.0369568,0.0185089-0.0831528,0.0462036-0.120163,0.0647049
			c-0.0831528,0.0462036-0.1663666,0.0924072-0.2495193,0.1294174c-0.0554581,0.0462036-0.1663666,0.0924072-0.2680817,0.1386108
			c-0.0738983,0.0370026-0.1571121,0.0554504-0.2310715,0.0924606c-0.34198,0.1571121-0.68396,0.2865295-1.0259399,0.4159393
			c-0.0554581,0.0184479-0.1016617,0.0462036-0.1478653,0.0554581c-0.0370026,0.0184479-0.0739594,0.0276947-0.1017151,0.0369492
			c-0.083374,0.0291672-0.1701431,0.0529175-0.2543716,0.0792084l0.4586487,0.71595
			c3.8196182-1.2692032,6.9160156-4.1353149,8.4908676-7.8035202L98.6665573,70.4678421z"/>
		<path class="st4" d="M76.0055695,57.3809891c0.7024689-0.9057846,1.5158463-1.7099075,2.4216309-2.4031219
			c0.0185013-0.0185051,0.0185013-0.0370102,0.0369492-0.0462036c0.0370026-0.0370102,0.1109619-0.0924644,0.1571655-0.120163
			c0.1386108-0.1109085,0.34198-0.2495766,0.5545502-0.3882408c0.2310715-0.1571121,0.4713974-0.3049736,0.7024689-0.4343872
			c0.0832062-0.0554543,0.1756134-0.1016579,0.2680206-0.1478615c0.0092545-0.0092506,0.0185089-0.0092506,0.0277557-0.0185051
			c0.1016617-0.0554543,0.2033157-0.1109085,0.2957764-0.1571121l0.129364-0.0647049
			c0.0092468-0.0092545,0.1201553-0.0647087,0.1294098-0.0647087l0.6193161-0.2865257
			c0.3142242-0.1294136,0.6192551-0.2403221,0.9334793-0.3419838c0.0140457-0.005188,0.0311966-0.0101509,0.0456924-0.0153427
			l-0.336731-0.7346802c-2.6757736,0.9040337-4.9976044,2.5803757-6.6819534,4.7802963l0.5720367,0.5932465
			C75.9102859,57.4690514,75.9555893,57.4226761,76.0055695,57.3809891z"/>
		<circle class="st3" cx="86.4546204" cy="65.4500504" r="1.5717509"/>
		<path class="st0" d="M104.7438049,64.7412033c-0.2059937,16.8796005-20.4262695,25.4015045-32.5478668,13.5450363
			c-7.4693069-7.1433258-7.5244598-19.9703827-0.0874634-27.1779175
			C84.1983795,39.0991859,104.8179779,47.7266235,104.7438049,64.7412033L104.7438049,64.7412033z M103.4542694,64.7412033
			c-0.1604614-15.5855026-19.0189667-23.3088684-30.0422592-12.3289261
			c-6.7919998,6.5205765-6.8472214,18.160965-0.0874557,24.7457199
			C84.3651962,88.2827454,103.5262985,80.4946594,103.4542694,64.7412033L103.4542694,64.7412033z"/>
		<path class="st3" d="M86.4499969,58.2128677c-3.9929276,0-7.2279282,3.2442551-7.2279282,7.2371826
			c0,3.9928665,3.2350006,7.2278671,7.2279282,7.2278671s7.2279282-3.2350006,7.2279282-7.2278671
			C93.6779251,61.4571228,90.4429245,58.2128677,86.4499969,58.2128677z M86.4407425,67.5019379
			c-1.1368484,0-2.0518875-0.9150391-2.0518875-2.0518875c0-1.1369171,0.9150391-2.0611992,2.0518875-2.0611992
			c1.1369171,0,2.061203,0.9242821,2.061203,2.0611992C88.5019455,66.5868988,87.5776596,67.5019379,86.4407425,67.5019379z"/>
		<g>
			<circle class="st1" cx="86.4546204" cy="60.9306831" r="1.0055425"/>
			<circle class="st4" cx="86.0723724" cy="60.51054" r="0.3312158"/>
		</g>
		<g>
			<circle class="st1" cx="82.1564484" cy="64.0534897" r="1.0055425"/>
			<circle class="st4" cx="81.659111" cy="63.7221794" r="0.3312158"/>
		</g>
		<g>
			<circle class="st1" cx="83.7982025" cy="69.1062927" r="1.0055425"/>
			<circle class="st4" cx="83.3338394" cy="68.7750549" r="0.3312158"/>
		</g>
		<g>
			<circle class="st1" cx="89.1110382" cy="69.1062927" r="1.0055425"/>
			<circle class="st4" cx="88.6312256" cy="68.7750549" r="0.3312158"/>
		</g>
		<g>
			<circle class="st1" cx="90.7527924" cy="64.0534897" r="1.0055425"/>
			<circle class="st4" cx="90.3269348" cy="63.7221794" r="0.3312158"/>
		</g>
	</g>
</g>
</svg>
