<?xml version="1.0" encoding="utf-8"?>
<!-- Generator: Adobe Illustrator 27.6.1, SVG Export Plug-In . SVG Version: 6.00 Build 0)  -->
<svg version="1.1" id="Layer_1" xmlns="http://www.w3.org/2000/svg" xmlns:xlink="http://www.w3.org/1999/xlink" x="0px" y="0px"
	 viewBox="0 0 172.8999939 90" style="enable-background:new 0 0 172.8999939 90;" xml:space="preserve">
<style type="text/css">
	.st0{fill:#888888;}
	.st1{fill:#3751A0;}
	.st2{fill:#CCCCCC;}
	.st3{fill:#FFFFFF;}
	.st4{fill:#8797C6;}
	.st5{fill:#003366;}
	.st6{fill:#F79420;}
	.st7{fill:#BABABA;}
	.st8{fill:#797979;}
	.st9{fill:#B3B3B3;}
	.st10{fill:none;}
	.st11{fill:#999999;}
</style>
<g>
	<path d="M51.1919174,47.7125092l0.25,2.1099854c0.0199585,0.1199951,0.0999756,0.2399902,0.2199707,0.2900391
		c0.0499878,0.0199585,0.1000366,0.039978,0.1600342,0.039978c0.039978,0,0.0699463-0.0300293,0.1099854-0.039978
		l0.5899658,1.7599487l0.8400269,0.5900269l0.8099976-0.210022v3.2999878c0,0.210022,0.0700073,0.4000244,0.1900024,0.5700073
		c0.0700073,0.1199951,0.1799927,0.2200317,0.3099976,0.2900391l2.6099854,1.5100098l1.0300293,0.5999756
		c0.1099854,0.0599976,0.2399902,0.0999756,0.3699951,0.1099854c-0.2800293,0.4800415-0.4500122,1.0800171-0.4500122,1.8300171
		c-0.0100098,2.5999756,1.8099976,5.75,4.0700073,7.0499878c1.1099854,0.6400146,2.1099854,0.710022,2.8499756,0.3200073
		c0,0,0,0,0,0.0100098c0.0200195-0.0100098,0.0300293-0.0200195,0.0400391-0.0200195
		c0.0099487-0.0100098,0.0199585-0.0100098,0.0199585-0.0200195c0.7000122-0.3999634,1.4100342-0.8099976,2.1100464-1.2099609
		c0.4199829-0.2399902,0.8799438-0.4400024,1.1599731-0.8599854c0.2199707-0.3300171,0.3300171-0.7400513,0.3499756-1.1400146
		l4.9000244,2.8300171c0.0100098,0,0.0100098,0,0.0100098,0.0099487l6.7600098,3.9000244
		c0.0299683,0.0200195,0.0700073,0.0599976,0.1099854,0.0800171l6.7399902,3.8999634
		c0.2600098,0.1400146,0.5599976,0.1700439,0.8300171,0.0700073c0.1699829-0.0499878,0.2999878-0.1599731,0.4099731-0.289978
		l0.8200073-0.4700317l0.539978,0.3099976l-0.4899902,0.2800293c-0.7099609,0.4400024-1.1399536,1.3300171-1.1499634,2.5999756
		c-0.0100098,2.6000366,1.8099976,5.75,4.0700073,7.0500488c1.0599976,0.6199951,2.0299683,0.7099609,2.7599487,0.3799438
		c0.0700073-0.039978,0.1300049-0.0699463,0.2000122-0.1099854l3.2600098-1.8800049v1.4299927
		c-0.0100098,0.0599976-0.0200195,0.1199951-0.0200195,0.1700439c0,0.2699585,0.1100464,0.5199585,0.3099976,0.7199707
		c0.0599976,0.0499878,0.1100464,0.1099854,0.1800537,0.1600342l3.7399902,2.1499634
		c0.7399902,0.4299927,1.5799561,0.6400146,2.4099731,0.6400146s1.6699829-0.210022,2.4100342-0.6400146l12.6300049-7.289978
		l0.2699585-0.1600342c0.5400391-0.3099976,0.9100342-0.7999878,1.0700073-1.3699951c0-0.0100098,0-0.0199585,0.0100098-0.0299683
		v-0.0100098c0.039978-0.1099854,0.0700073-0.2299805,0.0700073-0.3599854v-2.9000244
		c0-0.0299683-0.0100098-0.0599976-0.0100098-0.0899658c0.0100098-0.1200562,0.039978-0.2300415,0.039978-0.3500366
		c0-0.8300171-0.4299927-1.5700073-1.1499634-1.9899902l-1.7300415-0.9899902v-1.6799927
		c0-0.5400391-0.0999756-1.0599976-0.3099976-1.5599976c-0.2699585-0.7200317-0.7699585-1.3699951-1.4299927-1.8400269
		l-8.4199829-6.1300049l-4.8400269-9.9500122c-0.0799561-0.1799927-0.2199707-0.3299561-0.3999634-0.4299927l-7.9899902-4.5999756
		c-0.7800293-0.4700317-1.7600098-0.460022-2.5599976,0.0100098l-0.0700073,0.039978
		c0-0.0200195,0.0100098-0.0299683,0.0100098-0.0499878v-1.6199951c0-0.0599976-0.0200195-0.1199951-0.0500488-0.1699829
		c0-0.0200195-0.0099487-0.0300293-0.0199585-0.0400391c-0.0300293-0.0299683-0.0500488-0.0599976-0.0900269-0.0899658
		l-0.0299683-0.0300293l-2.0599976-1.1900024c-0.1200562-0.0700073-0.2600098-0.0700073-0.3800049,0l-4.1199951,2.3800049
		c-0.0100098,0-0.0100098,0-0.0100098,0l-0.7800293,0.4500122c-0.0599976-0.0700073-0.1400146-0.1400146-0.2299805-0.2000122
		l-3.460022-2c-0.3099976-0.1699829-0.6900024-0.1699829-1,0l-2.8200073,1.6199951
		c-0.0199585,0.0200195-0.039978,0.039978-0.0599976,0.0499878c-0.0299683,0.0200195-0.0499878,0.0400391-0.0700073,0.0599976
		c-0.1900024,0.1500244-0.3099976,0.3600464-0.3499756,0.5900269c0,0.0299683-0.0100098,0.0599976-0.0100098,0.0899658
		c0,0.0300293-0.0100098,0.0500488-0.0100098,0.0800171c0,0.0900269,0.0100098,0.1699829,0.0300293,0.25l-6.4899902-5.9799805
		c0.1799927-0.1799927,0.2699585-0.4400024,0.2000122-0.7000122c-0.0900269-0.4099731-0.5-0.6500244-0.9000244-0.5499878
		l-0.5300293,0.1199951l-5.8599854-5.3900146c-0.1199951-0.1099854-0.2999878-0.1300049-0.4400024-0.0499878l-0.3999634,0.2299805
		c-0.0100098-0.0100098,0-0.0299683-0.0200195-0.039978l-0.6600342-0.5900269
		c0.0500488-0.0599976,0.0800171-0.1199951,0.0900269-0.1900024c0.0100098-0.1199951-0.039978-0.2399902-0.1300049-0.3199463
		l-2.2399902-2.0100098c-0.2999878-0.2700195-0.7399902-0.3099976-1.0900269-0.1100464l-1.0299683,0.6000366
		c-0.2200317,0.1300049-0.3500366,0.3300171-0.4100342,0.5700073c-0.0199585,0.0299683-0.0299683,0.0700073-0.039978,0.1199951
		c0,0-0.0100098,0.0100098-0.0100098,0.0200195v2.1899414c0,0.0900269,0.0300293,0.1800537,0.0900269,0.2400513l1.2600098,1.4899902
		c0.2599487,0.3099976,0.6300049,0.4699707,1,0.4699707h0.0099487l0.4200439,4.7600098l-5.7200317,1.9899902
		c-0.0700073,0.0200195-0.1199951,0.0700073-0.1599731,0.1199951c-0.0100098,0.0100098-0.0200195,0.0200195-0.0300293,0.0400391
		l-0.0299683,0.0299683c-0.0200195,0.0499878-0.0300293,0.1000366-0.0300293,0.1600342v1.5599976
		c0,0.0799561,0.0300293,0.1499634,0.0800171,0.2099609l-2.8800049,1.9800415
		C51.2318954,47.4324799,51.1718979,47.5724945,51.1919174,47.7125092z M63.1718979,39.2524872
		c-0.0100098,0-0.0300293,0-0.039978,0.0100098l-2.2900391,1.5700073l-0.3900146-4.3900146l0.2400513,0.210022
		c-0.0500488,0.1400146-0.0100098,0.2999878,0.0999756,0.3999634L63.1718979,39.2524872z M58.3119125,46.7125092
		l3.8999634-2.5499878h0.0500488l4.6099854-1.4200439c0.0799561,0.1300049,0.1799927,0.2400513,0.3299561,0.3099976
		c0.0400391,0.0200195,0.0900269,0.0200195,0.1400146,0.0300293l1.4700317,1.3599854l-0.8800049-0.5100098
		c-0.2900391-0.1699829-0.6500244-0.1699829-0.9400024-0.0099487l-0.8662109,0.4987183
		c-0.1629639-0.0549316-0.3201904-0.0887451-0.4638062-0.0887451c-0.210022,0-0.3999634,0.0599976-0.5599976,0.1599731
		l-0.9077759,0.520813l-0.5522461-0.270813c-0.0899658-0.0499878-0.1999512-0.0599976-0.2999878-0.0199585l-3.6799927,1.3999634
		c0,0.0100098,0,0.0100098-0.0100098,0.0100098c0,0,0,0-0.0100098,0L58.3119125,46.7125092z"/>
	<path class="st0" d="M64.2218857,63.3224945c0.0100098,0.0100098,0.0100098,0.0100098,0.0100098,0.0200195
		c0-0.0100098,0-0.0100098,0-0.0200195c-0.0100098-0.0200195-0.0100098-0.0299683-0.0100098-0.0499878
		c0-0.0100098-0.0100098-0.0200195-0.0100098-0.0300293C64.2118759,63.2725067,64.2118759,63.2925262,64.2218857,63.3224945z"/>
	<path class="st0" d="M64.1219101,62.9225311c0.0100098,0.0099487,0.0199585,0.0299683,0.0199585,0.039978
		c0-0.0100098,0-0.0300293-0.0099487-0.039978c-0.0200195-0.0599976-0.0400391-0.1200562-0.0700073-0.1800537
		C64.081871,62.802475,64.1018906,62.8625336,64.1219101,62.9225311z"/>
	<path class="st0" d="M52.7118759,57.4725189l4.1500244,2.3900146l-2.960022,1.7099609
		c-0.4400024,0.2600098-0.4400024,0.8800049,0,1.1400146l8.3800049,4.8399658l30.0700073,17.3500366v0.0100098l7.1500244,4.1199951
		c2.2299805,1.289978,4.9899902,1.289978,7.2199707,0l12.8800049-7.4400024c0.4000244-0.2200317,0.6199951-0.6000366,0.6600342-1
		l-12.6300049,7.289978c-0.7400513,0.4299927-1.5800171,0.6400146-2.4100342,0.6400146s-1.6699829-0.210022-2.4099731-0.6400146
		l-3.7399902-2.1499634c-0.0700073-0.0500488-0.1200562-0.1100464-0.1800537-0.1600342
		c-0.1999512-0.2000122-0.3099976-0.4500122-0.3099976-0.7199707c0-0.0500488,0.0100098-0.1100464,0.0200195-0.1700439v-1.4299927
		l-3.2600098,1.8800049c-0.0700073,0.0400391-0.1300049,0.0700073-0.2000122,0.1099854
		c-0.7299805,0.3300171-1.6999512,0.2400513-2.7599487-0.3799438c-2.2600098-1.3000488-4.0800171-4.4500122-4.0700073-7.0500488
		c0.0100098-1.2699585,0.4400024-2.1599731,1.1499634-2.5999756l0.4899902-0.2800293l-0.539978-0.3099976l-0.8200073,0.4700317
		c-0.1099854,0.1300049-0.2399902,0.2399902-0.4099731,0.289978c-0.2700195,0.1000366-0.5700073,0.0700073-0.8300171-0.0700073
		l-6.7399902-3.8999634c-0.039978-0.0200195-0.0800171-0.0599976-0.1099854-0.0800171l-6.7600098-3.9000244
		c0-0.0099487,0-0.0099487-0.0100098-0.0099487L68.831871,64.592514c-0.0199585,0.3999634-0.1300049,0.8099976-0.3499756,1.1400146
		c-0.2800293,0.4199829-0.7399902,0.6199951-1.1599731,0.8599854c-0.7000122,0.3999634-1.4100342,0.8099976-2.1100464,1.2099609
		c0,0.0100098-0.0100098,0.0100098-0.0199585,0.0200195c-0.0100098,0-0.0200195,0.0100098-0.0400391,0.0200195
		c0-0.0100098,0-0.0100098,0-0.0100098c-0.7399902,0.3900146-1.7399902,0.3200073-2.8499756-0.3200073
		c-2.2600098-1.2999878-4.0800171-4.4500122-4.0700073-7.0499878c0-0.75,0.1699829-1.3499756,0.4500122-1.8300171
		c-0.1300049-0.0100098-0.2600098-0.0499878-0.3699951-0.1099854l-1.0300293-0.5999756l-2.6099854-1.5100098
		c-0.1300049-0.0700073-0.2399902-0.1700439-0.3099976-0.2900391c-0.0700073-0.0199585-0.1500244-0.0099487-0.210022,0.0300293
		l-1.4400024,0.8300171C52.5218735,57.092514,52.5218735,57.3625336,52.7118759,57.4725189z"/>
	<path class="st1" d="M58.2927933,56.1931496l0.6500244,0.3800049c0.1499634-0.1999512,0.2699585-0.2799683,0.4599609-0.3899536
		c0.2800293-0.1600342,0.5700073-0.2400513,0.8699951-0.2400513c0.2900391,0,0.5800171,0.0800171,0.8500366,0.2400513
		l3.8200073,2.1999512c1.0799561,0.6300049,1.8699951,1.7000122,2.1599731,2.9100342l0.8500366,0.4799805
		c-0.1900024-1.6799927-1.1600342-3.1799927-2.6300049-4.039978l-3.8200073-2.2000122
		c-0.7700195-0.4500122-1.6900024-0.4500122-2.460022,0C58.7428055,55.7031593,58.4928055,55.9332008,58.2927933,56.1931496z"/>
	<path class="st2" d="M56.1828079,53.2331886v1.7399902l2.1099854,1.2199707
		c0.2000122-0.2599487,0.4500122-0.4899902,0.75-0.6599731c0.7700195-0.4500122,1.6900024-0.4500122,2.460022,0l3.8200073,2.2000122
		c1.4699707,0.8599854,2.4400024,2.3599854,2.6300049,4.039978l5.289978,3.0499916V61.843174l-11.8499756-6.8399658
		L56.1828079,53.2331886z"/>
	<path class="st2" d="M56.1828079,53.2331886v1.7399902l2.1099854,1.2199707
		c0.2000122-0.2599487,0.4500122-0.4899902,0.75-0.6599731c0.7700195-0.4500122,1.6900024-0.4500122,2.460022,0l3.8200073,2.2000122
		c1.4699707,0.8599854,2.4400024,2.3599854,2.6300049,4.039978l5.289978,3.0499916V61.843174l-11.8499756-6.8399658
		L56.1828079,53.2331886z"/>
	<path class="st2" d="M75.2380142,60.5320969v0.7199707c0,0.0100098,0.0099487,0.0100098,0.0099487,0.0200195v4.710022
		l4.8699951,2.8099976v-5.4500122L75.2380142,60.5320969z"/>
	<path class="st2" d="M82.1179581,54.69207v15.2800293l5.3300171,3.0700073
		c0.3900146-0.5400391,0.9500122-0.960022,1.6000366-1.1900024c0.9199829-0.3300171,1.9400024-0.2300415,2.789978,0.2600098
		l5.6900024,3.289978c1.25,0.7199707,2.1799927,1.5200195,2.6400146,3l4.5999756,2.6500244l0.0100098-0.0100098v-2.5200195
		c0-0.5-0.1199951-0.9899902-0.3499756-1.4199829c-0.2200317-0.460022-0.5500488-0.8500366-0.9700317-1.1600342l-8.6400146-6.289978
		l-3.6399536-7.5l-0.8100586-1.6699829l-0.4899902-1L82.1179581,54.69207z M83.6080093,58.0220871l4.6599731,2.6799927
		l3.5700073,8.0300293l-8.2299805-4.75V58.0220871z"/>
	<path class="st3" d="M82.1179504,54.6520844v0.039978l7.7600098,4.7900391l0.4899902,1l0.8100586,1.6699829l3.6399536,7.5
		l8.6400146,6.289978c0.4199829,0.3099976,0.75,0.7000122,0.9700317,1.1600342l12.2999878-7.1000366
		c-0.0100098-0.0499878-0.0400391-0.1099854-0.0599976-0.1599731c-0.1400146-0.3800049-0.4000244-0.7200317-0.7399902-0.960022
		l-8.6300049-6.2799683c-0.1300049-0.1000366-0.2400513-0.2200317-0.3099976-0.3699951l-4.3000488-8.8500366l-0.5099487-1.0499878
		l-7.7400513-4.460022c-0.1599731-0.0899658-0.3599854-0.0899658-0.539978,0.0200195L82.1179504,54.6520844z M90.8679504,60.2421112
		l11.4400024-6.6700439l4.3400269,8.9400024l-11.460022,6.6099854L90.8679504,60.2421112z"/>
	<polygon class="st4" points="60.7142067,46.5302582 60.9242287,46.6402435 61.9042091,46.0702362 	"/>
	<path class="st1" d="M57.5141945,51.5702362l4.6099854,1.5700073c0.0600586,0.0200195,0.1200562,0.0499878,0.1700439,0.0800171
		l10.9399986,6.3200073v-0.4800415l-3.4400024-2c-0.3800049-0.2099609-0.5700073-0.6499634-0.4800415-1.0799561l0.3500366-1.5800171
		c-0.0300293-0.0100098-0.0599976,0-0.0800171-0.0200195l-0.1599731-0.0799561l-0.75,0.4299927l-0.210022,0.1199951
		c-0.3699951,0.1699829-0.8599854,0.1199951-1.3900146-0.1900024c-0.8699951-0.5-1.6099854-1.5200195-1.9199829-2.5599976
		l-1.039978-0.5400391l-0.5300255,0.3100586l-0.210022,0.1199951c-0.3699951,0.1699829-0.8599854,0.1199951-1.3899536-0.1900024
		c-0.6799927-0.3800049-1.2600098-1.0900269-1.6400146-1.8600464L57.5141945,51.5702362z"/>
	<path class="st4" d="M62.3141823,45.9202728c0.3300171-0.0499878,0.710022,0.0299683,1.1200562,0.2699585
		c0.9099693,0.5300293,1.6799889,1.6500244,1.9599571,2.75l0.8400269,0.4300537l0.8899536-0.5100098
		c0.3700562-0.1700439,0.8600464-0.1300049,1.4000244,0.1799927c0.7800293,0.4599609,1.460022,1.3499756,1.8099976,2.2999878
		l0.3599854-1.6099854v-0.0100098c0.0300293-0.1400146,0.1000366-0.2600098,0.1799927-0.3699951
		c0.0100098-0.0200195,0.0300293-0.0400391,0.0400391-0.0499878c0.0299683-0.0400391,0.0599976-0.0700073,0.0999756-0.1000366
		l-7.5599937-3.7199707L62.3141823,45.9202728z"/>
	<path class="st1" d="M67.9419174,46.1125336c0.1599731,0.2599487,0.2799683,0.539978,0.3599854,0.8199463l0.5299683-0.2999878
		L67.9419174,46.1125336z"/>
	<path class="st4" d="M52.9242287,49.8602753l0.4400024,1.2299805l0.1999512-0.0599976l6.210022-2.4099731
		c0.0499878-0.0200195,0.1099854-0.0200195,0.1600342-0.0200195c-0.0100098-0.1300049-0.0300293-0.2600098-0.0300293-0.3900146
		c0-0.4699707,0.1199951-0.8399658,0.3200073-1.0899658l-0.4400024-0.2300415L52.9242287,49.8602753z"/>
	<path class="st4" d="M51.9642067,47.8402557l0.1599731,1.289978l5.2400513-3.4299927l-1.3300171,0.460022
		c-0.039978,0.0100098-0.0800171,0.0200195-0.1300049,0.0200195s-0.0999756-0.0100098-0.1500244-0.0400391l-0.789978-0.3599854
		L51.9642067,47.8402557z"/>
	<polygon class="st4" points="54.9042091,44.1902313 54.9042091,44.9202728 55.534214,45.2102509 55.534214,44.4902802 	"/>
	<polygon class="st4" points="55.5242043,43.6502533 55.9342384,43.8402557 60.9541969,42.1002655 60.7541847,41.8402557 	"/>
	<polygon class="st4" points="56.284214,44.5202484 56.284214,45.2802582 61.2041969,43.5702362 61.2041969,42.8102264 	"/>
	<path class="st4" d="M61.3542213,41.3902435l0.5199585,0.6600342c0.0100098,0.0099487,0.0100098,0.0199585,0.0200195,0.0299683
		c0.0100098,0.0200195,0.0200195,0.0400391,0.0200195,0.0599976c0.0200195,0.0300293,0.0299683,0.0700073,0.0299683,0.1099854
		c0,0.0100098,0.0100098,0.0200195,0.0100098,0.0300293v0.4099731l2.4800377-1.6199951l-1.1200523-1.0299683L61.3542213,41.3902435z
		"/>
	<polygon class="st4" points="58.0942116,33.2902679 58.0942116,33.5002289 59.3042336,34.6102753 59.3542213,34.4202728 	"/>
	<path class="st4" d="M58.0942116,32.1902313c-0.0100098,0.0300293,0,0.0900269,0.0599976,0.1500244l1.4899902,1.3300171
		c0.0100098-0.0100098,0.0300293-0.0200195,0.0499878-0.0300293l1.3000488-0.7600098l-1.5700073-1.4099731
		c-0.0599976-0.0499878-0.1400146-0.0599976-0.210022-0.0200195l-1.0299683,0.6000366
		C58.1142311,32.0902557,58.0942116,32.1502533,58.0942116,32.1902313z"/>
	<path class="st4" d="M59.9742165,35.0002289l0.9799805,0.8800049l0.1199951-0.3299561l-0.9599609-0.8600464l-0.0500488,0.0200195
		c0,0-0.0099487,0-0.0099487,0.0100098L59.9742165,35.0002289z"/>
	<polygon class="st4" points="60.7942238,34.2902679 61.4642067,34.8802338 61.7541847,34.7102509 61.0442238,34.1402435 	"/>
	<polygon class="st4" points="63.0942116,34.8102264 66.9942322,37.9002533 63.4242287,34.620285 	"/>
	<polygon class="st4" points="62.2041969,35.3202362 67.7442322,40.4202728 68.3241882,39.9202728 62.3941994,35.2102509 	"/>
	<polygon class="st4" points="61.4742165,36.6602631 66.9742126,41.7202606 67.2842102,41.0202484 61.744236,35.9102631 	"/>
	<path class="st4" d="M68.124176,42.7802582l5.3800049,4.9500122l0.5200195-0.2999878
		c0.0499878-0.0300293,0.0999756-0.0400391,0.1500244-0.0599976l-5.7200317-5.2800293l-0.2600098,0.5800171
		C68.1742249,42.7102509,68.1441956,42.7402802,68.124176,42.7802582z"/>
	<polygon class="st4" points="73.1941833,43.620285 78.4342346,48.8802338 78.7342224,48.7102509 	"/>
	<polygon class="st4" points="68.8542175,41.4402313 75.9042053,47.9402313 77.1742249,48.6702728 69.4541931,40.9202728 	"/>
	<polygon class="st5" points="78.3241882,47.3202362 79.4142151,48.3202362 79.7342224,48.1302338 	"/>
	<polygon class="st4" points="80.2742004,46.1302338 81.7342224,46.9702606 82.54422,46.5102386 81.0942078,45.6602631 	"/>
	<polygon class="st4" points="73.6642151,49.9502411 75.124176,50.7902679 75.849556,50.3785858 74.3642273,49.5502777 	"/>
	<polygon class="st4" points="71.4242249,55.7002411 74.124176,57.2602386 74.124176,52.5202484 72.3442078,51.5002289 	"/>
	<path class="st4" d="M76.124176,52.5302582v2.9799805l1.3800049-2.7199707l-0.1699829-0.0900269
		c-0.1099854-0.0700073-0.1799927-0.1900024-0.1799927-0.3299561v-0.2600098l-0.1199951-0.1100464L76.124176,52.5302582z"/>
	<path class="st1" d="M76.1842346,58.7702484l3.9299927,2.2600098v-2.4000244l-1.5400391,0.8900146
		c-0.0599976,0.0300293-0.1199951,0.0499878-0.1900024,0.0499878c-0.0100098,0-0.0100098-0.0100098-0.0199585-0.0100098
		c-0.0100098,0-0.0200195,0.0100098-0.0300293,0.0100098c-0.0700073,0-0.1300049-0.0199585-0.1900024-0.0499878
		l-1.6400146-0.9400024L76.1842346,58.7702484z"/>
	<polygon class="st1" points="78.9541931,58.4302826 80.1142273,57.7602386 80.1142273,54.620285 	"/>
	<path class="st1" d="M76.124176,57.1702728v0.3200073l1.9800415,1.1499634l1.4299927-4.7099609
		c-0.039978,0-0.0800171-0.0100098-0.1099854-0.0300293c0,0-0.0100098,0-0.0200195,0l-1.25-0.7299805L76.124176,57.1702728z"/>
	<polygon class="st6" points="88.6941833,47.1302338 88.6941833,47.8802338 92.0741882,45.9302826 92.0741882,45.1802826 	"/>
	<polygon class="st6" points="84.0242004,49.830246 84.0242004,50.580246 87.9441833,48.3202362 87.9441833,47.5602264 	"/>
	<polygon class="st6" points="77.9042053,51.4102631 77.9042053,52.1602631 79.2242126,52.9202728 79.2242126,52.1702728 	"/>
	<polygon class="st6" points="79.9742126,52.1702728 79.9742126,52.9202728 83.2742004,51.0202484 83.2742004,50.2602386 	"/>
	<polygon class="st6" points="78.2742004,50.7602386 79.5942078,51.5202484 82.8941956,49.6102753 81.584198,48.8502655 	"/>
	<polygon class="st6" points="82.334198,48.4202728 83.6441956,49.1802826 87.5741882,46.9102631 86.2541809,46.1502533 	"/>
	<polygon class="st6" points="87.0041809,45.7202606 87.2041931,45.830246 88.3241882,46.4802704 91.7041931,44.5302582 
		90.3841858,43.7702484 	"/>
	<path class="st7" d="M100.6042175,83.4802704v0.8200073l3.2099609,1.8499756c0.8700562,0.5,1.9500122,0.5,2.8200073,0
		l12.9000244-7.4500122c0.1400146-0.0799561,0.1500244-0.2000122,0.1500244-0.2600098v-0.6199951l-12.0200195,6.9500122
		c-0.75,0.4299927-1.5800171,0.6400146-2.4100342,0.6400146c-0.8399658,0-1.6699829-0.210022-2.4099731-0.6400146
		L100.6042175,83.4802704z"/>
	<path class="st7" d="M101.6142273,81.7402802l2.2299805,1.2999878c0.8699951,0.5,1.9500122,0.5,2.8200073-0.0100098
		l12.8999634-7.4500122c0.1300049-0.0700073,0.1500244-0.1900024,0.1500244-0.2600098
		c0-0.0599976-0.0200195-0.1799927-0.1500244-0.2600098L118.79422,74.620285
		c-0.0599976,0.25-0.2200317,0.4599609-0.4400024,0.5999756l-13.0700073,7.8499756c0,0,0,0-0.0100098,0.0100098
		c-0.0499878,0.0300293-0.0999756,0.0400391-0.1599731,0.0599976c-0.0300293,0.0100098-0.0500488,0.0300293-0.0800171,0.0400391
		c-0.0700073,0.0199585-0.1300049,0.0199585-0.2000122,0.0199585c-0.0200195,0.0100098-0.039978,0.0100098-0.0599976,0.0100098
		c-0.039978,0-0.0700073-0.0100098-0.1099854-0.0100098c-0.0499878-0.0100098-0.1000366-0.0100098-0.1400146-0.0199585
		c-0.0299683-0.0100098-0.0499878-0.0200195-0.0700073-0.0300293c-0.0599976-0.0200195-0.1199951-0.039978-0.1699829-0.0700073
		c-0.0100098,0-0.0100098,0-0.0100098,0l-2.4899902-1.4400024L101.6142273,81.7402802z"/>
	<path class="st2" d="M104.4280167,77.1021042c0.2299805,0.4299927,0.3499756,0.9199829,0.3499756,1.4199829v2.5200195
		l12.0599976-7.25v-3.1300049c0-0.2200317-0.0300293-0.4400024-0.1099854-0.6600342L104.4280167,77.1021042z"/>
	<polygon class="st8" points="83.6080093,58.0220871 83.6080093,63.9821091 91.8379898,68.7321091 88.2679825,60.7020798 	"/>
	<polygon class="st9" points="90.8679581,60.2421188 95.1879654,69.1220627 106.6479874,62.5120773 102.3079605,53.5720749 	"/>
	<polygon class="st10" points="94.3794785,83.5920868 94.3923798,79.0434952 90.4339218,76.7580795 90.4210281,81.3066711 	"/>
	<path class="st11" d="M92.413147,77.9007874c1.0917816,0.6303329,1.9763412,2.1624756,1.9727783,3.4170151
		c-0.0035553,1.254509-0.893898,1.7619171-1.985672,1.1315765c-1.0917816-0.6303406-1.9763412-2.1624832-1.9727783-3.4169922
		C90.4310303,77.7778473,91.321373,77.2704468,92.413147,77.9007874L92.413147,77.9007874z"/>
	<path class="st7" d="M91.6398315,77.9255295c0.4244003,0.2450256,0.7682495,0.8406067,0.7668686,1.32827
		c-0.0013885,0.4876556-0.3474808,0.6848984-0.7718811,0.4398727c-0.4243927-0.2450256-0.7682419-0.8406067-0.766861-1.3282623
		C90.869339,77.8777466,91.2154388,77.6805038,91.6398315,77.9255295L91.6398315,77.9255295z"/>
	<polygon class="st10" points="64.2976761,66.2405319 64.3105698,61.6919327 60.3521156,59.406517 60.339222,63.9551125 	"/>
	<path class="st11" d="M62.3313446,60.5492249c1.0917778,0.6303406,1.9763336,2.1624832,1.9727783,3.4170189
		c-0.0035553,1.2545128-0.893898,1.7619133-1.9856758,1.1315804c-1.091774-0.6303406-1.9763374-2.162487-1.9727783-3.416996
		C60.3492241,60.4262924,61.2395668,59.9188881,62.3313446,60.5492249L62.3313446,60.5492249z"/>
	<path class="st11" d="M61.9891701,48.257328c0.5560379,0.3210297,1.0065422,1.1013489,1.0047302,1.7402802
		c-0.001812,0.6389198-0.4552612,0.8973389-1.0112991,0.5763092c-0.5560417-0.3210297-1.006546-1.1013451-1.004734-1.7402649
		C60.9796791,48.1947212,61.4331284,47.9362984,61.9891701,48.257328L61.9891701,48.257328z"/>
	<path class="st11" d="M67.0809784,51.1159592c0.5560379,0.3210297,1.006546,1.1013489,1.0047379,1.7402802
		c-0.0018158,0.6389198-0.4552612,0.8973389-1.0113068,0.5763092c-0.5560379-0.3210297-1.0065384-1.1013451-1.0047302-1.7402649
		C66.0714951,51.0533524,66.5249405,50.7949295,67.0809784,51.1159592L67.0809784,51.1159592z"/>
	<path class="st3" d="M115.2445755,71.3810272c-0.7095566,0.4096603-1.2844391,1.4054108-1.2821274,2.2207413
		c0.0023117,0.8153152,0.5809479,1.1450806,1.2905045,0.7354202s1.2844391-1.4054108,1.2821274-2.220726
		C116.5327682,71.3011246,115.9541245,70.9713593,115.2445755,71.3810272L115.2445755,71.3810272z"/>
	<path class="st3" d="M106.541275,76.6475067c-0.7095566,0.4096603-1.2844391,1.4054108-1.2821274,2.2207489
		c0.0023117,0.8153152,0.5809555,1.1450806,1.2905121,0.7354202c0.709549-0.4096603,1.2844315-1.4054184,1.2821198-2.2207336
		C107.8294678,76.5676117,107.2508316,76.2378464,106.541275,76.6475067L106.541275,76.6475067z"/>
	<path class="st7" d="M61.5580292,60.5618935c0.4243965,0.2450256,0.7682457,0.8406029,0.7668648,1.32827
		c-0.0013847,0.4876556-0.3474808,0.6848946-0.7718773,0.4398689s-0.7682457-0.8406029-0.766861-1.3282585
		C60.7875366,60.5141068,61.1336327,60.3168678,61.5580292,60.5618935L61.5580292,60.5618935z"/>
</g>
</svg>
