<?xml version="1.0" encoding="utf-8"?>
<!-- Generator: Adobe Illustrator 27.6.1, SVG Export Plug-In . SVG Version: 6.00 Build 0)  -->
<svg version="1.1" id="Layer_1" xmlns="http://www.w3.org/2000/svg" xmlns:xlink="http://www.w3.org/1999/xlink" x="0px" y="0px"
	 viewBox="0 0 172.9100037 90" style="enable-background:new 0 0 172.9100037 90;" xml:space="preserve">
<style type="text/css">
	.st0{fill:#888888;}
	.st1{fill:#657195;}
	.st2{fill:#8797C6;}
	.st3{fill:#3751A0;}
	.st4{fill:#BABABA;}
	.st5{fill:#FFFFFF;}
	.st6{fill:#CCCCCC;}
	.st7{fill:#B3B3B3;}
	.st8{fill:#F79420;}
</style>
<g>
	<rect x="74.1000748" y="85.4247894" class="st0" width="24.7098465" height="4.5752082"/>
	<g>
		<path d="M83.4616623,51.0383797v0.1087875h5.9866791v-0.1087875H83.4616623z M89.4483414,49.8138046v1.224575h-5.9730606
			v0.1087875h5.9866791v-1.3333626H89.4483414z M89.4483414,49.8138046v1.224575h-5.9730606v0.1087875h5.9866791v-1.3333626
			H89.4483414z M89.4483414,49.8138046v1.224575h-5.9730606v0.1087875h5.9866791v-1.3333626H89.4483414z M89.4483414,49.8138046
			v1.224575h-5.9730606v0.1087875h5.9866791v-1.3333626H89.4483414z M89.4483414,49.8138046v1.224575h-5.9730606v0.1087875
			h5.9866791v-1.3333626H89.4483414z M89.4483414,49.8138046v1.224575h-5.9730606v0.1087875h5.9866791v-1.3333626H89.4483414z
			 M100.2515182,78.1006699h-0.5442734l0.05439-1.4830093v-0.1496429l-0.625824-8.1500702l-0.2993698-8.299633
			c0-0.0543938,0-0.095253-0.0271606-0.1496468l-1.0749283-7.6601906c-0.0407715-0.1632652-0.0680084-0.312912-0.1496429-0.4626427
			v-2.7075806l-0.3537674-2.4354477c-0.0543976-0.3401489-0.3401566-0.5850487-0.666687-0.5850487h-1.1973343l-0.5850449-4.0001717
			c-0.0543976-0.3265305-0.3401489-0.5850487-0.6803055-0.5850487h-3.8232803l-0.040863-0.4217796h-1.5782547l-0.0136261-0.2585182
			h2.7075882c0.190506,0,0.3401489-0.1633492,0.3401489-0.3401527v-1.347065c0-0.1904182-0.1496429-0.3401489-0.3401489-0.3401489
			h-2.7892151l-0.1088715-2.1225357c-0.0271606-0.2720528-0.2312775-0.4897957-0.503418-0.4897957h-0.1360245v-0.9795914
			c0-0.190506-0.1496506-0.3401527-0.3401489-0.3401527H85.420929c-0.1768799,0-0.3401489,0.1496468-0.3401489,0.3401527v0.9795914
			h-0.1088715c-0.285675,0-0.4897919,0.2177429-0.503418,0.4897957l-0.122406,2.1225357h-2.7756805
			c-0.2040405,0-0.3401489,0.1497307-0.3401489,0.3401489v1.347065c0,0.1768036,0.1361084,0.3401527,0.3401489,0.3401527h2.6804276
			l-0.0136185,0.2585182h-1.5374832l-0.0816345,0.4217796h-3.823288c-0.3401489,0-0.6122818,0.2585182-0.6802979,0.5850487
			l-0.5714264,4.0001717h-1.1837158c-0.3401489,0-0.6259079,0.2448997-0.6803055,0.5850487l-0.3537674,2.4354477
			c0,0.0136185,0.0136185,0.0272369,0.0136185,0.0408554c0,0.0271568-0.0136185,0.0407753-0.0136185,0.0543938v2.6939659
			c0,0.0544777,0.0136185,0.0952492,0.0407791,0.1497269c-0.0407791,0.0680161-0.0680161,0.1496468-0.0816345,0.2312813
			l-1.1020889,7.6601906v0.1496468l-0.3265305,8.2588539l-0.5986633,8.1908493v0.1496429l0.0408554,1.4830093h-0.6395264
			c-0.7619324,0-1.3606033,0.6122894-1.3606033,1.3606033v3.7961273c0,1.9184113,1.5374908,3.4695206,3.4695206,3.4695206
			h23.3887329c1.9048767,0,3.455986-1.5511093,3.455986-3.4695206v-3.7961273
			C101.6121216,78.7129593,100.9998322,78.1006699,100.2515182,78.1006699z M90.8089447,51.0383797v-1.224575h5.4151611v1.224575
			H90.8089447z M95.9655914,47.3783569l0.1632614,1.0748482h-5.2655182l-0.095253-1.0748482H95.9655914z M90.3599167,42.7931404
			h3.1566086l0.4761734,3.224617h-3.0477295v-1.251812c0-0.0816345,0-0.1632652-0.0136185-0.2448997l-0.122406-0.7890892h-0.449028
			V42.7931404z M91.0129852,39.4051743v0.6667633h-2.4082108l-0.0272369-0.6667633H91.0129852z M86.7951508,35.8948822h0.258522
			v0.1087875h-0.258522V35.8948822z M86.7951508,37.1329918h0.6666794l0.1224976,2.6939659l-0.7891769-0.1224098V37.1329918z
			 M86.7951508,40.3848495l0.8299484,0.1360283l0.2585144,5.4968796h-1.0884628V40.3848495z M85.8427124,35.8948822h0.2721405
			v0.1087875h-0.2721405V35.8948822z M85.4481735,37.1329918h0.6666794v2.5579376l-0.7755508,0.1360283L85.4481735,37.1329918z
			 M85.2849045,40.5208778l0.8299484-0.1360283v5.6329079h-1.0884628L85.2849045,40.5208778z M81.9105606,40.0719376v-0.6667633
			h2.408287l-0.0136185,0.6667633H81.9105606z M83.6385498,47.3783569h5.7553101l0.1088715,1.0748482h-5.973053
			L83.6385498,47.3783569z M83.4616623,49.8138046h5.9866791v1.224575h-5.9866791V49.8138046z M79.3798599,42.7931404h3.1702271
			v0.9388161h-0.449028l-0.1088715,0.7890892c-0.027153,0.0816345-0.0407715,0.1632652-0.0407715,0.2448997v1.251812h-3.0205765
			L79.3798599,42.7931404z M76.9444122,47.3783569h5.3199158l-0.095253,1.0748482h-5.3607712L76.9444122,47.3783569z
			 M76.6858978,49.8138046h5.4151611v1.224575h-5.4151611V49.8138046z M76.2641144,72.6718826l0.0680084-0.9251938
			l0.2449036-3.3062515v-0.0136185l0.0272369-0.693924l0.285675-7.5240784v-0.0272369l0.9116592-6.4219971h17.4020615
			l0.9115753,6.4219971v0.0272369l0.3129959,8.2316208v0.0407715l0.6122055,8.1228333l-0.1360245,3.5647659H76.0872269
			l-0.0136185-0.6259003c0-0.0271606,0.0136185-0.0543976,0.0136185-0.0816345c0-0.027153-0.0136185-0.0680161-0.0136185-0.095253
			l-0.095253-2.7619781L76.2641144,72.6718826z M98.8909149,83.2574005c0,0.408165-0.3401489,0.7483139-0.7347794,0.7483139
			H74.7674026c-0.408165,0-0.7483139-0.3401489-0.7483139-0.7483139v-0.6395264
			c0.2041245,0.163269,0.4626389,0.2721405,0.7755508,0.2721405h23.4431305c0.2313614,0,0.4490204-0.0816345,0.6531448-0.2041245
			V83.2574005z M89.4483414,49.8138046v1.224575h-5.9730606v0.1087875h5.9866791v-1.3333626H89.4483414z M89.4483414,49.8138046
			v1.224575h-5.9730606v0.1087875h5.9866791v-1.3333626H89.4483414z M89.4483414,49.8138046v1.224575h-5.9730606v0.1087875
			h5.9866791v-1.3333626H89.4483414z M89.4483414,49.8138046v1.224575h-5.9730606v0.1087875h5.9866791v-1.3333626H89.4483414z
			 M89.4483414,49.8138046v1.224575h-5.9730606v0.1087875h5.9866791v-1.3333626H89.4483414z M83.4616623,51.0383797v0.1087875
			h5.9866791v-0.1087875H83.4616623z"/>
		<rect x="86.7951508" y="35.8948822" class="st1" width="0.2585175" height="0.1087883"/>
		<rect x="85.8427124" y="35.8948822" class="st1" width="0.2721368" height="0.1087883"/>
		<polygon class="st2" points="86.1148529,40.3848495 86.1148529,46.0177574 85.0263901,46.0177574 85.2849045,40.5208778 		"/>
		<polygon class="st2" points="87.8836136,46.0177574 86.7951508,46.0177574 86.7951508,40.3848495 87.6250992,40.5208778 		"/>
		<polygon class="st1" points="91.0129852,39.4051743 91.0129852,40.0719376 88.6047745,40.0719376 88.5775375,39.4051743 		"/>
		<polygon class="st2" points="87.5843277,39.8269577 86.7951508,39.7045479 86.7951508,37.1329918 87.4618301,37.1329918 		"/>
		<polygon class="st2" points="86.1148529,37.1329918 86.1148529,39.6909294 85.3393021,39.8269577 85.4481735,37.1329918 		"/>
		<polygon class="st1" points="84.3188477,39.4051743 84.3052292,40.0719376 81.9105606,40.0719376 81.9105606,39.4051743 		"/>
		<path class="st3" d="M90.9449692,46.0177574v-1.251812c0-0.0816345,0-0.1632652-0.0136185-0.2448997l-0.122406-0.7890892
			h-0.449028v-0.9388161h3.1566086l0.4761734,3.224617H90.9449692z"/>
		<path class="st3" d="M82.550087,42.7931404v0.9388161h-0.449028l-0.1088715,0.7890892
			c-0.027153,0.0816345-0.0407715,0.1632652-0.0407715,0.2448997v1.251812h-3.0205765l0.4490204-3.224617H82.550087z"/>
		<path class="st4" d="M98.8909149,82.6858902v0.5715103c0,0.408165-0.3401489,0.7483139-0.7347794,0.7483139H74.7674026
			c-0.408165,0-0.7483139-0.3401489-0.7483139-0.7483139v-0.6395264c0.2041245,0.163269,0.4626389,0.2721405,0.7755508,0.2721405
			h23.4431305C98.4691315,82.8900146,98.6867905,82.8083801,98.8909149,82.6858902z"/>
		<polygon class="st5" points="96.1084671,60.1768875 95.1968918,53.7548904 77.8083649,53.7548904 76.8831711,60.1768875 
			76.8820877,60.2052917 96.1095505,60.2052917 		"/>
		<polygon class="st6" points="76.8820877,60.2052917 76.5702591,68.4221268 76.5692596,68.4361649 96.4334183,68.4361649 
			96.1095505,60.2052917 		"/>
		<polygon class="st7" points="77.2746811,67.7558975 77.5371017,60.8857956 95.4554443,60.8857956 95.7258377,67.7558975 		"/>
		<polygon class="st5" points="96.4334183,68.4361649 76.5692596,68.4361649 75.986702,76.5773468 97.0320053,76.5773468 
			96.4349976,68.4766083 		"/>
		<path class="st6" d="M75.986702,76.5773468l-0.0015793,0.0220108l0.095253,2.7620544
			c0,0.0271606,0.0136185,0.0680161,0.0136185,0.0951691c0,0.0272446-0.0136185,0.0544815-0.0136185,0.0816345l0.0136185,0.6259079
			h20.8171844l0.1224899-3.5647659l-0.0016632-0.0220108H75.986702z"/>
		<g>
			<g>
				<polygon class="st8" points="89.496376,48.4540825 83.5233994,48.4540825 83.6321869,47.3791542 89.3875885,47.3791542 				"/>
			</g>
			<g>
				<polygon class="st8" points="96.1225815,48.4540825 90.8569794,48.4540825 90.7618103,47.3791542 95.9592285,47.3791542 				"/>
			</g>
			<g>
				<rect x="90.8162003" y="49.814682" class="st8" width="5.4015465" height="1.3333625"/>
			</g>
			<g>
				<rect x="83.4689255" y="49.814682" class="st8" width="5.9866781" height="1.3333625"/>
			</g>
			<g>
				<rect x="76.6931534" y="49.814682" class="st8" width="5.4151659" height="1.3333625"/>
			</g>
			<g>
				<polygon class="st8" points="82.258049,47.3791542 82.162796,48.4540825 76.8020248,48.4540825 76.9516754,47.3791542 				"/>
			</g>
		</g>
		<g>
			<ellipse class="st5" cx="78.7886887" cy="78.3710403" rx="1.6344033" ry="1.309304"/>
			<ellipse class="st5" cx="94.2300186" cy="78.3710403" rx="1.6344033" ry="1.309304"/>
		</g>
	</g>
	<g>
		<rect x="74.1000748" y="86.0976181" width="5.5343428" height="2.1873801"/>
		<rect x="93.2755814" y="86.0976181" width="5.5343428" height="2.1873801"/>
	</g>
</g>
</svg>
