<?xml version="1.0" encoding="utf-8"?>
<!-- Generator: Adobe Illustrator 27.6.1, SVG Export Plug-In . SVG Version: 6.00 Build 0)  -->
<svg version="1.1" id="Layer_1" xmlns="http://www.w3.org/2000/svg" xmlns:xlink="http://www.w3.org/1999/xlink" x="0px" y="0px"
	 viewBox="0 0 172.8999939 90" style="enable-background:new 0 0 172.8999939 90;" xml:space="preserve">
<style type="text/css">
	.st0{opacity:0.97;fill:#888888;}
	.st1{fill:#8797C6;}
	.st2{fill:#888888;}
	.st3{fill:#3751A0;}
	.st4{fill:#CCCCCC;}
	.st5{fill:#FFFFFF;}
	.st6{fill:#003366;}
	.st7{fill:#F79420;}
	.st8{fill:#BABABA;}
	.st9{fill:#797979;}
	.st10{fill:#B3B3B3;}
	.st11{fill:none;}
	.st12{fill:#999999;}
	.st13{fill:#1A1A1A;}
	.st14{fill:#FF0000;}
	.st15{fill:#BF0000;}
	.st16{fill:#4D4D4D;}
	.st17{fill:#333333;}
	.st18{fill:#FFFF00;}
</style>
<g>
	<path class="st0" d="M31.8127232,34.5159836l6.8498516-8.0131817L75.45961,45.8121376l0.4847794,3.1028862l-4.2383652,2.9799881
		l9.027832,5.2189331c-0.3218384,0.468071-0.6422272,0.9369774-0.9925613,1.3880615l-9.7327805-5.6264648l-0.5206985,0.3007812
		c-4.0069656,0.9924622-8.4836235,0.8680191-12.2582169-0.9045525c-1.4195175-0.6666145-2.7581024-1.4861221-4.1168022-2.2710876
		c-1.8776588-1.0847855-3.7553177-2.1695709-5.6329765-3.2543564c-2.3409233-1.3524246-4.6818504-2.7048531-7.0227737-4.0572815
		c-1.9541588-1.1289825-3.9083214-2.2579651-5.862484-3.3869476c-0.7256088-0.4192123-1.4512291-0.8384247-2.1768341-1.2576294
		C31.1571579,37.3161964,30.8667679,35.6225929,31.8127232,34.5159836z"/>
	<g>
		<path d="M67.4763107,47.0555496v1.8699951c0,0.1400146,0.0899658,0.2799683,0.2199707,0.3399658l6.1600342,2.7000122
			l0.5299683,0.2399902c0.0500488,0.0200195,0.1000366,0.0300293,0.1500244,0.0300293
			c0.1500244,0,0.2799683-0.0900269,0.3499756-0.2300415c0.0800171-0.1899414-0.0099487-0.4099731-0.1999512-0.4899902
			l-1.2800293-0.5599976l-5.1799927-2.2799683v-1.0400391l4.7600098,2.0900269l0.6400146,0.2799683
			c0.1899414,0.0800171,0.4099731,0,0.4899902-0.1899414c0.0899658-0.1900024,0-0.4100342-0.1900024-0.5l-0.1400146-0.0600586
			l-5.039978-2.2099609h-0.0100098l-0.7399902-0.3300171c-0.0800171-0.039978-0.1700439-0.039978-0.25-0.0200195
			l-0.0599976,0.0300293C67.5563278,46.7855301,67.4763107,46.915535,67.4763107,47.0555496z"/>
	</g>
	<g>
		<path d="M67.4763107,47.0555496c0,0.0599976,0.0100098,0.1099854,0.039978,0.1699829
			c0.0800171,0.1799927,0.3099976,0.2600098,0.5,0.1699829l0.7200317-0.3499756h0.0100098l0.2199707-0.1099854l5.0599976,2.2199707
			l0.6600342,0.289978c0.0499878,0.0200195,0.0999756,0.0300293,0.1499634,0.0300293
			c0.1500244,0,0.2800293-0.0800171,0.3500366-0.2200317c0.0799561-0.1899414-0.0100098-0.4099731-0.2000122-0.4899902
			l-0.0400391-0.0199585l-5.8399658-2.5700073c-0.1000366-0.0400391-0.210022-0.0400391-0.3099976,0.0100098l-1.0499878,0.5099487
			l-0.0599976,0.0300293C67.5563278,46.7855301,67.4763107,46.915535,67.4763107,47.0555496z"/>
	</g>
	<g>
		<polygon class="st1" points="68.2263107,47.6355057 68.2263107,48.6755447 73.4063034,50.955513 72.9863205,49.7255325 		"/>
		<polygon class="st1" points="68.7463303,47.0455399 73.7863083,49.2555008 74.0262985,49.1555252 68.966301,46.9355545 		"/>
		<path d="M72.9562912,49.6255569l0.0300293,0.0999756l0.4199829,1.2299805l0.3099976,0.9200439l0.1400146,0.0899658l0.7000122,0.5
			l0.8099976-0.210022v3.3000488c0,0.2099609,0.0700073,0.3999634,0.1900024,0.5700073
			c0.0700073,0.1199951,0.1799927,0.2199707,0.3099976,0.289978l2.6099854,1.5100098l1.0299683,0.5999756
			c0.1100464,0.0599976,0.2400513,0.1000366,0.3700562,0.1099854c-0.2800293,0.4800415-0.4500122,1.0800171-0.4500122,1.8300171
			c-0.0100098,2.6000366,1.8099976,5.75,4.0700073,7.0499878c1.1099854,0.6400146,2.1099854,0.710022,2.8499756,0.3200073
			c0,0,0,0,0,0.0100098c0.0200195-0.0100098,0.0300293-0.0200195,0.039978-0.0200195
			c0.0100098-0.0099487,0.0200195-0.0099487,0.0200195-0.0199585c0.7000122-0.4000244,1.4099731-0.8099976,2.1099854-1.210022
			c0.4200439-0.2399902,0.8800049-0.4400024,1.1600342-0.8599854c0.2199707-0.3300171,0.3299561-0.7399902,0.3499756-1.1400146
			l4.9000244,2.8300171c0.0100098,0,0.0100098,0,0.0100098,0.0100098l6.7599487,3.8999634
			c0.0300293,0.0200195,0.0700073,0.0599976,0.1100464,0.0800171l6.7399902,3.9000244
			c0.2600098,0.1399536,0.5599976,0.1699829,0.8300171,0.0699463c0.1699829-0.0499878,0.2999878-0.1599731,0.4099731-0.289978
			l0.8200073-0.4699707l0.539978,0.3099976l-0.4899902,0.2799683c-0.710022,0.4400024-1.1400146,1.3300171-1.1500244,2.6000366
			c-0.0099487,2.5999756,1.8099976,5.75,4.0700073,7.0499878c1.0599976,0.6199951,2.0300293,0.7099609,2.7600098,0.3800049
			c0.0700073-0.0400391,0.1300049-0.0700073,0.2000122-0.1100464l3.2600098-1.8800049v1.4300537
			c-0.0100098,0.0599976-0.0200195,0.1199951-0.0200195,0.1699829c0,0.2700195,0.1099854,0.5200195,0.3099976,0.7199707
			c0.0599976,0.0500488,0.1099854,0.1100464,0.1799927,0.1600342l3.7399902,2.1499634
			c0.7400513,0.4300537,1.5800171,0.6400146,2.4100342,0.6400146s1.6699753-0.2099609,2.4099655-0.6400146l12.6300049-7.289978
			l0.2700195-0.1599731c0.539978-0.3099976,0.9099731-0.8000488,1.0700073-1.3699951c0-0.0100098,0-0.0200195,0.0100098-0.0300293
			v-0.0100098c0.039978-0.1099854,0.0700073-0.2299805,0.0700073-0.3599854v-2.9000244
			c0-0.0299683-0.0100098-0.0599976-0.0100098-0.0899658c0.0100098-0.1199951,0.039978-0.2300415,0.039978-0.3500366
			c0-0.8299561-0.4299927-1.5700073-1.1500244-1.9899902l-1.7299805-0.9899902V70.665535
			c0-0.539978-0.0999756-1.0599976-0.3099976-1.5599976c-0.2700195-0.7200317-0.7700195-1.3699951-1.4299927-1.8400269
			l-8.4199829-6.1300049l-4.8400192-9.9499512c-0.0800171-0.1800537-0.2199707-0.3300171-0.3999634-0.4300537l-7.9900513-4.5999756
			c-0.7799683-0.4699707-1.7599487-0.460022-2.5599976,0.0100098l-0.0700073,0.039978
			c0-0.0199585,0.0100098-0.0299683,0.0100098-0.0499878v-1.6199951c0-0.0599976-0.0199585-0.1199951-0.0499878-0.1699829
			c0-0.0200195-0.0100098-0.0300293-0.0200195-0.0400391c-0.0299683-0.0299683-0.0499878-0.0599976-0.0899658-0.0899658
			l-0.0300293-0.0300293l-2.0599976-1.1900024c-0.1199951-0.0700073-0.2600098-0.0700073-0.3800049,0l-4.1199951,2.3800049
			c-0.0100098,0-0.0100098,0-0.0100098,0l-0.7799683,0.4500122c-0.0599976-0.0700073-0.1400146-0.1400146-0.2299805-0.2000122
			l-3.460022-2c-0.3099976-0.1699829-0.6900024-0.1699829-1,0l-2.8200073,1.6199951
			c-0.0200195,0.0200195-0.039978,0.0400391-0.0599976,0.0500488c-0.0299683,0.0199585-0.0499878,0.039978-0.0700073,0.0599976
			c-0.1900024,0.1499634-0.3099976,0.3599854-0.3499756,0.5899658c0,0.0300293-0.0100098,0.0599976-0.0100098,0.0900269
			c0,0.0299683-0.0100098,0.0499878-0.0100098,0.0799561c0,0.0900269,0.0100098,0.1700439,0.0300293,0.25l-6.4900513-5.9799805
			c0.1800537-0.1799927,0.2700195-0.4400024,0.2000122-0.7000122c-0.0899658-0.4099731-0.5-0.6499634-0.8999634-0.5499878
			l-0.5300293,0.1199951l-5.8599854-5.3900146c-0.1199951-0.1099854-0.2999878-0.1300049-0.4400024-0.0499878l-0.4000244,0.2300415
			c-0.0100098-0.0100098,0-0.0300293-0.0199585-0.0400391l-0.6600342-0.5899658
			c0.0499878-0.0599976,0.0800171-0.1199951,0.0900269-0.1900024c0.0100098-0.1199951-0.0400391-0.2400513-0.1300049-0.3200073
			l-2.2399902-2.0100117c-0.3000488-0.2700195-0.7399902-0.3099976-1.0900269-0.1099854l-1.0299683,0.5999756
			c-0.2200317,0.1300049-0.3500366,0.3300171-0.4100342,0.5700073c-0.0200195,0.0299702-0.0299683,0.0700092-0.039978,0.119997
			c0,0-0.0100098,0.0100098-0.0100098,0.0200195v2.1900024c0,0.0899658,0.0299683,0.1799927,0.0900269,0.2399902
			l1.2599487,1.4899902c0.2600098,0.3099976,0.6300049,0.4699707,1,0.4699707h0.0100098
			c0.25-0.039978,0.5800171-0.1999512,0.5800171-0.1999512l0.1699829,0.1399536l0.2399902,0.210022
			c-0.0499878,0.1400146-0.0099487,0.2999878,0.1000366,0.4000244l2.3800049,2.1999512l4.1699829,3.8300171l1.4699707,1.3599854
			l-0.8799438-0.5099487c-0.2900391-0.1700439-0.6500244-0.1700439-0.9400024-0.0100098l-0.8700562,0.5
			c-0.1599731-0.0599976-0.3199463-0.0900269-0.4599609-0.0900269c-0.210022,0-0.4000244,0.0599976-0.5599976,0.1600342
			l-0.9100342,0.5199585l-0.5499878-0.2699585c-0.0899658-0.0500488-0.2000122-0.0599976-0.2999878-0.0200195l-3.6799927,1.4000244
			c0,0.0099487,0,0.0099487-0.0100098,0.0099487c0,0,0,0-0.0100098,0l-5.8900146,2.6100464l-0.9199829,0.4099731
			l-0.2399902,0.0999756L72.9562912,49.6255569z"/>
		<path class="st2" d="M85.413208,63.3224945c0.0100098,0.0100098,0.0100098,0.0100098,0.0100098,0.0200195
			c0-0.0100098,0-0.0100098,0-0.0200195c-0.0100098-0.0200195-0.0100098-0.0299683-0.0100098-0.0499878
			c0-0.0100098-0.0100098-0.0200195-0.0100098-0.0300293C85.4031982,63.2725067,85.4031982,63.2925262,85.413208,63.3224945z"/>
		<path class="st2" d="M85.3132324,62.9225311c0.0100098,0.0099487,0.0199585,0.0299683,0.0199585,0.039978
			c0-0.0100098,0-0.0300293-0.0099487-0.039978c-0.0200195-0.0599976-0.0400391-0.1200562-0.0700073-0.1800537
			C85.2731934,62.802475,85.2932129,62.8625336,85.3132324,62.9225311z"/>
		<path class="st2" d="M73.9031982,57.4725189l4.1500244,2.3900146l-2.960022,1.7099609
			c-0.4400024,0.2600098-0.4400024,0.8800049,0,1.1400146l8.3800049,4.8399658l30.0700073,17.3500366v0.0100098l7.1500244,4.1199951
			c2.2299805,1.289978,4.9899902,1.289978,7.2199707,0l12.8800049-7.4400024c0.4000244-0.2200317,0.6199951-0.6000366,0.6600342-1
			l-12.6300049,7.289978c-0.7400513,0.4299927-1.5800171,0.6400146-2.4100342,0.6400146s-1.6699829-0.210022-2.4099731-0.6400146
			l-3.7399902-2.1499634c-0.0700073-0.0500488-0.1200562-0.1100464-0.1800537-0.1600342
			c-0.1999512-0.2000122-0.3099976-0.4500122-0.3099976-0.7199707c0-0.0500488,0.0100098-0.1100464,0.0200195-0.1700439v-1.4299927
			l-3.2600098,1.8800049c-0.0700073,0.0400391-0.1300049,0.0700073-0.2000122,0.1099854
			c-0.7299805,0.3300171-1.6999512,0.2400513-2.7599487-0.3799438c-2.2600098-1.3000488-4.0800171-4.4500122-4.0700073-7.0500488
			c0.0100098-1.2699585,0.4400024-2.1599731,1.1499634-2.5999756l0.4899902-0.2800293l-0.539978-0.3099976l-0.8200073,0.4700317
			c-0.1099854,0.1300049-0.2399902,0.2399902-0.4099731,0.289978c-0.2700195,0.1000366-0.5700073,0.0700073-0.8300171-0.0700073
			l-6.7399902-3.8999634c-0.039978-0.0200195-0.0800171-0.0599976-0.1099854-0.0800171l-6.7600098-3.9000244
			c0-0.0099487,0-0.0099487-0.0100098-0.0099487l-4.9000244-2.8300171
			c-0.0199585,0.3999634-0.1300049,0.8099976-0.3499756,1.1400146c-0.2800293,0.4199829-0.7399902,0.6199951-1.1599731,0.8599854
			c-0.7000122,0.3999634-1.4100342,0.8099976-2.1100464,1.2099609c0,0.0100098-0.0100098,0.0100098-0.0199585,0.0200195
			c-0.0100098,0-0.0200195,0.0100098-0.0400391,0.0200195c0-0.0100098,0-0.0100098,0-0.0100098
			c-0.7399902,0.3900146-1.7399902,0.3200073-2.8499756-0.3200073c-2.2600098-1.2999878-4.0800171-4.4500122-4.0700073-7.0499878
			c0-0.75,0.1699829-1.3499756,0.4500122-1.8300171c-0.1300049-0.0100098-0.2600098-0.0499878-0.3699951-0.1099854
			l-1.0300293-0.5999756l-2.6099854-1.5100098c-0.1300049-0.0700073-0.2399902-0.1700439-0.3099976-0.2900391
			c-0.0700073-0.0199585-0.1500244-0.0099487-0.210022,0.0300293l-1.4400024,0.8300171
			C73.7131958,57.092514,73.7131958,57.3625336,73.9031982,57.4725189z"/>
		<path class="st3" d="M79.4841156,56.1931496l0.6500244,0.3800049c0.1499634-0.1999512,0.2699585-0.2799683,0.4599609-0.3899536
			c0.2800293-0.1600342,0.5700073-0.2400513,0.8699951-0.2400513c0.2900391,0,0.5800171,0.0800171,0.8500366,0.2400513
			L86.13414,58.383152c1.0799561,0.6300049,1.8699951,1.7000122,2.1599731,2.9100342l0.8500366,0.4799805
			c-0.1900024-1.6799927-1.1600342-3.1799927-2.6300049-4.039978l-3.8200073-2.2000122
			c-0.7700195-0.4500122-1.6900024-0.4500122-2.460022,0C79.9341278,55.7031593,79.6841278,55.9332008,79.4841156,56.1931496z"/>
		<path class="st4" d="M77.3741302,53.2331886v1.7399902l2.1099854,1.2199707
			c0.2000122-0.2599487,0.4500122-0.4899902,0.75-0.6599731c0.7700195-0.4500122,1.6900024-0.4500122,2.460022,0
			l3.8200073,2.2000122c1.4699707,0.8599854,2.4400024,2.3599854,2.6300049,4.039978l5.289978,3.0499916V61.843174
			l-11.8499756-6.8399658L77.3741302,53.2331886z"/>
		<path class="st4" d="M77.3741302,53.2331886v1.7399902l2.1099854,1.2199707
			c0.2000122-0.2599487,0.4500122-0.4899902,0.75-0.6599731c0.7700195-0.4500122,1.6900024-0.4500122,2.460022,0
			l3.8200073,2.2000122c1.4699707,0.8599854,2.4400024,2.3599854,2.6300049,4.039978l5.289978,3.0499916V61.843174
			l-11.8499756-6.8399658L77.3741302,53.2331886z"/>
		<path class="st4" d="M96.4293289,60.5320969v0.7199707c0,0.0100098,0.0099487,0.0100098,0.0099487,0.0200195v4.710022
			l4.8699951,2.8099976v-5.4500122L96.4293289,60.5320969z"/>
		<path class="st4" d="M103.3092728,54.69207v15.2800293l5.3300171,3.0700073
			c0.3900146-0.5400391,0.9500122-0.960022,1.6000366-1.1900024c0.9199829-0.3300171,1.9400024-0.2300415,2.789978,0.2600098
			l5.6900024,3.289978c1.25,0.7199707,2.1799927,1.5200195,2.6400146,3l4.5999756,2.6500244l0.0100098-0.0100098v-2.5200195
			c0-0.5-0.1199951-0.9899902-0.3499756-1.4199829c-0.2200317-0.460022-0.5500488-0.8500366-0.9700317-1.1600342
			l-8.6400146-6.289978l-3.6399536-7.5l-0.8100586-1.6699829l-0.4899902-1L103.3092728,54.69207z M104.799324,58.0220871
			l4.6599731,2.6799927l3.5700073,8.0300293l-8.2299805-4.75V58.0220871z"/>
		<path class="st5" d="M103.3092728,54.6520844v0.039978l7.7600098,4.7900391l0.4899902,1l0.8100586,1.6699829l3.6399536,7.5
			l8.6400146,6.289978c0.4199829,0.3099976,0.75,0.7000122,0.9700317,1.1600342l12.2999954-7.1000366
			c-0.0100098-0.0499878-0.0400391-0.1099854-0.0599976-0.1599731c-0.1400146-0.3800049-0.4000244-0.7200317-0.7399902-0.960022
			l-8.6300049-6.2799683c-0.1300049-0.1000366-0.2400513-0.2200317-0.3099976-0.3699951l-4.3000565-8.8500366l-0.5099487-1.0499878
			l-7.7400513-4.460022c-0.1599731-0.0899658-0.3599854-0.0899658-0.539978,0.0200195L103.3092728,54.6520844z
			 M112.0592728,60.2421112l11.4400024-6.6700439l4.3400269,8.9400024l-11.460022,6.6099854L112.0592728,60.2421112z"/>
		<polygon class="st1" points="81.9055252,46.5302582 82.1155472,46.6402435 83.0955276,46.0702362 		"/>
		<path class="st3" d="M78.705513,51.5702362l4.6099854,1.5700073c0.0600586,0.0200195,0.1200562,0.0499878,0.1700439,0.0800171
			l10.9400024,6.3200073v-0.4800415l-3.4400024-2c-0.3800049-0.2099609-0.5700073-0.6499634-0.4800415-1.0799561
			l0.3500366-1.5800171c-0.0300293-0.0100098-0.0599976,0-0.0800171-0.0200195l-0.1599731-0.0799561l-0.75,0.4299927
			l-0.210022,0.1199951c-0.3699951,0.1699829-0.8599854,0.1199951-1.3900146-0.1900024
			c-0.8699951-0.5-1.6099854-1.5200195-1.9199829-2.5599976l-1.039978-0.5400391l-0.5300293,0.3100586l-0.210022,0.1199951
			c-0.3699951,0.1699829-0.8599854,0.1199951-1.3899536-0.1900024c-0.6799927-0.3800049-1.2600098-1.0900269-1.6400146-1.8600464
			L78.705513,51.5702362z"/>
		<path class="st1" d="M83.5055008,45.9202728c0.3300171-0.0499878,0.710022,0.0299683,1.1200562,0.2699585
			c0.9099731,0.5300293,1.6799927,1.6500244,1.9599609,2.75l0.8400269,0.4300537l0.8899536-0.5100098
			c0.3700562-0.1700439,0.8600464-0.1300049,1.4000244,0.1799927c0.7800293,0.4599609,1.460022,1.3499756,1.8099976,2.2999878
			l0.3599854-1.6099854v-0.0100098c0.0300293-0.1400146,0.1000366-0.2600098,0.1799927-0.3699951
			c0.0100098-0.0200195,0.0300293-0.0400391,0.0400391-0.0499878c0.0299683-0.0400391,0.0599976-0.0700073,0.0999756-0.1000366
			l-7.5599976-3.7199707L83.5055008,45.9202728z"/>
		<path class="st3" d="M89.1332397,46.1125336c0.1599731,0.2599487,0.2799683,0.539978,0.3599854,0.8199463l0.5299683-0.2999878
			L89.1332397,46.1125336z"/>
		<path class="st1" d="M74.1155472,49.8602753l0.4400024,1.2299805l0.1999512-0.0599976l6.210022-2.4099731
			c0.0499878-0.0200195,0.1099854-0.0200195,0.1600342-0.0200195c-0.0100098-0.1300049-0.0300293-0.2600098-0.0300293-0.3900146
			c0-0.4699707,0.1199951-0.8399658,0.3200073-1.0899658l-0.4400024-0.2300415L74.1155472,49.8602753z"/>
		<polygon class="st1" points="79.2855301,33.2902679 79.2855301,33.5002289 80.4955521,34.6102753 80.5455399,34.4202728 		"/>
		<path class="st1" d="M79.2855301,32.1902313c-0.0100098,0.0300293,0,0.0900269,0.0599976,0.1500244l1.4899902,1.3300171
			c0.0100098-0.0100098,0.0300293-0.0200195,0.0499878-0.0300293l1.3000488-0.7600098l-1.5700073-1.4099731
			c-0.0599976-0.0499878-0.1400146-0.0599976-0.210022-0.0200195l-1.0299683,0.6000366
			C79.3055496,32.0902557,79.2855301,32.1502533,79.2855301,32.1902313z"/>
		<path class="st1" d="M81.165535,35.0002289l0.9799805,0.8800049l0.1199951-0.3299561l-0.9599609-0.8600464l-0.0500488,0.0200195
			c0,0-0.0099487,0-0.0099487,0.0100098L81.165535,35.0002289z"/>
		<polygon class="st1" points="81.9855423,34.2902679 82.6555252,34.8802338 82.9455032,34.7102509 82.2355423,34.1402435 		"/>
		<polygon class="st1" points="84.2855301,34.8102264 88.1855545,37.9002533 84.6155472,34.620285 		"/>
		<polygon class="st1" points="83.3955154,35.3202362 88.9355545,40.4202728 89.5155106,39.9202728 83.5855179,35.2102509 		"/>
		<polygon class="st1" points="82.665535,36.6602631 88.165535,41.7202606 88.4755325,41.0202484 82.9355545,35.9102631 		"/>
		<path class="st1" d="M89.3154984,42.7802582l5.3800049,4.9500122l0.5200195-0.2999878
			c0.0499878-0.0300293,0.0999756-0.0400391,0.1500244-0.0599976l-5.7200317-5.2800293l-0.2600098,0.5800171
			C89.3655472,42.7102509,89.3355179,42.7402802,89.3154984,42.7802582z"/>
		<polygon class="st1" points="94.3855057,43.620285 99.6255569,48.8802338 99.9255447,48.7102509 		"/>
		<polygon class="st1" points="90.0455399,41.4402313 97.0955276,47.9402313 98.3655472,48.6702728 90.6455154,40.9202728 		"/>
		<polygon class="st6" points="99.5155106,47.3202362 100.6055374,48.3202362 100.9255447,48.1302338 		"/>
		<polygon class="st1" points="101.4655228,46.1302338 102.9255447,46.9702606 103.7355423,46.5102386 102.2855301,45.6602631 		"/>
		<polygon class="st1" points="94.8555374,49.9502411 96.3154984,50.7902679 97.0408783,50.3785858 95.5555496,49.5502777 		"/>
		<polygon class="st1" points="92.6155472,55.7002411 95.3154984,57.2602386 95.3154984,52.5202484 93.5355301,51.5002289 		"/>
		<path class="st1" d="M97.3154984,52.5302582v2.9799805l1.3800049-2.7199707l-0.1699829-0.0900269
			c-0.1099854-0.0700073-0.1799927-0.1900024-0.1799927-0.3299561v-0.2600098l-0.1199951-0.1100464L97.3154984,52.5302582z"/>
		<path class="st3" d="M97.3755569,58.7702484l3.9299927,2.2600098v-2.4000244l-1.5400391,0.8900146
			c-0.0599976,0.0300293-0.1199951,0.0499878-0.1900024,0.0499878c-0.0100098,0-0.0100098-0.0100098-0.0199585-0.0100098
			c-0.0100098,0-0.0200195,0.0100098-0.0300293,0.0100098c-0.0700073,0-0.1300049-0.0199585-0.1900024-0.0499878
			l-1.6400146-0.9400024L97.3755569,58.7702484z"/>
		<polygon class="st3" points="100.1455154,58.4302826 101.3055496,57.7602386 101.3055496,54.620285 		"/>
		<path class="st3" d="M97.3154984,57.1702728v0.3200073l1.9800415,1.1499634l1.4299927-4.7099609
			c-0.039978,0-0.0800171-0.0100098-0.1099854-0.0300293c0,0-0.0100098,0-0.0200195,0l-1.25-0.7299805L97.3154984,57.1702728z"/>
		<polygon class="st7" points="109.8855057,47.1302338 109.8855057,47.8802338 113.2655106,45.9302826 113.2655106,45.1802826 		"/>
		<polygon class="st7" points="105.2155228,49.830246 105.2155228,50.580246 109.1355057,48.3202362 109.1355057,47.5602264 		"/>
		<polygon class="st7" points="99.0955276,51.4102631 99.0955276,52.1602631 100.415535,52.9202728 100.415535,52.1702728 		"/>
		<polygon class="st7" points="101.165535,52.1702728 101.165535,52.9202728 104.4655228,51.0202484 104.4655228,50.2602386 		"/>
		<polygon class="st7" points="99.4655228,50.7602386 100.7855301,51.5202484 104.0855179,49.6102753 102.7755203,48.8502655 		"/>
		<polygon class="st7" points="103.5255203,48.4202728 104.8355179,49.1802826 108.7655106,46.9102631 107.4455032,46.1502533 		"/>
		<polygon class="st7" points="108.1955032,45.7202606 108.3955154,45.830246 109.5155106,46.4802704 112.8955154,44.5302582 
			111.5755081,43.7702484 		"/>
		<path class="st8" d="M121.7955399,83.4802704v0.8200073l3.2099609,1.8499756c0.8700562,0.5,1.9500122,0.5,2.8200073,0
			l12.900032-7.4500122c0.1400146-0.0799561,0.1500244-0.2000122,0.1500244-0.2600098v-0.6199951l-12.0200195,6.9500122
			c-0.75,0.4299927-1.5800247,0.6400146-2.4100418,0.6400146c-0.8399658,0-1.6699829-0.210022-2.4099731-0.6400146
			L121.7955399,83.4802704z"/>
		<path class="st8" d="M122.8055496,81.7402802l2.2299805,1.2999878c0.8699951,0.5,1.9500122,0.5,2.8200073-0.0100098
			l12.899971-7.4500122c0.1300049-0.0700073,0.1500244-0.1900024,0.1500244-0.2600098
			c0-0.0599976-0.0200195-0.1799927-0.1500244-0.2600098l-0.7699585-0.4399414
			c-0.0599976,0.25-0.2200317,0.4599609-0.4400024,0.5999756l-13.070015,7.8499756c0,0,0,0-0.0100098,0.0100098
			c-0.0499878,0.0300293-0.0999756,0.0400391-0.1599731,0.0599976c-0.0300293,0.0100098-0.0500488,0.0300293-0.0800171,0.0400391
			c-0.0700073,0.0199585-0.1300049,0.0199585-0.2000122,0.0199585c-0.0200195,0.0100098-0.039978,0.0100098-0.0599976,0.0100098
			c-0.039978,0-0.0700073-0.0100098-0.1099854-0.0100098c-0.0499878-0.0100098-0.1000366-0.0100098-0.1400146-0.0199585
			c-0.0299683-0.0100098-0.0499878-0.0200195-0.0700073-0.0300293c-0.0599976-0.0200195-0.1199951-0.039978-0.1699829-0.0700073
			c-0.0100098,0-0.0100098,0-0.0100098,0l-2.4899902-1.4400024L122.8055496,81.7402802z"/>
		<path class="st4" d="M125.6193314,77.1021042c0.2299805,0.4299927,0.3499756,0.9199829,0.3499756,1.4199829v2.5200195
			l12.0600052-7.25v-3.1300049c0-0.2200317-0.0300293-0.4400024-0.1099854-0.6600342L125.6193314,77.1021042z"/>
		<polygon class="st9" points="104.799324,58.0220871 104.799324,63.9821091 113.0293045,68.7321091 109.4592972,60.7020798 		"/>
		<polygon class="st10" points="112.0592728,60.2421188 116.3792801,69.1220627 127.8393021,62.5120773 123.4992752,53.5720749 		
			"/>
		<polygon class="st11" points="115.5708008,83.5920868 115.5836945,79.0434952 111.6252441,76.7580795 111.6123428,81.3066711 		
			"/>
		<path class="st12" d="M113.6044693,77.9007874c1.091774,0.6303329,1.9763336,2.1624756,1.9727783,3.4170151
			c-0.0035553,1.254509-0.893898,1.7619171-1.985672,1.1315765c-1.0917816-0.6303406-1.9763412-2.1624832-1.9727859-3.4169922
			C111.6223526,77.7778473,112.5126877,77.2704468,113.6044693,77.9007874L113.6044693,77.9007874z"/>
		<path class="st8" d="M112.8311539,77.9255295c0.4244003,0.2450256,0.7682495,0.8406067,0.766861,1.32827
			c-0.0013809,0.4876556-0.3474731,0.6848984-0.7718735,0.4398727s-0.7682419-0.8406067-0.766861-1.3282623
			C112.0606613,77.8777466,112.4067535,77.6805038,112.8311539,77.9255295L112.8311539,77.9255295z"/>
		<polygon class="st11" points="85.4889984,66.2405319 85.5018921,61.6919327 81.5434341,59.406517 81.5305405,63.9551125 		"/>
		<path class="st12" d="M83.5226669,60.5492249c1.091774,0.6303406,1.9763336,2.1624832,1.9727783,3.4170189
			c-0.0035553,1.2545128-0.893898,1.7619133-1.985672,1.1315804c-1.0917816-0.6303406-1.9763412-2.162487-1.9727859-3.416996
			C81.5405426,60.4262924,82.4308853,59.9188881,83.5226669,60.5492249L83.5226669,60.5492249z"/>
		<path class="st12" d="M83.1804886,48.257328c0.5560379,0.3210297,1.006546,1.1013489,1.0047302,1.7402802
			c-0.0018082,0.6389198-0.4552612,0.8973389-1.0112991,0.5763092s-1.0065384-1.1013451-1.0047302-1.7402649
			C82.1709976,48.1947212,82.6244507,47.9362984,83.1804886,48.257328L83.1804886,48.257328z"/>
		<path class="st12" d="M88.2723007,51.1159592c0.5560379,0.3210297,1.006546,1.1013489,1.0047302,1.7402802
			c-0.0018082,0.6389198-0.4552612,0.8973389-1.0112991,0.5763092s-1.006546-1.1013451-1.0047302-1.7402649
			C87.2628098,51.0533524,87.7162628,50.7949295,88.2723007,51.1159592L88.2723007,51.1159592z"/>
		<path class="st5" d="M136.4358978,71.3810272c-0.7095642,0.4096603-1.2844391,1.4054108-1.282135,2.2207413
			c0.0023193,0.8153152,0.5809631,1.1450806,1.2905121,0.7354202s1.2844391-1.4054108,1.2821198-2.220726
			C137.7240906,71.3011246,137.1454468,70.9713593,136.4358978,71.3810272L136.4358978,71.3810272z"/>
		<path class="st5" d="M127.7325974,76.6475067c-0.7095566,0.4096603-1.2844391,1.4054108-1.2821274,2.2207489
			c0.0023117,0.8153152,0.5809555,1.1450806,1.2905045,0.7354202c0.7095566-0.4096603,1.2844467-1.4054184,1.2821274-2.2207336
			C129.0207977,76.5676117,128.4421539,76.2378464,127.7325974,76.6475067L127.7325974,76.6475067z"/>
		<path class="st8" d="M82.7493515,60.5618935c0.4244003,0.2450256,0.7682419,0.8406029,0.766861,1.32827
			c-0.0013809,0.4876556-0.3474808,0.6848946-0.7718735,0.4398689c-0.4244003-0.2450256-0.7682495-0.8406029-0.766861-1.3282585
			C81.9788589,60.5141068,82.3249512,60.3168678,82.7493515,60.5618935L82.7493515,60.5618935z"/>
	</g>
	<g>
		<path d="M73.016571,48.9557915c7.0854492-0.3592644,7.5610352-9.7784195,7.7172852-12.8743172l-0.4990234-0.0260925
			c-0.2617188,5.1732101-1.2963867,12.0855408-7.2426758,12.3866005L73.016571,48.9557915z"/>
	</g>
	<g>
		<path d="M30.0012207,30.2339191c0.0009556,0.0199966,0.4534817,1.9495983,0.5359707,2.8376904
			c0.0552502,0.7386932,0.1934395,1.3254852,0.4477558,1.8296776c0.0781174,0.1681976,0.262413,0.2540245,0.4405079,0.2099991
			l0.5143242-0.1316948c-0.0038166-0.0799255-0.0171642-0.1496277-0.020504-0.2195549l-0.0047684-0.0998611
			c-0.0386295-0.8090744,0.1927776-1.4143486,0.6275501-1.7442322c0.058094-0.0412979,0.116188-0.0825958,0.1942368-0.1244087
			l0.6123924-0.3839111c0.2314873,0.0247612,0.4738731,0.0692291,0.7391434,0.173172
			c0.12286,0.0571976,0.2562103,0.1241684,0.3900414,0.2011337c1.6743813,0.8918419,3.1494293,3.0581703,3.4338112,5.0315742
			c0.0343285,0.2991905,0.0472069,0.5689011,0.0391083,0.8190727c-0.0089951,0.0202255,0.0119171,0.0397072,0.0128708,0.0597038
			c0.002861,0.0599289-0.0033302,0.1400833-0.0099411,0.2102356c-0.0090523,0.230175-0.0257301,0.5105095-0.0437775,0.7609062
			c-0.0123901,0.1603088,0.0747833,0.3082771,0.2181435,0.3750191c0.1028442,0.0576553,2.5621338,1.2416763,4.0769997,1.7271309
			c1.4338913,0.4673424,5.1828194,2.0319672,5.4080467,2.1368217c1.5248871,0.9052505,3.4308205,2.0317993,5.2952805,3.1293221
			c0.1233406,0.0671997,0.2833214,0.0635567,0.3999863-0.0091019c0.126194-0.0828819,0.1790428-0.2340431,0.1524048-0.3734436
			l-0.0262184-0.1294022l-0.002861-0.0599289c-0.0109673-0.0197678-0.0119171-0.0397034-0.012394-0.0497017
			c-0.0490494-0.3988876-0.0362473-0.7591438,0.0094452-1.0601578l-0.0004768-0.0099983
			c0.0085793-0.0302238,0.0071487-0.0601578,0.0162048-0.0803795c0.040451-0.2009239,0.1118889-0.382534,0.194706-0.5343742
			c0.0828781-0.1519012,0.1871452-0.2742615,0.3128624-0.3671455c0.3862152-0.2987518,0.9757347-0.3221779,1.6391487-0.0572586
			c0.1228638,0.0571976,0.2457237,0.1143951,0.3690643,0.181591c1.5515823,0.8346405,2.9293861,2.8531647,3.1972046,4.6870003
			c0.0619164,0.4585304,0.0509605,0.8587837-0.0332794,1.1907005c-0.0085831,0.030159-0.0166855,0.0703201-0.0157318,0.0903168
			c-0.0023155,0.16008,0.1052933,0.3175964,0.267662,0.363884c0.8062935,0.3216629,3.3565025,1.3135605,3.8689232,1.3518829
			c0.0704269,0.0084076,0.2209358,0.0149918,0.4109459,0.0106659c1.1700478-0.0266266,4.1639977-0.2247581,5.0683632-0.3653259
			l0.0599976-0.0013657c0.0495148-0.0111389,0.0894928-0.0120468,0.1090393-0.0225029
			c0.7828674-0.1677704,3.3386765-1.3658867,4.3677292-2.0392952l0.3294907-0.227459
			c1.0481186-0.6938591,2.3581009-1.563591,2.9366379-2.4467087c0.652359-1.0147934,0.4445953-3.2699547,0.4126511-3.5192146
			c-0.0019073-0.0399323-0.0138321-0.0797005-0.0257492-0.1194038c0.110527-0.2025146,0.1718903-0.3838959,0.1737976-0.5539131
			c0.032814-0.5707245-0.1982193-1.6354179-0.2601318-1.8839951c-0.0900421-0.4179115-2.8494492-3.9049797-3.9553528-5.0497322
			c-1.1801453-1.2330894-3.0112381-2.2613678-4.6499176-2.6140099c-1.325325-0.2898293-2.0306244-0.5937691-2.0411148-0.6035423
			c0,0-0.0209732-0.0195389-0.0518951-0.0387955c0.0608826-0.4013863,0.1689529-1.0737934,0.1827011-1.6240654
			c0.0200043-0.6304283-0.2196045-1.4549484-0.6105957-1.6760197c-0.1543274-0.0865097-0.3143082-0.0828686-0.4695816,0.0206966
			c-0.4271469,0.279665-0.7861176,0.9378242-0.7451782,1.3768711c0.0405273,0.4290485,0.1772156,0.5659447,0.4663239,0.7493572
			c0.0723343,0.0483398,0.1004639,0.2176743,0.0990372,0.3976898c-1.2848892-0.9107132-3.366539-2.3632622-4.4832726-3.1077671
			c-1.6430511-1.0725975-5.7867241-2.9381561-6.3491402-3.1853542c-0.345295-0.3121319-2.3636169-2.1160793-4.12286-3.3160305
			c-2.1954575-1.529911-6.5485954-2.1208134-6.598587-2.1196747c-0.9158058-0.0991478-3.0392456,0.0891209-4.5126152,0.6826191
			c-1.4233208,0.5923576-6.1310043,3.6893864-6.3347778,3.8240204c-2.1499577,2.3588028-2.0279541,3.8658962-1.9840889,4.364872
			c-0.000948,0.1900139-0.2743073,0.5462532-0.5528545,0.7925701
			C30.0183773,29.9635849,29.9750004,30.1045189,30.0012207,30.2339191z M65.083168,31.3254738
			c-0.2371445-0.1446209-0.3205032-0.2127266-0.3467331-0.5520782c-0.0366516-0.349123,0.2866364-0.9165096,0.6456833-1.1546478
			c0.067627-0.0515251,0.1276245-0.0528908,0.1995392-0.0145512c0.267662,0.1539345,0.5015411,0.8585358,0.4796295,1.4490318
			c-0.0070801,0.4801159-0.098938,1.0722027-0.1598892,1.4735317c-0.1552124-0.1064491-0.3523788-0.251915-0.6005478-0.4163055
			C65.3289642,31.8598289,65.3203735,31.4700909,65.083168,31.3254738z"/>
		<g>
			<g>
				<path class="st13" d="M53.380291,46.0110207l0.0047722,0.0999222c0.0047684,0.099865,0.0194855,0.1994972,0.0342674,0.2991943
					c0.0004768,0.0099983,0.0014267,0.0299339,0.012394,0.0497017c0.2615547,1.7039795,1.5408058,3.5447655,2.9690437,4.3122101
					c0.112854,0.0574265,0.2252274,0.1048546,0.3381424,0.1622772c0.6019173,0.23629,1.122921,0.2444534,1.5238533,0.0453339
					c0.107666-0.052433,0.205265-0.104641,0.2819481-0.1763878l0.5637665-0.3528404
					c-0.0009537-0.0199966,0.0071487-0.0601578,0.0157318-0.0903168c0.08424-0.3319168,0.0951958-0.7321701,0.0332794-1.1907005
					c-0.2678185-1.8338356-1.6456223-3.8523598-3.1972046-4.6870003c-0.1233406-0.0671959-0.2462006-0.1243935-0.3690643-0.181591
					c-0.663414-0.2649193-1.2529335-0.2414932-1.6391487,0.0572586c-0.2509613,0.1957016-0.4266624,0.499733-0.5075684,0.9015198
					C53.3849869,45.4809761,53.3669395,45.7313728,53.380291,46.0110207z"/>
				<path class="st4" d="M56.3633156,49.6480064c-0.2304993-0.1242561-0.4553642-0.2960548-0.6674995-0.4950485l0.6544495-0.9454842
					l1.023819,1.6252632c-0.2302246,0.0545731-0.4983444,0.0374947-0.8025856-0.086525
					C56.5017128,49.7180901,56.4322739,49.6851807,56.3633156,49.6480064 M55.5871315,49.0493851
					c-0.106678-0.1087341-0.2080879-0.2246284-0.3041611-0.3463936l0.447113-0.7798576
					c0.0770569-0.1289978,0.1963539-0.1798401,0.2906227-0.1290169c0.0190048,0.0102463,0.0370026,0.0246277,0.053421,0.0433311
					c0.1002045,0.1139946,0.0974274,0.3261681,0.0012741,0.4767647L55.5871315,49.0493851 M57.4624596,49.8078995
					l-0.7765656-1.2508125c-0.1508865-0.2462807-0.2233086-0.4889946-0.1445694-0.5290184
					c0.0214424-0.0112495,0.0507507-0.0061073,0.0850716,0.012394c0.0916443,0.049408,0.2189751,0.1940613,0.3272514,0.3760643
					l0.7469368,1.2635803C57.6280899,49.7347488,57.5495186,49.7786064,57.4624596,49.8078995 M56.155365,47.8271484
					c-0.0151062-0.0081444-0.0301247-0.0196915-0.0441055-0.0346603c-0.0282593-0.0314789-0.0432243-0.0657845-0.0479279-0.0958099
					c-0.0100365-0.0241547-0.0113564-0.0536041,0.0002747-0.0685768c0.0155869-0.0224953,0.0459671-0.026413,0.0782433-0.0090141
					c0.0134087,0.0072365,0.0271492,0.0181427,0.040287,0.0329208l0.0081444,0.0068893l0.0036087,0.0056953
					c0.0447693,0.0503769,0.0612297,0.1179771,0.039341,0.1536636c-0.011631,0.0149689-0.02705,0.020401-0.0484848,0.016346
					l0.0013199,0.0044556C56.1759834,47.8366623,56.1656532,47.832695,56.155365,47.8271484 M56.4309082,47.9372406
					c-0.0041504-0.0022354-0.0083466-0.0048828-0.0125923-0.0079689c-0.0218391-0.0130234-0.0419579-0.0376129-0.0599632-0.0648117
					c-0.0314713-0.0531998-0.0329132-0.1102066-0.0060921-0.1357384l0.0051575-0.009716l0.0032616-0.0019836l0.0033836,0.0005722
					c0.0145988-0.0056076,0.0322838-0.0024567,0.0505638,0.0074005c0.0257988,0.0139046,0.0527916,0.0411568,0.0739937,0.075985
					c0.0168533,0.0265808,0.0268898,0.0507355,0.0268364,0.0744438c0.0047569,0.0313072-0.0053825,0.0545769-0.0238342,0.0671272
					C56.4731293,47.9493828,56.4527283,47.9490051,56.4309082,47.9372406 M55.1824226,48.5813141
					c-0.3930855-0.5330276-0.6798668-1.1649513-0.7686234-1.7713432c-0.0165215-0.118866-0.0192299-0.2290344-0.0207939-0.3385849
					l1.363842,1.0763245L55.1824226,48.5813141 M56.0245895,47.4813728
					c-0.0071602-0.0038605-0.0145111-0.0087852-0.0219307-0.0148277c-0.023159-0.0174828-0.0432777-0.0420761-0.0565224-0.0629578
					c-0.0182304-0.0323219-0.0265427-0.0680389-0.0198441-0.0931664c0.0021172-0.0275993,0.0203972-0.0439835,0.0403442-0.0482254
					c0.0157509,0.0006828,0.0322723,0.0033112,0.0492363,0.012455c0.0047607,0.0025673,0.0095596,0.0056458,0.0143852,0.0093422
					c0.0463142,0.0349655,0.0795097,0.1015892,0.0761909,0.1522827l0.0013199,0.0044556l0.0003433,0.0076866l0.0013199,0.0044632
					C56.1006546,47.4906998,56.0656242,47.5034904,56.0245895,47.4813728 M56.465786,47.6564102
					c-0.0319633-0.017231-0.0634575-0.0540771-0.0842056-0.096817l-0.003788-0.0095367
					c-0.0228767-0.0610619-0.0027084-0.1101685,0.0408516-0.1116791c0.011261-0.0002213,0.023056,0.0037613,0.0353203,0.0103722
					c0.0096512,0.0052032,0.0195923,0.0120316,0.0297928,0.0197334c0.0233307,0.0213203,0.0447693,0.0503731,0.0597343,0.0846786
					c0.0128441,0.036911,0.013195,0.0695915,0.0029335,0.0903015c-0.007103,0.0161591-0.0202255,0.022831-0.0403404,0.0232353
					C56.4930916,47.6675301,56.4794006,47.6637497,56.465786,47.6564102 M56.2149963,47.3749542
					c-0.0490837-0.0264587-0.0883255-0.0820732-0.0963097-0.1395073c-0.0047035-0.0300255,0.0021706-0.0513115,0.0138016-0.0662842
					c0.0151863-0.0105553,0.0351334-0.0147972,0.0602417-0.0037613c0.0038452,0.0014954,0.0077286,0.0033112,0.011631,0.0054131
					c0.0215111,0.0116005,0.0434761,0.0319786,0.0616226,0.0565643c0.0180016,0.0271988,0.0314178,0.0519257,0.0361786,0.0832329
					c0.0080872,0.0555878-0.0219955,0.083107-0.0685387,0.0680161l0.0013199,0.0044556l-0.0147896-0.0054703
					C56.2184258,47.3767624,56.2167053,47.3758736,56.2149963,47.3749542 M57.7722206,49.6312561l-0.9651947-1.6648827
					l1.1988487-0.0322456c0.0334854,0.1230125,0.0647392,0.2460747,0.0825272,0.3681183
					C58.1759529,48.9067421,58.0479774,49.3700562,57.7722206,49.6312561L57.7722206,49.6312561z M55.5900269,47.2520332
					c-0.0474014-0.0255547-0.0984459-0.0588493-0.1506996-0.0991592l-1.045311-0.8083954
					c0.0057716-0.1205978,0.0208321-0.2336845,0.0475235-0.3367538l1.0545845,0.7659187
					c0.2081909,0.1522102,0.3756943,0.3699608,0.3570862,0.4786377
					C55.8426743,47.3357315,55.7328758,47.3290367,55.5900269,47.2520332L55.5900269,47.2520332z M56.777916,47.7332726
					c-0.0800209-0.0431366-0.1434975-0.1042023-0.1692581-0.1737213c-0.0532074-0.1386414,0.0675964-0.2384605,0.2547302-0.2313004
					l0.9450073,0.0445938c0.0621529,0.1384621,0.1143265,0.2790451,0.1587105,0.4204292l-0.927063,0.006321
					C56.9499931,47.8004379,56.8560638,47.7754021,56.777916,47.7332726L56.777916,47.7332726z M55.848053,46.888382
					l-1.3683548-0.9775467c0.1742744-0.503334,0.6040993-0.7464561,1.1804733-0.6156845L55.848053,46.888382L55.848053,46.888382z
					 M56.0787506,45.4492531c0.0091705,0.0049438,0.0183258,0.0095634,0.0274658,0.0138702l0.1986618,1.2354279
					c0.0391846,0.2497864-0.0132866,0.4264259-0.1204185,0.3824234c-0.0043068-0.0017471-0.0086021-0.0037842-0.0129166-0.0061073
					c-0.1073914-0.0578918-0.2138481-0.2924423-0.2449646-0.530262l-0.1576233-1.2183075
					c0.0566902,0.0168152,0.1107979,0.0259895,0.1689148,0.0498199c0.0258331,0.0105972,0.0507698,0.0234833,0.0757408,0.0369415
					c0.0124817,0.0067291,0.024971,0.0136032,0.0375824,0.020401
					C56.0603905,45.4390411,56.0695763,45.4443054,56.0787506,45.4492531L56.0787506,45.4492531z M56.4986115,47.1516075
					L56.2195969,45.52174c0.6051178,0.3474388,1.1642609,0.99123,1.5175934,1.7102547L56.4986115,47.1516075L56.4986115,47.1516075z
					 M56.1472092,45.143074c-0.0864601-0.046608-0.1737137-0.0879822-0.2611465-0.1235123
					c-1.1827011-0.4801102-1.9746208,0.2688179-1.7707748,1.6694832c0.1889267,1.3030434,1.1626091,2.705986,2.2439423,3.2888947
					c0.0873833,0.0471039,0.1756477,0.088932,0.2640762,0.1248283c1.1769638,0.4770203,1.9677963-0.271244,1.763607-1.6795883
					C58.1992722,47.1271324,57.2247162,45.7239189,56.1472092,45.143074L56.1472092,45.143074z"/>
			</g>
		</g>
		<g>
			<g>
				<path class="st13" d="M31.9145069,34.6601753l0.0047684,0.0998611c0.0033398,0.0699272,0.0166874,0.1396294,0.020504,0.2195549
					l0.003336,0.0698662c0.2525024,1.724205,1.5427132,3.5847588,2.9813805,4.3619728
					c0.112915,0.0574265,0.2357788,0.114624,0.3481522,0.1620522c0.602459,0.2462845,1.123394,0.2543869,1.5239143,0.0453339
					c0.0980721-0.0422707,0.1951904-0.1044731,0.2818832-0.1764488l0.8752747-0.5398521
					c0.0066109-0.0701523,0.0128021-0.1503067,0.0099411-0.2102356c-0.0009537-0.0199966-0.0218658-0.0394783-0.0128708-0.0597038
					c0.0080986-0.2501717-0.0047798-0.5198822-0.0391083-0.8190727c-0.2843819-1.9734039-1.7594299-4.1397324-3.4338112-5.0315742
					c-0.133831-0.0769653-0.2671814-0.1439362-0.3900414-0.2011337c-0.2652702-0.1039429-0.5076561-0.1484108-0.7391434-0.173172
					l-0.6123924,0.3839111c-0.0780487,0.0418129-0.1361427,0.0831108-0.1942368,0.1244087
					C32.1072845,33.2458267,31.8758774,33.8511009,31.9145069,34.6601753z"/>
				<path class="st4" d="M34.8902588,38.2914391c-0.2304993-0.1242523-0.4553642-0.2960548-0.6674995-0.4950485l0.6544495-0.9454803
					l1.023819,1.6252594c-0.2302246,0.0545769-0.4983444,0.0374947-0.8025856-0.0865211
					C35.028656,38.3615227,34.9592171,38.3286133,34.8902588,38.2914391 M34.1140747,37.6928177
					c-0.106678-0.1087341-0.2080879-0.2246284-0.3041611-0.3463936l0.4471092-0.7798538
					c0.0770607-0.1290016,0.1963577-0.1798439,0.2906265-0.1290207c0.0190048,0.0102463,0.0370026,0.0246277,0.053421,0.0433311
					c0.1002045,0.1139946,0.0974274,0.3261681,0.0012741,0.4767647L34.1140747,37.6928177 M35.9894028,38.4513359
					l-0.7765656-1.2508125c-0.1508865-0.2462807-0.2233124-0.4889946-0.1445694-0.5290222
					c0.0214424-0.0112495,0.0507507-0.0061073,0.0850716,0.012394c0.0916443,0.049408,0.2189713,0.1940613,0.3272514,0.3760643
					l0.7469368,1.2635841C36.1550331,38.3781815,36.0764618,38.422039,35.9894028,38.4513359 M34.6823044,36.4705811
					c-0.0151024-0.0081406-0.0301208-0.0196877-0.0441017-0.0346603c-0.0282631-0.0314789-0.0432243-0.0657845-0.0479279-0.0958061
					c-0.0100365-0.0241547-0.0113602-0.0536079,0.0002747-0.0685768c0.0155869-0.0224991,0.0459671-0.026413,0.0782394-0.0090141
					c0.0134125,0.0072327,0.027153,0.0181389,0.0402908,0.0329208l0.0081406,0.0068893l0.0036087,0.0056915
					c0.0447731,0.0503769,0.0612335,0.1179771,0.0393448,0.1536636c-0.0116348,0.0149689-0.02705,0.020401-0.0484848,0.016346
					l0.0013199,0.0044594C34.7029266,36.4800987,34.6925964,36.4761276,34.6823044,36.4705811 M34.9578514,36.580677
					c-0.0041504-0.0022354-0.0083466-0.0048866-0.0125923-0.0079689c-0.021843-0.0130272-0.0419617-0.0376167-0.0599632-0.0648155
					c-0.0314751-0.0531998-0.0329132-0.1102066-0.0060959-0.1357384l0.0051613-0.0097122l0.0032616-0.0019875l0.0033836,0.0005722
					c0.0145988-0.0056076,0.0322838-0.0024567,0.0505638,0.0074005c0.0257988,0.0139084,0.0527916,0.0411606,0.0739937,0.075985
					c0.0168533,0.0265808,0.0268898,0.0507355,0.0268364,0.0744438c0.0047569,0.0313072-0.0053825,0.0545807-0.0238342,0.0671272
					C35.0000725,36.5928154,34.9796715,36.5924377,34.9578514,36.580677 M33.7093658,37.2247467
					c-0.3930855-0.5330276-0.6798668-1.1649513-0.7686234-1.7713432c-0.0165215-0.118866-0.0192337-0.2290344-0.0207939-0.3385849
					l1.363842,1.0763245L33.7093658,37.2247467 M34.5515327,36.1248055
					c-0.0071602-0.0038605-0.0145111-0.0087852-0.0219307-0.0148277c-0.023159-0.0174828-0.0432777-0.0420723-0.0565224-0.0629578
					c-0.0182304-0.0323219-0.0265465-0.0680389-0.0198441-0.0931664c0.0021172-0.0275993,0.0203972-0.0439835,0.0403442-0.0482254
					c0.0157509,0.0006828,0.0322723,0.0033112,0.0492363,0.012455c0.0047607,0.0025673,0.0095596,0.0056496,0.0143852,0.0093422
					c0.0463142,0.0349655,0.0795097,0.1015892,0.0761909,0.1522827l0.0013199,0.0044594l0.0003433,0.0076828l0.0013199,0.0044632
					C34.6275978,36.1341324,34.5925674,36.1469231,34.5515327,36.1248055 M34.9927292,36.2998466
					c-0.0319633-0.017231-0.0634613-0.054081-0.0842094-0.0968208l-0.0037842-0.0095329
					c-0.0228767-0.0610657-0.0027084-0.1101723,0.0408516-0.1116829c0.011261-0.0002213,0.023056,0.0037613,0.0353203,0.0103722
					c0.0096512,0.0052032,0.0195923,0.0120316,0.0297928,0.0197334c0.0233307,0.0213203,0.0447693,0.0503731,0.0597343,0.0846786
					c0.0128403,0.036911,0.013195,0.0695915,0.0029335,0.0903015c-0.007103,0.0161591-0.0202255,0.022831-0.0403404,0.0232353
					C35.0200348,36.3109627,35.00634,36.3071823,34.9927292,36.2998466 M34.7419395,36.0183868
					c-0.0490837-0.0264587-0.0883255-0.0820694-0.0963097-0.1395073c-0.0047035-0.0300255,0.0021667-0.0513115,0.0138016-0.0662842
					c0.0151863-0.0105515,0.0351334-0.0147934,0.0602379-0.0037613c0.0038452,0.0014954,0.0077324,0.0033112,0.0116348,0.0054169
					c0.0215073,0.0115967,0.0434761,0.0319748,0.0616226,0.0565605c0.0180016,0.0271988,0.0314178,0.0519257,0.0361786,0.0832329
					c0.0080872,0.0555916-0.0219955,0.083107-0.0685387,0.0680161l0.0013199,0.0044556l-0.0147896-0.0054703
					C34.7453651,36.0201988,34.7436447,36.01931,34.7419395,36.0183868 M36.2991638,38.2746887l-0.9651947-1.6648788
					l1.1988449-0.0322495c0.0334892,0.1230125,0.064743,0.2460747,0.0825272,0.3681183
					C36.7028961,37.5501747,36.5749207,38.0134926,36.2991638,38.2746887L36.2991638,38.2746887z M34.1169662,35.8954659
					c-0.0473976-0.0255508-0.0984421-0.0588493-0.1506996-0.0991592l-1.0453072-0.8083954
					c0.0057716-0.1205978,0.0208282-0.2336845,0.0475197-0.3367538l1.0545883,0.7659187
					c0.2081871,0.1522102,0.3756943,0.3699608,0.3570862,0.4786377
					C34.3696175,35.9791641,34.259819,35.9724731,34.1169662,35.8954659L34.1169662,35.8954659z M35.3048592,36.376709
					c-0.0800209-0.0431404-0.1434975-0.1042061-0.1692581-0.1737251c-0.0532074-0.1386414,0.0675964-0.2384605,0.2547302-0.2313004
					l0.9450073,0.0445938c0.0621529,0.1384621,0.1143265,0.2790451,0.1587105,0.4204292l-0.927063,0.006321
					C35.4769325,36.4438705,35.383007,36.4188347,35.3048592,36.376709L35.3048592,36.376709z M34.3749962,35.5318146
					l-1.3683586-0.9775467c0.1742744-0.503334,0.6041031-0.7464561,1.1804771-0.6156845L34.3749962,35.5318146
					L34.3749962,35.5318146z M34.6056938,34.0926857c0.0091667,0.0049438,0.0183258,0.0095634,0.0274658,0.0138702
					l0.1986618,1.2354279c0.0391846,0.2497864-0.0132904,0.4264297-0.1204185,0.3824234
					c-0.0043068-0.0017433-0.008606-0.0037804-0.0129166-0.0061073c-0.1073914-0.057888-0.2138481-0.2924423-0.2449646-0.530262
					l-0.1576233-1.2183075c0.0566902,0.0168152,0.1107979,0.0259933,0.1689148,0.0498199
					c0.0258331,0.0105972,0.0507698,0.0234833,0.075737,0.0369453c0.0124817,0.0067253,0.0249748,0.0135994,0.0375862,0.0203972
					C34.5873337,34.0824776,34.5965195,34.0877419,34.6056938,34.0926857L34.6056938,34.0926857z M35.0255547,35.7950401
					l-0.2790146-1.6298676c0.6051178,0.3474388,1.1642609,0.99123,1.5175934,1.7102547L35.0255547,35.7950401L35.0255547,35.7950401
					z M34.6741524,33.7865067c-0.0864601-0.046608-0.1737175-0.0879822-0.2611465-0.1235123
					c-1.1827011-0.4801102-1.9746208,0.2688179-1.7707748,1.6694832c0.1889229,1.3030434,1.1626053,2.705986,2.2439423,3.2888947
					c0.0873833,0.0471039,0.1756439,0.0889359,0.2640724,0.1248283c1.1769676,0.4770203,1.9678001-0.271244,1.7636108-1.6795883
					C36.7262154,35.770565,35.7516594,34.3673515,34.6741524,33.7865067L34.6741524,33.7865067z"/>
			</g>
		</g>
		<path class="st14" d="M65.3821182,29.6187477c0.067627-0.0515251,0.1276245-0.0528908,0.1995392-0.0145512
			c0.267662,0.1539345,0.5015411,0.8585358,0.4796295,1.4490318c-0.0038681,0.2620354-0.0334244,0.555479-0.0690155,0.835083
			c-0.2673798-0.6523895-0.6386795-1.2620716-1.0688858-1.7515831
			C65.0437241,29.9286175,65.2078629,29.7343407,65.3821182,29.6187477z"/>
		<path class="st15" d="M65.3008499,32.1104546c0.0281143-0.2506256,0.0195236-0.6403637-0.2176819-0.7849808
			c-0.2371445-0.1446209-0.3205032-0.2127266-0.3467331-0.5520782c-0.0188446-0.1796761,0.0593338-0.4160004,0.1869507-0.6366673
			c0.4302063,0.4895115,0.801506,1.0991936,1.0688858,1.7515831c-0.0295868,0.2325954-0.0632172,0.4561863-0.0908737,0.6384487
			C65.7461853,32.420311,65.5490189,32.2748451,65.3008499,32.1104546z"/>
		<path class="st4" d="M72.8330612,37.0087852l0.0152664,0.3196449c0.2409592,0.2244835,1.3944092,1.3181725,1.6997375,2.0512352
			c0.2957916,0.7432289,0.4768372,2.0190086,0.5073471,2.2383347l0.6825027,1.0843887
			c0.1109314-0.4025307,0.2637482-1.1859322,0.1846008-1.7940865C75.4062653,40.16008,73.9436798,38.2534637,72.8330612,37.0087852z
			"/>
		<path class="st16" d="M38.6723709,39.4861069c0.6652603,0.3048515,2.5492592,1.1819115,3.7493439,1.5745621
			c0.3147812,0.092865,0.7328835,0.2533264,1.2015152,0.4226456c-1.4906273-0.8160095-3.5788803-1.7784424-4.9247093-2.2877655
			C38.6932793,39.295639,38.6780281,39.3959541,38.6723709,39.4861069z"/>
		<path class="st15" d="M43.4099922,23.1791306c1.4982376,0.1358776,3.2701988,0.345541,4.6551132,0.6240654
			c1.7686882,0.3496838,3.4502182,0.9714165,4.5322075,1.4067307c-0.8138695-0.6914024-1.9178009-1.5862751-2.9117317-2.2735806
			c-1.3668175-0.948885-3.8079147-1.5432625-5.2527657-1.820364c0.0971222,0.1477451,0.1852531,0.3157749,0.2038498,0.4953346
			C44.6675987,22.0505924,43.8523941,22.7990875,43.4099922,23.1791306z"/>
		<path class="st15" d="M34.9002953,27.1626263c0.0134201,0.4896584,0.1253204,0.7370987,0.1800804,0.8358231
			c0.088604-0.0319824,0.1576576-0.0535736,0.2262383-0.0851612c0.6190071-0.2440548,1.5585709-0.6954079,1.7638359-0.8000488
			c-0.7886658-0.582058-1.3668137-0.948885-1.4901543-1.0160828c-0.1933479,0.1444073-0.3766823,0.2885876-0.5595398,0.4427052
			l0.0004768,0.0099983C34.9497948,26.7314682,34.8902779,26.9528427,34.9002953,27.1626263z"/>
		<path class="st15" d="M43.433651,20.9487286c0.140976,0.0168095,0.3629265,0.0517349,0.6352844,0.0955219
			c0.1476555,0.1566658,0.2976875,0.3632011,0.3181915,0.5827541c0.0237808,0.289423-0.7509689,1.0470047-1.3295135,1.5101585
			c-0.110466-0.007494-0.2209358-0.0149899-0.3319397-0.0324211c0.1357307-0.093111,0.543335-0.3623829,0.6790581-0.6654434
			c0.1085548-0.2424488,0.0618973-0.3813934,0.0085068-0.450182c0.2476311-0.0556202,0.4867401-0.0810814,0.7362785-0.0967083
			c-0.460041-0.0943832-0.9216347-0.0689259-1.3815231,0.0177689c-0.4136047-0.308197-0.9237671-0.5961323-1.483036-0.8413258
			C42.1824722,20.9320374,43.0160637,20.9014111,43.433651,20.9487286z"/>
		<path class="st14" d="M33.1486626,25.2825451c0.0200233-0.0004559,4.7857437-3.1387196,6.1305313-3.6993237
			c0.6062851-0.2468777,1.3239136-0.4104195,2.005764-0.51437c0.559269,0.2451935,1.0694313,0.5331287,1.483036,0.8413258
			c-1.6019821,0.3020058-3.1801987,1.4843464-4.572506,2.1375809c-0.8447609,0.5492249-5.3704948,3.0520554-4.4041977,4.2099953
			c-0.167572,0.0225506-0.3339844,0.0450745-0.4933205,0.0673752c-0.4881287-0.4407711-0.9764214-0.8311882-1.475359-1.1630173
			C32.0801582,26.6359539,32.4861259,26.0124283,33.1486626,25.2825451z"/>
		<path class="st15" d="M33.2979698,28.3251286c-0.0109253,0.0015316-0.0229492,0.0030861-0.0338173,0.0046158
			c-0.4076653,0.0593224-0.7953186,0.1181297-1.0729179,0.1744328c-0.3371811,0.067667-0.5957718,0.1035805-0.7857857,0.1079044
			c0.0168095-0.3326416,0.1090031-0.8204918,0.4171619-1.4499702
			C32.3215485,27.4939404,32.8098412,27.8843575,33.2979698,28.3251286z"/>
		<path class="st17" d="M35.7926483,25.9323597c0.2481079,0.1643276,0.9610405,0.6281204,1.8644638,1.307476
			c1.0496483,0.8060856,2.94701,2.3828182,3.197506,2.5971375c0.2114639,0.0251541,1.2696114,0.1710472,1.713932,0.2509575
			c1.453907,0.2568779,1.72966,0.1606407,1.7782173,0.1295071c0.3195419-0.2272301,1.8504562-1.2920437,3.4237976-2.3077774
			c1.3795815-0.8813267,3.2424355-1.9137192,3.8181877-2.2267933c-0.299118-0.1831856-1.0687065-0.5756245-2.6259346-0.9001522
			c-2.0629768-0.4330692-9.3286819-0.7976627-10.0006065-0.8224087c-0.2047844,0.1147003-0.4095116,0.2293396-0.6147766,0.3339806
			C37.4807434,24.8039742,36.6050568,25.3338852,35.7926483,25.9323597z"/>
		<path class="st17" d="M42.0690956,31.5792007c0.2814865,0.4435806,1.0564003,1.5759125,2.2136612,2.7494621
			c0.0204964-0.2004051,0.074707-0.5316391,0.1727676-0.9938698c0.1304741-0.6229286,0.4647255-1.1704865,0.6423378-1.4345245
			C43.7358932,31.6812763,42.5405846,31.5984993,42.0690956,31.5792007z"/>
		<path class="st15" d="M40.0472183,32.8451805c-0.0454712-0.0091591-0.0896072-0.0095558-0.1350937-0.0164566
			c0.6202011,0.6217155,1.1699905,1.2942886,1.6105499,1.9839325c0.4893875,0.1485252,0.9894485,0.2645187,1.0847893,0.2841377
			c-0.0775757,0.0517502-0.4766655,0.0808487-0.7395515,0.0268364c0,0,0.0595284,0.1985855,0.1191254,0.6072426
			c0.0738335,0.4982948,0.0472069,0.7788544-0.0137405,0.9702339c0.1352577,0.1069603,0.2614594,0.2340889,0.3967171,0.3409882
			c0.089489-0.2220535,0.2185402-0.4549599,0.3870964-0.6987724c0.0747757-0.1116829,0.1561584-0.2935791,0.2180634-0.464962
			c0.0461769-0.0810623,0.0719147-0.1716118,0.1090355-0.2324486c0.0276451-0.0506134,0.0452194-0.1010628,0.0628548-0.1514473
			c0.0728683-0.1516151,0.1561623-0.2935181,0.2595367-0.4358749c-0.7505951-0.8328514-1.4997635-1.6357651-1.9788246-2.024868
			c-0.2062263-0.1253052-0.4219818-0.2403831-0.6462517-0.3252411c0.2590752,0.1840973,0.5005112,0.4185791,0.6176529,0.5658684
			C41.3991776,33.2743492,40.6643867,32.9810905,40.0472183,32.8451805z M41.5296745,33.4914017
			c0.1167297,0.1373482,0.5834618,0.6866951,0.7582283,0.9927025c0.0986176,0.1777382,0.1319237,0.2469826,0.143364,0.2766876
			c-0.0743027-0.0882683-0.4581528-0.5795059-0.6220169-0.8658028
			C41.6682701,33.6682281,41.562088,33.5406494,41.5296745,33.4914017z"/>
		<path class="st14" d="M40.9935684,34.6335449c-0.8972168-0.3395462-1.3829498-0.4485435-1.6330261-0.6528015
			c-0.2543106-0.2941856-0.5191078-0.5981407-0.7538719-0.9027786c-0.0128746-0.0597-0.0166893-0.1396294,0.0514107-0.1812134
			c0.1077385-0.0766068,0.6728287-0.1560516,1.2540436-0.0680275c0.6202011,0.6217155,1.1699905,1.2942886,1.6105499,1.9839325
			C41.3372231,34.7563934,41.1533394,34.6958237,40.9935684,34.6335449z"/>
		<path class="st15" d="M43.0838051,36.2658844c1.350132,1.019207,2.6335945,2.1099358,3.9080582,3.2208862
			c0.3552437,0.3119049,0.6905289,0.6242676,1.0358276,0.9364014c0.052372,0.04879,0.1247673,0.0971298,0.1771431,0.1459236
			c-0.5133934-0.898243-1.8697929-2.2573166-2.7265701-3.2177467c-0.4524307-0.459713-1.1725197-1.2832489-1.9021416-2.0966187
			c-0.0752563,0.1016846-0.1395416,0.2231369-0.193821,0.3443604c-0.0275841,0.0506744-0.0452194,0.101059-0.0728035,0.1516724
			c-0.0266953,0.0706139-0.0628586,0.1514473-0.0990868,0.2322235
			C43.1747246,36.073822,43.1295052,36.1748199,43.0838051,36.2658844z"/>
		<path class="st14" d="M42.4786568,37.8495789c1.873455,1.077301,3.8317566,2.0426941,5.8038216,2.8777733l-0.0004768-0.0099983
			c-0.0224075-0.0494728-0.044754-0.0990105-0.0771675-0.1482582c-0.0523758-0.0487938-0.1247711-0.0971336-0.1771431-0.1459236
			c-0.3452988-0.3121338-0.680584-0.6244965-1.0358276-0.9364014c-1.2744637-1.1109505-2.5579262-2.2016792-3.9080582-3.2208862
			c-0.0362244,0.0808372-0.0723915,0.1616096-0.1195183,0.2226791
			C42.6366501,36.9660263,42.4742928,37.339695,42.4786568,37.8495789z"/>
		<path class="st14" d="M48.8614883,39.8541756c0.2828407-0.1563911,0.6576195-0.2749023,0.9676323-0.2819557
			c0.1200027-0.0027313,0.2310066,0.0147018,0.3228874,0.0526466c0.2257652,0.1148491,0.4700699,0.6192741,0.5744095,0.9168701
			c0.0228195,0.0594749,0.0742989,0.0882721,0.1242905,0.0871353c0.0100098-0.0002289,0.7000504-0.0159302,1.0514793,0.2160492
			c0.0968781,0.0620003,0.1569786,0.1421089,0.1960182,0.2238579c-1.1184273,0.0198975-2.2661705-0.5768127-3.4105911-1.1013374
			C48.7412567,39.9302101,48.7872467,39.8938866,48.8614883,39.8541756z"/>
		<path class="st15" d="M48.6876144,39.9674416c1.1444206,0.5245247,2.2921638,1.1212349,3.4105911,1.1013374
			c0.0400543,0.0838623,0.0579529,0.1694489,0.0663986,0.2401772c-0.3138275-0.0728722-1.0729294-0.2455902-1.5605621-0.3944588
			c-0.2333336-0.0646935-0.5357819-0.1077957-0.8386459-0.1608963c-0.4638023-0.069458-1.0490952-0.1661186-1.1867371-0.3230133
			c-0.0747795-0.0982666-0.1080894-0.167511-0.1014786-0.2376671
			C48.4875946,40.1243896,48.5720482,40.0477028,48.6876144,39.9674416z"/>
		<path class="st17" d="M44.5042381,34.5636635c0.2833252,0.2735062,0.576725,0.5468445,0.8996124,0.8094406
			c2.1792603,1.8203011,5.4534454,4.1356812,7.6821976,5.1049271c-0.4738998-1.1191597-2.2647934-5.288208-3.0215263-6.2509155
			c-0.9163704-1.1590767-2.997467-1.9716568-4.6937637-2.2730637c-0.131916,0.1729774-0.5242577,0.7618904-0.6723061,1.4352074
			C44.5499268,34.052639,44.5179977,34.4333534,44.5042381,34.5636635z"/>
		<path class="st14" d="M43.6699028,35.1226006c0.8020172,0.8617058,1.6678543,1.8019753,1.9521942,2.0954742
			c0.1943092,0.2955513,1.9568939,1.9853287,2.6150818,2.9803085c-0.0009537-0.0199966-0.0114403-0.0297089-0.0023842-0.0499306
			c0.0309792-0.1906967,0.1838074-0.3441925,0.5062103-0.5114937c0.4390678-0.2399597,1.1000252-0.4449959,1.5205078-0.2346039
			c0.3281326,0.1625061,0.5863266,0.746624,0.6772537,0.9745255c0.2105103,0.0052185,0.7528992,0.0428619,1.0934296,0.2551308
			c0.4543304,0.2896347,0.3801041,0.8312721,0.371048,0.8514977c-0.0085793,0.03022-0.0271683,0.0606117-0.0561867,0.0812912
			c-0.0195427,0.0104523-0.0390892,0.0208473-0.0590477,0.0213013l-0.0300293,0.0006828
			c-0.0104866-0.0097084-1.0829391-0.2453003-1.7125053-0.4309769c-0.22332-0.0649185-0.5257683-0.1080208-0.8181458-0.1513519
			c-0.5347672-0.0878639-1.0395622-0.1763458-1.2691422-0.3711243c0.0119171,0.0397072,0.0133476,0.0697021,0.015255,0.1096344
			c0.143837,0.0767403,0.6162224,0.325985,0.9058037,0.5193977c0.6724129,0.4546432,2.2430611,1.2688904,3.1660233,1.7278442
			c0.0447464-0.1110001,0.0999756-0.2122879,0.1737976-0.3439674c0.110466-0.2024536,0.258522-0.4558105,0.3932915-0.7788658
			c0.197567-0.4745026,0.125164-0.9428024,0.0989418-1.0722046c-2.25634-0.9186325-5.6957474-3.340229-7.9584274-5.2286377
			c-0.3228912-0.2625961-0.6162262-0.5359344-0.8996124-0.8094406c-0.2666359,0.0760117-0.4723778,0.1707153-0.6262207,0.3042145
			C43.7080345,35.0817566,43.6889687,35.1021461,43.6699028,35.1226006z"/>
		<path class="st15" d="M42.4862862,38.0093689c0.0132866,0.0697021,0.0066757,0.1398582,0.020443,0.2195549
			c0.0433807,0.2789688,0.2424622,0.6744423,0.4525032,1.0896225c0.209568,0.4052429,0.4305763,0.8401909,0.5610733,1.2671928
			c0.626709,0.3356972,1.182518,0.6530457,1.6058617,0.9233665c0.1033211,0.0676537,0.2481155,0.1643867,0.4443245,0.2898598
			c0.0204964,0.0095444,0.0305061,0.0093155,0.0409355,0.0190887c0.0100098-0.0002289,0.0100098-0.0002289,0.0100098-0.0002289
			c0.8534241,0.2605934,1.7072639,0.5311241,2.5516319,0.811882c1.3629913,0.4489975,2.6997643,0.9785461,4.0103188,1.5886421
			c0.0985413-0.4521713,0.2013702-0.8145409,0.2627983-0.9959221c-0.923378-0.4689484-2.5139847-1.2826843-3.1974258-1.7571564
			c-0.3309898-0.222435-0.9462585-0.5284233-0.9567451-0.5381927c-0.0200233,0.0004539-0.0295563,0.0106812-0.0495148,0.0111351
			C46.2432671,40.1637459,44.3497925,39.0868988,42.4862862,38.0093689z"/>
		<path class="st15" d="M52.4291115,44.3327446c0.1533737,0.0665131,0.3072205,0.1430244,0.4509964,0.2197647
			c0.1347733-0.3230553,0.3423538-0.5877762,0.5933151-0.7834778c0.6080971-0.4738388,1.4562721-0.5331154,2.3953819-0.1544838
			c0.1328735,0.0569687,0.2767067,0.1336479,0.4304962,0.2101631c1.736351,0.9304657,3.2637177,3.1455879,3.580574,5.1682396
			c0.5738602,0.4869156,1.1381912,0.9840546,1.7578125,1.3799057c0.5367393,0.3378029,1.0819969,0.6453857,1.6553764,0.9122925
			c-0.2371445-0.1445618-0.4362183-0.3300209-0.5467529-0.5475273c-0.099987-0.2076759-0.1104813-0.4274559-0.0200386-0.6295166
			c0.1000404-0.2122269,0.35952-0.4381523,0.690979-0.6256752c-0.4581413-0.1595497-1.1005821-0.4049263-1.7349167-0.6904602
			c-1.1558189-0.51371-1.7654266-0.90979-1.7958755-0.9191055c-0.020977-0.0195389-0.0423622-0.0490189-0.0538063-0.0787888
			c-0.0014305-0.0299339-0.6626358-2.5547905-2.9838142-3.9918785c-1.4644089-0.8966217-2.7306786-0.7877922-3.3844833-0.4329643
			c-0.2142563,0.1249275-0.454258,0.1303864-0.680027,0.0154762c-0.0304451-0.0092545-0.0719185-0.0383377-0.1123772-0.0474281
			C52.6114807,43.5386581,52.5086479,43.9009666,52.4291115,44.3327446z"/>
		<path class="st15" d="M68.2751999,50.5818329c0.0394974-0.0109062,0.0790634-0.0218163,0.1190414-0.022728
			c0.6143036-0.1339684,3.0929565-1.2703362,4.0924606-1.9330597l0.3300247-0.2174606
			c0.9409332-0.6313667,2.2319107-1.4807091,2.7256622-2.251915c0.1400146-0.2131996,0.2247314-0.5351181,0.2775726-0.896286
			c0.0100098-0.0002289,0.0095367-0.0102272,0.0090561-0.0202255c0.0347977-0.1107712,0.0599976-0.2113152,0.0852585-0.3119202
			c0.0414047-0.1809273,0.0828094-0.3618507,0.1485367-0.4533081c0.0471268-0.0610657,0.1042633-0.1224213,0.1804733-0.2041092
			c0.0171738,0.7795372-0.0303421,1.8805962-0.3570328,2.3779945c-0.4937439,0.7712059-1.7847214,1.6205521-2.7256546,2.251915
			l-0.3300323,0.2174606c-0.9994965,0.6627274-3.4781494,1.7990952-4.092453,1.9330635
			c-0.039978,0.0009117-0.0795441,0.0118179-0.1190491,0.022728c-0.2358398,0.0235558-2.1472855,0.2032776-3.9943924-0.1442566
			l0.2667084-0.3906326C66.5225067,50.7514725,68.0662384,50.6065483,68.2751999,50.5818329z"/>
		<path class="st14" d="M65.1926117,49.7620163c0.2409592,0.014534,0.4623718,0.039463,0.6533356,0.0551376
			c-0.3377228,0.2061005-0.7210312,0.4721947-0.9502792,0.7157402l0.0030823-0.0045242l-0.0030823,0.0045242
			c-0.0018616,0.0019951-0.0045166,0.0040092-0.0063782,0.0060043c0.0007401,0.0001068,0.0013504,0.0000916,0.0020905,0.0001945
			l-0.2667084,0.3906326c-0.1818314-0.0341873-0.3640976-0.0672722-0.5430298-0.1125107
			c-0.3542862-0.0819016-0.6457748-0.3152466-0.6705055-0.4147148
			C63.5044441,50.2604332,64.3792343,49.7105217,65.1926117,49.7620163z"/>
		<path class="st4" d="M59.3843346,44.9044685c0.5595589,0.3972168,1.5877533,1.1737633,2.1402321,1.8412094
			c0.6796303,0.8144455,1.4563789,1.356739,1.6011086,1.453476c0.2519188,0.0342407,2.1344719,0.2513962,3.4745064,0.2209015
			l0.0900345-0.0020485c-0.3524475-0.251976-0.9420319-0.64851-1.1473083-0.7538795
			c-0.0923538-0.0478821-0.4061813-0.1207542-0.7610016-0.2126503c-0.8314362-0.2210579-1.9668121-0.5152092-2.4644661-0.8738594
			c-0.6433945-0.4753227-2.1330719-1.4814072-2.3602066-1.626194L59.3843346,44.9044685z"/>
		<path class="st15" d="M30.7846298,30.2860947c0.1028519,0.4776154,0.3596287,1.6617107,0.4677944,2.4592552
			c0.1466274-0.2833481,0.3452148-0.5278473,0.596653-0.7135506c0.6476002-0.484745,1.5362339-0.534935,2.5262852-0.1375046
			c0.143837,0.0767384,0.2972069,0.1432533,0.4514694,0.229702c1.8697052,0.9974365,3.5066452,3.4100075,3.8216019,5.6027374
			c0.0290222,0.1893311,0.0376053,0.3691177,0.0457153,0.5389709c0.0114403,0.029705,0.0143013,0.0896339,0.0166855,0.1395645
			c0.2547836,0.0942345,0.5300636,0.1979485,0.8367424,0.3309784c1.0924797,0.4450836,2.4639931,1.0738716,3.6441231,1.6769867
			c-0.1257324-0.3271408-0.2924576-0.6733627-0.4472656-0.9798203c-0.2214203-0.4448891-0.4309883-0.850132-0.48629-1.1688652
			c-0.0271111-0.1493378-0.0233002-0.2794228-0.0295029-0.4092789c-0.1238785-0.0771942-0.2472191-0.1443901-0.3810463-0.2213593
			c-1.0839005-0.685257-2.2077866-1.3696671-3.1407661-2.2483482c-1.1701431-1.4433289-2.5041466-3.1728859-4.3162231-3.8015976
			c-0.5190964-0.1781788-1.0943794-0.2750664-1.6415329-0.2026196l-0.850584-1.0405865c0,0,1.4476223-0.9229107,1.5271626-1.14468
			c0.0518913-0.1712151,0.0070763-0.4801769-0.0200996-0.6295147c-0.0299683,0.0006828-0.0694733,0.0115299-0.0995064,0.0122128
			c-0.4076042,0.0593224-0.7857246,0.1079025-1.0533714,0.1639786c-0.3762112,0.0885754-0.6452885,0.1147175-0.8452511,0.1192665
			l0.0133533,0.2796497C31.4398537,29.5412426,31.0517349,30.0100117,30.7846298,30.2860947z"/>
		<path class="st15" d="M74.4934921,42.0107727c-0.1300964-0.8370209-0.6135406-2.5759277-2.3504639-4.7762718
			c-1.2353821-1.5518227-2.7241058-2.5379066-3.8327942-3.1126213c1.1453247,0.2939262,2.7930679,1.0463638,4.0260696,2.3382416
			c0.073822,0.0783348,0.1581345,0.166378,0.2324371,0.2547073l0.0324326,0.6792183
			c0.0014343,0.029995,0.0228195,0.0594749,0.0442734,0.089016c0.0104904,0.0097694,1.3606262,1.2389297,1.6664276,1.9819298
			c0.3067551,0.7629967,0.494957,2.188633,0.4954376,2.1986313c0.0009537,0.0199966,0.0119171,0.0397034,0.0228195,0.0594749
			l0.8554153,1.3504562c0.0213928,0.029541,0.0628662,0.0585632,0.112854,0.0574265c0,0,0,0,0.0100098-0.0002289
			c0.039505-0.0109062,0.0880661-0.0419807,0.0961609-0.0821991c0.0176392-0.0503883,0.2247314-0.7450676,0.2904434-1.4664955
			c0.0685883,0.3884354,0.1648254,0.936203,0.1491013,1.2365303c-0.0076218,0.0501595-0.031395,0.1806984-0.2094803,0.4347382
			c-0.1138,0.1325874-0.2371368,0.2754021-0.3614273,0.3982201c-0.1246414,0.1435165-0.2378769,0.2675476-0.3135986,0.374794
			c-0.2523422-0.3682022-0.5596237-0.7351494-0.9085846-1.1011505
			C74.5742569,42.6925545,74.5558243,42.4088707,74.4934921,42.0107727z"/>
		<path class="st14" d="M31.898489,30.3407593l0.850584,1.0405865c0.5471535-0.0724468,1.1224365,0.0244408,1.6415329,0.2026196
			c1.8120766,0.6287117,3.14608,2.3582687,4.3162231,3.8015976c1.1115532,0.8446503,2.2987747,1.5975609,3.514183,2.3098526
			c0.0085106-0.2401695,0.068985-0.4415474,0.1490021-0.6533203c-1.1710739-0.6233368-3.1680222-3.0277786-4.1476707-4.2554169
			c-0.0862198-0.1280365-0.1562347-0.3363953-0.0648384-0.5184555c0.110939-0.1925163,0.3319359-0.1775894,0.4923935-0.1712341
			c1.288208,0.1407204,2.7330589,0.41782,3.5950813,1.4881134c0.1795311,0.1959152,0.6863022,0.7443504,1.2558784,1.3513527
			l0.0571404-0.0612946c0.1537819-0.1334991,0.3590431-0.2381401,0.5952301-0.3235283
			c-1.5149536-1.53545-2.4169693-3.0248508-2.4279289-3.0445595c-0.0219307-0.0395374-0.0243149-0.089468,0.0042839-0.1201477
			c0.0180511-0.0403862,0.0566635-0.0712318,0.1071281-0.0624313c0.0100098-0.0002289,1.6138878,0.0432854,3.5011482,0.360302
			c2.1401367,0.3713188,4.0669785,1.3073997,4.9194679,2.3879166c0.8958702,1.1495972,3.077301,6.3696327,3.1778259,6.587368
			l0.0004768,0.0099983c0,0,0,0,0.0004768,0.0099983c0.0109024,0.0197067,0.1714363,0.6560364-0.0985184,1.2921524
			c-0.1342354,0.3330536-0.2818794,0.5963478-0.4023514,0.7990913c-0.073822,0.1316795-0.1190414,0.2327385-0.1642647,0.3337364
			c0.0409355,0.0190887,0.0819283,0.0381126,0.1228638,0.0572014c0.1438408,0.0767365,0.3038216,0.0730972,0.4500351-0.0102425
			c0.7018852-0.3959579,2.0776711-0.5172272,3.6249657,0.4375c2.2592659,1.3984604,2.9904175,3.7117157,3.0890388,4.0994644
			c0.1648102,0.0962219,0.7519569,0.4428864,1.7239571,0.880703c0.7362862,0.3232536,1.5006332,0.6058311,1.9382744,0.7558365
			c0.401886-0.1791191,0.8566895-0.2994499,1.2967148-0.3094635c0.0700073-0.0015945,0.1400223-0.0031853,0.2005005,0.0054474
			c0.5923767,0.0365028,1.065773,0.0957336,1.3176956,0.1299782c0.1004562,0.0077209,0.1900101-0.0043259,0.2590714-0.0258522
			c0.0194778-0.0104561,1.6195221-0.6768379,1.9790497-0.6950302c0.0695343-0.0115891,0.1695786-0.0138664,0.3000641-0.0068283
			c0.4004669,0.0008965,1.0614853,0.0058098,1.6971741-0.3086281c0.8700333-0.4397583,3.9605179-2.6000061,4.2276306-2.87603
			c0.0857391-0.0919724,0.1357269-0.3030624,0.1857071-0.5142097c0.0590439-0.2313118,0.1171341-0.4826202,0.2580414-0.6758194
			c0.0046158-0.0069389,0.0128174-0.0156708,0.0178528-0.0227432c-0.2523422-0.3682022-0.5596237-0.7351494-0.9085846-1.1011505
			c-0.0465546,0.4659996-0.2733307,0.7101593-0.7402496,1.1409912c-0.690506,0.6356773-3.944313,2.7296371-5.2896423,3.0702324
			c-0.4357376,0.0998802-0.8733826,0.1598244-1.3033981,0.1696091c-0.840004,0.0191154-1.6490936-0.152401-2.3063126-0.4974747
			c-0.4419403-0.2399292-1.677784-0.9617653-2.9855423-1.7219391c-1.4620285-0.8466873-3.1102562-1.8191376-3.8393898-2.2024879
			c-1.3358231-0.7195587-2.8455162-1.5151787-2.9278603-1.5632896c-0.3324242-0.0424805-0.5643845-0.0771751-0.6357613-0.1055183
			c-0.3981438-0.1609764-0.5682068-0.5770645-0.7153893-0.9336815c-0.0237732-0.0794716-0.0571442-0.148716-0.0800247-0.2081909
			c-0.1680946-0.3761597-2.519989-5.3923798-2.5524063-5.4416275c-0.0228806-0.0594711-0.0061989-0.1298561,0.052372-0.1611557
			c0.5942764-0.3435249,1.1881409-0.6970482,1.7824211-1.0405083c1.6061707-0.9565506,3.3285904-1.9956932,5.0157318-3.1440144
			l0.310009-0.2170048c0.2719345-0.1762238,0.5333252-0.3621559,0.8052597-0.5383186
			c0.1842918-0.1241817,0.3690567-0.2383671,0.5533447-0.3626099c-1.9158821-1.1263218-5.7824287-2.8482323-5.8233643-2.8673191
			c-0.0409927-0.0190258-0.0719185-0.0383396-0.1033783-0.0675907c-0.0104866-0.0097713-0.2299995-0.2047768-0.5543213-0.4973679
			c-0.8996048-0.3895416-2.9826698-1.2420521-5.1966324-1.6916428c-2.8911362-0.5841961-7.5190048-0.848856-7.6695175-0.8554401
			c-0.3318748,0.1775265-0.653801,0.354887-0.9752502,0.5421867c1.7458649,0.0802574,7.7480965,0.4036617,9.6391716,0.8006058
			c2.1948967,0.4699821,2.8630829,1.0447731,2.8945427,1.0740223c0.0314026,0.029314,0.0433197,0.0690193,0.0452271,0.1090126
			c-0.0081024,0.0401592-0.0266953,0.070549-0.0657196,0.0914555c-0.0190659,0.0204525-2.3419609,1.2732639-3.97435,2.31036
			c-1.5733414,1.0157337-3.0947838,2.0703239-3.4142647,2.2975521c-0.067627,0.0515251-0.1757698,0.0940228-0.4157753,0.0994854
			c-0.2799797,0.0063705-0.7528992-0.0428619-1.5500717-0.174736c-0.4847755-0.0889397-1.7244186-0.2607288-1.7344284-0.2605019
			c-0.0299721,0.0006828-0.0504684-0.0088615-0.0713844-0.0284042c-0.0209732-0.0194798-2.1059685-1.7519665-3.2180023-2.6066189
			c-0.0833588-0.0681057-0.1557541-0.1164436-0.2285652-0.1747818c-0.0090561,0.0202255-0.0181122,0.0403881-0.0476685,0.0510693
			c-0.0099487,0.000227-1.1252213,0.545599-1.822403,0.8314705c-0.4519386,0.1802597-1.2666817,0.3087807-2.0024796,0.4155464
			c0.0271759,0.1493378,0.071991,0.4582996,0.0200996,0.6295147C33.3461113,29.4178486,31.898489,30.3407593,31.898489,30.3407593z
			 M58.823822,44.6972046c0.0175781-0.0503883,0.0656624-0.0914574,0.1261406-0.0828247l1.0558243,0.0959625
			c0.0199585-0.0004539,0.0404549,0.0090256,0.0609512,0.0185699c0.0204391,0.0095444,1.6963158,1.1413269,2.3911972,1.6455078
			c0.4562416,0.3296242,1.6219978,0.6330338,2.382534,0.8357468c0.4052887,0.1007576,0.6890869,0.1743126,0.802002,0.2317352
			c0.3281326,0.1625061,1.4367676,0.9472313,1.4887238,0.9860878c0.0414124,0.029026,0.0638123,0.0784988,0.0461807,0.1288872
			c-0.0076294,0.0502167-0.0557098,0.0912895-0.1056976,0.0924263c-0.149559,0.0134125-0.29953,0.0168266-0.4695816,0.0206947
			c-1.4500885,0.0330009-3.4440002-0.211586-3.5349236-0.2295341c-0.0200233,0.0004539-0.0405197-0.0090904-0.0510063-0.0188599
			c-0.0409355-0.0190849-0.9091454-0.5892639-1.6844711-1.5215836c-0.7434464-0.8930054-2.440239-2.0443306-2.4607353-2.053875
			C58.8190613,44.8073502,58.8061867,44.7475891,58.823822,44.6972046z"/>
		<path class="st13" d="M58.7259636,41.3896065c0.8433495,0.0508118,1.5852814,0.0739021,1.8943443,0.0469131
			c0.7781601-0.0577469,2.4510803-0.6657333,4.4358368-1.8708725c1.9161835-1.1735535,2.5080643-1.986969,2.8009033-2.5636101
			c0.0552368-0.1012268,0.0061951-0.2901039-0.0409393-0.4390488l-0.0247879-0.0994072
			c-0.0990982-0.397747-0.2520065-0.8742218-0.4744415-1.3391685c0.1400986,0.8367958-0.0103226,1.8801422-1.1888657,2.7769127
			c-2.1733284,1.65942-3.9167252,2.6790237-5.1800652,3.0577316C60.2369385,41.1652298,59.4126625,41.3039742,58.7259636,41.3896065
			z"/>
		<path class="st17" d="M51.4555702,34.6354408c0.3457832,0.7420921,2.3504639,4.9862213,2.4976463,5.3428993
			c0.0333061,0.0691872,0.0566635,0.1386566,0.0899734,0.2079048c0.1362801,0.3369064,0.2729721,0.683754,0.5586777,0.7972412
			c0.1629028,0.0562859,1.2901115,0.1806488,2.5468559,0.292057c0.049511-0.0111351,2.1481628-0.0889206,3.7277756-0.5548401
			c1.2238426-0.3677979,2.9476891-1.3770103,5.0919456-3.015686c1.5362167-1.1649055,1.1975098-2.597126,0.839325-3.3889809
			c-0.074295-0.0882721-0.1285782-0.1770592-0.2024078-0.2553291c-0.2423935-0.2544785-0.5033722-0.478569-0.7634048-0.6826019
			c-0.0100098,0.0002251-0.0100098,0.0002251-0.0200195,0.0004539c-0.0314026-0.0293121-3.9685211-2.8095589-5.6534576-3.9211178
			c-0.0723343-0.0484009-0.1547394-0.0965099-0.2271347-0.1448479c-0.223793,0.1350899-0.4471703,0.2801819-0.6604767,0.4249821
			c-0.2619247,0.1759949-0.5333214,0.362154-0.7952499,0.5380898l-0.3200188,0.2172928
			c-1.6871414,1.1483212-3.4190331,2.1976929-5.0257454,3.1441803
			C52.5750694,33.9699821,52.0202942,34.302597,51.4555702,34.6354408z"/>
		<path class="st14" d="M55.8329353,41.3954506c0.5757675,0.3168945,1.5101128,0.8056145,2.3630638,1.2661591
			c0.739563,0.3931847,2.3254662,1.3170013,3.8498764,2.2122574c1.3077621,0.7602348,2.5335999,1.4822998,2.9750595,1.7122307
			c0.9448242,0.4984283,2.2015686,0.6098366,3.4382782,0.3017387c1.2862244-0.319294,4.5205536-2.4027405,5.1724472-3.0075722
			c0.6809692-0.6254501,0.7847595-0.7578087,0.6132507-1.8338661c-0.1291428-0.8170242-0.6001968-2.5062294-2.3047638-4.6573257
			c-1.8435745-2.3378639-4.2747345-3.3524895-5.0486145-3.6249008c-0.1424026-0.0467453-0.2742615-0.0837212-0.3967056-0.1309204
			c0.0943222,0.0878143,0.1981201,0.1654663,0.2924423,0.2532806c0.0528488,0.0587921,0.0962296,0.1278076,0.149559,0.1965981
			c0.0204391,0.0095444,0.0514221,0.0288582,0.0628586,0.0585632c0.0109634,0.0197716,0.0119247,0.0397682,0.0223465,0.0494766
			c0.5443726,0.7076073,0.8559036,1.5704651,1.0169144,2.2167931l0.0243073,0.0894089
			c0.0490417,0.1888733,0.1104813,0.4274559,0.0195618,0.6195145c-0.3114243,0.6070938-0.9213638,1.4608955-2.8966522,2.6558113
			c-1.7409515,1.0695343-3.5662766,1.8410759-4.5339127,1.9130821c-0.0495148,0.0111351-0.0995026,0.0122719-0.1595039,0.0136375
			c-0.5900574,0.0134277-2.0158386-0.0741119-3.3321037-0.1741562l-0.0100098,0.0002251l-0.0004768-0.0099983
			C56.6781921,41.4861946,56.2253571,41.4365044,55.8329353,41.3954506z"/>
		<g>
			<path d="M58.823822,44.6972046c-0.0176353,0.0503845-0.0047607,0.1101456,0.0471382,0.148941
				c0.0204964,0.0095444,1.717289,1.1608696,2.4607353,2.053875c0.7753258,0.9323196,1.6435356,1.5024986,1.6844711,1.5215836
				c0.0104866,0.0097694,0.030983,0.0193138,0.0510063,0.0188599c0.0909233,0.0179482,2.0848351,0.2625351,3.5349236,0.2295341
				c0.1700516-0.0038681,0.3200226-0.0072823,0.4695816-0.0206947c0.0499878-0.0011368,0.0980682-0.0422096,0.1056976-0.0924263
				c0.0176315-0.0503883-0.0047684-0.0998611-0.0461807-0.1288872c-0.0519562-0.0388565-1.1605911-0.8235817-1.4887238-0.9860878
				c-0.112915-0.0574226-0.3967133-0.1309776-0.802002-0.2317352c-0.7605362-0.202713-1.9262924-0.5061226-2.382534-0.8357468
				c-0.6948814-0.5041809-2.3707581-1.6359634-2.3911972-1.6455078c-0.0204964-0.0095444-0.0409927-0.0190239-0.0609512-0.0185699
				l-1.0558243-0.0959625C58.8894844,44.6057472,58.8414001,44.6468163,58.823822,44.6972046z M59.3843346,44.9044685
				l0.5728989,0.0469551c0.2271347,0.1447868,1.7168121,1.1508713,2.3602066,1.626194
				c0.497654,0.3586502,1.6330299,0.6528015,2.4644661,0.8738594c0.3548203,0.0918961,0.6686478,0.1647682,0.7610016,0.2126503
				c0.2052765,0.1053696,0.7948608,0.5019035,1.1473083,0.7538795l-0.0900345,0.0020485
				c-1.3400345,0.0304947-3.2225876-0.1866608-3.4745064-0.2209015c-0.1447296-0.0967369-0.9214783-0.6390305-1.6011086-1.453476
				C60.9720879,46.0782318,59.9438934,45.3016853,59.3843346,44.9044685z"/>
			<path d="M41.5296745,33.4914017c0.0324135,0.0492477,0.1385956,0.1768265,0.2795753,0.4035873
				c0.1638641,0.2862968,0.5477142,0.7775345,0.6220169,0.8658028c-0.0114403-0.029705-0.0447464-0.0989494-0.143364-0.2766876
				C42.1131363,34.1780968,41.6464043,33.6287498,41.5296745,33.4914017z"/>
		</g>
		<path class="st14" d="M59.9189911,50.231987c1.4996758,0.5858345,3.1092834,1.1691666,3.370739,1.1932449
			c0.0499916-0.0011406,0.1404991,0.0068092,0.2805214,0.003624c-0.0819321-0.0381737-0.1638565-0.0762825-0.2462006-0.1243935
			c-0.5838699-0.2766762-1.1391983-0.5840302-1.6863632-0.9316063c-0.6196213-0.3958511-1.1839523-0.8929901-1.7578125-1.3799057
			c0.0014305,0.029995,0.012394,0.0497017,0.0138245,0.0797005C59.9541893,49.5012436,59.96278,49.8910408,59.9189911,50.231987z"/>
		<path class="st14" d="M45.6114273,41.8180542c1.1349068,0.704113,3.6903687,2.2258911,6.3582687,3.7950974
			c0.0371094-0.4808006,0.1232567-0.9827347,0.2136917-1.3948021c-1.3105545-0.610096-2.6473274-1.1396446-4.0103188-1.5886421
			c-0.844368-0.2807579-1.6982079-0.5512886-2.5516319-0.811882C45.6214371,41.8178253,45.6214371,41.8178253,45.6114273,41.8180542
			z"/>
		<path class="st14" d="M52.2168541,45.7575455c0.134304,0.0869026,0.278141,0.1636429,0.4124451,0.2506104
			c-0.0162811-0.5496521,0.0599136-1.0513573,0.2508087-1.4556465c-0.1437759-0.0767403-0.2976227-0.1532516-0.4509964-0.2197647
			C52.3296204,44.7650414,52.2439499,45.2769127,52.2168541,45.7575455z"/>
	</g>
	<g>
		<g>
			<path d="M53.5163193,42.3010063l0.0800171,0.039978c0.1300049,0,0.4000244-0.1300049,0.6400146-0.75l-0.2600098-0.3099976
				l-0.3550301-0.1220207C53.5513039,41.2089539,53.3063583,41.9009819,53.5163193,42.3010063z"/>
			<path class="st18" d="M53.9289131,41.5279732l0.026474,0.0156021l0.0070305,0.0279541l-0.0250244,0.0383415l-0.0541611-0.0429077
				l0.0019188,0.1384811l0.0172424,0.0064964l0.0194435-0.012352l0.0274391-0.0149384l-0.0097389,0.1059685l-0.0235748,0.0923157
				l-0.0536995,0.0415916l0.0430298-0.1046638l-0.0471306-0.0149536l-0.0308571,0.0221138l-0.0857544,0.0519753
				l-0.0294151,0.0760841l-0.0342484,0.0292435l-0.0296516,0.0338097l-0.0082893,0.1599121l-0.0245209-0.0766983
				l-0.0196686-0.0299072l0.0065727-0.0565796l0.010952-0.0942612l-0.0118942-0.0747528l-0.0135574-0.1709862l0.0568581-0.0910187
				l-0.0223656,0.1040192l0.0062904,0.1007614l0.0867348-0.0825386l0.0663223-0.0396461l0.0179977-0.06633l-0.0050888-0.0890617
				l-0.0002251-0.042263l0.0847778-0.0214386L53.9289131,41.5279732 M53.9357529,41.3140869l-0.291954-0.0988579
				c-0.056633,0.1332817-0.2656593,0.7150993-0.0881729,1.0687943c0.0551414,0.0123444,0.3318176,0.0435867,0.6135101-0.6767235
				L53.9357529,41.3140869"/>
		</g>
	</g>
</g>
</svg>
