<?xml version="1.0" encoding="utf-8"?>
<!-- Generator: Adobe Illustrator 27.6.1, SVG Export Plug-In . SVG Version: 6.00 Build 0)  -->
<svg version="1.1" id="Layer_1" xmlns="http://www.w3.org/2000/svg" xmlns:xlink="http://www.w3.org/1999/xlink" x="0px" y="0px"
	 viewBox="0 0 172.8999939 90" style="enable-background:new 0 0 172.8999939 90;" xml:space="preserve">
<style type="text/css">
	.st0{fill:#8797C6;}
	.st1{fill:#CCCCCC;}
	.st2{fill:#3751A0;}
	.st3{fill:#F79420;}
	.st4{fill:#FFFFFF;}
	.st5{fill:#B3B3B3;}
	.st6{fill:#797979;}
	.st7{fill:#888888;}
	.st8{fill:#BABABA;}
	.st9{fill:#1A1A1A;}
	.st10{fill:#FF0000;}
	.st11{fill:#BF0000;}
	.st12{fill:#4D4D4D;}
	.st13{fill:#333333;}
	.st14{fill:#8C0000;}
	.st15{fill:#FFFF00;}
</style>
<g>
	<g>
		<path d="M62.4052124,82.1609879l0.3099976,1.2999878c0.039978,0.1700439,0.1900024,0.2900391,0.3599854,0.2900391
			c0.0200195,0,0.0400391-0.0100098,0.0599976-0.0100098l6.1000366-1.0599976l8.2099609-1.9299927
			c0.1500244,0.2199707,0.4400024,0.2699585,0.6500244,0.1199951l0.9899902-0.6799927
			c0.3200073-0.2200317,0.4299927-0.6199951,0.2999878-0.9800415L79.71521,78.530983v4.5200195h7.6099854
			c-0.0799561,0.3699951-0.1199951,0.7600098-0.1199951,1.1500244c0,0.1900024,0.0100098,0.3799438,0.0300293,0.5599976
			c0.2799683,2.9299927,2.7600098,5.2299805,5.7600098,5.2299805c3.0099487,0,5.4899902-2.2999878,5.7699585-5.2299805
			c0.0200195-0.1800537,0.0300293-0.3699951,0.0300293-0.5599976c0-0.3900146-0.0400391-0.7800293-0.1199951-1.1500244h35.3999634
			l0.2399902-0.6400146h0.6500244c-0.1900024,0.5599976-0.289978,1.1699829-0.289978,1.7900391
			c0,0.1900024,0.0099487,0.3799438,0.0299683,0.5599976c0.2800293,2.9299927,2.7600098,5.2299805,5.7700195,5.2299805
			s5.4899902-2.2999878,5.7700195-5.2299805c0.0199585-0.1800537,0.0299683-0.3699951,0.0299683-0.5599976
			c0-0.6200562-0.0999756-1.2300415-0.289978-1.7900391h0.4499512l0.8000488,2.0499878h5.4699707
			c1.4500122,0,2.6199951-1.1699829,2.6199951-2.6099854v-3.539978c0-1.4400024-1.1699829-2.6199951-2.6199951-2.6199951h-0.6400146
			v-3.8200073c0-1.7999878-1.2599487-3.2999878-2.9899902-3.5800171l-11.3800049-1.8099976l-8.2399902-6.3399658h-8.3599854
			c-1.4500122,0-2.6300049,1.2099609-2.6300049,2.6899414v4.2600098h-1.3900146l0.4899902-1.9199829
			c0.1300049-0.0599976,0.2300415-0.1900024,0.2300415-0.3400269v-4.6899414c0-0.210022-0.1700439-0.3800049-0.3800049-0.3800049
			h-2.8699951c-0.2000122,0-0.3699951,0.1699829-0.3699951,0.3800049v1l-3.25,5.8999634h-1.210022v2.8200073h-1.2000122v-6.0999756
			H101.96521l-0.0200195,0.0299683l-10.8200073-3.539978l-0.5799561-0.1900024l0.0100098-0.0300293
			c0.0999756-0.2799683-0.0500488-0.5799561-0.3300171-0.6699829l-0.1300049-0.0499878
			c-0.2800293-0.0900269-0.5800171,0.0599976-0.6699829,0.3300171l-0.0300293,0.0899658l-11.2000122-2.7299805
			c-0.0499878-0.0200195-0.0899658-0.0499878-0.1399536-0.0700073l-2.0900269-0.539978
			c-0.3200073-0.0800171-0.6500244,0.0899658-0.75,0.4099731l-0.2000122,0.6099854
			c-0.0599976,0.1799927-0.0499878,0.3800049,0.0200195,0.5499878c0.0299683,0.0599976,0.0599976,0.1199951,0.0800171,0.1800537
			c0.1999512,0.4499512,0.3999634,0.8899536,0.5999756,1.3399658c0.0999756,0.210022,0.2000122,0.4299927,0.2999878,0.6500244
			c0.1000366,0.2399902,0.2000122,0.4299927,0.5,0.3499756c0.0400391-0.0100098,0.3300171-0.0899658,0.3099976-0.1500244
			c-0.1499634-0.5899658-0.289978-1.1899414-0.4299927-1.7799683l1.3099976,0.3599854l-0.4299927,1.2700195l2.0499878,0.6900024
			l-0.0499878,0.1499634l5.9899902,1.9500122l0.9400024,0.2999878l3.4500122,1.1200562l1,0.3299561l2.6500244,0.8599854
			l5.6900024,1.8500366L98.71521,67.780983l-1.4400024-0.2799683c-0.2600098-0.2600098-0.5499878-0.4899902-0.8900146-0.6400146
			c-0.4199829-0.2000122-0.8899536-0.3099976-1.3800049-0.3099976c-0.0799561,0-0.1599731,0-0.2399902,0.0100098
			c-0.1599731,0.0100098-0.2799683,0.039978-0.4099731,0.0700073l-0.6500244,0.1699829l-1.0100098-0.210022l-2.289978-0.4499512
			c-0.1799927-0.2000122-0.3900146-0.3700562-0.6199951-0.5200195c-0.5100098-0.3500366-1.1300049-0.5499878-1.7999878-0.5499878
			c-0.25,0-0.4899902,0.0299683-0.7200317,0.0899658c-0.2299805,0.0499878-0.4500122,0.1300049-0.6599731,0.2300415
			l-3.2200317-0.6400146c-0.0799561,0.0700073-0.1799927,0.1099854-0.289978,0.1300049L77.255188,77.8010025l-8.289978,1.9500122
			l-6.2800293,1.289978c-0.0899658,0.0200195-0.1799927,0.0800171-0.2399902,0.1699829
			c-0.0499878,0.0800171-0.0700073,0.1900024-0.039978,0.2900391
			C62.4052124,81.5010147,62.3751831,82.0610123,62.4052124,82.1609879z M89.1552124,60.4410172l-0.1099854,0.3299561
			l-4.3699951-1.4199829L89.1552124,60.4410172z M101.1652222,64.7410049l-10.4199829-3.4100342h-0.0100098l-0.5599976-0.1799927
			l0.1300049-0.3800049l0.5699463,0.1900024l10.5599976,3.4500122l-0.0299683,0.0400391L101.1652222,64.7410049z
			 M82.2452393,73.3309708l1.7099609-3.5199585l1.210022,0.2399902c0.0800171,0.1199951,0.1499634,0.2399902,0.2399902,0.3499756
			c0.5900269,0.7700195,1.5299683,1.2700195,2.5800171,1.2700195c0.7399902,0,1.4199829-0.25,1.9699707-0.6699829
			l1.7900391,0.3599854h-1.710022l-7.6400146,1.9199829C82.3452148,73.2909927,82.2952271,73.3110123,82.2452393,73.3309708z"/>
		<polygon class="st0" points="63.21521,82.3610001 63.3552246,82.9410172 69.0852051,81.9410172 76.9852295,80.0809708 
			76.5452271,79.4510269 76.5452271,79.4109879 69.1251831,81.1609879 		"/>
		<g>
			<path class="st0" d="M87.6595383,62.9582939l0.5800171,0.1800537l0.1199951-0.3400269L87.6595383,62.9582939z
				 M87.6595383,62.9582939l0.5800171,0.1800537l0.1199951-0.3400269L87.6595383,62.9582939z M86.7195358,62.6482964
				l1.5200195,0.4900513l0.2999878-0.8900146L86.7195358,62.6482964z"/>
			<path class="st1" d="M120.4695358,66.3883438V81.048317h13.6400223l0.9699707-2.0999756
				c0.4700317-1.0400391,1.5200195-1.710022,2.6600342-1.710022h5.6099854c1.1699829,0,2.2399902,0.710022,2.7000122,1.789978
				h4.0200195v-3.5999756c0-0.789978-0.5599976-1.4799805-1.3000488-1.5999756l-11.8899536-1.9000244l-8.1000366-6.2299805
				h-7.6800003C120.7495651,65.6983414,120.4695358,66.0083389,120.4695358,66.3883438z"/>
			<rect x="111.7195358" y="73.7383194" class="st1" width="6.75" height="7.3099976"/>
			<path class="st1" d="M81.7195358,78.6482925v2.4000244h4.9799805l0.4700317-1.2600098
				c0.5-1.3099976,1.7700195-2.1900024,3.1799927-2.1900024h5.1500244c1.3200073,0,2.5199585,0.7700195,3.0799561,1.9700317
				l0.6900024,1.4799805h10.4500122v-4.9299927H97.12957c-0.0100098,0.0100098-7.25-0.039978-7.25-0.039978l-2.0300293,0.5599976
				l-5.6599731,1.4199829c-0.1600342,0.039978-0.2900391,0.1300049-0.3699951,0.2600098
				c-0.0300293,0.039978-0.0500488,0.0799561-0.0700073,0.1300049
				C81.7295456,78.5083389,81.7195358,78.5783463,81.7195358,78.6482925z"/>
			<path class="st0" d="M78.2095261,77.4383316l0.710022,1.0199585l0.5499878-1.1199951l0.0599976-0.1300049l4.0100098-8.2399902
				l1.2800293,0.25c-0.0599976-0.2299805-0.1000366-0.4599609-0.1100464-0.7099609
				c-0.0100098-0.0500488-0.0100098-0.0900269-0.0100098-0.1400146c0-0.210022,0.0200195-0.4199829,0.0600586-0.6199951
				c0.0799561-0.4299927,0.25-0.8200073,0.4799805-1.1699829l-1.6900024-0.3400269l-4.9400024,10.3699951L78.2095261,77.4383316z"/>
			<polygon class="st0" points="80.2195358,60.538311 81.2795334,60.8783379 86.7195358,62.6482964 88.5395432,62.248333 
				88.62957,61.998333 80.5995407,59.3883476 80.4595261,59.8083305 			"/>
			<polygon class="st0" points="89.8195724,62.3883476 89.4558182,63.5420189 101.7095261,67.5282974 101.8295212,67.378334 
				101.9695358,67.2082901 104.4595261,67.2082901 104.4595261,67.1583023 90.3095627,62.5483208 			"/>
			<polygon class="st2" points="111.3495407,72.0683365 115.0495529,72.0683365 116.7295456,65.4483414 114.9895554,65.4483414 			
				"/>
			<polygon class="st0" points="100.0395432,72.7583389 106.5195236,72.7583389 106.5195236,69.2082901 102.919548,69.2082901 			
				"/>
			<path class="st3" d="M117.0454788,63.5181313v0.9299889h-2.1199951v-0.9299889H117.0454788z M114.9254837,60.5081215v2.2600098
				h2.1199951v-2.2600098H114.9254837z"/>
			<path class="st4" d="M150.065506,71.868103v3.5600586c0-0.7900391-0.5599976-1.4800415-1.2999878-1.6000366
				l-11.8900146-1.8999634V68.368103l11.8900146,1.9000244C149.5055084,70.3881226,150.065506,71.078125,150.065506,71.868103z
				 M120.4655228,62.8281288v3.5599937c0-0.3800049,0.2799683-0.6900024,0.6300049-0.6900024h7.6800003v-3.5599937h-7.6800003
				C120.745491,62.1381264,120.4655228,62.4481239,120.4655228,62.8281288z"/>
			<polygon class="st5" points="128.775528,62.1381264 128.775528,65.6981201 136.8755035,71.9281616 136.8755035,68.368103 			"/>
			<polygon class="st6" points="133.6849518,73.3264008 128.4068146,68.3660202 122.0805664,68.3660202 122.0805664,73.3264008 			
				"/>
			<path class="st7" d="M140.4755402,89.9881592h12.8599854c1.0999756,0,1.9899902-1.1000366,1.9899902-2.4500122v-0.3400269
				c0-1.3499756-0.8900146-2.4400024-1.9899902-2.4400024h-7.0900269
				C145.9655304,87.6881104,143.4854889,89.9881592,140.4755402,89.9881592z M98.7655106,84.7581177h35.9400101
				c0.2799683,2.9299927,2.7600098,5.2300415,5.7700195,5.2300415H92.995491
				C96.0055008,89.9881592,98.4854813,87.6881104,98.7655106,84.7581177z M95.0055008,68.5481567
				c0.7200317,0,1.2999878,0.5799561,1.2999878,1.2999878c0,0.7099609-0.5700073,1.289978-1.2799683,1.2999878
				c-0.0100098,0-0.0100098,0-0.0200195,0c-0.0200195,0-0.039978,0-0.0599976-0.0100098
				c-0.1500244,0-0.2799683-0.0299683-0.4099731-0.0800171c-0.0100098,0-0.0200195-0.0099487-0.0400391-0.0099487
				c-0.4599609-0.2000122-0.789978-0.6600342-0.789978-1.2000122C93.705513,69.1281128,94.2855301,68.5481567,95.0055008,68.5481567
				z M86.7255325,68.1081543c0-0.0400391,0.0099487-0.0800171,0.0299683-0.1100464
				c0.1500244-0.539978,0.6500244-0.9299927,1.2299805-0.9299927c0.3600464,0,0.6900024,0.1500244,0.9200439,0.3800049
				c0.2299805,0.2300415,0.3800049,0.5599976,0.3800049,0.9199829c0,0.0700073-0.0100098,0.1400146-0.0200195,0.2000122
				c-0.0900269,0.6300049-0.6300049,1.1000366-1.2800293,1.1000366c-0.7099609,0-1.289978-0.5800171-1.289978-1.3000488
				C86.6955032,68.2781372,86.705513,68.1881104,86.7255325,68.1081543z M92.995491,81.3981323
				c1.5499878,0,2.7999878,1.25,2.7999878,2.7999878c0,1.5400391-1.25,2.7900391-2.7999878,2.7900391
				c-1.539978,0-2.789978-1.25-2.789978-2.7900391C90.205513,82.6481323,91.455513,81.3981323,92.995491,81.3981323z
				 M140.4755402,81.3981323c1.539978,0,2.7999878,1.25,2.7999878,2.7999878c0,1.5400391-1.2600098,2.7900391-2.7999878,2.7900391
				c-1.5400391,0-2.8000488-1.25-2.8000488-2.7900391C137.6754913,82.6481323,138.9355011,81.3981323,140.4755402,81.3981323z"/>
			<path class="st7" d="M19.3740959,88.6117554c-0.2936325-0.5598297-0.2185612-1.2432022-0.2055016-1.8515701
				c0.010397-0.4842606-0.2152348-2.152832,0.1526814-2.3791199c0.0565338-0.0347748,0.1947346,0.0136871,0.2604122-0.0000458
				c0.2681122-0.056076,0.610466,0,0.8839779,0c1.0183125,0,2.0366268,0,3.0549393,0c3.3061676,0,6.6123352,0,9.9185047,0
				c4.1485367,0,8.2970734,0,12.44561,0c3.9704819,0,7.9409637,0,11.9114456,0c2.7719994,0,5.5440025,0,8.3160019,0
				c0.681015,0,1.3620377,0,2.043045,0c0.5499878,0,1.1099854,0.0700073,1.6500244,0.2199707
				c0.4400024,0.1199951,0.8599854,0.2900391,1.25,0.5200195c0.5299683,0.2999878,1.1999512,0.7999878,1.5299683,1.3900146
				h7.1600342v-1.75h7.4899902c0.2799683,2.9299927,2.7600098,5.2299805,5.7600098,5.2299805h-13.25v-2.0599976h-7.3100586
				c-0.7999878,0.8999634-1.9199829,1.460022-3.0699463,1.8099976c-0.5800171,0.0800171-1.1400146,0.1699829-1.710022,0.25
				c-1.4986649,0-2.9973297,0-4.4959984,0c-3.6055679,0-7.2111397,0-10.8167114,0c-4.3829041,0-8.7658119,0-13.148716,0
				c-3.8306656,0-7.661335,0-11.4920044,0c-1.2927532,0-2.5855083,0-3.8782635,0
				c-1.5219727,0-3.5573559,0.2046356-4.4270115-1.3380508C19.3888073,88.6392975,19.38134,88.6255646,19.3740959,88.6117554z"/>
			<path class="st8" d="M152.7055206,77.6881104c0.3399658,0,0.6199951,0.2800293,0.6199951,0.6199951v0.8000488
				c-0.2000122-0.0500488-0.4099731-0.0800171-0.6199951-0.0800171h-0.6400146v-1.3400269H152.7055206z M148.1855011,81.0281372
				l0.1500244,0.7399902l0.2699585,0.6900024h4.1000366c0.3399658,0,0.6199951-0.2700195,0.6199951-0.6099854v-0.2000122
				c0-0.3400269-0.2800293-0.6199951-0.6199951-0.6199951H148.1855011z M138.5197906,82.8225021
				c0,0.5936737,0.485733,1.0755386,1.0794067,1.0755386c0.5936432,0,1.079361-0.4818649,1.079361-1.0755386
				c0-0.5975037-0.4857178-1.0793686-1.079361-1.0793686C139.0055237,81.7431335,138.5197906,82.2249985,138.5197906,82.8225021z
				 M91.2261124,82.8225021c0,0.5936737,0.4857178,1.0755386,1.0793915,1.0755386
				c0.5936432,0,1.0793686-0.4818649,1.0793686-1.0755386c0-0.5975037-0.4857254-1.0793686-1.0793686-1.0793686
				C91.7118301,81.7431335,91.2261124,82.2249985,91.2261124,82.8225021z"/>
			<polygon class="st2" points="111.7155228,68.578125 111.7155228,69.8381348 112.4055252,68.578125 			"/>
			<polygon class="st2" points="116.5755081,69.0881348 118.4655228,69.0881348 118.4655228,71.7381592 115.9055252,71.7381592 			
				"/>
			<polygon class="st2" points="114.3855057,62.2981606 114.3855057,64.9781494 112.8154984,67.828125 111.3455276,67.828125 			"/>
			<path class="st2" d="M96.3455276,74.1381226h-0.5700073c0,0,0,0-0.0100098,0l-3.039978,0.0100098h-3.1400146
				l-7.7200317,1.9299927c0.0400391-0.1099854,0.0900269-0.210022,0.1700439-0.3200073l0.1099854-0.1099854
				c0.1799927-0.2000122,0.4099731-0.3400269,0.6900024-0.4199829l0.0599976-0.0100098l7.5100098-1.8900146l6.5999756-0.0100098
				L96.3455276,74.1381226z"/>
			<polygon class="st0" points="78.2255325,59.7081337 78.4655228,58.9981117 79.6854935,59.4081459 79.4455032,60.1181068 			"/>
			<path class="st0" d="M92.3054886,67.9681396c-0.3699951,0.539978-0.5999756,1.1799927-0.5999756,1.8800049
				c0,0.2099609,0.0200195,0.4099731,0.0599976,0.5999756c0,0.0200195,0,0.0300293,0.0100098,0.0400391
				c0,0.0299683,0,0.0499878,0.0100098,0.0699463c0,0.0200195,0.0099487,0.0300293,0.0099487,0.0400391l-1.1999512-0.2300415
				c0.2999878-0.3999634,0.5199585-0.8499756,0.6199951-1.3599854c0.0100098-0.0199585,0.0199585-0.0499878,0.0199585-0.0799561
				c0.0200195-0.1100464,0.0300293-0.2200317,0.0400391-0.3300171c0.0100098-0.0800171,0.0100098-0.1500244,0.0100098-0.2300415
				c0-0.2099609-0.0400391-0.4099731-0.0800171-0.6099854L92.3054886,67.9681396z"/>
			<path class="st0" d="M100.0955276,69.5081177l-0.5100098,0.6400146l-0.210022,0.25l-1.1900024,1.4699707l-0.5199585-0.1099854
				c0.0199585-0.039978,0.0599976-0.0700073,0.0899658-0.1099854h0.0100098
				c0.3399658-0.5100098,0.539978-1.1300049,0.539978-1.7999878c0-0.2399902-0.0299683-0.4800415-0.0899658-0.710022
				L100.0955276,69.5081177z"/>
			<polygon class="st0" points="105.0955276,66.0181274 104.3054886,65.7581177 106.5155106,65.7581177 106.5155106,67.2081299 
				105.2155228,67.2081299 			"/>
			<rect x="108.5155106" y="71.8581543" class="st2" width="1.2000122" height="2.2599487"/>
		</g>
		<path d="M64.9882889,81.9562759l0.3400269,1.6400146l0.3200073,1.5800171
			c0.0299683,0.1699829,0.1900024,0.2999878,0.3699951,0.2999878c0.0200195,0,0.0499878-0.0100098,0.0700073-0.0100098
			l2.1300049-0.4400024c0.1999512-0.039978,0.3299561-0.2399902,0.289978-0.4400024l-0.3200073-1.5799561l-0.3399658-1.6400146
			c-0.0400391-0.2000122-0.2300415-0.3400269-0.4400024-0.289978l-2.1300049,0.4299927
			C65.0783157,81.5563126,64.9483109,81.746315,64.9882889,81.9562759z"/>
		<polygon class="st0" points="65.7982864,82.1662979 65.9882889,83.0763321 66.4982986,82.9662857 67.3783035,82.786293 
			67.1883011,81.8863297 		"/>
		<polygon class="st0" points="66.1383133,83.8063126 66.3082962,84.6562881 67.6983109,84.3663101 67.5283279,83.5262833 
			67.0083084,83.6263199 		"/>
	</g>
	<g>
		<g>
			<path d="M34.3994179,77.7217712c0.0123482,0.0186691,0.0234909,0.0273972,0.034626,0.0360718l0.029747-0.0036087
				C34.4427185,77.7467651,34.4117661,77.7404404,34.3994179,77.7217712z M34.3994179,77.7217712
				c0.0123482,0.0186691,0.0234909,0.0273972,0.034626,0.0360718l0.029747-0.0036087
				C34.4427185,77.7467651,34.4117661,77.7404404,34.3994179,77.7217712z M34.3994179,77.7217712
				c0.0123482,0.0186691,0.0234909,0.0273972,0.034626,0.0360718l0.029747-0.0036087
				C34.4427185,77.7467651,34.4117661,77.7404404,34.3994179,77.7217712z M34.3994179,77.7217712
				c0.0123482,0.0186691,0.0234909,0.0273972,0.034626,0.0360718l0.029747-0.0036087
				C34.4427185,77.7467651,34.4117661,77.7404404,34.3994179,77.7217712z"/>
			<path d="M34.3994179,77.7217712c0.0123482,0.0186691,0.0234909,0.0273972,0.034626,0.0360718l0.029747-0.0036087
				C34.4427185,77.7467651,34.4117661,77.7404404,34.3994179,77.7217712z"/>
			<path d="M17.8616867,82.891304c0.2690716,1.3876648,1.2523327,2.5174484,1.8905163,3.7092743l0.1676025,0.3020172
				c0.471489,0.9803772,1.7292461,0.9687576,2.6121826,1.0228348c0.0905609,0.0061111,0.1815128-0.0205917,0.2534199-0.0762329
				c0.0692482-0.0535812,0.0750008-0.1293945,0.1329689-0.1892624c0.1261902-0.1303253,0.3151951-0.1719589,0.489048-0.187973
				c0.3736935-0.0344238,0.7473888-0.0688477,1.1210842-0.1032715c0.5107098-0.0470428,1.0214176-0.0940857,1.5321274-0.1411285
				c0.5733795-0.0528183,1.146759-0.105629,1.7201405-0.1584473c0.5617046-0.0517426,1.1234093-0.1034851,1.6851158-0.15522
				c0.4756851-0.0438232,0.9513721-0.0876389,1.4270592-0.1314545c0.182354-0.0167999,0.3647079-0.0335922,0.5470619-0.0503922
				c0.1577587-0.014534,0.4185829-0.078476,0.5571575,0.0073471c0.0255833,0.0158463,0.0463238,0.0382462,0.0667248,0.0603638
				c0.1078606,0.1169357,0.1249809,0.2566376,0.3095932,0.2942505c0.0310135,0.0063248,0.0595589-0.007225,0.0806389,0.0003052
				c0.042099,0.0150528,0.0854568,0.0399857,0.1350784,0.0339584c0.0099373-0.0012054,4.7457771-0.7369385,4.7457771-0.7369385
				l16.3489265-1.99366c0.9987373-0.0708237,2.0062103-0.1527863,3.0148315-0.2247467
				c0.1213264-0.0086517,0.2288208-0.0633469,0.2928963-0.1697922c0.0333252-0.0553589,0.0456543-0.1134949,0.0527573-0.1767502
				c0.0076714-0.0683212-0.0098839-0.1403427,0.0126724-0.2064209c0.052269-0.1530991,0.2860909-0.129776,0.4154816-0.1454773
				c0.3731308-0.0452728,0.7462616-0.0905457,1.1193886-0.1358109c0.5074081-0.0615616,1.0148125-0.1231308,1.5222168-0.1846924
				c0.5675964-0.0688629,1.1351929-0.1377258,1.7027893-0.2065964c0.5537071-0.0671768,1.1074104-0.1343536,1.6611176-0.2015381
				c0.4657288-0.0565033,0.9314537-0.1130066,1.3971901-0.1695175c0.1767197-0.0214386,0.3534393-0.0428772,0.5301666-0.0643234
				c0.1487656-0.0180511,0.3816223-0.0933609,0.4892654,0.0319443c0.0533447,0.0620956,0.0741272,0.1458054,0.0824814,0.2272415
				c0.0148926,0.1452332-0.0253754,0.2592926,0.0858536,0.3823395c0.0854721,0.0945511,0.2123718,0.1373444,0.3373947,0.1142502
				c1.1132889-0.2055893,3.013031-0.4058304,4.20755-0.7724075c0.0595627-0.007225,0.0893707-0.0108414,0.1179199-0.0243301
				c0.0484238-0.0159531,1.1130447-0.4573975,1.8030853-0.913826c0.7646561-0.5058136,1.2759476-1.272995,1.4142303-2.1258087
				c0.0965347-0.6161499-0.2531204-1.0068741-0.6294556-1.2029648l0.2798615-1.595314
				c0.0063171-0.0310135,0.0039139-0.050827,0.001503-0.0707016c0.0982895-0.7674255-0.44384-1.4168777-1.3373718-1.9732819
				l-4.1369095-1.9660568c-3.7476349-1.5801392-8.4915314-3.0695953-12.397377-2.0517654
				c-0.3414574,0.0918427-0.6717224,0.1923523-0.9984398,0.3226166c-0.0012054-0.0099411-0.4632912-0.1653748-0.4632912-0.1653748
				c-3.7878571-1.4140549-7.8696671-2.5104218-11.9292603-1.8466492c-3.3156509,0.4022827-8.3862686,2.115509-11.7096882,2.9518738
				c-1.9544849,0.2472229-5.5905247,0.7488098-7.6607647,1.4532394c-1.8996773,0.5327301-4.437973,1.3644714-4.5234318,3.7320251
				c-0.0396252,0.3372421,0.0497398,0.6587753,0.2050018,0.9421921c-0.0460148,0.0357666-0.0809479,0.0802765-0.105875,0.1236343
				c-0.4165688,0.967186-0.9468327,1.8273544-0.9632168,2.9373856
				C17.5868874,81.7057495,17.7572002,82.2794342,17.8616867,82.891304z M34.3994179,77.7217712
				c0.0123482,0.0186691,0.0433006,0.0249939,0.064373,0.0324631l-0.029747,0.0036087
				C34.4229088,77.7491684,34.4117661,77.7404404,34.3994179,77.7217712z"/>
			<path class="st9" d="M57.0713501,82.6771622c0.2902679,2.3924255,2.4608917,4.0933838,4.8533821,3.8031082
				c2.3824883-0.2890625,4.0834389-2.4597473,3.7931709-4.8521729c-0.2890701-2.3825531-2.4597549-4.0835037-4.842247-3.7944412
				C58.4831696,78.1239319,56.78228,80.2946091,57.0713501,82.6771622z"/>
			<path class="st9" d="M23.0606289,86.1387329c0.2902737,2.3924866,2.4609528,4.0933762,4.843504,3.804306
				c2.3924294-0.2902679,4.0933838-2.4608917,3.8031082-4.8533783c-0.2890625-2.3824921-2.4597473-4.0834427-4.8521748-3.7931747
				C24.4725132,81.585556,22.7715664,83.7562408,23.0606289,86.1387329z"/>
			<path class="st10" d="M34.4665947,77.7575836c0.0147362,0.0054016,0.0251389,0.0196991,0.0405617,0.021637
				c0.0098763-0.0011978,0.8383675,0.0191574,1.6645088,0.3520737c0.1374893,0.053833,0.1522408,0.0923157,0.1522408,0.0923157
				l-1.8455353,0.6470413c-0.0198746,0.0024109-0.028553,0.0134888-0.0372849,0.0246277
				c-0.6441536-0.2199173-1.4387817-0.4577866-2.1034966-0.7311554L34.4665947,77.7575836z"/>
			<path class="st1" d="M64.7470551,75.7018814c1.013855,0.2194519,3.684639,0.8121185,4.5233688,1.0830688
				c1.039444,0.3473053,1.4148788,0.4528732,1.7473068,0.4528122c0.2120514,0.0045242,0.4517975-0.0950851,0.6046524-0.1639862
				c-0.2015686-0.1669388-0.5788727-0.453598-0.85746-0.5910263c-0.279808-0.1474228-1.5468979-0.2958832-2.5585861-0.4148865
				c-0.4190292-0.0498657-0.8071136-0.0934677-1.1046829-0.13797c-0.9632645-0.134964-2.0071106-0.2701721-2.2017593-0.2969666
				L64.7470551,75.7018814z"/>
			<path class="st11" d="M39.0761642,80.9822083c0.0502853,0.1651306,0.1104507,0.3291168,0.1916924,0.5005722
				c0.997776,1.9137802,1.5062332,2.6176071,1.7745895,2.8368835c0.2867279-0.0448074,0.5745964-0.0797348,0.8624611-0.1146622
				l0.0099373-0.0012054c0.7102661-0.2071152,1.403019-0.3918686,2.0720406-0.5233994
				c4.4747658-0.8955154,8.1880722-1.5071869,11.2730675-1.9016495c-0.0003624-0.2517929,0.0116272-0.4849091,0.0209618-0.6572723
				c0.0300484-0.416687,0.0004807-1.1585159-0.0712433-1.9153976c-1.1500244,0.0690079-4.9190941,0.304718-5.4190674,0.3351288
				c-0.0075264,0.02108-0.0138474,0.0520935-0.0312576,0.0743103
				C46.3369217,80.3833618,42.6250038,80.5919647,39.0761642,80.9822083z"/>
			<path class="st10" d="M41.9148445,84.2037964c0.8339119-0.1011734,1.6725769-0.1626587,2.5197372-0.1546478
				c3.6442261-0.0190887,7.2334137-0.2429962,10.8562088-0.5213318c-0.0159607-0.3808517-0.0367966-1.1338272-0.030838-1.7490692
				c-3.0849953,0.3944626-6.7983017,1.006134-11.2730675,1.9016495
				C43.3178635,83.8119278,42.6251106,83.9966812,41.9148445,84.2037964z"/>
			<path class="st12" d="M37.2946358,85.8925629l9.4308395-1.1442184c-2.7847862,0.0457001-5.5484886,0.0989914-8.2624474,0.8110657
				C38.0719337,85.6572113,37.6832542,85.7748947,37.2946358,85.8925629z"/>
			<path class="st13" d="M34.6936684,75.580719c0.8516808,0.1283951,2.8326607,0.4319839,4.2944031,0.6072388
				c0.2554054,0.0294495,0.5306854,0.056488,0.8269806,0.0909958c-0.2852135-0.6906433-0.6015663-2.0524673-0.6954536-2.4943924
				C37.5646362,74.335907,35.5347519,75.2067337,34.6936684,75.580719z"/>
			<path class="st10" d="M50.4843216,77.0394745c0.0243912,0.1179199,0.0599213,0.2445679,0.0719643,0.343811
				c1.4259109-0.203186,1.3578568-0.5978928,1.686676-0.6277008c0.2692604-0.022583,1.0463142,0.4875107,1.4088631,0.7356873
				l0.0083694-0.2629318c-0.158268-0.1420059-0.7455025-0.6650467-1.4218102-0.9255142
				c-0.8348122-0.3217773-1.1564064-0.2324066-1.3693542,0.0049973
				C50.6461411,76.5463638,50.5219574,76.9341431,50.4843216,77.0394745z"/>
			<path class="st11" d="M50.5562859,77.3832855c0.0307159,0.0869598,0.047821,0.1453247,0.0625725,0.1838074
				c0.1450157,0.0327606,0.7481575-0.060524,1.1665878-0.1818161c0.1080399-0.0231857,0.1627846-0.0700989,0.2187271-0.1071396
				c0.1828384-0.1531372,0.3005142-0.0968933,0.5192451,0.1283951c0.300209,0.316124,0.3498955,0.3100967,0.7469444,0.2619171
				c0.2581177-0.031311,0.3564682-0.133873,0.3826599-0.1672974L53.651825,77.491272
				c-0.3625488-0.2481766-1.1396027-0.7582703-1.4088631-0.7356873
				C51.9141426,76.7853928,51.9821968,77.1800995,50.5562859,77.3832855z"/>
			<path class="st10" d="M39.3871078,77.3181076c1.8856468,0.264801,3.7538338,0.5518875,5.6294823,0.8179016
				c0.5565834,0.1036987,4.3235474,0.4324112,4.7737122,1.1534042l5.4003983-0.3227844
				c-0.0397491-0.3276138-0.0794868-0.6551666-0.1267624-0.9617081c-0.1245995-0.8612518-0.5831413-1.3193665-0.6856995-1.417717
				c-0.0782356,0.0195084-0.2259636,0.0475159-0.4840775,0.0788345c-0.1289978,0.0156555-0.2878685,0.0349274-0.4677544,0.046669
				c0.2659492,0.1994629,0.4365616,0.3600769,0.4489021,0.378685c0.0234299,0.0274048,0.0369835,0.0560074,0.0405922,0.085762
				l-0.016201,0.3645859c0.0012054,0.0099411,0.0036163,0.0298157-0.0051155,0.0409546
				c-0.0162048,0.0321579-0.1274986,0.2773285-0.5941086,0.3339386c-0.4467354,0.0541992-0.5880775,0.0512466-0.9575424-0.3370743
				c-0.1149673-0.117012-0.1471291-0.1332779-0.1483345-0.1432114c-0.0087318,0.0111389-0.027401,0.0234909-0.0360718,0.0346222
				c-0.064682,0.0481186-0.1468277,0.1185226-0.3131599,0.1588745c-0.0099373,0.0012054-1.2104912,0.3180923-1.3958549,0.1190033
				c-0.1025658-0.0984116-0.1793442-0.4819107-0.2157822-0.6991348c-0.0024109-0.0198746-0.0048141-0.0396881,0.0039177-0.050827
				c-0.0012054-0.0099411,0.0150566-0.042099,0.028904-0.0941925c-1.0222244,0.0434799-2.3991089,0.0694885-3.2363319,0.0602798
				c-2.3106461-0.031929-5.2470703-0.2397614-7.2358818-0.4416962
				C39.795536,76.5331573,39.5946388,76.8698654,39.3871078,77.3181076z"/>
			<path class="st13" d="M39.3617554,73.7048264c0.0914803,0.4220505,0.4430046,1.9911728,0.7385178,2.6000214
				c1.9677353,0.1944046,4.7293243,0.3730392,6.9395218,0.4071274c0.8583031,0.0167389,2.3058853-0.0078278,3.3268509-0.0611801
				c0.0701027-0.1696472,0.1774826-0.3639908,0.3206329-0.5123215c0.3386955-0.3634415,0.8089142-0.3903046,1.643734-0.0684662
				c0.2861137,0.1163483,0.5559731,0.2649155,0.7860909,0.4183731c0.4491425-0.0343857,0.766819-0.0729294,0.9753113-0.0982285
				c-0.6013832-0.3903732-2.2997437-1.3437805-3.6559601-2.0123062c-2.2439384-1.1061096-3.8018837-1.6285706-4.9668579-1.8069458
				c-1.5915337-0.2436829-3.5401001,0.379158-5.3901024,0.9058075C39.8646812,73.53302,39.612587,73.6139603,39.3617554,73.7048264z
				"/>
			<path class="st11" d="M38.9300079,78.8643951c0.4566727-0.0554047,0.9070244-0.0797958,1.3076859-0.0982208
				c0.8236771-0.0193253,2.4087486,0.0099411,3.8635635,0.0449982c2.5134773,0.2087936,4.5482979,0.3748932,5.2302666,0.4331894
				c-0.02108-0.0075226-0.0432968-0.0249329-0.0643768-0.0324554c-3.2153778-0.9294891-6.6478615-1.1577454-9.9801941-1.6399002
				c-0.1100883,0.2551117-0.2077713,0.5288773-0.2769661,0.7891083c-0.0351715,0.1251373-0.0505295,0.247879-0.0670319,0.360672
				C38.939045,78.7726746,38.9339218,78.8135681,38.9300079,78.8643951z"/>
			<path class="st10" d="M39.0208206,80.8579636c3.465786-0.4104156,7.0838203-0.728508,10.438858-1.3873978
				c0.0484161-0.0159607,0.0969009-0.0318604,0.1353836-0.0466156c-0.0580559-0.0634766-0.1570663-0.1320648-0.2635384-0.1795883
				c-0.670887-0.0495605-2.685833-0.218071-5.1695023-0.430481c-0.0198708,0.0024109-0.0396843,0.0048141-0.0607643-0.0027084
				c-1.4548149-0.0350571-3.0398865-0.0643234-3.8635635-0.0449982c-0.4006615,0.018425-0.8510132,0.0428162-1.3076859,0.0982208
				C38.8543053,79.5686493,38.8309402,80.2061081,39.0208206,80.8579636z"/>
			<path class="st11" d="M18.3617191,80.7857132c0.1841049,0.1892319,0.583622,0.4933014,1.0360794,0.2369232
				c-0.2349873-0.1930695-0.5027351-0.5735703-0.5735016-0.9075012c-0.0316162-0.177475-0.0430584-0.4380035-0.0545006-0.6985321
				c-0.0376358,0.1053314-0.0950317,0.2130051-0.1425514,0.3194809
				C18.4609127,80.1088715,18.3914757,80.4497299,18.3617191,80.7857132z"/>
			<path class="st1" d="M19.0601292,80.0663528c0.0743752,0.3636856,0.3992805,0.7171402,0.5304508,0.8019943
				c0.0361309-0.0346298,0.0809402-0.0803375,0.1170101-0.1149673c-0.0012054-0.0099335-0.0111427-0.008728-0.0111427-0.008728
				s-0.0180626-0.1488724-0.1008091-0.5820618c-0.07197-0.3438721-0.0714264-0.8375168-0.069315-1.0694427
				c-0.0322227-0.0162582-0.0643768-0.0324631-0.0878677-0.0598602c-0.104969-0.1182251-0.2211418-0.2451706-0.3285141-0.3832092
				c-0.0313148,0.0743256-0.0538387,0.1374969-0.0862999,0.2018738
				C19.0112953,79.1657181,19.0041847,79.7709579,19.0601292,80.0663528z"/>
			<path class="st11" d="M19.8314705,80.1138077c0.0304108,0.1675415,0.0548,0.2854614,0.0656433,0.3748322
				c0.1109886-0.1645889,0.2207794-0.3390579,0.3281593-0.5334015c0.2520332-0.4133682,0.5290031-0.8700333,0.8887787-1.2259598
				l-1.341053,0.4044571c0,0,0,0-0.0099373,0.0012054C19.7622166,79.3768005,19.7655888,79.8196182,19.8314705,80.1138077z"/>
			<path class="st10" d="M19.3649235,77.7628784c0.1468296,0.213913,0.3321934,0.413002,0.4976292,0.6145782
				c0.3796425-0.0259552,2.0633621-0.1798859,2.0633621-0.1798859c0.0099373-0.0012054,0.0111427,0.0087357,0.02108,0.0075302
				c0.4834118-0.2500534,0.9132309-0.4431763,1.228796-0.5822372c-0.1500778,0.0081253-0.3101444,0.0175247-0.4602222,0.02565
				c0.1886196-0.0228806,0.3759727-0.0556946,0.5645924-0.0785828c0.19133-0.0836487,0.3627853-0.1648941,0.3913898-0.1784439
				c0.0547466-0.0469131,0.3585091-0.3658524,0.6798019-0.7070236c-1.2710094,0.2348175-2.5257015,0.4374008-3.7590771,0.5668716
				c-0.05089-0.0039062-0.0493851-0.0746078-0.0096359-0.0794296c0.3513432-0.0929871,0.7062969-0.1562195,1.060051-0.2293243
				c-0.1495304-0.1530914-0.0617256-0.4256592-0.0337219-0.6103668c0.077507-0.5231552,0.565136-0.9046707,1.0187359-1.1511002
				c-0.4879265,0.129715-0.9583931,0.2371521-1.3717022,0.3175507c0.6915398-0.1947556,1.6340351-0.4803391,2.5379906-0.7511597
				c1.9523182-0.6800995,3.9840088-1.3698273,6.0069695-2.0484161c-2.1394329,0.2998428-4.7926884,0.6821976-6.6207638,1.3069458
				c-1.2219315,0.390007-2.5241432,0.6990662-3.3284798,1.5421295
				C19.3063965,76.1179962,18.9247589,77.0406723,19.3649235,77.7628784z"/>
			<path class="st13" d="M21.6490116,76.9115677c0.0012054,0.0099335,0.0123482,0.0186615,0.0036163,0.029808
				c0.5721779-0.0996704,1.1455688-0.1893463,1.714077-0.3187561c1.39645-0.2802811,4.2052059-0.7922897,5.5964813-1.0316162
				c0.9196129-0.1417618,1.9743595-0.2496262,2.7982731-0.3495865l3.5838928-1.512619l0.9006386-0.3812714
				c0.1838036-0.0625763,0.2000618-0.0947952,0.2502899-0.2620392c0.1774139-0.6964798,0.1478462-1.4383087,0.1318321-2.151535
				c-1.5792961,0.4333649-3.1538353,0.9064178-4.5381851,1.2859421c-0.8729382,0.2771378-1.6764393,0.5458603-2.2651196,0.7583237
				c-2.3036633,0.7730789-4.6037083,1.5759735-6.922121,2.3105698
				C22.2568493,75.5282974,21.5253181,76.1408844,21.6490116,76.9115677z"/>
			<path class="st13" d="M47.9438705,71.9584351c0.1856117,0.1185226,1.1513519,0.6057892,2.1715279,1.1266556
				c1.7827873,0.911911,3.9940033,2.0337524,4.5322151,2.4015961l0.8649902,0.5700073
				c0.2667885-0.04245,1.5738754-0.3118286,2.8351936-0.9584427c0.331768-0.1712112,0.6623344-0.352356,0.9595375-0.5596466
				c0.2142143-0.2274704,0.2472725-0.453125,0.1166458-0.6991959c-0.1293564-0.2361374-0.2972603-0.4575195-0.5036392-0.6641464
				c-0.1371918-0.1344757-0.2831078-0.2577515-0.4365578-0.3600082c-0.52948-0.3789902-1.1263542-0.6490936-1.735878-0.8572235
				c-0.3059311-0.113945-0.6194534-0.2068634-0.9317093-0.289856c-0.583622-0.1608582-1.1810417-0.2697449-1.7721863-0.409523
				c-0.7584572-0.1900635-1.4768562-0.4655228-2.2265129-0.6666794c-0.8959427-0.2438965-1.7870064-0.4480591-2.6868019-0.6410751
				c-0.154892-0.0315628-0.2999077-0.0643234-0.4548683-0.0959396c-0.0607567-0.0026474-0.4178238-0.0399323-0.4425125-0.0772018
				c0.0947876,0.1999969,0.1471825,0.4656372,0.0963554,0.7941589c-0.0901566,0.5851288-0.2254791,0.9641724-0.3193741,1.1870651
				C47.9889793,71.8320847,47.9489937,71.9175415,47.9438705,71.9584351z"/>
			<path class="st9" d="M55.970787,71.447937c0.929306,0.2700424,1.8769798,0.6083755,2.6588593,1.1582184
				c0.1657906,0.1208725,0.3228531,0.2529373,0.4699821,0.3862076c0.2187309,0.225296,0.4100533,0.4740219,0.5418243,0.7300339
				c0.0899696,0.1603165,0.1203804,0.327858,0.0987625,0.4816055c0.2265015-0.2087936,0.3922348-0.4203033,0.4439697-0.6582413
				c0.0567894-0.2788925-0.0277596-0.5607376-0.2784119-0.8829346C59.1909256,71.7523117,56.7135849,71.5089417,55.970787,71.447937
				z"/>
			<path class="st10" d="M56.3748283,71.2075272c1.3046761,0.0431824,3.0666275,0.2021179,4.973053,0.5550842
				c1.2147636,0.2152405,3.7083702,0.7588882,5.4261665,1.1346741
				C63.4656906,71.6164551,59.8577156,70.5230331,56.3748283,71.2075272z"/>
			<path class="st11" d="M71.1860504,81.4481583c0.3044281-0.147728,0.6548691-0.3312912,0.9346008-0.5163498
				c0.5781479-0.3824158,0.96978-0.973877,1.0737915-1.6110382c0.0582886-0.3495865-0.2464294-0.453598-0.3803101-0.477684
				c-0.1958466-0.0366821-0.3303299-0.231926-0.2948532-0.437645l0.0303497-0.1648941
				c-0.2105331,0.2572784-0.4198761,0.5244217-0.5871124,0.806633l-0.0125351,0.7267685l0.4440308,0.0065613
				c0,0,0.0009003,0.4229584-0.537796,0.8811874c-0.3011169,0.2581787-0.4876328,0.3815231-0.6130676,0.4269867
				C71.2167053,81.2026901,71.2014084,81.3254166,71.1860504,81.4481583z"/>
			<path class="st10" d="M58.6449966,75.2233353c0.8877487-0.2386627,1.7739334-0.4066162,2.6300697-0.4903259
				c1.0559502-0.0979309,2.2080803-0.0664825,3.5260735,0.0859375c1.7369537,0.20224,3.7588882,0.5109406,5.5669708,1.2989044
				c0.1747665,0.0291519,0.3098526,0.063179,0.4151154,0.1007614c0.2679977-0.3649521,0.5386963-0.7906723,0.5365906-0.8911209
				c-0.0429916-0.1055756-0.0944824-0.2806473-0.1312256-0.4172287c-0.9088287-0.4337311-2.4368057-1.1549072-3.0671005-1.4511414
				c-1.2430725-0.2823334-5.1867294-1.1537094-6.8253441-1.4585648c-1.008976-0.1797714-1.9921188-0.3123245-2.8798714-0.4060898
				c0.6988335,0.1972885,1.3489418,0.491127,1.6823311,0.9140091c0.2975655,0.3769379,0.4028969,0.7469482,0.3247223,1.0988922
				C60.2795753,74.2493515,59.5062523,74.766304,58.6449966,75.2233353z"/>
			<path class="st11" d="M18.527029,82.3975372l0.0755806,0.3736191l0.0240898,0.198555
				c0.0499249,0.2457809,0.1781387,0.4719696,0.2999706,0.729187c0.4348125,0.8437881,0.9676666,1.665596,1.4743805,2.5207672
				c0.2858181,0.5294266,0.3547707,0.6822052,0.7921772,0.8004227c0.2490788,0.0604095,0.5255642,0.0973816,0.809515,0.1132889
				c-0.9633236-3.2073135,1.5009613-6.8909225,4.9162197-7.0534515c0.1886196-0.0228882,0.3685684-0.0346375,0.549654-0.0365067
				c3.2026119-0.0057678,5.8953705,3.0924835,5.4535103,6.2587738c1.8639069-0.2463074,3.5313072-1.0328827,5.3723373-1.4677505
				c0.803196-0.1881332,1.6211472-0.3377304,2.4414444-0.4675064c-0.3841591-0.4268036-0.9353828-1.3169022-1.685524-2.7671432
				c-0.1047211-0.1987915-0.168499-0.3925323-0.232338-0.5862656c-0.5261078,0.0638275-1.0522804,0.1276703-1.5672493,0.2002335
				c-2.3720131,0.4590225-4.6683235-0.4510193-6.8984432-1.1474457c-0.9888668-0.2628174-1.973217-0.405304-2.89855-0.3938065
				c-1.3284607,0.0101166-2.5576191,0.3405609-3.5920753,1.0301743c-0.0932255,0.0616684-0.1765766,0.1221313-0.2598591,0.1826553
				c-0.0559521,0.036972-0.1020203,0.0728149-0.1480331,0.1085815c-0.0087318,0.0111465-0.0087318,0.0111465-0.0087318,0.0111465
				c-0.1280918,0.1062241-0.2550449,0.2223358-0.3720627,0.3372421l-1.4337902-0.3598938c0,0,0.1247807-0.549057,0.502264-1.0078354
				c0,0-0.6371613-0.1040039-0.8997936-0.1930161c-0.1374912-0.0538406-0.3071423-0.1239471-0.4966602-0.1915741
				c-0.1122017,0.1545944-0.2021713,0.3267136-0.3032322,0.4900436c-0.2234211,0.3998718-0.4505272,0.7698898-0.7242413,1.0045776
				c-0.0087318,0.0111389-0.0186691,0.0123444-0.0273991,0.0234909c-0.0360775,0.0345612-0.0721493,0.069191-0.1182232,0.1049652
				c-0.1392345,0.097496-0.2845573,0.1453171-0.4235516,0.162178c-0.3176174,0.0385361-0.597414-0.1088257-0.8101234-0.2845001
				C18.3380527,81.5038147,18.4195938,81.9270706,18.527029,82.3975372z"/>
			<path class="st11" d="M33.9526253,77.1111679c0.33815,0.1302032,0.5433273,0.326889,0.6161423,0.4289093
				c0.2133064,0.0143967,0.9548378,0.0654678,1.6867867,0.3694763c0.0631752,0.022583,0.23283,0.0926819,0.2782898,0.2180634
				l0.0099373-0.0012054c0.0123482,0.0186691,0.0159645,0.0484848,0.0183678,0.0682983
				c0.0084343,0.0694962-0.015358,0.1227341-0.0601578,0.1685028c-0.0162659,0.0321655-0.0547447,0.0469131-0.0821457,0.0704041
				l-0.1838036,0.0625687c-0.0423965,0.0655823-0.0923195,0.1522446-0.1311073,0.2475815
				c-0.0288467,0.0941849-0.054142,0.2181244-0.0309563,0.3261032c0.0060272,0.0496902,0.0219841,0.0981064,0.0367393,0.1365891
				c0.5149651-0.0725632,1.5450287-0.2176437,2.5699043-0.3218842c0.0027084-0.0607681,0.0042152-0.1314697,0.016861-0.1934433
				c0.0165024-0.112793,0.0318604-0.2355347,0.0670319-0.360672c0.0580559-0.2689667,0.1557388-0.5427322,0.2658272-0.7978363
				c-0.3495331-0.0583038-0.6879921-0.1079254-1.0276451-0.1674271
				C36.6700134,77.1742859,35.290123,77.0093307,33.9526253,77.1111679z"/>
			<path class="st10" d="M21.2417221,79.7815628c0.2626324,0.0890121,0.8997936,0.1930161,0.8997936,0.1930161
				c-0.3774834,0.4587784-0.502264,1.0078354-0.502264,1.0078354l1.4337902,0.3598938
				c0.1170177-0.1149063,0.2439709-0.2310181,0.3720627-0.3372421c0,0,0,0,0.0087318-0.0111465
				c0.0460129-0.0357666,0.0920811-0.0716095,0.1480331-0.1085815c0.0820847-0.0703964,0.1753635-0.1321335,0.2598591-0.1826553
				c1.7558117-1.2203598,4.0992775-1.3334579,6.5119419-0.7094727c1.6305447,0.4871445,3.2656612,1.0946121,4.9496822,1.192482
				c0.6299362,0.0444489,1.2601738,0.008316,1.9093781-0.1208649c0.5062332-0.0614243,1.0224686-0.124054,1.5299721-0.1755447
				c-0.182354-0.6729355-0.1601868-1.3202744-0.0820808-2.0047073c-1.0248756,0.1042404-2.0549393,0.249321-2.5699043,0.3218842
				c0.0426979,0.1862106,0.120388,0.3279114,0.1709099,0.4124069c0.0643845,0.0325241,0.1176186,0.0562515,0.1708565,0.08004
				c0.5499573,0.2153015,1.1161156,0.3984375,1.7150917,0.4365616c-0.7318916,0.0283585-1.5435791-0.1854324-2.3549614-0.479805
				c-0.93647-0.3296051-1.8838463-0.7485809-2.7165527-0.969902c-1.5884438-0.4720917-2.9675579-1.2113876-0.3588028-1.6286163
				c0.1663933-0.0403519,0.3363457-0.0508881,0.5050888-0.0713654c0.0087318-0.0111389,0.0186691-0.0123444,0.0286064-0.0135498
				c0.0098763-0.0011978,0.0198135-0.0024033,0.0309563,0.0063248c0.2072868-0.0352325,0.4157181-0.0605164,0.6266251-0.0659409
				c1.3636284-0.1352615,2.7522583,0.0186157,4.1060143,0.2169952c0.2145195,0.0243835,0.4203033,0.0598526,0.6248207,0.0853958
				c0.1537476,0.0216217,0.3186378,0.0519638,0.472332,0.0736542c0.0162544-0.0322266,0.0324593-0.0643768,0.0487175-0.0965958
				c0.1326103-0.3182831,0.2737198-0.56707,0.3485756-0.6970291c-0.1934395-0.016861-0.3979568-0.0423965-0.571579-0.0616074
				c-1.9105835-0.2215042-4.6848907-0.6706543-4.7158394-0.676918c-0.050827-0.0039215-0.0966034-0.0487823-0.102623-0.0984039
				c-0.0072289-0.0595627,0.0165634-0.1128006,0.0749168-0.1299667c0.0372849-0.0246277,3.8774834-1.7497177,5.7957649-2.2947922
				c1.8699341-0.5290604,3.8354492-1.0999069,5.4795341-0.9166489c1.4902878,0.161705,3.0122452,0.8332596,4.847126,1.7590103
				c1.7259369,0.8583679,3.3523254,1.8094177,3.3746109,1.8268814c0.0012054,0.0099335,0.7909088,0.4580612,0.7909088,0.4580612
				c0.0222855,0.0174637,0.6504707,0.5456161,0.8090973,1.6042252c0.0472717,0.3065338,0.0894241,0.6539688,0.1303787,0.9915161
				l0.09058-0.0009079c0.5047913,0.0092773,0.8985252-0.1493454,1.2038612-0.5389328
				c1.0073547-1.0792007,2.3573837-1.9078064,3.8425484-2.0376434c2.0169945-0.3958435,3.8711433,0.6887131,5.4824791,1.6819229
				c1.7457504,0.5235291,3.6951141,0.3171997,5.5187302,0.2369843c0.0772705-0.1100769,0.133522-0.2276993,0.2132568-0.3179779
				c0.4274063-0.5454407,1.0172272-1.0803909,1.0746841-1.5205078c0.0690765-0.5926514-0.5575409-0.8590851-0.984169-1.2203674
				c-0.0420914-0.0149994-0.1819916-0.0887146-0.3949966-0.1837387c0.018364,0.0682907,0.0466156,0.1353836,0.0625687,0.1837997
				c0.0737152,0.1925354-0.2393951,0.6837769-0.5422516,1.0932922c0.4022293,0.2433014,0.8944397,0.6469803,0.9167175,0.6643829
				c0.0333633,0.0261993,0.0481186,0.064682,0.0429916,0.1055756c0.0048218,0.0397415-0.0213165,0.0731049-0.0586548,0.0978012
				c-0.0186081,0.0123367-0.4039764,0.2404099-0.7613373,0.2837677c-0.0496292,0.0060196-0.0893707,0.0108414-0.1302643,0.005722
				c-0.3733215-0.0050583-0.759903-0.1193695-1.8291016-0.4630585c-1.0071716-0.3311157-4.8443527-1.1549149-4.8765717-1.1711731
				c-1.5104637-0.411087-3.0383835-0.4674606-4.5473404-0.2843857c-0.9927177,0.1204453-1.9821205,0.3513412-2.9519653,0.660347
				c2.4143524-0.8570328,4.9795036-1.2186127,7.5101471-0.6190262l0.5068359-0.222702l0.0694962-0.0084305
				c0,0,1.1567154,0.151825,2.2427139,0.3020859c0.2975006,0.0445099,0.6757126,0.0893097,1.0848007,0.1403809
				c0.3161774,0.0321579,0.6125336,0.0667267,0.8778152,0.0949783c-1.4458389-0.4592056-2.9855042-0.6954651-4.3343811-0.8541641
				c-1.298111-0.1547699-2.4292297-0.1787415-3.4751816-0.0820312c-0.8363228,0.0813065-1.7126312,0.2480621-2.5903854,0.4855194
				c-0.1949463,0.0538406-0.3974113,0.1288223-0.6010284,0.1937943c-0.3005142,0.0969009-0.6097603,0.2049408-0.9337654,0.274437
				c-0.0408859-0.0050583-0.4036713,0.1598358-0.4271622,0.132431c-0.8804626,0.2982254-1.2288513,0.2498627-1.2387886,0.2510681
				c-0.0297508,0.0036163-0.0607681-0.0027084-0.0830498-0.0201721l-0.9094353-0.6048889
				c-0.5271301-0.359108-2.7383461-1.4809494-4.5099869-2.3841248c-1.8905296-0.9693527-2.2124214-1.1317825-2.2593956-1.1865158
				c-0.0938263-0.1094894-0.0399895-0.2469864,0.0351677-0.4575806c0.0938339-0.2228851,0.2228317-0.5709763,0.3055191-1.135025
				c0.0558891-0.3694077-0.0250511-0.6215057-0.1483879-0.8080215c-1.7911606-0.316597-3.6079102-0.4285507-5.5118141-0.0968475
				c-1.5498466,0.1779556-3.5337181,0.6805725-5.5414429,1.2364349c0.0031357,0.855896,0.1250839,1.7779083-0.2734146,2.5615921
				c-0.1070824,0.1137009-0.1603775,0.0899811-0.244873,0.1405029c-0.6049347,0.2446823-3.862175,1.6270447-4.5329399,1.9099045
				c-2.1527424,0.1906738-4.3857613,0.6328278-6.6013126,1.0527573c-0.1576099,0.0291443-0.3251495,0.0595551-0.4828129,0.088768
				c-0.0087318,0.0111465,0.0024109,0.0198746-0.0075264,0.02108c-0.105875,0.1236343-0.578989,0.6242676-0.8042831,0.8430023
				c0.2581158-0.0313187,0.5162334-0.0626373,0.7854328-0.0852127c1.7880878-0.2068634,3.6947536-0.2669678,5.387867,0.0715485
				c-1.7917614-0.1553192-3.6352558-0.0726929-5.463932,0.0484695c-0.2692585,0.022583-0.5397167,0.0352936-0.8089161,0.0578766
				c0,0-0.0087299,0.0111389-0.0186672,0.0123444c-0.0460148,0.0357742-0.1702576,0.0911179-0.46595,0.2277603
				c-0.1242428,0.0553513-0.277092,0.1242447-0.4386101,0.2042847c0.5363522-0.1456223,1.0874519-0.2528152,1.6310921-0.3388824
				c1.9075108-0.3019562,3.8610897-0.307312,5.7692623-0.1056747c-1.8428898-0.078598-3.9056549-0.0599899-5.8853741,0.3111572
				c-0.9581547,0.1565247-1.9041996,0.4123459-2.7873745,0.7713318c-0.3667011,0.2157211-0.6482468,0.5520706-0.8939533,0.9344864
				C20.9345798,79.6576157,21.1042309,79.7277222,21.2417221,79.7815628z M55.535244,76.9907608l-0.0036163-0.029808
				l0.5489998-0.2075882l0.5926514,0.0690765l0.0048256,0.0397415c0.117733,1.0534897-0.4436073,1.2424698-0.4622765,1.2548218
				l-0.0198135,0.0024033l-0.0111427-0.0087357C55.5789642,77.9323578,55.540062,77.0304489,55.535244,76.9907608z"/>
			<path class="st11" d="M55.5069351,81.7387619l0.5261078-0.0638351c0.2433624-2.4774017,2.2559662-4.7362518,4.8650208-4.90168
				c2.7895393-0.3384476,5.360405,1.8377228,5.8134613,4.492485c1.7023926,0.1662216,2.6725845,0.4413223,3.2002563,0.6392136
				c0.1576691-0.029213,0.3438797-0.071907,0.4704666-0.1074295c0.1208115-1.1630325,0.4127731-2.3266678,1.0600586-3.3017426
				c-1.8322983,0.0913544-3.6812057,0.2955704-5.4678421-0.233078c-1.6634293-1.0069962-3.3403473-2.0425949-5.3696899-1.6654205
				c-1.4442711,0.1349564-2.7272072,0.935318-3.6984901,1.9798965c-0.2929268,0.4082489-0.8693199,0.639389-1.3566513,0.6078262
				c0,0-0.0396881,0.0048141-0.0893707,0.0108414c0.0729294,0.7668152,0.1037025,1.5185852,0.0649185,1.9463501
				C55.514698,81.3046112,55.508976,81.5067825,55.5069351,81.7387619z"/>
			<path class="st10" d="M66.711525,81.2657318c0.0679932,0.3947067,0.0951538,0.7842865,0.0638885,1.1909714
				c0.8699951-0.1357422,2.2612686-0.375061,2.8024979-0.4809952c0.0694351-0.0084305,0.1960831-0.0439606,0.3338699-0.0707626
				C69.3841095,81.7070541,68.4139175,81.4319534,66.711525,81.2657318z"/>
			<path class="st10" d="M56.1791382,83.4603043c-0.1615791-0.5848312-0.2052994-1.193985-0.1460953-1.7853775l-0.5261078,0.0638351
				c-0.0059662,0.615181,0.0172729,1.3879623,0.0332336,1.7688217
				C55.7498665,83.4922256,55.9595642,83.4768677,56.1791382,83.4603043z"/>
		</g>
		<path class="st1" d="M58.1335068,82.5482941c0.2192039,1.806694,1.8555908,3.0889664,3.6623497,2.8697586
			c1.7968178-0.2180023,3.0790291-1.8543854,2.8598289-3.6610794c-0.2180023-1.7968216-1.854332-3.0791016-3.6511536-2.8610992
			C59.1977768,79.1150818,57.9155045,80.7514725,58.1335068,82.5482941z M61.2720833,82.5898819l0.0006676,0.0055161
			c-0.0378113,0.0101166-0.0769501,0.0093307-0.1125793-0.0086594c-0.0417442-0.022789-0.0628929-0.0592651-0.0675621-0.0977402
			c-0.0142975-0.0261154-0.013504-0.0651932,0.0051537-0.0953674c0.0372658-0.0602264,0.1170006-0.0922165,0.1827431-0.0556183
			c0.0055122-0.0006714,0.0055122-0.0006714,0.0116348,0.0041809l0.0061836,0.0048447
			c0.0657387,0.0365982,0.0867615,0.1176682,0.0501022,0.1834106C61.3298225,82.5605545,61.3043747,82.580368,61.2720833,82.5898819
			z M61.380188,81.9190826c0,0,0,0,0.0006599,0.005455l-0.0219955,0.0026703
			c-0.077549,0.0038757-0.1391144-0.0444183-0.1484489-0.1213684c-0.0046616-0.038414,0.0077591-0.0733719,0.0264244-0.1034851
			c0.0248413-0.0253372,0.0557404-0.0458069,0.0942154-0.0504761s0.0788918,0.0071564,0.1097298,0.0312653
			c0.0252609,0.0247879,0.0450821,0.050293,0.0497398,0.088707C61.4991837,81.8432846,61.4508934,81.9049149,61.380188,81.9190826z
			 M62.4262733,82.8232956l1.0729828,1.1988297c-0.115097,0.1302261-0.2404594,0.2493362-0.3779182,0.3568878l-1.120594-1.1585007
			c-0.2174644-0.2300568-0.3131905-0.5138092-0.1878891-0.6293488
			C61.9382172,82.4756165,62.2137222,82.5871048,62.4262733,82.8232956z M61.9506454,81.888855
			c-0.0742836-0.152626,0.1208153-0.382576,0.4115944-0.5125961l1.4671478-0.6472473
			c0.0864525,0.1465378,0.1569748,0.3031311,0.216198,0.4659424l-1.4415855,0.7038422
			C62.3200035,82.0391235,62.019413,82.0421448,61.9506454,81.888855z M61.7626877,81.8558884
			c0.0349693,0.0125427,0.0657463,0.0366669,0.0868874,0.073082c0.0163574,0.0425873,0.0161819,0.0872421-0.001812,0.1228714
			c-0.0131531,0.0294495-0.0331459,0.0485992-0.0647087,0.0636215c-0.0681076,0.0361099-0.1441498,0.0062943-0.185112-0.0556259
			c-0.0006676-0.0055161-0.0061798-0.0048447-0.0068436-0.0102997c-0.0306625-0.0687637,0.0039978-0.1509933,0.0720444-0.1871033
			C61.6947746,81.8474731,61.7283974,81.8489227,61.7626877,81.8558884z M61.6290855,82.5465698
			c-0.0336304-0.0015182-0.0637474-0.0201797-0.0890121-0.0449677c-0.0451355-0.0502243-0.0434952-0.1284485-0.0000534-0.1838913
			c-0.0006676-0.0055084,0.0041771-0.0116959,0.0090294-0.0178146c0,0,0.0054512-0.0006638,0.0047836-0.0061798l0.0055122-0.0006638
			c0.0557404-0.0458069,0.1352997-0.0331421,0.1865578,0.0219421c0.0253334,0.0248337,0.0396271,0.0509567,0.0381737,0.0845795
			c0.0046616,0.038414-0.0126648,0.0795517-0.0422974,0.1110001C61.7060356,82.5372314,61.6688919,82.5528641,61.6290855,82.5465698
			z M61.0705605,81.9398651c0.0685921,0.0139999,0.1156654,0.0807114,0.107914,0.1541443l0.0006676,0.0055084
			c0.0006599,0.005455,0.0006599,0.005455,0.0013313,0.0109711l0.0006676,0.0055161
			c-0.0195084,0.0692596-0.091732,0.1170578-0.1664429,0.0982132c-0.0342941-0.0069656-0.0644112-0.0256348-0.0836182-0.0456238
			c-0.0259361-0.0302963-0.0367775-0.073555-0.0249634-0.1140289c0.0063057-0.0397491,0.0352669-0.0767059,0.066227-0.0971909
			C61.0039749,81.9424133,61.0362663,81.9328995,61.0705605,81.9398651z M61.0675888,83.339325l-0.8092232,1.3896332
			c-0.1584511-0.0705414-0.3078995-0.1550293-0.4501381-0.2525558l0.7511253-1.4210052
			c0.154747-0.2863464,0.3955994-0.4604874,0.5394402-0.377594C61.2480888,82.760025,61.2285118,83.0577621,61.0675888,83.339325z
			 M60.160244,82.2008209l-1.5693436-0.3404999c0.0184174-0.1725388,0.0494003-0.3418121,0.098278-0.5050125l1.5857048,0.2742004
			c0.3134346,0.0567169,0.5578003,0.233345,0.522171,0.3993073C60.7670021,82.1940994,60.4750175,82.2685699,60.160244,82.2008209z
			 M60.6329918,79.4487381l0.1810341,2.0763779l-2.0598183-0.3331223
			C59.0615616,80.3599091,59.7471237,79.6993484,60.6329918,79.4487381z M61.0599403,79.3525467
			c0.0862198-0.0104599,0.1698227-0.0024643,0.2550468-0.0049362l0.2225609,1.5713654
			c0.0440979,0.3178635-0.049511,0.6023865-0.2143173,0.6223831c-0.1703224,0.020668-0.3293152-0.2332153-0.3624496-0.5524063
			l-0.1596222-1.5781403C60.8877716,79.3919449,60.9702072,79.3634338,61.0599403,79.3525467z M63.7270737,80.5855713
			l-1.9188118,0.8189163l-0.3209114-2.0602036C62.4043427,79.3740082,63.2286263,79.850708,63.7270737,80.5855713z
			 M63.615078,83.8999176l-1.3852348-1.5934677l1.8675156-0.9442749c0.0430069,0.1462173,0.0827942,0.2942352,0.1017151,0.4501953
			C64.2931595,82.5878143,64.0621719,83.3292236,63.615078,83.8999176z M61.740448,84.96138
			c-0.4638824,0.056282-0.9103851-0.0152817-1.3207436-0.1685028l1.0842552-1.8075104l1.4775124,1.4935608
			C62.6199532,84.7277069,62.2036667,84.9051743,61.740448,84.96138z M58.5901794,82.4928818
			c-0.0186844-0.1540222-0.0152092-0.3052597-0.0087967-0.4556198l2.0458374,0.4748154l-0.9657784,1.8703613
			C59.0877914,83.9353333,58.6844559,83.2699051,58.5901794,82.4928818z"/>
		<path class="st1" d="M24.1228485,86.0098877c0.2192039,1.806694,1.8555908,3.0889664,3.6623478,2.8697586
			c1.7968216-0.2180023,3.0790329-1.8543854,2.8598309-3.6610794c-0.2180042-1.7968216-1.8543301-3.0791016-3.6511517-2.8610992
			C25.1871185,82.5766754,23.9048443,84.2130661,24.1228485,86.0098877z M27.261425,86.0514755l0.0006695,0.0055161
			c-0.0378132,0.0101166-0.0769501,0.0093384-0.1125813-0.0086594c-0.0417442-0.022789-0.0628929-0.0592651-0.0675602-0.0977402
			c-0.0142975-0.0261154-0.0135059-0.0651932,0.0051517-0.0953674c0.0372677-0.0602264,0.1170025-0.0922165,0.1827412-0.0556183
			c0.0055141-0.0006714,0.0055141-0.0006714,0.0116367,0.0041809l0.0061817,0.0048447
			c0.0657387,0.0365982,0.0867653,0.1176682,0.0501041,0.1834106C27.3191662,86.0221558,27.2937183,86.0419617,27.261425,86.0514755
			z M27.3695278,85.3806763c0,0,0,0,0.0006618,0.005455l-0.0219936,0.0026703
			c-0.0775509,0.0038757-0.1391144-0.0444183-0.1484509-0.1213684c-0.0046616-0.038414,0.007761-0.0733719,0.0264244-0.1034851
			c0.0248394-0.0253296,0.0557404-0.0458069,0.0942154-0.0504761c0.0384769-0.0046692,0.0788898,0.0071564,0.1097279,0.0312653
			c0.0252647,0.0247879,0.0450821,0.050293,0.0497437,0.088707C27.4885235,85.3048859,27.4402351,85.3665085,27.3695278,85.3806763z
			 M28.415617,86.2848892l1.072979,1.1988297c-0.1150951,0.1302261-0.2404556,0.2493439-0.3779163,0.3568878l-1.120594-1.158493
			c-0.2174644-0.2300644-0.3131886-0.5138092-0.1878872-0.6293564
			C27.9275608,85.9372101,28.2030659,86.0486984,28.415617,86.2848892z M27.9399872,85.3504486
			c-0.0742836-0.152626,0.1208153-0.382576,0.4115925-0.5125961l1.4671478-0.6472397
			c0.0864563,0.1465378,0.1569767,0.3031235,0.2162018,0.4659348l-1.4415894,0.7038422
			C28.3093472,85.5007172,28.0087547,85.5037384,27.9399872,85.3504486z M27.7520313,85.3174896
			c0.0349674,0.0125427,0.0657463,0.0366592,0.0868874,0.0730743c0.0163574,0.0425873,0.01618,0.0872421-0.0018139,0.122879
			c-0.0131512,0.0294418-0.0331459,0.0485916-0.0647087,0.0636139c-0.0681076,0.0361099-0.1441517,0.0063019-0.1851101-0.0556259
			c-0.0006695-0.0055161-0.0061836-0.0048447-0.0068455-0.0102997c-0.0306606-0.0687637,0.0039997-0.1509933,0.0720444-0.1871033
			C27.6841164,85.3090668,27.7177391,85.3105164,27.7520313,85.3174896z M27.6184254,86.0081635
			c-0.0336304-0.0015182-0.0637455-0.0201797-0.0890102-0.0449677c-0.0451355-0.0502243-0.0434971-0.1284485-0.0000534-0.1838837
			c-0.0006695-0.0055161,0.0041752-0.0117035,0.0090275-0.0178223c0,0,0.0054531-0.0006638,0.0047855-0.0061722l0.0055122-0.0006714
			c0.0557423-0.0458069,0.1352997-0.0331421,0.1865578,0.0219421c0.0253315,0.0248413,0.039629,0.0509567,0.0381756,0.0845795
			c0.0046597,0.038414-0.0126667,0.0795593-0.0422974,0.1110001C27.6953773,85.9988251,27.6582317,86.0144577,27.6184254,86.0081635
			z M27.0599022,85.4014587c0.0685921,0.0139999,0.1156654,0.0807114,0.1079121,0.1541443l0.0006695,0.0055161
			c0.0006618,0.0054474,0.0006618,0.0054474,0.0013313,0.0109634l0.0006695,0.0055161
			c-0.0195103,0.0692596-0.091732,0.1170654-0.1664467,0.0982132c-0.0342922-0.0069656-0.0644073-0.0256348-0.0836182-0.0456161
			c-0.0259323-0.030304-0.0367756-0.0735626-0.0249634-0.1140366c0.0063057-0.0397491,0.0352688-0.0767059,0.0662308-0.0971832
			C26.9933186,85.404007,27.02561,85.3944931,27.0599022,85.4014587z M27.0569286,86.8009262l-0.8092213,1.3896255
			c-0.158453-0.0705414-0.3078995-0.1550217-0.4501381-0.2525558l0.7511253-1.4210052
			c0.154747-0.2863464,0.3955975-0.4604797,0.5394402-0.377594C27.2374325,86.2216187,27.2178516,86.5193558,27.0569286,86.8009262z
			 M26.1495857,85.6624146l-1.5693417-0.3404922c0.0184135-0.1725464,0.0494003-0.3418121,0.0982742-0.5050201l1.5857086,0.2742004
			c0.3134346,0.0567169,0.5578003,0.233345,0.522171,0.3993073C26.7563438,85.6556931,26.4643593,85.7301636,26.1495857,85.6624146z
			 M26.6223354,82.9103317l0.1810322,2.0763779l-2.0598183-0.3331223
			C25.0509033,83.8215103,25.7364635,83.1609421,26.6223354,82.9103317z M27.0492821,82.8141403
			c0.0862217-0.0104599,0.1698246-0.0024643,0.2550468-0.0049362l0.222559,1.5713654
			c0.0440998,0.3178635-0.049509,0.6023865-0.2143154,0.6223831c-0.1703224,0.020668-0.3293152-0.2332077-0.3624477-0.5524063
			l-0.1596241-1.5781403C26.8771152,82.8535385,26.959547,82.8250275,27.0492821,82.8141403z M29.7164173,84.0471649
			l-1.9188137,0.8189163l-0.3209114-2.0602036C28.3936863,82.8356018,29.2179661,83.3123016,29.7164173,84.0471649z
			 M29.6044216,87.3615189l-1.3852386-1.5934753l1.8675156-0.9442749c0.0430088,0.1462173,0.0827942,0.2942352,0.101717,0.4501953
			C30.2824974,86.049408,30.0515118,86.7908173,29.6044216,87.3615189z M27.7297897,88.4229736
			c-0.4638824,0.056282-0.9103832-0.015274-1.3207436-0.1685028l1.0842571-1.8075104l1.4775124,1.4935608
			C28.609293,88.1893005,28.1930065,88.3667755,27.7297897,88.4229736z M24.5795231,85.954483
			c-0.0186882-0.1540222-0.0152111-0.3052673-0.0088005-0.4556274l2.0458393,0.4748154l-0.9657784,1.8703613
			C25.0771313,87.3969269,24.6737957,86.7314987,24.5795231,85.954483z"/>
		<path class="st14" d="M41.0667992,79.7995529c0,0-0.5140114-0.3361435-0.8576431-0.2944489
			c-0.3436356,0.0416946-0.9449959,0.1146545-0.9449959,0.1146545s-0.0795441,0.3707962,0.1194382,0.4711838
			c0.1989784,0.1003952,1.312809-0.0596542,1.4753342-0.0544662C41.0214539,80.0416641,41.2335014,79.8960648,41.0667992,79.7995529
			z"/>
		<g>
			<path class="st15" d="M55.6405144,77.0283432c0.0093994,0.1600723,0.1011772,0.8339157,0.5533867,0.9905472
				c0.085701-0.0405884,0.4734764-0.2488403,0.3897095-1.1049652l-0.4897346-0.0513763L55.6405144,77.0283432z
				 M55.8547897,77.465744c-0.0147591-0.0385437,0.0003014-0.0806427,0.0152969-0.1227341
				c0.0234833,0.0273438,0.0382423,0.0658798,0.0430603,0.1055679c0.013546,0.0285492,0.0295105,0.0770264,0.0703964,0.0820847
				c0.022522-0.0631714,0.0375824-0.1052704,0.0625763-0.1485672c0.0174026-0.0222778,0.0189056-0.0929871,0.0598602-0.0878677
				c-0.0048141-0.0396881,0.0050621-0.0408859-0.0183678-0.0682907c-0.0234833-0.0273438-0.055706-0.043602-0.0593224-0.07341
				c-0.0122795-0.0186157-0.0333595-0.0261383-0.0246277-0.0372849c0.0149956-0.0420914,0.0598602-0.0878677,0.0995445-0.0926819
				c0.0396881-0.0048141,0.0743217,0.0313187,0.1140099,0.0265045c0.0111351,0.008667,0.0198708-0.0024109,0.0397453-0.0048218
				c0.0110741,0.0086746,0.0210114,0.0074692,0.0321541,0.0161972c0.0123482,0.0186691-0.0051155,0.0409546-0.0138435,0.0521011
				l-0.0992508,0.0120392c0.0258942,0.0472107,0.0505257,0.0844955,0.0950851,0.1193619l0.028553-0.0134888
				c0.0099373-0.0012054,0.0087318-0.0111389,0.0174637-0.0222855c-0.0012054-0.0099335,0.0162544-0.0322189,0.0261917-0.0334244
				c0.0234299,0.0274048,0.0381851,0.0658875,0.0517387,0.0944901c0.013546,0.0285492,0.0283051,0.0670853,0.0319138,0.0968399
				c0.0036163,0.029808-0.0114403,0.071907-0.0499229,0.0866623c0.0050621-0.0408859,0.0002403-0.0806351-0.0057831-0.1302567
				c-0.0408936-0.005127-0.0595589,0.007225-0.0769615,0.0295029c-0.0087318,0.0111389-0.0174713,0.0222244-0.0249977,0.0433044
				c-0.0261307,0.0334167-0.0722046,0.0691986-0.0760612,0.120018c-0.006321,0.0310135,0.007225,0.0595627,0.0009041,0.0905762
				c-0.0075226,0.02108-0.0150566,0.042099-0.0237885,0.0532455c-0.0174026,0.0222778-0.0261345,0.0334167-0.0137939,0.0520248
				c0.0381851,0.0658875,0.0628738,0.1031647,0.0875092,0.1405106c-0.0222244-0.0174713-0.0544472-0.0337296-0.0853958-0.0399933
				c-0.0198746,0.0024109-0.0310173-0.0063248-0.04216-0.0150528c-0.021019-0.0075378-0.0234299-0.0274124-0.0258331-0.0472183
				c-0.0048218-0.0397491-0.0183678-0.0682983-0.0418587-0.0956955c-0.0123405-0.0186081-0.0445023-0.034874-0.0667877-0.0523376
				C55.9288025,77.5776367,55.8731575,77.5340347,55.8547897,77.465744z"/>
		</g>
	</g>
	<path class="st2" d="M85.556694,81.048317h1.1300049l0.4699707-1.2600098c0.5-1.3099976,1.7700195-2.1900024,3.1800537-2.1900024
		h5.1499634c1.3200073,0,2.5200195,0.7700195,3.0800171,1.9700317l0.6900024,1.4799805h1.0999756l-0.8900146-1.9100342
		c-0.7199707-1.539978-2.289978-2.539978-3.9799805-2.539978h-5.1599731c-1.8099976,0-3.460022,1.1400146-4.1100464,2.8400269
		L85.556694,81.048317z"/>
	<g>
		<path d="M74.1741943,79.5273819c1.2680664-3.0693359,2.1987305-5.6865234,2.6210938-8.4873047
			c0.6020508-3.9902344,0.2680664-7.9794922-0.090332-11.0087891l-0.4960938,0.0585938
			c0.3544922,2.9990234,0.6850586,6.9443359,0.0922852,10.8759766c-0.4150391,2.7509766-1.3349609,5.3359375-2.5888672,8.3701172
			L74.1741943,79.5273819z"/>
	</g>
</g>
</svg>
