<?xml version="1.0" encoding="utf-8"?>
<!-- Generator: Adobe Illustrator 27.6.1, SVG Export Plug-In . SVG Version: 6.00 Build 0)  -->
<svg version="1.1" id="Layer_1" xmlns="http://www.w3.org/2000/svg" xmlns:xlink="http://www.w3.org/1999/xlink" x="0px" y="0px"
	 viewBox="0 0 172.8999939 90" style="enable-background:new 0 0 172.8999939 90;" xml:space="preserve">
<style type="text/css">
	.st0{fill:#888888;}
	.st1{fill:#3751A0;}
	.st2{fill:#F79420;}
	.st3{opacity:0.99;fill:#FFFFFF;}
	.st4{fill:#8797C6;}
	.st5{fill:#CCCCCC;}
	.st6{fill:none;stroke:#000000;stroke-linecap:round;stroke-linejoin:round;stroke-miterlimit:10;}
	.st7{fill:none;stroke:#000000;stroke-width:2;stroke-linecap:round;stroke-linejoin:round;stroke-miterlimit:10;}
	.st8{fill:#C1272D;}
	.st9{fill:#999999;}
	.st10{fill:#797979;}
	.st11{fill:#BABABA;}
</style>
<g>
	<path d="M51.5550079,71.0499878c0-0.0700073,0.0299683-0.1499634,0.0499878-0.2199707
		c0.0100098-0.0599976,0.0299683-0.1199951,0.0499878-0.1699829c0.0100098-0.0200195,0.0100098-0.0400391,0.0200195-0.0500488
		c0.0299683-0.0599976,0.0799561-0.0899658,0.1199951-0.1399536c0.0299683-0.0300293,0.0499878-0.0800171,0.0799561-0.1100464
		l2.3400269-2.0799561l-1.1500244-0.6700439c-0.2199707-0.1300049-0.3099976-0.3999634-0.2099609-0.6300049l0.6400146-1.5199585
		c0.0099487-0.0100098,0.0199585-0.0300293,0.0299683-0.0400391c0.0200195-0.039978,0.039978-0.0700073,0.0700073-0.0999756
		c0.0200195-0.0200195,0.039978-0.039978,0.0599976-0.0499878c0.0299683-0.0300293,0.0599976-0.0499878,0.0999756-0.0599976
		c0.0100098-0.0100098,0.0300293-0.0200195,0.0400391-0.0300293h0.039978
		c0.039978-0.0100098,0.0700073-0.0100098,0.1099854-0.0100098h0.1300049l1.3300171,0.3500366
		c0.039978,0.0100098,0.0700073,0.0299683,0.1099854,0.039978l1.0599976,0.6199951
		c0.0100098-0.0100098,0.0100098-0.0100098,0.0100098-0.0199585l1.4000244-1.25
		c0.0100098,0,0.0199585-0.0100098,0.0299683-0.0100098l-0.1599731-0.1000366l-1.6900024-1.0100098
		c-0.1400146-0.0899658-0.2300415-0.2299805-0.2399902-0.3899536c-0.0200195-0.1500244,0.039978-0.3099976,0.1599731-0.4200439
		l2.7299805-2.4299927c0.1600342-0.1399536,0.4000244-0.1599731,0.5900269-0.0599976l0.3699951,0.2300415l0.3300171-0.1000366
		c-0.1099854-0.1099854-0.1799927-0.25-0.1600342-0.4099731c0.0300293-0.2000122,0.1799927-0.3600464,0.3699951-0.4100342
		l8.2513428-2.1696167c0.0890503-0.223938,0.3247681-0.3555298,0.5686646-0.3103638l0.3293457,0.0742798l0.7006836-0.1842651
		l0.7399902-3.6600342c0-0.0299683,0.0299683-0.0599976,0.039978-0.0899658
		c0.0100098-0.0300293,0.0200195-0.0599976,0.0400391-0.0900269c0.0299683-0.039978,0.0700073-0.0700073,0.0999756-0.0999756
		c0.0200195-0.0200195,0.039978-0.0400391,0.0599976-0.0499878l2.6400146-1.5400391
		c0.1599731-0.0899658,0.3499756-0.0800171,0.5100098,0.0100098l0.3200073,0.1900024
		c0.0099487-0.0100098,0.0199585-0.0200195,0.0299683-0.0200195l2.5700073-1.4899902l1.3099976-3.7099609l-1.6300049-0.9400024
		c-0.1599731-0.0900269-0.25-0.25-0.25-0.4300537v-2.5199585c0-0.0800171,0.0300293-0.1500244,0.0599976-0.2200317
		c0.0100098-0.0199585,0.0300293-0.039978,0.0400391-0.0599976c0.0299683-0.039978,0.0699463-0.0899658,0.1199951-0.1199951
		c0.0099487-0.0100098,0.0199585-0.0200195,0.0299683-0.0299683l2.8500366-1.6500244c0.1499634-0.0900269,0.3499756-0.0900269,0.5,0
		l2.0799561,1.2000122l5.7000122-3.2800293c0.3099976-0.1799927,0.6900024-0.1799927,1,0l6.8200073,3.9200439l8.1099854-2.1800537
		c0.25-0.0699463,0.5300293-0.0299683,0.7600098,0.1000366l13.0100098,7.5100098
		c0.039978,0.0199585,0.0599976,0.0599976,0.0999756,0.0899658c0.0499878,0.0400391,0.1099854,0.0800171,0.1500244,0.1300049
		c0.039978,0.0499878,0.0700073,0.1000366,0.1099854,0.1600342c0.0300293,0.0499878,0.0599976,0.1099854,0.0800171,0.1699829
		c0.0199585,0.0599976,0.0299683,0.1300049,0.039978,0.2000122c0,0.039978,0.0200195,0.0799561,0.0200195,0.1199951v1.8200073
		c0.0299683,0.0100098,0.0599976,0.0100098,0.0800171,0.0199585l1.289978,0.75
		c0.9899902,0.5599976,1.6400146,1.5700073,1.75,2.6799927c0.0100098,0.0200195,0,0.0500488,0,0.0800171
		c0,0.0100098,0.0100098,0.0100098,0.0100098,0.0200195v2.1099854c0,0.539978-0.1600342,1.0700073-0.460022,1.5
		c-0.2199707,0.3500366-0.5299683,0.6400146-0.8999634,0.8599854L118.1249542,59.75
		c-0.3599854,0.2000122-0.7999878,0.210022-1.1699829,0.0200195l-1.6599731-0.8699951
		c-0.2900391,1.1900024-0.8699951,2.3999634-1.6400146,3.4199829c-0.6300049,0.8499756-1.3900146,1.5800171-2.2200317,2.0599976
		c-0.8299561,0.4799805-1.6099854,0.6400146-2.25,0.5200195c-0.2199707-0.0300293-0.4199829-0.1000366-0.5999756-0.2000122
		c0,0,0,0,0,0.0100098c-0.0200195-0.0100098-0.0299683-0.0200195-0.039978-0.0200195
		c-0.0100098-0.0100098-0.0200195-0.0100098-0.0200195-0.0200195c-0.7000122-0.3999634-1.4099731-0.8099976-2.1099854-1.2099609
		c-0.4199829-0.2399902-0.8800049-0.4400024-1.1600342-0.8600464c-0.0499878-0.0799561-0.0799561-0.1699829-0.1199951-0.2599487
		l-8.8699951,5.1300049h-0.0100098l-8.7599487,5.0499878c0,0,0,0.0100098-0.0100098,0.0100098l-6.7600098,3.8999634
		c0.0599976,0.2800293,0.0899658,0.5800171,0.0999756,0.9199829c0.0100098,1.6400146-0.7099609,3.5-1.8099976,4.9700317
		c-0.6499634,0.8699951-1.4199829,1.5999756-2.2600098,2.0800171c-0.8399658,0.4899902-1.6199951,0.6499634-2.2699585,0.5299683
		c-0.1700439-0.0299683-0.3400269-0.0800171-0.4899902-0.1499634c-0.0700073-0.0400391-0.1300049-0.0700073-0.2000122-0.1100464
		c-0.4700317-0.2699585-0.9299927-0.539978-1.3900146-0.7999878c-0.5-0.289978-1.0800171-0.4899902-1.4799805-0.9099731
		c-0.1500244-0.1500244-0.25-0.3300171-0.3200073-0.5300293c-0.0200195-0.039978-0.0200195-0.0899658-0.0300293-0.1400146
		l-4.5199585,2.6100464c-0.1500244,0.0899658-0.3200073,0.1399536-0.5,0.1399536c-0.1700439,0-0.3400269-0.0499878-0.5-0.1399536
		l-9.5300293-5.5l-3.4799805-2.0100098c-0.0400391-0.0200195-0.0599976-0.0499878-0.0900269-0.0800171
		c-0.0599976-0.039978-0.1099854-0.0800171-0.1599731-0.1400146c-0.0400391-0.039978-0.0700073-0.0899658-0.1000366-0.1499634
		c-0.039978-0.0499878-0.0700073-0.1099854-0.0899658-0.1700439c-0.0200195-0.0699463-0.0300293-0.1299438-0.0400391-0.1999512
		c0-0.0400391-0.0199585-0.0800171-0.0199585-0.1199951v-5.4200439
		C51.5449982,71.0900269,51.5550079,71.0700073,51.5550079,71.0499878z"/>
	<path class="st0" d="M54.8949738,86.2399902l2.4000244,1.3900146c0.3399658,0.2000122,0.7600098,0.2000122,1.0999756,0
		L60.7949982,86.25l6.5,3.75l9.5199585-5.4899902l34.6800537-20.0200195l9.4099731-5.4299927
		c0.4899902-0.2799683,0.4799805-0.9799805-0.0100098-1.25c-0.2199707,0.3500366-0.5299683,0.6400146-0.8999634,0.8599854
		L118.1249542,59.75c-0.3599854,0.2000122-0.7999878,0.210022-1.1699829,0.0200195l-1.6599731-0.8699951
		c-0.2900391,1.1900024-0.8699951,2.3999634-1.6400146,3.4199829c-0.6300049,0.8499756-1.3900146,1.5800171-2.2200317,2.0599976
		c-0.8299561,0.4799805-1.6099854,0.6400146-2.25,0.5200195c-0.2199707-0.0300293-0.4199829-0.1000366-0.5999756-0.2000122
		c0,0,0,0,0,0.0100098c-0.0200195-0.0100098-0.0299683-0.0200195-0.039978-0.0200195
		c-0.0100098-0.0100098-0.0200195-0.0100098-0.0200195-0.0200195c-0.7000122-0.3999634-1.4099731-0.8099976-2.1099854-1.2099609
		c-0.4199829-0.2399902-0.8800049-0.4400024-1.1600342-0.8600464c-0.0499878-0.0799561-0.0799561-0.1699829-0.1199951-0.2599487
		l-8.8699951,5.1300049h-0.0100098l-8.7599487,5.0499878c0,0,0,0.0100098-0.0100098,0.0100098l-6.7600098,3.8999634
		c0.0599976,0.2800293,0.0899658,0.5800171,0.0999756,0.9199829c0.0100098,1.6400146-0.7099609,3.5-1.8099976,4.9700317
		c-0.6499634,0.8699951-1.4199829,1.5999756-2.2600098,2.0800171c-0.8399658,0.4899902-1.6199951,0.6499634-2.2699585,0.5299683
		c-0.1700439-0.0299683-0.3400269-0.0800171-0.4899902-0.1499634c-0.0700073-0.0400391-0.1300049-0.0700073-0.2000122-0.1100464
		c-0.4700317-0.2699585-0.9299927-0.539978-1.3900146-0.7999878c-0.5-0.289978-1.0800171-0.4899902-1.4799805-0.9099731
		c-0.1500244-0.1500244-0.25-0.3300171-0.3200073-0.5300293c-0.0200195-0.039978-0.0200195-0.0899658-0.0300293-0.1400146
		l-4.5199585,2.6100464c-0.1500244,0.0899658-0.3200073,0.1399536-0.5,0.1399536c-0.1700439,0-0.3400269-0.0499878-0.5-0.1399536
		l-9.5300293-5.5l-3.2999878,1.8999634l4.8999634,2.8300171l-2.2299805,1.289978
		C54.5749664,85.5999756,54.5749664,86.0599976,54.8949738,86.2399902z"/>
	<path class="st1" d="M92.2949982,52.7700195l2.4699707,1.4199829v-3.2999878l-0.7099609-0.4100342v0.9700317
		c0,0.1799927-0.0900269,0.3499756-0.25,0.4299927L92.2949982,52.7700195z"/>
	<path class="st2" d="M81.2549591,45.7200317v1.3599854L77.6449738,45v-1.3599854L81.2549591,45.7200317z M78.1449738,42.7700195
		l3.7399902,2.1599731l1.8500366-1.0700073l-3.3900146-1.9599609l-0.3499756-0.2000122L78.1449738,42.7700195z
		 M82.634964,45.3599854l3.8900146,2.25l1.8499756-1.0700073l-3.8899536-2.25L82.634964,45.3599854z M82.0049591,46.1500244
		v1.3599854l3.8500366,2.2299805v-1.3599854L82.0049591,46.1500244z M91.2049713,50.8900146v1.3499756l1.8500366-1.0700073
		v-1.3599854L91.2049713,50.8900146z M86.6049957,48.8099976v1.3599854L90.2049713,52.25v-1.3599854L86.6049957,48.8099976z
		 M87.2749786,48.039978l3.4299927,1.9800415l1.8400269-1.0800171l-3.4100342-1.9699707L87.2749786,48.039978z"/>
	<path class="st3" d="M84.7549591,42.7999878l11.5100098,6.6400146c0.1500244,0.0900269,0.2800293,0.2200317,0.3699951,0.3699951
		l4.9100342-2.8300171l7.0299683,4.1700439l7.2800293-1.9500122l-11.7800293-6.8099976l-8.1099854,2.1799927
		c-0.2600098,0.0700073-0.5300293,0.0299683-0.7600098-0.0999756l-6.6799927-3.8400269L84.7549591,42.7999878z"/>
	<g>
		<path class="st1" d="M58.5550079,78.2800293c0,0,0.0099487,0,0.0199585,0c0.2000122,0,0.3800049-0.1199951,0.460022-0.3000488
			l0.3699951-0.8899536l0.7199707,0.5799561c0.0900269,0.0700073,0.2000122,0.1100464,0.3099976,0.1100464
			c0.0200195,0,0.0400391-0.0100098,0.0600586-0.0100098c0.1399536-0.0200195,0.2599487-0.0900269,0.3399658-0.2000122
			l0.2700195-0.3699951l3.4500122,2v3.1099854l-7.0400391-4.0700073L58.5550079,78.2800293z"/>
		<polygon class="st1" points="61.9749908,80.2000122 63.4749908,81.0599976 63.7450104,81.2200317 63.7450104,79.2200317 
			61.9749908,78.2000122 		"/>
	</g>
	<polygon class="st1" points="65.6449738,72.8300171 65.9749908,72.9100342 65.7249908,73.4899902 65.4049835,73.4100342 	"/>
	<polygon class="st1" points="80.0649567,60.7299805 80.4250031,58.9400024 82.1249542,57.960022 82.1249542,63.7000122 
		79.094986,65.4400024 	"/>
	<path class="st1" d="M63.6649933,73.7200317l0.7999878,0.4599609c0.0100098,0.0100098,0.0300293,0.0100098,0.0499878,0.0100098
		c0.0200195,0.0200195,0.0499878,0.0300293,0.0800171,0.039978l1.2999878,0.3400269
		c0.039978,0.0100098,0.0800171,0.0100098,0.1300049,0.0100098c0.1900024,0,0.3800049-0.1099854,0.460022-0.2999878
		l0.6399536-1.5100098c0-0.0200195,0-0.0400391,0.0100098-0.0499878c0-0.0100098,0.0100098-0.0200195,0.0100098-0.0200195
		v-0.0499878c0.0100098-0.0400391,0.0100098-0.0700073,0.0100098-0.1100464c0-0.0299683-0.0100098-0.0499878-0.0100098-0.0799561
		c-0.0100098-0.0300293-0.0200195-0.0599976-0.039978-0.1000366c-0.0100098-0.0199585-0.0200195-0.0499878-0.0400391-0.0700073
		c-0.0199585-0.0299683-0.039978-0.0499878-0.0599976-0.0699463c-0.0199585-0.0200195-0.039978-0.0400391-0.0700073-0.0599976
		c-0.0099487-0.0100098-0.0099487-0.0100098-0.0199585-0.0200195l-1.4700317-0.8400269l1.5900269-2.1599731
		c0.0499878,0.0299683,0.0899658,0.0700073,0.1400146,0.0899658l1.9099731,1.1000366
		c0.4100342,0.2000122,0.9700317,0.1400146,1.5800171-0.210022c0.8900146-0.5,1.6400146-1.5100098,2.039978-2.5700073
		l1.1900024,0.6900024c0.4100342,0.2000122,0.9700317,0.1400146,1.5800171-0.2099609
		c0.6499634-0.3800049,1.2299805-1.0100098,1.6499634-1.75l1.0100098,0.5799561
		c0.0800171,0.0500488,0.1700439,0.0700073,0.25,0.0700073c0.0700073,0,0.1400146-0.0199585,0.210022-0.0499878
		c0.0100098,0,0.0100098-0.0100098,0.0200195-0.0100098c0.0099487-0.0100098,0.0099487,0,0.0199585-0.0100098l4.2399902-2.4400024
		c0.1500244-0.0899658,0.25-0.25,0.25-0.4299927v-0.6499634l1.7900391,1.0299683l-13.7399902,7.9299927
		c-0.0599976,0.0400391-0.1199951,0.0800171-0.1700439,0.1199951l-5.5700073,4.9700317l-3.1399536-1.8099976L63.6649933,73.7200317z
		"/>
	<path class="st1" d="M63.6649933,73.7200317l0.7999878,0.4599609c0.0100098,0.0100098,0.0300293,0.0100098,0.0499878,0.0100098
		c0.0200195,0.0200195,0.0499878,0.0300293,0.0800171,0.039978l1.2999878,0.3400269
		c0.039978,0.0100098,0.0800171,0.0100098,0.1300049,0.0100098c0.1900024,0,0.3800049-0.1099854,0.460022-0.2999878
		l0.6399536-1.5100098c0-0.0200195,0-0.0400391,0.0100098-0.0499878c0-0.0100098,0.0100098-0.0200195,0.0100098-0.0200195
		v-0.0499878c0.0100098-0.0400391,0.0100098-0.0700073,0.0100098-0.1100464c0-0.0299683-0.0100098-0.0499878-0.0100098-0.0799561
		c-0.0100098-0.0300293-0.0200195-0.0599976-0.039978-0.1000366c-0.0100098-0.0199585-0.0200195-0.0499878-0.0400391-0.0700073
		c-0.0199585-0.0299683-0.039978-0.0499878-0.0599976-0.0699463c-0.0199585-0.0200195-0.039978-0.0400391-0.0700073-0.0599976
		c-0.0099487-0.0100098-0.0099487-0.0100098-0.0199585-0.0200195l-1.4700317-0.8400269l1.5900269-2.1599731
		c0.0499878,0.0299683,0.0899658,0.0700073,0.1400146,0.0899658l1.9099731,1.1000366
		c0.4100342,0.2000122,0.9700317,0.1400146,1.5800171-0.210022c0.8900146-0.5,1.6400146-1.5100098,2.039978-2.5700073
		l1.1900024,0.6900024c0.4100342,0.2000122,0.9700317,0.1400146,1.5800171-0.2099609
		c0.6499634-0.3800049,1.2299805-1.0100098,1.6499634-1.75l1.0100098,0.5799561
		c0.0800171,0.0500488,0.1700439,0.0700073,0.25,0.0700073c0.0700073,0,0.1400146-0.0199585,0.210022-0.0499878
		c0.0100098,0,0.0100098-0.0100098,0.0200195-0.0100098c0.0099487-0.0100098,0.0099487,0,0.0199585-0.0100098l4.2399902-2.4400024
		c0.1500244-0.0899658,0.25-0.25,0.25-0.4299927v-0.6499634l1.7900391,1.0299683l-13.7399902,7.9299927
		c-0.0599976,0.0400391-0.1199951,0.0800171-0.1700439,0.1199951l-5.5700073,4.9700317l-3.1399536-1.8099976L63.6649933,73.7200317z
		"/>
	<polygon class="st1" points="65.6449738,72.8300171 65.9749908,72.9100342 65.7249908,73.4899902 65.4049835,73.4100342 	"/>
	<path class="st1" d="M63.6649933,73.7200317l0.7999878,0.4599609c0.0100098,0.0100098,0.0300293,0.0100098,0.0499878,0.0100098
		c0.0200195,0.0200195,0.0499878,0.0300293,0.0800171,0.039978l1.2999878,0.3400269
		c0.039978,0.0100098,0.0800171,0.0100098,0.1300049,0.0100098c0.1900024,0,0.3800049-0.1099854,0.460022-0.2999878
		l0.6399536-1.5100098c0-0.0200195,0-0.0400391,0.0100098-0.0499878c0-0.0100098,0.0100098-0.0200195,0.0100098-0.0200195
		v-0.0499878c0.0100098-0.0400391,0.0100098-0.0700073,0.0100098-0.1100464c0-0.0299683-0.0100098-0.0499878-0.0100098-0.0799561
		c-0.0100098-0.0300293-0.0200195-0.0599976-0.039978-0.1000366c-0.0100098-0.0199585-0.0200195-0.0499878-0.0400391-0.0700073
		c-0.0199585-0.0299683-0.039978-0.0499878-0.0599976-0.0699463c-0.0199585-0.0200195-0.039978-0.0400391-0.0700073-0.0599976
		c-0.0099487-0.0100098-0.0099487-0.0100098-0.0199585-0.0200195l-1.4700317-0.8400269l1.5900269-2.1599731
		c0.0499878,0.0299683,0.0899658,0.0700073,0.1400146,0.0899658l1.9099731,1.1000366
		c0.4100342,0.2000122,0.9700317,0.1400146,1.5800171-0.210022c0.8900146-0.5,1.6400146-1.5100098,2.039978-2.5700073
		l1.1900024,0.6900024c0.4100342,0.2000122,0.9700317,0.1400146,1.5800171-0.2099609
		c0.6499634-0.3800049,1.2299805-1.0100098,1.6499634-1.75l1.0100098,0.5799561
		c0.0800171,0.0500488,0.1700439,0.0700073,0.25,0.0700073c0.0700073,0,0.1400146-0.0199585,0.210022-0.0499878
		c0.0100098,0,0.0100098-0.0100098,0.0200195-0.0100098c0.0099487-0.0100098,0.0099487,0,0.0199585-0.0100098l4.2399902-2.4400024
		c0.1500244-0.0899658,0.25-0.25,0.25-0.4299927v-0.6499634l1.7900391,1.0299683l-13.7399902,7.9299927
		c-0.0599976,0.0400391-0.1199951,0.0800171-0.1700439,0.1199951l-5.5700073,4.9700317l-3.1399536-1.8099976L63.6649933,73.7200317z
		"/>
	<polygon class="st1" points="65.6449738,72.8300171 65.9749908,72.9100342 65.7249908,73.4899902 65.4049835,73.4100342 	"/>
	<polygon class="st4" points="59.9449615,71.5800171 60.5049591,71.9000244 58.2450104,77.2700195 57.5550079,77.2399902 	"/>
	<polygon class="st1" points="65.9749908,72.9100342 65.7249908,73.4899902 65.4049835,73.4100342 65.6449738,72.8300171 	"/>
	<path class="st1" d="M64.4649811,74.1799927c0.0100098,0.0100098,0.0300293,0.0100098,0.0499878,0.0100098
		c0.0200195,0.0200195,0.0499878,0.0300293,0.0800171,0.039978l1.2999878,0.3400269
		c0.039978,0.0100098,0.0800171,0.0100098,0.1300049,0.0100098c0.1900024,0,0.3800049-0.1099854,0.460022-0.2999878
		l0.6399536-1.5100098c0-0.0200195,0-0.0400391,0.0100098-0.0499878c0-0.0100098,0.0100098-0.0200195,0.0100098-0.0200195
		v-0.0499878c0.0100098-0.0400391,0.0100098-0.0700073,0.0100098-0.1100464c0-0.0299683-0.0100098-0.0499878-0.0100098-0.0799561
		c-0.0100098-0.0300293-0.0200195-0.0599976-0.039978-0.1000366c-0.0100098-0.0199585-0.0200195-0.0499878-0.0400391-0.0700073
		c-0.0199585-0.0299683-0.039978-0.0499878-0.0599976-0.0699463c-0.0199585-0.0200195-0.039978-0.0400391-0.0700073-0.0599976
		c-0.0099487-0.0100098-0.0099487-0.0100098-0.0199585-0.0200195l-1.4700317-0.8400269l1.5900269-2.1599731
		c0.0499878,0.0299683,0.0899658,0.0700073,0.1400146,0.0899658l1.9099731,1.1000366
		c0.4100342,0.2000122,0.9700317,0.1400146,1.5800171-0.210022c0.8900146-0.5,1.6400146-1.5100098,2.039978-2.5700073
		l1.1900024,0.6900024c0.4100342,0.2000122,0.9700317,0.1400146,1.5800171-0.2099609
		c0.6499634-0.3800049,1.2299805-1.0100098,1.6499634-1.75l1.0100098,0.5799561
		c0.0800171,0.0500488,0.1700439,0.0700073,0.25,0.0700073c0.0700073,0,0.1400146-0.0199585,0.210022-0.0499878
		c0.0100098,0,0.0100098-0.0100098,0.0200195-0.0100098c0.0099487-0.0100098,0.0099487,0,0.0199585-0.0100098l4.2399902-2.4400024
		c0.1500244-0.0899658,0.25-0.25,0.25-0.4299927v-0.6499634l1.7900391,1.0299683l-13.7399902,7.9299927
		c-0.0599976,0.0400391-0.1199951,0.0800171-0.1700439,0.1199951l-5.5700073,4.9700317l-3.1399536-1.8099976l1.3699951-1.8599854
		L64.4649811,74.1799927z"/>
	<polygon class="st1" points="65.6449738,72.8300171 65.9749908,72.9100342 65.7249908,73.4899902 65.4049835,73.4100342 	"/>
	<path class="st1" d="M63.6649933,73.7200317l0.7999878,0.4599609c0.0100098,0.0100098,0.0300293,0.0100098,0.0499878,0.0100098
		c0.0200195,0.0200195,0.0499878,0.0300293,0.0800171,0.039978l1.2999878,0.3400269
		c0.039978,0.0100098,0.0800171,0.0100098,0.1300049,0.0100098c0.1900024,0,0.3800049-0.1099854,0.460022-0.2999878
		l0.6399536-1.5100098c0-0.0200195,0-0.0400391,0.0100098-0.0499878c0-0.0100098,0.0100098-0.0200195,0.0100098-0.0200195
		v-0.0499878c0.0100098-0.0400391,0.0100098-0.0700073,0.0100098-0.1100464c0-0.0299683-0.0100098-0.0499878-0.0100098-0.0799561
		c-0.0100098-0.0300293-0.0200195-0.0599976-0.039978-0.1000366c-0.0100098-0.0199585-0.0200195-0.0499878-0.0400391-0.0700073
		c-0.0199585-0.0299683-0.039978-0.0499878-0.0599976-0.0699463c-0.0199585-0.0200195-0.039978-0.0400391-0.0700073-0.0599976
		c-0.0099487-0.0100098-0.0099487-0.0100098-0.0199585-0.0200195l-1.4700317-0.8400269l1.5900269-2.1599731
		c0.0499878,0.0299683,0.0899658,0.0700073,0.1400146,0.0899658l1.9099731,1.1000366
		c0.4100342,0.2000122,0.9700317,0.1400146,1.5800171-0.210022c0.8900146-0.5,1.6400146-1.5100098,2.039978-2.5700073
		l1.1900024,0.6900024c0.4100342,0.2000122,0.9700317,0.1400146,1.5800171-0.2099609
		c0.6499634-0.3800049,1.2299805-1.0100098,1.6499634-1.75l1.0100098,0.5799561
		c0.0800171,0.0500488,0.1700439,0.0700073,0.25,0.0700073c0.0700073,0,0.1400146-0.0199585,0.210022-0.0499878
		c0.0100098,0,0.0100098-0.0100098,0.0200195-0.0100098c0.0099487-0.0100098,0.0099487,0,0.0199585-0.0100098l4.2399902-2.4400024
		c0.1500244-0.0899658,0.25-0.25,0.25-0.4299927v-0.6499634l1.7900391,1.0299683l-13.7399902,7.9299927
		c-0.0599976,0.0400391-0.1199951,0.0800171-0.1700439,0.1199951l-5.5700073,4.9700317l-3.1399536-1.8099976L63.6649933,73.7200317z
		"/>
	<polygon class="st1" points="65.6449738,72.8300171 65.9749908,72.9100342 65.7249908,73.4899902 65.4049835,73.4100342 	"/>
	<path class="st1" d="M63.6649933,73.7200317l0.7999878,0.4599609c0.0100098,0.0100098,0.0300293,0.0100098,0.0499878,0.0100098
		c0.0200195,0.0200195,0.0499878,0.0300293,0.0800171,0.039978l1.2999878,0.3400269
		c0.039978,0.0100098,0.0800171,0.0100098,0.1300049,0.0100098c0.1900024,0,0.3800049-0.1099854,0.460022-0.2999878
		l0.6399536-1.5100098c0-0.0200195,0-0.0400391,0.0100098-0.0499878c0-0.0100098,0.0100098-0.0200195,0.0100098-0.0200195
		v-0.0499878c0.0100098-0.0400391,0.0100098-0.0700073,0.0100098-0.1100464c0-0.0299683-0.0100098-0.0499878-0.0100098-0.0799561
		c-0.0100098-0.0300293-0.0200195-0.0599976-0.039978-0.1000366c-0.0100098-0.0199585-0.0200195-0.0499878-0.0400391-0.0700073
		c-0.0199585-0.0299683-0.039978-0.0499878-0.0599976-0.0699463c-0.0199585-0.0200195-0.039978-0.0400391-0.0700073-0.0599976
		c-0.0099487-0.0100098-0.0099487-0.0100098-0.0199585-0.0200195l-1.4700317-0.8400269l1.5900269-2.1599731
		c0.0499878,0.0299683,0.0899658,0.0700073,0.1400146,0.0899658l1.9099731,1.1000366
		c0.4100342,0.2000122,0.9700317,0.1400146,1.5800171-0.210022c0.8900146-0.5,1.6400146-1.5100098,2.039978-2.5700073
		l1.1900024,0.6900024c0.4100342,0.2000122,0.9700317,0.1400146,1.5800171-0.2099609
		c0.6499634-0.3800049,1.2299805-1.0100098,1.6499634-1.75l1.0100098,0.5799561
		c0.0800171,0.0500488,0.1700439,0.0700073,0.25,0.0700073c0.0700073,0,0.1400146-0.0199585,0.210022-0.0499878
		c0.0100098,0,0.0100098-0.0100098,0.0200195-0.0100098c0.0099487-0.0100098,0.0099487,0,0.0199585-0.0100098l4.2399902-2.4400024
		c0.1500244-0.0899658,0.25-0.25,0.25-0.4299927v-0.6499634l1.7900391,1.0299683l-13.7399902,7.9299927
		c-0.0599976,0.0400391-0.1199951,0.0800171-0.1700439,0.1199951l-5.5700073,4.9700317l-3.1399536-1.8099976L63.6649933,73.7200317z
		"/>
	<path class="st1" d="M55.3749542,73.8900146c0.0400391,0.0299683,0.0900269,0.039978,0.1400146,0.0599976l-0.2099609,0.5
		l-1.1800537-0.6799927v1.9899902l0.5,0.289978l-0.1599731,0.3800049c-0.0100098,0.0200195-0.0100098,0.0300293-0.0100098,0.0499878
		l-0.9099731-0.5299683v-3.1099854L55.3749542,73.8900146z"/>
	<path class="st1" d="M77.1549835,60.2800293l0.5-2.4700317l1.7700195,1.0599976l-1.3099976,6.3699951V65.25l-0.0800171,0.4000244
		l-0.4899902-0.2800293C77.7049713,64.9100342,77.8050079,64.4400024,77.8050079,64
		c-0.0100098-0.789978-0.3000488-1.3300171-0.7700195-1.5499878l-0.2800293-0.1699829L77.1549835,60.2800293z"/>
	<polygon class="st1" points="71.6449738,59.9299927 76.4549713,58.6900024 76.1750031,60.0800171 71.4250031,61.3099976 	"/>
	<polygon class="st1" points="70.5849762,60.210022 70.3650055,61.5800171 63.3149567,63.4000244 63.3149567,62.0900269 	"/>
	<polygon class="st1" points="60.5849762,70.0599976 64.7249908,72.4500122 64.4749908,73.0300293 64.1649933,72.8499756 
		60.3349762,70.6500244 	"/>
	<path class="st1" d="M77.1549835,60.2800293l0.5-2.4700317l1.7700195,1.0599976l-1.3099976,6.3699951V65.25l-0.0800171,0.4000244
		l-0.4899902-0.2800293C77.7049713,64.9100342,77.8050079,64.4400024,77.8050079,64
		c-0.0100098-0.789978-0.3000488-1.3300171-0.7700195-1.5499878l-0.2800293-0.1699829L77.1549835,60.2800293z"/>
	<polygon class="st1" points="71.6449738,59.9299927 76.4549713,58.6900024 76.1750031,60.0800171 71.4250031,61.3099976 	"/>
	<polygon class="st4" points="54.1949615,66.3699951 57.8249664,68.4700317 57.5749664,69.0599976 53.9449615,66.9700317 	"/>
	<polygon class="st1" points="76.4549713,58.6900024 76.1750031,60.0800171 71.4250031,61.3099976 71.6449738,59.9299927 	"/>
	<path class="st1" d="M77.6549835,57.8099976l1.7700195,1.0599976l-1.3099976,6.3699951V65.25l-0.0800171,0.4000244
		l-0.4899902-0.2800293C77.7049713,64.9100342,77.8050079,64.4400024,77.8050079,64
		c-0.0100098-0.789978-0.3000488-1.3300171-0.7700195-1.5499878l-0.2800293-0.1699829l0.4000244-2L77.6549835,57.8099976z"/>
	<path class="st1" d="M77.1549835,60.2800293l0.5-2.4700317l1.7700195,1.0599976l-1.3099976,6.3699951V65.25l-0.0800171,0.4000244
		l-0.4899902-0.2800293C77.7049713,64.9100342,77.8050079,64.4400024,77.8050079,64
		c-0.0100098-0.789978-0.3000488-1.3300171-0.7700195-1.5499878l-0.2800293-0.1699829L77.1549835,60.2800293z"/>
	<polygon class="st1" points="71.6449738,59.9299927 76.4549713,58.6900024 76.1750031,60.0800171 71.4250031,61.3099976 	"/>
	<polygon class="st1" points="70.5849762,60.210022 70.3650055,61.5800171 63.3149567,63.4000244 63.3149567,62.0900269 	"/>
	<polygon class="st1" points="60.5849762,70.0599976 64.7249908,72.4500122 64.4749908,73.0300293 64.1649933,72.8499756 
		60.3349762,70.6500244 	"/>
	<path class="st1" d="M77.1549835,60.2800293l0.5-2.4700317l1.7700195,1.0599976l-1.3099976,6.3699951V65.25l-0.0800171,0.4000244
		l-0.4899902-0.2800293C77.7049713,64.9100342,77.8050079,64.4400024,77.8050079,64
		c-0.0100098-0.789978-0.3000488-1.3300171-0.7700195-1.5499878l-0.2800293-0.1699829L77.1549835,60.2800293z"/>
	<polygon class="st1" points="71.6449738,59.9299927 76.4549713,58.6900024 76.1750031,60.0800171 71.4250031,61.3099976 	"/>
	<polygon class="st1" points="70.5849762,60.210022 70.3650055,61.5800171 63.3149567,63.4000244 63.3149567,62.0900269 	"/>
	<polygon class="st1" points="60.5849762,70.0599976 64.7249908,72.4500122 64.4749908,73.0300293 64.1649933,72.8499756 
		60.3349762,70.6500244 	"/>
	<path class="st1" d="M77.1549835,60.2800293l0.5-2.4700317l1.7700195,1.0599976l-1.3099976,6.3699951V65.25l-0.0800171,0.4000244
		l-0.4899902-0.2800293C77.7049713,64.9100342,77.8050079,64.4400024,77.8050079,64
		c-0.0100098-0.789978-0.3000488-1.3300171-0.7700195-1.5499878l-0.2800293-0.1699829L77.1549835,60.2800293z"/>
	<polygon class="st1" points="71.6449738,59.9299927 76.4549713,58.6900024 76.1750031,60.0800171 71.4250031,61.3099976 	"/>
	<polygon class="st1" points="60.5849762,70.0599976 64.7249908,72.4500122 64.4749908,73.0300293 64.1649933,72.8499756 
		60.3349762,70.6500244 	"/>
	<path class="st4" d="M59.9850006,65.9400024h0.8899536c0.210022,0,0.4000244-0.1400146,0.4700317-0.3400269
		c0.0700073-0.1999512,0-0.4299927-0.1699829-0.5599976l-0.5200195-0.3999634l0.3800049-0.1099854l0.6400146,0.3699951
		l-2.2600098,5.3599854L56.5749664,77l-1.0199585-0.5800171L59.9850006,65.9400024z"/>
	<polygon class="st1" points="64.7249908,72.4500122 64.4749908,73.0300293 64.1649933,72.8499756 60.3349762,70.6500244 
		60.5849762,70.0599976 	"/>
	<polygon class="st1" points="65.9749908,72.9100342 65.7249908,73.4899902 65.4049835,73.4100342 65.6449738,72.8300171 	"/>
	<polygon class="st1" points="71.4250031,61.3099976 71.6449738,59.9299927 76.4549713,58.6900024 76.1750031,60.0800171 	"/>
	<path class="st1" d="M78.1150055,65.25l-0.0800171,0.4000244l-0.4899902-0.2800293
		C77.7049713,64.9100342,77.8050079,64.4400024,77.8050079,64c-0.0100098-0.789978-0.3000488-1.3300171-0.7700195-1.5499878
		l-0.2800293-0.1699829l0.4000244-2l0.5-2.4700317l1.7700195,1.0599976l-1.3099976,6.3699951V65.25z"/>
	<path class="st1" d="M64.4649811,74.1799927c0.0100098,0.0100098,0.0300293,0.0100098,0.0499878,0.0100098
		c0.0200195,0.0200195,0.0499878,0.0300293,0.0800171,0.039978l1.2999878,0.3400269
		c0.039978,0.0100098,0.0800171,0.0100098,0.1300049,0.0100098c0.1900024,0,0.3800049-0.1099854,0.460022-0.2999878
		l0.6399536-1.5100098c0-0.0200195,0-0.0400391,0.0100098-0.0499878c0-0.0100098,0.0100098-0.0200195,0.0100098-0.0200195
		v-0.0499878c0.0100098-0.0400391,0.0100098-0.0700073,0.0100098-0.1100464c0-0.0299683-0.0100098-0.0499878-0.0100098-0.0799561
		c-0.0100098-0.0300293-0.0200195-0.0599976-0.039978-0.1000366c-0.0100098-0.0199585-0.0200195-0.0499878-0.0400391-0.0700073
		c-0.0199585-0.0299683-0.039978-0.0499878-0.0599976-0.0699463c-0.0199585-0.0200195-0.039978-0.0400391-0.0700073-0.0599976
		c-0.0099487-0.0100098-0.0099487-0.0100098-0.0199585-0.0200195l-1.4700317-0.8400269l1.5900269-2.1599731
		c0.0499878,0.0299683,0.0899658,0.0700073,0.1400146,0.0899658l1.9099731,1.1000366
		c0.4100342,0.2000122,0.9700317,0.1400146,1.5800171-0.210022c0.8900146-0.5,1.6400146-1.5100098,2.039978-2.5700073
		l1.1900024,0.6900024c0.4100342,0.2000122,0.9700317,0.1400146,1.5800171-0.2099609
		c0.6499634-0.3800049,1.2299805-1.0100098,1.6499634-1.75l1.0100098,0.5799561
		c0.0800171,0.0500488,0.1700439,0.0700073,0.25,0.0700073c0.0700073,0,0.1400146-0.0199585,0.210022-0.0499878
		c0.0100098,0,0.0100098-0.0100098,0.0200195-0.0100098c0.0099487-0.0100098,0.0099487,0,0.0199585-0.0100098l4.2399902-2.4400024
		c0.1500244-0.0899658,0.25-0.25,0.25-0.4299927v-0.6499634l1.7900391,1.0299683l-13.7399902,7.9299927
		c-0.0599976,0.0400391-0.1199951,0.0800171-0.1700439,0.1199951l-5.5700073,4.9700317l-3.1399536-1.8099976l1.3699951-1.8599854
		L64.4649811,74.1799927z"/>
	<polygon class="st1" points="60.5849762,70.0599976 64.7249908,72.4500122 64.4749908,73.0300293 64.1649933,72.8499756 
		60.3349762,70.6500244 	"/>
	<polygon class="st1" points="71.6449738,59.9299927 76.4549713,58.6900024 76.1750031,60.0800171 71.4250031,61.3099976 	"/>
	<polygon class="st1" points="70.5849762,60.210022 70.3650055,61.5800171 63.3149567,63.4000244 63.3149567,62.0900269 	"/>
	<path class="st1" d="M77.1549835,60.2800293l0.5-2.4700317l1.7700195,1.0599976l-1.3099976,6.3699951V65.25l-0.0800171,0.4000244
		l-0.4899902-0.2800293C77.7049713,64.9100342,77.8050079,64.4400024,77.8050079,64
		c-0.0100098-0.789978-0.3000488-1.3300171-0.7700195-1.5499878l-0.2800293-0.1699829L77.1549835,60.2800293z"/>
	<polygon class="st4" points="60.5849762,70.0599976 64.7249908,72.4500122 64.4749908,73.0300293 64.1649933,72.8499756 
		60.3349762,70.6500244 	"/>
	<polygon class="st1" points="70.5849762,60.210022 70.3650055,61.5800171 63.3149567,63.4000244 63.3149567,62.0900269 	"/>
	<polygon class="st1" points="71.6449738,59.9299927 76.4549713,58.6900024 76.1750031,60.0800171 71.4250031,61.3099976 	"/>
	<path class="st1" d="M77.1549835,60.2800293l0.5-2.4700317l1.7700195,1.0599976l-1.3099976,6.3699951V65.25l-0.0800171,0.4000244
		l-0.4899902-0.2800293C77.7049713,64.9100342,77.8050079,64.4400024,77.8050079,64
		c-0.0100098-0.789978-0.3000488-1.3300171-0.7700195-1.5499878l-0.2800293-0.1699829L77.1549835,60.2800293z"/>
	<polygon class="st1" points="70.5849762,60.210022 70.3650055,61.5800171 63.3149567,63.4000244 63.3149567,62.0900269 	"/>
	<polygon class="st4" points="59.2049713,61.539978 59.9449615,61.9700317 59.9449615,62.0900269 58.0550079,63.7600098 
		57.2649689,63.2800293 	"/>
	<polygon class="st1" points="70.3650055,61.5800171 63.3149567,63.4000244 63.3149567,62.0900269 70.5849762,60.210022 	"/>
	<polygon class="st1" points="80.0649567,60.7299805 80.4250031,58.9400024 82.1249542,57.960022 82.1249542,63.7000122 
		79.094986,65.4400024 	"/>
	<path class="st1" d="M63.6649933,73.7200317l0.7999878,0.4599609c0.0100098,0.0100098,0.0300293,0.0100098,0.0499878,0.0100098
		c0.0200195,0.0200195,0.0499878,0.0300293,0.0800171,0.039978l1.2999878,0.3400269
		c0.039978,0.0100098,0.0800171,0.0100098,0.1300049,0.0100098c0.1900024,0,0.3800049-0.1099854,0.460022-0.2999878
		l0.6399536-1.5100098c0-0.0200195,0-0.0400391,0.0100098-0.0499878c0-0.0100098,0.0100098-0.0200195,0.0100098-0.0200195
		v-0.0499878c0.0100098-0.0400391,0.0100098-0.0700073,0.0100098-0.1100464c0-0.0299683-0.0100098-0.0499878-0.0100098-0.0799561
		c-0.0100098-0.0300293-0.0200195-0.0599976-0.039978-0.1000366c-0.0100098-0.0199585-0.0200195-0.0499878-0.0400391-0.0700073
		c-0.0199585-0.0299683-0.039978-0.0499878-0.0599976-0.0699463c-0.0199585-0.0200195-0.039978-0.0400391-0.0700073-0.0599976
		c-0.0099487-0.0100098-0.0099487-0.0100098-0.0199585-0.0200195l-1.4700317-0.8400269l1.5900269-2.1599731
		c0.0499878,0.0299683,0.0899658,0.0700073,0.1400146,0.0899658l1.9099731,1.1000366
		c0.4100342,0.2000122,0.9700317,0.1400146,1.5800171-0.210022c0.8900146-0.5,1.6400146-1.5100098,2.039978-2.5700073
		l1.1900024,0.6900024c0.4100342,0.2000122,0.9700317,0.1400146,1.5800171-0.2099609
		c0.6499634-0.3800049,1.2299805-1.0100098,1.6499634-1.75l1.0100098,0.5799561
		c0.0800171,0.0500488,0.1700439,0.0700073,0.25,0.0700073c0.0700073,0,0.1400146-0.0199585,0.210022-0.0499878
		c0.0100098,0,0.0100098-0.0100098,0.0200195-0.0100098c0.0099487-0.0100098,0.0099487,0,0.0199585-0.0100098l4.2399902-2.4400024
		c0.1500244-0.0899658,0.25-0.25,0.25-0.4299927v-0.6499634l1.7900391,1.0299683l-13.7399902,7.9299927
		c-0.0599976,0.0400391-0.1199951,0.0800171-0.1700439,0.1199951l-5.5700073,4.9700317l-3.1399536-1.8099976L63.6649933,73.7200317z
		"/>
	<polygon class="st1" points="80.0649567,60.7299805 80.4250031,58.9400024 82.1249542,57.960022 82.1249542,63.7000122 
		79.094986,65.4400024 	"/>
	<polygon class="st1" points="65.6449738,72.8300171 65.9749908,72.9100342 65.7249908,73.4899902 65.4049835,73.4100342 	"/>
	<polygon class="st1" points="80.0649567,60.7299805 80.4250031,58.9400024 82.1249542,57.960022 82.1249542,63.7000122 
		79.094986,65.4400024 	"/>
	<path class="st5" d="M66.5568237,79.0741653v3.2300415l4.3800049-2.5300293l0.0499878-0.4899902
		c0-2.3300171,0.7699585-3.6400146,2.8200073-4.8200073l2.5499878-1.4699707c0.8699951-0.5100098,1.9199829-0.5100098,2.7999878,0
		c0.5499878,0.3099976,0.960022,0.789978,1.1900024,1.3499756l5.6400146-3.25v-5.0299683l-13.7200317,7.9199829
		L66.5568237,79.0741653z"/>
	<polygon class="st1" points="80.0649567,60.7299805 80.4250031,58.9400024 82.1249542,57.960022 82.1249542,63.7000122 
		79.094986,65.4400024 	"/>
	<polygon class="st4" points="65.6449738,72.8300171 65.9749908,72.9100342 65.7249908,73.4899902 65.4049835,73.4100342 	"/>
	<polygon class="st1" points="85.9850006,61.6500244 85.9850006,62.5200195 83.1249542,60.8699951 83.1249542,60 	"/>
	<polygon class="st1" points="80.0649567,60.7299805 80.4250031,58.9400024 82.1249542,57.960022 82.1249542,63.7000122 
		79.094986,65.4400024 	"/>
	<path class="st4" d="M77.1549835,60.2800293l0.5-2.4700317l1.7700195,1.0599976l-1.3099976,6.3699951V65.25l-0.0800171,0.4000244
		l-0.4899902-0.2800293C77.7049713,64.9100342,77.8050079,64.4400024,77.8050079,64
		c-0.0100098-0.789978-0.3000488-1.3300171-0.7700195-1.5499878l-0.2800293-0.1699829L77.1549835,60.2800293z"/>
	<polygon class="st4" points="71.6449738,59.9299927 76.4549713,58.6900024 76.1750031,60.0800171 71.4250031,61.3099976 	"/>
	<polygon class="st4" points="70.5849762,60.210022 70.3650055,61.5800171 63.3149567,63.4000244 63.3149567,62.0900269 	"/>
	<path class="st1" d="M74.5049591,55.5599976l1.7000122-0.9699707v0.9799805c0,0.0200195,0.0100098,0.0299683,0.0100098,0.0499878
		l-1.8200073,0.4799805L74.5049591,55.5599976z"/>
	<path class="st1" d="M74.5049591,55.5599976l1.7000122-0.9699707v0.9799805c0,0.0200195,0.0100098,0.0299683,0.0100098,0.0499878
		l-1.8200073,0.4799805L74.5049591,55.5599976z"/>
	<path class="st1" d="M74.5049591,55.5599976l1.7000122-0.9699707v0.9799805c0,0.0200195,0.0100098,0.0299683,0.0100098,0.0499878
		l-1.8200073,0.4799805L74.5049591,55.5599976z"/>
	<path class="st1" d="M74.5049591,55.5599976l1.7000122-0.9699707v0.9799805c0,0.0200195,0.0100098,0.0299683,0.0100098,0.0499878
		l-1.8200073,0.4799805L74.5049591,55.5599976z"/>
	<polygon class="st4" points="71.2350006,56.9299927 71.7450104,54.4400024 73.4950104,55.4899902 73.3249664,56.3499756 
		73.3249664,56.3800049 	"/>
	<path class="st1" d="M76.2049713,54.5900269v0.9799805c0,0.0200195,0.0100098,0.0299683,0.0100098,0.0499878l-1.8200073,0.4799805
		l0.1099854-0.539978L76.2049713,54.5900269z"/>
	<path class="st1" d="M74.5049591,55.5599976l1.7000122-0.9699707v0.9799805c0,0.0200195,0.0100098,0.0299683,0.0100098,0.0499878
		l-1.8200073,0.4799805L74.5049591,55.5599976z"/>
	<path class="st4" d="M74.5049591,55.5599976l1.7000122-0.9699707v0.9799805c0,0.0200195,0.0100098,0.0299683,0.0100098,0.0499878
		l-1.8200073,0.4799805L74.5049591,55.5599976z"/>
	<polygon class="st4" points="74.0349884,52.7000122 75.7149811,53.710022 75.4049835,53.8900146 74.0649567,54.6600342 
		72.3749542,53.6500244 	"/>
	<polygon class="st4" points="79.9449615,56.0800171 81.6249542,57.0900269 79.9850006,58.039978 78.2949982,57.0300293 	"/>
	<path class="st1" d="M89.7949982,57.4799805c0.1300049-0.0699463,0.2299805-0.2099609,0.25-0.3599854l0.4299927-3.0899658
		l3.289978,1.8899536l-6.7099609,3.8699951l-0.6200562-0.3599854L89.7949982,57.4799805z"/>
	<path class="st1" d="M89.7949982,57.4799805c0.1300049-0.0699463,0.2299805-0.2099609,0.25-0.3599854l0.4299927-3.0899658
		l3.289978,1.8899536l-6.7099609,3.8699951l-0.6200562-0.3599854L89.7949982,57.4799805z"/>
	<path class="st1" d="M89.7949982,57.4799805c0.1300049-0.0699463,0.2299805-0.2099609,0.25-0.3599854l0.4299927-3.0899658
		l3.289978,1.8899536l-6.7099609,3.8699951l-0.6200562-0.3599854L89.7949982,57.4799805z"/>
	<path class="st1" d="M89.7949982,57.4799805c0.1300049-0.0699463,0.2299805-0.2099609,0.25-0.3599854l0.4299927-3.0899658
		l3.289978,1.8899536l-6.7099609,3.8699951l-0.6200562-0.3599854L89.7949982,57.4799805z"/>
	<polygon class="st1" points="86.1849518,58.4199829 88.344986,52.3300171 89.594986,53.0499878 89.0849762,56.7399902 	"/>
	<path class="st1" d="M90.0449982,57.1199951l0.4299927-3.0899658l3.289978,1.8899536l-6.7099609,3.8699951l-0.6200562-0.3599854
		l3.3600464-1.9500122C89.9250031,57.4100342,90.0249786,57.2700195,90.0449982,57.1199951z"/>
	<path class="st1" d="M89.7949982,57.4799805c0.1300049-0.0699463,0.2299805-0.2099609,0.25-0.3599854l0.4299927-3.0899658
		l3.289978,1.8899536l-6.7099609,3.8699951l-0.6200562-0.3599854L89.7949982,57.4799805z"/>
	<path class="st1" d="M89.7949982,57.4799805c0.1300049-0.0699463,0.2299805-0.2099609,0.25-0.3599854l0.4299927-3.0899658
		l3.289978,1.8899536l-6.7099609,3.8699951l-0.6200562-0.3599854L89.7949982,57.4799805z"/>
	<polygon class="st1" points="86.0149689,51.0100098 87.4549713,51.8400269 85.0550079,58.6400146 83.6150055,57.7999878 	"/>
	<path class="st1" d="M79.4049835,47.1900024l1.2199707,0.710022l-2.3999634,6.7999878l-1.0200195-0.5900269v-0.3899536
		c0-0.0300293-0.0200195-0.0599976-0.0299683-0.1000366c0-0.0299683-0.0100098-0.0599976-0.0200195-0.0899658L79.4049835,47.1900024
		z"/>
	<polygon class="st1" points="85.9850006,61.6500244 85.9850006,62.5200195 83.1249542,60.8699951 83.1249542,60 	"/>
	<polygon class="st1" points="80.0649567,60.7299805 80.4250031,58.9400024 82.1249542,57.960022 82.1249542,63.7000122 
		79.094986,65.4400024 	"/>
	<polygon class="st1" points="85.9850006,61.6500244 85.9850006,62.5200195 83.1249542,60.8699951 83.1249542,60 	"/>
	<polygon class="st1" points="80.0649567,60.7299805 80.4250031,58.9400024 82.1249542,57.960022 82.1249542,63.7000122 
		79.094986,65.4400024 	"/>
	<polygon class="st1" points="85.9850006,62.5200195 83.1249542,60.8699951 83.1249542,60 85.9850006,61.6500244 	"/>
	<path class="st5" d="M94.7649689,66.0200195l-6.7799683,3.9099731v-5.5999756c0-0.0100098,0-0.0100098,0-0.0200195v-2.75
		l6.7799683-3.9099731V66.0200195z"/>
	<polygon class="st1" points="85.9850006,61.6500244 85.9850006,62.5200195 83.1249542,60.8699951 83.1249542,60 	"/>
	<polygon class="st1" points="80.0649567,60.7299805 80.4250031,58.9400024 82.1249542,57.960022 82.1249542,63.7000122 
		79.094986,65.4400024 	"/>
	<polygon class="st1" points="85.9850006,61.6500244 85.9850006,62.5200195 83.1249542,60.8699951 83.1249542,60 	"/>
	<polygon class="st4" points="80.0649567,60.7299805 80.4250031,58.9400024 82.1249542,57.960022 82.1249542,63.7000122 
		79.094986,65.4400024 	"/>
	<polygon class="st1" points="85.9850006,61.6500244 85.9850006,62.5200195 83.1249542,60.8699951 83.1249542,60 	"/>
	<path class="st5" d="M101.5449982,46.9799805l7.0299683,4.1700439l7.2800293-1.9500122l0.3699951,0.210022v4.2199707
		l-0.7800293,0.4500122c-0.1399536-0.4899902-0.4599609-0.9100342-0.9199829-1.1699829
		c-0.6400146-0.3700562-1.3900146-0.3700562-2.0299683,0L108.4449615,55.25
		c-1.5999756,0.9199829-2.6799927,2.4899902-2.9699707,4.3099976l-0.0499878,0.2999878l-8.6600342,5.0100098V50.3099976
		c0-0.1799927-0.0499878-0.3499756-0.1300049-0.5L101.5449982,46.9799805z"/>
	<polygon class="st4" points="61.7149811,60.460022 61.9549713,60.6099854 69.7749786,58.4899902 69.4649811,58.4199829 	"/>
	<polygon class="st4" points="62.5550079,60.9700317 62.8949738,61.1699829 70.594986,59.1699829 70.2549591,58.8699951 	"/>
	<path class="st4" d="M71.4349518,58.5700073l0.1600342,0.1400146c0.0599976,0.039978,0.0999756,0.0999756,0.1300049,0.1699829
		l4.9500122-1.2800293L76.7450104,57.25L71.4349518,58.5700073z"/>
	<path class="st4" d="M70.844986,58.0599976l0.1300049,0.1199951l5.9699707-1.4899902
		c0.0200195-0.0200195,0.0500488-0.0499878,0.0800171-0.0700073c0.0100098-0.0100098,0.0200195-0.0200195,0.0300293-0.0299683
		l0.0499878-0.0300293l0.0899658-0.0499878l-0.1099854-0.0900269L70.844986,58.0599976z"/>
	<g>
		<path class="st6" d="M74.6662369,66.0337143"/>
	</g>
	<g>
		<path class="st6" d="M70.1594696,63.4324188"/>
	</g>
	<g>
		<path class="st7" d="M82.748558,59.0917435"/>
	</g>
	<path class="st4" d="M75.9649811,61.1699829l-0.0599976,0.2600098c-0.039978,0.0100098-0.0900269,0.0100098-0.1400146,0.0300293
		l-0.2299805,0.1099854l-0.2399902-0.1300049l-0.1100464-0.0700073L75.9649811,61.1699829z"/>
	<path class="st4" d="M60.6549835,74.1300049c0.0100098-0.0100098,0.039978-0.0200195,0.0499878-0.039978l1.0700073-1.460022
		l1.0200195,0.5900269l-2.460022,3.3399658l-0.5299683-0.4199829L60.6549835,74.1300049z"/>
	<polygon class="st1" points="56.0449982,69.3300171 57.1849518,69.9899902 56.2849884,72.1099854 54.2450104,70.9299927 	"/>
	<path class="st4" d="M65.634964,67.3800049l0.8500366-0.4000244c-0.0400391,0.2400513-0.0800171,0.4800415-0.0800171,0.710022
		c0,0.2200317,0.0299683,0.4099731,0.0700073,0.5900269c-0.0400391,0.0299683-0.0900269,0.0599976-0.1300049,0.0999756
		l-1.7700195,2.4099731l-1.0199585-0.5799561L65.634964,67.3800049z"/>
	<path class="st4" d="M62.634964,65.2000122l0.6300049,0.0299683c0.0100098,0.0200195,0.0200195,0.0300293,0.0400391,0.0400391
		l-1.7700195,4.1900024l-0.5599976-0.3300171L62.634964,65.2000122z"/>
	<path class="st4" d="M60.6649933,62.789978c0.0100098-0.0099487,0.0199585,0,0.0199585-0.0099487l1.1600342-0.3300171v0.789978
		l-0.0300293,0.0300293l-1.3299561,0.3800049v-0.7000122L60.6649933,62.789978z"/>
	<path class="st4" d="M64.4549713,65.1300049l4.1799927-2.0300293c0.0300293-0.0099487,0.0499878-0.039978,0.0800171-0.0599976
		l4.3099976-1.1099854c-0.4299927,0.3599854-0.8200073,0.8400269-1.1300049,1.3699951l-0.9899902,0.4700317l-0.4199829-0.2399902
		l-0.1700439-0.1000366c-0.0199585-0.0100098-0.0499878-0.0199585-0.0699463-0.0299683
		c-0.4100342-0.1500244-0.9300537-0.0900269-1.5,0.2399902c-0.7200317,0.4199829-1.3600464,1.1699829-1.7800293,2.0100098
		l-1.8699951,0.8800049c-0.0800171,0.039978-0.1400146,0.0899658-0.1900024,0.1599731l-2.2200317,3.0100098l-0.1299438-0.0700073
		L64.4549713,65.1300049z"/>
	<path class="st1" d="M82.9649811,53.539978c0.1400146-0.0699463,0.2299805-0.2099609,0.25-0.3599854l0.4299927-3.1199951
		l1.3699951,0.7800293l-2.0800171,5.8800049c-0.0199585-0.0200195-0.0299683-0.0500488-0.0599976-0.0599976h-0.0099487
		l-2.5900269-1.5500488L82.9649811,53.539978z"/>
	<polygon class="st1" points="81.5149689,48.3900146 82.7649689,49.1099854 82.2549591,52.7999878 79.3549957,54.4799805 	"/>
	<polygon class="st8" points="61.9749908,78.2000122 61.9749908,80.2000122 63.4749908,81.0599976 63.7450104,81.2200317 
		63.7450104,79.2200317 	"/>
	<polygon class="st8" points="54.1249542,73.7700195 54.1249542,75.7600098 54.6249542,76.0499878 55.3050079,74.4500122 	"/>
	<g>
		<path class="st7" d="M88.5291824,39.4696465"/>
	</g>
	<g>
		<path class="st7" d="M83.4361115,58.9400482"/>
	</g>
	<path class="st9" d="M76.7195435,77.4359589c1.0917816-0.6303329,1.9821167-0.1229324,1.9856796,1.1316071
		c0.0035553,1.254509-0.8810043,2.7866516-1.9727859,3.4169922c-1.091774,0.6303329-1.9821167,0.1229324-1.985672-1.1315765
		C74.7432098,79.5984421,75.6277695,78.0662994,76.7195435,77.4359589L76.7195435,77.4359589z M111.4050064,57.4155807
		c-1.0917816,0.6303368-1.9763412,2.1624832-1.9727783,3.4170189c0.0035553,1.254509,0.893898,1.7619133,1.985672,1.1315765
		c1.0917816-0.6303368,1.9763412-2.1624832,1.9727859-3.4169922
		C113.3871231,57.2926483,112.4967804,56.785244,111.4050064,57.4155807L111.4050064,57.4155807z M75.4671707,64.2793884
		c-0.5107727,0.2948914-0.9244156,1.0113754-0.9227524,1.5982742c0.0016632,0.586937,0.4179916,0.816864,0.9287643,0.5219727
		c0.5107727-0.294899,0.9180527-1.0003357,0.9163895-1.5872726C76.3879089,64.2254639,75.9779434,63.9844894,75.4671707,64.2793884
		L75.4671707,64.2793884z M70.6554947,66.3784485c-0.5107727,0.2948914-0.9244156,1.0113754-0.9227524,1.5982742
		c0.0016632,0.586937,0.4179916,0.816864,0.9287643,0.5219727c0.5107727-0.294899,0.9180527-1.0003357,0.9163895-1.5872726
		C71.5762329,66.3245239,71.1662674,66.0835495,70.6554947,66.3784485L70.6554947,66.3784485z"/>
	<polygon class="st10" points="98.2204742,51.5045166 101.6845245,49.5057373 105.8043976,51.9576416 98.2204742,56.336853 	"/>
	<path class="st11" d="M117.7350006,55.0700073c0.2999878-0.1799927,0.4899902-0.5100098,0.4899902-0.8699951v-1.2600098
		l0.3800049,0.210022c0.4299927,0.25,0.7000122,0.6599731,0.75,1.1300049v0.4299927
		c-0.0400391,0.289978-0.2000122,0.7799683-0.75,1.0999756l-0.3500366,0.2000122l-1.0799561-0.6199951L117.7350006,55.0700073z
		 M110.7481384,58.3404884c-0.4328079,0.2498817-0.7834702,0.8572578-0.7820587,1.3545876
		c0.0014114,0.4973183,0.3543625,0.6984634,0.7871704,0.4485817c0.4328079-0.2498779,0.7834702-0.8572578,0.7820587-1.3545761
		C111.5338974,58.2917519,111.1809464,58.0906067,110.7481384,58.3404884L110.7481384,58.3404884z M75.9388199,78.5017242
		c-0.4328079,0.2498779-0.7834702,0.8572617-0.7820587,1.3545837s0.3543625,0.6984711,0.7871704,0.4485855
		c0.4328079-0.2498779,0.7834625-0.8572617,0.7820587-1.3545761C76.7245789,78.4529877,76.3716278,78.2518387,75.9388199,78.5017242
		L75.9388199,78.5017242z"/>
	<path class="st1" d="M70.9368286,79.7741776l0.789978-0.4599609c0.0200195-2.1100464,0.6300049-3.1600342,2.4500122-4.2000122
		l2.5499878-1.4800415c0.3200073-0.1799927,0.6699829-0.2799683,1.0200195-0.2799683
		c0.3599854,0,0.7099609,0.0999756,1.0299683,0.2799683c0.4000244,0.2300415,0.7000122,0.5700073,0.8699951,0.9900513
		l0.0400391,0.0999756l0.6599731-0.3800049c-0.2299805-0.5599976-0.6400146-1.039978-1.1900024-1.3499756
		c-0.8800049-0.5100098-1.9299927-0.5100098-2.7999878,0L73.8068237,74.46418
		c-2.0500488,1.1799927-2.8200073,2.4899902-2.8200073,4.8200073L70.9368286,79.7741776z"/>
</g>
</svg>
