<?xml version="1.0" encoding="utf-8"?>
<!-- Generator: Adobe Illustrator 27.6.1, SVG Export Plug-In . SVG Version: 6.00 Build 0)  -->
<svg version="1.1" id="Layer_1" xmlns="http://www.w3.org/2000/svg" xmlns:xlink="http://www.w3.org/1999/xlink" x="0px" y="0px"
	 viewBox="0 0 172.8999939 90" style="enable-background:new 0 0 172.8999939 90;" xml:space="preserve">
<style type="text/css">
	.st0{fill:#888888;}
	.st1{fill:#3751A0;}
	.st2{fill:#CCCCCC;}
	.st3{fill:#FFFFFF;}
	.st4{fill:#8797C6;}
	.st5{fill:#003366;}
	.st6{fill:#F79420;}
	.st7{fill:#BABABA;}
	.st8{fill:#797979;}
	.st9{fill:#B3B3B3;}
	.st10{fill:none;}
	.st11{fill:#999999;}
</style>
<g>
	<path d="M121.5481033,47.3525238l-2.8800049-1.9800415c0.0499878-0.0599976,0.0800171-0.1300049,0.0800171-0.2099609v-1.5599976
		c0-0.0599976-0.0100098-0.1100464-0.0300293-0.1600342l-0.0299683-0.0299683
		c-0.0100098-0.0200195-0.0200195-0.0300293-0.0300293-0.0400391c-0.039978-0.0499878-0.0899658-0.0999756-0.1599731-0.1199951
		l-5.7200317-1.9899902l0.4200439-4.7600098h0.0099487c0.3699951,0,0.7400513-0.1599731,1-0.4699707l1.2600098-1.4899902
		c0.0599976-0.0599976,0.0900269-0.1500244,0.0900269-0.2400513v-2.1899414c0-0.0100098-0.0100098-0.0200195-0.0100098-0.0200195
		c-0.0100098-0.0499878-0.0200195-0.0900269-0.039978-0.1199951c-0.0599976-0.2399902-0.1900024-0.4400024-0.4100342-0.5700073
		l-1.0299683-0.6000366c-0.3500366-0.1999512-0.7900391-0.1599731-1.0900269,0.1100464l-2.2399902,2.0100098
		c-0.0900269,0.0799561-0.1400146,0.1999512-0.1300049,0.3199463c0.0100098,0.0700073,0.039978,0.1300049,0.0900269,0.1900024
		l-0.6600342,0.5900269c-0.0200195,0.0100098-0.0100098,0.0299683-0.0200195,0.039978l-0.3999634-0.2299805
		c-0.1400146-0.0800171-0.3200073-0.0599976-0.4400024,0.0499878l-5.8599854,5.3900146l-0.5300293-0.1199951
		c-0.4000244-0.1000366-0.8099976,0.1400146-0.9000244,0.5499878c-0.0699463,0.2600098,0.0200195,0.5200195,0.2000122,0.7000122
		l-6.4899902,5.9799805c0.0200195-0.0800171,0.0300293-0.1599731,0.0300293-0.25
		c0-0.0299683-0.0100098-0.0499878-0.0100098-0.0800171c0-0.0299683-0.0100098-0.0599976-0.0100098-0.0899658
		c-0.039978-0.2299805-0.1599731-0.4400024-0.3499756-0.5900269c-0.0200195-0.0199585-0.0400391-0.039978-0.0700073-0.0599976
		c-0.0200195-0.0100098-0.0400391-0.0299683-0.0599976-0.0499878l-2.8200073-1.6199951
		c-0.3099976-0.1699829-0.6900024-0.1699829-1,0l-3.460022,2c-0.0899658,0.0599976-0.1699829,0.1300049-0.2299805,0.2000122
		l-0.7800293-0.4500122c0,0,0,0-0.0100098,0l-4.1199951-2.3800049c-0.1199951-0.0700073-0.2599487-0.0700073-0.3800049,0
		l-2.0599976,1.1900024l-0.0299683,0.0300293c-0.039978,0.0299683-0.0599976,0.0599976-0.0900269,0.0899658
		c-0.0100098,0.0100098-0.0199585,0.0200195-0.0199585,0.0400391c-0.0300293,0.0499878-0.0500488,0.1099854-0.0500488,0.1699829
		v1.6199951c0,0.0200195,0.0100098,0.0299683,0.0100098,0.0499878l-0.0700073-0.039978
		c-0.7999878-0.4700317-1.7799683-0.4800415-2.5599976-0.0100098l-7.9899902,4.5999756
		c-0.1799927,0.1000366-0.3200073,0.25-0.3999634,0.4299927l-4.8400269,9.9500122l-8.4199829,6.1300049
		c-0.6600342,0.4700317-1.1600342,1.1199951-1.4299927,1.8400269c-0.210022,0.5-0.3099976,1.0199585-0.3099976,1.5599976v1.6799927
		l-1.7300415,0.9899902c-0.7199707,0.4199829-1.1499634,1.1599731-1.1499634,1.9899902
		c0,0.1199951,0.0299683,0.2299805,0.039978,0.3500366c0,0.0299683-0.0100098,0.0599976-0.0100098,0.0899658v2.9000244
		c0,0.1300049,0.0300293,0.25,0.0700073,0.3599854v0.0100098c0.0100098,0.0100098,0.0100098,0.0199585,0.0100098,0.0299683
		c0.1599731,0.5700073,0.5299683,1.0599976,1.0700073,1.3699951l0.2699585,0.1600342l12.6300049,7.289978
		c0.7400513,0.4299927,1.5800171,0.6400146,2.4100342,0.6400146s1.6699829-0.210022,2.4099731-0.6400146l3.7399902-2.1499634
		c0.0700073-0.0500488,0.1200562-0.1100464,0.1800537-0.1600342c0.1999512-0.2000122,0.3099976-0.4500122,0.3099976-0.7199707
		c0-0.0500488-0.0100098-0.1100464-0.0200195-0.1700439v-1.4299927l3.2600098,1.8800049
		c0.0700073,0.0400391,0.1300049,0.0700073,0.2000122,0.1099854c0.7299805,0.3300171,1.6999512,0.2400513,2.7599487-0.3799438
		c2.2600098-1.3000488,4.0800171-4.4500122,4.0700073-7.0500488c-0.0100098-1.2699585-0.4400024-2.1599731-1.1499634-2.5999756
		l-0.4899902-0.2800293l0.539978-0.3099976l0.8200073,0.4700317c0.1099854,0.1300049,0.2399902,0.2399902,0.4099731,0.289978
		c0.2700195,0.1000366,0.5700073,0.0700073,0.8300171-0.0700073l6.7399902-3.8999634
		c0.039978-0.0200195,0.0800171-0.0599976,0.1099854-0.0800171l6.7600098-3.9000244c0-0.0099487,0-0.0099487,0.0100098-0.0099487
		l4.9000244-2.8300171c0.0199585,0.3999634,0.1300049,0.8099976,0.3499756,1.1400146
		c0.2800293,0.4199829,0.7399902,0.6199951,1.1599731,0.8599854c0.7000122,0.3999634,1.4100342,0.8099976,2.1100464,1.2099609
		c0,0.0100098,0.0100098,0.0100098,0.0199585,0.0200195c0.0100098,0,0.0200195,0.0100098,0.0400391,0.0200195
		c0-0.0100098,0-0.0100098,0-0.0100098c0.7399902,0.3900146,1.7399902,0.3200073,2.8499756-0.3200073
		c2.2600098-1.2999878,4.0800171-4.4500122,4.0700073-7.0499878c0-0.75-0.1699829-1.3499756-0.4500122-1.8300171
		c0.1300049-0.0100098,0.2600098-0.0499878,0.3699951-0.1099854l1.0300293-0.5999756l2.6099854-1.5100098
		c0.1300049-0.0700073,0.2399902-0.1700439,0.3099976-0.2900391c0.1199951-0.1699829,0.1900024-0.3599854,0.1900024-0.5700073
		v-3.2999878l0.8099976,0.210022l0.8400269-0.5900269l0.5899658-1.7599487
		c0.0400391,0.0099487,0.0700073,0.039978,0.1099854,0.039978c0.0599976,0,0.1100464-0.0200195,0.1600342-0.039978
		c0.1199951-0.0500488,0.2000122-0.1700439,0.2199707-0.2900391l0.25-2.1099854
		C121.728096,47.5724945,121.6680984,47.4324799,121.5481033,47.3525238z M112.1081009,37.052475
		c0.1099854-0.0999756,0.1500244-0.2599487,0.0999756-0.3999634l0.2400513-0.210022l-0.3900146,4.3900146l-2.2900391-1.5700073
		c-0.0099487-0.0100098-0.0299683-0.0100098-0.039978-0.0100098L112.1081009,37.052475z M113.2581253,46.1324921
		c-0.0100098,0-0.0100098,0-0.0100098,0c-0.0100098,0-0.0100098,0-0.0100098-0.0100098l-3.6799927-1.3999634
		c-0.1000366-0.0400391-0.210022-0.0300293-0.2999878,0.0199585l-0.5522461,0.270813l-0.9077759-0.520813
		c-0.1600342-0.0999756-0.3499756-0.1599731-0.5599976-0.1599731c-0.1436157,0-0.3008423,0.0338135-0.4638062,0.0887451
		l-0.8662109-0.4987183c-0.289978-0.1600342-0.6499634-0.1600342-0.9400024,0.0099487l-0.8800049,0.5100098l1.4700317-1.3599854
		c0.0499878-0.0100098,0.0999756-0.0100098,0.1400146-0.0300293c0.1499634-0.0699463,0.25-0.1799927,0.3299561-0.3099976
		l4.6099854,1.4200439h0.0500488l3.8999634,2.5499878L113.2581253,46.1324921z"/>
	<path class="st0" d="M108.6781082,63.3224945c-0.0100098,0.0100098-0.0100098,0.0100098-0.0100098,0.0200195
		c0-0.0100098,0-0.0100098,0-0.0200195c0.0100098-0.0200195,0.0100098-0.0299683,0.0100098-0.0499878
		c0-0.0100098,0.0100098-0.0200195,0.0100098-0.0300293C108.688118,63.2725067,108.688118,63.2925262,108.6781082,63.3224945z"/>
	<path class="st0" d="M108.7780838,62.9225311c-0.0100098,0.0099487-0.0199585,0.0299683-0.0199585,0.039978
		c0-0.0100098,0-0.0300293,0.0099487-0.039978c0.0200195-0.0599976,0.0400391-0.1200562,0.0700073-0.1800537
		C108.8181229,62.802475,108.7981033,62.8625336,108.7780838,62.9225311z"/>
	<path class="st0" d="M120.188118,57.4725189l-4.1500244,2.3900146l2.960022,1.7099609
		c0.4400024,0.2600098,0.4400024,0.8800049,0,1.1400146l-8.3800049,4.8399658L80.5481033,84.9025116v0.0100098l-7.1500244,4.1199951
		c-2.2299805,1.289978-4.9899902,1.289978-7.2199707,0L53.2981033,81.592514c-0.4000244-0.2200317-0.6199951-0.6000366-0.6600342-1
		l12.6300049,7.289978c0.7400513,0.4299927,1.5800171,0.6400146,2.4100342,0.6400146s1.6699829-0.210022,2.4099731-0.6400146
		l3.7399902-2.1499634c0.0700073-0.0500488,0.1200562-0.1100464,0.1800537-0.1600342
		c0.1999512-0.2000122,0.3099976-0.4500122,0.3099976-0.7199707c0-0.0500488-0.0100098-0.1100464-0.0200195-0.1700439v-1.4299927
		l3.2600098,1.8800049c0.0700073,0.0400391,0.1300049,0.0700073,0.2000122,0.1099854
		c0.7299805,0.3300171,1.6999512,0.2400513,2.7599487-0.3799438c2.2600098-1.3000488,4.0800171-4.4500122,4.0700073-7.0500488
		c-0.0100098-1.2699585-0.4400024-2.1599731-1.1499634-2.5999756l-0.4899902-0.2800293l0.539978-0.3099976l0.8200073,0.4700317
		c0.1099854,0.1300049,0.2399902,0.2399902,0.4099731,0.289978c0.2700195,0.1000366,0.5700073,0.0700073,0.8300171-0.0700073
		l6.7399902-3.8999634c0.039978-0.0200195,0.0800171-0.0599976,0.1099854-0.0800171l6.7600098-3.9000244
		c0-0.0099487,0-0.0099487,0.0100098-0.0099487l4.9000244-2.8300171c0.0199585,0.3999634,0.1300049,0.8099976,0.3499756,1.1400146
		c0.2800293,0.4199829,0.7399902,0.6199951,1.1599731,0.8599854c0.7000122,0.3999634,1.4100342,0.8099976,2.1100464,1.2099609
		c0,0.0100098,0.0100098,0.0100098,0.0199585,0.0200195c0.0100098,0,0.0200195,0.0100098,0.0400391,0.0200195
		c0-0.0100098,0-0.0100098,0-0.0100098c0.7399902,0.3900146,1.7399902,0.3200073,2.8499756-0.3200073
		c2.2600098-1.2999878,4.0800171-4.4500122,4.0700073-7.0499878c0-0.75-0.1699829-1.3499756-0.4500122-1.8300171
		c0.1300049-0.0100098,0.2600098-0.0499878,0.3699951-0.1099854l1.0300293-0.5999756l2.6099854-1.5100098
		c0.1300049-0.0700073,0.2399902-0.1700439,0.3099976-0.2900391c0.0700073-0.0199585,0.1500244-0.0099487,0.210022,0.0300293
		l1.4400024,0.8300171C120.3781204,57.092514,120.3781204,57.3625336,120.188118,57.4725189z"/>
	<path class="st1" d="M114.6072006,56.1931496l-0.6500244,0.3800049c-0.1499634-0.1999512-0.2699585-0.2799683-0.4599609-0.3899536
		c-0.2800293-0.1600342-0.5700073-0.2400513-0.8699951-0.2400513c-0.2900391,0-0.5800171,0.0800171-0.8500366,0.2400513
		l-3.8200073,2.1999512c-1.0799561,0.6300049-1.8699951,1.7000122-2.1599731,2.9100342l-0.8500366,0.4799805
		c0.1900024-1.6799927,1.1600342-3.1799927,2.6300049-4.039978l3.8200073-2.2000122
		c0.7700195-0.4500122,1.6900024-0.4500122,2.460022,0C114.1571884,55.7031593,114.4071884,55.9332008,114.6072006,56.1931496z"/>
	<path class="st2" d="M116.717186,53.2331886v1.7399902l-2.1099854,1.2199707
		c-0.2000122-0.2599487-0.4500122-0.4899902-0.75-0.6599731c-0.7700195-0.4500122-1.6900024-0.4500122-2.460022,0
		l-3.8200073,2.2000122c-1.4699707,0.8599854-2.4400024,2.3599854-2.6300049,4.039978l-5.289978,3.0499916V61.843174
		l11.8499756-6.8399658L116.717186,53.2331886z"/>
	<path class="st2" d="M116.717186,53.2331886v1.7399902l-2.1099854,1.2199707
		c-0.2000122-0.2599487-0.4500122-0.4899902-0.75-0.6599731c-0.7700195-0.4500122-1.6900024-0.4500122-2.460022,0
		l-3.8200073,2.2000122c-1.4699707,0.8599854-2.4400024,2.3599854-2.6300049,4.039978l-5.289978,3.0499916V61.843174
		l11.8499756-6.8399658L116.717186,53.2331886z"/>
	<path class="st2" d="M97.6619797,60.5320969v0.7199707c0,0.0100098-0.0099487,0.0100098-0.0099487,0.0200195v4.710022
		l-4.8699951,2.8099976v-5.4500122L97.6619797,60.5320969z"/>
	<path class="st2" d="M83.0220261,59.4821091l-0.4899902,1l-0.8100586,1.6699829l-3.6399536,7.5L69.442009,75.94207
		c-0.4199829,0.3099976-0.75,0.7000122-0.9700317,1.1600342c-0.2299805,0.4299927-0.3499756,0.9199829-0.3499756,1.4199829
		v2.5200195l0.0100098,0.0100098l4.5999756-2.6500244c0.460022-1.4799805,1.3900146-2.2800293,2.6400146-3l5.6900024-3.289978
		c0.8499756-0.4900513,1.8699951-0.5900269,2.789978-0.2600098c0.6500244,0.2299805,1.210022,0.6499634,1.6000366,1.1900024
		l5.3300171-3.0700073V54.69207L83.0220261,59.4821091z M89.2919846,63.9821091l-8.2299805,4.75l3.5700073-8.0300293
		l4.6599731-2.6799927V63.9821091z"/>
	<path class="st3" d="M79.0020142,47.8920746c-0.1799927-0.1099854-0.3800049-0.1099854-0.539978-0.0200195l-7.7400513,4.460022
		l-0.5099487,1.0499878l-4.3000488,8.8500366c-0.0699463,0.1499634-0.1799927,0.2699585-0.3099976,0.3699951l-8.6300087,6.2799683
		c-0.3399658,0.2399902-0.5999756,0.5800171-0.7399902,0.960022c-0.0199585,0.0499878-0.0499878,0.1099854-0.0599976,0.1599731
		l12.2999916,7.1000366c0.2200317-0.460022,0.5500488-0.8500366,0.9700317-1.1600342l8.6400146-6.289978l3.6399536-7.5
		l0.8100586-1.6699829l0.4899902-1l7.7600098-4.7900391v-0.039978L79.0020142,47.8920746z M77.7120361,69.1220551
		l-11.460022-6.6099854l4.3400269-8.9400024l11.4400024,6.6700439L77.7120361,69.1220551z"/>
	<polygon class="st4" points="112.185791,46.5302582 111.975769,46.6402435 110.9957886,46.0702362 	"/>
	<path class="st1" d="M115.3858032,51.5702362l-4.6099854,1.5700073c-0.0600586,0.0200195-0.1200562,0.0499878-0.1700439,0.0800171
		l-10.9400024,6.3200073v-0.4800415l3.4400024-2c0.3800049-0.2099609,0.5700073-0.6499634,0.4800415-1.0799561l-0.3500366-1.5800171
		c0.0300293-0.0100098,0.0599976,0,0.0800171-0.0200195l0.1599731-0.0799561l0.75,0.4299927l0.210022,0.1199951
		c0.3699951,0.1699829,0.8599854,0.1199951,1.3900146-0.1900024c0.8699951-0.5,1.6099854-1.5200195,1.9199829-2.5599976
		l1.039978-0.5400391l0.5300293,0.3100586l0.210022,0.1199951c0.3699951,0.1699829,0.8599854,0.1199951,1.3899536-0.1900024
		c0.6799927-0.3800049,1.2600098-1.0900269,1.6400146-1.8600464L115.3858032,51.5702362z"/>
	<path class="st4" d="M110.5858154,45.9202728c-0.3300171-0.0499878-0.710022,0.0299683-1.1200562,0.2699585
		c-0.9099731,0.5300293-1.6799927,1.6500244-1.9599609,2.75l-0.8400269,0.4300537l-0.8899536-0.5100098
		c-0.3700562-0.1700439-0.8600464-0.1300049-1.4000244,0.1799927c-0.7800293,0.4599609-1.460022,1.3499756-1.8099976,2.2999878
		l-0.3599854-1.6099854v-0.0100098c-0.0300293-0.1400146-0.1000366-0.2600098-0.1799927-0.3699951
		c-0.0100098-0.0200195-0.0300293-0.0400391-0.0400391-0.0499878c-0.0299683-0.0400391-0.0599976-0.0700073-0.0999756-0.1000366
		l7.5599976-3.7199707L110.5858154,45.9202728z"/>
	<path class="st1" d="M104.9580765,46.1125336c-0.1599731,0.2599487-0.2799683,0.539978-0.3599854,0.8199463l-0.5299683-0.2999878
		L104.9580765,46.1125336z"/>
	<path class="st4" d="M119.975769,49.8602753l-0.4400024,1.2299805l-0.1999512-0.0599976l-6.210022-2.4099731
		c-0.0499878-0.0200195-0.1099854-0.0200195-0.1600342-0.0200195c0.0100098-0.1300049,0.0300293-0.2600098,0.0300293-0.3900146
		c0-0.4699707-0.1199951-0.8399658-0.3200073-1.0899658l0.4400024-0.2300415L119.975769,49.8602753z"/>
	<path class="st4" d="M120.935791,47.8402557l-0.1599731,1.289978l-5.2400513-3.4299927l1.3300171,0.460022
		c0.039978,0.0100098,0.0800171,0.0200195,0.1300049,0.0200195s0.0999756-0.0100098,0.1500244-0.0400391l0.789978-0.3599854
		L120.935791,47.8402557z"/>
	<polygon class="st4" points="117.9957886,44.1902313 117.9957886,44.9202728 117.3657837,45.2102509 117.3657837,44.4902802 	"/>
	<polygon class="st4" points="117.3757935,43.6502533 116.9657593,43.8402557 111.9458008,42.1002655 112.145813,41.8402557 	"/>
	<polygon class="st4" points="116.6157837,44.5202484 116.6157837,45.2802582 111.6958008,43.5702362 111.6958008,42.8102264 	"/>
	<path class="st4" d="M111.5457764,41.3902435l-0.5199585,0.6600342c-0.0100098,0.0099487-0.0100098,0.0199585-0.0200195,0.0299683
		c-0.0100098,0.0200195-0.0200195,0.0400391-0.0200195,0.0599976c-0.0200195,0.0300293-0.0299683,0.0700073-0.0299683,0.1099854
		c0,0.0100098-0.0100098,0.0200195-0.0100098,0.0300293v0.4099731l-2.4800415-1.6199951l1.1200562-1.0299683L111.5457764,41.3902435
		z"/>
	<polygon class="st4" points="114.8057861,33.2902679 114.8057861,33.5002289 113.5957642,34.6102753 113.5457764,34.4202728 	"/>
	<path class="st4" d="M114.8057861,32.1902313c0.0100098,0.0300293,0,0.0900269-0.0599976,0.1500244l-1.4899902,1.3300171
		c-0.0100098-0.0100098-0.0300293-0.0200195-0.0499878-0.0300293l-1.3000488-0.7600098l1.5700073-1.4099731
		c0.0599976-0.0499878,0.1400146-0.0599976,0.210022-0.0200195l1.0299683,0.6000366
		C114.7857666,32.0902557,114.8057861,32.1502533,114.8057861,32.1902313z"/>
	<path class="st4" d="M112.9257812,35.0002289l-0.9799805,0.8800049l-0.1199951-0.3299561l0.9599609-0.8600464l0.0500488,0.0200195
		c0,0,0.0099487,0,0.0099487,0.0100098L112.9257812,35.0002289z"/>
	<polygon class="st4" points="112.1057739,34.2902679 111.435791,34.8802338 111.145813,34.7102509 111.8557739,34.1402435 	"/>
	<polygon class="st4" points="109.8057861,34.8102264 105.9057617,37.9002533 109.475769,34.620285 	"/>
	<polygon class="st4" points="110.6958008,35.3202362 105.1557617,40.4202728 104.5758057,39.9202728 110.5057983,35.2102509 	"/>
	<polygon class="st4" points="111.4257812,36.6602631 105.9257812,41.7202606 105.6157837,41.0202484 111.1557617,35.9102631 	"/>
	<path class="st4" d="M104.7758179,42.7802582l-5.3800049,4.9500122l-0.5200195-0.2999878
		c-0.0499878-0.0300293-0.0999756-0.0400391-0.1500244-0.0599976l5.7200317-5.2800293l0.2600098,0.5800171
		C104.725769,42.7102509,104.7557983,42.7402802,104.7758179,42.7802582z"/>
	<polygon class="st4" points="99.7058105,43.620285 94.4657593,48.8802338 94.1657715,48.7102509 	"/>
	<polygon class="st4" points="104.0457764,41.4402313 96.9957886,47.9402313 95.725769,48.6702728 103.4458008,40.9202728 	"/>
	<polygon class="st5" points="94.5758057,47.3202362 93.4857788,48.3202362 93.1657715,48.1302338 	"/>
	<polygon class="st4" points="92.6257935,46.1302338 91.1657715,46.9702606 90.3557739,46.5102386 91.8057861,45.6602631 	"/>
	<polygon class="st4" points="99.2357788,49.9502411 97.7758179,50.7902679 97.0504379,50.3785858 98.5357666,49.5502777 	"/>
	<polygon class="st4" points="101.475769,55.7002411 98.7758179,57.2602386 98.7758179,52.5202484 100.5557861,51.5002289 	"/>
	<path class="st4" d="M96.7758179,52.5302582v2.9799805l-1.3800049-2.7199707l0.1699829-0.0900269
		c0.1099854-0.0700073,0.1799927-0.1900024,0.1799927-0.3299561v-0.2600098l0.1199951-0.1100464L96.7758179,52.5302582z"/>
	<path class="st1" d="M96.7157593,58.7702484l-3.9299927,2.2600098v-2.4000244l1.5400391,0.8900146
		c0.0599976,0.0300293,0.1199951,0.0499878,0.1900024,0.0499878c0.0100098,0,0.0100098-0.0100098,0.0199585-0.0100098
		c0.0100098,0,0.0200195,0.0100098,0.0300293,0.0100098c0.0700073,0,0.1300049-0.0199585,0.1900024-0.0499878l1.6400146-0.9400024
		L96.7157593,58.7702484z"/>
	<polygon class="st1" points="93.9458008,58.4302826 92.7857666,57.7602386 92.7857666,54.620285 	"/>
	<path class="st1" d="M96.7758179,57.1702728v0.3200073l-1.9800415,1.1499634l-1.4299927-4.7099609
		c0.039978,0,0.0800171-0.0100098,0.1099854-0.0300293c0,0,0.0100098,0,0.0200195,0l1.25-0.7299805L96.7758179,57.1702728z"/>
	<polygon class="st6" points="84.2058105,47.1302338 84.2058105,47.8802338 80.8258057,45.9302826 80.8258057,45.1802826 	"/>
	<polygon class="st6" points="88.8757935,49.830246 88.8757935,50.580246 84.9558105,48.3202362 84.9558105,47.5602264 	"/>
	<polygon class="st6" points="94.9957886,51.4102631 94.9957886,52.1602631 93.6757812,52.9202728 93.6757812,52.1702728 	"/>
	<polygon class="st6" points="92.9257812,52.1702728 92.9257812,52.9202728 89.6257935,51.0202484 89.6257935,50.2602386 	"/>
	<polygon class="st6" points="94.6257935,50.7602386 93.3057861,51.5202484 90.0057983,49.6102753 91.3157959,48.8502655 	"/>
	<polygon class="st6" points="90.5657959,48.4202728 89.2557983,49.1802826 85.3258057,46.9102631 86.645813,46.1502533 	"/>
	<polygon class="st6" points="85.895813,45.7202606 85.6958008,45.830246 84.5758057,46.4802704 81.1958008,44.5302582 
		82.5158081,43.7702484 	"/>
	<path class="st7" d="M72.2957764,83.4802704v0.8200073l-3.2099609,1.8499756c-0.8700562,0.5-1.9500122,0.5-2.8200073,0
		l-12.9000282-7.4500122c-0.1400146-0.0799561-0.1500244-0.2000122-0.1500244-0.2600098v-0.6199951l12.0200233,6.9500122
		c0.75,0.4299927,1.5800171,0.6400146,2.4100342,0.6400146c0.8399658,0,1.6699829-0.210022,2.4099731-0.6400146
		L72.2957764,83.4802704z"/>
	<path class="st7" d="M71.2857666,81.7402802l-2.2299805,1.2999878c-0.8699951,0.5-1.9500122,0.5-2.8200073-0.0100098
		L53.3358116,75.580246c-0.1300049-0.0700073-0.1500244-0.1900024-0.1500244-0.2600098
		c0-0.0599976,0.0200195-0.1799927,0.1500244-0.2600098l0.7699585-0.4399414
		c0.0599976,0.25,0.2200317,0.4599609,0.4400024,0.5999756l13.0700111,7.8499756c0,0,0,0,0.0100098,0.0100098
		c0.0499878,0.0300293,0.0999756,0.0400391,0.1599731,0.0599976c0.0300293,0.0100098,0.0500488,0.0300293,0.0800171,0.0400391
		c0.0700073,0.0199585,0.1300049,0.0199585,0.2000122,0.0199585c0.0200195,0.0100098,0.039978,0.0100098,0.0599976,0.0100098
		c0.039978,0,0.0700073-0.0100098,0.1099854-0.0100098c0.0499878-0.0100098,0.1000366-0.0100098,0.1400146-0.0199585
		c0.0299683-0.0100098,0.0499878-0.0200195,0.0700073-0.0300293c0.0599976-0.0200195,0.1199951-0.039978,0.1699829-0.0700073
		c0.0100098,0,0.0100098,0,0.0100098,0l2.4899902-1.4400024L71.2857666,81.7402802z"/>
	<path class="st2" d="M68.4719772,77.1021042c-0.2299805,0.4299927-0.3499756,0.9199829-0.3499756,1.4199829v2.5200195
		l-12.0599937-7.25v-3.1300049c0-0.2200317,0.0300293-0.4400024,0.1099854-0.6600342L68.4719772,77.1021042z"/>
	<polygon class="st8" points="89.2919846,58.0220871 89.2919846,63.9821091 81.0620041,68.7321091 84.6320114,60.7020798 	"/>
	<polygon class="st9" points="82.0320358,60.2421188 77.7120285,69.1220627 66.2520065,62.5120773 70.5920334,53.5720749 	"/>
	<polygon class="st10" points="78.5205154,83.5920868 78.5076141,79.0434952 82.4660721,76.7580795 82.4789658,81.3066711 	"/>
	<path class="st11" d="M80.4868469,77.9007874c-1.0917816,0.6303329-1.9763412,2.1624756-1.9727783,3.4170151
		c0.0035553,1.254509,0.893898,1.7619171,1.985672,1.1315765c1.0917816-0.6303406,1.9763412-2.1624832,1.9727783-3.4169922
		C82.4689636,77.7778473,81.5786209,77.2704468,80.4868469,77.9007874L80.4868469,77.9007874z"/>
	<path class="st7" d="M81.2601624,77.9255295c-0.4244003,0.2450256-0.7682495,0.8406067-0.7668686,1.32827
		c0.0013885,0.4876556,0.3474808,0.6848984,0.7718811,0.4398727c0.4243927-0.2450256,0.7682419-0.8406067,0.766861-1.3282623
		C82.0306549,77.8777466,81.6845551,77.6805038,81.2601624,77.9255295L81.2601624,77.9255295z"/>
	<polygon class="st10" points="108.6023178,66.2405319 108.5894241,61.6919327 112.5478745,59.406517 112.5607758,63.9551125 	"/>
	<path class="st11" d="M110.5686493,60.5492249c-1.091774,0.6303406-1.9763336,2.1624832-1.9727783,3.4170189
		c0.0035553,1.2545128,0.893898,1.7619133,1.985672,1.1315804c1.0917816-0.6303406,1.9763412-2.162487,1.9727859-3.416996
		C112.550766,60.4262924,111.6604309,59.9188881,110.5686493,60.5492249L110.5686493,60.5492249z"/>
	<path class="st11" d="M110.9108276,48.257328c-0.5560379,0.3210297-1.006546,1.1013489-1.0047379,1.7402802
		c0.0018158,0.6389198,0.4552612,0.8973389,1.0113068,0.5763092c0.5560379-0.3210297,1.0065384-1.1013451,1.0047302-1.7402649
		C111.920311,48.1947212,111.4668655,47.9362984,110.9108276,48.257328L110.9108276,48.257328z"/>
	<path class="st11" d="M105.8190155,51.1159592c-0.5560379,0.3210297-1.006546,1.1013489-1.0047379,1.7402802
		c0.0018158,0.6389198,0.4552612,0.8973389,1.0113068,0.5763092c0.5560379-0.3210297,1.0065384-1.1013451,1.0047302-1.7402649
		C106.8284988,51.0533524,106.3750534,50.7949295,105.8190155,51.1159592L105.8190155,51.1159592z"/>
	<path class="st3" d="M57.6554222,71.3810272c0.7095528,0.4096603,1.2844353,1.4054108,1.2821236,2.2207413
		c-0.0023117,0.8153152-0.5809517,1.1450806-1.2905045,0.7354202c-0.7095566-0.4096603-1.2844391-1.4054108-1.2821274-2.220726
		C56.3672256,71.3011246,56.9458656,70.9713593,57.6554222,71.3810272L57.6554222,71.3810272z"/>
	<path class="st3" d="M66.3587189,76.6475067c0.7095566,0.4096603,1.2844391,1.4054108,1.2821274,2.2207489
		c-0.0023117,0.8153152-0.5809555,1.1450806-1.2905121,0.7354202c-0.709549-0.4096603-1.2844315-1.4054184-1.2821198-2.2207336
		C65.0705261,76.5676117,65.6491623,76.2378464,66.3587189,76.6475067L66.3587189,76.6475067z"/>
	<path class="st7" d="M111.3419647,60.5618935c-0.4244003,0.2450256-0.7682495,0.8406029-0.766861,1.32827
		c0.0013809,0.4876556,0.3474731,0.6848946,0.7718735,0.4398689s0.7682419-0.8406029,0.766861-1.3282585
		C112.1124573,60.5141068,111.7663651,60.3168678,111.3419647,60.5618935L111.3419647,60.5618935z"/>
</g>
</svg>
