<?xml version="1.0" encoding="utf-8"?>
<!-- Generator: Adobe Illustrator 27.6.1, SVG Export Plug-In . SVG Version: 6.00 Build 0)  -->
<svg version="1.1" id="Layer_1" xmlns="http://www.w3.org/2000/svg" xmlns:xlink="http://www.w3.org/1999/xlink" x="0px" y="0px"
	 viewBox="0 0 172.8999939 90" style="enable-background:new 0 0 172.8999939 90;" xml:space="preserve">
<style type="text/css">
	.st0{fill:#888888;}
	.st1{fill:#3751A0;}
	.st2{fill:#F79420;}
	.st3{opacity:0.99;fill:#FFFFFF;}
	.st4{fill:#8797C6;}
	.st5{fill:#CCCCCC;}
	.st6{fill:none;stroke:#000000;stroke-linecap:round;stroke-linejoin:round;stroke-miterlimit:10;}
	.st7{fill:none;stroke:#000000;stroke-width:2;stroke-linecap:round;stroke-linejoin:round;stroke-miterlimit:10;}
	.st8{fill:#C1272D;}
	.st9{fill:#999999;}
	.st10{fill:#797979;}
	.st11{fill:#BABABA;}
</style>
<g>
	<path d="M121.344986,71.0499878c0-0.0700073-0.0299683-0.1499634-0.0499878-0.2199707
		c-0.0100098-0.0599976-0.0299683-0.1199951-0.0499878-0.1699829c-0.0100098-0.0200195-0.0100098-0.0400391-0.0200195-0.0500488
		c-0.0299683-0.0599976-0.0799561-0.0899658-0.1199951-0.1399536c-0.0299683-0.0300293-0.0499878-0.0800171-0.0799561-0.1100464
		l-2.3400269-2.0799561l1.1500244-0.6700439c0.2199707-0.1300049,0.3099976-0.3999634,0.2099609-0.6300049l-0.6400146-1.5199585
		c-0.0099487-0.0100098-0.0199585-0.0300293-0.0299683-0.0400391c-0.0200195-0.039978-0.039978-0.0700073-0.0700073-0.0999756
		c-0.0200195-0.0200195-0.039978-0.039978-0.0599976-0.0499878c-0.0299683-0.0300293-0.0599976-0.0499878-0.0999756-0.0599976
		c-0.0100098-0.0100098-0.0300293-0.0200195-0.0400391-0.0300293h-0.039978
		c-0.039978-0.0100098-0.0700073-0.0100098-0.1099854-0.0100098h-0.1300049l-1.3300171,0.3500366
		c-0.039978,0.0100098-0.0700073,0.0299683-0.1099854,0.039978l-1.0599976,0.6199951
		c-0.0100098-0.0100098-0.0100098-0.0100098-0.0100098-0.0199585l-1.4000244-1.25
		c-0.0100098,0-0.0199585-0.0100098-0.0299683-0.0100098l0.1599731-0.1000366l1.6900024-1.0100098
		c0.1400146-0.0899658,0.2300415-0.2299805,0.2399902-0.3899536c0.0200195-0.1500244-0.039978-0.3099976-0.1599731-0.4200439
		l-2.7299805-2.4299927c-0.1600342-0.1399536-0.4000244-0.1599731-0.5900269-0.0599976l-0.3699951,0.2300415l-0.3300171-0.1000366
		c0.1099854-0.1099854,0.1799927-0.25,0.1600342-0.4099731c-0.0300293-0.2000122-0.1799927-0.3600464-0.3699951-0.4100342
		l-8.2513428-2.1696167c-0.0890503-0.223938-0.3247681-0.3555298-0.5686646-0.3103638l-0.3293457,0.0742798l-0.7006836-0.1842651
		l-0.7399902-3.6600342c0-0.0299683-0.0299683-0.0599976-0.039978-0.0899658
		c-0.0100098-0.0300293-0.0200195-0.0599976-0.0400391-0.0900269c-0.0299683-0.039978-0.0700073-0.0700073-0.0999756-0.0999756
		c-0.0200195-0.0200195-0.039978-0.0400391-0.0599976-0.0499878l-2.6400146-1.5400391
		c-0.1599731-0.0899658-0.3499756-0.0800171-0.5100098,0.0100098l-0.3200073,0.1900024
		c-0.0099487-0.0100098-0.0199585-0.0200195-0.0299683-0.0200195l-2.5700073-1.4899902l-1.3099976-3.7099609l1.6300049-0.9400024
		c0.1599731-0.0900269,0.25-0.25,0.25-0.4300537v-2.5199585c0-0.0800171-0.0300293-0.1500244-0.0599976-0.2200317
		c-0.0100098-0.0199585-0.0300293-0.039978-0.0400391-0.0599976c-0.0299683-0.039978-0.0699463-0.0899658-0.1199951-0.1199951
		c-0.0099487-0.0100098-0.0199585-0.0200195-0.0299683-0.0299683l-2.8500366-1.6500244
		c-0.1499634-0.0900269-0.3499756-0.0900269-0.5,0l-2.0799561,1.2000122l-5.7000122-3.2800293
		c-0.3099976-0.1799927-0.6900024-0.1799927-1,0l-6.8200073,3.9200439l-8.1099854-2.1800537
		c-0.25-0.0699463-0.5300293-0.0299683-0.7600098,0.1000366L55.1750031,47.960022
		c-0.039978,0.0199585-0.0599976,0.0599976-0.0999756,0.0899658c-0.0499878,0.0400391-0.1099854,0.0800171-0.1500244,0.1300049
		c-0.039978,0.0499878-0.0700073,0.1000366-0.1099854,0.1600342c-0.0300293,0.0499878-0.0599976,0.1099854-0.0800171,0.1699829
		c-0.0199585,0.0599976-0.0299683,0.1300049-0.039978,0.2000122c0,0.039978-0.0200195,0.0799561-0.0200195,0.1199951v1.8200073
		c-0.0299683,0.0100098-0.0599976,0.0100098-0.0800171,0.0199585l-1.289978,0.75
		c-0.9899902,0.5599976-1.6400146,1.5700073-1.75,2.6799927c-0.0100098,0.0200195,0,0.0500488,0,0.0800171
		c0,0.0100098-0.0100098,0.0100098-0.0100098,0.0200195v2.1099854c0,0.539978,0.1600342,1.0700073,0.460022,1.5
		c0.2199707,0.3500366,0.5299683,0.6400146,0.8999634,0.8599854L54.7750397,59.75
		c0.3599854,0.2000122,0.7999878,0.210022,1.1699829,0.0200195l1.6599731-0.8699951
		c0.2900391,1.1900024,0.8699951,2.3999634,1.6400146,3.4199829c0.6300049,0.8499756,1.3900146,1.5800171,2.2200317,2.0599976
		c0.8299561,0.4799805,1.6099854,0.6400146,2.25,0.5200195c0.2199707-0.0300293,0.4199829-0.1000366,0.5999756-0.2000122
		c0,0,0,0,0,0.0100098c0.0200195-0.0100098,0.0299683-0.0200195,0.039978-0.0200195
		c0.0100098-0.0100098,0.0200195-0.0100098,0.0200195-0.0200195c0.7000122-0.3999634,1.4099731-0.8099976,2.1099854-1.2099609
		c0.4199829-0.2399902,0.8800049-0.4400024,1.1600342-0.8600464c0.0499878-0.0799561,0.0799561-0.1699829,0.1199951-0.2599487
		l8.8699951,5.1300049h0.0100098l8.7599487,5.0499878c0,0,0,0.0100098,0.0100098,0.0100098l6.7600098,3.8999634
		c-0.0599976,0.2800293-0.0899658,0.5800171-0.0999756,0.9199829c-0.0100098,1.6400146,0.7099609,3.5,1.8099976,4.9700317
		c0.6499634,0.8699951,1.4199829,1.5999756,2.2600098,2.0800171c0.8399658,0.4899902,1.6199951,0.6499634,2.2699585,0.5299683
		c0.1700439-0.0299683,0.3400269-0.0800171,0.4899902-0.1499634c0.0700073-0.0400391,0.1300049-0.0700073,0.2000122-0.1100464
		c0.4700317-0.2699585,0.9299927-0.539978,1.3900146-0.7999878c0.5-0.289978,1.0800171-0.4899902,1.4799805-0.9099731
		c0.1500244-0.1500244,0.25-0.3300171,0.3200073-0.5300293c0.0200195-0.039978,0.0200195-0.0899658,0.0300293-0.1400146
		l4.5199585,2.6100464c0.1500244,0.0899658,0.3200073,0.1399536,0.5,0.1399536c0.1700439,0,0.3400269-0.0499878,0.5-0.1399536
		l9.5300293-5.5l3.4799805-2.0100098c0.0400391-0.0200195,0.0599976-0.0499878,0.0900269-0.0800171
		c0.0599976-0.039978,0.1099854-0.0800171,0.1599731-0.1400146c0.0400391-0.039978,0.0700073-0.0899658,0.1000366-0.1499634
		c0.039978-0.0499878,0.0700073-0.1099854,0.0899658-0.1700439c0.0200195-0.0699463,0.0300293-0.1299438,0.0400391-0.1999512
		c0-0.0400391,0.0199585-0.0800171,0.0199585-0.1199951v-5.4200439
		C121.3549957,71.0900269,121.344986,71.0700073,121.344986,71.0499878z"/>
	<path class="st0" d="M118.0050201,86.2399902l-2.4000244,1.3900146c-0.3399658,0.2000122-0.7600098,0.2000122-1.0999756,0
		L112.1049957,86.25l-6.5,3.75l-9.5199585-5.4899902L61.4049835,64.4899902l-9.4099731-5.4299927
		c-0.4899902-0.2799683-0.4799805-0.9799805,0.0100098-1.25c0.2199707,0.3500366,0.5299683,0.6400146,0.8999634,0.8599854
		L54.7750397,59.75c0.3599854,0.2000122,0.7999878,0.210022,1.1699829,0.0200195l1.6599731-0.8699951
		c0.2900391,1.1900024,0.8699951,2.3999634,1.6400146,3.4199829c0.6300049,0.8499756,1.3900146,1.5800171,2.2200317,2.0599976
		c0.8299561,0.4799805,1.6099854,0.6400146,2.25,0.5200195c0.2199707-0.0300293,0.4199829-0.1000366,0.5999756-0.2000122
		c0,0,0,0,0,0.0100098c0.0200195-0.0100098,0.0299683-0.0200195,0.039978-0.0200195
		c0.0100098-0.0100098,0.0200195-0.0100098,0.0200195-0.0200195c0.7000122-0.3999634,1.4099731-0.8099976,2.1099854-1.2099609
		c0.4199829-0.2399902,0.8800049-0.4400024,1.1600342-0.8600464c0.0499878-0.0799561,0.0799561-0.1699829,0.1199951-0.2599487
		l8.8699951,5.1300049h0.0100098l8.7599487,5.0499878c0,0,0,0.0100098,0.0100098,0.0100098l6.7600098,3.8999634
		c-0.0599976,0.2800293-0.0899658,0.5800171-0.0999756,0.9199829c-0.0100098,1.6400146,0.7099609,3.5,1.8099976,4.9700317
		c0.6499634,0.8699951,1.4199829,1.5999756,2.2600098,2.0800171c0.8399658,0.4899902,1.6199951,0.6499634,2.2699585,0.5299683
		c0.1700439-0.0299683,0.3400269-0.0800171,0.4899902-0.1499634c0.0700073-0.0400391,0.1300049-0.0700073,0.2000122-0.1100464
		c0.4700317-0.2699585,0.9299927-0.539978,1.3900146-0.7999878c0.5-0.289978,1.0800171-0.4899902,1.4799805-0.9099731
		c0.1500244-0.1500244,0.25-0.3300171,0.3200073-0.5300293c0.0200195-0.039978,0.0200195-0.0899658,0.0300293-0.1400146
		l4.5199585,2.6100464c0.1500244,0.0899658,0.3200073,0.1399536,0.5,0.1399536c0.1700439,0,0.3400269-0.0499878,0.5-0.1399536
		l9.5300293-5.5l3.2999878,1.8999634l-4.8999634,2.8300171l2.2299805,1.289978
		C118.3250275,85.5999756,118.3250275,86.0599976,118.0050201,86.2399902z"/>
	<path class="st1" d="M80.6049957,52.7700195l-2.4699707,1.4199829v-3.2999878l0.7099609-0.4100342v0.9700317
		c0,0.1799927,0.0900269,0.3499756,0.25,0.4299927L80.6049957,52.7700195z"/>
	<path class="st2" d="M95.2550201,43.6400146V45l-3.6099854,2.0800171v-1.3599854L95.2550201,43.6400146z M92.9049835,41.7000122
		l-0.3499756,0.2000122l-3.3900146,1.9599609l1.8500366,1.0700073l3.7399902-2.1599731L92.9049835,41.7000122z
		 M88.4149933,44.289978l-3.8899536,2.25l1.8499756,1.0700073l3.8900146-2.25L88.4149933,44.289978z M87.0449982,48.3800049
		v1.3599854l3.8500366-2.2299805v-1.3599854L87.0449982,48.3800049z M79.844986,49.8099976v1.3599854l1.8500366,1.0700073
		v-1.3499756L79.844986,49.8099976z M82.6950226,50.8900146V52.25l3.5999756-2.0800171v-1.3599854L82.6950226,50.8900146z
		 M83.7650299,46.9700317l-3.4100342,1.9699707l1.8400269,1.0800171l3.4299927-1.9800415L83.7650299,46.9700317z"/>
	<path class="st3" d="M88.1450348,42.7999878L76.635025,49.4400024c-0.1500244,0.0900269-0.2800293,0.2200317-0.3699951,0.3699951
		l-4.9100342-2.8300171l-7.0299683,4.1700439l-7.2800293-1.9500122l11.7800293-6.8099976l8.1099854,2.1799927
		c0.2600098,0.0700073,0.5300293,0.0299683,0.7600098-0.0999756l6.6799927-3.8400269L88.1450348,42.7999878z"/>
	<g>
		<path class="st1" d="M114.344986,78.2800293c0,0-0.0099487,0-0.0199585,0c-0.2000122,0-0.3800049-0.1199951-0.460022-0.3000488
			l-0.3699951-0.8899536l-0.7199707,0.5799561c-0.0900269,0.0700073-0.2000122,0.1100464-0.3099976,0.1100464
			c-0.0200195,0-0.0400391-0.0100098-0.0600586-0.0100098c-0.1399536-0.0200195-0.2599487-0.0900269-0.3399658-0.2000122
			l-0.2700195-0.3699951l-3.4500122,2v3.1099854l7.0400391-4.0700073L114.344986,78.2800293z"/>
		<polygon class="st1" points="110.9250031,80.2000122 109.4250031,81.0599976 109.1549835,81.2200317 109.1549835,79.2200317 
			110.9250031,78.2000122 		"/>
	</g>
	<polygon class="st1" points="107.2550201,72.8300171 106.9250031,72.9100342 107.1750031,73.4899902 107.4950104,73.4100342 	"/>
	<polygon class="st1" points="92.8350372,60.7299805 92.4749908,58.9400024 90.7750397,57.960022 90.7750397,63.7000122 
		93.8050079,65.4400024 	"/>
	<path class="st1" d="M109.2350006,73.7200317l-0.7999878,0.4599609c-0.0100098,0.0100098-0.0300293,0.0100098-0.0499878,0.0100098
		c-0.0200195,0.0200195-0.0499878,0.0300293-0.0800171,0.039978l-1.2999878,0.3400269
		c-0.039978,0.0100098-0.0800171,0.0100098-0.1300049,0.0100098c-0.1900024,0-0.3800049-0.1099854-0.460022-0.2999878
		l-0.6399536-1.5100098c0-0.0200195,0-0.0400391-0.0100098-0.0499878c0-0.0100098-0.0100098-0.0200195-0.0100098-0.0200195
		v-0.0499878c-0.0100098-0.0400391-0.0100098-0.0700073-0.0100098-0.1100464c0-0.0299683,0.0100098-0.0499878,0.0100098-0.0799561
		c0.0100098-0.0300293,0.0200195-0.0599976,0.039978-0.1000366c0.0100098-0.0199585,0.0200195-0.0499878,0.0400391-0.0700073
		c0.0199585-0.0299683,0.039978-0.0499878,0.0599976-0.0699463c0.0199585-0.0200195,0.039978-0.0400391,0.0700073-0.0599976
		c0.0099487-0.0100098,0.0099487-0.0100098,0.0199585-0.0200195l1.4700317-0.8400269l-1.5900269-2.1599731
		c-0.0499878,0.0299683-0.0899658,0.0700073-0.1400146,0.0899658l-1.9099731,1.1000366
		c-0.4100342,0.2000122-0.9700317,0.1400146-1.5800171-0.210022c-0.8900146-0.5-1.6400146-1.5100098-2.039978-2.5700073
		l-1.1900024,0.6900024c-0.4100342,0.2000122-0.9700317,0.1400146-1.5800171-0.2099609
		c-0.6499634-0.3800049-1.2299805-1.0100098-1.6499634-1.75l-1.0100098,0.5799561
		c-0.0800171,0.0500488-0.1700439,0.0700073-0.25,0.0700073c-0.0700073,0-0.1400146-0.0199585-0.210022-0.0499878
		c-0.0100098,0-0.0100098-0.0100098-0.0200195-0.0100098c-0.0099487-0.0100098-0.0099487,0-0.0199585-0.0100098
		l-4.2399902-2.4400024c-0.1500244-0.0899658-0.25-0.25-0.25-0.4299927v-0.6499634l-1.7900391,1.0299683l13.7399902,7.9299927
		c0.0599976,0.0400391,0.1199951,0.0800171,0.1700439,0.1199951l5.5700073,4.9700317l3.1399536-1.8099976L109.2350006,73.7200317z"
		/>
	<path class="st1" d="M109.2350006,73.7200317l-0.7999878,0.4599609c-0.0100098,0.0100098-0.0300293,0.0100098-0.0499878,0.0100098
		c-0.0200195,0.0200195-0.0499878,0.0300293-0.0800171,0.039978l-1.2999878,0.3400269
		c-0.039978,0.0100098-0.0800171,0.0100098-0.1300049,0.0100098c-0.1900024,0-0.3800049-0.1099854-0.460022-0.2999878
		l-0.6399536-1.5100098c0-0.0200195,0-0.0400391-0.0100098-0.0499878c0-0.0100098-0.0100098-0.0200195-0.0100098-0.0200195
		v-0.0499878c-0.0100098-0.0400391-0.0100098-0.0700073-0.0100098-0.1100464c0-0.0299683,0.0100098-0.0499878,0.0100098-0.0799561
		c0.0100098-0.0300293,0.0200195-0.0599976,0.039978-0.1000366c0.0100098-0.0199585,0.0200195-0.0499878,0.0400391-0.0700073
		c0.0199585-0.0299683,0.039978-0.0499878,0.0599976-0.0699463c0.0199585-0.0200195,0.039978-0.0400391,0.0700073-0.0599976
		c0.0099487-0.0100098,0.0099487-0.0100098,0.0199585-0.0200195l1.4700317-0.8400269l-1.5900269-2.1599731
		c-0.0499878,0.0299683-0.0899658,0.0700073-0.1400146,0.0899658l-1.9099731,1.1000366
		c-0.4100342,0.2000122-0.9700317,0.1400146-1.5800171-0.210022c-0.8900146-0.5-1.6400146-1.5100098-2.039978-2.5700073
		l-1.1900024,0.6900024c-0.4100342,0.2000122-0.9700317,0.1400146-1.5800171-0.2099609
		c-0.6499634-0.3800049-1.2299805-1.0100098-1.6499634-1.75l-1.0100098,0.5799561
		c-0.0800171,0.0500488-0.1700439,0.0700073-0.25,0.0700073c-0.0700073,0-0.1400146-0.0199585-0.210022-0.0499878
		c-0.0100098,0-0.0100098-0.0100098-0.0200195-0.0100098c-0.0099487-0.0100098-0.0099487,0-0.0199585-0.0100098
		l-4.2399902-2.4400024c-0.1500244-0.0899658-0.25-0.25-0.25-0.4299927v-0.6499634l-1.7900391,1.0299683l13.7399902,7.9299927
		c0.0599976,0.0400391,0.1199951,0.0800171,0.1700439,0.1199951l5.5700073,4.9700317l3.1399536-1.8099976L109.2350006,73.7200317z"
		/>
	<polygon class="st1" points="107.2550201,72.8300171 106.9250031,72.9100342 107.1750031,73.4899902 107.4950104,73.4100342 	"/>
	<path class="st1" d="M109.2350006,73.7200317l-0.7999878,0.4599609c-0.0100098,0.0100098-0.0300293,0.0100098-0.0499878,0.0100098
		c-0.0200195,0.0200195-0.0499878,0.0300293-0.0800171,0.039978l-1.2999878,0.3400269
		c-0.039978,0.0100098-0.0800171,0.0100098-0.1300049,0.0100098c-0.1900024,0-0.3800049-0.1099854-0.460022-0.2999878
		l-0.6399536-1.5100098c0-0.0200195,0-0.0400391-0.0100098-0.0499878c0-0.0100098-0.0100098-0.0200195-0.0100098-0.0200195
		v-0.0499878c-0.0100098-0.0400391-0.0100098-0.0700073-0.0100098-0.1100464c0-0.0299683,0.0100098-0.0499878,0.0100098-0.0799561
		c0.0100098-0.0300293,0.0200195-0.0599976,0.039978-0.1000366c0.0100098-0.0199585,0.0200195-0.0499878,0.0400391-0.0700073
		c0.0199585-0.0299683,0.039978-0.0499878,0.0599976-0.0699463c0.0199585-0.0200195,0.039978-0.0400391,0.0700073-0.0599976
		c0.0099487-0.0100098,0.0099487-0.0100098,0.0199585-0.0200195l1.4700317-0.8400269l-1.5900269-2.1599731
		c-0.0499878,0.0299683-0.0899658,0.0700073-0.1400146,0.0899658l-1.9099731,1.1000366
		c-0.4100342,0.2000122-0.9700317,0.1400146-1.5800171-0.210022c-0.8900146-0.5-1.6400146-1.5100098-2.039978-2.5700073
		l-1.1900024,0.6900024c-0.4100342,0.2000122-0.9700317,0.1400146-1.5800171-0.2099609
		c-0.6499634-0.3800049-1.2299805-1.0100098-1.6499634-1.75l-1.0100098,0.5799561
		c-0.0800171,0.0500488-0.1700439,0.0700073-0.25,0.0700073c-0.0700073,0-0.1400146-0.0199585-0.210022-0.0499878
		c-0.0100098,0-0.0100098-0.0100098-0.0200195-0.0100098c-0.0099487-0.0100098-0.0099487,0-0.0199585-0.0100098
		l-4.2399902-2.4400024c-0.1500244-0.0899658-0.25-0.25-0.25-0.4299927v-0.6499634l-1.7900391,1.0299683l13.7399902,7.9299927
		c0.0599976,0.0400391,0.1199951,0.0800171,0.1700439,0.1199951l5.5700073,4.9700317l3.1399536-1.8099976L109.2350006,73.7200317z"
		/>
	<polygon class="st1" points="107.2550201,72.8300171 106.9250031,72.9100342 107.1750031,73.4899902 107.4950104,73.4100342 	"/>
	<polygon class="st4" points="112.9550323,71.5800171 112.3950348,71.9000244 114.6549835,77.2700195 115.344986,77.2399902 	"/>
	<polygon class="st1" points="106.9250031,72.9100342 107.1750031,73.4899902 107.4950104,73.4100342 107.2550201,72.8300171 	"/>
	<path class="st1" d="M108.4350128,74.1799927c-0.0100098,0.0100098-0.0300293,0.0100098-0.0499878,0.0100098
		c-0.0200195,0.0200195-0.0499878,0.0300293-0.0800171,0.039978l-1.2999878,0.3400269
		c-0.039978,0.0100098-0.0800171,0.0100098-0.1300049,0.0100098c-0.1900024,0-0.3800049-0.1099854-0.460022-0.2999878
		l-0.6399536-1.5100098c0-0.0200195,0-0.0400391-0.0100098-0.0499878c0-0.0100098-0.0100098-0.0200195-0.0100098-0.0200195
		v-0.0499878c-0.0100098-0.0400391-0.0100098-0.0700073-0.0100098-0.1100464c0-0.0299683,0.0100098-0.0499878,0.0100098-0.0799561
		c0.0100098-0.0300293,0.0200195-0.0599976,0.039978-0.1000366c0.0100098-0.0199585,0.0200195-0.0499878,0.0400391-0.0700073
		c0.0199585-0.0299683,0.039978-0.0499878,0.0599976-0.0699463c0.0199585-0.0200195,0.039978-0.0400391,0.0700073-0.0599976
		c0.0099487-0.0100098,0.0099487-0.0100098,0.0199585-0.0200195l1.4700317-0.8400269l-1.5900269-2.1599731
		c-0.0499878,0.0299683-0.0899658,0.0700073-0.1400146,0.0899658l-1.9099731,1.1000366
		c-0.4100342,0.2000122-0.9700317,0.1400146-1.5800171-0.210022c-0.8900146-0.5-1.6400146-1.5100098-2.039978-2.5700073
		l-1.1900024,0.6900024c-0.4100342,0.2000122-0.9700317,0.1400146-1.5800171-0.2099609
		c-0.6499634-0.3800049-1.2299805-1.0100098-1.6499634-1.75l-1.0100098,0.5799561
		c-0.0800171,0.0500488-0.1700439,0.0700073-0.25,0.0700073c-0.0700073,0-0.1400146-0.0199585-0.210022-0.0499878
		c-0.0100098,0-0.0100098-0.0100098-0.0200195-0.0100098c-0.0099487-0.0100098-0.0099487,0-0.0199585-0.0100098
		l-4.2399902-2.4400024c-0.1500244-0.0899658-0.25-0.25-0.25-0.4299927v-0.6499634l-1.7900391,1.0299683l13.7399902,7.9299927
		c0.0599976,0.0400391,0.1199951,0.0800171,0.1700439,0.1199951l5.5700073,4.9700317l3.1399536-1.8099976l-1.3699951-1.8599854
		L108.4350128,74.1799927z"/>
	<polygon class="st1" points="107.2550201,72.8300171 106.9250031,72.9100342 107.1750031,73.4899902 107.4950104,73.4100342 	"/>
	<path class="st1" d="M109.2350006,73.7200317l-0.7999878,0.4599609c-0.0100098,0.0100098-0.0300293,0.0100098-0.0499878,0.0100098
		c-0.0200195,0.0200195-0.0499878,0.0300293-0.0800171,0.039978l-1.2999878,0.3400269
		c-0.039978,0.0100098-0.0800171,0.0100098-0.1300049,0.0100098c-0.1900024,0-0.3800049-0.1099854-0.460022-0.2999878
		l-0.6399536-1.5100098c0-0.0200195,0-0.0400391-0.0100098-0.0499878c0-0.0100098-0.0100098-0.0200195-0.0100098-0.0200195
		v-0.0499878c-0.0100098-0.0400391-0.0100098-0.0700073-0.0100098-0.1100464c0-0.0299683,0.0100098-0.0499878,0.0100098-0.0799561
		c0.0100098-0.0300293,0.0200195-0.0599976,0.039978-0.1000366c0.0100098-0.0199585,0.0200195-0.0499878,0.0400391-0.0700073
		c0.0199585-0.0299683,0.039978-0.0499878,0.0599976-0.0699463c0.0199585-0.0200195,0.039978-0.0400391,0.0700073-0.0599976
		c0.0099487-0.0100098,0.0099487-0.0100098,0.0199585-0.0200195l1.4700317-0.8400269l-1.5900269-2.1599731
		c-0.0499878,0.0299683-0.0899658,0.0700073-0.1400146,0.0899658l-1.9099731,1.1000366
		c-0.4100342,0.2000122-0.9700317,0.1400146-1.5800171-0.210022c-0.8900146-0.5-1.6400146-1.5100098-2.039978-2.5700073
		l-1.1900024,0.6900024c-0.4100342,0.2000122-0.9700317,0.1400146-1.5800171-0.2099609
		c-0.6499634-0.3800049-1.2299805-1.0100098-1.6499634-1.75l-1.0100098,0.5799561
		c-0.0800171,0.0500488-0.1700439,0.0700073-0.25,0.0700073c-0.0700073,0-0.1400146-0.0199585-0.210022-0.0499878
		c-0.0100098,0-0.0100098-0.0100098-0.0200195-0.0100098c-0.0099487-0.0100098-0.0099487,0-0.0199585-0.0100098
		l-4.2399902-2.4400024c-0.1500244-0.0899658-0.25-0.25-0.25-0.4299927v-0.6499634l-1.7900391,1.0299683l13.7399902,7.9299927
		c0.0599976,0.0400391,0.1199951,0.0800171,0.1700439,0.1199951l5.5700073,4.9700317l3.1399536-1.8099976L109.2350006,73.7200317z"
		/>
	<polygon class="st1" points="107.2550201,72.8300171 106.9250031,72.9100342 107.1750031,73.4899902 107.4950104,73.4100342 	"/>
	<path class="st1" d="M109.2350006,73.7200317l-0.7999878,0.4599609c-0.0100098,0.0100098-0.0300293,0.0100098-0.0499878,0.0100098
		c-0.0200195,0.0200195-0.0499878,0.0300293-0.0800171,0.039978l-1.2999878,0.3400269
		c-0.039978,0.0100098-0.0800171,0.0100098-0.1300049,0.0100098c-0.1900024,0-0.3800049-0.1099854-0.460022-0.2999878
		l-0.6399536-1.5100098c0-0.0200195,0-0.0400391-0.0100098-0.0499878c0-0.0100098-0.0100098-0.0200195-0.0100098-0.0200195
		v-0.0499878c-0.0100098-0.0400391-0.0100098-0.0700073-0.0100098-0.1100464c0-0.0299683,0.0100098-0.0499878,0.0100098-0.0799561
		c0.0100098-0.0300293,0.0200195-0.0599976,0.039978-0.1000366c0.0100098-0.0199585,0.0200195-0.0499878,0.0400391-0.0700073
		c0.0199585-0.0299683,0.039978-0.0499878,0.0599976-0.0699463c0.0199585-0.0200195,0.039978-0.0400391,0.0700073-0.0599976
		c0.0099487-0.0100098,0.0099487-0.0100098,0.0199585-0.0200195l1.4700317-0.8400269l-1.5900269-2.1599731
		c-0.0499878,0.0299683-0.0899658,0.0700073-0.1400146,0.0899658l-1.9099731,1.1000366
		c-0.4100342,0.2000122-0.9700317,0.1400146-1.5800171-0.210022c-0.8900146-0.5-1.6400146-1.5100098-2.039978-2.5700073
		l-1.1900024,0.6900024c-0.4100342,0.2000122-0.9700317,0.1400146-1.5800171-0.2099609
		c-0.6499634-0.3800049-1.2299805-1.0100098-1.6499634-1.75l-1.0100098,0.5799561
		c-0.0800171,0.0500488-0.1700439,0.0700073-0.25,0.0700073c-0.0700073,0-0.1400146-0.0199585-0.210022-0.0499878
		c-0.0100098,0-0.0100098-0.0100098-0.0200195-0.0100098c-0.0099487-0.0100098-0.0099487,0-0.0199585-0.0100098
		l-4.2399902-2.4400024c-0.1500244-0.0899658-0.25-0.25-0.25-0.4299927v-0.6499634l-1.7900391,1.0299683l13.7399902,7.9299927
		c0.0599976,0.0400391,0.1199951,0.0800171,0.1700439,0.1199951l5.5700073,4.9700317l3.1399536-1.8099976L109.2350006,73.7200317z"
		/>
	<path class="st1" d="M117.5250397,73.8900146c-0.0400391,0.0299683-0.0900269,0.039978-0.1400146,0.0599976l0.2099609,0.5
		l1.1800537-0.6799927v1.9899902l-0.5,0.289978l0.1599731,0.3800049c0.0100098,0.0200195,0.0100098,0.0300293,0.0100098,0.0499878
		l0.9099731-0.5299683v-3.1099854L117.5250397,73.8900146z"/>
	<path class="st1" d="M95.7450104,60.2800293l-0.5-2.4700317l-1.7700195,1.0599976l1.3099976,6.3699951V65.25l0.0800171,0.4000244
		l0.4899902-0.2800293C95.1950226,64.9100342,95.094986,64.4400024,95.094986,64
		c0.0100098-0.789978,0.3000488-1.3300171,0.7700195-1.5499878l0.2800293-0.1699829L95.7450104,60.2800293z"/>
	<polygon class="st1" points="101.2550201,59.9299927 96.4450226,58.6900024 96.7249908,60.0800171 101.4749908,61.3099976 	"/>
	<polygon class="st1" points="102.3150177,60.210022 102.5349884,61.5800171 109.5850372,63.4000244 109.5850372,62.0900269 	"/>
	<polygon class="st1" points="112.3150177,70.0599976 108.1750031,72.4500122 108.4250031,73.0300293 108.7350006,72.8499756 
		112.5650177,70.6500244 	"/>
	<path class="st1" d="M95.7450104,60.2800293l-0.5-2.4700317l-1.7700195,1.0599976l1.3099976,6.3699951V65.25l0.0800171,0.4000244
		l0.4899902-0.2800293C95.1950226,64.9100342,95.094986,64.4400024,95.094986,64
		c0.0100098-0.789978,0.3000488-1.3300171,0.7700195-1.5499878l0.2800293-0.1699829L95.7450104,60.2800293z"/>
	<polygon class="st1" points="101.2550201,59.9299927 96.4450226,58.6900024 96.7249908,60.0800171 101.4749908,61.3099976 	"/>
	<polygon class="st4" points="118.7050323,66.3699951 115.0750275,68.4700317 115.3250275,69.0599976 118.9550323,66.9700317 	"/>
	<polygon class="st1" points="96.4450226,58.6900024 96.7249908,60.0800171 101.4749908,61.3099976 101.2550201,59.9299927 	"/>
	<path class="st1" d="M95.2450104,57.8099976l-1.7700195,1.0599976l1.3099976,6.3699951V65.25l0.0800171,0.4000244
		l0.4899902-0.2800293C95.1950226,64.9100342,95.094986,64.4400024,95.094986,64
		c0.0100098-0.789978,0.3000488-1.3300171,0.7700195-1.5499878l0.2800293-0.1699829l-0.4000244-2L95.2450104,57.8099976z"/>
	<path class="st1" d="M95.7450104,60.2800293l-0.5-2.4700317l-1.7700195,1.0599976l1.3099976,6.3699951V65.25l0.0800171,0.4000244
		l0.4899902-0.2800293C95.1950226,64.9100342,95.094986,64.4400024,95.094986,64
		c0.0100098-0.789978,0.3000488-1.3300171,0.7700195-1.5499878l0.2800293-0.1699829L95.7450104,60.2800293z"/>
	<polygon class="st1" points="101.2550201,59.9299927 96.4450226,58.6900024 96.7249908,60.0800171 101.4749908,61.3099976 	"/>
	<polygon class="st1" points="102.3150177,60.210022 102.5349884,61.5800171 109.5850372,63.4000244 109.5850372,62.0900269 	"/>
	<polygon class="st1" points="112.3150177,70.0599976 108.1750031,72.4500122 108.4250031,73.0300293 108.7350006,72.8499756 
		112.5650177,70.6500244 	"/>
	<path class="st1" d="M95.7450104,60.2800293l-0.5-2.4700317l-1.7700195,1.0599976l1.3099976,6.3699951V65.25l0.0800171,0.4000244
		l0.4899902-0.2800293C95.1950226,64.9100342,95.094986,64.4400024,95.094986,64
		c0.0100098-0.789978,0.3000488-1.3300171,0.7700195-1.5499878l0.2800293-0.1699829L95.7450104,60.2800293z"/>
	<polygon class="st1" points="101.2550201,59.9299927 96.4450226,58.6900024 96.7249908,60.0800171 101.4749908,61.3099976 	"/>
	<polygon class="st1" points="102.3150177,60.210022 102.5349884,61.5800171 109.5850372,63.4000244 109.5850372,62.0900269 	"/>
	<polygon class="st1" points="112.3150177,70.0599976 108.1750031,72.4500122 108.4250031,73.0300293 108.7350006,72.8499756 
		112.5650177,70.6500244 	"/>
	<path class="st1" d="M95.7450104,60.2800293l-0.5-2.4700317l-1.7700195,1.0599976l1.3099976,6.3699951V65.25l0.0800171,0.4000244
		l0.4899902-0.2800293C95.1950226,64.9100342,95.094986,64.4400024,95.094986,64
		c0.0100098-0.789978,0.3000488-1.3300171,0.7700195-1.5499878l0.2800293-0.1699829L95.7450104,60.2800293z"/>
	<polygon class="st1" points="101.2550201,59.9299927 96.4450226,58.6900024 96.7249908,60.0800171 101.4749908,61.3099976 	"/>
	<polygon class="st1" points="112.3150177,70.0599976 108.1750031,72.4500122 108.4250031,73.0300293 108.7350006,72.8499756 
		112.5650177,70.6500244 	"/>
	<path class="st4" d="M112.9149933,65.9400024h-0.8899536c-0.210022,0-0.4000244-0.1400146-0.4700317-0.3400269
		c-0.0700073-0.1999512,0-0.4299927,0.1699829-0.5599976l0.5200195-0.3999634l-0.3800049-0.1099854l-0.6400146,0.3699951
		l2.2600098,5.3599854L116.3250275,77l1.0199585-0.5800171L112.9149933,65.9400024z"/>
	<polygon class="st1" points="108.1750031,72.4500122 108.4250031,73.0300293 108.7350006,72.8499756 112.5650177,70.6500244 
		112.3150177,70.0599976 	"/>
	<polygon class="st1" points="106.9250031,72.9100342 107.1750031,73.4899902 107.4950104,73.4100342 107.2550201,72.8300171 	"/>
	<polygon class="st1" points="101.4749908,61.3099976 101.2550201,59.9299927 96.4450226,58.6900024 96.7249908,60.0800171 	"/>
	<path class="st1" d="M94.7849884,65.25l0.0800171,0.4000244l0.4899902-0.2800293
		C95.1950226,64.9100342,95.094986,64.4400024,95.094986,64c0.0100098-0.789978,0.3000488-1.3300171,0.7700195-1.5499878
		l0.2800293-0.1699829l-0.4000244-2l-0.5-2.4700317l-1.7700195,1.0599976l1.3099976,6.3699951V65.25z"/>
	<path class="st1" d="M108.4350128,74.1799927c-0.0100098,0.0100098-0.0300293,0.0100098-0.0499878,0.0100098
		c-0.0200195,0.0200195-0.0499878,0.0300293-0.0800171,0.039978l-1.2999878,0.3400269
		c-0.039978,0.0100098-0.0800171,0.0100098-0.1300049,0.0100098c-0.1900024,0-0.3800049-0.1099854-0.460022-0.2999878
		l-0.6399536-1.5100098c0-0.0200195,0-0.0400391-0.0100098-0.0499878c0-0.0100098-0.0100098-0.0200195-0.0100098-0.0200195
		v-0.0499878c-0.0100098-0.0400391-0.0100098-0.0700073-0.0100098-0.1100464c0-0.0299683,0.0100098-0.0499878,0.0100098-0.0799561
		c0.0100098-0.0300293,0.0200195-0.0599976,0.039978-0.1000366c0.0100098-0.0199585,0.0200195-0.0499878,0.0400391-0.0700073
		c0.0199585-0.0299683,0.039978-0.0499878,0.0599976-0.0699463c0.0199585-0.0200195,0.039978-0.0400391,0.0700073-0.0599976
		c0.0099487-0.0100098,0.0099487-0.0100098,0.0199585-0.0200195l1.4700317-0.8400269l-1.5900269-2.1599731
		c-0.0499878,0.0299683-0.0899658,0.0700073-0.1400146,0.0899658l-1.9099731,1.1000366
		c-0.4100342,0.2000122-0.9700317,0.1400146-1.5800171-0.210022c-0.8900146-0.5-1.6400146-1.5100098-2.039978-2.5700073
		l-1.1900024,0.6900024c-0.4100342,0.2000122-0.9700317,0.1400146-1.5800171-0.2099609
		c-0.6499634-0.3800049-1.2299805-1.0100098-1.6499634-1.75l-1.0100098,0.5799561
		c-0.0800171,0.0500488-0.1700439,0.0700073-0.25,0.0700073c-0.0700073,0-0.1400146-0.0199585-0.210022-0.0499878
		c-0.0100098,0-0.0100098-0.0100098-0.0200195-0.0100098c-0.0099487-0.0100098-0.0099487,0-0.0199585-0.0100098
		l-4.2399902-2.4400024c-0.1500244-0.0899658-0.25-0.25-0.25-0.4299927v-0.6499634l-1.7900391,1.0299683l13.7399902,7.9299927
		c0.0599976,0.0400391,0.1199951,0.0800171,0.1700439,0.1199951l5.5700073,4.9700317l3.1399536-1.8099976l-1.3699951-1.8599854
		L108.4350128,74.1799927z"/>
	<polygon class="st1" points="112.3150177,70.0599976 108.1750031,72.4500122 108.4250031,73.0300293 108.7350006,72.8499756 
		112.5650177,70.6500244 	"/>
	<polygon class="st1" points="101.2550201,59.9299927 96.4450226,58.6900024 96.7249908,60.0800171 101.4749908,61.3099976 	"/>
	<polygon class="st1" points="102.3150177,60.210022 102.5349884,61.5800171 109.5850372,63.4000244 109.5850372,62.0900269 	"/>
	<path class="st1" d="M95.7450104,60.2800293l-0.5-2.4700317l-1.7700195,1.0599976l1.3099976,6.3699951V65.25l0.0800171,0.4000244
		l0.4899902-0.2800293C95.1950226,64.9100342,95.094986,64.4400024,95.094986,64
		c0.0100098-0.789978,0.3000488-1.3300171,0.7700195-1.5499878l0.2800293-0.1699829L95.7450104,60.2800293z"/>
	<polygon class="st4" points="112.3150177,70.0599976 108.1750031,72.4500122 108.4250031,73.0300293 108.7350006,72.8499756 
		112.5650177,70.6500244 	"/>
	<polygon class="st1" points="102.3150177,60.210022 102.5349884,61.5800171 109.5850372,63.4000244 109.5850372,62.0900269 	"/>
	<polygon class="st1" points="101.2550201,59.9299927 96.4450226,58.6900024 96.7249908,60.0800171 101.4749908,61.3099976 	"/>
	<path class="st1" d="M95.7450104,60.2800293l-0.5-2.4700317l-1.7700195,1.0599976l1.3099976,6.3699951V65.25l0.0800171,0.4000244
		l0.4899902-0.2800293C95.1950226,64.9100342,95.094986,64.4400024,95.094986,64
		c0.0100098-0.789978,0.3000488-1.3300171,0.7700195-1.5499878l0.2800293-0.1699829L95.7450104,60.2800293z"/>
	<polygon class="st1" points="102.3150177,60.210022 102.5349884,61.5800171 109.5850372,63.4000244 109.5850372,62.0900269 	"/>
	<polygon class="st4" points="113.6950226,61.539978 112.9550323,61.9700317 112.9550323,62.0900269 114.844986,63.7600098 
		115.635025,63.2800293 	"/>
	<polygon class="st1" points="102.5349884,61.5800171 109.5850372,63.4000244 109.5850372,62.0900269 102.3150177,60.210022 	"/>
	<polygon class="st1" points="92.8350372,60.7299805 92.4749908,58.9400024 90.7750397,57.960022 90.7750397,63.7000122 
		93.8050079,65.4400024 	"/>
	<path class="st1" d="M109.2350006,73.7200317l-0.7999878,0.4599609c-0.0100098,0.0100098-0.0300293,0.0100098-0.0499878,0.0100098
		c-0.0200195,0.0200195-0.0499878,0.0300293-0.0800171,0.039978l-1.2999878,0.3400269
		c-0.039978,0.0100098-0.0800171,0.0100098-0.1300049,0.0100098c-0.1900024,0-0.3800049-0.1099854-0.460022-0.2999878
		l-0.6399536-1.5100098c0-0.0200195,0-0.0400391-0.0100098-0.0499878c0-0.0100098-0.0100098-0.0200195-0.0100098-0.0200195
		v-0.0499878c-0.0100098-0.0400391-0.0100098-0.0700073-0.0100098-0.1100464c0-0.0299683,0.0100098-0.0499878,0.0100098-0.0799561
		c0.0100098-0.0300293,0.0200195-0.0599976,0.039978-0.1000366c0.0100098-0.0199585,0.0200195-0.0499878,0.0400391-0.0700073
		c0.0199585-0.0299683,0.039978-0.0499878,0.0599976-0.0699463c0.0199585-0.0200195,0.039978-0.0400391,0.0700073-0.0599976
		c0.0099487-0.0100098,0.0099487-0.0100098,0.0199585-0.0200195l1.4700317-0.8400269l-1.5900269-2.1599731
		c-0.0499878,0.0299683-0.0899658,0.0700073-0.1400146,0.0899658l-1.9099731,1.1000366
		c-0.4100342,0.2000122-0.9700317,0.1400146-1.5800171-0.210022c-0.8900146-0.5-1.6400146-1.5100098-2.039978-2.5700073
		l-1.1900024,0.6900024c-0.4100342,0.2000122-0.9700317,0.1400146-1.5800171-0.2099609
		c-0.6499634-0.3800049-1.2299805-1.0100098-1.6499634-1.75l-1.0100098,0.5799561
		c-0.0800171,0.0500488-0.1700439,0.0700073-0.25,0.0700073c-0.0700073,0-0.1400146-0.0199585-0.210022-0.0499878
		c-0.0100098,0-0.0100098-0.0100098-0.0200195-0.0100098c-0.0099487-0.0100098-0.0099487,0-0.0199585-0.0100098
		l-4.2399902-2.4400024c-0.1500244-0.0899658-0.25-0.25-0.25-0.4299927v-0.6499634l-1.7900391,1.0299683l13.7399902,7.9299927
		c0.0599976,0.0400391,0.1199951,0.0800171,0.1700439,0.1199951l5.5700073,4.9700317l3.1399536-1.8099976L109.2350006,73.7200317z"
		/>
	<polygon class="st1" points="92.8350372,60.7299805 92.4749908,58.9400024 90.7750397,57.960022 90.7750397,63.7000122 
		93.8050079,65.4400024 	"/>
	<polygon class="st1" points="107.2550201,72.8300171 106.9250031,72.9100342 107.1750031,73.4899902 107.4950104,73.4100342 	"/>
	<polygon class="st1" points="92.8350372,60.7299805 92.4749908,58.9400024 90.7750397,57.960022 90.7750397,63.7000122 
		93.8050079,65.4400024 	"/>
	<path class="st5" d="M106.3431702,79.0741653v3.2300415l-4.3800049-2.5300293l-0.0499878-0.4899902
		c0-2.3300171-0.7699585-3.6400146-2.8200073-4.8200073l-2.5499878-1.4699707c-0.8699951-0.5100098-1.9199829-0.5100098-2.7999878,0
		c-0.5499878,0.3099976-0.960022,0.789978-1.1900024,1.3499756l-5.6400146-3.25v-5.0299683l13.7200317,7.9199829
		L106.3431702,79.0741653z"/>
	<polygon class="st1" points="92.8350372,60.7299805 92.4749908,58.9400024 90.7750397,57.960022 90.7750397,63.7000122 
		93.8050079,65.4400024 	"/>
	<polygon class="st4" points="107.2550201,72.8300171 106.9250031,72.9100342 107.1750031,73.4899902 107.4950104,73.4100342 	"/>
	<polygon class="st1" points="86.9149933,61.6500244 86.9149933,62.5200195 89.7750397,60.8699951 89.7750397,60 	"/>
	<polygon class="st1" points="92.8350372,60.7299805 92.4749908,58.9400024 90.7750397,57.960022 90.7750397,63.7000122 
		93.8050079,65.4400024 	"/>
	<path class="st4" d="M95.7450104,60.2800293l-0.5-2.4700317l-1.7700195,1.0599976l1.3099976,6.3699951V65.25l0.0800171,0.4000244
		l0.4899902-0.2800293C95.1950226,64.9100342,95.094986,64.4400024,95.094986,64
		c0.0100098-0.789978,0.3000488-1.3300171,0.7700195-1.5499878l0.2800293-0.1699829L95.7450104,60.2800293z"/>
	<polygon class="st4" points="101.2550201,59.9299927 96.4450226,58.6900024 96.7249908,60.0800171 101.4749908,61.3099976 	"/>
	<polygon class="st4" points="102.3150177,60.210022 102.5349884,61.5800171 109.5850372,63.4000244 109.5850372,62.0900269 	"/>
	<path class="st1" d="M98.3950348,55.5599976l-1.7000122-0.9699707v0.9799805c0,0.0200195-0.0100098,0.0299683-0.0100098,0.0499878
		l1.8200073,0.4799805L98.3950348,55.5599976z"/>
	<path class="st1" d="M98.3950348,55.5599976l-1.7000122-0.9699707v0.9799805c0,0.0200195-0.0100098,0.0299683-0.0100098,0.0499878
		l1.8200073,0.4799805L98.3950348,55.5599976z"/>
	<path class="st1" d="M98.3950348,55.5599976l-1.7000122-0.9699707v0.9799805c0,0.0200195-0.0100098,0.0299683-0.0100098,0.0499878
		l1.8200073,0.4799805L98.3950348,55.5599976z"/>
	<path class="st1" d="M98.3950348,55.5599976l-1.7000122-0.9699707v0.9799805c0,0.0200195-0.0100098,0.0299683-0.0100098,0.0499878
		l1.8200073,0.4799805L98.3950348,55.5599976z"/>
	<polygon class="st4" points="101.6649933,56.9299927 101.1549835,54.4400024 99.4049835,55.4899902 99.5750275,56.3499756 
		99.5750275,56.3800049 	"/>
	<path class="st1" d="M96.6950226,54.5900269v0.9799805c0,0.0200195-0.0100098,0.0299683-0.0100098,0.0499878l1.8200073,0.4799805
		l-0.1099854-0.539978L96.6950226,54.5900269z"/>
	<path class="st1" d="M98.3950348,55.5599976l-1.7000122-0.9699707v0.9799805c0,0.0200195-0.0100098,0.0299683-0.0100098,0.0499878
		l1.8200073,0.4799805L98.3950348,55.5599976z"/>
	<path class="st4" d="M98.3950348,55.5599976l-1.7000122-0.9699707v0.9799805c0,0.0200195-0.0100098,0.0299683-0.0100098,0.0499878
		l1.8200073,0.4799805L98.3950348,55.5599976z"/>
	<polygon class="st4" points="98.8650055,52.7000122 97.1850128,53.710022 97.4950104,53.8900146 98.8350372,54.6600342 
		100.5250397,53.6500244 	"/>
	<polygon class="st4" points="92.9550323,56.0800171 91.2750397,57.0900269 92.9149933,58.039978 94.6049957,57.0300293 	"/>
	<path class="st1" d="M83.1049957,57.4799805c-0.1300049-0.0699463-0.2299805-0.2099609-0.25-0.3599854l-0.4299927-3.0899658
		l-3.289978,1.8899536l6.7099609,3.8699951l0.6200562-0.3599854L83.1049957,57.4799805z"/>
	<path class="st1" d="M83.1049957,57.4799805c-0.1300049-0.0699463-0.2299805-0.2099609-0.25-0.3599854l-0.4299927-3.0899658
		l-3.289978,1.8899536l6.7099609,3.8699951l0.6200562-0.3599854L83.1049957,57.4799805z"/>
	<path class="st1" d="M83.1049957,57.4799805c-0.1300049-0.0699463-0.2299805-0.2099609-0.25-0.3599854l-0.4299927-3.0899658
		l-3.289978,1.8899536l6.7099609,3.8699951l0.6200562-0.3599854L83.1049957,57.4799805z"/>
	<path class="st1" d="M83.1049957,57.4799805c-0.1300049-0.0699463-0.2299805-0.2099609-0.25-0.3599854l-0.4299927-3.0899658
		l-3.289978,1.8899536l6.7099609,3.8699951l0.6200562-0.3599854L83.1049957,57.4799805z"/>
	<polygon class="st1" points="86.7150421,58.4199829 84.5550079,52.3300171 83.3050079,53.0499878 83.8150177,56.7399902 	"/>
	<path class="st1" d="M82.8549957,57.1199951l-0.4299927-3.0899658l-3.289978,1.8899536l6.7099609,3.8699951l0.6200562-0.3599854
		l-3.3600464-1.9500122C82.9749908,57.4100342,82.8750153,57.2700195,82.8549957,57.1199951z"/>
	<path class="st1" d="M83.1049957,57.4799805c-0.1300049-0.0699463-0.2299805-0.2099609-0.25-0.3599854l-0.4299927-3.0899658
		l-3.289978,1.8899536l6.7099609,3.8699951l0.6200562-0.3599854L83.1049957,57.4799805z"/>
	<path class="st1" d="M83.1049957,57.4799805c-0.1300049-0.0699463-0.2299805-0.2099609-0.25-0.3599854l-0.4299927-3.0899658
		l-3.289978,1.8899536l6.7099609,3.8699951l0.6200562-0.3599854L83.1049957,57.4799805z"/>
	<polygon class="st1" points="86.885025,51.0100098 85.4450226,51.8400269 87.844986,58.6400146 89.2849884,57.7999878 	"/>
	<path class="st1" d="M93.4950104,47.1900024l-1.2199707,0.710022l2.3999634,6.7999878l1.0200195-0.5900269v-0.3899536
		c0-0.0300293,0.0200195-0.0599976,0.0299683-0.1000366c0-0.0299683,0.0100098-0.0599976,0.0200195-0.0899658L93.4950104,47.1900024
		z"/>
	<polygon class="st1" points="86.9149933,61.6500244 86.9149933,62.5200195 89.7750397,60.8699951 89.7750397,60 	"/>
	<polygon class="st1" points="92.8350372,60.7299805 92.4749908,58.9400024 90.7750397,57.960022 90.7750397,63.7000122 
		93.8050079,65.4400024 	"/>
	<polygon class="st1" points="86.9149933,61.6500244 86.9149933,62.5200195 89.7750397,60.8699951 89.7750397,60 	"/>
	<polygon class="st1" points="92.8350372,60.7299805 92.4749908,58.9400024 90.7750397,57.960022 90.7750397,63.7000122 
		93.8050079,65.4400024 	"/>
	<polygon class="st1" points="86.9149933,62.5200195 89.7750397,60.8699951 89.7750397,60 86.9149933,61.6500244 	"/>
	<path class="st5" d="M78.135025,66.0200195l6.7799683,3.9099731v-5.5999756c0-0.0100098,0-0.0100098,0-0.0200195v-2.75
		l-6.7799683-3.9099731V66.0200195z"/>
	<polygon class="st1" points="86.9149933,61.6500244 86.9149933,62.5200195 89.7750397,60.8699951 89.7750397,60 	"/>
	<polygon class="st1" points="92.8350372,60.7299805 92.4749908,58.9400024 90.7750397,57.960022 90.7750397,63.7000122 
		93.8050079,65.4400024 	"/>
	<polygon class="st1" points="86.9149933,61.6500244 86.9149933,62.5200195 89.7750397,60.8699951 89.7750397,60 	"/>
	<polygon class="st4" points="92.8350372,60.7299805 92.4749908,58.9400024 90.7750397,57.960022 90.7750397,63.7000122 
		93.8050079,65.4400024 	"/>
	<polygon class="st1" points="86.9149933,61.6500244 86.9149933,62.5200195 89.7750397,60.8699951 89.7750397,60 	"/>
	<path class="st5" d="M71.3549957,46.9799805l-7.0299683,4.1700439l-7.2800293-1.9500122l-0.3699951,0.210022v4.2199707
		l0.7800293,0.4500122c0.1399536-0.4899902,0.4599609-0.9100342,0.9199829-1.1699829
		c0.6400146-0.3700562,1.3900146-0.3700562,2.0299683,0L64.4550323,55.25
		c1.5999756,0.9199829,2.6799927,2.4899902,2.9699707,4.3099976l0.0499878,0.2999878l8.6600342,5.0100098V50.3099976
		c0-0.1799927,0.0499878-0.3499756,0.1300049-0.5L71.3549957,46.9799805z"/>
	<polygon class="st4" points="111.1850128,60.460022 110.9450226,60.6099854 103.1250153,58.4899902 103.4350128,58.4199829 	"/>
	<polygon class="st4" points="110.344986,60.9700317 110.0050201,61.1699829 102.3050079,59.1699829 102.6450348,58.8699951 	"/>
	<path class="st4" d="M101.4650421,58.5700073l-0.1600342,0.1400146c-0.0599976,0.039978-0.0999756,0.0999756-0.1300049,0.1699829
		l-4.9500122-1.2800293L96.1549835,57.25L101.4650421,58.5700073z"/>
	<path class="st4" d="M102.0550079,58.0599976l-0.1300049,0.1199951l-5.9699707-1.4899902
		c-0.0200195-0.0200195-0.0500488-0.0499878-0.0800171-0.0700073c-0.0100098-0.0100098-0.0200195-0.0200195-0.0300293-0.0299683
		l-0.0499878-0.0300293l-0.0899658-0.0499878l0.1099854-0.0900269L102.0550079,58.0599976z"/>
	<g>
		<path class="st6" d="M98.233757,66.0337143"/>
	</g>
	<g>
		<path class="st6" d="M102.7405243,63.4324188"/>
	</g>
	<g>
		<path class="st7" d="M90.1514359,59.0917435"/>
	</g>
	<path class="st4" d="M96.9350128,61.1699829l0.0599976,0.2600098c0.039978,0.0100098,0.0900269,0.0100098,0.1400146,0.0300293
		l0.2299805,0.1099854l0.2399902-0.1300049l0.1100464-0.0700073L96.9350128,61.1699829z"/>
	<path class="st4" d="M112.2450104,74.1300049c-0.0100098-0.0100098-0.039978-0.0200195-0.0499878-0.039978l-1.0700073-1.460022
		l-1.0200195,0.5900269l2.460022,3.3399658l0.5299683-0.4199829L112.2450104,74.1300049z"/>
	<polygon class="st1" points="116.8549957,69.3300171 115.7150421,69.9899902 116.6150055,72.1099854 118.6549835,70.9299927 	"/>
	<path class="st4" d="M107.2650299,67.3800049l-0.8500366-0.4000244c0.0400391,0.2400513,0.0800171,0.4800415,0.0800171,0.710022
		c0,0.2200317-0.0299683,0.4099731-0.0700073,0.5900269c0.0400391,0.0299683,0.0900269,0.0599976,0.1300049,0.0999756
		l1.7700195,2.4099731l1.0199585-0.5799561L107.2650299,67.3800049z"/>
	<path class="st4" d="M110.2650299,65.2000122l-0.6300049,0.0299683c-0.0100098,0.0200195-0.0200195,0.0300293-0.0400391,0.0400391
		l1.7700195,4.1900024l0.5599976-0.3300171L110.2650299,65.2000122z"/>
	<path class="st4" d="M112.2350006,62.789978c-0.0100098-0.0099487-0.0199585,0-0.0199585-0.0099487l-1.1600342-0.3300171v0.789978
		l0.0300293,0.0300293l1.3299561,0.3800049v-0.7000122L112.2350006,62.789978z"/>
	<path class="st4" d="M108.4450226,65.1300049l-4.1799927-2.0300293c-0.0300293-0.0099487-0.0499878-0.039978-0.0800171-0.0599976
		l-4.3099976-1.1099854c0.4299927,0.3599854,0.8200073,0.8400269,1.1300049,1.3699951l0.9899902,0.4700317l0.4199829-0.2399902
		l0.1700439-0.1000366c0.0199585-0.0100098,0.0499878-0.0199585,0.0699463-0.0299683
		c0.4100342-0.1500244,0.9300537-0.0900269,1.5,0.2399902c0.7200317,0.4199829,1.3600464,1.1699829,1.7800293,2.0100098
		l1.8699951,0.8800049c0.0800171,0.039978,0.1400146,0.0899658,0.1900024,0.1599731l2.2200317,3.0100098l0.1299438-0.0700073
		L108.4450226,65.1300049z"/>
	<path class="st1" d="M89.9350128,53.539978c-0.1400146-0.0699463-0.2299805-0.2099609-0.25-0.3599854l-0.4299927-3.1199951
		l-1.3699951,0.7800293l2.0800171,5.8800049c0.0199585-0.0200195,0.0299683-0.0500488,0.0599976-0.0599976h0.0099487
		l2.5900269-1.5500488L89.9350128,53.539978z"/>
	<polygon class="st1" points="91.385025,48.3900146 90.135025,49.1099854 90.6450348,52.7999878 93.5449982,54.4799805 	"/>
	<polygon class="st8" points="110.9250031,78.2000122 110.9250031,80.2000122 109.4250031,81.0599976 109.1549835,81.2200317 
		109.1549835,79.2200317 	"/>
	<polygon class="st8" points="118.7750397,73.7700195 118.7750397,75.7600098 118.2750397,76.0499878 117.594986,74.4500122 	"/>
	<g>
		<path class="st7" d="M84.3708115,39.4696465"/>
	</g>
	<g>
		<path class="st7" d="M89.4638824,58.9400482"/>
	</g>
	<path class="st9" d="M96.1804504,77.4359589c1.091774,0.6303406,1.9763336,2.1624832,1.9727783,3.4170227
		c-0.0035553,1.254509-0.893898,1.7619095-1.985672,1.1315765c-1.0917816-0.6303406-1.9763412-2.1624832-1.9727859-3.4169922
		C94.1983337,77.3130264,95.0886688,76.8056259,96.1804504,77.4359589L96.1804504,77.4359589z M61.4949875,57.4155807
		c-1.0917778-0.6303368-1.9821205-0.1229324-1.9856758,1.1316032c-0.0035553,1.254509,0.8810043,2.7866554,1.9727821,3.4169922
		s1.9821167,0.1229324,1.9856758-1.1315765C63.4713249,59.578064,62.5867653,58.0459175,61.4949875,57.4155807
		L61.4949875,57.4155807z M97.4328232,64.2793884c-0.5107727-0.294899-0.9207382-0.0539246-0.9224014,0.5329742
		c-0.0016632,0.586937,0.4056168,1.2923737,0.9163895,1.5872726c0.5107727,0.2948914,0.9271011,0.0649643,0.9287643-0.5219727
		C98.3572388,65.2907639,97.9435959,64.5742798,97.4328232,64.2793884L97.4328232,64.2793884z M102.2444992,66.3784485
		c-0.5107727-0.294899-0.9207382-0.0539246-0.9224014,0.5329742c-0.0016632,0.586937,0.4056168,1.2923737,0.9163895,1.5872726
		c0.5107727,0.2948914,0.9271011,0.0649643,0.9287643-0.5219727
		C103.1689148,67.3898239,102.7552719,66.6733398,102.2444992,66.3784485L102.2444992,66.3784485z"/>
	<polygon class="st10" points="74.6795197,51.5045166 71.2154694,49.5057373 67.0955963,51.9576416 74.6795197,56.336853 	"/>
	<path class="st11" d="M55.7249908,55.3900146l-1.0799561,0.6199951l-0.3500366-0.2000122
		c-0.5499878-0.3200073-0.7099609-0.8099976-0.75-1.0999756v-0.4299927c0.0499878-0.4700317,0.3200073-0.8800049,0.75-1.1300049
		l0.3800049-0.210022v1.2600098c0,0.3599854,0.1900024,0.6900024,0.4899902,0.8699951L55.7249908,55.3900146z
		 M62.1518555,58.3404884c-0.4328079-0.2498817-0.785759-0.0487366-0.7871704,0.4485931
		c-0.0014114,0.4973183,0.3492508,1.1046982,0.7820587,1.3545761c0.4328041,0.2498817,0.785759,0.0487366,0.7871666-0.4485817
		C62.9353218,59.1977463,62.5846596,58.5903702,62.1518555,58.3404884L62.1518555,58.3404884z M96.961174,78.5017242
		c-0.4328079-0.2498856-0.785759-0.0487366-0.7871704,0.4485931c-0.0014038,0.4973145,0.3492508,1.1046982,0.7820587,1.3545761
		c0.4328079,0.2498856,0.785759,0.0487366,0.7871704-0.4485855S97.3939819,78.7516022,96.961174,78.5017242L96.961174,78.5017242z"
		/>
	<path class="st1" d="M101.9631653,79.7741776l-0.789978-0.4599609c-0.0200195-2.1100464-0.6300049-3.1600342-2.4500122-4.2000122
		l-2.5499878-1.4800415c-0.3200073-0.1799927-0.6699829-0.2799683-1.0200195-0.2799683
		c-0.3599854,0-0.7099609,0.0999756-1.0299683,0.2799683c-0.4000244,0.2300415-0.7000122,0.5700073-0.8699951,0.9900513
		l-0.0400391,0.0999756l-0.6599731-0.3800049c0.2299805-0.5599976,0.6400146-1.039978,1.1900024-1.3499756
		c0.8800049-0.5100098,1.9299927-0.5100098,2.7999878,0l2.5499878,1.4699707
		c2.0500488,1.1799927,2.8200073,2.4899902,2.8200073,4.8200073L101.9631653,79.7741776z"/>
</g>
</svg>
