<?xml version="1.0" encoding="utf-8"?>
<!-- Generator: Adobe Illustrator 27.6.1, SVG Export Plug-In . SVG Version: 6.00 Build 0)  -->
<svg version="1.1" id="Layer_1" xmlns="http://www.w3.org/2000/svg" xmlns:xlink="http://www.w3.org/1999/xlink" x="0px" y="0px"
	 viewBox="0 0 172.9100037 90" style="enable-background:new 0 0 172.9100037 90;" xml:space="preserve">
<style type="text/css">
	.st0{fill:#888888;}
	.st1{fill:#657195;}
	.st2{fill:#FFFFFF;}
	.st3{fill:#3751A0;}
	.st4{fill:#CCCCCC;}
	.st5{fill:#293D78;}
	.st6{fill:#8797C6;}
	.st7{fill:#F79420;}
	.st8{fill:#C1272D;}
</style>
<g>
	<g>
		<g>
			<polygon class="st0" points="98.462616,82.7782822 74.4474716,82.7782822 74.4474716,88.2946777 84.7497253,88.2946777 
				84.7497253,90 88.1603622,90 88.1603622,88.2946777 98.462616,88.2946777 			"/>
		</g>
		<g>
			<path d="M83.6589355,69.2302399H83.645401l0.05439,0.3810043L83.6589355,69.2302399z M88.7476501,38.8344574h-4.5580597
				l-0.0543976,0.5441895h4.6668549L88.7476501,38.8344574z M83.6589355,69.2302399H83.645401l0.05439,0.3810043
				L83.6589355,69.2302399z M88.7476501,38.8344574h-4.5580597l-0.0543976,0.5441895h4.6668549L88.7476501,38.8344574z
				 M83.6589355,69.2302399H83.645401l0.05439,0.3810043L83.6589355,69.2302399z M88.7476501,38.8344574h-4.5580597
				l-0.0543976,0.5441895h4.6668549L88.7476501,38.8344574z M83.6589355,69.2302399H83.645401l0.05439,0.3810043
				L83.6589355,69.2302399z M88.7476501,38.8344574h-4.5580597l-0.0543976,0.5441895h4.6668549L88.7476501,38.8344574z
				 M83.6589355,69.2302399H83.645401l0.05439,0.3810043L83.6589355,69.2302399z M88.7476501,38.8344574h-4.5580597
				l-0.0543976,0.5441895h4.6668549L88.7476501,38.8344574z M83.6589355,69.2302399H83.645401l0.05439,0.3810043
				L83.6589355,69.2302399z M88.7476501,38.8344574h-4.5580597l-0.0543976,0.5441895h4.6668549L88.7476501,38.8344574z
				 M101.6052704,77.0129166l-0.884346-8.1772232l-2.9797211-16.5721092v-3.2790947
				c0-0.0407753-0.0136185-0.0680161-0.0272369-0.095253c0-0.0407753,0.0136185-0.0680161,0.0136185-0.1087875l-0.8299484-4.5988388
				v-4.4628143c0-0.0407715-0.0136185-0.0680122-0.0136185-0.1088676c0-0.0271568,0.0136185-0.0680161,0-0.0951691
				l-0.5578918-3.6192474c-0.1087875-0.6666794-0.6802979-1.1564789-1.3469772-1.1564789H77.8899994
				c-0.6666794,0-1.2381134,0.4897995-1.3469849,1.1564789l-0.5578079,3.6192474c0,0.027153,0.0136185,0.0680122,0,0.0951691
				c0,0.0408554-0.0136185,0.0680962-0.0136185,0.1088676v4.6804733l-0.7891693,4.3811798
				c-0.0136185,0.0407715,0,0.0680122,0,0.1087875c0,0.0272369-0.0272369,0.0544777-0.0272369,0.095253v3.2790947
				l-2.9797211,16.6808968l-0.8707275,8.0684357c0,0.0135422,0.0136261,0.0271606,0.0136261,0.0543976
				c0,0.0136185-0.0136261,0.0407715-0.0136261,0.0407715v6.1908035c0,0.6802979,0.6122894,1.2517319,1.3606033,1.2517319
				h27.5793304c0.7483978,0,1.3606033-0.571434,1.3606033-1.2517319v-6.1908035c0,0-0.0135422-0.027153-0.0135422-0.0407715
				C101.5917282,77.0400772,101.6052704,77.0264587,101.6052704,77.0129166z M95.2785187,56.7807045v-2.8980026
				l2.7348251,15.2659035l0.0135345,0.0816345l0.7891693,7.2520294H88.7476501v-2.2644806h6.63974
				c0.285675,0,0.5169525-0.2040405,0.5169525-0.4625626v-2.919487c0-0.258522-0.2312775-0.4625626-0.5169525-0.4625626h-6.2724304
				l0.1497269-1.1429367l0.1496506-1.2109528h0.1360245c0.285759,0,0.503418-0.2040405,0.503418-0.476181v-0.1360245h2.5443115
				c0.136116,0.122406,0.2177429-1.2518158,0.190506-3.102211c-0.0272369-1.877636-0.1360245-3.4967575-0.2448959-3.6464005
				h-2.6804276c-0.0135345-0.0136223-0.027153,0-0.0407791,0.0272369l-0.0408554-0.5170364h2.0409012
				c0.1224899,0.1087875,0.190506-1.0885468,0.163353-2.694046v-0.2040405h2.7755966
				C95.0472412,57.2705841,95.2785187,57.0528412,95.2785187,56.7807045z M85.0059967,71.801796l-0.5578918-4.3130875h4.0137939
				l-0.5578156,4.3130875H85.0059967z M87.7272034,72.7406158v7.6465683h-2.5443192v-7.6465683H87.7272034z M85.0740128,66.5498962
				l0.1360245-1.5647278h2.4899292l0.1360245,1.5647278H85.0740128z M88.1625214,64.0327301h-3.4150391
				c-0.2585144,0-0.4898758,0.190506-0.503418,0.4490204l-0.1904984,2.0681458h-0.1496506l-0.0272369-2.8300743h5.1566467v2.8300743
				h-0.1768875l-0.1904144-2.0681458C88.6523972,64.2232361,88.4210358,64.0327301,88.1625214,64.0327301z M84.1624374,72.5093307
				v0.7696381h-5.9730606V71.325531H83.91745l0.136116,1.0069199C84.053566,72.4004593,84.1079559,72.4548569,84.1624374,72.5093307
				z M83.645401,45.3244667c-0.0136185-0.0136185-0.0272446-0.0407753-0.040863-0.0543938
				c-0.0407715-0.0272369-0.0816269-0.0544777-0.1360245-0.0816307c-0.0136185-0.0136223-0.0136185-0.0136223-0.0272369-0.0272408
				s-0.0408554-0.0136185-0.0680161-0.0136185l0.0271606-0.3537712h6.1227036l0.0272369,0.3537712
				c-0.0272369,0-0.0543976,0-0.0816345,0.0136185c-0.0136185,0.0136185-0.0136185,0.0136185-0.0272369,0.0272408
				c-0.0543976,0.027153-0.0951691,0.0543938-0.1360245,0.0816307c-0.0136185,0.0136185-0.0272446,0.0407753-0.0407791,0.0543938
				c-0.0272369,0.0408592-0.0408554,0.0680161-0.0680923,0.095253c0,0.0272369-0.0136185,0.0680122-0.0136185,0.095253
				c0,0.0272369-0.0135422,0.0543938-0.0135422,0.0816307v2.7620621h-0.4762573l-0.095253-1.0749283
				c-0.027153-0.2448997-0.2448959-0.4354019-0.503418-0.4354019h-3.279007c-0.258522,0-0.476265,0.1905022-0.503418,0.4354019
				l-0.095253,1.0749283h-0.4762573v-2.7620621c0-0.0272369-0.0135422-0.0543938-0.0135422-0.0816307
				c0-0.0272408-0.0136185-0.0680161-0.0136185-0.095253C83.6861725,45.3924828,83.672554,45.3653259,83.645401,45.3244667z
				 M88.8564377,41.0793991v0.4897957H84.053566v-0.4897957H88.8564377z M89.4823456,42.5896454v0.8435669h-6.041069v-0.8435669
				H89.4823456z M88.8156662,49.6103935h0.3537674v2.1361542h-0.1632614L88.8156662,49.6103935z M88.9925537,62.781002H83.91745
				l1.3742218-14.9938507h2.3266602L88.9925537,62.781002z M83.7405701,49.6103935h0.3537674l-0.1904221,2.1361542h-0.1633453
				V49.6103935z M94.8838959,71.325531v1.9534378h-6.1362457v-0.7696381
				c0.0543976-0.0544739,0.1087875-0.1088715,0.1087875-0.1768799l0.136116-1.0069199c0,0,0,0,0.0136185,0H94.8838959z
				 M93.5232925,46.0727806l0.6531448,4.0954247h-3.6328659l-0.3265305-4.0954247H93.5232925z M90.6116714,42.5896454h1.7279053
				l0.0681,2.5307808h-1.7279968L90.6116714,42.5896454z M94.2580719,51.1070213v5.2111244h-2.2994232
				c-0.0408554-1.0748444-0.1088715-1.877636-0.1768799-1.9728851h-1.2109604v-3.2382393H94.2580719z M94.3397064,45.2973137
				c-0.095253-0.095253-0.2177429-0.1768875-0.3673935-0.1768875h-0.5441895v-0.3266144h0.8299484L94.3397064,45.2973137z
				 M94.1764374,43.4332123h-0.7891693l-0.0272369-0.8435669h0.8164062V43.4332123z M79.0601807,37.4602356h14.7488708
				l0.05439,0.3537712H79.0056992L79.0601807,37.4602356z M78.7335663,50.1682053l0.6531448-4.0954247h3.3062515
				l-0.3265305,4.0954247H78.7335663z M82.3391953,51.1070213v3.2382393h-1.2109604
				c-0.0680084,0.0952492-0.1360245,0.8980408-0.1768799,1.9728851h-2.2994232v-5.2111244H82.3391953z M80.5159531,45.1204262
				l0.0680923-2.5307808h1.7142868l-0.0680084,2.5307808H80.5159531z M78.6927872,42.5896454h0.8708115l-0.0136261,0.8435669
				h-0.8571854V42.5896454z M78.6519318,44.7938118h0.8571854l-0.0136185,0.3266144h-0.5578079
				c-0.163269,0-0.285759,0.0951691-0.381012,0.2040405L78.6519318,44.7938118z M74.8831253,69.2438583l2.7483597-15.442791
				v2.9796371c0,0.2721367,0.2313614,0.4898796,0.5170288,0.4898796h2.7756805v0.2040405
				c-0.0272369,1.6054993,0.0407791,2.8028336,0.163269,2.694046h2.0409012l-0.0408554,0.5170364
				c-0.0136261-0.0272369-0.0272446-0.0408592-0.0407791-0.0272369h-2.6804276
				c-0.1088715,0.1496429-0.217659,1.7687645-0.2448959,3.6464005c-0.0272369,1.8503952,0.05439,3.224617,0.190506,3.102211
				h2.5443115v0.1360245c0,0.2721405,0.217659,0.476181,0.503418,0.476181h0.1360245l0.1497345,1.2109528l0.05439,0.3810043
				l0.095253,0.7619324h-6.1227036c-0.285759,0-0.503418,0.2040405-0.503418,0.4625626v2.919487
				c0,0.258522,0.217659,0.4625626,0.503418,0.4625626h6.490097v2.2644806H74.093956L74.8831253,69.2438583z M98.8840637,82.0335388
				H74.0259399V77.747612h10.1364975v3.1157455c0,0.258522,0.217659,0.4626465,0.5034103,0.4626465h3.578392
				c0.272049,0,0.5034103-0.2041245,0.5034103-0.4626465V77.747612h10.1364136V82.0335388z M88.7476501,38.8344574h-4.5580597
				l-0.0543976,0.5441895h4.6668549L88.7476501,38.8344574z M83.6589355,69.2302399H83.645401l0.05439,0.3810043
				L83.6589355,69.2302399z M88.7476501,38.8344574h-4.5580597l-0.0543976,0.5441895h4.6668549L88.7476501,38.8344574z
				 M83.6589355,69.2302399H83.645401l0.05439,0.3810043L83.6589355,69.2302399z M88.7476501,38.8344574h-4.5580597
				l-0.0543976,0.5441895h4.6668549L88.7476501,38.8344574z M83.6589355,69.2302399H83.645401l0.05439,0.3810043
				L83.6589355,69.2302399z M88.7476501,38.8344574h-4.5580597l-0.0543976,0.5441895h4.6668549L88.7476501,38.8344574z
				 M83.6589355,69.2302399H83.645401l0.05439,0.3810043L83.6589355,69.2302399z M88.7476501,38.8344574h-4.5580597
				l-0.0543976,0.5441895h4.6668549L88.7476501,38.8344574z M83.6589355,69.2302399H83.645401l0.05439,0.3810043
				L83.6589355,69.2302399z M88.7476501,38.8344574h-4.5580597l-0.0543976,0.5441895h4.6668549L88.7476501,38.8344574z
				 M83.6589355,69.2302399H83.645401l0.05439,0.3810043L83.6589355,69.2302399z"/>
		</g>
		<g>
			<rect x="85.1828842" y="72.7406158" class="st1" width="2.5443175" height="7.6465716"/>
		</g>
		<g>
			<polygon class="st2" points="93.8634415,37.8140068 79.0056992,37.8140068 79.0601807,37.4602356 93.8090515,37.4602356 			"/>
		</g>
		<g>
			<path class="st3" d="M94.3397064,45.2973137c-0.095253-0.095253-0.2177429-0.1768875-0.3673935-0.1768875h-0.5441895v-0.3266144
				h0.8299484L94.3397064,45.2973137z"/>
		</g>
		<g>
			<path class="st3" d="M79.5091171,44.7938118l-0.0136185,0.3266144h-0.5578079c-0.163269,0-0.285759,0.0951691-0.381012,0.2040405
				l0.095253-0.5306549H79.5091171z"/>
		</g>
		<g>
			<polygon class="st4" points="79.5635986,42.5896454 79.5499725,43.4332123 78.6927872,43.4332123 78.6927872,42.5896454 			"/>
		</g>
		<g>
			<polygon class="st5" points="82.2983322,42.5896454 82.2303238,45.1204262 80.5159531,45.1204262 80.5840454,42.5896454 			"/>
		</g>
		<g>
			<polygon class="st5" points="92.4076767,45.1204262 90.6796799,45.1204262 90.6116714,42.5896454 92.3395767,42.5896454 			"/>
		</g>
		<g>
			<polygon class="st4" points="94.1764374,42.5896454 94.1764374,43.4332123 93.3872681,43.4332123 93.3600311,42.5896454 			"/>
		</g>
		<g>
			<rect x="83.4412766" y="42.5896454" class="st4" width="6.0410719" height="0.843566"/>
		</g>
		<g>
			<path class="st3" d="M89.5503616,45.147583c-0.0272369,0-0.0543976,0-0.0816345,0.0136185
				c-0.0136185,0.0136185-0.0136185,0.0136185-0.0272369,0.0272408c-0.0543976,0.027153-0.0951691,0.0543938-0.1360245,0.0816307
				c-0.0136185,0.0136185-0.0272446,0.0407753-0.0407791,0.0543938c-0.0272369,0.0408592-0.0408554,0.0680161-0.0680923,0.095253
				c0,0.0272369-0.0136185,0.0680122-0.0136185,0.095253c0,0.0272369-0.0135422,0.0543938-0.0135422,0.0816307v2.7620621h-0.4762573
				l-0.095253-1.0749283c-0.027153-0.2448997-0.2448959-0.4354019-0.503418-0.4354019h-3.279007
				c-0.258522,0-0.476265,0.1905022-0.503418,0.4354019l-0.095253,1.0749283h-0.4762573v-2.7620621
				c0-0.0272369-0.0135422-0.0543938-0.0135422-0.0816307c0-0.0272408-0.0136185-0.0680161-0.0136185-0.095253
				c-0.0272369-0.0272369-0.0408554-0.0543938-0.0680084-0.095253c-0.0136185-0.0136185-0.0272446-0.0407753-0.040863-0.0543938
				c-0.0407715-0.0272369-0.0816269-0.0544777-0.1360245-0.0816307c-0.0136185-0.0136223-0.0136185-0.0136223-0.0272369-0.0272408
				s-0.0408554-0.0136185-0.0680161-0.0136185l0.0271606-0.3537712h6.1227036L89.5503616,45.147583z"/>
		</g>
		<g>
			<path class="st3" d="M98.0268784,69.2302399h-8.7621918l0.1496506-1.2109528h0.1360245
				c0.285759,0,0.503418-0.2040405,0.503418-0.476181v-0.1360245h2.5443115
				c0.136116,0.122406,0.2177429-1.2518158,0.190506-3.102211c-0.0272369-1.877636-0.1360245-3.4967575-0.2448959-3.6464005
				h-2.6804276c-0.0135345-0.0136223-0.027153,0-0.0407791,0.0272369l-0.0408554-0.5170364h2.0409012
				c0.1224899,0.1087875,0.190506-1.0885468,0.163353-2.694046v-0.2040405h2.7755966
				c0.2857513,0,0.5170288-0.2177429,0.5170288-0.4898796v-2.8980026l2.7348251,15.2659035L98.0268784,69.2302399z"/>
		</g>
		<g>
			<path class="st3" d="M83.645401,69.2302399h-8.7487411l-0.0135345,0.0136185l2.7483597-15.442791v2.9796371
				c0,0.2721367,0.2313614,0.4898796,0.5170288,0.4898796h2.7756805v0.2040405
				c-0.0272369,1.6054993,0.0407791,2.8028336,0.163269,2.694046h2.0409012l-0.0408554,0.5170364
				c-0.0136261-0.0272369-0.0272446-0.0408592-0.0407791-0.0272369h-2.6804276
				c-0.1088715,0.1496429-0.217659,1.7687645-0.2448959,3.6464005c-0.0272369,1.8503952,0.05439,3.224617,0.190506,3.102211
				h2.5443115v0.1360245c0,0.2721405,0.217659,0.476181,0.503418,0.476181h0.1360245L83.645401,69.2302399z"/>
		</g>
		<g>
			<g>
				<path class="st5" d="M98.8896255,77.7452927v4.2906876H74.0315018v-4.2906876h10.1364899v3.1088028
					c0,0.264267,0.217659,0.4656372,0.503418,0.4656372h3.5783844c0.2720566,0,0.503418-0.2013702,0.503418-0.4656372v-3.1088028
					H98.8896255z"/>
			</g>
			<g>
				<path class="st5" d="M84.1624374,74.2177887v2.2663956H74.093956l0.7891693-7.2403259l0.0135345-0.0136185h8.7622757
					l0.0408554,0.3810043l0.095253,0.7619324h-6.1227036c-0.285759,0-0.503418,0.2040405-0.503418,0.4625626v2.919487
					c0,0.258522,0.217659,0.4625626,0.503418,0.4625626H84.1624374z"/>
			</g>
			<g>
				<path class="st5" d="M98.8160477,76.4841843H88.7476501v-2.2663956h6.63974c0.285675,0,0.5169525-0.2040405,0.5169525-0.4625626
					v-2.919487c0-0.258522-0.2312775-0.4625626-0.5169525-0.4625626h-6.2724304l0.1497269-1.1429367h8.7621918
					L98.8160477,76.4841843z"/>
			</g>
			<g>
				<path class="st1" d="M84.1679916,72.5156631v0.761528H78.194931v-1.9568253h5.7280807l0.1361084,1.0065994
					C84.0591202,72.4024582,84.1135178,72.4527664,84.1679916,72.5156631z"/>
			</g>
			<g>
				<path class="st1" d="M94.889534,71.3203659v1.9568253h-6.136322v-0.761528
					c0.0543976-0.0628967,0.1087875-0.113205,0.1087875-0.1886978l0.1361084-1.0065994c0,0,0,0,0.0136185,0H94.889534z"/>
			</g>
			<g>
				<polygon class="st6" points="88.467453,67.4951553 87.9096451,71.798439 85.0115585,71.798439 84.4536667,67.4951553 				"/>
			</g>
			<g>
				<polygon class="st6" points="87.8415527,66.551445 85.0795746,66.551445 85.2155991,64.9785995 87.7055206,64.9785995 				"/>
			</g>
			<g>
				<path class="st1" d="M89.038887,63.7203255v2.8311195h-0.1768875l-0.1904221-2.0761108
					c-0.0136185-0.2516708-0.2448959-0.4404373-0.5034103-0.4404373h-3.415123c-0.258522,0-0.4898834,0.1887665-0.503418,0.4404373
					l-0.190506,2.0761108h-0.1496429l-0.0272369-2.8311195H89.038887z"/>
			</g>
			<g>
				<polygon class="st6" points="88.9981079,62.776619 83.9230118,62.776619 85.2972336,47.7905807 87.6238937,47.7905807 				"/>
			</g>
			<g>
				<polygon class="st5" points="84.0998993,49.615097 83.9094772,51.7415123 83.7462082,51.7415123 83.7462082,49.615097 				"/>
			</g>
			<g>
				<polygon class="st5" points="89.1749954,49.615097 89.1749954,51.7415123 89.0117264,51.7415123 88.821228,49.615097 				"/>
			</g>
			<g>
				<path class="st1" d="M94.2636337,51.1123734v5.2092819h-2.2994232c-0.0408554-1.0820999-0.1088715-1.887413-0.1768875-1.975502
					h-1.2109528v-3.2337799H94.2636337z"/>
			</g>
			<g>
				<polygon class="st6" points="94.1819992,50.1686668 90.5492172,50.1686668 90.2226028,46.0667496 93.5289383,46.0667496 				"/>
			</g>
			<g>
				<path class="st1" d="M82.3447495,51.1123734v3.2337799h-1.2109528c-0.0680161,0.088089-0.1360245,0.8934021-0.1768875,1.975502
					h-2.2994156v-5.2092819H82.3447495z"/>
			</g>
			<g>
				<polygon class="st6" points="82.6985245,46.0667496 82.3719864,50.1686668 78.7391281,50.1686668 79.3922729,46.0667496 				"/>
			</g>
		</g>
		<g>
			<g>
				<rect x="89.8862762" y="40.4000664" class="st7" width="4.5853019" height="1.170097"/>
			</g>
			<g>
				<polygon class="st7" points="94.3763275,39.3796158 89.8318787,39.3796158 89.7638702,38.8354225 94.2674561,38.8354225 				"/>
			</g>
			<g>
				<polygon class="st7" points="88.7978134,39.3796158 84.1309586,39.3796158 84.1854324,38.8354225 88.7434158,38.8354225 				"/>
			</g>
			<g>
				<rect x="84.0629425" y="40.4000664" class="st7" width="4.8028789" height="1.170097"/>
			</g>
			<g>
				<rect x="78.4572754" y="40.4000664" class="st7" width="4.5852189" height="1.170097"/>
			</g>
			<g>
				<polygon class="st7" points="83.1649857,38.8354225 83.0968857,39.3796158 78.5525284,39.3796158 78.6613159,38.8354225 				"/>
			</g>
		</g>
		<g>
			<g>
				<rect x="74.9612198" y="79.4003754" class="st8" width="2.2589684" height="1.9736191"/>
			</g>
			<g>
				<rect x="95.7009354" y="79.4003754" class="st8" width="2.2589684" height="1.9736191"/>
			</g>
		</g>
		<g>
			<g>
				<rect x="74.4475021" y="82.7782669" width="5.5343428" height="3.4986885"/>
			</g>
			<g>
				<rect x="92.9282455" y="82.7782669" width="5.5343428" height="3.4986885"/>
			</g>
		</g>
	</g>
	<g>
		<path d="M86.46035,66.8912888c-0.1880112,0-0.3401489-0.1521378-0.3401489-0.3401489V47.7870674
			c0-0.188015,0.1521378-0.3401527,0.3401489-0.3401527s0.3401489,0.1521378,0.3401489,0.3401527v18.7640724
			C86.800499,66.739151,86.6483612,66.8912888,86.46035,66.8912888z"/>
	</g>
	<g>
		<path d="M88.4680328,54.7920341c-0.0186005,0-0.0372009-0.0013275-0.0558014-0.0046501l-1.9279633-0.3149033l-1.9272995,0.2192383
			c-0.19133,0.0172729-0.3554306-0.1136055-0.3766861-0.2996254c-0.0212631-0.1866837,0.1129379-0.3554306,0.2996216-0.3766899
			l1.974472-0.2245522c0.0312195-0.0039864,0.0624466-0.0033226,0.0936737,0.0026588l1.9744644,0.322876
			c0.1853561,0.0298958,0.3109207,0.2052841,0.2803574,0.3906403
			C88.7756348,54.6737785,88.6314697,54.7920341,88.4680328,54.7920341z"/>
	</g>
</g>
</svg>
