<?xml version="1.0" encoding="utf-8"?>
<!-- Generator: Adobe Illustrator 27.6.1, SVG Export Plug-In . SVG Version: 6.00 Build 0)  -->
<svg version="1.1" id="Layer_1" xmlns="http://www.w3.org/2000/svg" xmlns:xlink="http://www.w3.org/1999/xlink" x="0px" y="0px"
	 viewBox="0 0 172.8999939 90" style="enable-background:new 0 0 172.8999939 90;" xml:space="preserve">
<style type="text/css">
	.st0{opacity:0.97;}
	.st1{fill:#8797C6;}
	.st2{fill:#CCCCCC;}
	.st3{fill:#3751A0;}
	.st4{fill:#F79420;}
	.st5{fill:#FFFFFF;}
	.st6{fill:#B3B3B3;}
	.st7{fill:#797979;}
	.st8{fill:#888888;}
	.st9{fill:#BABABA;}
</style>
<g>
	<path class="st0" d="M122.6800461,66.8199234l-0.960022-3.039978l3.3499756-3.3499756l0.0700073,0.0100098l1.1099854-2.4700317
		c0.0700073-0.1699829,0.0800171-0.3699951,0.0200195-0.5499878l-0.2000122-0.6099854
		c-0.0999756-0.3200073-0.4299927-0.4900513-0.75-0.4100342l-2.0899658,0.5400391
		c-0.0499878,0.0199585-0.0900269,0.0499878-0.1400146,0.0699463l-11.2000122,2.7300415l-0.0299683-0.0900269
		c-0.0900269-0.2700195-0.3900146-0.4199829-0.6700439-0.3300171l-0.1300049,0.0500488
		c-0.2799683,0.0899658-0.4299927,0.3899536-0.3299561,0.6699829l0.0100098,0.0299683l-0.5800171,0.1900024l-10.8200073,3.5400391
		l-0.0200195-0.0300293h-6.5499878v6.1000366h-1.2000122v-2.8200073h-1.2099609l-3.25-5.9000244v-1
		c0-0.2099609-0.1700439-0.3800049-0.3699951-0.3800049h-2.8700562c-0.2099609,0-0.3799438,0.1700439-0.3799438,0.3800049v4.6900024
		c0,0.1500244,0.0999756,0.2800293,0.2299805,0.3400269l0.4899902,1.9199829h-1.3900146v-4.2600098
		c0-1.4799805-1.1799927-2.6900024-2.6300049-2.6900024h-8.3599854l-8.2399902,6.3400269l-11.3800049,1.8099976
		c-1.7299805,0.2799683-2.9899902,1.7799683-2.9899902,3.5799561v3.8200073h-0.6400146
		c-1.4500122,0-2.6199951,1.1799927-2.6199951,2.6199951v3.5400391c0,1.4400024,1.1699829,2.6099854,2.6199951,2.6099854h5.4700317
		L54.850029,82.41996h0.4500122c-0.1900024,0.5599976-0.2900391,1.1699829-0.2900391,1.789978
		c0,0.1900024,0.0100098,0.3800049,0.0300293,0.5599976c0.2799683,2.9299927,2.7600098,5.2300415,5.7699585,5.2300415
		c3.0100098,0,5.4900513-2.3000488,5.7700195-5.2300415c0.0200195-0.1799927,0.0300293-0.3699951,0.0300293-0.5599976
		c0-0.6199951-0.1000366-1.2299805-0.2900391-1.789978h0.6500244l0.2399902,0.6400146h35.4000244
		c-0.0800171,0.3699951-0.1199951,0.7599487-0.1199951,1.1499634c0,0.1900024,0.0099487,0.3800049,0.0299683,0.5599976
		c0.2800293,2.9299927,2.7600098,5.2300415,5.7700195,5.2300415c3,0,5.4799805-2.3000488,5.7600098-5.2300415
		c0.0199585-0.1799927,0.0299683-0.3699951,0.0299683-0.5599976c0-0.3900146-0.039978-0.7799683-0.1199951-1.1499634h7.6099854
		v-4.5200195l0.3300171,0.6799927c-0.1300049,0.3599854-0.0200195,0.7600098,0.2999878,0.9799805l0.9899902,0.6799927
		c0.210022,0.1500244,0.5,0.1000366,0.6500244-0.1199951l1.6900024-2.4400024l1.4099731-0.4799805L122.6800461,66.8199234z
		 M121.9600143,60.879921l2.0499878-0.6899414l-0.4299927-1.2700195l1.3099976-0.3599854l-0.4299927,1.7799683l-2.9099731,2.9000244
		l-0.6000366-1.8699951l1.0599976-0.3400269L121.9600143,60.879921z M119.3199997,63.6999283l-3.2999878-0.7199707
		l2.960022-0.960022L119.3199997,63.6999283z M116.6100388,59.3599625l-4.3699951,1.4199829l-0.1100464-0.3300171
		L116.6100388,59.3599625z M99.8799973,64.459938L99.850029,64.41996l10.5599976-3.4500122l0.5700073-0.1900024l0.1300049,0.3800049
		l-0.5599976,0.1799927h-0.0100098l-10.4200439,3.4100342L99.8799973,64.459938z M118.890007,73.2899551l-7.6400146-1.9199829
		h-1.7099609l1.789978-0.3600464c0.5499878,0.4200439,1.2299805,0.6700439,1.9700317,0.6700439
		c1.0499878,0,1.9899902-0.5,2.5799561-1.2700195c0.0900269-0.1099854,0.1600342-0.2299805,0.2399902-0.3499756l1.210022-0.2400513
		l1.710022,3.5200195C118.9900436,73.3199234,118.9399948,73.2999649,118.890007,73.2899551z M118.1299973,64.7699356h-0.0100098
		l-0.0099487-0.0499878l-3.4299927,0.6799927c-0.210022-0.0999756-0.4300537-0.1799927-0.6600342-0.2299805
		c-0.2299805-0.0599976-0.4699707-0.0900269-0.7199707-0.0900269c-0.6700439,0-1.2900391,0.2000122-1.8000488,0.5499878
		c-0.2299805,0.1500244-0.4400024,0.3200073-0.6199951,0.5200195l-2.2855835,0.4571533l0.0645752,0.0202637l-0.0645752-0.0202637
		l-1.0144196,0.2029266l-0.6499481-0.1700897c-0.1300049-0.0299683-0.25-0.0599976-0.3900146-0.0700073h-0.0200195
		c-0.0800171-0.0099487-0.1599731-0.0099487-0.2399902-0.0099487c-0.4899902,0-0.960022,0.1099854-1.3800049,0.3099976
		c-0.3400269,0.1499634-0.6300049,0.3800049-0.8900146,0.6399536l-1.4400024,0.2800293l-0.2799683-0.3499756l5.6900024-1.8500366
		l2.6499634-0.8599854l1-0.3300171l3.4500122-1.1199951l4.3500366,0.9500122l0.5699463,2.8399658l2.5200195,6.6900024
		L118.1299973,64.7699356z"/>
	<path class="st1" d="M112.9259567,62.8101578l0.1199951,0.3400269l0.5800171-0.1800537L112.9259567,62.8101578z
		 M112.9259567,62.8101578l0.1199951,0.3400269l0.5800171-0.1800537L112.9259567,62.8101578z M112.9259567,62.8101578
		l0.1199951,0.3400269l0.5800171-0.1800537L112.9259567,62.8101578z"/>
	<path class="st2" d="M80.8159714,66.4001846v14.6599731H67.1759567l-0.9699707-2.0999756
		c-0.4700317-1.0400391-1.5200195-1.710022-2.6600342-1.710022h-5.6099854c-1.1699829,0-2.2399902,0.710022-2.7000122,1.789978
		h-4.0200195v-3.5999756c0-0.789978,0.5599976-1.4799805,1.3000488-1.5999756l11.8899536-1.9000244l8.1000366-6.2299805h7.6799927
		C80.5359421,65.7101822,80.8159714,66.0201797,80.8159714,66.4001846z"/>
	<rect x="82.8159714" y="73.7501602" class="st2" width="6.75" height="7.3099976"/>
	<path class="st2" d="M119.5659714,78.6601334v2.4000244h-4.9799805l-0.4700317-1.2600098
		c-0.5-1.3099976-1.7700195-2.1900024-3.1799927-2.1900024h-5.1500244c-1.3200073,0-2.5199585,0.7700195-3.0799561,1.9700317
		l-0.6900024,1.4799805H91.5659714v-4.9299927h12.5899658c0.0100098,0.0100098,7.25-0.039978,7.25-0.039978l2.0300293,0.5599976
		l5.6599731,1.4199829c0.1600342,0.039978,0.2900391,0.1300049,0.3699951,0.2600098
		c0.0300293,0.039978,0.0500488,0.0799561,0.0700073,0.1300049
		C119.5559616,78.5201797,119.5659714,78.5901871,119.5659714,78.6601334z"/>
	<path class="st3" d="M115.7110062,81.0629196h-1.1300049l-0.4699707-1.2600098
		c-0.5-1.3099976-1.7700195-2.1900024-3.1800537-2.1900024h-5.1499634c-1.3200073,0-2.5200195,0.7700195-3.0800171,1.9700317
		l-0.6900024,1.4799805h-1.0999756l0.8900146-1.9100342c0.7199707-1.539978,2.289978-2.539978,3.9799805-2.539978h5.1599731
		c1.8099976,0,3.460022,1.1400146,4.1100464,2.8400269L115.7110062,81.0629196z"/>
	<path class="st1" d="M123.0759811,77.4501724l-0.710022,1.0199585l-0.5499878-1.1199951l-0.0599976-0.1300049l-4.0100098-8.2399902
		l-1.2800293,0.25c0.0599976-0.2299805,0.1000366-0.4599609,0.1100464-0.7099609
		c0.0100098-0.0500488,0.0100098-0.0900269,0.0100098-0.1400146c0-0.210022-0.0200195-0.4199829-0.0600586-0.6199951
		c-0.0799561-0.4299927-0.25-0.8200073-0.4799805-1.1699829l1.6900024-0.3400269l4.9400024,10.3699951L123.0759811,77.4501724z"/>
	<polygon class="st1" points="121.9659576,67.0318985 120.8759918,67.301918 120.7159576,66.8719254 119.7359772,62.01194 
		120.3059845,61.8219376 	"/>
	<polygon class="st1" points="125.325943,75.7718887 124.5959625,75.26194 124.1259918,75.9319229 121.9759674,70.2219009 
		121.6759796,69.4319229 122.785965,69.1619034 123.0259552,69.7818985 	"/>
	<polygon class="st1" points="121.0659714,60.550148 120.0059738,60.8901749 114.5659714,62.6601334 112.7459641,62.26017 
		112.6559372,62.01017 120.6859665,59.4001846 120.8259811,59.8201675 	"/>
	<polygon class="st1" points="111.4659348,62.4001846 111.8296967,63.5538559 99.5759811,67.5401382 99.455986,67.3901749 
		99.3159714,67.2201309 96.8259811,67.2201309 96.8259811,67.1701431 110.9759445,62.5601578 	"/>
	<polygon class="st3" points="89.9359665,72.0801773 86.2359543,72.0801773 84.5559616,65.4601822 86.2959518,65.4601822 	"/>
	<polygon class="st1" points="101.2459641,72.7701797 94.7659836,72.7701797 94.7659836,69.2201309 98.3659592,69.2201309 	"/>
	<path class="st4" d="M86.3600235,63.5299683v0.9299927h-2.1199951v-0.9299927H86.3600235z M84.2400284,60.5199585v2.2600098
		h2.1199951v-2.2600098H84.2400284z"/>
	<path class="st5" d="M52.5199966,70.2799683l11.8900146-1.9000244v3.5600586l-11.8900146,1.8999634
		c-0.7399902,0.1199951-1.2999878,0.8099976-1.2999878,1.6000366v-3.5600586
		C51.2200089,71.0899658,51.7800064,70.3999634,52.5199966,70.2799683z M80.1899796,62.1499634h-7.6799927v3.5599976h7.6799927
		c0.3500366,0,0.6300049,0.3099976,0.6300049,0.6900024v-3.5599976
		C80.8199844,62.4599609,80.5400162,62.1499634,80.1899796,62.1499634z"/>
	<polygon class="st6" points="72.5099869,62.1499634 72.5099869,65.7099609 64.4100113,71.9400024 64.4100113,68.3799438 	"/>
	<polygon class="st7" points="67.6005478,73.3382339 72.8787003,68.377861 79.2049484,68.377861 79.2049484,73.3382339 	"/>
	<path class="st8" d="M55.0400162,84.7699585h-7.0900269c-1.0999756,0-1.9899902,1.0900269-1.9899902,2.4400024v0.3400269
		C45.9599991,88.8999634,46.8500137,90,47.9499893,90h12.8599854C57.8000259,90,55.3199844,87.6999512,55.0400162,84.7699585z
		 M108.2900162,90H60.8099747c3.0100098,0,5.4900513-2.3000488,5.7700195-5.2300415h35.9400024
		C102.8000259,87.6999512,105.2800064,90,108.2900162,90z M126.9399796,87.2299805
		c0,0.789978-0.5199585,1.4400024-1.1699829,1.4400024h-4.2299805V90h-13.25c3,0,5.4799805-2.3000488,5.7600098-5.2300415h7.4899902
		v1.0100098h4.2299805C126.4200211,85.7799683,126.9399796,86.4299927,126.9399796,87.2299805z M107.5799942,69.8599854
		c0,0.539978-0.3300171,1-0.789978,1.2000122c-0.0200195,0-0.0300293,0.0099487-0.0400391,0.0099487
		c-0.1300049,0.0500488-0.2599487,0.0800171-0.4099731,0.0800171c-0.0200195,0.0100098-0.039978,0.0100098-0.0599976,0.0100098
		c-0.0100098,0-0.0100098,0-0.0200195,0c-0.7099609-0.0100098-1.2799683-0.5900269-1.2799683-1.2999878
		c0-0.7200317,0.5799561-1.2999878,1.2999878-1.2999878C106.9999771,68.5599976,107.5799942,69.1399536,107.5799942,69.8599854z
		 M114.590004,68.3799438c0,0.7200317-0.5800171,1.3000488-1.289978,1.3000488
		c-0.6500244,0-1.1900024-0.4700317-1.2800293-1.1000366c-0.0100098-0.0599976-0.0200195-0.1300049-0.0200195-0.2000122
		c0-0.3599854,0.1500244-0.6899414,0.3800049-0.9199829c0.2300415-0.2299805,0.5599976-0.3800049,0.9200439-0.3800049
		c0.5799561,0,1.0799561,0.3900146,1.2299805,0.9299927c0.0200195,0.0300293,0.0299683,0.0700073,0.0299683,0.1100464
		C114.5799942,68.1999512,114.590004,68.289978,114.590004,68.3799438z M111.0799942,84.2099609
		c0,1.5400391-1.25,2.7900391-2.789978,2.7900391c-1.5499878,0-2.7999878-1.25-2.7999878-2.7900391
		c0-1.5499878,1.25-2.7999878,2.7999878-2.7999878C109.8299942,81.4099731,111.0799942,82.6599731,111.0799942,84.2099609z
		 M63.6100235,84.2099609C63.6100235,85.75,62.3500137,87,60.8099747,87c-1.539978,0-2.7999878-1.25-2.7999878-2.7900391
		c0-1.5499878,1.2600098-2.7999878,2.7999878-2.7999878C62.3500137,81.4099731,63.6100235,82.6599731,63.6100235,84.2099609z"/>
	<path class="st9" d="M49.2200089,77.6999512v1.3400269h-0.6400146c-0.210022,0-0.4199829,0.0299683-0.6199951,0.0800171v-0.8000488
		c0-0.3399658,0.2800293-0.6199951,0.6199951-0.6199951H49.2200089z M48.5799942,81.039978
		c-0.3399658,0-0.6199951,0.2799683-0.6199951,0.6199951v0.2000122c0,0.3399658,0.2800293,0.6099854,0.6199951,0.6099854h4.1000366
		l0.2699585-0.6900024l0.1500244-0.7399902H48.5799942z M61.6863174,81.7549744
		c-0.593647,0-1.0793686,0.4818649-1.0793686,1.0793686c0,0.5936737,0.4857216,1.0755386,1.0793686,1.0755386
		c0.5936737,0,1.0793953-0.4818649,1.0793953-1.0755386C62.7657127,82.2368393,62.2799911,81.7549744,61.6863174,81.7549744z
		 M108.9800034,81.7549744c-0.5936432,0-1.0793686,0.4818649-1.0793686,1.0793686
		c0,0.5936737,0.4857254,1.0755386,1.0793686,1.0755386c0.5936737,0,1.0793991-0.4818649,1.0793991-1.0755386
		C110.0594025,82.2368393,109.5736771,81.7549744,108.9800034,81.7549744z"/>
	<polygon class="st3" points="89.5699844,68.5899658 89.5699844,69.8499756 88.879982,68.5899658 	"/>
	<polygon class="st3" points="84.7099991,69.0999756 82.8199844,69.0999756 82.8199844,71.75 85.379982,71.75 	"/>
	<polygon class="st3" points="86.9000015,62.3099976 86.9000015,64.9899902 88.4700089,67.8399658 89.9399796,67.8399658 	"/>
	<path class="st3" d="M104.9399796,74.1499634h0.5700073c0,0,0,0,0.0100098,0l3.039978,0.0100098h3.1400146l7.7200317,1.9299927
		c-0.0400391-0.1099854-0.0900269-0.210022-0.1700439-0.3200073l-0.1099854-0.1099854
		c-0.1799927-0.2000122-0.4099731-0.3400269-0.6900024-0.4199829l-0.0599976-0.0100098l-7.5100098-1.8900146l-6.5999756-0.0100098
		L104.9399796,74.1499634z"/>
	<polygon class="st1" points="123.0599747,59.7199707 122.8199844,59.0099487 121.6000137,59.4199829 121.840004,60.1299438 	"/>
	<path class="st1" d="M108.9800186,67.9799805c0.3699951,0.539978,0.5999756,1.1799927,0.5999756,1.8800049
		c0,0.2099609-0.0200195,0.4099731-0.0599976,0.5999756c0,0.0200195,0,0.0300293-0.0100098,0.0400391
		c0,0.0299683,0,0.0499878-0.0100098,0.0699463c0,0.0200195-0.0099487,0.0300293-0.0099487,0.0400391l1.1999512-0.2300415
		c-0.2999878-0.3999634-0.5199585-0.8499756-0.6199951-1.3599854c-0.0100098-0.0199585-0.0199585-0.0499878-0.0199585-0.0799561
		c-0.0200195-0.1100464-0.0300293-0.2200317-0.0400391-0.3300171c-0.0100098-0.0800171-0.0100098-0.1500244-0.0100098-0.2300415
		c0-0.2099609,0.0400391-0.4099731,0.0800171-0.6099854L108.9800186,67.9799805z"/>
	<path class="st1" d="M101.1899796,69.5199585l0.5100098,0.6400146l0.210022,0.25l1.1900024,1.4699707l0.5199585-0.1099854
		c-0.0199585-0.039978-0.0599976-0.0700073-0.0899658-0.1099854h-0.0100098
		c-0.3399658-0.5100098-0.539978-1.1300049-0.539978-1.7999878c0-0.2399902,0.0299683-0.4800415,0.0899658-0.710022
		L101.1899796,69.5199585z"/>
	<polygon class="st1" points="96.1899796,66.0299683 96.9800186,65.7699585 94.7699966,65.7699585 94.7699966,67.2199707 
		96.0699844,67.2199707 	"/>
	<rect x="91.5699844" y="71.8699951" class="st3" width="1.2000122" height="2.2599487"/>
	<g>
		<path d="M122.9859772,67.051918c-0.0100098-0.0700073-0.0499878-0.1199951-0.1099854-0.1599731
			c-0.0599976-0.0300293-0.1199951-0.0400391-0.1900024-0.0300293l-0.7200317,0.1699829l-1.0899658,0.2700195l-0.6000366,0.1400146
			c-0.0700073,0.0199585-0.1199951,0.0599976-0.1599731,0.1199951c-0.0300293,0.0499878-0.0400391,0.1199951-0.0300293,0.1900024
			l0.4200439,1.7099609c0.0199585,0.1100464,0.1299438,0.1900024,0.2399902,0.1900024c0.0199585,0,0.039978,0,0.0599976-0.0099487
			l0.8699951-0.210022l1.1099854-0.2700195l0.4299927-0.0999756c0.1400146-0.0300293,0.2200317-0.1600342,0.1900024-0.2999878
			L122.9859772,67.051918z M122.6059723,68.7019424l-1.0999756,0.2599487l-0.5800171,0.1400146l-0.2900391-1.2299805
			l0.4200439-0.1000366l1.0899658-0.2599487l0.4200439-0.1000366l0.289978,1.2300415L122.6059723,68.7019424z"/>
		<polygon class="st1" points="122.8559723,68.6419449 122.6059723,68.7019424 121.5059967,68.9618912 120.9259796,69.1019058 
			120.6359406,67.8719254 121.0559845,67.7718887 122.1459503,67.51194 122.5659943,67.4119034 		"/>
	</g>
</g>
</svg>
