<?xml version="1.0" encoding="utf-8"?>
<!-- Generator: Adobe Illustrator 27.6.1, SVG Export Plug-In . SVG Version: 6.00 Build 0)  -->
<svg version="1.1" id="Layer_1" xmlns="http://www.w3.org/2000/svg" xmlns:xlink="http://www.w3.org/1999/xlink" x="0px" y="0px"
	 viewBox="0 0 172.8999939 90" style="enable-background:new 0 0 172.8999939 90;" xml:space="preserve">
<style type="text/css">
	.st0{opacity:0.97;fill:#888888;}
	.st1{fill:#8797C6;}
	.st2{fill:#888888;}
	.st3{fill:#3751A0;}
	.st4{fill:#CCCCCC;}
	.st5{fill:#FFFFFF;}
	.st6{fill:#003366;}
	.st7{fill:#F79420;}
	.st8{fill:#BABABA;}
	.st9{fill:#797979;}
	.st10{fill:#B3B3B3;}
	.st11{fill:none;}
	.st12{fill:#999999;}
	.st13{fill:#1A1A1A;}
	.st14{fill:#FF0000;}
	.st15{fill:#BF0000;}
	.st16{fill:#4D4D4D;}
	.st17{fill:#333333;}
	.st18{fill:#FFFF00;}
</style>
<g>
	<path class="st0" d="M141.087265,34.5159836l-6.8498535-8.0131817L97.4403839,45.8121376l-0.4847794,3.1028862l4.2383652,2.9799881
		l-9.027832,5.2189331c0.3218384,0.468071,0.6422272,0.9369774,0.9925613,1.3880615l9.7327805-5.6264648l0.5206985,0.3007812
		c4.0069656,0.9924622,8.4836273,0.8680191,12.2582169-0.9045525c1.4195175-0.6666145,2.7581024-1.4861221,4.116806-2.2710876
		c1.877655-1.0847855,3.7553177-2.1695709,5.6329727-3.2543564c2.3409271-1.3524246,4.6818466-2.7048531,7.0227737-4.0572815
		c1.9541626-1.1289825,3.9083252-2.2579651,5.8624878-3.3869476c0.7256012-0.4192123,1.4512177-0.8384247,2.1768341-1.2576294
		C141.7428436,37.3161964,142.0332336,35.6225929,141.087265,34.5159836z"/>
	<g>
		<path d="M105.4236832,47.0555496v1.8699951c0,0.1400146-0.0899658,0.2799683-0.2199707,0.3399658l-6.1600342,2.7000122
			L98.51371,52.205513c-0.0500488,0.0200195-0.1000366,0.0300293-0.1500244,0.0300293
			c-0.1500244,0-0.2799683-0.0900269-0.3499756-0.2300415c-0.0800171-0.1899414,0.0099487-0.4099731,0.1999512-0.4899902
			l1.2800293-0.5599976l5.1799927-2.2799683v-1.0400391l-4.7600098,2.0900269l-0.6400146,0.2799683
			c-0.1899414,0.0800171-0.4099731,0-0.4899902-0.1899414c-0.0899658-0.1900024,0-0.4100342,0.1900024-0.5l0.1400146-0.0600586
			l5.039978-2.2099609h0.0100098l0.7399902-0.3300171c0.0800171-0.039978,0.1700439-0.039978,0.25-0.0200195l0.0599976,0.0300293
			C105.3436661,46.7855301,105.4236832,46.915535,105.4236832,47.0555496z"/>
	</g>
	<g>
		<path d="M105.4236832,47.0555496c0,0.0599976-0.0100098,0.1099854-0.039978,0.1699829
			c-0.0800171,0.1799927-0.3099976,0.2600098-0.5,0.1699829l-0.7200317-0.3499756h-0.0100098l-0.2199707-0.1099854
			l-5.0599976,2.2199707l-0.6600342,0.289978c-0.0499878,0.0200195-0.0999756,0.0300293-0.1499634,0.0300293
			c-0.1500244,0-0.2800293-0.0800171-0.3500366-0.2200317c-0.0799561-0.1899414,0.0100098-0.4099731,0.2000122-0.4899902
			l0.0400391-0.0199585l5.8399658-2.5700073c0.1000366-0.0400391,0.210022-0.0400391,0.3099976,0.0100098l1.0499878,0.5099487
			l0.0599976,0.0300293C105.3436661,46.7855301,105.4236832,46.915535,105.4236832,47.0555496z"/>
	</g>
	<g>
		<polygon class="st1" points="104.6736832,47.6355057 104.6736832,48.6755447 99.4936905,50.955513 99.9136734,49.7255325 		"/>
		<polygon class="st1" points="104.1536636,47.0455399 99.1136856,49.2555008 98.8736954,49.1555252 103.9336929,46.9355545 		"/>
		<path d="M99.9437027,49.6255569l-0.0300293,0.0999756l-0.4199829,1.2299805l-0.3099976,0.9200439l-0.1400146,0.0899658
			l-0.7000122,0.5l-0.8099976-0.210022v3.3000488c0,0.2099609-0.0700073,0.3999634-0.1900024,0.5700073
			c-0.0700073,0.1199951-0.1799927,0.2199707-0.3099976,0.289978l-2.6099854,1.5100098l-1.0299683,0.5999756
			c-0.1100464,0.0599976-0.2400513,0.1000366-0.3700562,0.1099854c0.2800293,0.4800415,0.4500122,1.0800171,0.4500122,1.8300171
			c0.0100098,2.6000366-1.8099976,5.75-4.0700073,7.0499878c-1.1099854,0.6400146-2.1099854,0.710022-2.8499756,0.3200073
			c0,0,0,0,0,0.0100098c-0.0200195-0.0100098-0.0300293-0.0200195-0.039978-0.0200195
			c-0.0100098-0.0099487-0.0200195-0.0099487-0.0200195-0.0199585c-0.7000122-0.4000244-1.4099731-0.8099976-2.1099854-1.210022
			c-0.4200439-0.2399902-0.8800049-0.4400024-1.1600342-0.8599854c-0.2199707-0.3300171-0.3299561-0.7399902-0.3499756-1.1400146
			l-4.9000244,2.8300171c-0.0100098,0-0.0100098,0-0.0100098,0.0100098l-6.7599487,3.8999634
			c-0.0300293,0.0200195-0.0700073,0.0599976-0.1100464,0.0800171l-6.7399902,3.9000244
			c-0.2600098,0.1399536-0.5599937,0.1699829-0.8300133,0.0699463c-0.1699829-0.0499878-0.2999878-0.1599731-0.4099731-0.289978
			l-0.8200073-0.4699707l-0.539978,0.3099976l0.4899902,0.2799683c0.710022,0.4400024,1.1400146,1.3300171,1.1500244,2.6000366
			c0.0099487,2.5999756-1.8099976,5.75-4.0700073,7.0499878c-1.0599976,0.6199951-2.0300293,0.7099609-2.7600098,0.3800049
			c-0.0700073-0.0400391-0.1300049-0.0700073-0.2000122-0.1100464l-3.2600098-1.8800049v1.4300537
			c0.0100098,0.0599976,0.0200195,0.1199951,0.0200195,0.1699829c0,0.2700195-0.1099854,0.5200195-0.3099976,0.7199707
			c-0.0599976,0.0500488-0.1099854,0.1100464-0.1799927,0.1600342l-3.7399902,2.1499634
			c-0.7400513,0.4300537-1.5800171,0.6400146-2.4100342,0.6400146s-1.6699829-0.2099609-2.4099731-0.6400146l-12.6300068-7.289978
			l-0.2700195-0.1599731c-0.539978-0.3099976-0.9099731-0.8000488-1.0700073-1.3699951c0-0.0100098,0-0.0200195-0.0100098-0.0300293
			v-0.0100098c-0.039978-0.1099854-0.0700073-0.2299805-0.0700073-0.3599854v-2.9000244
			c0-0.0299683,0.0100098-0.0599976,0.0100098-0.0899658c-0.0100098-0.1199951-0.039978-0.2300415-0.039978-0.3500366
			c0-0.8299561,0.4299927-1.5700073,1.1500244-1.9899902l1.7299824-0.9899902V70.665535
			c0-0.539978,0.0999756-1.0599976,0.3099976-1.5599976c0.2700195-0.7200317,0.7700195-1.3699951,1.4299927-1.8400269
			l8.4199829-6.1300049l4.8400269-9.9499512c0.0800171-0.1800537,0.2199707-0.3300171,0.3999634-0.4300537l7.9900513-4.5999756
			c0.7799683-0.4699707,1.7599487-0.460022,2.5599976,0.0100098l0.0700073,0.039978
			c0-0.0199585-0.0100098-0.0299683-0.0100098-0.0499878v-1.6199951c0-0.0599976,0.0199585-0.1199951,0.0499878-0.1699829
			c0-0.0200195,0.0100098-0.0300293,0.0200195-0.0400391c0.0299683-0.0299683,0.0499878-0.0599976,0.0899658-0.0899658
			l0.0300293-0.0300293l2.0599976-1.1900024c0.1199951-0.0700073,0.2600098-0.0700073,0.3800049,0l4.1199913,2.3800049
			c0.0100098,0,0.0100098,0,0.0100098,0l0.7799683,0.4500122c0.0599976-0.0700073,0.1400146-0.1400146,0.2299805-0.2000122
			l3.460022-2c0.3099976-0.1699829,0.6900024-0.1699829,1,0l2.8200073,1.6199951
			c0.0200195,0.0200195,0.039978,0.0400391,0.0599976,0.0500488c0.0299683,0.0199585,0.0499878,0.039978,0.0700073,0.0599976
			c0.1900024,0.1499634,0.3099976,0.3599854,0.3499756,0.5899658c0,0.0300293,0.0100098,0.0599976,0.0100098,0.0900269
			c0,0.0299683,0.0100098,0.0499878,0.0100098,0.0799561c0,0.0900269-0.0100098,0.1700439-0.0300293,0.25l6.4900513-5.9799805
			c-0.1800537-0.1799927-0.2700195-0.4400024-0.2000122-0.7000122c0.0899658-0.4099731,0.5-0.6499634,0.8999634-0.5499878
			l0.5300293,0.1199951l5.8599854-5.3900146c0.1199951-0.1099854,0.2999878-0.1300049,0.4400024-0.0499878l0.4000244,0.2300415
			c0.0100098-0.0100098,0-0.0300293,0.0199585-0.0400391l0.6600342-0.5899658
			c-0.0499878-0.0599976-0.0800171-0.1199951-0.0900269-0.1900024c-0.0100098-0.1199951,0.0400391-0.2400513,0.1300049-0.3200073
			l2.2399902-2.0100117c0.3000488-0.2700195,0.7399902-0.3099976,1.0900269-0.1099854l1.0299683,0.5999756
			c0.2200317,0.1300049,0.3500366,0.3300171,0.4100342,0.5700073c0.0200195,0.0299702,0.0299683,0.0700092,0.039978,0.119997
			c0,0,0.0100098,0.0100098,0.0100098,0.0200195v2.1900024c0,0.0899658-0.0299683,0.1799927-0.0900269,0.2399902
			L93.01371,36.0355301c-0.2600098,0.3099976-0.6300049,0.4699707-1,0.4699707h-0.0100098
			c-0.25-0.039978-0.5800171-0.1999512-0.5800171-0.1999512l-0.1699829,0.1399536l-0.2399902,0.210022
			c0.0499878,0.1400146,0.0099487,0.2999878-0.1000366,0.4000244l-2.3800049,2.1999512l-4.1699829,3.8300171l-1.4699707,1.3599854
			l0.8799438-0.5099487c0.2900391-0.1700439,0.6500244-0.1700439,0.9400024-0.0100098l0.8700562,0.5
			c0.1599731-0.0599976,0.3199463-0.0900269,0.4599609-0.0900269c0.210022,0,0.4000244,0.0599976,0.5599976,0.1600342
			l0.9100342,0.5199585l0.5499878-0.2699585c0.0899658-0.0500488,0.2000122-0.0599976,0.2999878-0.0200195l3.6799927,1.4000244
			c0,0.0099487,0,0.0099487,0.0100098,0.0099487c0,0,0,0,0.0100098,0l5.8900146,2.6100464l0.9199829,0.4099731l0.2399902,0.0999756
			L99.9437027,49.6255569z"/>
		<path class="st2" d="M87.4867859,63.3224945c-0.0100098,0.0100098-0.0100098,0.0100098-0.0100098,0.0200195
			c0-0.0100098,0-0.0100098,0-0.0200195c0.0100098-0.0200195,0.0100098-0.0299683,0.0100098-0.0499878
			c0-0.0100098,0.0100098-0.0200195,0.0100098-0.0300293C87.4967957,63.2725067,87.4967957,63.2925262,87.4867859,63.3224945z"/>
		<path class="st2" d="M87.5867615,62.9225311c-0.0100098,0.0099487-0.0199585,0.0299683-0.0199585,0.039978
			c0-0.0100098,0-0.0300293,0.0099487-0.039978c0.0200195-0.0599976,0.0400391-0.1200562,0.0700073-0.1800537
			C87.6268005,62.802475,87.606781,62.8625336,87.5867615,62.9225311z"/>
		<path class="st2" d="M98.9967957,57.4725189l-4.1500244,2.3900146l2.960022,1.7099609
			c0.4400024,0.2600098,0.4400024,0.8800049,0,1.1400146l-8.3800049,4.8399658L59.3567848,84.9025116v0.0100098
			l-7.1500244,4.1199951c-2.2299805,1.289978-4.9899902,1.289978-7.2199707,0L32.1067848,81.592514
			c-0.4000244-0.2200317-0.6199951-0.6000366-0.6600342-1l12.6300049,7.289978
			c0.7400513,0.4299927,1.5800171,0.6400146,2.4100342,0.6400146s1.6699829-0.210022,2.4099731-0.6400146l3.7399902-2.1499634
			c0.0700073-0.0500488,0.1200562-0.1100464,0.1800537-0.1600342c0.1999512-0.2000122,0.3099976-0.4500122,0.3099976-0.7199707
			c0-0.0500488-0.0100098-0.1100464-0.0200195-0.1700439v-1.4299927l3.2600098,1.8800049
			c0.0700073,0.0400391,0.1300049,0.0700073,0.2000122,0.1099854c0.7299805,0.3300171,1.6999512,0.2400513,2.7599487-0.3799438
			c2.2600098-1.3000488,4.0800171-4.4500122,4.0700073-7.0500488c-0.0100098-1.2699585-0.4400024-2.1599731-1.1499634-2.5999756
			l-0.4899902-0.2800293l0.539978-0.3099976l0.8200073,0.4700317c0.1099854,0.1300049,0.2399902,0.2399902,0.4099731,0.289978
			c0.2700195,0.1000366,0.5700035,0.0700073,0.8300133-0.0700073l6.7399902-3.8999634
			c0.039978-0.0200195,0.0800171-0.0599976,0.1099854-0.0800171l6.7600098-3.9000244c0-0.0099487,0-0.0099487,0.0100098-0.0099487
			l4.9000244-2.8300171c0.0199585,0.3999634,0.1300049,0.8099976,0.3499756,1.1400146
			c0.2800293,0.4199829,0.7399902,0.6199951,1.1599731,0.8599854c0.7000122,0.3999634,1.4100342,0.8099976,2.1100464,1.2099609
			c0,0.0100098,0.0100098,0.0100098,0.0199585,0.0200195c0.0100098,0,0.0200195,0.0100098,0.0400391,0.0200195
			c0-0.0100098,0-0.0100098,0-0.0100098c0.7399902,0.3900146,1.7399902,0.3200073,2.8499756-0.3200073
			c2.2600098-1.2999878,4.0800171-4.4500122,4.0700073-7.0499878c0-0.75-0.1699829-1.3499756-0.4500122-1.8300171
			c0.1300049-0.0100098,0.2600098-0.0499878,0.3699951-0.1099854l1.0300293-0.5999756l2.6099854-1.5100098
			c0.1300049-0.0700073,0.2399902-0.1700439,0.3099976-0.2900391c0.0700073-0.0199585,0.1500244-0.0099487,0.210022,0.0300293
			l1.4400024,0.8300171C99.1867981,57.092514,99.1867981,57.3625336,98.9967957,57.4725189z"/>
		<path class="st3" d="M93.4158783,56.1931496l-0.6500244,0.3800049c-0.1499634-0.1999512-0.2699585-0.2799683-0.4599609-0.3899536
			c-0.2800293-0.1600342-0.5700073-0.2400513-0.8699951-0.2400513c-0.2900391,0-0.5800171,0.0800171-0.8500366,0.2400513
			l-3.8200073,2.1999512c-1.0799561,0.6300049-1.8699951,1.7000122-2.1599731,2.9100342l-0.8500366,0.4799805
			c0.1900024-1.6799927,1.1600342-3.1799927,2.6300049-4.039978l3.8200073-2.2000122
			c0.7700195-0.4500122,1.6900024-0.4500122,2.460022,0C92.9658661,55.7031593,93.2158661,55.9332008,93.4158783,56.1931496z"/>
		<path class="st4" d="M95.5258636,53.2331886v1.7399902l-2.1099854,1.2199707
			c-0.2000122-0.2599487-0.4500122-0.4899902-0.75-0.6599731c-0.7700195-0.4500122-1.6900024-0.4500122-2.460022,0
			l-3.8200073,2.2000122c-1.4699707,0.8599854-2.4400024,2.3599854-2.6300049,4.039978l-5.289978,3.0499916V61.843174
			l11.8499756-6.8399658L95.5258636,53.2331886z"/>
		<path class="st4" d="M95.5258636,53.2331886v1.7399902l-2.1099854,1.2199707
			c-0.2000122-0.2599487-0.4500122-0.4899902-0.75-0.6599731c-0.7700195-0.4500122-1.6900024-0.4500122-2.460022,0
			l-3.8200073,2.2000122c-1.4699707,0.8599854-2.4400024,2.3599854-2.6300049,4.039978l-5.289978,3.0499916V61.843174
			l11.8499756-6.8399658L95.5258636,53.2331886z"/>
		<path class="st4" d="M76.470665,60.5320969v0.7199707c0,0.0100098-0.0099487,0.0100098-0.0099487,0.0200195v4.710022
			l-4.8699951,2.8099976v-5.4500122L76.470665,60.5320969z"/>
		<path class="st4" d="M61.8307076,59.4821091l-0.4899902,1l-0.8100586,1.6699829l-3.6399536,7.5l-8.6400146,6.289978
			c-0.4199829,0.3099976-0.75,0.7000122-0.9700317,1.1600342c-0.2299805,0.4299927-0.3499756,0.9199829-0.3499756,1.4199829
			v2.5200195l0.0100098,0.0100098l4.5999756-2.6500244c0.460022-1.4799805,1.3900146-2.2800293,2.6400146-3l5.6900024-3.289978
			c0.8499756-0.4900513,1.8699951-0.5900269,2.789978-0.2600098c0.6500244,0.2299805,1.210022,0.6499634,1.6000404,1.1900024
			l5.3300171-3.0700073V54.69207L61.8307076,59.4821091z M68.1006699,63.9821091l-8.2299843,4.75l3.5700073-8.0300293
			l4.659977-2.6799927V63.9821091z"/>
		<path class="st5" d="M57.8106918,47.8920746c-0.1799927-0.1099854-0.3800049-0.1099854-0.539978-0.0200195l-7.7400513,4.460022
			l-0.5099487,1.0499878l-4.3000488,8.8500366c-0.0699463,0.1499634-0.1799927,0.2699585-0.3099976,0.3699951l-8.6300049,6.2799683
			c-0.3399658,0.2399902-0.5999756,0.5800171-0.7399902,0.960022c-0.0199585,0.0499878-0.0499878,0.1099854-0.0599976,0.1599731
			l12.2999878,7.1000366c0.2200317-0.460022,0.5500488-0.8500366,0.9700317-1.1600342l8.6400146-6.289978l3.6399536-7.5
			l0.8100586-1.6699829l0.4899902-1l7.7600098-4.7900391v-0.039978L57.8106918,47.8920746z M56.5207138,69.1220551
			l-11.460022-6.6099854l4.3400269-8.9400024l11.4400024,6.6700439L56.5207138,69.1220551z"/>
		<polygon class="st1" points="90.9944687,46.5302582 90.7844467,46.6402435 89.8044662,46.0702362 		"/>
		<path class="st3" d="M94.1944809,51.5702362l-4.6099854,1.5700073c-0.0600586,0.0200195-0.1200562,0.0499878-0.1700439,0.0800171
			l-10.9400024,6.3200073v-0.4800415l3.4400024-2c0.3800049-0.2099609,0.5700073-0.6499634,0.4800415-1.0799561
			l-0.3500366-1.5800171c0.0300293-0.0100098,0.0599976,0,0.0800171-0.0200195l0.1599731-0.0799561l0.75,0.4299927
			l0.210022,0.1199951c0.3699951,0.1699829,0.8599854,0.1199951,1.3900146-0.1900024
			c0.8699951-0.5,1.6099854-1.5200195,1.9199829-2.5599976l1.039978-0.5400391l0.5300293,0.3100586l0.210022,0.1199951
			c0.3699951,0.1699829,0.8599854,0.1199951,1.3899536-0.1900024c0.6799927-0.3800049,1.2600098-1.0900269,1.6400146-1.8600464
			L94.1944809,51.5702362z"/>
		<path class="st1" d="M89.3944931,45.9202728c-0.3300171-0.0499878-0.710022,0.0299683-1.1200562,0.2699585
			c-0.9099731,0.5300293-1.6799927,1.6500244-1.9599609,2.75l-0.8400269,0.4300537l-0.8899536-0.5100098
			c-0.3700562-0.1700439-0.8600464-0.1300049-1.4000244,0.1799927c-0.7800293,0.4599609-1.460022,1.3499756-1.8099976,2.2999878
			l-0.3599854-1.6099854v-0.0100098c-0.0300293-0.1400146-0.1000366-0.2600098-0.1799927-0.3699951
			c-0.0100098-0.0200195-0.0300293-0.0400391-0.0400391-0.0499878c-0.0299683-0.0400391-0.0599976-0.0700073-0.0999756-0.1000366
			l7.5599976-3.7199707L89.3944931,45.9202728z"/>
		<path class="st3" d="M83.7667542,46.1125336c-0.1599731,0.2599487-0.2799683,0.539978-0.3599854,0.8199463l-0.5299683-0.2999878
			L83.7667542,46.1125336z"/>
		<path class="st1" d="M98.7844467,49.8602753l-0.4400024,1.2299805l-0.1999512-0.0599976l-6.210022-2.4099731
			c-0.0499878-0.0200195-0.1099854-0.0200195-0.1600342-0.0200195c0.0100098-0.1300049,0.0300293-0.2600098,0.0300293-0.3900146
			c0-0.4699707-0.1199951-0.8399658-0.3200073-1.0899658l0.4400024-0.2300415L98.7844467,49.8602753z"/>
		<polygon class="st1" points="93.6144638,33.2902679 93.6144638,33.5002289 92.4044418,34.6102753 92.354454,34.4202728 		"/>
		<path class="st1" d="M93.6144638,32.1902313c0.0100098,0.0300293,0,0.0900269-0.0599976,0.1500244l-1.4899902,1.3300171
			c-0.0100098-0.0100098-0.0300293-0.0200195-0.0499878-0.0300293l-1.3000488-0.7600098l1.5700073-1.4099731
			c0.0599976-0.0499878,0.1400146-0.0599976,0.210022-0.0200195l1.0299683,0.6000366
			C93.5944443,32.0902557,93.6144638,32.1502533,93.6144638,32.1902313z"/>
		<path class="st1" d="M91.7344589,35.0002289l-0.9799805,0.8800049l-0.1199951-0.3299561l0.9599609-0.8600464l0.0500488,0.0200195
			c0,0,0.0099487,0,0.0099487,0.0100098L91.7344589,35.0002289z"/>
		<polygon class="st1" points="90.9144516,34.2902679 90.2444687,34.8802338 89.9544907,34.7102509 90.6644516,34.1402435 		"/>
		<polygon class="st1" points="88.6144638,34.8102264 84.7144394,37.9002533 88.2844467,34.620285 		"/>
		<polygon class="st1" points="89.5044785,35.3202362 83.9644394,40.4202728 83.3844833,39.9202728 89.314476,35.2102509 		"/>
		<polygon class="st1" points="90.2344589,36.6602631 84.7344589,41.7202606 84.4244614,41.0202484 89.9644394,35.9102631 		"/>
		<path class="st1" d="M83.5844955,42.7802582l-5.3800049,4.9500122l-0.5200195-0.2999878
			c-0.0499878-0.0300293-0.0999756-0.0400391-0.1500244-0.0599976l5.7200317-5.2800293l0.2600098,0.5800171
			C83.5344467,42.7102509,83.564476,42.7402802,83.5844955,42.7802582z"/>
		<polygon class="st1" points="78.5144882,43.620285 73.274437,48.8802338 72.9744492,48.7102509 		"/>
		<polygon class="st1" points="82.854454,41.4402313 75.8044662,47.9402313 74.5344467,48.6702728 82.2544785,40.9202728 		"/>
		<polygon class="st6" points="73.3844833,47.3202362 72.2944565,48.3202362 71.9744492,48.1302338 		"/>
		<polygon class="st1" points="71.4344711,46.1302338 69.9744492,46.9702606 69.1644516,46.5102386 70.6144638,45.6602631 		"/>
		<polygon class="st1" points="78.0444565,49.9502411 76.5844955,50.7902679 75.8591156,50.3785858 77.3444443,49.5502777 		"/>
		<polygon class="st1" points="80.2844467,55.7002411 77.5844955,57.2602386 77.5844955,52.5202484 79.3644638,51.5002289 		"/>
		<path class="st1" d="M75.5844955,52.5302582v2.9799805l-1.3800049-2.7199707l0.1699829-0.0900269
			c0.1099854-0.0700073,0.1799927-0.1900024,0.1799927-0.3299561v-0.2600098l0.1199951-0.1100464L75.5844955,52.5302582z"/>
		<path class="st3" d="M75.524437,58.7702484l-3.9299927,2.2600098v-2.4000244l1.5400391,0.8900146
			c0.0599976,0.0300293,0.1199951,0.0499878,0.1900024,0.0499878c0.0100098,0,0.0100098-0.0100098,0.0199585-0.0100098
			c0.0100098,0,0.0200195,0.0100098,0.0300293,0.0100098c0.0700073,0,0.1300049-0.0199585,0.1900024-0.0499878l1.6400146-0.9400024
			L75.524437,58.7702484z"/>
		<polygon class="st3" points="72.7544785,58.4302826 71.5944443,57.7602386 71.5944443,54.620285 		"/>
		<path class="st3" d="M75.5844955,57.1702728v0.3200073l-1.9800415,1.1499634l-1.4299927-4.7099609
			c0.039978,0,0.0800171-0.0100098,0.1099854-0.0300293c0,0,0.0100098,0,0.0200195,0l1.25-0.7299805L75.5844955,57.1702728z"/>
		<polygon class="st7" points="63.0144882,47.1302338 63.0144882,47.8802338 59.6344833,45.9302826 59.6344833,45.1802826 		"/>
		<polygon class="st7" points="67.6844711,49.830246 67.6844711,50.580246 63.7644882,48.3202362 63.7644882,47.5602264 		"/>
		<polygon class="st7" points="73.8044662,51.4102631 73.8044662,52.1602631 72.4844589,52.9202728 72.4844589,52.1702728 		"/>
		<polygon class="st7" points="71.7344589,52.1702728 71.7344589,52.9202728 68.4344711,51.0202484 68.4344711,50.2602386 		"/>
		<polygon class="st7" points="73.4344711,50.7602386 72.1144638,51.5202484 68.814476,49.6102753 70.1244736,48.8502655 		"/>
		<polygon class="st7" points="69.3744736,48.4202728 68.064476,49.1802826 64.1344833,46.9102631 65.4544907,46.1502533 		"/>
		<polygon class="st7" points="64.7044907,45.7202606 64.5044785,45.830246 63.3844833,46.4802704 60.0044785,44.5302582 
			61.3244858,43.7702484 		"/>
		<path class="st8" d="M51.104454,83.4802704v0.8200073l-3.2099609,1.8499756c-0.8700562,0.5-1.9500122,0.5-2.8200073,0
			l-12.9000244-7.4500122c-0.1400146-0.0799561-0.1500244-0.2000122-0.1500244-0.2600098v-0.6199951l12.0200195,6.9500122
			c0.75,0.4299927,1.5800171,0.6400146,2.4100342,0.6400146c0.8399658,0,1.6699829-0.210022,2.4099731-0.6400146
			L51.104454,83.4802704z"/>
		<path class="st8" d="M50.0944443,81.7402802l-2.2299805,1.2999878c-0.8699951,0.5-1.9500122,0.5-2.8200073-0.0100098
			L32.1444931,75.580246c-0.1300049-0.0700073-0.1500263-0.1900024-0.1500263-0.2600098
			c0-0.0599976,0.0200214-0.1799927,0.1500263-0.2600098l0.7699585-0.4399414
			c0.0599976,0.25,0.2200317,0.4599609,0.4400024,0.5999756l13.0700073,7.8499756c0,0,0,0,0.0100098,0.0100098
			c0.0499878,0.0300293,0.0999756,0.0400391,0.1599731,0.0599976c0.0300293,0.0100098,0.0500488,0.0300293,0.0800171,0.0400391
			c0.0700073,0.0199585,0.1300049,0.0199585,0.2000122,0.0199585c0.0200195,0.0100098,0.039978,0.0100098,0.0599976,0.0100098
			c0.039978,0,0.0700073-0.0100098,0.1099854-0.0100098c0.0499878-0.0100098,0.1000366-0.0100098,0.1400146-0.0199585
			c0.0299683-0.0100098,0.0499878-0.0200195,0.0700073-0.0300293c0.0599976-0.0200195,0.1199951-0.039978,0.1699829-0.0700073
			c0.0100098,0,0.0100098,0,0.0100098,0l2.4899902-1.4400024L50.0944443,81.7402802z"/>
		<path class="st4" d="M47.2806587,77.1021042c-0.2299805,0.4299927-0.3499756,0.9199829-0.3499756,1.4199829v2.5200195
			l-12.0599976-7.25v-3.1300049c0-0.2200317,0.0300293-0.4400024,0.1099854-0.6600342L47.2806587,77.1021042z"/>
		<polygon class="st9" points="68.1006699,58.0220871 68.1006699,63.9821091 59.8706856,68.7321091 63.4406929,60.7020798 		"/>
		<polygon class="st10" points="60.8407173,60.2421188 56.52071,69.1220627 45.060688,62.5120773 49.4007149,53.5720749 		"/>
		<polygon class="st11" points="57.3291931,83.5920868 57.3162956,79.0434952 61.2747536,76.7580795 61.2876472,81.3066711 		"/>
		<path class="st12" d="M59.2955246,77.9007874c-1.0917778,0.6303329-1.9763374,2.1624756-1.9727821,3.4170151
			c0.0035591,1.254509,0.8939018,1.7619171,1.9856796,1.1315765c1.091774-0.6303406,1.9763374-2.1624832,1.9727783-3.4169922
			C61.2776451,77.7778473,60.3873024,77.2704468,59.2955246,77.9007874L59.2955246,77.9007874z"/>
		<path class="st8" d="M60.06884,77.9255295c-0.4243965,0.2450256-0.7682457,0.8406067-0.7668648,1.32827
			c0.0013847,0.4876556,0.3474808,0.6848984,0.7718773,0.4398727s0.7682457-0.8406067,0.766861-1.3282623
			C60.8393326,77.8777466,60.4932365,77.6805038,60.06884,77.9255295L60.06884,77.9255295z"/>
		<polygon class="st11" points="87.4109955,66.2405319 87.3981018,61.6919327 91.3565598,59.406517 91.3694534,63.9551125 		"/>
		<path class="st12" d="M89.377327,60.5492249c-1.091774,0.6303406-1.9763336,2.1624832-1.9727783,3.4170189
			c0.0035553,1.2545128,0.893898,1.7619133,1.985672,1.1315804c1.0917816-0.6303406,1.9763412-2.162487,1.9727859-3.416996
			C91.3594513,60.4262924,90.4691086,59.9188881,89.377327,60.5492249L89.377327,60.5492249z"/>
		<path class="st12" d="M89.7195053,48.257328c-0.5560379,0.3210297-1.006546,1.1013489-1.0047302,1.7402802
			c0.0018082,0.6389198,0.4552612,0.8973389,1.0112991,0.5763092s1.0065384-1.1013451,1.0047302-1.7402649
			C90.7289963,48.1947212,90.2755432,47.9362984,89.7195053,48.257328L89.7195053,48.257328z"/>
		<path class="st12" d="M84.6276932,51.1159592c-0.5560379,0.3210297-1.006546,1.1013489-1.0047302,1.7402802
			c0.0018082,0.6389198,0.4552612,0.8973389,1.0112991,0.5763092s1.006546-1.1013451,1.0047302-1.7402649
			C85.6371841,51.0533524,85.1837311,50.7949295,84.6276932,51.1159592L84.6276932,51.1159592z"/>
		<path class="st5" d="M36.4640999,71.3810272c0.7095566,0.4096603,1.2844353,1.4054108,1.2821236,2.2207413
			c-0.0023079,0.8153152-0.5809479,1.1450806-1.2905045,0.7354202c-0.7095528-0.4096603-1.2844353-1.4054108-1.2821236-2.220726
			C35.1759033,71.3011246,35.7545471,70.9713593,36.4640999,71.3810272L36.4640999,71.3810272z"/>
		<path class="st5" d="M45.1673965,76.6475067c0.7095566,0.4096603,1.2844353,1.4054108,1.2821274,2.2207489
			c-0.0023117,0.8153152-0.5809517,1.1450806-1.2905083,0.7354202c-0.7095528-0.4096603-1.2844353-1.4054184-1.2821236-2.2207336
			C43.8792038,76.5676117,44.4578438,76.2378464,45.1673965,76.6475067L45.1673965,76.6475067z"/>
		<path class="st8" d="M90.1506424,60.5618935c-0.4244003,0.2450256-0.7682419,0.8406029-0.766861,1.32827
			c0.0013809,0.4876556,0.3474808,0.6848946,0.7718735,0.4398689c0.4244003-0.2450256,0.7682495-0.8406029,0.766861-1.3282585
			C90.9211349,60.5141068,90.5750427,60.3168678,90.1506424,60.5618935L90.1506424,60.5618935z"/>
	</g>
	<g>
		<path d="M99.8834229,48.9557915c-7.0854492-0.3592644-7.5610352-9.7784195-7.7172852-12.8743172l0.4990234-0.0260925
			c0.2617188,5.1732101,1.2963867,12.0855408,7.2426758,12.3866005L99.8834229,48.9557915z"/>
	</g>
	<g>
		<path d="M142.7859344,29.8713856c-0.2785492-0.2463169-0.5519104-0.6025562-0.5528564-0.7925701
			c0.043869-0.4989758,0.165863-2.0060692-1.9841003-4.364872c-0.2037659-0.134634-4.9114532-3.2316628-6.3347626-3.8240204
			c-1.4733734-0.5934982-3.596817-0.7817669-4.512619-0.6826191c-0.0499878-0.0011387-4.4031372,0.5897636-6.5985947,2.1196747
			c-1.7592392,1.1999512-3.7775574,3.0038986-4.1228561,3.3160305c-0.5624161,0.2471981-4.7060928,2.1127567-6.3491364,3.1853542
			c-1.1167374,0.7445049-3.1983871,2.1970539-4.4832764,3.1077671c-0.0014267-0.1800156,0.0267029-0.34935,0.0990372-0.3976898
			c0.2891083-0.1834126,0.4257965-0.3203087,0.4663239-0.7493572c0.0409393-0.4390469-0.3180313-1.0972061-0.7451782-1.3768711
			c-0.1552734-0.1035652-0.3152542-0.1072063-0.4695816-0.0206966c-0.3909912,0.2210712-0.6306,1.0455914-0.6105957,1.6760197
			c0.0137482,0.550272,0.1218185,1.2226791,0.1827011,1.6240654c-0.0309219,0.0192566-0.0518951,0.0387955-0.0518951,0.0387955
			c-0.0104904,0.0097733-0.7157898,0.3137131-2.0411148,0.6035423c-1.6386795,0.3526421-3.4697723,1.3809204-4.6499176,2.6140099
			c-1.1059036,1.1447525-3.8653107,4.6318207-3.9553528,5.0497322c-0.0619125,0.2485771-0.2929459,1.3132706-0.2601318,1.8839951
			c0.0019073,0.1700172,0.0632706,0.3513985,0.1737976,0.5539131c-0.0119171,0.0397034-0.0238419,0.0794716-0.0257492,0.1194038
			c-0.0319443,0.2492599-0.2397079,2.5044212,0.4126511,3.5192146c0.578537,0.8831177,1.8885193,1.7528496,2.9366379,2.4467087
			l0.3294907,0.227459c1.0290527,0.6734085,3.5848618,1.8715248,4.3677292,2.0392952
			c0.0195465,0.0104561,0.0595245,0.011364,0.1090393,0.0225029l0.0599976,0.0013657
			c0.9043655,0.1405678,3.8983154,0.3386993,5.0683594,0.3653259c0.1900177,0.0043259,0.3405228-0.0022583,0.4109497-0.0106659
			c0.5124207-0.0383224,3.0626297-1.03022,3.868927-1.3518829c0.1623611-0.0462875,0.2699738-0.203804,0.2676544-0.363884
			c0.0009537-0.0199966-0.0071487-0.0601578-0.0157242-0.0903168c-0.0842438-0.3319168-0.0951996-0.7321701-0.0332794-1.1907005
			c0.2678146-1.8338356,1.6456223-3.8523598,3.197197-4.6870003c0.1233444-0.0671959,0.2462082-0.1243935,0.3690643-0.181591
			c0.663414-0.2649193,1.2529373-0.2414932,1.6391525,0.0572586c0.1257172,0.0928841,0.2299881,0.2152443,0.3128586,0.3671455
			c0.0828247,0.1518402,0.1542587,0.3334503,0.1947098,0.5343742c0.0090561,0.0202217,0.0076294,0.0501556,0.0162048,0.0803795
			l-0.0004807,0.0099983c0.0457001,0.3010139,0.0584946,0.6612701,0.0094528,1.0601578
			c-0.0004807,0.0099983-0.0014343,0.0299339-0.0123978,0.0497017l-0.002861,0.0599289l-0.0262222,0.1294022
			c-0.0266342,0.1394005,0.0262146,0.2905617,0.1524124,0.3734436c0.1166611,0.0726585,0.2766418,0.0763016,0.3999786,0.0091019
			c1.8644638-1.0975227,3.7703934-2.2240715,5.2952805-3.1293221c0.2252274-0.1048546,3.9741592-1.6694794,5.4080582-2.1368217
			c1.5148621-0.4854546,3.9741516-1.6694756,4.0769958-1.7271309c0.1433563-0.0667419,0.2305298-0.2147102,0.2181396-0.3750191
			c-0.0180511-0.2503967-0.034729-0.5307312-0.0437775-0.7609062c-0.0066071-0.0701523-0.0128021-0.1503067-0.0099487-0.2102356
			c0.0009613-0.0199966,0.0218658-0.0394783,0.0128784-0.0597038c-0.0081024-0.2501717,0.004776-0.5198822,0.0391083-0.8190727
			c0.2843781-1.9734039,1.7594299-4.1397324,3.4338074-5.0315742c0.1338348-0.0769653,0.2671814-0.1439362,0.3900452-0.2011337
			c0.265274-0.1039429,0.5076599-0.1484108,0.7391357-0.173172l0.6123962,0.3839111
			c0.0780487,0.0418129,0.1361542,0.0831108,0.1942444,0.1244087c0.4347687,0.3298836,0.6661835,0.9351578,0.6275482,1.7442322
			l-0.004776,0.0998611c-0.0033264,0.0699272-0.0166779,0.1396294-0.0204926,0.2195549l0.5143127,0.1316948
			c0.1781006,0.0440254,0.3623962-0.0418015,0.4405212-0.2099991c0.254303-0.5041924,0.3925018-1.0909843,0.4477539-1.8296776
			c0.082489-0.888092,0.5350037-2.8176937,0.535965-2.8376904
			C142.9249878,30.1045189,142.8816223,29.9635849,142.7859344,29.8713856z M107.599144,32.1104546
			c-0.2481689,0.1643906-0.4453354,0.3098564-0.6005478,0.4163055c-0.0609512-0.401329-0.1528091-0.9934158-0.1598892-1.4735317
			c-0.0219116-0.5904961,0.2119675-1.2950974,0.4796295-1.4490318c0.0719147-0.0383396,0.1319122-0.036974,0.1995392,0.0145512
			c0.3590469,0.2381382,0.6823349,0.8055248,0.6456833,1.1546478c-0.0262299,0.3393517-0.1095886,0.4074574-0.3467331,0.5520782
			C107.5796204,31.4700909,107.5710297,31.8598289,107.599144,32.1104546z"/>
		<g>
			<g>
				<path class="st13" d="M119.5196991,46.0110207l-0.0047684,0.0999222
					c-0.0047684,0.099865-0.0194855,0.1994972-0.0342636,0.2991943c-0.0004807,0.0099983-0.0014343,0.0299339-0.0123978,0.0497017
					c-0.2615585,1.7039795-1.540802,3.5447655-2.9690475,4.3122101c-0.1128464,0.0574265-0.2252274,0.1048546-0.3381348,0.1622772
					c-0.6019211,0.23629-1.1229248,0.2444534-1.5238571,0.0453339c-0.107666-0.052433-0.2052612-0.104641-0.2819443-0.1763878
					l-0.5637741-0.3528404c0.0009537-0.0199966-0.0071487-0.0601578-0.0157242-0.0903168
					c-0.0842438-0.3319168-0.0951996-0.7321701-0.0332794-1.1907005c0.2678146-1.8338356,1.6456223-3.8523598,3.197197-4.6870003
					c0.1233444-0.0671959,0.2462082-0.1243935,0.3690643-0.181591c0.663414-0.2649193,1.2529373-0.2414932,1.6391525,0.0572586
					c0.2509613,0.1957016,0.4266663,0.499733,0.5075684,0.9015198
					C119.515007,45.4809761,119.5330582,45.7313728,119.5196991,46.0110207z"/>
				<path class="st4" d="M116.5366821,49.6480064c-0.0689621,0.0371742-0.1383972,0.0700836-0.2081833,0.0982056
					c-0.304245,0.1240196-0.5723648,0.141098-0.8025894,0.086525l1.023819-1.6252632l0.6544495,0.9454842
					C116.9920425,49.3519516,116.7671814,49.5237503,116.5366821,49.6480064 M117.3128586,49.0493851l-0.488266-0.7351723
					c-0.0961533-0.1505966-0.0989304-0.3627701,0.0012741-0.4767647c0.0164185-0.0187035,0.0344162-0.0330849,0.053421-0.0433311
					c0.0942688-0.0508232,0.213562,0.0000191,0.2906265,0.1290169l0.4471054,0.7798576
					C117.5209503,48.8247566,117.4195404,48.9406509,117.3128586,49.0493851 M115.4375305,49.8078995
					c-0.0870514-0.0292931-0.1656265-0.0731506-0.238121-0.1277924l0.7469406-1.2635803
					c0.1082764-0.182003,0.2356033-0.3266563,0.3272476-0.3760643c0.034317-0.0185013,0.0636292-0.0236435,0.0850677-0.012394
					c0.078743,0.0400238,0.0063248,0.2827377-0.1445694,0.5290184L115.4375305,49.8078995 M116.7446289,47.8271484
					c-0.0102844,0.0055466-0.0206223,0.0095139-0.0307007,0.0119095l0.0013199-0.0044556
					c-0.021431,0.004055-0.03685-0.0013771-0.0484848-0.016346c-0.0218887-0.0356865-0.0054321-0.1032867,0.0393448-0.1536636
					l0.0036087-0.0056953l0.0081406-0.0068893c0.0131378-0.0147781,0.0268784-0.0256844,0.0402908-0.0329208
					c0.0322723-0.0173988,0.0626526-0.0134811,0.0782394,0.0090141c0.0116348,0.0149727,0.0103073,0.0444221,0.0002747,0.0685768
					c-0.0046997,0.0300255-0.0196686,0.0643311-0.0479279,0.0958099
					C116.7747498,47.807457,116.7597351,47.8190041,116.7446289,47.8271484 M116.4690857,47.9372406
					c-0.0218201,0.0117645-0.0422211,0.0121422-0.0607147,0.0053101c-0.0184479-0.0125504-0.028595-0.03582-0.0238342-0.0671272
					c-0.0000534-0.0237083,0.0099869-0.047863,0.0268326-0.0744438c0.0212097-0.0348282,0.0481949-0.0620804,0.0739975-0.075985
					c0.01828-0.0098572,0.035965-0.0130081,0.05056-0.0074005l0.0033875-0.0005722l0.0032654,0.0019836l0.0051575,0.009716
					c0.0268173,0.0255318,0.0253754,0.0825386-0.0060959,0.1357384c-0.0180054,0.0271988-0.0381241,0.0517883-0.059967,0.0648117
					C116.4774323,47.9323578,116.4732361,47.9350052,116.4690857,47.9372406 M117.7175751,48.5813141l-0.5744324-1.0336037
					l1.3638458-1.0763245c-0.001564,0.1095505-0.0042725,0.2197189-0.0207977,0.3385849
					C118.397438,47.4163628,118.1106567,48.0482864,117.7175751,48.5813141 M116.8754044,47.4813728
					c-0.0410309,0.0221176-0.0760651,0.0093269-0.0848465-0.028492l0.0013199-0.0044632l0.000351-0.0076866l0.0013123-0.0044556
					c-0.0033188-0.0506935,0.0298843-0.1173172,0.0761948-0.1522827c0.0048218-0.0036964,0.0096207-0.0067749,0.014389-0.0093422
					c0.0169601-0.0091438,0.0334778-0.0117722,0.0492325-0.012455c0.0199509,0.0042419,0.0382233,0.0206261,0.0403442,0.0482254
					c0.0066986,0.0251274-0.0016098,0.0608444-0.0198441,0.0931664c-0.0132446,0.0208817-0.0333633,0.045475-0.0565262,0.0629578
					C116.8899155,47.4725876,116.8825607,47.4775124,116.8754044,47.4813728 M116.4342041,47.6564102
					c-0.0136108,0.0073395-0.027298,0.0111198-0.0402908,0.0102882c-0.0201187-0.0004044-0.0332413-0.0070763-0.0403442-0.0232353
					c-0.0102615-0.02071-0.0099106-0.0533905,0.0029373-0.0903015c0.0149612-0.0343056,0.0363998-0.0633583,0.0597305-0.0846786
					c0.0102005-0.0077019,0.0201416-0.0145302,0.0297928-0.0197334c0.0122604-0.0066109,0.0240631-0.0105934,0.0353165-0.0103722
					c0.0435638,0.0015106,0.0637283,0.0506172,0.0408554,0.1116791l-0.0037842,0.0095367
					C116.4976654,47.6023331,116.4661713,47.6391792,116.4342041,47.6564102 M116.6849976,47.3749542
					c-0.001709,0.0009193-0.0034256,0.0018082-0.0051575,0.0026588l-0.0147858,0.0054703l0.0013199-0.0044556
					c-0.0465469,0.0150909-0.0766296-0.0124283-0.0685425-0.0680161c0.0047607-0.0313072,0.0181732-0.0560341,0.0361786-0.0832329
					c0.0181427-0.0245857,0.0401154-0.0449638,0.0616226-0.0565643c0.0038986-0.0021019,0.0077896-0.0039177,0.0116348-0.0054131
					c0.0251007-0.0110359,0.0450516-0.006794,0.0602341,0.0037613c0.0116348,0.0149727,0.0185089,0.0362587,0.0138016,0.0662842
					C116.7733231,47.292881,116.7340775,47.3484955,116.6849976,47.3749542 M115.1277695,49.6312561
					c-0.2757568-0.2612-0.4037323-0.724514-0.3161774-1.32901c0.0177841-0.1220436,0.0490417-0.2451057,0.0825272-0.3681183
					l1.1988449,0.0322456L115.1277695,49.6312561L115.1277695,49.6312561z M117.309967,47.2520332
					c-0.1428528,0.0770035-0.2526474,0.0836983-0.2631836,0.000248c-0.0186081-0.1086769,0.1488953-0.3264275,0.3570862-0.4786377
					l1.0545883-0.7659187c0.0266876,0.1030693,0.041748,0.216156,0.0475159,0.3367538l-1.0453033,0.8083954
					C117.4084167,47.1931839,117.3573685,47.2264786,117.309967,47.2520332L117.309967,47.2520332z M116.1220779,47.7332726
					c-0.0781479,0.0421295-0.1720734,0.0671654-0.2621307,0.0663223l-0.9270554-0.006321
					c0.0443802-0.1413841,0.0965576-0.2819672,0.1587067-0.4204292l0.9450073-0.0445938
					c0.1871338-0.0071602,0.3079376,0.092659,0.2547302,0.2313004
					C116.2655792,47.6290703,116.2021027,47.690136,116.1220779,47.7332726L116.1220779,47.7332726z M117.0519409,46.888382
					l0.1878815-1.5932312c0.5763702-0.1307716,1.0062027,0.1123505,1.1804733,0.6156845L117.0519409,46.888382
					L117.0519409,46.888382z M116.8212433,45.4492531c0.0091782-0.0049477,0.0183563-0.0102119,0.0275574-0.0157928
					c0.0126114-0.0067978,0.0251007-0.0136719,0.0375824-0.020401c0.024971-0.0134583,0.0499039-0.0263443,0.075737-0.0369415
					c0.0581207-0.0238304,0.1122284-0.0330048,0.1689148-0.0498199l-0.1576233,1.2183075
					c-0.0311127,0.2378197-0.1375732,0.4723701-0.2449646,0.530262c-0.0043106,0.0023232-0.008606,0.0043602-0.0129166,0.0061073
					c-0.1071243,0.0440025-0.1595993-0.132637-0.1204147-0.3824234l0.1986618-1.2354279
					C116.8029175,45.4588165,116.8120728,45.4541969,116.8212433,45.4492531L116.8212433,45.4492531z M116.4013824,47.1516075
					l-1.2385788,0.0803871c0.3533325-0.7190247,0.9124756-1.3628159,1.5175934-1.7102547L116.4013824,47.1516075
					L116.4013824,47.1516075z M116.7527847,45.143074c-1.077507,0.5808449-2.052063,1.9840584-2.2397003,3.2801056
					c-0.2041931,1.4083443,0.5866394,2.1566086,1.7636032,1.6795883c0.0884323-0.0358963,0.1766891-0.0777245,0.2640762-0.1248283
					c1.081337-0.5829086,2.0550156-1.9858513,2.2439423-3.2888947c0.2038422-1.4006653-0.5880737-2.1495934-1.7707748-1.6694832
					C116.9264984,45.0550919,116.839241,45.0964661,116.7527847,45.143074L116.7527847,45.143074z"/>
			</g>
		</g>
		<g>
			<g>
				<path class="st13" d="M140.9854889,34.6601753l-0.004776,0.0998611
					c-0.0033264,0.0699272-0.0166779,0.1396294-0.0204926,0.2195549l-0.0033417,0.0698662
					c-0.2525024,1.724205-1.5427094,3.5847588-2.9813843,4.3619728c-0.112915,0.0574265-0.2357788,0.114624-0.3481445,0.1620522
					c-0.6024628,0.2462845-1.1233978,0.2543869-1.5239258,0.0453339c-0.0980682-0.0422707-0.1951904-0.1044731-0.2818756-0.1764488
					l-0.8752747-0.5398521c-0.0066071-0.0701523-0.0128021-0.1503067-0.0099487-0.2102356
					c0.0009613-0.0199966,0.0218658-0.0394783,0.0128784-0.0597038c-0.0081024-0.2501717,0.004776-0.5198822,0.0391083-0.8190727
					c0.2843781-1.9734039,1.7594299-4.1397324,3.4338074-5.0315742c0.1338348-0.0769653,0.2671814-0.1439362,0.3900452-0.2011337
					c0.265274-0.1039429,0.5076599-0.1484108,0.7391357-0.173172l0.6123962,0.3839111
					c0.0780487,0.0418129,0.1361542,0.0831108,0.1942444,0.1244087
					C140.7927094,33.2458267,141.0241241,33.8511009,140.9854889,34.6601753z"/>
				<path class="st4" d="M138.0097351,38.2914391c-0.0689545,0.0371742-0.1383972,0.0700836-0.2081757,0.0982094
					c-0.304245,0.1240158-0.5723724,0.141098-0.802597,0.0865211l1.023819-1.6252594l0.6544495,0.9454803
					C138.4651031,37.9953842,138.2402344,38.1671867,138.0097351,38.2914391 M138.7859192,37.6928177l-0.488266-0.7351723
					c-0.0961609-0.1505966-0.098938-0.3627701,0.0012665-0.4767647c0.0164185-0.0187035,0.0344238-0.0330849,0.053421-0.0433311
					c0.0942688-0.0508232,0.213562,0.0000191,0.2906342,0.1290207l0.447113,0.7798538
					C138.9940033,37.4681892,138.8925934,37.5840836,138.7859192,37.6928177 M136.9105835,38.4513359
					c-0.0870514-0.0292969-0.1656189-0.0731544-0.2381134-0.1277924l0.746933-1.2635841
					c0.1082764-0.182003,0.235611-0.3266563,0.3272552-0.3760643c0.034317-0.0185013,0.0636292-0.0236435,0.0850677-0.012394
					c0.0787354,0.0400276,0.0063171,0.2827415-0.144577,0.5290222L136.9105835,38.4513359 M138.2176819,36.4705811
					c-0.0102844,0.0055466-0.0206146,0.0095177-0.0307007,0.0119133l0.0013275-0.0044594
					c-0.0214386,0.004055-0.03685-0.0013771-0.0484924-0.016346c-0.0218811-0.0356865-0.0054321-0.1032867,0.0393524-0.1536636
					l0.0036011-0.0056915l0.0081482-0.0068893c0.0131378-0.014782,0.0268707-0.0256882,0.0402832-0.0329208
					c0.0322723-0.0173988,0.0626526-0.013485,0.0782471,0.0090141c0.0116272,0.0149689,0.0102997,0.0444221,0.0002747,0.0685768
					c-0.0046997,0.0300217-0.0196686,0.0643272-0.0479279,0.0958061
					C138.2478027,36.4508934,138.2327881,36.4624405,138.2176819,36.4705811 M137.9421387,36.580677
					c-0.0218201,0.0117607-0.0422211,0.0121384-0.0607147,0.0053062c-0.0184479-0.0125465-0.028595-0.03582-0.0238342-0.0671272
					c-0.0000458-0.0237083,0.0099945-0.047863,0.0268402-0.0744438c0.0212097-0.0348244,0.0481873-0.0620766,0.0739899-0.075985
					c0.01828-0.0098572,0.035965-0.0130081,0.0505676-0.0074005l0.0033875-0.0005722l0.0032654,0.0019875l0.0051575,0.0097122
					c0.0268097,0.0255318,0.0253754,0.0825386-0.0061035,0.1357384c-0.0180054,0.0271988-0.0381165,0.0517883-0.059967,0.0648155
					C137.9504852,36.5757904,137.9462891,36.5784416,137.9421387,36.580677 M139.1906281,37.2247467l-0.5744171-1.0336037
					l1.3638306-1.0763245c-0.0015564,0.1095505-0.0042725,0.2197189-0.0207977,0.3385849
					C139.8704987,36.0597954,139.5837097,36.6917191,139.1906281,37.2247467 M138.348465,36.1248055
					c-0.0410309,0.0221176-0.0760651,0.0093269-0.0848541-0.028492l0.0013275-0.0044632l0.000351-0.0076828l0.0013123-0.0044594
					c-0.0033112-0.0506935,0.0298767-0.1173172,0.0761871-0.1522827c0.0048218-0.0036926,0.0096283-0.0067749,0.014389-0.0093422
					c0.0169678-0.0091438,0.0334778-0.0117722,0.0492401-0.012455c0.0199432,0.0042419,0.0382233,0.0206261,0.0403442,0.0482254
					c0.0066986,0.0251274-0.0016174,0.0608444-0.0198517,0.0931664c-0.0132446,0.0208855-0.0333557,0.045475-0.0565186,0.0629578
					C138.3629761,36.1160202,138.3556213,36.120945,138.348465,36.1248055 M137.9072723,36.2998466
					c-0.0136261,0.0073357-0.0273132,0.011116-0.0402985,0.0102844c-0.0201263-0.0004044-0.0332489-0.0070763-0.0403442-0.0232353
					c-0.0102692-0.02071-0.0099182-0.0533905,0.0029297-0.0903015c0.0149689-0.0343056,0.0364075-0.0633583,0.0597382-0.0846786
					c0.0101929-0.0077019,0.0201416-0.0145302,0.0297852-0.0197334c0.0122681-0.0066109,0.0240631-0.0105934,0.0353241-0.0103722
					c0.0435638,0.0015106,0.0637207,0.0506172,0.0408478,0.1116829l-0.0037842,0.0095329
					C137.9707184,36.2457657,137.9392242,36.2826157,137.9072723,36.2998466 M138.1580505,36.0183868
					c-0.001709,0.0009232-0.003418,0.001812-0.0051575,0.0026588l-0.0147858,0.0054703l0.0013275-0.0044556
					c-0.0465546,0.0150909-0.0766296-0.0124245-0.0685425-0.0680161c0.0047607-0.0313072,0.0181732-0.0560341,0.0361786-0.0832329
					c0.0181427-0.0245857,0.0401154-0.0449638,0.061615-0.0565605c0.0039062-0.0021057,0.0077972-0.0039215,0.0116425-0.0054169
					c0.0251007-0.0110321,0.0450439-0.0067902,0.0602417,0.0037613c0.0116272,0.0149727,0.0184937,0.0362587,0.0137939,0.0662842
					C138.2463837,35.9363174,138.2071381,35.9919281,138.1580505,36.0183868 M136.6008301,38.2746887
					c-0.2757568-0.2611961-0.4037323-0.724514-0.3161774-1.32901c0.0177765-0.1220436,0.0490417-0.2451057,0.0825195-0.3681145
					l1.1988525,0.0322456L136.6008301,38.2746887L136.6008301,38.2746887z M138.78302,35.8954659
					c-0.1428375,0.0770073-0.2526398,0.0836983-0.2631836,0.000248c-0.0186005-0.1086769,0.1488953-0.3264275,0.3570862-0.4786377
					l1.0545959-0.7659187c0.0266876,0.1030693,0.041748,0.216156,0.0475159,0.3367538l-1.0453033,0.8083954
					C138.8814697,35.8366165,138.8304291,35.869915,138.78302,35.8954659L138.78302,35.8954659z M137.5951385,36.376709
					c-0.0781555,0.0421257-0.1720734,0.0671616-0.2621307,0.0663185l-0.927063-0.006321
					c0.0443878-0.1413841,0.0965576-0.2819672,0.1587067-0.4204292l0.9450073-0.0445938
					c0.1871338-0.0071602,0.3079376,0.092659,0.2547302,0.2313004
					C137.7386322,36.2725029,137.6751556,36.3335686,137.5951385,36.376709L137.5951385,36.376709z M138.5249939,35.5318146
					l0.1878815-1.5932312c0.5763855-0.1307716,1.0062103,0.1123505,1.180481,0.6156845L138.5249939,35.5318146
					L138.5249939,35.5318146z M138.2942963,34.0926857c0.0091858-0.0049438,0.0183563-0.0102081,0.0275574-0.0157928
					c0.012619-0.0067978,0.0251007-0.0136719,0.0375824-0.0203972c0.0249786-0.0134621,0.0499115-0.0263481,0.0757446-0.0369453
					c0.0581207-0.0238266,0.1122284-0.0330048,0.1689148-0.0498199l-0.1576233,1.2183075
					c-0.0311127,0.2378197-0.1375732,0.472374-0.2449646,0.530262c-0.0043182,0.002327-0.008606,0.004364-0.0129242,0.0061073
					c-0.1071167,0.0440063-0.1595917-0.132637-0.1204071-0.3824234l0.1986542-1.2354279
					C138.2759705,34.1022491,138.2851257,34.0976295,138.2942963,34.0926857L138.2942963,34.0926857z M137.8744354,35.7950401
					l-1.2385712,0.0803871c0.3533325-0.7190247,0.9124756-1.3628159,1.5175934-1.7102547L137.8744354,35.7950401
					L137.8744354,35.7950401z M138.2258453,33.7865067c-1.0775146,0.5808449-2.052063,1.9840584-2.2397003,3.2801056
					c-0.2041931,1.4083443,0.5866394,2.1566086,1.7635956,1.6795883c0.0884399-0.0358925,0.1766968-0.0777245,0.2640839-0.1248283
					c1.0813293-0.5829086,2.0550079-1.9858513,2.2439423-3.2888947c0.2038422-1.4006653-0.5880737-2.1495934-1.7707825-1.6694832
					C138.3995514,33.6985245,138.3123016,33.7398987,138.2258453,33.7865067L138.2258453,33.7865067z"/>
			</g>
		</g>
		<path class="st14" d="M107.5178757,29.6187477c-0.067627-0.0515251-0.1276245-0.0528908-0.1995392-0.0145512
			c-0.267662,0.1539345-0.5015411,0.8585358-0.4796295,1.4490318c0.0038681,0.2620354,0.0334244,0.555479,0.0690155,0.835083
			c0.2673798-0.6523895,0.6386795-1.2620716,1.0688858-1.7515831
			C107.8562698,29.9286175,107.692131,29.7343407,107.5178757,29.6187477z"/>
		<path class="st15" d="M107.599144,32.1104546c-0.0281143-0.2506256-0.0195236-0.6403637,0.2176819-0.7849808
			c0.2371445-0.1446209,0.3205032-0.2127266,0.3467331-0.5520782c0.0188446-0.1796761-0.0593338-0.4160004-0.1869507-0.6366673
			c-0.4302063,0.4895115-0.801506,1.0991936-1.0688858,1.7515831c0.0295868,0.2325954,0.0632172,0.4561863,0.0908737,0.6384487
			C107.1538086,32.420311,107.350975,32.2748451,107.599144,32.1104546z"/>
		<path class="st4" d="M100.0669327,37.0087852l-0.0152664,0.3196449c-0.2409592,0.2244835-1.3944092,1.3181725-1.6997375,2.0512352
			c-0.2957916,0.7432289-0.4768372,2.0190086-0.5073471,2.2383347l-0.6825027,1.0843887
			c-0.1109314-0.4025307-0.2637482-1.1859322-0.1846008-1.7940865
			C97.4937286,40.16008,98.9563141,38.2534637,100.0669327,37.0087852z"/>
		<path class="st16" d="M134.2276154,39.4861069c-0.6652527,0.3048515-2.5492554,1.1819115-3.7493286,1.5745621
			c-0.3147888,0.092865-0.7328949,0.2533264-1.2015228,0.4226456c1.4906311-0.8160095,3.5788727-1.7784424,4.9247131-2.2877655
			C134.2067108,39.295639,134.2219696,39.3959541,134.2276154,39.4861069z"/>
		<path class="st15" d="M129.4900055,23.1791306c-1.4982376,0.1358776-3.2702026,0.345541-4.6551208,0.6240654
			c-1.7686844,0.3496838-3.4502106,0.9714165-4.5322037,1.4067307c0.8138657-0.6914024,1.9178009-1.5862751,2.9117355-2.2735806
			c1.3668137-0.948885,3.8079071-1.5432625,5.2527618-1.820364c-0.0971222,0.1477451-0.185257,0.3157749-0.2038422,0.4953346
			C128.2323914,22.0505924,129.0476074,22.7990875,129.4900055,23.1791306z"/>
		<path class="st15" d="M137.9996948,27.1626263c-0.0134125,0.4896584-0.1253204,0.7370987-0.1800842,0.8358231
			c-0.0885925-0.0319824-0.1576538-0.0535736-0.2262268-0.0851612c-0.6190186-0.2440548-1.5585785-0.6954079-1.7638397-0.8000488
			c0.7886658-0.582058,1.3668213-0.948885,1.4901581-1.0160828c0.1933441,0.1444073,0.3766785,0.2885876,0.5595398,0.4427052
			l-0.000473,0.0099983C137.9501953,26.7314682,138.0097198,26.9528427,137.9996948,27.1626263z"/>
		<path class="st15" d="M129.4663391,20.9487286c-0.140976,0.0168095-0.3629303,0.0517349-0.6352844,0.0955219
			c-0.147644,0.1566658-0.2976837,0.3632011-0.3181915,0.5827541c-0.0237732,0.289423,0.7509766,1.0470047,1.3295135,1.5101585
			c0.1104736-0.007494,0.220932-0.0149899,0.3319397-0.0324211c-0.1357269-0.093111-0.543335-0.3623829-0.6790619-0.6654434
			c-0.108551-0.2424488-0.0618896-0.3813934-0.0084991-0.450182c-0.2476349-0.0556202-0.4867401-0.0810814-0.7362823-0.0967083
			c0.4600525-0.0943832,0.9216309-0.0689259,1.3815308,0.0177689c0.4136047-0.308197,0.9237671-0.5961323,1.4830322-0.8413258
			C130.7175293,20.9320374,129.8839264,20.9014111,129.4663391,20.9487286z"/>
		<path class="st14" d="M139.7513275,25.2825451c-0.0200195-0.0004559-4.7857361-3.1387196-6.1305237-3.6993237
			c-0.6062927-0.2468777-1.3239136-0.4104195-2.0057678-0.51437c-0.5592651,0.2451935-1.0694275,0.5331287-1.4830322,0.8413258
			c1.6019745,0.3020058,3.180191,1.4843464,4.5724945,2.1375809c0.8447723,0.5492249,5.3704987,3.0520554,4.4042053,4.2099953
			c0.167572,0.0225506,0.3339844,0.0450745,0.4933167,0.0673752c0.4881287-0.4407711,0.9764252-0.8311882,1.4753571-1.1630173
			C140.8198395,26.6359539,140.4138641,26.0124283,139.7513275,25.2825451z"/>
		<path class="st15" d="M139.6020203,28.3251286c0.0109253,0.0015316,0.0229492,0.0030861,0.0338135,0.0046158
			c0.4076691,0.0593224,0.7953186,0.1181297,1.0729218,0.1744328c0.3371887,0.067667,0.5957794,0.1035805,0.7857819,0.1079044
			c-0.0167999-0.3326416-0.1089935-0.8204918-0.41716-1.4499702
			C140.5784454,27.4939404,140.0901489,27.8843575,139.6020203,28.3251286z"/>
		<path class="st17" d="M137.1073456,25.9323597c-0.2481079,0.1643276-0.9610443,0.6281204-1.8644562,1.307476
			c-1.0496521,0.8060856-2.9470215,2.3828182-3.1975098,2.5971375c-0.2114716,0.0251541-1.2696228,0.1710472-1.7139282,0.2509575
			c-1.4539185,0.2568779-1.72966,0.1606407-1.7782288,0.1295071c-0.3195343-0.2272301-1.8504562-1.2920437-3.4237976-2.3077774
			c-1.3795776-0.8813267-3.2424316-1.9137192-3.8181839-2.2267933c0.299118-0.1831856,1.0687103-0.5756245,2.6259308-0.9001522
			c2.0629807-0.4330692,9.3286819-0.7976627,10.000618-0.8224087c0.2047729,0.1147003,0.4095001,0.2293396,0.6147766,0.3339806
			C135.4192505,24.8039742,136.2949371,25.3338852,137.1073456,25.9323597z"/>
		<path class="st17" d="M130.8309021,31.5792007c-0.2814941,0.4435806-1.0564117,1.5759125-2.2136688,2.7494621
			c-0.0204926-0.2004051-0.074707-0.5316391-0.17276-0.9938698c-0.1304779-0.6229286-0.4647293-1.1704865-0.6423416-1.4345245
			C129.164093,31.6812763,130.3594055,31.5984993,130.8309021,31.5792007z"/>
		<path class="st15" d="M131.5008087,33.2743492c0.1171417-0.1472893,0.3585815-0.3817711,0.6176605-0.5658684
			c-0.2242737,0.0848579-0.440033,0.1999359-0.6462555,0.3252411c-0.4790649,0.3891029-1.2282257,1.1920166-1.9788208,2.024868
			c0.1033783,0.1423569,0.1866608,0.2842598,0.2595367,0.4358749c0.0176392,0.0503845,0.035202,0.1008339,0.062851,0.1514473
			c0.0371246,0.0608368,0.0628662,0.1513863,0.1090393,0.2324486c0.0619049,0.1713829,0.14328,0.3532791,0.2180634,0.464962
			c0.1685486,0.2438126,0.2976074,0.4767189,0.3871002,0.6987724c0.1352539-0.1068993,0.2614594-0.2340279,0.3967133-0.3409882
			c-0.0609436-0.1913795-0.0875702-0.4719391-0.0137329-0.9702339c0.0595856-0.4086571,0.1191101-0.6072426,0.1191101-0.6072426
			c-0.2628784,0.0540123-0.661972,0.0249138-0.7395477-0.0268364c0.0953522-0.019619,0.5953979-0.1356125,1.0847931-0.2841377
			c0.4405518-0.6896439,0.9903564-1.3622169,1.6105499-1.9839325c-0.0454865,0.0069008-0.0896149,0.0072975-0.1350861,0.0164566
			C132.235611,32.9810905,131.5008087,33.2743492,131.5008087,33.2743492z M131.090744,33.894989
			c-0.1638641,0.2862968-0.5477142,0.7775345-0.6220093,0.8658028c0.0114288-0.029705,0.0447388-0.0989494,0.1433563-0.2766876
			c0.1747589-0.3060074,0.6414948-0.8553543,0.7582245-0.9927025C131.3379059,33.5406494,131.23172,33.6682281,131.090744,33.894989
			z"/>
		<path class="st14" d="M131.9064178,34.6335449c0.8972321-0.3395462,1.3829498-0.4485435,1.6330261-0.6528015
			c0.2543182-0.2941856,0.5191193-0.5981407,0.7538757-0.9027786c0.0128784-0.0597,0.0166931-0.1396294-0.0514069-0.1812134
			c-0.1077423-0.0766068-0.672821-0.1560516-1.2540436-0.0680275c-0.6201935,0.6217155-1.1699982,1.2942886-1.6105499,1.9839325
			C131.5627747,34.7563934,131.7466583,34.6958237,131.9064178,34.6335449z"/>
		<path class="st15" d="M129.8161926,36.2658844c-1.3501434,1.019207-2.6335983,2.1099358-3.9080582,3.2208862
			c-0.3552475,0.3119049-0.6905365,0.6242676-1.0358276,0.9364014c-0.0523758,0.04879-0.1247711,0.0971298-0.1771469,0.1459236
			c0.5133972-0.898243,1.8697891-2.2573166,2.7265701-3.2177467c0.4524307-0.459713,1.1725235-1.2832489,1.9021378-2.0966187
			c0.0752563,0.1016846,0.1395416,0.2231369,0.1938171,0.3443604c0.0275879,0.0506744,0.0452271,0.101059,0.0728149,0.1516724
			c0.0266876,0.0706139,0.062851,0.1514473,0.0990753,0.2322235
			C129.7252655,36.073822,129.7704926,36.1748199,129.8161926,36.2658844z"/>
		<path class="st14" d="M130.4213409,37.8495789c-1.8734589,1.077301-3.8317642,2.0426941-5.8038254,2.8777733l0.0004807-0.0099983
			c0.0223999-0.0494728,0.0447464-0.0990105,0.0771637-0.1482582c0.0523758-0.0487938,0.1247711-0.0971336,0.1771469-0.1459236
			c0.3452911-0.3121338,0.6805801-0.6244965,1.0358276-0.9364014c1.2744598-1.1109505,2.5579147-2.2016792,3.9080582-3.2208862
			c0.0362244,0.0808372,0.0723877,0.1616096,0.1195221,0.2226791
			C130.2633514,36.9660263,130.425705,37.339695,130.4213409,37.8495789z"/>
		<path class="st14" d="M124.0385056,39.8541756c-0.2828369-0.1563911-0.6576157-0.2749023-0.9676361-0.2819557
			c-0.1199951-0.0027313-0.2310028,0.0147018-0.3228836,0.0526466c-0.2257614,0.1148491-0.4700699,0.6192741-0.5744095,0.9168701
			c-0.0228195,0.0594749-0.0743027,0.0882721-0.1242905,0.0871353c-0.0100098-0.0002289-0.7000504-0.0159302-1.0514755,0.2160492
			c-0.0968781,0.0620003-0.1569824,0.1421089-0.196022,0.2238579c1.1184235,0.0198975,2.2661743-0.5768127,3.4105911-1.1013374
			C124.1587372,39.9302101,124.1127472,39.8938866,124.0385056,39.8541756z"/>
		<path class="st15" d="M124.2123795,39.9674416c-1.1444168,0.5245247-2.2921677,1.1212349-3.4105911,1.1013374
			c-0.0400543,0.0838623-0.0579529,0.1694489-0.0663986,0.2401772c0.3138275-0.0728722,1.0729294-0.2455902,1.5605621-0.3944588
			c0.2333298-0.0646935,0.5357819-0.1077957,0.8386459-0.1608963c0.4637985-0.069458,1.0490952-0.1661186,1.1867371-0.3230133
			c0.0747833-0.0982666,0.1080856-0.167511,0.1014786-0.2376671
			C124.4123993,40.1243896,124.3279495,40.0477028,124.2123795,39.9674416z"/>
		<path class="st17" d="M128.395752,34.5636635c-0.2833252,0.2735062-0.5767212,0.5468445-0.8996124,0.8094406
			c-2.1792526,1.8203011-5.4534378,4.1356812-7.6821899,5.1049271c0.4738922-1.1191597,2.2647858-5.288208,3.0215225-6.2509155
			c0.9163666-1.1590767,2.997467-1.9716568,4.6937637-2.2730637c0.1319122,0.1729774,0.5242615,0.7618904,0.6723022,1.4352074
			C128.3500671,34.052639,128.3819885,34.4333534,128.395752,34.5636635z"/>
		<path class="st14" d="M129.2300873,35.1226006c-0.8020172,0.8617058-1.6678467,1.8019753-1.9521866,2.0954742
			c-0.194313,0.2955513-1.9569016,1.9853287-2.6150818,2.9803085c0.0009537-0.0199966,0.0114365-0.0297089,0.0023804-0.0499306
			c-0.030983-0.1906967-0.1838074-0.3441925-0.5062103-0.5114937c-0.439064-0.2399597-1.1000214-0.4449959-1.5205078-0.2346039
			c-0.3281326,0.1625061-0.5863266,0.746624-0.6772537,0.9745255c-0.2105103,0.0052185-0.7528992,0.0428619-1.0934296,0.2551308
			c-0.4543304,0.2896347-0.3801041,0.8312721-0.371048,0.8514977c0.0085754,0.03022,0.0271683,0.0606117,0.0561829,0.0812912
			c0.0195465,0.0104523,0.039093,0.0208473,0.0590515,0.0213013l0.0300293,0.0006828
			c0.0104828-0.0097084,1.0829391-0.2453003,1.7125015-0.4309769c0.2233276-0.0649185,0.5257721-0.1080208,0.8181534-0.1513519
			c0.5347672-0.0878639,1.0395584-0.1763458,1.2691422-0.3711243c-0.0119171,0.0397072-0.0133514,0.0697021-0.0152588,0.1096344
			c-0.143837,0.0767403-0.6162262,0.325985-0.9058075,0.5193977c-0.6724091,0.4546432-2.2430573,1.2688904-3.1660233,1.7278442
			c-0.0447388-0.1110001-0.0999756-0.2122879-0.17379-0.3439674c-0.110466-0.2024536-0.2585297-0.4558105-0.3932953-0.7788658
			c-0.1975708-0.4745026-0.1251602-0.9428024-0.0989456-1.0722046c2.25634-0.9186325,5.695755-3.340229,7.9584351-5.2286377
			c0.3228836-0.2625961,0.6162262-0.5359344,0.8996124-0.8094406c0.2666321,0.0760117,0.4723663,0.1707153,0.6262207,0.3042145
			C129.1919556,35.0817566,129.2110291,35.1021461,129.2300873,35.1226006z"/>
		<path class="st15" d="M130.4137115,38.0093689c-0.0132904,0.0697021-0.0066833,0.1398582-0.0204468,0.2195549
			c-0.0433807,0.2789688-0.2424622,0.6744423-0.4524994,1.0896225c-0.2095795,0.4052429-0.4305878,0.8401909-0.5610809,1.2671928
			c-0.626709,0.3356972-1.1825104,0.6530457-1.6058578,0.9233665c-0.1033173,0.0676537-0.2481155,0.1643867-0.4443207,0.2898598
			c-0.0205002,0.0095444-0.0305099,0.0093155-0.0409393,0.0190887c-0.0100098-0.0002289-0.0100098-0.0002289-0.0100098-0.0002289
			c-0.8534241,0.2605934-1.7072601,0.5311241-2.5516281,0.811882c-1.3629913,0.4489975-2.6997681,0.9785461-4.0103226,1.5886421
			c-0.0985413-0.4521713-0.2013702-0.8145409-0.2628021-0.9959221c0.9233856-0.4689484,2.5139847-1.2826843,3.1974258-1.7571564
			c0.3309937-0.222435,0.9462662-0.5284233,0.956749-0.5381927c0.0200195,0.0004539,0.0295563,0.0106812,0.0495148,0.0111351
			C126.656723,40.1637459,128.5502014,39.0868988,130.4137115,38.0093689z"/>
		<path class="st15" d="M120.4708786,44.3327446c-0.1533661,0.0665131-0.3072205,0.1430244-0.4509964,0.2197647
			c-0.1347656-0.3230553-0.3423462-0.5877762-0.5933151-0.7834778c-0.6080933-0.4738388-1.4562683-0.5331154-2.3953781-0.1544838
			c-0.1328735,0.0569687-0.2767105,0.1336479-0.4304962,0.2101631c-1.736351,0.9304657-3.2637177,3.1455879-3.580574,5.1682396
			c-0.5738602,0.4869156-1.1381912,0.9840546-1.7578125,1.3799057c-0.5367355,0.3378029-1.0819931,0.6453857-1.6553726,0.9122925
			c0.2371445-0.1445618,0.4362183-0.3300209,0.5467529-0.5475273c0.0999832-0.2076759,0.1104736-0.4274559,0.0200348-0.6295166
			c-0.1000366-0.2122269-0.35952-0.4381523-0.690979-0.6256752c0.4581451-0.1595497,1.1005783-0.4049263,1.7349167-0.6904602
			c1.1558151-0.51371,1.7654266-0.90979,1.7958755-0.9191055c0.0209732-0.0195389,0.042366-0.0490189,0.0538101-0.0787888
			c0.0014267-0.0299339,0.6626358-2.5547905,2.9838104-3.9918785c1.4644089-0.8966217,2.7306824-0.7877922,3.3844833-0.4329643
			c0.2142563,0.1249275,0.4542618,0.1303864,0.6800308,0.0154762c0.0304413-0.0092545,0.0719147-0.0383377,0.1123734-0.0474281
			C120.2885132,43.5386581,120.3913498,43.9009666,120.4708786,44.3327446z"/>
		<path class="st15" d="M104.624794,50.5818329c-0.0394974-0.0109062-0.0790634-0.0218163-0.1190414-0.022728
			c-0.6143036-0.1339684-3.0929565-1.2703362-4.0924606-1.9330597l-0.3300247-0.2174606
			c-0.9409332-0.6313667-2.2319107-1.4807091-2.7256622-2.251915c-0.1400146-0.2131996-0.2247314-0.5351181-0.2775726-0.896286
			c-0.0100098-0.0002289-0.0095367-0.0102272-0.0090561-0.0202255c-0.0347977-0.1107712-0.0599976-0.2113152-0.0852585-0.3119202
			c-0.0414047-0.1809273-0.0828094-0.3618507-0.1485367-0.4533081c-0.0471268-0.0610657-0.1042633-0.1224213-0.1804733-0.2041092
			c-0.0171738,0.7795372,0.0303421,1.8805962,0.3570328,2.3779945c0.4937439,0.7712059,1.7847214,1.6205521,2.7256546,2.251915
			l0.3300323,0.2174606c0.9994965,0.6627274,3.4781494,1.7990952,4.092453,1.9330635
			c0.039978,0.0009117,0.0795441,0.0118179,0.1190491,0.022728c0.2358398,0.0235558,2.1472855,0.2032776,3.9943924-0.1442566
			l-0.2667084-0.3906326C106.3774872,50.7514725,104.8337555,50.6065483,104.624794,50.5818329z"/>
		<path class="st14" d="M107.7073822,49.7620163c-0.2409592,0.014534-0.4623718,0.039463-0.6533356,0.0551376
			c0.3377228,0.2061005,0.7210312,0.4721947,0.9502792,0.7157402l-0.0030823-0.0045242l0.0030823,0.0045242
			c0.0018616,0.0019951,0.0045166,0.0040092,0.0063782,0.0060043c-0.0007401,0.0001068-0.0013504,0.0000916-0.0020905,0.0001945
			l0.2667084,0.3906326c0.1818314-0.0341873,0.3640976-0.0672722,0.5430298-0.1125107
			c0.3542862-0.0819016,0.6457748-0.3152428,0.6705093-0.4147148
			C109.3955536,50.2604332,108.5207596,49.7105217,107.7073822,49.7620163z"/>
		<path class="st4" d="M113.5156631,44.9044685c-0.5595627,0.3972168-1.5877533,1.1737633-2.1402359,1.8412094
			c-0.6796341,0.8144455-1.4563751,1.356739-1.6011124,1.453476c-0.251915,0.0342407-2.1344681,0.2513962-3.4745026,0.2209015
			l-0.0900345-0.0020485c0.3524475-0.251976,0.9420319-0.64851,1.1473083-0.7538795
			c0.0923538-0.0478821,0.4061813-0.1207542,0.7610016-0.2126503c0.8314362-0.2210579,1.9668121-0.5152092,2.4644623-0.8738594
			c0.6434021-0.4753227,2.1330795-1.4814072,2.3602142-1.626194L113.5156631,44.9044685z"/>
		<path class="st15" d="M141.4792175,29.1416721l0.0133514-0.2796497c-0.1999664-0.004549-0.4690399-0.0306911-0.8452454-0.1192665
			c-0.2676544-0.056076-0.6457672-0.1046562-1.0533752-0.1639786c-0.0300293-0.0006828-0.0695343-0.0115299-0.0995026-0.0122128
			c-0.0271759,0.1493378-0.071991,0.4582996-0.0200958,0.6295147c0.0795288,0.2217693,1.5271606,1.14468,1.5271606,1.14468
			l-0.8505859,1.0405865c-0.5471649-0.0724468-1.1224365,0.0244408-1.6415405,0.2026196
			c-1.8120728,0.6287117-3.1460724,2.3582687-4.3162231,3.8015976c-0.9329834,0.8786812-2.0568542,1.5630913-3.1407623,2.2483482
			c-0.1338348,0.0769691-0.2571716,0.144165-0.3810425,0.2213593c-0.0062103,0.1298561-0.0023956,0.2599411-0.0295105,0.4092789
			c-0.0552979,0.3187332-0.2648621,0.7239761-0.4862823,1.1688652c-0.1548157,0.3064575-0.3215332,0.6526794-0.4472656,0.9798203
			c1.18013-0.6031151,2.5516357-1.2319031,3.6441193-1.6769867c0.3066864-0.1330299,0.581955-0.2367439,0.8367462-0.3309784
			c0.0023804-0.0499306,0.005249-0.1098595,0.0166779-0.1395645c0.0081177-0.1698532,0.0166931-0.3496399,0.0457153-0.5389709
			c0.3149567-2.1927299,1.9519043-4.6053009,3.8216095-5.6027374c0.1542511-0.0864487,0.3076324-0.1529636,0.4514618-0.229702
			c0.9900513-0.3974304,1.8786926-0.3472404,2.5262909,0.1375046c0.2514343,0.1857033,0.4500275,0.4302025,0.5966492,0.7135506
			c0.1081696-0.7975445,0.3649445-1.9816399,0.4677887-2.4592552
			C141.8482666,30.0100117,141.460144,29.5412426,141.4792175,29.1416721z"/>
		<path class="st15" d="M98.4065018,42.0107727c0.1300964-0.8370209,0.6135406-2.5759277,2.3504639-4.7762718
			c1.2353821-1.5518227,2.7241058-2.5379066,3.8327942-3.1126213c-1.1453247,0.2939262-2.7930679,1.0463638-4.0260696,2.3382416
			c-0.073822,0.0783348-0.1581345,0.166378-0.2324371,0.2547073l-0.0324326,0.6792183
			c-0.0014343,0.029995-0.0228195,0.0594749-0.0442734,0.089016c-0.0104904,0.0097694-1.3606262,1.2389297-1.6664276,1.9819298
			c-0.3067551,0.7629967-0.494957,2.188633-0.4954376,2.1986313c-0.0009537,0.0199966-0.0119171,0.0397034-0.0228195,0.0594749
			L97.214447,43.073555c-0.0213928,0.029541-0.0628662,0.0585632-0.112854,0.0574265c0,0,0,0-0.0100098-0.0002289
			c-0.039505-0.0109062-0.0880661-0.0419807-0.0961609-0.0821991c-0.0176392-0.0503883-0.2247314-0.7450676-0.2904434-1.4664955
			c-0.0685883,0.3884354-0.1648254,0.936203-0.1491013,1.2365303c0.0076218,0.0501595,0.031395,0.1806984,0.2094803,0.4347382
			c0.1138,0.1325874,0.2371368,0.2754021,0.3614273,0.3982201c0.1246414,0.1435165,0.2378769,0.2675476,0.3135986,0.374794
			c0.2523422-0.3682022,0.5596237-0.7351494,0.9085846-1.1011505C98.325737,42.6925545,98.3441696,42.4088707,98.4065018,42.0107727
			z"/>
		<path class="st14" d="M139.47435,29.1960793c-0.0518951-0.1712151-0.0070801-0.4801769,0.0200958-0.6295147
			c-0.7357941-0.1067657-1.5505524-0.2352867-2.0024872-0.4155464c-0.6971741-0.2858715-1.8124542-0.8312435-1.822403-0.8314705
			c-0.0295563-0.0106812-0.0386047-0.0308437-0.0476685-0.0510693c-0.0728149,0.0583382-0.1452026,0.1066761-0.2285614,0.1747818
			c-1.11203,0.8546524-3.1970367,2.5871391-3.2180023,2.6066189c-0.0209198,0.0195427-0.0414124,0.0290871-0.0713806,0.0284042
			c-0.0100098-0.000227-1.2496643,0.1715622-1.734436,0.2605019c-0.7971649,0.1318741-1.2700806,0.1811066-1.5500641,0.174736
			c-0.2400055-0.0054626-0.3481445-0.0479603-0.4157715-0.0994854c-0.3194885-0.2272282-1.8409271-1.2818184-3.4142685-2.2975521
			c-1.6323929-1.037096-3.9552917-2.2899075-3.9743576-2.31036c-0.0390244-0.0209064-0.0576172-0.0512962-0.0657196-0.0914555
			c0.001915-0.0399933,0.0138321-0.0796986,0.0452347-0.1090126c0.031456-0.0292492,0.699646-0.6040401,2.8945389-1.0740223
			c1.8910751-0.396944,7.8933105-0.7203484,9.6391754-0.8006058c-0.3214569-0.1872997-0.6433716-0.3646603-0.9752502-0.5421867
			c-0.1505127,0.0065842-4.778389,0.271244-7.6695175,0.8554401c-2.2139664,0.4495907-4.2970352,1.3021011-5.19664,1.6916428
			c-0.3243179,0.2925911-0.5438309,0.4875965-0.5543137,0.4973679c-0.0314636,0.0292511-0.0623856,0.0485649-0.1033783,0.0675907
			c-0.0409393,0.0190868-3.907486,1.7409973-5.8233643,2.8673191c0.1842804,0.1242428,0.3690491,0.2384281,0.5533371,0.3626099
			c0.2719421,0.1761627,0.5333252,0.3620949,0.8052597,0.5383186l0.3100128,0.2170048
			c1.6871414,1.1483212,3.4095612,2.1874638,5.0157318,3.1440144c0.5942841,0.3434601,1.1881409,0.6969833,1.7824173,1.0405083
			c0.0585785,0.0312996,0.0752563,0.1016846,0.0523758,0.1611557c-0.0324173,0.0492477-2.3843079,5.0654678-2.5524063,5.4416275
			c-0.0228806,0.0594749-0.0562515,0.1287193-0.0800247,0.2081909c-0.1471786,0.356617-0.3172455,0.7727051-0.7153854,0.9336815
			c-0.0713806,0.0283432-0.3033447,0.0630379-0.6357651,0.1055183c-0.0823441,0.0481148-1.5920334,0.8437309-2.9278641,1.5632896
			c-0.7291336,0.3833504-2.3773575,1.3558006-3.839386,2.2024879c-1.3077621,0.7601738-2.543602,1.4820099-2.9855423,1.7219391
			c-0.6572189,0.3450737-1.4663086,0.5165901-2.3063126,0.4974747c-0.4300156-0.0097847-0.8676605-0.0697289-1.3033981-0.1696091
			c-1.3453293-0.3405952-4.5991364-2.4345551-5.2896423-3.0702324c-0.4669189-0.4308319-0.6936951-0.6749916-0.7402496-1.1409912
			c-0.3489609,0.3660011-0.6562424,0.7329483-0.9085846,1.1011505c0.0050354,0.0070724,0.013237,0.0158043,0.0178528,0.0227432
			c0.1409073,0.1931992,0.1989975,0.4445076,0.2580414,0.6758194c0.0499802,0.2111473,0.099968,0.4222374,0.1857071,0.5142097
			c0.2671127,0.2760239,3.3575974,2.4362717,4.2276306,2.87603c0.6356888,0.3144379,1.2967072,0.3095245,1.6971741,0.3086281
			c0.1304855-0.0070381,0.2305298-0.0047607,0.3000641,0.0068283c0.3595276,0.0181923,1.9595718,0.6845741,1.9790497,0.6950302
			c0.0690613,0.0215263,0.1586151,0.0335732,0.2590714,0.0258522c0.2519226-0.0342445,0.7253189-0.0934753,1.3176956-0.1299782
			c0.0604782-0.0086327,0.1304932-0.0070419,0.2005005-0.0054474c0.4400253,0.0100136,0.8948288,0.1303444,1.2967148,0.3094635
			c0.437645-0.1500053,1.2019882-0.4325829,1.9382782-0.7558365c0.9719925-0.4378166,1.5591431-0.784481,1.7239532-0.880703
			c0.0986176-0.3877487,0.8297729-2.701004,3.0890427-4.0994644c1.547287-0.9547272,2.9230728-0.8334579,3.6249619-0.4375
			c0.1462173,0.0833397,0.3061981,0.0869789,0.4500351,0.0102425c0.0409317-0.0190887,0.0819244-0.0381126,0.1228638-0.0572014
			c-0.0452271-0.1009979-0.0904465-0.2020569-0.1642609-0.3337364c-0.1204758-0.2027435-0.2681198-0.4660378-0.4023514-0.7990913
			c-0.2699585-0.636116-0.1094208-1.2724457-0.098526-1.2921524c0.0004807-0.0099983,0.0004807-0.0099983,0.0004807-0.0099983
			l0.0004807-0.0099983c0.1005249-0.2177353,2.2819519-5.4377708,3.1778259-6.587368
			c0.8524857-1.0805168,2.7793274-2.0165977,4.9194641-2.3879166c1.8872681-0.3170166,3.4911346-0.3605309,3.5011444-0.360302
			c0.0504608-0.0088005,0.0890808,0.0220451,0.107132,0.0624313c0.028595,0.0306797,0.0262146,0.0806103,0.0042877,0.1201477
			c-0.0109711,0.0197086-0.9129791,1.5091095-2.4279327,3.0445595c0.2361908,0.0853882,0.441452,0.1900291,0.5952301,0.3235283
			l0.0571442,0.0612946c0.5695648-0.6070023,1.0763397-1.1554375,1.2558746-1.3513527
			c0.86203-1.0702934,2.3068695-1.347393,3.5950775-1.4881134c0.1604614-0.0063553,0.3814545-0.0212822,0.4924011,0.1712341
			c0.0913849,0.1820602,0.0213776,0.390419-0.0648499,0.5184555c-0.9796448,1.2276382-2.976593,3.6320801-4.1476593,4.2554169
			c0.0800171,0.2117729,0.1404877,0.4131508,0.1490021,0.6533203c1.2154083-0.7122917,2.4026184-1.4652023,3.5141754-2.3098526
			c1.1701508-1.4433289,2.5041504-3.1728859,4.3162231-3.8015976c0.519104-0.1781788,1.0943756-0.2750664,1.6415405-0.2026196
			l0.8505859-1.0405865C141.0015106,30.3407593,139.5538788,29.4178486,139.47435,29.1960793z M114.0290375,44.8461456
			c-0.0205002,0.0095444-1.7172928,1.1608696-2.4607391,2.053875c-0.7753296,0.9323196-1.6435318,1.5024986-1.6844711,1.5215836
			c-0.0104828,0.0097694-0.030983,0.0193138-0.0510025,0.0188599c-0.0909271,0.0179482-2.0848389,0.2625351-3.5349274,0.2295341
			c-0.1700516-0.0038681-0.3200226-0.0072823-0.4695816-0.0206947c-0.0499878-0.0011368-0.0980682-0.0422096-0.1056976-0.0924263
			c-0.0176315-0.0503883,0.0047684-0.0998611,0.0461807-0.1288872c0.0519562-0.0388565,1.1605911-0.8235817,1.4887238-0.9860878
			c0.112915-0.0574226,0.3967133-0.1309776,0.802002-0.2317352c0.7605362-0.202713,1.9262924-0.5061226,2.3825378-0.8357468
			c0.6948776-0.5041809,2.3707581-1.6359634,2.3911896-1.6455078c0.0205002-0.0095444,0.0409927-0.0190239,0.0609512-0.0185699
			l1.0558319-0.0959625c0.0604782-0.0086327,0.1085587,0.0324364,0.1261368,0.0828247
			C114.0938034,44.7475891,114.0809326,44.8073502,114.0290375,44.8461456z"/>
		<path class="st13" d="M114.1740341,41.3896065c-0.8433533,0.0508118-1.585289,0.0739021-1.8943481,0.0469131
			c-0.7781601-0.0577469-2.4510803-0.6657333-4.4358368-1.8708725c-1.9161835-1.1735535-2.5080643-1.986969-2.8009033-2.5636101
			c-0.0552368-0.1012268-0.0061951-0.2901039,0.0409393-0.4390488l0.0247879-0.0994072
			c0.0990982-0.397747,0.2520065-0.8742218,0.4744415-1.3391685c-0.1400986,0.8367958,0.0103226,1.8801422,1.1888657,2.7769127
			c2.1733322,1.65942,3.9167252,2.6790237,5.180069,3.0577316
			C112.6630554,41.1652298,113.4873276,41.3039742,114.1740341,41.3896065z"/>
		<path class="st17" d="M121.4444199,34.6354408c-0.3457794,0.7420921-2.3504562,4.9862213-2.4976425,5.3428993
			c-0.0333023,0.0691872-0.0566635,0.1386566-0.0899734,0.2079048c-0.1362762,0.3369064-0.2729721,0.683754-0.5586777,0.7972412
			c-0.1629028,0.0562859-1.2901154,0.1806488-2.5468521,0.292057c-0.0495148-0.0111351-2.1481705-0.0889206-3.7277832-0.5548401
			c-1.2238388-0.3677979-2.9476852-1.3770103-5.0919418-3.015686c-1.5362167-1.1649055-1.1975098-2.597126-0.839325-3.3889809
			c0.074295-0.0882721,0.1285782-0.1770592,0.2024078-0.2553291c0.2423935-0.2544785,0.5033722-0.478569,0.7634048-0.6826019
			c0.0100098,0.0002251,0.0100098,0.0002251,0.0200195,0.0004539c0.0314026-0.0293121,3.9685211-2.8095589,5.6534576-3.9211178
			c0.0723343-0.0484009,0.1547394-0.0965099,0.2271347-0.1448479c0.223793,0.1350899,0.4471664,0.2801819,0.6604767,0.4249821
			c0.2619247,0.1759949,0.5333252,0.362154,0.7952499,0.5380898l0.320015,0.2172928
			c1.6871414,1.1483212,3.4190369,2.1976929,5.0257492,3.1441803
			C120.3249207,33.9699821,120.8796997,34.302597,121.4444199,34.6354408z"/>
		<path class="st14" d="M117.0670547,41.3954506c-0.5757675,0.3168945-1.5101089,0.8056145-2.36306,1.2661591
			c-0.739563,0.3931847-2.3254623,1.3170013-3.8498764,2.2122574c-1.3077621,0.7602348-2.5335999,1.4822998-2.9750595,1.7122307
			c-0.9448242,0.4984283-2.2015686,0.6098366-3.4382782,0.3017387c-1.2862244-0.319294-4.5205536-2.4027405-5.1724472-3.0075722
			c-0.6809692-0.6254501-0.7847595-0.7578087-0.6132507-1.8338661c0.1291428-0.8170242,0.6001968-2.5062294,2.3047638-4.6573257
			c1.8435745-2.3378639,4.2747345-3.3524895,5.0486145-3.6249008c0.1424026-0.0467453,0.2742615-0.0837212,0.3967056-0.1309204
			c-0.0943222,0.0878143-0.1981201,0.1654663-0.2924423,0.2532806c-0.0528488,0.0587921-0.0962296,0.1278076-0.149559,0.1965981
			c-0.0204391,0.0095444-0.0514221,0.0288582-0.0628586,0.0585632c-0.0109634,0.0197716-0.0119247,0.0397682-0.0223465,0.0494766
			c-0.5443726,0.7076073-0.8559036,1.5704651-1.0169144,2.2167931l-0.0243073,0.0894089
			c-0.0490417,0.1888733-0.1104813,0.4274559-0.0195618,0.6195145c0.3114243,0.6070938,0.9213638,1.4608955,2.8966522,2.6558113
			c1.7409515,1.0695343,3.5662766,1.8410759,4.5339127,1.9130821c0.0495148,0.0111351,0.0995026,0.0122719,0.1595078,0.0136375
			c0.5900574,0.0134277,2.015831-0.0741119,3.3320999-0.1741562l0.0100098,0.0002251l0.0004807-0.0099983
			C116.2218018,41.4861946,116.6746368,41.4365044,117.0670547,41.3954506z"/>
		<g>
			<path d="M113.9500351,44.6143799l-1.0558319,0.0959625c-0.0199585-0.0004539-0.040451,0.0090256-0.0609512,0.0185699
				c-0.0204315,0.0095444-1.696312,1.1413269-2.3911896,1.6455078c-0.4562454,0.3296242-1.6220016,0.6330338-2.3825378,0.8357468
				c-0.4052887,0.1007576-0.6890869,0.1743126-0.802002,0.2317352c-0.3281326,0.1625061-1.4367676,0.9472313-1.4887238,0.9860878
				c-0.0414124,0.029026-0.0638123,0.0784988-0.0461807,0.1288872c0.0076294,0.0502167,0.0557098,0.0912895,0.1056976,0.0924263
				c0.149559,0.0134125,0.29953,0.0168266,0.4695816,0.0206947c1.4500885,0.0330009,3.4440002-0.211586,3.5349274-0.2295341
				c0.0200195,0.0004539,0.0405197-0.0090904,0.0510025-0.0188599c0.0409393-0.0190849,0.9091415-0.5892639,1.6844711-1.5215836
				c0.7434464-0.8930054,2.440239-2.0443306,2.4607391-2.053875c0.0518951-0.0387955,0.0647659-0.0985565,0.0471344-0.148941
				C114.0585938,44.6468163,114.0105133,44.6057472,113.9500351,44.6143799z M111.3754272,46.7456779
				c-0.6796341,0.8144455-1.4563751,1.356739-1.6011124,1.453476c-0.251915,0.0342407-2.1344681,0.2513962-3.4745026,0.2209015
				l-0.0900345-0.0020485c0.3524475-0.251976,0.9420319-0.64851,1.1473083-0.7538795
				c0.0923538-0.0478821,0.4061813-0.1207542,0.7610016-0.2126503c0.8314362-0.2210579,1.9668121-0.5152092,2.4644623-0.8738594
				c0.6434021-0.4753227,2.1330795-1.4814072,2.3602142-1.626194l0.5728989-0.0469551
				C112.9561005,45.3016853,111.9279099,46.0782318,111.3754272,46.7456779z"/>
			<path d="M131.3703156,33.4914017c-0.0324097,0.0492477-0.1385956,0.1768265-0.2795715,0.4035873
				c-0.1638641,0.2862968-0.5477142,0.7775345-0.6220093,0.8658028c0.0114288-0.029705,0.0447388-0.0989494,0.1433563-0.2766876
				C130.78685,34.1780968,131.2535858,33.6287498,131.3703156,33.4914017z"/>
		</g>
		<path class="st14" d="M112.9810028,50.231987c-1.4996796,0.5858345-3.1092834,1.1691666-3.3707428,1.1932449
			c-0.0499878-0.0011406-0.1404953,0.0068092-0.2805176,0.003624c0.0819321-0.0381737,0.1638565-0.0762825,0.2462006-0.1243935
			c0.5838699-0.2766762,1.1391983-0.5840302,1.6863632-0.9316063c0.6196213-0.3958511,1.1839523-0.8929901,1.7578125-1.3799057
			c-0.0014343,0.029995-0.0123901,0.0497017-0.0138245,0.0797005
			C112.9458084,49.5012436,112.9372177,49.8910408,112.9810028,50.231987z"/>
		<path class="st14" d="M127.2885666,41.8180542c-1.134903,0.704113-3.6903687,2.2258911-6.3582687,3.7950974
			c-0.0371094-0.4808006-0.1232529-0.9827347-0.2136917-1.3948021c1.3105545-0.610096,2.6473312-1.1396446,4.0103226-1.5886421
			c0.844368-0.2807579,1.698204-0.5512886,2.5516281-0.811882
			C127.2785568,41.8178253,127.2785568,41.8178253,127.2885666,41.8180542z"/>
		<path class="st14" d="M120.683136,45.7575455c-0.1343002,0.0869026-0.2781372,0.1636429-0.4124451,0.2506104
			c0.0162888-0.5496521-0.059906-1.0513573-0.2508087-1.4556465c0.1437759-0.0767403,0.2976303-0.1532516,0.4509964-0.2197647
			C120.5703735,44.7650414,120.656044,45.2769127,120.683136,45.7575455z"/>
	</g>
	<g>
		<g>
			<path d="M119.3836746,42.3010063l-0.0800171,0.039978c-0.1300049,0-0.4000244-0.1300049-0.6400146-0.75l0.2600098-0.3099976
				l0.3550339-0.1220207C119.3486938,41.2089539,119.5936356,41.9009819,119.3836746,42.3010063z"/>
			<path class="st18" d="M118.9710846,41.5279732l0.0497742-0.0806274l0.0847855,0.0214386l-0.0002289,0.042263
				l-0.0050888,0.0890617l0.0179977,0.06633l0.0663223,0.0396461l0.086731,0.0825386l0.0062943-0.1007614l-0.0223618-0.1040192
				l0.0568542,0.0910187l-0.0135574,0.1709862l-0.0118942,0.0747528l0.0109482,0.0942612l0.0065765,0.0565796l-0.0196686,0.0299072
				l-0.0245209,0.0766983l-0.0082855-0.1599121l-0.0296555-0.0338097l-0.0342484-0.0292435l-0.0294189-0.0760841
				l-0.0857544-0.0519753l-0.0308533-0.0221138l-0.0471268,0.0149536l0.0430222,0.1046638l-0.0536957-0.0415916
				l-0.0235748-0.0923157l-0.0097427-0.1059685l0.0274429,0.0149384l0.0194397,0.0123558l0.0172424-0.0065002l0.0019226-0.1384811
				l-0.0541611,0.0429077l-0.0250244-0.0383415l0.0070343-0.0279541L118.9710846,41.5279732 M118.964241,41.3140869
				l-0.2333832,0.2932129c0.2816925,0.7203102,0.5583725,0.6890678,0.6135101,0.6767235
				c0.1774902-0.3536949-0.0315399-0.9355125-0.0881729-1.0687943L118.964241,41.3140869"/>
		</g>
	</g>
</g>
</svg>
