<?xml version="1.0" encoding="utf-8"?>
<!-- Generator: Adobe Illustrator 27.6.1, SVG Export Plug-In . SVG Version: 6.00 Build 0)  -->
<svg version="1.1" id="Layer_1" xmlns="http://www.w3.org/2000/svg" xmlns:xlink="http://www.w3.org/1999/xlink" x="0px" y="0px"
	 viewBox="0 0 172.8999939 90" style="enable-background:new 0 0 172.8999939 90;" xml:space="preserve">
<style type="text/css">
	.st0{fill:#8797C6;}
	.st1{fill:#CCCCCC;}
	.st2{fill:#3751A0;}
	.st3{fill:#F79420;}
	.st4{fill:#FFFFFF;}
	.st5{fill:#B3B3B3;}
	.st6{fill:#797979;}
	.st7{fill:#888888;}
	.st8{fill:#BABABA;}
	.st9{fill:#1A1A1A;}
	.st10{fill:#FF0000;}
	.st11{fill:#BF0000;}
	.st12{fill:#4D4D4D;}
	.st13{fill:#333333;}
	.st14{fill:#8C0000;}
	.st15{fill:#FFFF00;}
</style>
<g>
	<g>
		<path d="M110.4947815,81.5010147c0.0300293-0.1000366,0.0100098-0.210022-0.039978-0.2900391
			c-0.0599976-0.0899658-0.1500244-0.1499634-0.2399902-0.1699829l-6.2800293-1.289978l-8.289978-1.9500122l-5.8400269-12.9199829
			c-0.1099854-0.0200195-0.210022-0.0599976-0.289978-0.1300049l-3.2200317,0.6400146
			c-0.2099609-0.1000366-0.4299927-0.1800537-0.6599731-0.2300415c-0.2300415-0.0599976-0.4700317-0.0899658-0.7200317-0.0899658
			c-0.6699829,0-1.289978,0.1999512-1.7999878,0.5499878c-0.2299805,0.1499634-0.4400024,0.3200073-0.6199951,0.5200195
			l-2.289978,0.4499512l-1.0100098,0.210022l-0.6500244-0.1699829c-0.1300049-0.0300293-0.25-0.0599976-0.4099731-0.0700073
			c-0.0800171-0.0100098-0.1600342-0.0100098-0.2399902-0.0100098c-0.4900513,0-0.960022,0.1099854-1.3800049,0.3099976
			c-0.3400269,0.1500244-0.6300049,0.3800049-0.8900146,0.6400146l-1.4400024,0.2799683l-0.2800293-0.3499756l5.6900024-1.8500366
			l2.6500244-0.8599854l1-0.3299561l3.4500122-1.1200562l0.9400024-0.2999878l5.9899902-1.9500122l-0.0499878-0.1499634
			l2.0499878-0.6900024l-0.4299927-1.2700195l1.3099976-0.3599854c-0.1400146,0.5900269-0.2800293,1.1900024-0.4299927,1.7799683
			c-0.0200195,0.0600586,0.2699585,0.1400146,0.3099976,0.1500244c0.2999878,0.0800171,0.3999634-0.1099854,0.5-0.3499756
			c0.0999756-0.2200317,0.2000122-0.4400024,0.2999878-0.6500244c0.2000122-0.4500122,0.4000244-0.8900146,0.5999756-1.3399658
			c0.0200195-0.0600586,0.0500488-0.1200562,0.0800171-0.1800537c0.0700073-0.1699829,0.0800171-0.3699951,0.0200195-0.5499878
			l-0.2000122-0.6099854c-0.0999756-0.3200073-0.4299927-0.4899902-0.75-0.4099731l-2.0900269,0.539978
			c-0.0499878,0.0200195-0.0899658,0.0499878-0.1399536,0.0700073l-11.2000122,2.7299805l-0.0300293-0.0899658
			c-0.0899658-0.2700195-0.3899536-0.4200439-0.6699829-0.3300171l-0.1300049,0.0499878
			c-0.2799683,0.0900269-0.4299927,0.3900146-0.3300171,0.6699829l0.0100098,0.0300293l-0.5799561,0.1900024l-10.8200073,3.539978
			l-0.0200195-0.0299683h-6.5499878v6.0999756h-1.2000122v-2.8200073h-1.210022l-3.25-5.8999634v-1
			c0-0.210022-0.1699829-0.3800049-0.3699951-0.3800049h-2.8699951c-0.2099609,0-0.3800049,0.1699829-0.3800049,0.3800049v4.6899414
			c0,0.1500244,0.1000366,0.2800293,0.2300415,0.3400269l0.4899902,1.9199829h-1.3900146v-4.2600098
			c0-1.4799805-1.1799927-2.6899414-2.6300049-2.6899414h-8.3599854l-8.2399902,6.3399658l-11.380003,1.8099976
			c-1.7300415,0.2800293-2.9899902,1.7800293-2.9899902,3.5800171v3.8200073h-0.6400146
			c-1.4500122,0-2.6199951,1.1799927-2.6199951,2.6199951v3.539978c0,1.4400024,1.1699829,2.6099854,2.6199951,2.6099854h5.4699707
			l0.8000488-2.0499878h0.4499512c-0.1900024,0.5599976-0.289978,1.1699829-0.289978,1.7900391
			c0,0.1900024,0.0100098,0.3799438,0.0299683,0.5599976c0.2800293,2.9299927,2.7600098,5.2299805,5.7700176,5.2299805
			s5.4899902-2.2999878,5.7700195-5.2299805c0.0200195-0.1800537,0.0299683-0.3699951,0.0299683-0.5599976
			c0-0.6200562-0.0999756-1.2300415-0.289978-1.7900391h0.6500244l0.2399902,0.6400146H74.224762
			c-0.0799561,0.3699951-0.1199951,0.7600098-0.1199951,1.1500244c0,0.1900024,0.0100098,0.3799438,0.0300293,0.5599976
			c0.2799683,2.9299927,2.7600098,5.2299805,5.7699585,5.2299805c3,0,5.4800415-2.2999878,5.7600098-5.2299805
			c0.0200195-0.1800537,0.0300293-0.3699951,0.0300293-0.5599976c0-0.3900146-0.0400391-0.7800293-0.1199951-1.1500244h7.6099854
			V78.530983l0.3300171,0.6799927c-0.1300049,0.3600464-0.0200195,0.7600098,0.2999878,0.9800415l0.9899902,0.6799927
			c0.210022,0.1499634,0.5,0.0999756,0.6500244-0.1199951l8.2099609,1.9299927l6.1000366,1.0599976
			c0.0199585,0,0.039978,0.0100098,0.0599976,0.0100098c0.1699829,0,0.3200073-0.1199951,0.3599854-0.2900391l0.3099976-1.2999878
			C110.5248108,82.0610123,110.4947815,81.5010147,110.4947815,81.5010147z M88.224762,59.3509903l-4.3699951,1.4199829
			l-0.1099854-0.3299561L88.224762,59.3509903z M71.4947815,64.4510269l-0.0299683-0.0400391l10.5599976-3.4500122
			l0.5699463-0.1900024l0.1300049,0.3800049l-0.5599976,0.1799927h-0.0100098l-10.4199829,3.4100342L71.4947815,64.4510269z
			 M90.5047913,73.280983l-7.6400146-1.9199829h-1.710022l1.7900391-0.3599854
			c0.5499878,0.4199829,1.2299805,0.6699829,1.9699707,0.6699829c1.0500488,0,1.9899902-0.5,2.5800171-1.2700195
			c0.0900269-0.1099854,0.1599731-0.2299805,0.2399902-0.3499756l1.210022-0.2399902l1.7099609,3.5199585
			C90.6047668,73.3110123,90.5547791,73.2909927,90.5047913,73.280983z"/>
		<polygon class="st0" points="109.6847839,82.3610001 109.5447693,82.9410172 103.8147888,81.9410172 95.9147644,80.0809708 
			96.3547668,79.4510269 96.3547668,79.4109879 103.7748108,81.1609879 		"/>
		<g>
			<path class="st0" d="M84.5404434,62.7983208l0.1199951,0.3400269l0.5800171-0.1800537L84.5404434,62.7983208z
				 M84.5404434,62.7983208l0.1199951,0.3400269l0.5800171-0.1800537L84.5404434,62.7983208z M84.3604507,62.248333
				l0.2999878,0.8900146l1.5200195-0.4900513L84.3604507,62.248333z"/>
			<path class="st1" d="M52.4304581,66.3883438V81.048317H38.7904434l-0.9699707-2.0999756
				c-0.4700317-1.0400391-1.5200195-1.710022-2.6600342-1.710022h-5.6099873c-1.1699829,0-2.2399902,0.710022-2.7000122,1.789978
				h-4.0200195v-3.5999756c0-0.789978,0.5599976-1.4799805,1.3000488-1.5999756l11.8899555-1.9000244l8.1000366-6.2299805h7.6799927
				C52.1504288,65.6983414,52.4304581,66.0083389,52.4304581,66.3883438z"/>
			<rect x="54.4304581" y="73.7383194" class="st1" width="6.75" height="7.3099976"/>
			<path class="st1" d="M91.1804581,78.6482925v2.4000244h-4.9799805l-0.4700317-1.2600098
				c-0.5-1.3099976-1.7700195-2.1900024-3.1799927-2.1900024h-5.1500244c-1.3200073,0-2.5199585,0.7700195-3.0799561,1.9700317
				l-0.6900024,1.4799805H63.1804581v-4.9299927h12.5899658c0.0100098,0.0100098,7.25-0.039978,7.25-0.039978l2.0300293,0.5599976
				l5.6599731,1.4199829c0.1600342,0.039978,0.2900391,0.1300049,0.3699951,0.2600098
				c0.0300293,0.039978,0.0500488,0.0799561,0.0700073,0.1300049
				C91.1704483,78.5083389,91.1804581,78.5783463,91.1804581,78.6482925z"/>
			<path class="st0" d="M94.6904678,77.4383316l-0.710022,1.0199585l-0.5499878-1.1199951l-0.0599976-0.1300049
				l-4.0100098-8.2399902l-1.2800293,0.25c0.0599976-0.2299805,0.1000366-0.4599609,0.1100464-0.7099609
				c0.0100098-0.0500488,0.0100098-0.0900269,0.0100098-0.1400146c0-0.210022-0.0200195-0.4199829-0.0600586-0.6199951
				c-0.0799561-0.4299927-0.25-0.8200073-0.4799805-1.1699829l1.6900024-0.3400269l4.9400024,10.3699951L94.6904678,77.4383316z"/>
			<polygon class="st0" points="92.6804581,60.538311 91.6204605,60.8783379 86.1804581,62.6482964 84.3604507,62.248333 
				84.2704239,61.998333 92.3004532,59.3883476 92.4404678,59.8083305 			"/>
			<polygon class="st0" points="83.0804214,62.3883476 83.4441757,63.5420189 71.1904678,67.5282974 71.0704727,67.378334 
				70.9304581,67.2082901 68.4404678,67.2082901 68.4404678,67.1583023 82.5904312,62.5483208 			"/>
			<polygon class="st2" points="61.5504532,72.0683365 57.850441,72.0683365 56.1704483,65.4483414 57.9104385,65.4483414 			"/>
			<polygon class="st0" points="72.8604507,72.7583389 66.3804703,72.7583389 66.3804703,69.2082901 69.9804459,69.2082901 			"/>
			<path class="st3" d="M57.9745064,63.5181313v0.9299889h-2.1199951v-0.9299889H57.9745064z M55.8545113,60.5081215v2.2600098
				h2.1199951v-2.2600098H55.8545113z"/>
			<path class="st4" d="M24.1344814,70.2681274l11.8900127-1.9000244v3.5600586L24.1344814,73.828125
				c-0.7399902,0.1199951-1.2999878,0.8099976-1.2999878,1.6000366V71.868103
				C22.8344936,71.078125,23.3944912,70.3881226,24.1344814,70.2681274z M51.8044624,62.1381264h-7.6799927v3.5599937h7.6799927
				c0.3500366,0,0.6300049,0.3099976,0.6300049,0.6900024v-3.5599937
				C52.4344673,62.4481239,52.1544991,62.1381264,51.8044624,62.1381264z"/>
			<polygon class="st5" points="44.1244698,62.1381264 44.1244698,65.6981201 36.0244942,71.9281616 36.0244942,68.368103 			"/>
			<polygon class="st6" points="39.2150345,73.3264008 44.493187,68.3660202 50.8194313,68.3660202 50.8194313,73.3264008 			"/>
			<path class="st7" d="M26.654501,84.7581177h-7.0900269c-1.0999756,0-1.9899902,1.0900269-1.9899902,2.4400024v0.3400269
				c0,1.3499756,0.8900146,2.4500122,1.9899902,2.4500122h12.8599834
				C29.4145107,89.9881592,26.9344692,87.6881104,26.654501,84.7581177z M79.9045029,89.9881592H32.4244576
				c3.0100098,0,5.4900513-2.3000488,5.7700195-5.2300415h35.9400063
				C74.4145126,87.6881104,76.8944931,89.9881592,79.9045029,89.9881592z M79.1944809,69.8481445
				c0,0.539978-0.3300171,1-0.789978,1.2000122c-0.0200195,0-0.0300293,0.0099487-0.0400391,0.0099487
				c-0.1300049,0.0500488-0.2599487,0.0800171-0.4099731,0.0800171c-0.0200195,0.0100098-0.039978,0.0100098-0.0599976,0.0100098
				c-0.0100098,0-0.0100098,0-0.0200195,0c-0.7099609-0.0100098-1.2799683-0.5900269-1.2799683-1.2999878
				c0-0.7200317,0.5799561-1.2999878,1.2999878-1.2999878C78.6144638,68.5481567,79.1944809,69.1281128,79.1944809,69.8481445z
				 M86.2044907,68.368103c0,0.7200317-0.5800171,1.3000488-1.289978,1.3000488
				c-0.6500244,0-1.1900024-0.4700317-1.2800293-1.1000366c-0.0100098-0.0599976-0.0200195-0.1300049-0.0200195-0.2000122
				c0-0.3599854,0.1500244-0.6899414,0.3800049-0.9199829c0.2300415-0.2299805,0.5599976-0.3800049,0.9200439-0.3800049
				c0.5799561,0,1.0799561,0.3900146,1.2299805,0.9299927c0.0200195,0.0300293,0.0299683,0.0700073,0.0299683,0.1100464
				C86.1944809,68.1881104,86.2044907,68.2781372,86.2044907,68.368103z M82.6944809,84.1981201
				c0,1.5400391-1.25,2.7900391-2.789978,2.7900391c-1.5499878,0-2.7999878-1.25-2.7999878-2.7900391
				c0-1.5499878,1.25-2.7999878,2.7999878-2.7999878C81.4444809,81.3981323,82.6944809,82.6481323,82.6944809,84.1981201z
				 M35.2245064,84.1981201c0,1.5400391-1.2600098,2.7900391-2.8000488,2.7900391c-1.5399761,0-2.7999859-1.25-2.7999859-2.7900391
				c0-1.5499878,1.2600098-2.7999878,2.7999859-2.7999878C33.9644966,81.3981323,35.2245064,82.6481323,35.2245064,84.1981201z"/>
			<path class="st7" d="M153.5258942,88.6117554c0.2936401-0.5598297,0.2185669-1.2432022,0.2055054-1.8515701
				c-0.0103912-0.4842606,0.2152405-2.152832-0.1526794-2.3791199c-0.0565338-0.0347748-0.1947327,0.0136871-0.2604218-0.0000458
				c-0.2681122-0.056076-0.6104584,0-0.8839722,0c-1.0183105,0-2.0366211,0-3.0549316,0c-3.3061676,0-6.6123352,0-9.9185028,0
				c-4.1485443,0-8.2970734,0-12.4456177,0c-3.9704819,0-7.9409637,0-11.9114456,0c-2.7720032,0-5.5440063,0-8.3160019,0
				c-0.681015,0-1.3620377,0-2.043045,0c-0.5499878,0-1.1099854,0.0700073-1.6500244,0.2199707
				c-0.4400024,0.1199951-0.8599854,0.2900391-1.25,0.5200195c-0.5299683,0.2999878-1.1999512,0.7999878-1.5299683,1.3900146
				h-7.1600342v-1.75h-7.4899902c-0.2799683,2.9299927-2.7600098,5.2299805-5.7600098,5.2299805h13.25v-2.0599976h7.3100586
				c0.7999878,0.8999634,1.9199829,1.460022,3.0699463,1.8099976c0.5800171,0.0800171,1.1400146,0.1699829,1.710022,0.25
				c1.4986649,0,2.9973297,0,4.4959946,0c3.6055756,0,7.2111435,0,10.8167191,0c4.3829041,0,8.7658081,0,13.1487122,0
				c3.8306732,0,7.6613312,0,11.4920044,0c1.2927551,0,2.5855103,0,3.8782654,0
				c1.5219727,0,3.5573578,0.2046356,4.4270172-1.3380508C153.5111847,88.6392975,153.5186615,88.6255646,153.5258942,88.6117554z"
				/>
			<path class="st8" d="M20.8344936,77.6881104v1.3400269H20.194479c-0.210022,0-0.4199829,0.0299683-0.6199951,0.0800171
				v-0.8000488c0-0.3399658,0.2800293-0.6199951,0.6199951-0.6199951H20.8344936z M20.194479,81.0281372
				c-0.3399658,0-0.6199951,0.2799683-0.6199951,0.6199951v0.2000122c0,0.3399658,0.2800293,0.6099854,0.6199951,0.6099854
				h4.1000366l0.2699585-0.6900024l0.1500244-0.7399902H20.194479z M33.3008041,81.7431335
				c-0.593647,0-1.0793686,0.4818649-1.0793686,1.0793686c0,0.5936737,0.4857216,1.0755386,1.0793686,1.0755386
				c0.5936699,0,1.0793915-0.4818649,1.0793915-1.0755386C34.3801956,82.2249985,33.894474,81.7431335,33.3008041,81.7431335z
				 M80.5944901,81.7431335c-0.5936432,0-1.0793686,0.4818649-1.0793686,1.0793686
				c0,0.5936737,0.4857254,1.0755386,1.0793686,1.0755386c0.5936737,0,1.0793915-0.4818649,1.0793915-1.0755386
				C81.6738815,82.2249985,81.1881638,81.7431335,80.5944901,81.7431335z"/>
			<polygon class="st2" points="61.1844673,68.578125 61.1844673,69.8381348 60.4944649,68.578125 			"/>
			<polygon class="st2" points="56.324482,69.0881348 54.4344673,69.0881348 54.4344673,71.7381592 56.9944649,71.7381592 			"/>
			<polygon class="st2" points="58.5144844,62.2981606 58.5144844,64.9781494 60.0844917,67.828125 61.5544624,67.828125 			"/>
			<path class="st2" d="M76.5544662,74.1381226h0.5700073c0,0,0,0,0.0100098,0l3.039978,0.0100098h3.1400146l7.7200317,1.9299927
				c-0.0400391-0.1099854-0.0900269-0.210022-0.1700439-0.3200073l-0.1099854-0.1099854
				c-0.1799927-0.2000122-0.4099731-0.3400269-0.6900024-0.4199829l-0.0599976-0.0100098l-7.5100098-1.8900146l-6.5999756-0.0100098
				L76.5544662,74.1381226z"/>
			<polygon class="st0" points="94.6744614,59.7081337 94.4344711,58.9981117 93.2145004,59.4081459 93.4544907,60.1181068 			"/>
			<path class="st0" d="M80.5945053,67.9681396c0.3699951,0.539978,0.5999756,1.1799927,0.5999756,1.8800049
				c0,0.2099609-0.0200195,0.4099731-0.0599976,0.5999756c0,0.0200195,0,0.0300293-0.0100098,0.0400391
				c0,0.0299683,0,0.0499878-0.0100098,0.0699463c0,0.0200195-0.0099487,0.0300293-0.0099487,0.0400391l1.1999512-0.2300415
				c-0.2999878-0.3999634-0.5199585-0.8499756-0.6199951-1.3599854c-0.0100098-0.0199585-0.0199585-0.0499878-0.0199585-0.0799561
				c-0.0200195-0.1100464-0.0300293-0.2200317-0.0400391-0.3300171c-0.0100098-0.0800171-0.0100098-0.1500244-0.0100098-0.2300415
				c0-0.2099609,0.0400391-0.4099731,0.0800171-0.6099854L80.5945053,67.9681396z"/>
			<path class="st0" d="M72.8044662,69.5081177l0.5100098,0.6400146l0.210022,0.25l1.1900024,1.4699707l0.5199585-0.1099854
				c-0.0199585-0.039978-0.0599976-0.0700073-0.0899658-0.1099854h-0.0100098
				c-0.3399658-0.5100098-0.539978-1.1300049-0.539978-1.7999878c0-0.2399902,0.0299683-0.4800415,0.0899658-0.710022
				L72.8044662,69.5081177z"/>
			<polygon class="st0" points="67.8044662,66.0181274 68.5945053,65.7581177 66.3844833,65.7581177 66.3844833,67.2081299 
				67.6844711,67.2081299 			"/>
			<rect x="63.1844673" y="71.8581543" class="st2" width="1.2000122" height="2.2599487"/>
		</g>
		<path d="M107.911705,81.9562759l-0.3400269,1.6400146l-0.3200073,1.5800171
			c-0.0299683,0.1699829-0.1900024,0.2999878-0.3699951,0.2999878c-0.0200195,0-0.0499878-0.0100098-0.0700073-0.0100098
			l-2.1300049-0.4400024c-0.1999512-0.039978-0.3299561-0.2399902-0.289978-0.4400024l0.3200073-1.5799561l0.3399658-1.6400146
			c0.0400391-0.2000122,0.2300415-0.3400269,0.4400024-0.289978l2.1300049,0.4299927
			C107.8216782,81.5563126,107.951683,81.746315,107.911705,81.9562759z"/>
		<polygon class="st0" points="107.1017075,82.1662979 106.911705,83.0763321 106.4016953,82.9662857 105.5216904,82.786293 
			105.7116928,81.8863297 		"/>
		<polygon class="st0" points="106.7616806,83.8063126 106.5916977,84.6562881 105.201683,84.3663101 105.371666,83.5262833 
			105.8916855,83.6263199 		"/>
	</g>
	<g>
		<g>
			<path d="M138.436203,77.7542343l0.0297546,0.0036087c0.0111237-0.0086746,0.0222778-0.0174026,0.0346222-0.0360718
				C138.4882355,77.7404404,138.4572754,77.7467651,138.436203,77.7542343z M138.436203,77.7542343l0.0297546,0.0036087
				c0.0111237-0.0086746,0.0222778-0.0174026,0.0346222-0.0360718
				C138.4882355,77.7404404,138.4572754,77.7467651,138.436203,77.7542343z M138.436203,77.7542343l0.0297546,0.0036087
				c0.0111237-0.0086746,0.0222778-0.0174026,0.0346222-0.0360718
				C138.4882355,77.7404404,138.4572754,77.7467651,138.436203,77.7542343z M138.436203,77.7542343l0.0297546,0.0036087
				c0.0111237-0.0086746,0.0222778-0.0174026,0.0346222-0.0360718
				C138.4882355,77.7404404,138.4572754,77.7467651,138.436203,77.7542343z"/>
			<path d="M138.5005798,77.7217712c-0.0123444,0.0186691-0.0234985,0.0273972-0.0346222,0.0360718l-0.0297546-0.0036087
				C138.4572754,77.7467651,138.4882355,77.7404404,138.5005798,77.7217712z"/>
			<path d="M155.3255157,81.0222702c-0.0163879-1.1100311-0.5466461-1.9701996-0.9632263-2.9373856
				c-0.0249176-0.0433578-0.0598602-0.0878677-0.1058655-0.1236343c0.1552582-0.2834167,0.2446136-0.60495,0.2050018-0.9421921
				c-0.0854645-2.3675537-2.623764-3.199295-4.5234375-3.7320251c-2.0702362-0.7044296-5.7062836-1.2060165-7.6607666-1.4532394
				c-3.3234253-0.8363647-8.394043-2.5495911-11.7096863-2.9518738c-4.0595932-0.6637726-8.1414032,0.4325943-11.9292603,1.8466492
				c0,0-0.4620895,0.1554337-0.463295,0.1653748c-0.3267136-0.1302643-0.6569748-0.2307739-0.998436-0.3226166
				c-3.9058456-1.0178299-8.6497421,0.4716263-12.397377,2.0517654l-4.1369095,1.9660568
				c-0.8935318,0.5564041-1.4356613,1.2058563-1.3373718,1.9732819c-0.0024109,0.0198746-0.0048141,0.0396881,0.001503,0.0707016
				l0.2798615,1.595314c-0.3763351,0.1960907-0.7259903,0.5868149-0.6294556,1.2029648
				c0.1382828,0.8528137,0.6495743,1.6199951,1.4142303,2.1258087c0.6900406,0.4564285,1.7546616,0.8978729,1.8030853,0.913826
				c0.0285492,0.0134888,0.0583572,0.0171051,0.1179199,0.0243301c1.194519,0.3665771,3.0942612,0.5668182,4.20755,0.7724075
				c0.1250229,0.0230942,0.2519226-0.0196991,0.3373947-0.1142502c0.1112289-0.1230469,0.070961-0.2371063,0.0858536-0.3823395
				c0.0083542-0.0814362,0.0291367-0.1651459,0.0824814-0.2272415c0.1076431-0.1253052,0.3404999-0.0499954,0.4892654-0.0319443
				c0.1767273,0.0214462,0.353447,0.0428848,0.5301666,0.0643234c0.4657364,0.0565109,0.9314651,0.1130142,1.3971939,0.1695175
				c0.5537033,0.0671844,1.1074066,0.1343613,1.6611099,0.2015381c0.5675964,0.0688705,1.1351929,0.1377335,1.7027893,0.2065964
				c0.5074081,0.0615616,1.0148163,0.1231308,1.5222168,0.1846924c0.3731308,0.0452652,0.7462616,0.090538,1.1193924,0.1358109
				c0.1293869,0.0157013,0.3632126-0.0076218,0.4154816,0.1454773c0.0225601,0.0660782,0.0050049,0.1380997,0.0126724,0.2064209
				c0.007103,0.0632553,0.0194321,0.1213913,0.0527573,0.1767502c0.0640793,0.1064453,0.1715698,0.1611404,0.2928925,0.1697922
				c1.0086288,0.0719604,2.016098,0.153923,3.0148392,0.2247467l16.3489304,1.99366c0,0,4.7358246,0.735733,4.7457733,0.7369385
				c0.0496216,0.0060272,0.0929718-0.0189056,0.1350708-0.0339584c0.0210876-0.0075302,0.0496216,0.0060196,0.0806427-0.0003052
				c0.1846161-0.0376129,0.2017365-0.1773148,0.3096008-0.2942505c0.020401-0.0221176,0.0411377-0.0445175,0.0667114-0.0603638
				c0.1385803-0.0858231,0.3993988-0.0218811,0.5571594-0.0073471c0.1823578,0.0167999,0.3647156,0.0335922,0.5470581,0.0503922
				c0.4756927,0.0438156,0.9513855,0.0876312,1.427063,0.1314545c0.5617065,0.0517349,1.1234131,0.1034775,1.6851196,0.15522
				c0.5733795,0.0528183,1.146759,0.105629,1.7201385,0.1584473c0.5107117,0.0470428,1.0214233,0.0940857,1.532135,0.1411285
				c0.3736877,0.0344238,0.7473907,0.0688477,1.1210785,0.1032715c0.1738586,0.0160141,0.362854,0.0576477,0.4890442,0.187973
				c0.0579681,0.0598679,0.0637207,0.1356812,0.1329651,0.1892624c0.0719147,0.0556412,0.1628723,0.0823441,0.2534332,0.0762329
				c0.8829346-0.0540771,2.140686-0.0424576,2.6121826-1.0228348l0.1676025-0.3020172
				c0.6381836-1.1918259,1.6214447-2.3216095,1.8905182-3.7092743
				C155.1427917,82.2794342,155.3131104,81.7057495,155.3255157,81.0222702z M138.4659576,77.757843l-0.0297546-0.0036087
				c0.0210724-0.0074692,0.0520325-0.0137939,0.0643768-0.0324631
				C138.4882355,77.7404404,138.4770813,77.7491684,138.4659576,77.757843z"/>
			<path class="st9" d="M115.8286438,82.6771622c-0.2902679,2.3924255-2.4608917,4.0933838-4.8533783,3.8031082
				c-2.3824921-0.2890625-4.0834427-2.4597473-3.7931747-4.8521729c0.2890701-2.3825531,2.4597549-4.0835037,4.842247-3.7944412
				C114.4168243,78.1239319,116.1177139,80.2946091,115.8286438,82.6771622z"/>
			<path class="st9" d="M149.8393707,86.1387329c-0.2902832,2.3924866-2.4609528,4.0933762-4.8435059,3.804306
				c-2.3924255-0.2902679-4.0933838-2.4608917-3.8031158-4.8533783c0.2890625-2.3824921,2.4597473-4.0834427,4.8521729-3.7931747
				C148.427475,81.585556,150.1284332,83.7562408,149.8393707,86.1387329z"/>
			<path class="st10" d="M138.4333954,77.7575836c-0.01474,0.0054016-0.0251312,0.0196991-0.0405579,0.021637
				c-0.0098724-0.0011978-0.8383636,0.0191574-1.664505,0.3520737c-0.1374969,0.053833-0.1522522,0.0923157-0.1522522,0.0923157
				l1.8455505,0.6470413c0.0198669,0.0024109,0.0285492,0.0134888,0.0372772,0.0246277
				c0.6441498-0.2199173,1.4387817-0.4577866,2.1035004-0.7311554L138.4333954,77.7575836z"/>
			<path class="st1" d="M108.1529388,75.7018814c-1.013855,0.2194519-3.684639,0.8121185-4.5233688,1.0830688
				c-1.039444,0.3473053-1.4148788,0.4528732-1.7473068,0.4528122c-0.2120514,0.0045242-0.4517975-0.0950851-0.6046524-0.1639862
				c0.2015686-0.1669388,0.5788727-0.453598,0.85746-0.5910263c0.279808-0.1474228,1.5468979-0.2958832,2.5585861-0.4148865
				c0.4190292-0.0498657,0.8071136-0.0934677,1.1046829-0.13797c0.9632645-0.134964,2.0071106-0.2701721,2.2017593-0.2969666
				L108.1529388,75.7018814z"/>
			<path class="st11" d="M133.823822,80.9822083c-0.0502777,0.1651306-0.1104431,0.3291168-0.1916809,0.5005722
				c-0.9977875,1.9137802-1.5062408,2.6176071-1.7745972,2.8368835c-0.2867279-0.0448074-0.574585-0.0797348-0.8624573-0.1146622
				l-0.0099335-0.0012054c-0.7102661-0.2071152-1.4030151-0.3918686-2.0720367-0.5233994
				c-4.4747696-0.8955154-8.1880798-1.5071869-11.2730713-1.9016495c0.0003586-0.2517929-0.0116272-0.4849091-0.0209656-0.6572723
				c-0.0300522-0.416687-0.0004807-1.1585159,0.0712433-1.9153976c1.1500244,0.0690079,4.9190903,0.304718,5.4190674,0.3351288
				c0.0075302,0.02108,0.0138474,0.0520935,0.0312576,0.0743103
				C126.5630722,80.3833618,130.2749939,80.5919647,133.823822,80.9822083z"/>
			<path class="st10" d="M130.9851532,84.2037964c-0.8339233-0.1011734-1.6725769-0.1626587-2.5197449-0.1546478
				c-3.6442261-0.0190887-7.2334137-0.2429962-10.8562012-0.5213318c0.0159531-0.3808517,0.0367889-1.1338272,0.030838-1.7490692
				c3.0849915,0.3944626,6.7983017,1.006134,11.2730713,1.9016495
				C129.5821381,83.8119278,130.2748871,83.9966812,130.9851532,84.2037964z"/>
			<path class="st12" d="M135.6053619,85.8925629l-9.4308472-1.1442184c2.78479,0.0457001,5.5484924,0.0989914,8.2624512,0.8110657
				C134.828064,85.6572113,135.2167358,85.7748947,135.6053619,85.8925629z"/>
			<path class="st13" d="M138.2063293,75.580719c-0.8516846,0.1283951-2.8326721,0.4319839-4.2944031,0.6072388
				c-0.2554169,0.0294495-0.5306854,0.056488-0.8269806,0.0909958c0.2852173-0.6906433,0.6015625-2.0524673,0.6954498-2.4943924
				C135.3353577,74.335907,137.3652496,75.2067337,138.2063293,75.580719z"/>
			<path class="st10" d="M122.4156723,77.0394745c-0.0243912,0.1179199-0.0599213,0.2445679-0.0719604,0.343811
				c-1.4259109-0.203186-1.3578568-0.5978928-1.686676-0.6277008c-0.2692642-0.022583-1.0463181,0.4875107-1.4088669,0.7356873
				l-0.0083694-0.2629318c0.1582718-0.1420059,0.7454987-0.6650467,1.421814-0.9255142
				c0.8348083-0.3217773,1.1564026-0.2324066,1.3693466,0.0049973
				C122.2538528,76.5463638,122.3780365,76.9341431,122.4156723,77.0394745z"/>
			<path class="st11" d="M122.3437119,77.3832855c-0.0307236,0.0869598-0.047821,0.1453247-0.0625763,0.1838074
				c-0.1450119,0.0327606-0.7481537-0.060524-1.1665878-0.1818161c-0.1080399-0.0231857-0.1627808-0.0700989-0.2187271-0.1071396
				c-0.1828384-0.1531372-0.3005142-0.0968933-0.519249,0.1283951c-0.300209,0.316124-0.3498917,0.3100967-0.7469406,0.2619171
				c-0.2581177-0.031311-0.3564682-0.133873-0.3826599-0.1672974l0.0011978-0.0098801
				c0.3625488-0.2481766,1.1396027-0.7582703,1.4088669-0.7356873
				C120.9858551,76.7853928,120.9178009,77.1800995,122.3437119,77.3832855z"/>
			<path class="st10" d="M133.5128937,77.3181076c-1.8856506,0.264801-3.7538452,0.5518875-5.6294937,0.8179016
				c-0.5565796,0.1036987-4.3235474,0.4324112-4.7737045,1.1534042l-5.4004059-0.3227844
				c0.0397491-0.3276138,0.0794907-0.6551666,0.12677-0.9617081c0.1245956-0.8612518,0.5831375-1.3193665,0.6856918-1.417717
				c0.0782394,0.0195084,0.2259674,0.0475159,0.4840851,0.0788345c0.1289978,0.0156555,0.2878647,0.0349274,0.4677505,0.046669
				c-0.2659454,0.1994629-0.4365616,0.3600769-0.4488983,0.378685c-0.0234299,0.0274048-0.0369873,0.0560074-0.040596,0.085762
				l0.0162048,0.3645859c-0.0012054,0.0099411-0.0036163,0.0298157,0.0051117,0.0409546
				c0.0162048,0.0321579,0.1275024,0.2773285,0.5941086,0.3339386c0.4467392,0.0541992,0.5880737,0.0512466,0.9575424-0.3370743
				c0.1149673-0.117012,0.1471329-0.1332779,0.1483383-0.1432114c0.008728,0.0111389,0.0273972,0.0234909,0.0360641,0.0346222
				c0.064682,0.0481186,0.1468277,0.1185226,0.3131638,0.1588745c0.0099411,0.0012054,1.2104874,0.3180923,1.3958511,0.1190033
				c0.1025696-0.0984116,0.1793442-0.4819107,0.2157822-0.6991348c0.0024109-0.0198746,0.0048218-0.0396881-0.0039139-0.050827
				c0.0012054-0.0099411-0.0150604-0.042099-0.0289001-0.0941925c1.0222244,0.0434799,2.3991089,0.0694885,3.2363281,0.0602798
				c2.3106461-0.031929,5.2470627-0.2397614,7.235878-0.4416962
				C133.1044617,76.5331573,133.3053589,76.8698654,133.5128937,77.3181076z"/>
			<path class="st13" d="M133.5382385,73.7048264c-0.0914764,0.4220505-0.4430084,1.9911728-0.7385254,2.6000214
				c-1.9677277,0.1944046-4.7293091,0.3730392-6.9395142,0.4071274c-0.8582993,0.0167389-2.3058853-0.0078278-3.3268509-0.0611801
				c-0.0700989-0.1696472-0.1774826-0.3639908-0.3206329-0.5123215c-0.3386917-0.3634415-0.8089142-0.3903046-1.6437302-0.0684662
				c-0.2861176,0.1163483-0.5559769,0.2649155-0.7860947,0.4183731c-0.4491425-0.0343857-0.7668228-0.0729294-0.9753113-0.0982285
				c0.6013794-0.3903732,2.2997437-1.3437805,3.6559601-2.0123062c2.2439346-1.1061096,3.8018799-1.6285706,4.9668579-1.8069458
				c1.5915298-0.2436829,3.5401077,0.379158,5.3900986,0.9058075
				C133.0353088,73.53302,133.2874146,73.6139603,133.5382385,73.7048264z"/>
			<path class="st11" d="M133.969986,78.8643951c-0.456665-0.0554047-0.9070282-0.0797958-1.3076935-0.0982208
				c-0.8236694-0.0193253-2.4087372,0.0099411-3.8635559,0.0449982c-2.5134811,0.2087936-4.5482941,0.3748932-5.2302628,0.4331894
				c0.0210724-0.0075226,0.0432892-0.0249329,0.0643692-0.0324554c3.2153778-0.9294891,6.6478577-1.1577454,9.9801941-1.6399002
				c0.1100922,0.2551117,0.2077789,0.5288773,0.2769775,0.7891083c0.0351715,0.1251373,0.0505219,0.247879,0.0670319,0.360672
				C133.9609528,78.7726746,133.9660645,78.8135681,133.969986,78.8643951z"/>
			<path class="st10" d="M133.8791809,80.8579636c-3.4657898-0.4104156-7.0838242-0.728508-10.4388657-1.3873978
				c-0.0484161-0.0159607-0.0969009-0.0318604-0.1353836-0.0466156c0.0580521-0.0634766,0.1570663-0.1320648,0.2635422-0.1795883
				c0.6708832-0.0495605,2.6858292-0.218071,5.1695023-0.430481c0.0198669,0.0024109,0.0396881,0.0048141,0.0607605-0.0027084
				c1.4548187-0.0350571,3.0398865-0.0643234,3.8635559-0.0449982c0.4006653,0.018425,0.8510284,0.0428162,1.3076935,0.0982208
				C134.0456848,79.5686493,134.0690613,80.2061081,133.8791809,80.8579636z"/>
			<path class="st11" d="M154.538269,80.7857132c-0.1840973,0.1892319-0.5836182,0.4933014-1.0360718,0.2369232
				c0.2349854-0.1930695,0.5027313-0.5735703,0.5735016-0.9075012c0.0316162-0.177475,0.0430603-0.4380035,0.0545044-0.6985321
				c0.0376282,0.1053314,0.0950317,0.2130051,0.1425476,0.3194809
				C154.4390869,80.1088715,154.5085144,80.4497299,154.538269,80.7857132z"/>
			<path class="st1" d="M153.839859,80.0663528c-0.0743713,0.3636856-0.3992767,0.7171402-0.5304413,0.8019943
				c-0.0361328-0.0346298-0.0809479-0.0803375-0.1170197-0.1149673c0.0012054-0.0099335,0.0111542-0.008728,0.0111542-0.008728
				s0.0180511-0.1488724,0.1007996-0.5820618c0.0719757-0.3438721,0.0714264-0.8375168,0.0693207-1.0694427
				c0.0322266-0.0162582,0.0643768-0.0324631,0.0878601-0.0598602c0.1049805-0.1182251,0.2211456-0.2451706,0.3285217-0.3832092
				c0.031311,0.0743256,0.053833,0.1374969,0.0863037,0.2018738
				C153.8887024,79.1657181,153.895813,79.7709579,153.839859,80.0663528z"/>
			<path class="st11" d="M153.0685272,80.1138077c-0.0304108,0.1675415-0.0548096,0.2854614-0.0656433,0.3748322
				c-0.1109924-0.1645889-0.2207794-0.3390579-0.3281555-0.5334015c-0.2520447-0.4133682-0.529007-0.8700333-0.8887787-1.2259598
				l1.3410492,0.4044571c0,0,0,0,0.0099335,0.0012054C153.1377716,79.3768005,153.1343994,79.8196182,153.0685272,80.1138077z"/>
			<path class="st10" d="M153.5350647,77.7628784c-0.1468201,0.213913-0.3321838,0.413002-0.4976196,0.6145782
				c-0.3796387-0.0259552-2.0633698-0.1798859-2.0633698-0.1798859c-0.0099335-0.0012054-0.0111389,0.0087357-0.0210724,0.0075302
				c-0.4834137-0.2500534-0.9132385-0.4431763-1.2288055-0.5822372c0.1500854,0.0081253,0.3101501,0.0175247,0.4602203,0.02565
				c-0.1886139-0.0228806-0.3759613-0.0556946-0.5645905-0.0785828c-0.19133-0.0836487-0.3627777-0.1648941-0.3913879-0.1784439
				c-0.0547485-0.0469131-0.3585052-0.3658524-0.6797943-0.7070236c1.2710114,0.2348175,2.5256958,0.4374008,3.759079,0.5668716
				c0.0508881-0.0039062,0.0493774-0.0746078,0.0096283-0.0794296c-0.3513336-0.0929871-0.7062988-0.1562195-1.0600433-0.2293243
				c0.1495209-0.1530914,0.0617218-0.4256592,0.0337219-0.6103668c-0.0775146-0.5231552-0.5651398-0.9046707-1.0187378-1.1511002
				c0.4879303,0.129715,0.9583893,0.2371521,1.3717041,0.3175507c-0.6915436-0.1947556-1.6340485-0.4803391-2.5379944-0.7511597
				c-1.9523163-0.6800995-3.9840088-1.3698273-6.0069733-2.0484161c2.1394348,0.2998428,4.7926941,0.6821976,6.6207733,1.3069458
				c1.2219238,0.390007,2.5241394,0.6990662,3.328476,1.5421295
				C153.5935974,76.1179962,153.975235,77.0406723,153.5350647,77.7628784z"/>
			<path class="st13" d="M151.2509766,76.9115677c-0.0012054,0.0099335-0.0123444,0.0186615-0.0036163,0.029808
				c-0.5721741-0.0996704-1.1455688-0.1893463-1.7140656-0.3187561c-1.3964539-0.2802811-4.2052155-0.7922897-5.5964813-1.0316162
				c-0.9196167-0.1417618-1.9743652-0.2496262-2.7982788-0.3495865l-3.5838928-1.512619l-0.9006348-0.3812714
				c-0.1838074-0.0625763-0.200058-0.0947952-0.2502899-0.2620392c-0.1774139-0.6964798-0.1478577-1.4383087-0.1318359-2.151535
				c1.5792999,0.4333649,3.1538391,0.9064178,4.5381927,1.2859421c0.8729248,0.2771378,1.6764374,0.5458603,2.2651062,0.7583237
				c2.3036652,0.7730789,4.603714,1.5759735,6.9221344,2.3105698
				C150.6431427,75.5282974,151.3746796,76.1408844,151.2509766,76.9115677z"/>
			<path class="st13" d="M124.9561234,71.9584351c-0.1856079,0.1185226-1.1513519,0.6057892-2.1715317,1.1266556
				c-1.7827835,0.911911-3.9939957,2.0337524-4.5322113,2.4015961l-0.8649902,0.5700073
				c-0.2667847-0.04245-1.5738754-0.3118286-2.8351898-0.9584427c-0.3317719-0.1712112-0.6623383-0.352356-0.9595413-0.5596466
				c-0.2142105-0.2274704-0.2472687-0.453125-0.1166458-0.6991959c0.1293564-0.2361374,0.2972565-0.4575195,0.5036392-0.6641464
				c0.1371918-0.1344757,0.2831116-0.2577515,0.436554-0.3600082c0.5294876-0.3789902,1.126358-0.6490936,1.7358856-0.8572235
				c0.3059235-0.113945,0.6194458-0.2068634,0.9317017-0.289856c0.5836258-0.1608582,1.1810455-0.2697449,1.7721939-0.409523
				c0.7584534-0.1900635,1.4768524-0.4655228,2.2265091-0.6666794c0.8959427-0.2438965,1.7870102-0.4480591,2.6867981-0.6410751
				c0.154892-0.0315628,0.2999115-0.0643234,0.4548721-0.0959396c0.0607605-0.0026474,0.4178238-0.0399323,0.4425125-0.0772018
				c-0.0947876,0.1999969-0.1471863,0.4656372-0.0963516,0.7941589c0.0901489,0.5851288,0.2254791,0.9641724,0.3193665,1.1870651
				C124.9110184,71.8320847,124.951004,71.9175415,124.9561234,71.9584351z"/>
			<path class="st9" d="M116.9292068,71.447937c-0.929306,0.2700424-1.8769836,0.6083755-2.6588593,1.1582184
				c-0.1657867,0.1208725-0.3228531,0.2529373-0.4699783,0.3862076c-0.2187347,0.225296-0.4100571,0.4740219-0.5418243,0.7300339
				c-0.0899734,0.1603165-0.1203842,0.327858-0.0987701,0.4816055c-0.2265015-0.2087936-0.3922348-0.4203033-0.4439697-0.6582413
				c-0.0567856-0.2788925,0.0277634-0.5607376,0.2784195-0.8829346
				C113.7090683,71.7523117,116.186409,71.5089417,116.9292068,71.447937z"/>
			<path class="st10" d="M116.5251694,71.2075272c-1.3046799,0.0431824-3.0666275,0.2021179-4.9730606,0.5550842
				c-1.2147598,0.2152405-3.7083664,0.7588882-5.4261627,1.1346741
				C109.4343033,71.6164551,113.0422745,70.5230331,116.5251694,71.2075272z"/>
			<path class="st11" d="M101.7139435,81.4481583c-0.3044281-0.147728-0.6548691-0.3312912-0.9346008-0.5163498
				c-0.5781479-0.3824158-0.96978-0.973877-1.0737915-1.6110382c-0.0582886-0.3495865,0.2464294-0.453598,0.3803101-0.477684
				c0.1958466-0.0366821,0.3303299-0.231926,0.2948532-0.437645l-0.0303497-0.1648941
				c0.2105331,0.2572784,0.4198761,0.5244217,0.5871124,0.806633l0.0125351,0.7267685l-0.4440308,0.0065613
				c0,0-0.0009003,0.4229584,0.537796,0.8811874c0.3011169,0.2581787,0.4876328,0.3815231,0.6130676,0.4269867
				C101.6832886,81.2026901,101.6985855,81.3254166,101.7139435,81.4481583z"/>
			<path class="st10" d="M114.2549973,75.2233353c-0.8877487-0.2386627-1.7739334-0.4066162-2.6300735-0.4903259
				c-1.0559464-0.0979309-2.2080765-0.0664825-3.5260696,0.0859375c-1.7369537,0.20224-3.7588882,0.5109406-5.5669708,1.2989044
				c-0.1747665,0.0291519-0.3098526,0.063179-0.4151154,0.1007614c-0.2679977-0.3649521-0.5386963-0.7906723-0.5365906-0.8911209
				c0.0429916-0.1055756,0.0944824-0.2806473,0.1312256-0.4172287c0.9088287-0.4337311,2.4368057-1.1549072,3.0671005-1.4511414
				c1.2430725-0.2823334,5.1867294-1.1537094,6.8253403-1.4585648c1.0089798-0.1797714,1.9921265-0.3123245,2.8798752-0.4060898
				c-0.6988297,0.1972885-1.348938,0.491127-1.6823349,0.9140091c-0.2975616,0.3769379-0.4028931,0.7469482-0.3247223,1.0988922
				C112.6204224,74.2493515,113.3937454,74.766304,114.2549973,75.2233353z"/>
			<path class="st11" d="M154.3729706,82.3975372l-0.075592,0.3736191l-0.0240784,0.198555
				c-0.0499268,0.2457809-0.1781464,0.4719696-0.2999725,0.729187c-0.4348145,0.8437881-0.9676666,1.665596-1.4743805,2.5207672
				c-0.2858276,0.5294266-0.3547668,0.6822052-0.7921753,0.8004227c-0.2490845,0.0604095-0.5255737,0.0973816-0.8095245,0.1132889
				c0.9633331-3.2073135-1.5009613-6.8909225-4.916214-7.0534515c-0.1886292-0.0228882-0.368576-0.0346375-0.5496521-0.0365067
				c-3.2026215-0.0057678-5.8953705,3.0924835-5.4535217,6.2587738c-1.8639069-0.2463074-3.5312958-1.0328827-5.3723297-1.4677505
				c-0.8031921-0.1881332-1.6211548-0.3377304-2.441452-0.4675064c0.3841705-0.4268036,0.9353943-1.3169022,1.6855316-2.7671432
				c0.1047211-0.1987915,0.1685028-0.3925323,0.2323303-0.5862656c0.526123,0.0638275,1.0522919,0.1276703,1.5672607,0.2002335
				c2.3720093,0.4590225,4.6683197-0.4510193,6.8984375-1.1474457c0.9888611-0.2628174,1.9732208-0.405304,2.8985596-0.3938065
				c1.3284454,0.0101166,2.5576172,0.3405609,3.5920715,1.0301743c0.0932159,0.0616684,0.1765747,0.1221313,0.2598572,0.1826553
				c0.055954,0.036972,0.1020203,0.0728149,0.1480255,0.1085815c0.0087433,0.0111465,0.0087433,0.0111465,0.0087433,0.0111465
				c0.1280823,0.1062241,0.2550354,0.2223358,0.3720551,0.3372421l1.4337921-0.3598938c0,0-0.1247864-0.549057-0.5022583-1.0078354
				c0,0,0.6371613-0.1040039,0.8997955-0.1930161c0.1374817-0.0538406,0.3071289-0.1239471,0.4966583-0.1915741
				c0.1121979,0.1545944,0.2021637,0.3267136,0.3032227,0.4900436c0.2234192,0.3998718,0.450531,0.7698898,0.7242432,1.0045776
				c0.008728,0.0111389,0.0186768,0.0123444,0.0274048,0.0234909c0.0360718,0.0345612,0.0721436,0.069191,0.1182251,0.1049652
				c0.1392212,0.097496,0.2845459,0.1453171,0.4235535,0.162178c0.3176117,0.0385361,0.5974121-0.1088257,0.8101196-0.2845001
				C154.5619354,81.5038147,154.4803925,81.9270706,154.3729706,82.3975372z"/>
			<path class="st11" d="M138.9473724,77.1111679c-0.33815,0.1302032-0.543335,0.326889-0.6161499,0.4289093
				c-0.2133026,0.0143967-0.954834,0.0654678-1.6867828,0.3694763c-0.0631714,0.022583-0.2328339,0.0926819-0.2782898,0.2180634
				l-0.0099335-0.0012054c-0.0123444,0.0186691-0.015976,0.0484848-0.0183716,0.0682983
				c-0.0084381,0.0694962,0.0153503,0.1227341,0.0601654,0.1685028c0.0162506,0.0321655,0.0547333,0.0469131,0.0821381,0.0704041
				l0.1838074,0.0625687c0.0423889,0.0655823,0.0923157,0.1522446,0.1311035,0.2475815
				c0.0288391,0.0941849,0.0541382,0.2181244,0.0309601,0.3261032c-0.0060272,0.0496902-0.0219879,0.0981064-0.0367432,0.1365891
				c-0.5149689-0.0725632-1.5450287-0.2176437-2.5699005-0.3218842c-0.0027161-0.0607681-0.0042114-0.1314697-0.016861-0.1934433
				c-0.01651-0.112793-0.0318604-0.2355347-0.0670319-0.360672c-0.0580597-0.2689667-0.1557465-0.5427322-0.2658234-0.7978363
				c0.3495178-0.0583038,0.6879883-0.1079254,1.0276337-0.1674271
				C136.2299805,77.1742859,137.6098785,77.0093307,138.9473724,77.1111679z"/>
			<path class="st10" d="M152.1549377,79.5899887c-0.2457123-0.3824158-0.5272522-0.7187653-0.8939667-0.9344864
				c-0.8831635-0.3589859-1.8292084-0.6148071-2.7873688-0.7713318c-1.9797211-0.3711472-4.0424805-0.3897552-5.885376-0.3111572
				c1.9081726-0.2016373,3.8617554-0.1962814,5.7692719,0.1056747c0.5436401,0.0860672,1.0947266,0.1932602,1.6310883,0.3388824
				c-0.1615143-0.08004-0.3143616-0.1489334-0.4386139-0.2042847c-0.2956848-0.1366425-0.4199371-0.1919861-0.4659424-0.2277603
				c-0.0099487-0.0012054-0.0186768-0.0123444-0.0186768-0.0123444c-0.2691956-0.022583-0.5396576-0.0352936-0.8089142-0.0578766
				c-1.8286743-0.1211624-3.6721649-0.2037888-5.4639282-0.0484695c1.6931152-0.3385162,3.5997772-0.2784119,5.3878632-0.0715485
				c0.2691956,0.0225754,0.5273132,0.053894,0.7854309,0.0852127c-0.225296-0.2187347-0.69841-0.719368-0.8042755-0.8430023
				c-0.0099335-0.0012054,0.0012054-0.0099335-0.0075226-0.02108c-0.1576691-0.029213-0.3252106-0.0596237-0.4828186-0.088768
				c-2.2155457-0.4199295-4.4485779-0.8620834-6.6013184-1.0527573c-0.6707611-0.2828598-3.9279938-1.6652222-4.5329437-1.9099045
				c-0.0844879-0.0505219-0.1377869-0.0268021-0.2448578-0.1405029c-0.3985138-0.7836838-0.2765503-1.7056961-0.2734222-2.5615921
				c-2.0077209-0.5558624-3.9915924-1.0584793-5.5414429-1.2364349c-1.9039001-0.3317032-3.7206497-0.2197495-5.5118103,0.0968475
				c-0.1233444,0.1865158-0.2042847,0.4386139-0.1483917,0.8080215c0.0826874,0.5640488,0.2116852,0.9121399,0.3055191,1.135025
				c0.0751572,0.2105942,0.1289978,0.3480911,0.0351715,0.4575806c-0.0469742,0.0547333-0.3688736,0.2171631-2.2593994,1.1865158
				c-1.7716446,0.9031754-3.9828568,2.0250168-4.5099869,2.3841248l-0.9094315,0.6048889
				c-0.0222855,0.0174637-0.0533066,0.0237885-0.0830536,0.0201721c-0.0099335-0.0012054-0.3583221,0.0471573-1.2387848-0.2510681
				c-0.0234909,0.0274048-0.3862762-0.1374893-0.4271622-0.132431c-0.3240051-0.0694962-0.633255-0.177536-0.9337692-0.274437
				c-0.2036133-0.0649719-0.4060822-0.1399536-0.6010284-0.1937943c-0.8777542-0.2374573-1.7540588-0.404213-2.5903854-0.4855194
				c-1.0459518-0.0967102-2.1770706-0.0727386-3.4751816,0.0820312c-1.348877,0.158699-2.8885422,0.3949585-4.3343811,0.8541641
				c0.2652817-0.0282516,0.5616379-0.0628204,0.8778152-0.0949783c0.4090881-0.0510712,0.7873001-0.095871,1.0848007-0.1403809
				c1.0859985-0.1502609,2.2427139-0.3020859,2.2427139-0.3020859l0.0694962,0.0084305l0.5068359,0.222702
				c2.5306396-0.5995865,5.0957947-0.2380066,7.5101471,0.6190262c-0.969841-0.3090057-1.9592438-0.5399017-2.9519653-0.660347
				c-1.5089569-0.183075-3.0368805-0.1267014-4.5473404,0.2843857c-0.0322189,0.0162582-3.8694,0.8400574-4.8765717,1.1711731
				c-1.0691986,0.343689-1.45578,0.4580002-1.8291016,0.4630585c-0.0408936,0.0051193-0.0806351,0.0002975-0.1302643-0.005722
				c-0.3573608-0.0433578-0.7427292-0.271431-0.7613373-0.2837677c-0.0373383-0.0246964-0.0634766-0.0580597-0.0586548-0.0978012
				c-0.005127-0.0408936,0.0096283-0.0793762,0.0429916-0.1055756c0.0222778-0.0174026,0.5144882-0.4210815,0.9167175-0.6643829
				c-0.3028564-0.4095154-0.6159668-0.9007568-0.5422516-1.0932922c0.0159531-0.0484161,0.0442047-0.115509,0.0625687-0.1837997
				c-0.2130051,0.0950241-0.3529053,0.1687393-0.3949966,0.1837387c-0.4266281,0.3612823-1.0532455,0.6277161-0.984169,1.2203674
				c0.057457,0.4401169,0.6472778,0.9750671,1.0746841,1.5205078c0.0797348,0.0902786,0.1359863,0.207901,0.2132568,0.3179779
				c1.823616,0.0802155,3.7729797,0.2865448,5.5187302-0.2369843c1.6113358-0.9932098,3.4654846-2.0777664,5.4824829-1.6819229
				c1.4851608,0.129837,2.8351898,0.9584427,3.8425446,2.0376434c0.305336,0.3895874,0.6990738,0.5482101,1.2038651,0.5389328
				l0.0905762,0.0009079c0.0409546-0.3375473,0.083107-0.6849823,0.1303787-0.9915161
				c0.1586304-1.058609,0.7868118-1.5867615,0.8090973-1.6042252c0,0,0.7897034-0.4481277,0.7909088-0.4580612
				c0.0222855-0.0174637,1.648674-0.9685135,3.3746109-1.8268814c1.834877-0.9257507,3.3568344-1.5973053,4.8471222-1.7590103
				c1.6440964-0.1832581,3.6095963,0.3875885,5.4795303,0.9166489c1.9182892,0.5450745,5.7584839,2.2701645,5.7957764,2.2947922
				c0.0583496,0.0171661,0.0821381,0.0704041,0.0749207,0.1299667c-0.0060272,0.0496216-0.0518036,0.0944824-0.1026306,0.0984039
				c-0.0309448,0.0062637-2.8052521,0.4554138-4.7158356,0.676918c-0.1736298,0.0192108-0.3781433,0.0447464-0.571579,0.0616074
				c0.0748596,0.1299591,0.2159576,0.378746,0.3485718,0.6970291c0.0162659,0.0322189,0.0324554,0.0643692,0.0487213,0.0965958
				c0.1536865-0.0216904,0.3185883-0.0520325,0.4723358-0.0736542c0.2045135-0.0255432,0.4102936-0.0610123,0.6248169-0.0853958
				c1.3537598-0.1983795,2.7423859-0.3522568,4.1060181-0.2169952c0.2108917,0.0054245,0.4193268,0.0307083,0.6266174,0.0659409
				c0.0111389-0.008728,0.0210724-0.0075226,0.0309601-0.0063248c0.0099335,0.0012054,0.0198669,0.0024109,0.028595,0.0135498
				c0.1687469,0.0204773,0.3386993,0.0310135,0.5050964,0.0713654c2.6087494,0.4172287,1.2296448,1.1565247-0.3588104,1.6286163
				c-0.8327026,0.2213211-1.7800751,0.6402969-2.7165375,0.969902c-0.8113861,0.2943726-1.6230774,0.5081635-2.3549652,0.479805
				c0.5989685-0.0381241,1.1651306-0.2212601,1.7150879-0.4365616c0.0532379-0.0237885,0.1064758-0.0475159,0.1708527-0.08004
				c0.0505219-0.0844955,0.1282196-0.2261963,0.1709137-0.4124069c-0.5149689-0.0725632-1.5450287-0.2176437-2.5699005-0.3218842
				c0.0781097,0.684433,0.1002655,1.3317719-0.082077,2.0047073c0.5074921,0.0514908,1.0237274,0.1141205,1.5299683,0.1755447
				c0.6492004,0.1291809,1.2794342,0.1653137,1.9093781,0.1208649c1.684021-0.0978699,3.3191376-0.7053375,4.9496765-1.192482
				c2.412674-0.6239853,4.756134-0.5108871,6.5119476,0.7094727c0.0844879,0.0505219,0.1777649,0.1122589,0.2598572,0.1826553
				c0.055954,0.036972,0.1020203,0.0728149,0.1480255,0.1085815c0.0087433,0.0111465,0.0087433,0.0111465,0.0087433,0.0111465
				c0.1280823,0.1062241,0.2550354,0.2223358,0.3720551,0.3372421l1.4337921-0.3598938c0,0-0.1247864-0.549057-0.5022583-1.0078354
				c0,0,0.6371613-0.1040039,0.8997955-0.1930161C151.7957611,79.7277222,151.9654083,79.6576157,152.1549377,79.5899887z
				 M116.715126,78.110672l-0.0111465,0.0087357l-0.0198135-0.0024033c-0.0186691-0.012352-0.5800095-0.2013321-0.4622726-1.2548218
				l0.0048218-0.0397415l0.5926514-0.0690765l0.548996,0.2075882l-0.0036163,0.029808
				C117.3599319,77.0304489,117.3210297,77.9323578,116.715126,78.110672z"/>
			<path class="st11" d="M117.3930588,81.7387619l-0.5261078-0.0638351c-0.2433624-2.4774017-2.2559662-4.7362518-4.8650208-4.90168
				c-2.7895432-0.3384476-5.360405,1.8377228-5.8134613,4.492485c-1.7023926,0.1662216-2.6725845,0.4413223-3.2002563,0.6392136
				c-0.1576691-0.029213-0.3438797-0.071907-0.4704666-0.1074295c-0.1208115-1.1630325-0.4127731-2.3266678-1.0600586-3.3017426
				c1.8322983,0.0913544,3.6812057,0.2955704,5.4678421-0.233078c1.6634293-1.0069962,3.3403473-2.0425949,5.3696899-1.6654205
				c1.4442749,0.1349564,2.7272034,0.935318,3.698494,1.9798965c0.292923,0.4082489,0.8693161,0.639389,1.3566437,0.6078262
				c0,0,0.0396881,0.0048141,0.0893784,0.0108414c-0.072937,0.7668152-0.1037064,1.5185852-0.0649185,1.9463501
				C117.3852997,81.3046112,117.3910141,81.5067825,117.3930588,81.7387619z"/>
			<path class="st10" d="M106.1884689,81.2657318c-0.0679932,0.3947067-0.0951538,0.7842865-0.0638885,1.1909714
				c-0.8699951-0.1357422-2.2612686-0.375061-2.8024979-0.4809952c-0.0694351-0.0084305-0.1960831-0.0439606-0.3338699-0.0707626
				C103.5158844,81.7070541,104.4860764,81.4319534,106.1884689,81.2657318z"/>
			<path class="st10" d="M116.7208557,83.4603043c0.1615829-0.5848312,0.2052994-1.193985,0.1460953-1.7853775l0.5261078,0.0638351
				c0.0059662,0.615181-0.0172729,1.3879623-0.0332336,1.7688217
				C117.1501312,83.4922256,116.9404297,83.4768677,116.7208557,83.4603043z"/>
		</g>
		<path class="st1" d="M111.895462,78.895874c-1.7968216-0.2180023-3.4331512,1.0642776-3.6511536,2.8610992
			c-0.2192001,1.806694,1.0630112,3.4430771,2.8598328,3.6610794c1.8067551,0.2192078,3.4431458-1.0630646,3.6623459-2.8697586
			C114.9844894,80.7514725,113.7022171,79.1150818,111.895462,78.895874z M111.5515671,82.5304489
			c-0.0366592-0.0657425-0.0156326-0.1468124,0.0501022-0.1834106l0.0061874-0.0048447
			c0.0061188-0.0048523,0.0061188-0.0048523,0.0116348-0.0041809c0.0657349-0.0365982,0.1454697-0.0046082,0.1827393,0.0556183
			c0.0186539,0.0301743,0.0194473,0.069252,0.0051498,0.0953674c-0.0046616,0.038475-0.0258102,0.0749512-0.0675583,0.0977402
			c-0.0356293,0.0179901-0.0747681,0.0187759-0.1125793,0.0086594l0.0006714-0.0055161
			C111.5956192,82.580368,111.5701675,82.5605545,111.5515671,82.5304489z M111.4094772,81.7718506
			c0.0046616-0.038414,0.0244827-0.0639191,0.0497437-0.088707c0.030838-0.0241089,0.0712509-0.0359344,0.109726-0.0312653
			s0.0693817,0.0251389,0.0942154,0.0504761c0.0186691,0.0301132,0.0310898,0.0650711,0.0264282,0.1034851
			c-0.0093384,0.0769501-0.0709,0.1252441-0.1484528,0.1213684l-0.0219955-0.0026703
			c0.0006638-0.005455,0.0006638-0.005455,0.0006638-0.005455
			C111.4490967,81.9049149,111.4008102,81.8432846,111.4094772,81.7718506z M111.0871353,82.5911636
			c0.1253052,0.1155396,0.0295792,0.399292-0.1878891,0.6293488l-1.1205902,1.1585007
			c-0.1374588-0.1075516-0.2628174-0.2266617-0.3779144-0.3568878l1.0729752-1.1988297
			C110.6862717,82.5871048,110.9617767,82.4756165,111.0871353,82.5911636z M110.2959976,81.8987961l-1.4415894-0.7038422
			c0.0592194-0.1628113,0.1297455-0.3194046,0.2162018-0.4659424l1.4671478,0.6472473
			c0.2907715,0.1300201,0.4858704,0.3599701,0.4115906,0.5125961
			C110.8805771,82.0421448,110.5799866,82.0391235,110.2959976,81.8987961z M111.2368469,81.8624344
			c0.0680466,0.0361099,0.1027069,0.1183395,0.0720444,0.1871033c-0.0006561,0.005455-0.0061722,0.0047836-0.0068436,0.0102997
			c-0.0409546,0.0619202-0.1170044,0.0917358-0.1851044,0.0556259c-0.0315628-0.0150223-0.0515594-0.0341721-0.0647125-0.0636215
			c-0.0179977-0.0356293-0.0181732-0.0802841-0.0018158-0.1228714c0.0211411-0.0364151,0.051918-0.0605392,0.0868912-0.073082
			C111.1716003,81.8489227,111.2052231,81.8474731,111.2368469,81.8624344z M111.1582108,82.5105743
			c-0.0296326-0.0314484-0.0469589-0.0725861-0.0422974-0.1110001c-0.0014496-0.0336227,0.0128479-0.0597458,0.0381775-0.0845795
			c0.0512543-0.0550842,0.1308136-0.067749,0.186554-0.0219421l0.0055161,0.0006638
			c-0.0006714,0.0055161,0.0047836,0.0061798,0.0047836,0.0061798c0.0048523,0.0061188,0.009697,0.0123062,0.0090332,0.0178146
			c0.0434418,0.0554428,0.0450745,0.133667-0.000061,0.1838913c-0.0252609,0.0247879-0.0553741,0.0434494-0.0890045,0.0449677
			C111.231102,82.5528641,111.1939621,82.5372314,111.1582108,82.5105743z M111.9276505,81.9573746
			c0.0309601,0.0204849,0.0599213,0.0574417,0.0662308,0.0971909c0.0118103,0.0404739,0.0009689,0.0837326-0.0249634,0.1140289
			c-0.0192108,0.019989-0.0493317,0.0386581-0.0836182,0.0456238c-0.0747147,0.0188446-0.1469345-0.0289536-0.1664505-0.0982132
			l0.0006714-0.0055161c0.0006714-0.0055161,0.0006714-0.0055161,0.0013275-0.0109711l0.0006714-0.0055084
			c-0.0077515-0.0734329,0.0393219-0.1401443,0.1079178-0.1541443
			C111.8637238,81.9328995,111.896019,81.9424133,111.9276505,81.9573746z M111.8012009,82.677803
			c0.1438446-0.0828934,0.3846893,0.0912476,0.539444,0.377594l0.7511215,1.4210052
			c-0.1422348,0.0975266-0.291687,0.1820145-0.4501419,0.2525558l-0.8092194-1.3896332
			C111.6714859,83.0577621,111.6519012,82.760025,111.8012009,82.677803z M112.1029358,82.0288162
			c-0.0356293-0.1659622,0.2087402-0.3425903,0.522171-0.3993073l1.5857086-0.2742004
			c0.0488739,0.1632004,0.0798645,0.3324738,0.0982742,0.5050125l-1.5693436,0.3404999
			C112.4249802,82.2685699,112.1329956,82.1940994,112.1029358,82.0288162z M114.1457825,81.1919937l-2.0598145,0.3331223
			l0.1810303-2.0763779C113.1528702,79.6993484,113.8384323,80.3599091,114.1457825,81.1919937z M112.0988388,79.4108124
			l-0.1596298,1.5781403c-0.0331268,0.319191-0.1921234,0.5730743-0.362442,0.5524063
			c-0.1648102-0.0199966-0.2584229-0.3045197-0.2143173-0.6223831l0.2225571-1.5713654
			c0.0852203,0.0024719,0.1688232-0.0055237,0.255043,0.0049362
			C111.9297867,79.3634338,112.0122223,79.3919449,112.0988388,79.4108124z M111.4126434,79.3442841l-0.3209076,2.0602036
			l-1.9188156-0.8189163C109.6713715,79.850708,110.4956512,79.3740082,111.4126434,79.3442841z M108.7009201,81.8123703
			c0.0189209-0.1559601,0.0587082-0.303978,0.1017151-0.4501953l1.8675156,0.9442749l-1.3852386,1.5934677
			C108.837822,83.3292236,108.6068344,82.5878143,108.7009201,81.8123703z M109.9185181,84.4789276l1.4775162-1.4935608
			l1.0842514,1.8075104c-0.4103546,0.1532211-0.8568573,0.2247849-1.3207397,0.1685028
			C110.6963272,84.9051743,110.2800446,84.7277069,109.9185181,84.4789276z M113.2385559,84.3824387l-0.9657822-1.8703613
			l2.0458374-0.4748154c0.0064087,0.1503601,0.0098877,0.3015976-0.0087967,0.4556198
			C114.215538,83.2699051,113.8122025,83.9353333,113.2385559,84.3824387z"/>
		<path class="st1" d="M145.9061127,82.3574677c-1.796814-0.2180023-3.433136,1.0642776-3.6511536,2.8610992
			c-0.2191925,1.806694,1.0630188,3.4430771,2.8598328,3.6610794c1.8067627,0.2192078,3.4431458-1.0630646,3.6623535-2.8697586
			C148.9951477,84.2130661,147.7128754,82.5766754,145.9061127,82.3574677z M145.5622253,85.9920425
			c-0.0366669-0.0657425-0.0156403-0.1468124,0.0501099-0.1834106l0.0061798-0.0048447
			c0.0061188-0.0048523,0.0061188-0.0048523,0.0116272-0.0041809c0.0657501-0.0365982,0.1454773-0.0046082,0.1827545,0.0556183
			c0.0186462,0.0301743,0.0194397,0.069252,0.0051422,0.0953674c-0.0046692,0.038475-0.0258179,0.0749512-0.0675659,0.0977402
			c-0.0356293,0.0179977-0.0747528,0.0187759-0.1125793,0.0086594l0.0006714-0.0055161
			C145.6062775,86.0419617,145.5808258,86.0221558,145.5622253,85.9920425z M145.4201355,85.2334442
			c0.0046692-0.038414,0.0244751-0.0639191,0.0497437-0.088707c0.030838-0.0241089,0.0712585-0.0359344,0.109726-0.0312653
			c0.0384827,0.0046692,0.0693817,0.0251465,0.094223,0.0504761c0.0186615,0.0301132,0.0310822,0.0650711,0.026413,0.1034851
			c-0.0093231,0.0769501-0.0708923,0.1252441-0.1484375,0.1213684l-0.0220032-0.0026703
			c0.0006714-0.005455,0.0006714-0.005455,0.0006714-0.005455
			C145.4597626,85.3665085,145.4114685,85.3048859,145.4201355,85.2334442z M145.0977936,86.0527573
			c0.1253052,0.1155472,0.0295715,0.399292-0.1878815,0.6293564l-1.1205902,1.158493
			c-0.1374664-0.1075439-0.2628326-0.2266617-0.3779297-0.3568878l1.0729828-1.1988297
			C144.6969299,86.0486984,144.9724274,85.9372101,145.0977936,86.0527573z M144.3066559,85.3603897l-1.4415894-0.7038422
			c0.0592194-0.1628113,0.1297455-0.319397,0.2162018-0.4659348l1.4671478,0.6472397
			c0.2907715,0.1300201,0.4858704,0.3599701,0.4115906,0.5125961
			C144.8912354,85.5037384,144.5906525,85.5007172,144.3066559,85.3603897z M145.2475128,85.324028
			c0.0680389,0.0361099,0.1027069,0.1183395,0.0720367,0.1871033c-0.0006561,0.005455-0.0061646,0.0047836-0.0068359,0.0102997
			c-0.0409698,0.0619278-0.1170044,0.0917358-0.1851196,0.0556259c-0.0315552-0.0150223-0.0515594-0.0341721-0.0646973-0.0636139
			c-0.0180054-0.0356369-0.0181732-0.0802917-0.0018158-0.122879c0.0211334-0.0364151,0.0519104-0.0605316,0.0868835-0.0730743
			C145.182251,85.3105164,145.2158813,85.3090668,145.2475128,85.324028z M145.168869,85.972168
			c-0.0296326-0.0314407-0.0469513-0.0725861-0.0422974-0.1110001c-0.0014496-0.0336227,0.0128479-0.0597382,0.0381775-0.0845795
			c0.0512543-0.0550842,0.1308136-0.067749,0.186554-0.0219421l0.0055237,0.0006714
			c-0.0006714,0.0055084,0.004776,0.0061722,0.004776,0.0061722c0.0048523,0.0061188,0.0097046,0.0123062,0.0090332,0.0178223
			c0.0434418,0.0554352,0.0450745,0.1336594-0.000061,0.1838837c-0.0252533,0.0247879-0.0553741,0.0434494-0.0890045,0.0449677
			C145.2417603,86.0144577,145.2046204,85.9988251,145.168869,85.972168z M145.9383087,85.4189758
			c0.0309601,0.0204773,0.0599213,0.0574341,0.0662231,0.0971832c0.0118256,0.0404739,0.0009766,0.0837326-0.0249634,0.1140366
			c-0.0192108,0.0199814-0.0493164,0.0386505-0.0836182,0.0456161c-0.074707,0.0188522-0.1469269-0.0289536-0.1664429-0.0982132
			l0.0006714-0.0055161c0.0006714-0.0055161,0.0006714-0.0055161,0.0013275-0.0109634l0.0006714-0.0055161
			c-0.0077515-0.0734329,0.0393219-0.1401443,0.1079102-0.1541443
			C145.8743896,85.3944931,145.9066772,85.404007,145.9383087,85.4189758z M145.8118591,86.1393967
			c0.1438446-0.0828857,0.3846893,0.0912476,0.539444,0.377594l0.7511139,1.4210052
			c-0.1422272,0.0975342-0.2916718,0.1820145-0.4501343,0.2525558l-0.8092194-1.3896255
			C145.6821442,86.5193558,145.6625671,86.2216187,145.8118591,86.1393967z M146.1136017,85.4904099
			c-0.0356293-0.1659622,0.208725-0.3425903,0.522171-0.3993073l1.5857086-0.2742004
			c0.0488739,0.163208,0.0798492,0.3324738,0.0982666,0.5050201l-1.5693359,0.3404922
			C146.4356384,85.7301636,146.1436462,85.6556931,146.1136017,85.4904099z M148.1564484,84.6535873l-2.0598297,0.3331223
			l0.1810455-2.0763779C147.1635284,83.1609421,147.8490906,83.8215103,148.1564484,84.6535873z M146.1094971,82.872406
			l-0.1596222,1.5781403c-0.0331421,0.3191986-0.1921387,0.5730743-0.3624573,0.5524063
			c-0.1647949-0.0199966-0.2584076-0.3045197-0.2143097-0.6223831l0.2225494-1.5713654
			c0.0852356,0.0024719,0.1688385-0.0055237,0.2550507,0.0049362
			C145.9404449,82.8250275,146.0228729,82.8535385,146.1094971,82.872406z M145.4233093,82.8058777l-0.3209229,2.0602036
			l-1.918808-0.8189163C143.6820221,83.3123016,144.5063019,82.8356018,145.4233093,82.8058777z M142.7115784,85.2739639
			c0.0189209-0.1559601,0.0587006-0.303978,0.1017151-0.4501953l1.8675232,0.9442749l-1.3852386,1.5934753
			C142.8484802,86.7908173,142.6174927,86.049408,142.7115784,85.2739639z M143.929184,87.9405212l1.4775085-1.4935608
			l1.084259,1.8075104c-0.4103699,0.1532288-0.8568573,0.2247849-1.320755,0.1685028
			C144.7069855,88.3667755,144.2906952,88.1893005,143.929184,87.9405212z M147.2492065,87.8440323l-0.9657745-1.8703613
			l2.0458374-0.4748154c0.0064087,0.1503601,0.0098877,0.3016052-0.0088043,0.4556274
			C148.2261963,86.7314987,147.8228607,87.3969269,147.2492065,87.8440323z"/>
		<path class="st14" d="M131.8331909,79.7995529c0,0,0.5140076-0.3361435,0.8576508-0.2944489
			c0.3436279,0.0416946,0.9449921,0.1146545,0.9449921,0.1146545s0.0795441,0.3707962-0.1194305,0.4711838
			c-0.1989899,0.1003952-1.3128204-0.0596542-1.4753418-0.0544662
			C131.87854,80.0416718,131.6664886,79.8960648,131.8331909,79.7995529z"/>
		<g>
			<path class="st15" d="M116.8061142,76.8625488l-0.4897308,0.0513763
				c-0.0837631,0.8561249,0.3040085,1.0643768,0.3897095,1.1049652c0.4522095-0.1566315,0.5439911-0.8304749,0.5533905-0.9905472
				L116.8061142,76.8625488z M116.9179535,77.6013641c-0.0222778,0.0174637-0.0544434,0.0337296-0.0667801,0.0523376
				c-0.0234909,0.0273972-0.0370407,0.0559464-0.0418625,0.0956955c-0.0024033,0.0198059-0.0048141,0.0396805-0.0258331,0.0472183
				c-0.0111465,0.008728-0.0222855,0.0174637-0.04216,0.0150528c-0.0309448,0.0062637-0.0631714,0.022522-0.0853958,0.0399933
				c0.0246353-0.0373459,0.049324-0.0746231,0.0875092-0.1405106c0.0123367-0.0186081,0.0036087-0.029747-0.0137939-0.0520248
				c-0.008728-0.0111465-0.0162659-0.0321655-0.0237885-0.0532455c-0.0063248-0.0310135,0.007225-0.0595627,0.0009079-0.0905762
				c-0.0038605-0.0508194-0.0499344-0.0866013-0.0760651-0.120018c-0.0075302-0.02108-0.0162659-0.0321655-0.0249939-0.0433044
				c-0.0174026-0.0222778-0.0360718-0.0346298-0.0769653-0.0295029c-0.0060196,0.0496216-0.0108414,0.0893707-0.0057831,0.1302567
				c-0.0384827-0.0147552-0.0535431-0.0568542-0.0499268-0.0866623c0.0036163-0.0297546,0.0183716-0.0682907,0.0319214-0.0968399
				c0.0135498-0.0286026,0.0283051-0.0670853,0.0517349-0.0944901c0.0099335,0.0012054,0.0273972,0.0234909,0.0261917,0.0334244
				c0.0087357,0.0111465,0.0075226,0.02108,0.0174637,0.0222855l0.0285492,0.0134888
				c0.0445633-0.0348663,0.069191-0.0721512,0.0950851-0.1193619l-0.0992432-0.0120392
				c-0.0087357-0.0111465-0.0261993-0.033432-0.0138474-0.0521011c0.0111389-0.008728,0.02108-0.0075226,0.0321503-0.0161972
				c0.0198746,0.0024109,0.0286179,0.0134888,0.0397491,0.0048218c0.0396881,0.0048141,0.0743256-0.0313187,0.114006-0.0265045
				c0.0396881,0.0048141,0.084549,0.0505905,0.0995483,0.0926819c0.0087357,0.0111465-0.0123444,0.0186691-0.0246277,0.0372849
				c-0.0036163,0.029808-0.0358353,0.0460663-0.0593185,0.07341c-0.0234299,0.0274048-0.0135574,0.0286026-0.0183716,0.0682907
				c0.0409546-0.0051193,0.0424576,0.0655899,0.0598602,0.0878677c0.0249939,0.0432968,0.0400543,0.0853958,0.0625763,0.1485672
				c0.0408859-0.0050583,0.0568542-0.0535355,0.0703964-0.0820847c0.0048141-0.0396881,0.019577-0.0782242,0.0430603-0.1055679
				c0.0149994,0.0420914,0.0300598,0.0841904,0.0152969,0.1227341
				C117.0268326,77.5340347,116.9711914,77.5776367,116.9179535,77.6013641z"/>
		</g>
	</g>
	<path class="st2" d="M87.3432999,81.048317H86.213295l-0.4699707-1.2600098
		c-0.5-1.3099976-1.7700195-2.1900024-3.1800537-2.1900024h-5.1499634c-1.3200073,0-2.5200195,0.7700195-3.0800171,1.9700317
		l-0.6900024,1.4799805h-1.0999756l0.8900146-1.9100342c0.7199707-1.539978,2.289978-2.539978,3.9799805-2.539978h5.1599731
		c1.8099976,0,3.460022,1.1400146,4.1100464,2.8400269L87.3432999,81.048317z"/>
	<g>
		<path d="M98.7257996,79.5273819c-1.2680664-3.0693359-2.1987305-5.6865234-2.6210938-8.4873047
			c-0.6020508-3.9902344-0.2680664-7.9794922,0.090332-11.0087891l0.4960938,0.0585938
			c-0.3544922,2.9990234-0.6850586,6.9443359-0.0922852,10.8759766c0.4150391,2.7509766,1.3349609,5.3359375,2.5888672,8.3701172
			L98.7257996,79.5273819z"/>
	</g>
</g>
</svg>
