<?xml version="1.0" encoding="utf-8"?>
<!-- Generator: Adobe Illustrator 27.6.1, SVG Export Plug-In . SVG Version: 6.00 Build 0)  -->
<svg version="1.1" id="Layer_1" xmlns="http://www.w3.org/2000/svg" xmlns:xlink="http://www.w3.org/1999/xlink" x="0px" y="0px"
	 viewBox="0 0 172.8999939 90" style="enable-background:new 0 0 172.8999939 90;" xml:space="preserve">
<style type="text/css">
	.st0{opacity:0.97;}
	.st1{fill:#8797C6;}
	.st2{fill:#CCCCCC;}
	.st3{fill:#3751A0;}
	.st4{fill:#F79420;}
	.st5{fill:#FFFFFF;}
	.st6{fill:#B3B3B3;}
	.st7{fill:#797979;}
	.st8{fill:#888888;}
	.st9{fill:#BABABA;}
</style>
<g>
	<path class="st0" d="M45.9599991,77.8399429l1.4099731,0.4799805l1.6900024,2.4400024
		c0.1500244,0.2200317,0.4400024,0.2700195,0.6500244,0.1199951l0.9899902-0.6799927
		c0.3200073-0.2199707,0.4299927-0.6199951,0.2999878-0.9799805l0.3300171-0.6799927v4.5200195h7.6099854
		c-0.0800171,0.3699951-0.1199951,0.7599487-0.1199951,1.1499634c0,0.1900024,0.0100098,0.3800049,0.0299683,0.5599976
		c0.2800293,2.9299927,2.7600098,5.2300415,5.7600098,5.2300415c3.0100098,0,5.4899902-2.3000488,5.7700195-5.2300415
		c0.0200195-0.1799927,0.0299683-0.3699951,0.0299683-0.5599976c0-0.3900146-0.039978-0.7799683-0.1199951-1.1499634h35.4000244
		l0.2399902-0.6400146h0.6500244c-0.1900024,0.5599976-0.2900391,1.1699829-0.2900391,1.789978
		c0,0.1900024,0.0100098,0.3800049,0.0300293,0.5599976c0.2799683,2.9299927,2.7600098,5.2300415,5.7700195,5.2300415
		c3.0099487,0,5.4899902-2.3000488,5.7699585-5.2300415c0.0200195-0.1799927,0.0300293-0.3699951,0.0300293-0.5599976
		c0-0.6199951-0.1000366-1.2299805-0.2900391-1.789978h0.4500122l0.7999878,2.0499878h5.4700317
		c1.4500122,0,2.6199951-1.1699829,2.6199951-2.6099854v-3.5400391c0-1.4400024-1.1699829-2.6199951-2.6199951-2.6199951h-0.6400146
		V71.879921c0-1.7999878-1.2600098-3.2999878-2.9899902-3.5799561l-11.3800049-1.8099976l-8.2399902-6.3400269h-8.3599854
		c-1.4500122,0-2.6300049,1.210022-2.6300049,2.6900024v4.2600098h-1.3900146l0.4899902-1.9199829
		c0.1300049-0.0599976,0.2299805-0.1900024,0.2299805-0.3400269v-4.6900024c0-0.2099609-0.1699829-0.3800049-0.3799438-0.3800049
		h-2.8700562c-0.1999512,0-0.3699951,0.1700439-0.3699951,0.3800049v1l-3.25,5.9000244h-1.2099609v2.8200073H80.129982v-6.1000366
		h-6.5499878l-0.0200195,0.0300293l-10.8200073-3.5400391l-0.5800171-0.1900024l0.0100098-0.0299683
		c0.1000366-0.2800293-0.0499878-0.5800171-0.3299561-0.6699829l-0.1300049-0.0500488
		c-0.2800293-0.0899658-0.5800171,0.0599976-0.6700439,0.3300171l-0.0299683,0.0900269l-11.2000122-2.7300415
		c-0.0499878-0.0199585-0.0900269-0.0499878-0.1400146-0.0699463l-2.0899658-0.5400391
		c-0.3200073-0.0800171-0.6500244,0.0900269-0.75,0.4100342L46.629982,57.41996
		c-0.0599976,0.1799927-0.0499878,0.3800049,0.0200195,0.5499878l1.1099854,2.4700317l0.0700073-0.0100098l3.3499756,3.3499756
		l-0.960022,3.039978L45.9599991,77.8399429z M50.8899918,61.0299454l1.0599976,0.3400269l-0.6000366,1.8699951
		l-2.9099731-2.9000244l-0.4299927-1.7799683l1.3099976,0.3599854l-0.4299927,1.2700195l2.0499878,0.6899414L50.8899918,61.0299454z
		 M53.91996,62.0199356l2.960022,0.960022l-3.2999878,0.7199707L53.91996,62.0199356z M60.7699966,60.4499283l-0.1100464,0.3300171
		l-4.3699951-1.4199829L60.7699966,60.4499283z M72.7800064,64.7499771l-10.4200439-3.4100342h-0.0100098l-0.5599976-0.1799927
		l0.1300049-0.3800049l0.5700073,0.1900024L73.0499649,64.41996l-0.0299683,0.039978L72.7800064,64.7499771z M53.8599625,73.3399429
		l1.710022-3.5200195l1.210022,0.2400513c0.0799561,0.1199951,0.1499634,0.2399902,0.2399902,0.3499756
		c0.5899658,0.7700195,1.5299683,1.2700195,2.5799561,1.2700195c0.7400513,0,1.4200439-0.25,1.9700317-0.6700439l1.789978,0.3600464
		h-1.7099609l-7.6400146,1.9199829C53.9599991,73.2999649,53.9099503,73.3199234,53.8599625,73.3399429z M50.379982,73.7599258
		l2.5200195-6.6900024l0.5699463-2.8399658l4.3500366-0.9500122l3.4500122,1.1199951l1,0.3300171l2.6499634,0.8599854
		l5.6900024,1.8500366l-0.2799683,0.3499756l-1.4400024-0.2800293c-0.2600098-0.2599487-0.5499878-0.4899902-0.8900146-0.6399536
		c-0.4199829-0.2000122-0.8900146-0.3099976-1.3800049-0.3099976c-0.0800171,0-0.1599731,0-0.2399902,0.0099487h-0.0200195
		c-0.1400146,0.0100098-0.2600098,0.0400391-0.3900146,0.0700073l-0.6499481,0.1700897l-1.0144196-0.2029266l-0.0645752,0.0202637
		l0.0645752-0.0202637l-2.2855835-0.4571533c-0.1799927-0.2000122-0.3900146-0.3699951-0.6199951-0.5200195
		c-0.5100098-0.3499756-1.1300049-0.5499878-1.8000488-0.5499878c-0.25,0-0.4899902,0.0300293-0.7199707,0.0900269
		c-0.2299805,0.0499878-0.4500122,0.1300049-0.6600342,0.2299805l-3.4299927-0.6799927l-0.0099487,0.0499878h-0.0100098
		L50.379982,73.7599258z"/>
	<path class="st1" d="M59.274025,62.9701309l0.5800171,0.1800537l0.1199951-0.3400269L59.274025,62.9701309z M59.274025,62.9701309
		l0.5800171,0.1800537l0.1199951-0.3400269L59.274025,62.9701309z M59.274025,62.9701309l0.5800171,0.1800537l0.1199951-0.3400269
		L59.274025,62.9701309z"/>
	<path class="st2" d="M92.0840225,66.4001846v14.6599731h13.6400146l0.9699707-2.0999756
		c0.4700317-1.0400391,1.5200195-1.710022,2.6600342-1.710022h5.6099854c1.1699829,0,2.2399902,0.710022,2.7000122,1.789978
		h4.0200195v-3.5999756c0-0.789978-0.5599976-1.4799805-1.3000488-1.5999756l-11.8899536-1.9000244l-8.1000366-6.2299805h-7.6799927
		C92.3640518,65.7101822,92.0840225,66.0201797,92.0840225,66.4001846z"/>
	<rect x="83.3340225" y="73.7501602" class="st2" width="6.75" height="7.3099976"/>
	<path class="st2" d="M53.3340225,78.6601334v2.4000244h4.9799805l0.4700317-1.2600098
		c0.5-1.3099976,1.7700195-2.1900024,3.1799927-2.1900024h5.1500244c1.3200073,0,2.5199585,0.7700195,3.0799561,1.9700317
		l0.6900024,1.4799805h10.4500122v-4.9299927H68.7440567c-0.0100098,0.0100098-7.25-0.039978-7.25-0.039978l-2.0300293,0.5599976
		l-5.6599731,1.4199829c-0.1600342,0.039978-0.2900391,0.1300049-0.3699951,0.2600098
		c-0.0300293,0.039978-0.0500488,0.0799561-0.0700073,0.1300049C53.3440323,78.5201797,53.3340225,78.5901871,53.3340225,78.6601334
		z"/>
	<path class="st3" d="M57.1889915,81.0629196h1.1300049l0.4699707-1.2600098c0.5-1.3099976,1.7700195-2.1900024,3.1800537-2.1900024
		h5.1499596c1.3200073,0,2.5200195,0.7700195,3.0800171,1.9700317l0.6900024,1.4799805h1.0999756l-0.8900146-1.9100342
		c-0.7199707-1.539978-2.289978-2.539978-3.9799805-2.539978h-5.1599693c-1.8099976,0-3.460022,1.1400146-4.1100464,2.8400269
		L57.1889915,81.0629196z"/>
	<path class="st1" d="M49.8240128,77.4501724l0.710022,1.0199585l0.5499878-1.1199951l0.0599976-0.1300049l4.0100098-8.2399902
		l1.2800293,0.25c-0.0599976-0.2299805-0.1000366-0.4599609-0.1100464-0.7099609
		c-0.0100098-0.0500488-0.0100098-0.0900269-0.0100098-0.1400146c0-0.210022,0.0200195-0.4199829,0.0600586-0.6199951
		c0.0799561-0.4299927,0.25-0.8200073,0.4799805-1.1699829l-1.6900024-0.3400269l-4.9400024,10.3699951L49.8240128,77.4501724z"/>
	<polygon class="st1" points="50.9340363,67.0318985 52.0240021,67.301918 52.1840363,66.8719254 53.1640167,62.01194 
		52.5940094,61.8219376 	"/>
	<polygon class="st1" points="47.5740509,75.7718887 48.3040314,75.26194 48.7740021,75.9319229 50.9240265,70.2219009 
		51.2240143,69.4319229 50.1140289,69.1619034 49.8740387,69.7818985 	"/>
	<polygon class="st1" points="51.8340225,60.550148 52.8940201,60.8901749 58.3340225,62.6601334 60.1540298,62.26017 
		60.2440567,62.01017 52.2140274,59.4001846 52.0740128,59.8201675 	"/>
	<polygon class="st1" points="61.4340591,62.4001846 61.0703011,63.5538559 73.3240128,67.5401382 73.4440079,67.3901749 
		73.5840225,67.2201309 76.0740128,67.2201309 76.0740128,67.1701431 61.9240494,62.5601578 	"/>
	<polygon class="st3" points="82.9640274,72.0801773 86.6640396,72.0801773 88.3440323,65.4601822 86.6040421,65.4601822 	"/>
	<polygon class="st1" points="71.6540298,72.7701797 78.1340103,72.7701797 78.1340103,69.2201309 74.5340347,69.2201309 	"/>
	<path class="st4" d="M88.6599655,63.5299683v0.9299927h-2.1199951v-0.9299927H88.6599655z M86.5399704,60.5199585v2.2600098
		h2.1199951v-2.2600098H86.5399704z"/>
	<path class="st5" d="M121.679985,71.8799438v3.5600586c0-0.7900391-0.5599976-1.4800415-1.2999878-1.6000366l-11.8900146-1.8999634
		v-3.5600586l11.8900146,1.9000244C121.1199875,70.3999634,121.679985,71.0899658,121.679985,71.8799438z M92.0800095,62.8399658
		v3.5599976c0-0.3800049,0.2799683-0.6900024,0.6300049-0.6900024h7.6799927v-3.5599976h-7.6799927
		C92.3599777,62.1499634,92.0800095,62.4599609,92.0800095,62.8399658z"/>
	<polygon class="st6" points="100.390007,62.1499634 100.390007,65.7099609 108.4899826,71.9400024 108.4899826,68.3799438 	"/>
	<polygon class="st7" points="105.2994461,73.3382339 100.0212936,68.377861 93.6950455,68.377861 93.6950455,73.3382339 	"/>
	<path class="st8" d="M112.0900192,90h12.8599854c1.0999756,0,1.9899902-1.1000366,1.9899902-2.4500122v-0.3400269
		c0-1.3499756-0.8900146-2.4400024-1.9899902-2.4400024h-7.0900269C117.5800095,87.6999512,115.099968,90,112.0900192,90z
		 M70.3799973,84.7699585h35.9400024C106.599968,87.6999512,109.0800095,90,112.0900192,90H64.6099777
		C67.6199875,90,70.099968,87.6999512,70.3799973,84.7699585z M47.1299973,85.7799683h4.2299805v-1.0100098h7.4899902
		C59.1299973,87.6999512,61.6099777,90,64.6099777,90h-13.25v-1.3300171h-4.2299805
		c-0.6500244,0-1.1699829-0.6500244-1.1699829-1.4400024C45.9600143,86.4299927,46.4799728,85.7799683,47.1299973,85.7799683z
		 M66.6199875,68.5599976c0.7200317,0,1.2999878,0.5799561,1.2999878,1.2999878c0,0.7099609-0.5700073,1.289978-1.2799683,1.2999878
		c-0.0100098,0-0.0100098,0-0.0200195,0c-0.0200195,0-0.039978,0-0.0599976-0.0100098
		c-0.1500244,0-0.2799683-0.0299683-0.4099731-0.0800171c-0.0100098,0-0.0200195-0.0099487-0.0400391-0.0099487
		c-0.4599609-0.2000122-0.789978-0.6600342-0.789978-1.2000122C65.3199997,69.1399536,65.9000168,68.5599976,66.6199875,68.5599976z
		 M58.3400192,68.1199951c0-0.0400391,0.0099487-0.0800171,0.0299683-0.1100464
		c0.1500244-0.539978,0.6500244-0.9299927,1.2299805-0.9299927c0.3600464,0,0.6900024,0.1500244,0.9200439,0.3800049
		c0.2299805,0.2300415,0.3800049,0.5599976,0.3800049,0.9199829c0,0.0700073-0.0100098,0.1400146-0.0200195,0.2000122
		c-0.0900269,0.6300049-0.6300049,1.1000366-1.2800293,1.1000366c-0.7099609,0-1.289978-0.5800171-1.289978-1.3000488
		C58.3099899,68.289978,58.3199997,68.1999512,58.3400192,68.1199951z M64.6099777,81.4099731
		c1.5499878,0,2.7999878,1.25,2.7999878,2.7999878C67.4099655,85.75,66.1599655,87,64.6099777,87
		c-1.539978,0-2.789978-1.25-2.789978-2.7900391C61.8199997,82.6599731,63.0699997,81.4099731,64.6099777,81.4099731z
		 M112.0900192,81.4099731c1.539978,0,2.7999878,1.25,2.7999878,2.7999878C114.890007,85.75,113.6299973,87,112.0900192,87
		c-1.5400391,0-2.8000488-1.25-2.8000488-2.7900391C109.2899704,82.6599731,110.5499802,81.4099731,112.0900192,81.4099731z"/>
	<path class="st9" d="M124.3199997,77.6999512c0.3399658,0,0.6199951,0.2800293,0.6199951,0.6199951v0.8000488
		c-0.2000122-0.0500488-0.4099731-0.0800171-0.6199951-0.0800171h-0.6400146v-1.3400269H124.3199997z M119.7999802,81.039978
		l0.1500244,0.7399902l0.2699585,0.6900024h4.1000366c0.3399658,0,0.6199951-0.2700195,0.6199951-0.6099854v-0.2000122
		c0-0.3400269-0.2800293-0.6199951-0.6199951-0.6199951H119.7999802z M110.134285,82.834343
		c0,0.5936737,0.4857178,1.0755386,1.0793915,1.0755386c0.5936432,0,1.0793686-0.4818649,1.0793686-1.0755386
		c0-0.5975037-0.4857254-1.0793686-1.0793686-1.0793686C110.6200027,81.7549744,110.134285,82.2368393,110.134285,82.834343z
		 M62.8405952,82.834343c0,0.5936737,0.4857216,1.0755386,1.0793915,1.0755386c0.593647,0,1.0793724-0.4818649,1.0793724-1.0755386
		c0-0.5975037-0.4857254-1.0793686-1.0793724-1.0793686C63.3263168,81.7549744,62.8405952,82.2368393,62.8405952,82.834343z"/>
	<polygon class="st3" points="83.3300095,68.5899658 83.3300095,69.8499756 84.0200119,68.5899658 	"/>
	<polygon class="st3" points="88.1899948,69.0999756 90.0800095,69.0999756 90.0800095,71.75 87.5200119,71.75 	"/>
	<polygon class="st3" points="85.9999924,62.3099976 85.9999924,64.9899902 84.429985,67.8399658 82.9600143,67.8399658 	"/>
	<path class="st3" d="M67.9600143,74.1499634H67.390007c0,0,0,0-0.0100098,0l-3.039978,0.0100098h-3.1400146l-7.7200317,1.9299927
		c0.0400391-0.1099854,0.0900269-0.210022,0.1700439-0.3200073l0.1099854-0.1099854
		c0.1799927-0.2000122,0.4099731-0.3400269,0.6900024-0.4199829l0.0599976-0.0100098l7.5100098-1.8900146l6.5999756-0.0100098
		L67.9600143,74.1499634z"/>
	<polygon class="st1" points="49.8400192,59.7199707 50.0800095,59.0099487 51.2999802,59.4199829 51.0599899,60.1299438 	"/>
	<path class="st1" d="M63.9199753,67.9799805c-0.3699951,0.539978-0.5999756,1.1799927-0.5999756,1.8800049
		c0,0.2099609,0.0200195,0.4099731,0.0599976,0.5999756c0,0.0200195,0,0.0300293,0.0100098,0.0400391
		c0,0.0299683,0,0.0499878,0.0100098,0.0699463c0,0.0200195,0.0099487,0.0300293,0.0099487,0.0400391l-1.1999512-0.2300415
		c0.2999878-0.3999634,0.5199585-0.8499756,0.6199951-1.3599854C62.8400192,69,62.849968,68.9699707,62.849968,68.9400024
		c0.0200195-0.1100464,0.0300293-0.2200317,0.0400391-0.3300171c0.0100098-0.0800171,0.0100098-0.1500244,0.0100098-0.2300415
		c0-0.2099609-0.0400391-0.4099731-0.0800171-0.6099854L63.9199753,67.9799805z"/>
	<path class="st1" d="M71.7100143,69.5199585l-0.5100098,0.6400146l-0.210022,0.25l-1.1900024,1.4699707l-0.5199585-0.1099854
		c0.0199585-0.039978,0.0599976-0.0700073,0.0899658-0.1099854h0.0100098
		c0.3399658-0.5100098,0.539978-1.1300049,0.539978-1.7999878c0-0.2399902-0.0299683-0.4800415-0.0899658-0.710022
		L71.7100143,69.5199585z"/>
	<polygon class="st1" points="76.7100143,66.0299683 75.9199753,65.7699585 78.1299973,65.7699585 78.1299973,67.2199707 
		76.8300095,67.2199707 	"/>
	<rect x="80.1299973" y="71.8699951" class="st3" width="1.2000122" height="2.2599487"/>
	<g>
		<path d="M49.4940338,68.76194c-0.0300293,0.1399536,0.0499878,0.2699585,0.1900024,0.2999878l0.4299927,0.0999756
			l1.1099854,0.2700195l0.8699951,0.210022c0.0200195,0.0099487,0.0400391,0.0099487,0.0599976,0.0099487
			c0.1100464,0,0.2200317-0.0799561,0.2399902-0.1900024l0.4200439-1.7099609c0.0100098-0.0700073,0-0.1400146-0.0300293-0.1900024
			c-0.039978-0.0599976-0.0899658-0.1000366-0.1599731-0.1199951l-0.6000366-0.1400146l-1.0899658-0.2700195l-0.7200317-0.1699829
			c-0.0700073-0.0100098-0.1300049,0-0.1900024,0.0300293c-0.0599976,0.039978-0.0999756,0.0899658-0.1099854,0.1599731
			L49.4940338,68.76194z M50.0440216,68.6419449l0.289978-1.2300415l0.4200439,0.1000366l1.0899658,0.2599487l0.4200439,0.1000366
			l-0.2900391,1.2299805l-0.5800171-0.1400146l-1.0999756-0.2599487L50.0440216,68.6419449z"/>
		<polygon class="st1" points="50.0440216,68.6419449 50.2940216,68.7019424 51.3939972,68.9618912 51.9740143,69.1019058 
			52.2640533,67.8719254 51.8440094,67.7718887 50.7540436,67.51194 50.3339996,67.4119034 		"/>
	</g>
</g>
</svg>
