<?xml version="1.0" encoding="utf-8"?>
<!-- Generator: Adobe Illustrator 27.6.1, SVG Export Plug-In . SVG Version: 6.00 Build 0)  -->
<svg version="1.1" id="Layer_1" xmlns="http://www.w3.org/2000/svg" xmlns:xlink="http://www.w3.org/1999/xlink" x="0px" y="0px"
	 viewBox="0 0 172.9100037 90" style="enable-background:new 0 0 172.9100037 90;" xml:space="preserve">
<style type="text/css">
	.st0{fill:#BF0000;}
	.st1{fill:#FF0000;}
	.st2{fill:#CCCCCC;}
	.st3{fill:#262626;}
	.st4{fill:#333333;}
	.st5{fill:#888888;}
	.st6{fill:#657195;}
	.st7{fill:#8797C6;}
	.st8{fill:#3751A0;}
	.st9{fill:#BABABA;}
	.st10{fill:#FFFFFF;}
	.st11{fill:#B3B3B3;}
	.st12{fill:#F79420;}
</style>
<g>
	<g>
		<g>
			<path d="M94.4099731,44.3800049c-0.0199585-0.6699829-0.1099854-1.2600098-0.6799927-1.710022
				c0.0700073-0.0299683,0.1600342-0.0700073,0.2399902-0.0799561c0.1400146-0.0300293,0.2700195-0.1200562,0.3600464-0.2400513
				c0.0599976-0.1199951,0.0999756-0.2599487,0.0499878-0.3800049C94.2999878,41.6400146,94.0100098,41.5599976,93.7199707,41.5
				c-0.4299927-0.0599976-0.8099976,0.1400146-0.9099731,0.4799805c-0.039978,0.1700439-0.0499878,0.2600098-0.0599976,0.3099976
				c-0.1199951-0.0099487-0.2299805-0.0199585-0.3200073-0.0099487c-0.039978-0.0600586-0.0800171-0.1500244-0.1499634-0.25
				c0.0599976-0.2000122,0.1099854-0.5800171-0.1500244-0.960022c-0.2700195-0.4000244-0.7399902-0.5200195-0.960022-0.5499878
				c-0.3499756-0.4299927-0.5599976-0.5900269-0.9799805-0.7800293c-0.6300049-0.2799683-3.0200195-0.3099976-3.7399902-0.3099976
				c-0.710022,0-3.1000366,0.0300293-3.7300415,0.3099976c-0.4199829,0.1900024-0.6299438,0.3500366-0.9599609,0.7800293
				c-0.2299805,0.0299683-0.7000122,0.1499634-0.9700317,0.5499878c-0.2699585,0.3800049-0.2199707,0.7600098-0.1599731,0.960022
				c-0.0599976,0.0999756-0.1099854,0.1899414-0.1400146,0.25c-0.0899658-0.0100098-0.2099609,0-0.3300171,0.0099487
				c0-0.0499878-0.0199585-0.1399536-0.0599976-0.3099976c-0.0899658-0.3399658-0.4799805-0.539978-0.8999634-0.4799805
				c-0.2999878,0.0599976-0.5900269,0.1400146-0.6699829,0.460022C78.5,42.0900269,78.5200195,42.2299805,78.5900269,42.3499756
				c0.0799561,0.1199951,0.2199707,0.210022,0.3499756,0.2400513c0.0900269,0.0099487,0.1699829,0.0499878,0.25,0.0799561
				C78.6099854,43.1199951,78.5300293,43.710022,78.5,44.3800049c-0.039978,0.7199707,0.0599976,2.7999878,0.0999756,3.4699707
				c0.0500488,0.6400146,0.6199951,1.1000366,1.5400391,1.2400513c0.6400146,0.0999756,3.4299927,0.3699951,6.3099976,0.3699951
				c2.8900146,0,5.6799927-0.2700195,6.3200073-0.3699951c0.9199829-0.1400146,1.4899902-0.6000366,1.539978-1.2400513
				C94.3499756,47.1799927,94.4500122,45.0999756,94.4099731,44.3800049z M81.2399902,41.3699951
				c0.0900269-0.1500244,0.2700195-0.2399902,0.4100342-0.2799683C81.5,41.2999878,81.3099976,41.5499878,81.1300049,41.7800293
				C81.1199951,41.6599731,81.1300049,41.5200195,81.2399902,41.3699951z"/>
			<path class="st0" d="M94.1179352,42.0329437c0.0216751,0.0541344,0.0108337,0.1082649-0.0216141,0.1623993
				c-0.0541306,0.0758095-0.1191711,0.1083298-0.1733017,0.1191025c-0.1407852,0.0216789-0.335701,0.1083298-0.4439621,0.1949806
				c-0.162468-0.0758095-0.3140869-0.1407814-0.4656448-0.1733017c0-0.0216789,0.0108414-0.0974236,0.0541306-0.2815666
				c0.0541382-0.1732368,0.2815704-0.3356972,0.6064301-0.2815666
				C93.9988327,41.8271904,94.0854797,41.9137764,94.1179352,42.0329437z"/>
			<path class="st0" d="M91.7788849,41.7838326c-0.173233-0.2382088-0.3682175-0.4872551-0.5090027-0.6930122
				c0.1407852,0.043293,0.3032455,0.1299438,0.4007339,0.2815018
				C91.7788849,41.5239449,91.7897263,41.6647263,91.7788849,41.7838326z"/>
			<path class="st0" d="M79.8885956,42.3361244c-0.1407852,0.0325203-0.3032455,0.0974922-0.4656448,0.1733017
				c-0.1083298-0.0866508-0.3032455-0.1733017-0.4440308-0.1949806c-0.0432892-0.0107727-0.1191025-0.043293-0.1624603-0.1191025
				c-0.0324554-0.0541344-0.0432892-0.1082649-0.0324554-0.1623993c0.0324554-0.1191673,0.1191101-0.2057533,0.4439621-0.2599525
				c0.3249283-0.0541306,0.5631332,0.1083298,0.6064301,0.2815666
				C79.8777542,42.2387009,79.8885956,42.3036728,79.8885956,42.3361244z"/>
			<path class="st0" d="M81.6428986,41.0908203c-0.1516266,0.2057571-0.335701,0.4548035-0.5198441,0.6930122
				c-0.0107727-0.1191063,0-0.2598877,0.1083298-0.4115105C81.3288116,41.2207642,81.5021133,41.1341133,81.6428986,41.0908203z"/>
			<path class="st0" d="M91.610054,42.6732063h-0.0100098c-0.0099487,0.0199585-0.0299683,0.039978-0.0599976,0.0499878
				c-0.039978,0.0100098-0.3599854,0.1699829-1.5,0.1400146c-0.5499878,0-1.4400024,0.0099487-2.1999512,0.0299683
				c-0.5400391,0.0100098-1,0.0200195-1.2300415,0.0300293c-0.0899658,0-0.1399536,0-0.1399536,0s0-0.0100098-0.0200195-0.0100098
				c0,0,0,0.0100098-0.0100098,0.0100098c0,0-0.0499878,0-0.1300049-0.0100098
				c-0.5200195-0.0100098-2.460022-0.0499878-3.4299927-0.0499878h-0.1199951c-1.0300293,0-1.3500366-0.1300049-1.3800049-0.1400146
				c-0.0300293-0.0100098-0.0599976-0.0300293-0.0599976-0.0499878h-0.0100098l-0.3399658-0.0300293
				c0.1799927,0.0499878,0.3799438,0.1300049,0.5699463,0.2600098c0.0100098,0.0100098,0.0300293,0.0100098,0.0400391,0.0200195
				c0.0299683,0.0199585,0.0700073,0.039978,0.0999756,0.0599976c0.0700073,0.039978,0.1300049,0.0899658,0.1900024,0.1699829
				c0.9299927,0.8900146,1.460022,3.6900024,1.460022,3.6900024l0.8299561,2.0299683
				c0.6700439,0.0300293,1.3800049,0.0500488,2.1000366,0.0500488h0.3999634c0.7200317,0,1.4300537-0.0200195,2.1000366-0.0500488
				l0.8300171-2.0299683c0,0,0.5299683-2.7999878,1.4599609-3.6900024c0.0900269-0.1099854,0.1900024-0.1799927,0.2900391-0.2299805
				c0.0199585-0.0100098,0.039978-0.0300293,0.0599976-0.0300293c0.1999512-0.1300049,0.3999634-0.2099609,0.5700073-0.2600098
				L91.610054,42.6732063z"/>
			<path class="st1" d="M92.0100784,42.6331673h-0.039978l-0.3600464,0.0400391
				c0-0.0100098,0.0100098-0.0200195,0.0100098-0.0300293c0.0100098-0.039978,0-0.0800171-0.0200195-0.1099854
				c-0.0199585-0.0499878-0.6699829-1.0599976-1.039978-1.5l-0.0200195-0.0200195
				c-0.3599854-0.4199829-0.5999756-0.7000122-1.1699829-0.7600098c-0.5200195-0.0499878-2.6400146-0.1199951-2.8900146-0.1300049
				c-0.0099487,0-0.0299683,0-0.0299683,0h-0.0100098c-0.0100098,0-0.0100098,0-0.0100098,0
				c-0.1300049,0.0100098-0.7099609,0.0300293-1.3399658,0.0600586c-0.6300049,0.0199585-1.2800293,0.039978-1.5400391,0.0699463
				c-0.5799561,0.0599976-0.8200073,0.3400269-1.1799927,0.7600098l-0.0200195,0.0200195
				c-0.3699951,0.4400024-1.0099487,1.4500122-1.039978,1.5c-0.0200195,0.0299683-0.0200195,0.0700073-0.0100098,0.1099854
				c0,0.0100098,0.0100098,0.0200195,0.0100098,0.0300293l-0.3399658-0.0300293l-0.0600586-0.0100098
				c0.0400391-0.0899658,0.1300049-0.2299805,0.25-0.4199829c0-0.0100098,0-0.0200195,0.0100098-0.0299683
				c0.2600098-0.3700562,0.6600342-0.9000244,0.9299927-1.2400513c0.3600464-0.4499512,0.5-0.5499878,0.8500366-0.7099609
				c0.2700195-0.1300049,1.4899902-0.2600098,3.5-0.2600098c2.0299683,0,3.2399902,0.1300049,3.5100098,0.2600098
				c0.3499756,0.1599731,0.5,0.2600098,0.8499756,0.7099609h0.0100098c0.2600098,0.3400269,0.6599731,0.8699951,0.9299927,1.2400513
				c0,0.0099487,0,0.0199585,0.0100098,0.0299683C91.8800735,42.4031868,91.9600906,42.5432014,92.0100784,42.6331673z"/>
			<path class="st1" d="M93.7600784,47.8131599c-0.0300293,0.5500488-0.8900146,0.7200317-1.0800171,0.7400513
				c-0.4500122,0.0699463-2.0100098,0.2299805-3.9199829,0.3199463l0.8300171-2.0299683
				c0,0,0.5299683-2.7999878,1.4599609-3.6900024c-0.0599976,0.0599976-0.0599976,0.1400146,0.0100098,0.1900024
				c0.0200195,0.0200195,0.0499878,0.0299683,0.0800171,0.0299683c0.039978,0,0.0800171-0.0099487,0.0999756-0.039978
				c0.3200073-0.3599854,0.9700317-0.4899902,1.1099854-0.5100098c0.0200195,0,0.1200562-0.0100098,0.2600098,0c0,0,0,0,0,0.0100098
				c0,0,0.210022,0.6099854-0.0499878,0.960022c-0.2999878,0.4299927-1.210022,1.4599609-1.2199707,1.4699707
				c-0.0300293,0.0300293-0.0300293,0.0700073-0.0200195,0.1199951c0,0.0200195,0.0100098,0.0300293,0.0100098,0.0400391
				s0.0100098,0.0199585,0.0199585,0.0299683c0.0300293,0.0200195,0.0599976,0.0300293,0.1000366,0.0300293
				c0.0299683,0,0.0700073-0.0100098,0.0899658-0.0400391c0-0.0099487,0.0300293-0.0199585,0.0599976-0.0499878l0.1200562,0.3900146
				l0.7299805-0.2700195c0.3499756-0.1400146,0.5999756-0.4699707,0.6300049-0.8499756v-0.8699951l-0.2000122,0.0199585
				c0.0299683-0.0899658,0.0599976-0.1799927,0.0700073-0.2699585c0.0499878-0.2600098-0.0100098-0.5200195-0.0499878-0.6799927
				c0.1399536,0.039978,0.289978,0.0799561,0.4299927,0.1799927c0.4299927,0.2799683,0.5199585,0.6499634,0.539978,1.3599854
				C93.9100418,45.0631599,93.8100662,47.103199,93.7600784,47.8131599z"/>
			<path class="st1" d="M84.1600418,48.8731575c-1.9099731-0.0899658-3.4699707-0.25-3.9299927-0.3199463
				c-0.1799927-0.0200195-1.0499878-0.1900024-1.0799561-0.7400513c-0.0500488-0.7099609-0.1500244-2.75-0.1100464-3.4099731
				c0.0300293-0.710022,0.1199951-1.0800171,0.5400391-1.3599854c0.1400146-0.1000366,0.289978-0.1400146,0.4299927-0.1799927
				c-0.0300293,0.1399536-0.0800171,0.3999634-0.0300293,0.6799927c0,0.0799561,0.0200195,0.1799927,0.0599976,0.2699585
				l-0.2199707-0.0199585v0.8800049c0.039978,0.3699951,0.2799683,0.6999512,0.6199951,0.8399658l0.7399902,0.2700195
				l0.1199951-0.4000244c0.0400391,0.0300293,0.0700073,0.0500488,0.0700073,0.0599976
				c0.0300293,0.0300293,0.0599976,0.0400391,0.1000366,0.0400391c0.039978,0,0.0599976-0.0100098,0.0899658-0.0300293
				c0.0499878-0.0499878,0.0700073-0.1400146,0.0100098-0.1900024c-0.0100098-0.0100098-0.9199829-1.039978-1.2200317-1.4699707
				c-0.2599487-0.3500366-0.0499878-0.960022-0.039978-0.960022c0-0.0100098,0-0.0100098,0-0.0100098
				c0.1300049-0.0100098,0.2299805,0,0.25,0c0.1400146,0.0200195,0.789978,0.1500244,1.1099854,0.5100098
				c0.0200195,0.0300293,0.0599976,0.039978,0.1000366,0.039978c0.0299683,0,0.0599976-0.0099487,0.0899658-0.0299683
				c0.0599976-0.0499878,0.0599976-0.1300049,0.0100098-0.1900024c0.9299927,0.8900146,1.460022,3.6900024,1.460022,3.6900024
				L84.1600418,48.8731575z"/>
			<path class="st2" d="M93.0823593,43.7980881v0.8663101c-0.0324478,0.378994-0.2815628,0.7039185-0.6280365,0.844635
				l-0.7364349,0.2707253l-0.1191025-0.3898277v-0.0108414c0.2165909-0.2382088,0.9205093-1.039547,1.1912384-1.4186058
				c0.0324478-0.043293,0.0541306-0.0974236,0.086586-0.1515541L93.0823593,43.7980881z"/>
			<path class="st2" d="M81.3003311,45.3790894l-0.1191025,0.4006691l-0.7363663-0.2707253
				c-0.3465424-0.1407166-0.5847473-0.465641-0.6281052-0.8337936v-0.8771515l0.2274323,0.0108414
				c0.0216827,0.0541306,0.0541306,0.1082611,0.0866547,0.1515541
				C80.3907318,44.3395424,81.1054153,45.1408806,81.3003311,45.3790894z"/>
			<path d="M91.5948105,42.5310402c-0.0216827-0.043293-0.671402-1.0612259-1.0396194-1.4944153l-0.0216751-0.0216141
				c-0.3573151-0.422348-0.5955887-0.7039146-1.1694946-0.758049c-0.5198364-0.0541306-2.6422882-0.1191025-2.8914032-0.1299438
				c-0.0107727,0-0.0216141,0-0.0216141,0h-0.0108414c-0.0108414,0-0.0108414,0-0.0108414,0
				c-0.1299438,0.0108414-0.7146835,0.0216141-1.3427887,0.0541344c-0.6281052,0.0216789-1.2778244,0.043293-1.5377121,0.0758095
				c-0.5848083,0.0541344-0.8230209,0.335701-1.180397,0.758049l-0.0216751,0.0216141
				c-0.3681564,0.4331894-1.0070953,1.4511223-1.0395508,1.4944153c-0.0216827,0.0325203-0.0216827,0.0758095-0.0108414,0.1083298
				c0.0108414,0.043293,0.0324554,0.0649719,0.0758133,0.086586c0.0324554,0.0108376,0.3573151,0.1407814,1.3860855,0.1407814
				h0.1191025c1.1154251,0,3.5411301,0.0541992,3.5628052,0.0541992c0.0108414,0,0.0108414-0.0108414,0.0108414-0.0108414
				c0.0108414,0,0.0108414,0.0108414,0.0108414,0.0108414c0.0107727,0,0.6280365-0.0108414,1.3752441-0.0325203
				c0.758049-0.0108376,1.6460419-0.0216789,2.1983337-0.0216789c1.1370392,0.0216789,1.4618912-0.1299438,1.505188-0.1407814
				c0.0325165-0.0216141,0.0650406-0.043293,0.0758133-0.086586C91.6272583,42.6068497,91.6164246,42.5635605,91.5948105,42.5310402
				z M90.0354233,42.5960121c-1.1262665,0-3.5519638,0.0541992-3.5735779,0.0541992H86.451004c0,0,0,0-0.0108414,0
				c-0.0216751,0-2.4365387-0.0650406-3.5628052-0.0541992c-0.6497192,0.0108376-1.0503845-0.043293-1.2453003-0.0758133
				c0.2057571-0.3031769,0.6497192-0.9854126,0.9204407-1.2994347l0.0216827-0.0325165
				c0.3465347-0.4006729,0.5306091-0.6172638,0.996254-0.6605568c0.5090027-0.0541344,2.7397842-0.1191063,2.8805695-0.1299438
				c0.1515579,0.0108376,2.3715668,0.0758095,2.8805008,0.1299438c0.4656448,0.043293,0.6605606,0.2598839,0.996254,0.6605568
				l0.0216827,0.0325165c0.2707214,0.3140221,0.7255249,0.9962578,0.9204407,1.2994347
				C91.0749664,42.5527191,90.6851349,42.6068497,90.0354233,42.5960121z"/>
			<path class="st3" d="M86.4509888,40.3977661c-0.1116943,0.0085449-1.5289307,0.0512695-2.368103,0.0955811l-0.2150269,2.1062622
				c1.1635742,0.0133057,2.5558472,0.0505981,2.5723267,0.0505981c0.0108032,0,0.0108032,0,0.0108032,0h0.0108643
				c0.0166626,0,1.4599609-0.0319824,2.6376953-0.0467529l-0.3282471-2.112793
				C87.9290771,40.4472656,86.5687866,40.406189,86.4509888,40.3977661z"/>
			<path class="st4" d="M91.2698975,42.5202026c-0.1949463-0.3031616-0.6497192-0.9854126-0.9204712-1.2994385l-0.0216675-0.0325317
				c-0.3356934-0.4006348-0.5306396-0.6172485-0.9962769-0.6605225c-0.1132812-0.0120239-0.3190308-0.0246582-0.5601807-0.0370483
				l0.3282471,2.112793c0.3491821-0.0043945,0.6783447-0.0074463,0.9358521-0.0074463
				C90.6851196,42.6068726,91.0749512,42.5527344,91.2698975,42.5202026z"/>
			<path class="st4" d="M83.5704346,40.52771c-0.4656372,0.0432739-0.6497192,0.2598877-0.9962769,0.6605225l-0.0216675,0.0325317
				c-0.2706909,0.3140259-0.7146606,0.9962769-0.9204102,1.2994385c0.1948853,0.0325317,0.5955811,0.0866699,1.2453003,0.0758057
				c0.2718506-0.0026245,0.6203003-0.0006714,0.9904785,0.0036011l0.2150269-2.1062622
				C83.864502,40.5048828,83.6755371,40.5165405,83.5704346,40.52771z"/>
		</g>
		<g>
			<g>
				<path d="M81.5710602,45.4224472l-0.0108414,0.0324516l-0.1623917,0.5306168
					c-0.0108414,0.0433578-0.0325241,0.0758095-0.0649719,0.0866508c-0.0216827,0.0108376-0.0433578,0.0108376-0.0649719,0.0108376
					h-0.0433578l-0.8771515-0.3248596c-0.4439621-0.1840744-0.7472076-0.5848083-0.8013458-1.0612907l0.0108414-1.039547
					c0-0.0325203,0.0108414-0.0649719,0.0325165-0.0974922c0.0324554-0.0216141,0.0649719-0.0324516,0.1082687-0.0324516
					l0.2815628,0.0108376h0.1407852c0.0758133,0.0107727,0.1299438,0.0649719,0.1299438,0.1407852
					c-0.0108414,0.0757446-0.0649719,0.1299438-0.1407852,0.1299438h-0.0649719l-0.2274323-0.0108414v0.8771515
					c0.0433578,0.3681526,0.2815628,0.6930771,0.6281052,0.8337936l0.7363663,0.2707253l0.1191025-0.4006691l0.0108414-0.0324516
					c0.0216827-0.0758133,0.0974884-0.1191063,0.1624603-0.0974922
					C81.5494461,45.2708244,81.5927429,45.3466377,81.5710602,45.4224472z"/>
			</g>
			<g>
				<path d="M93.3530884,43.6573067v1.0179329c-0.0541306,0.4980965-0.3573151,0.8988304-0.8013382,1.0829048l-0.8771515,0.3248596
					h-0.0432968c-0.0216751,0-0.0433578,0-0.0649719-0.0108376c-0.0325165-0.0108414-0.0541992-0.043293-0.0649719-0.0866508
					l-0.1733017-0.5630684c0-0.0108376-0.0108414-0.0216789-0.0108414-0.0433578
					c0-0.0541306,0.0433655-0.1082649,0.1083374-0.1299438c0.0649643-0.0216141,0.1407776,0.0216789,0.1623917,0.0974922
					l0.0108414,0.0324516v0.0108414l0.1191025,0.3898277l0.7364349-0.2707253
					c0.3464737-0.1407166,0.5955887-0.465641,0.6280365-0.844635v-0.8663101l-0.2057495,0.0108414h-0.086586
					c-0.0758133,0-0.1300125-0.0541992-0.1407852-0.1299438c0-0.0758133,0.0649719-0.1300125,0.1299438-0.1407852h0.173233
					l0.2598877-0.0108376c0.0325241,0,0.0649719,0.0108376,0.0974884,0.0324516
					C93.3314743,43.5923347,93.3530884,43.6247864,93.3530884,43.6573067z"/>
			</g>
		</g>
	</g>
	<g>
		<rect x="74.808815" y="85.6878433" class="st5" width="23.2891617" height="4.3121567"/>
		<g>
			<path d="M83.6299896,53.281517v0.0999756h5.6400146V53.281517H83.6299896z M89.2700043,52.1214828v1.1600342h-5.6300049
				v0.0999756h5.6500244v-1.2600098H89.2700043z M89.2700043,52.1214828v1.1600342h-5.6300049v0.0999756h5.6500244v-1.2600098
				H89.2700043z M89.2700043,52.1214828v1.1600342h-5.6300049v0.0999756h5.6500244v-1.2600098H89.2700043z M89.2700043,52.1214828
				v1.1600342h-5.6300049v0.0999756h5.6500244v-1.2600098H89.2700043z M89.2700043,52.1214828v1.1600342h-5.6300049v0.0999756
				h5.6500244v-1.2600098H89.2700043z M89.2700043,52.1214828v1.1600342h-5.6300049v0.0999756h5.6500244v-1.2600098H89.2700043z
				 M89.2700043,52.1214828v1.1600342h-5.6400146v0.0999756h5.6600342v-1.2600098H89.2700043z M89.2700043,52.1214828v1.1600342
				h-5.6400146v0.0999756h5.6600342v-1.2600098H89.2700043z M99.4600067,78.781517h-0.5200195l0.0499878-1.3900146V77.241539
				l-0.5799561-7.6800537l-0.2900391-7.8199463c0-0.0500488,0-0.0900269-0.0199585-0.1400146l-1.0200195-7.2200317
				c-0.0300293-0.1499634-0.0599976-0.2999878-0.1400146-0.4400024v-2.5499878l-0.3300171-2.289978
				c-0.0499878-0.3200073-0.3199463-0.5599976-0.6299438-0.5599976h-1.1300049l-0.5500488-3.7700195
				c-0.0499878-0.2999878-0.3199463-0.5499878-0.6399536-0.5499878h-3.6000366l-0.039978-0.3900146H88.530014l-0.0100098-0.25
				l-0.0300293-0.6400146h-0.0099487l-0.0300293-0.6300049h0.0100098l-0.1199951-2.6399536
				c-0.0300293-0.2600098-0.2200317-0.460022-0.4800415-0.460022H87.739975v-0.9199829
				c0-0.1799927-0.1499634-0.3200073-0.3199463-0.3200073h-1.9400024c-0.1700439,0-0.3200073,0.1400146-0.3200073,0.3200073
				v0.9199829h-0.1000366c-0.2699585,0-0.4699707,0.2000122-0.4799805,0.460022l-0.1400146,2.6399536l-0.0100098,0.3800049v0.25
				h-0.0199585l-0.0300293,0.6400146l-0.0200195,0.25h-1.4499512l-0.0700073,0.3900146h-3.6099854
				c-0.3200073,0-0.5700073,0.25-0.6400146,0.5499878l-0.5400391,3.7700195h-1.1099854
				c-0.3200073,0-0.5899658,0.2399902-0.6400146,0.5599976l-0.3399658,2.289978c0,0.0100098,0.0200195,0.0300293,0.0200195,0.039978
				c0,0.0300293-0.0200195,0.0400391-0.0200195,0.0500488v2.539978c0,0.0499878,0.0200195,0.0900269,0.039978,0.1400146
				c-0.039978,0.0700073-0.0599976,0.1400146-0.0700073,0.2199707l-1.039978,7.2200317v0.1400146l-0.3099976,7.7799683
				l-0.5700073,7.7200317v0.1499634l0.039978,1.3900146h-0.5999756c-0.7199707,0-1.2799683,0.5800171-1.2799683,1.289978v3.5700073
				c0,1.8099976,1.4499512,3.2700195,3.2699585,3.2700195h22.0400391c1.7999878,0,3.2599487-1.460022,3.2599487-3.2700195
				v-3.5700073C100.739975,79.3615341,100.1600189,78.781517,99.4600067,78.781517z M95.4200287,49.8315048l0.1499634,1.0100098
				h-4.960022l-0.0899658-1.0100098H95.4200287z M95.6600189,52.1214828v1.1600342h-5.1000366v-1.1600342H95.6600189z
				 M90.1299896,45.5114975h2.9799805l0.4500122,3.0300293h-2.8699951v-1.1700439c0-0.0799561,0-0.1599731-0.0199585-0.2399902
				l-0.1100464-0.7399902h-0.4299927V45.5114975z M86.7700043,39.0014877h0.25v0.1100464h-0.25V39.0014877z M86.7700043,40.1715317
				h0.6300049l0.1199951,2.539978l-0.75-0.1199951V40.1715317z M86.7700043,43.241539l0.789978,0.1199951l0.2399902,5.1799927
				h-1.0299683V43.241539z M85.8799896,39.0014877h0.25v0.1100464h-0.25V39.0014877z M85.4999847,40.1715317h0.6300049v2.4099731
				l-0.7299805,0.1300049L85.4999847,40.1715317z M85.3500214,43.3615341l0.7799683-0.1199951v5.2999878h-1.0200195
				L85.3500214,43.3615341z M83.7999725,49.8315048h5.4200439l0.1099854,1.0100098h-5.6300049L83.7999725,49.8315048z
				 M83.6299896,52.1214828h5.6400146v1.1600342h-5.6400146V52.1214828z M79.7900238,45.5114975h2.9799805v0.8800049h-0.4199829
				l-0.1000366,0.7399902c-0.0299683,0.0800171-0.039978,0.1600342-0.039978,0.2399902v1.1700439h-2.8500366L79.7900238,45.5114975z
				 M77.489975,49.8315048h5.0100098l-0.0899658,1.0100098h-5.0500488L77.489975,49.8315048z M77.2499847,52.1214828h5.1000366
				v1.1600342h-5.1000366V52.1214828z M76.8500214,73.6715317l0.0599976-0.8800049l0.2299805-3.1100464v-0.0099487
				l0.0300293-0.6600342l0.2699585-7.0899658v-0.0300293l0.8599854-6.0499878h16.4000244l0.8599854,6.0499878v0.0300293
				l0.2900391,7.7599487v0.0400391l0.5799561,7.6499634l-0.1300049,3.3600464H76.6799774l-0.0099487-0.5900269
				c0-0.0200195,0.0099487-0.0499878,0.0099487-0.0700073c0-0.0299683-0.0099487-0.0700073-0.0099487-0.0899658
				l-0.0900269-2.6100464L76.8500214,73.6715317z M98.1700287,83.6415024c0,0.3900146-0.3200073,0.710022-0.6900024,0.710022
				H75.4399872c-0.3900146,0-0.7099609-0.3200073-0.7099609-0.710022v-0.5999756
				c0.1900024,0.1499634,0.4400024,0.2600098,0.7299805,0.2600098h22.0999756c0.2200317,0,0.4200439-0.0800171,0.6100464-0.2000122
				V83.6415024z M89.2700043,52.1214828v1.1600342h-5.6400146v0.0999756h5.6600342v-1.2600098H89.2700043z M89.2700043,52.1214828
				v1.1600342h-5.6400146v0.0999756h5.6600342v-1.2600098H89.2700043z M89.2700043,52.1214828v1.1600342h-5.6300049v0.0999756
				h5.6500244v-1.2600098H89.2700043z M89.2700043,52.1214828v1.1600342h-5.6300049v0.0999756h5.6500244v-1.2600098H89.2700043z
				 M89.2700043,52.1214828v1.1600342h-5.6300049v0.0999756h5.6500244v-1.2600098H89.2700043z M89.2700043,52.1214828v1.1600342
				h-5.6300049v0.0999756h5.6500244v-1.2600098H89.2700043z M89.2700043,52.1214828v1.1600342h-5.6300049v0.0999756h5.6500244
				v-1.2600098H89.2700043z M83.6299896,53.281517v0.0999756h5.6400146V53.281517H83.6299896z"/>
			<rect x="86.7739944" y="39.0056305" class="st6" width="0.2436523" height="0.1025352"/>
			<rect x="85.8763123" y="39.0056305" class="st6" width="0.2564926" height="0.1025352"/>
			<polygon class="st7" points="86.1328049,43.2374496 86.1328049,48.5464973 85.106926,48.5464973 85.3505783,43.365654 			"/>
			<polygon class="st7" points="87.7998734,48.5464973 86.7739944,48.5464973 86.7739944,43.2374496 87.556221,43.365654 			"/>
			<polygon class="st7" points="87.5177917,42.7116318 86.7739944,42.5962601 86.7739944,40.1725578 87.4023438,40.1725578 			"/>
			<polygon class="st7" points="86.1328049,40.1725578 86.1328049,42.5834274 85.4018402,42.7116318 85.5044556,40.1725578 			"/>
			<path class="st8" d="M90.6852188,48.5464973v-1.1798401c0-0.0769424,0-0.1538811-0.0128403-0.2308197l-0.1153641-0.743721
				h-0.4232101v-0.8848419h2.9751205l0.4487991,3.0392227H90.6852188z"/>
			<path class="st8" d="M82.772995,45.5072746v0.8848419h-0.4232101l-0.1026077,0.743721
				c-0.0255966,0.0769386-0.0384293,0.1538773-0.0384293,0.2308197v1.1798401h-2.8469162l0.4232101-3.0392227H82.772995z"/>
			<path class="st9" d="M98.1743164,83.1064148v0.5386505c0,0.384697-0.3205948,0.7052917-0.6925354,0.7052917H75.4377747
				c-0.384697,0-0.7052917-0.3205948-0.7052917-0.7052917V83.042305c0.1923904,0.1538849,0.4360428,0.2564926,0.7309647,0.2564926
				h22.0952759C97.7767868,83.2987976,97.981926,83.2218628,98.1743164,83.1064148z"/>
			<polygon class="st10" points="95.5518417,61.8915558 94.6926727,55.8387871 78.3039017,55.8387871 77.4318924,61.8915558 
				77.4308777,61.9183235 95.5528641,61.9183235 			"/>
			<polygon class="st2" points="77.4308777,61.9183235 77.1369705,69.662735 77.1360321,69.6759644 95.8581161,69.6759644 
				95.5528641,61.9183235 			"/>
			<polygon class="st11" points="77.8008957,69.0348129 78.048233,62.5597038 94.9363708,62.5597038 95.1912155,69.0348129 			"/>
			<polygon class="st10" points="95.8581161,69.6759644 77.1360321,69.6759644 76.5869675,77.3490753 96.422287,77.3490753 
				95.8596039,69.7140808 			"/>
			<path class="st2" d="M76.5869675,77.3490753l-0.0014877,0.0207443l0.0897751,2.6032562
				c0,0.0255966,0.0128403,0.0641022,0.0128403,0.0896988c0,0.0256729-0.0128403,0.0513458-0.0128403,0.0769348l0.0128403,0.58992
				H96.308403l0.115448-3.3598099l-0.001564-0.0207443H76.5869675z"/>
			<g>
				<g>
					<polygon class="st12" points="89.3199081,50.8427429 83.6903458,50.8427429 83.7928848,49.8296204 89.2173767,49.8296204 					
						"/>
				</g>
				<g>
					<polygon class="st12" points="95.5651474,50.8427429 90.6022873,50.8427429 90.5125885,49.8296204 95.4111862,49.8296204 					
						"/>
				</g>
				<g>
					<rect x="90.563858" y="52.1251183" class="st12" width="5.0909882" height="1.2567024"/>
				</g>
				<g>
					<rect x="83.6390076" y="52.1251183" class="st12" width="5.6424789" height="1.2567024"/>
				</g>
				<g>
					<rect x="77.2528076" y="52.1251183" class="st12" width="5.1038208" height="1.2567024"/>
				</g>
				<g>
					<polygon class="st12" points="82.4977493,49.8296204 82.4079742,50.8427429 77.3554153,50.8427429 77.49646,49.8296204 					
						"/>
				</g>
			</g>
			<g>
				<ellipse class="st10" cx="79.2278595" cy="79.0396423" rx="1.5404358" ry="1.234024"/>
				<ellipse class="st10" cx="93.781395" cy="79.0396423" rx="1.5404358" ry="1.234024"/>
			</g>
		</g>
		<g>
			<rect x="74.808815" y="86.3219833" width="5.2161484" height="2.061615"/>
			<rect x="92.8818359" y="86.3219833" width="5.2161484" height="2.061615"/>
		</g>
	</g>
</g>
</svg>
