<?xml version="1.0" encoding="utf-8"?>
<!-- Generator: Adobe Illustrator 27.6.1, SVG Export Plug-In . SVG Version: 6.00 Build 0)  -->
<svg version="1.1" id="Layer_1" xmlns="http://www.w3.org/2000/svg" xmlns:xlink="http://www.w3.org/1999/xlink" x="0px" y="0px"
	 viewBox="0 0 172.8999939 90" style="enable-background:new 0 0 172.8999939 90;" xml:space="preserve">
<style type="text/css">
	.st0{fill:#888888;}
	.st1{fill:#F79420;}
	.st2{fill:#666666;}
	.st3{fill:#CCCCCC;}
	.st4{fill:#0099FF;}
	.st5{fill:#3751A0;}
	.st6{fill:#999999;}
	.st7{fill:#FFFFFF;}
	.st8{fill:#797979;}
	.st9{fill:none;stroke:#000000;stroke-linecap:round;stroke-linejoin:round;stroke-miterlimit:10;}
	.st10{fill:none;stroke:#000000;stroke-width:0.75;stroke-linecap:round;stroke-linejoin:round;stroke-miterlimit:10;}
	.st11{fill:#BABABA;}
	.st12{fill:none;stroke:#000000;stroke-width:0.5;stroke-linecap:round;stroke-linejoin:round;stroke-miterlimit:10;}
</style>
<g>
	<g>
		<path class="st0" d="M53.933712,55.3387222l-2.3140869-1.3366089l2.4389038-1.4082642l2.3146973,1.3362427l8.887516-5.1318359
			l56.3234253,32.5153198c0.4963379,0.2865601,0.4963989,1.0029297,0.0001831,1.2896118l-12.2664795,7.0865479
			c-0.7160034,0.4136353-1.5983276,0.4136963-2.3143921,0.0001221L50.7307091,57.1882095L53.933712,55.3387222z"/>
		<g>
			<g>
				<path d="M122.169281,71.7479782c0-1.8500366-0.7099609-3.6000366-1.9899902-4.9299927l-5.7199707-5.9300575
					l-1.6900024-8.5899658c-0.0500488-0.2900391-0.2300415-0.5300293-0.4800415-0.6799927l-13.4799805-7.7800293
					c-0.3099976-0.1799927-0.6900024-0.1799927-1,0l-3.710022,2.1400146l0.0900269-0.289978l3.9400024-2.2700195
					c0.1599731-0.0900269,0.25-0.2600098,0.25-0.4400024v-2.25c0-0.210022-0.1300049-0.3900146-0.3200073-0.460022
					l-3.0599976-1.7699585c-0.1600342-0.0900269-0.3499756-0.0900269-0.5,0l-4.9199829,2.8399658h-0.0100098l-5.0700073,2.9400024
					l-0.8499756,0.4799805l-3.6700439-2.1099854l-13.3999634-7.7399902
					c-0.2900391-0.1699829-0.6199951-0.1699829-0.9000244-0.0499878l-3.549984-3.1400127
					c-0.0100098,0-0.0100098-0.0100098-0.0200195-0.0100098c-0.0299683-0.0199585-0.0599976-0.039978-0.0899658-0.0499878
					c-0.0300293-0.0200195-0.0500488-0.0299683-0.0800171-0.039978c-0.0300293-0.0100098-0.0599976-0.0100098-0.0900269-0.0100098
					c-0.0299683-0.0100098-0.0700073-0.0100098-0.0999756-0.0100098c-0.0100098,0-0.0300293,0-0.039978,0.0100098
					l-2.2700195-1.3500366c-0.1199951-0.0699463-0.2600098-0.0699463-0.3800049,0l-0.5200195,0.2900391l-1.1699829,0.2199707
					c-0.039978,0.0100098-0.0800171,0.0300293-0.1099854,0.0500488l-1.0499878,0.5999756c0,0,0,0.0100098-0.0100098,0.0100098
					c-0.0599976,0.039978-0.1199951,0.0999756-0.1500244,0.1799927c0,0.0100098,0,0.0100098-0.0100098,0.0200195
					c-0.0100098,0.0499878-0.0199585,0.0999756-0.0199585,0.1599731l0.0999756,0.9600201
					c0.0200195,0.1900024,0.1900024,0.3299561,0.3800049,0.3299561h0.039978
					c0.2000122-0.0199585,0.3500366-0.1999512,0.3300171-0.4099731l-0.0599976-0.6199951l0.2600098-0.0499859v0.9400005
					c0,0.1300049,0.0700073,0.25,0.1799927,0.3199463l1.6300049,0.960022l-0.2399902,0.4899902
					c-0.0100098,0.0100098-0.0100098,0.0200195-0.0100098,0.0300293c-0.0200195,0.039978-0.0200195,0.0700073-0.0300293,0.0999756
					l-4.3800049,2.5200195c-0.0099487,0.0100098-0.0199585,0.0200195-0.0299683,0.0299683l-0.0300293,0.0300293
					c-0.0299683,0.039978-0.0599976,0.0899658-0.0599976,0.1500244v1.2199707c0,0.0900269,0.0500488,0.1799927,0.1199951,0.2199707
					l1.25,0.7200317c0.0400391,0.0200195,0.0800171,0.0299683,0.1300049,0.0299683
					c0.0400391,0,0.0800171-0.0099487,0.1199951-0.0299683l0.210022-0.1199951l-0.3599854,1.0700073l-2.5300293,1.4599609
					c-0.0700073,0.0400391-0.1099854,0.1000366-0.1599731,0.1500244c-0.0499878,0.039978-0.1000366,0.0800171-0.1400146,0.1300049
					c-0.0800171,0.1099854-0.1400146,0.2299805-0.1699829,0.3499756c0,0.0200195-0.0100098,0.0300293-0.0200195,0.0400391
					l-1.4799805,7.3399658c-0.0800171,0.4200439,0.1099854,0.8500366,0.4899902,1.0700073l0.960022,0.5499878l1.1199951,0.6500244
					c0.1199951,0.0700073,0.2600098,0.1099854,0.3999634,0.1199951c-0.0999756,0.3699951-0.1799927,0.7800293-0.1799927,1.2600098
					c-0.0100098,2.8699951,2,6.3499756,4.4799805,7.7799683c1.2800293,0.7400513,2.4400024,0.8000488,3.2600098,0.2900391
					l1.0700073-0.6199951c0.9700317-0.5599976,1.5800133-1.5800171,1.6300011-2.6799927l19.4799805,11.2500038l1.5,0.8699951
					l8.710022,5.0299683c0.0800171,0.039978,0.1600342,0.0700073,0.25,0.1000366
					c-0.0899658,0.3599854-0.1599731,0.75-0.1699829,1.2099609c-0.0100098,2.8699951,2,6.3500366,4.4799805,7.7800293
					c1.2800293,0.7399902,2.4400024,0.7999878,3.2600098,0.289978l2.3900146-1.3800049l2.5100098,1.4500122
					c0.5799561,0.3300171,1.2299805,0.5,1.8799438,0.5c0.6600342,0,1.3100586-0.1699829,1.8900146-0.5l10.4700317-6.039978
					c0.7299805-0.4200439,1.1799927-1.2000122,1.1900024-2.0400391l0.0299683-1.289978c0,0-0.0100098,0-0.0100098-0.0100098
					c0,0,0.0100098,0,0.0100098-0.0100098V71.7479782z M58.7093239,38.6279793l0.25-0.7700195l0.7399902-0.4199829
					L58.7093239,38.6279793z"/>
				<polygon class="st1" points="80.6742172,48.2203941 80.6742172,49.310421 82.7942123,50.5303917 82.7942123,49.4404259 				"/>
				<path class="st2" d="M105.4142075,80.7803879v1.3300171l2.3000488,1.3200073
					c0.5499878,0.3200073,1.2199707,0.3200073,1.7699585,0l10.4700317-6.0300293
					c0.1199951-0.0700073,0.1900024-0.1900024,0.1900024-0.3399658l0.0199585-1.0700073l-10.7599487,6.2099609
					c-0.1600342,0.0900269-0.3300171,0.1300049-0.5,0.1300049c-0.1900024,0-0.3700562-0.0499878-0.5300293-0.1499634
					l-2.9299927-1.6900024c0,0,0,0.0100098,0,0.0199585C105.4542465,80.6003952,105.434227,80.6904221,105.4142075,80.7803879z"/>
				<path class="st3" d="M53.184227,49.8403893l0.3400269,0.2000122c0.3699951-0.8400269,0.9599609-1.4799805,1.7299805-1.8599854
					c1.2399902-0.6000366,2.7799683-0.4400024,4.3400269,0.4599609c2.6299438,1.5100098,4.8199463,4.8099976,5.3699951,8
					l19.8199463,11.4500084V60.390377l-11.0299683-6.3599854l-3.1300049-0.1300049
					c-0.1599731-0.0100098-0.3200073-0.0499878-0.460022-0.1400146l-15.9199829-9.1899414L53.184227,49.8403893z
					 M75.5842514,61.350399l0.0100098-4.5200195c0-0.0799561,0.0299683-0.1399536,0.0799561-0.1599731
					c0.0499878-0.0300293,0.1199951-0.0200195,0.1900024,0.0200195l3.3599854,1.9400024l3.3700562,1.9499512
					c0.0699463,0.0400391,0.1399536,0.1100464,0.1899414,0.1900024c0.0500488,0.0800171,0.0800171,0.1799927,0.0800171,0.2600098
					l-0.0100098,4.5200157c0,0.0800171-0.0299683,0.1400146-0.0799561,0.1699829
					c-0.0500488,0.0300293-0.1199951,0.0200195-0.1900024-0.0200195l-3.3699951-1.9499474l-3.3699951-1.9400024
					c-0.0700073-0.0400391-0.1400146-0.1100464-0.1800537-0.2000122
					C75.6142197,61.5303917,75.5842514,61.4304161,75.5842514,61.350399z"/>
				<path class="st4" d="M56.224205,40.3004112l0.2900391-0.1600342c0.0599976-0.039978,0.1300049-0.039978,0.1900024-0.0499878
					l0.3800049-1.1400146l-0.5,0.2900391L56.224205,40.3004112z"/>
				<path class="st5" d="M57.224205,40.100399c0.0500488,0.0200195,0.0900269,0.0100098,0.1300049,0.039978l0.0700073,0.0300293
					l0.4100342-0.4899902l0.4799805-1.4400024l-0.5800171,0.3300171v0.0099487L57.224205,40.100399z"/>
				<polygon class="st2" points="54.6042099,38.0103722 54.6042099,38.6503868 55.3542099,39.0803795 55.3542099,38.4404259 				"/>
				<polygon class="st2" points="55.8542099,38.4404259 55.8542099,39.0803795 56.2642441,38.8403893 60.184227,36.5803795 
					59.7442245,36.1904259 				"/>
				<polygon class="st2" points="54.8542099,37.5803795 55.6042099,38.0103722 59.3542099,35.8403893 58.7742538,35.3204308 				"/>
				<polygon class="st4" points="59.0242538,31.1503868 60.7142563,32.140377 60.934227,32.0203819 59.2542343,31.0203819 				"/>
				<polygon class="st4" points="58.1942368,31.6304283 59.8742294,32.6304283 60.224205,32.4304161 58.5342026,31.4404259 				"/>
				<polygon class="st4" points="57.8242416,32.2803917 57.8242416,32.7203941 59.224205,33.5504112 59.394249,33.2103844 				"/>
				<path class="st3" d="M79.6942368,47.2603722c0-0.0099487,0-0.0099487,0-0.0199585
					c0.0100098-0.0300293,0.0200195-0.0700073,0.0299683-0.1000366c0.0200195-0.0299683,0.0400391-0.0599976,0.0700073-0.0999756
					c0.0200195-0.0300293,0.0500488-0.0499878,0.0800171-0.0700073c0.0100098-0.0200195,0.0200195-0.039978,0.0499878-0.0499878
					l1.7300415-1l-2.6700439-1.539978L71.644249,40.140377L79.6942368,47.2603722z"/>
				<polygon class="st4" points="61.6042099,32.7803917 78.7142563,48.0004234 78.894249,47.890377 76.6542587,45.9103966 
					61.7342148,32.7103844 				"/>
				<path class="st4" d="M60.8442612,33.2203941l14.3099976,12.8500366l0.8299561,0.7399902l2.2900391,2.0499878
					c-0.0200195-0.0599976-0.0200195-0.1199951-0.0200195-0.1699829v-0.0100098
					c0.0100098-0.1300049,0.039978-0.2399902,0.0900269-0.3400269L61.1542587,33.0404015L60.8442612,33.2203941z"/>
				<polygon class="st6" points="62.3142319,41.0103722 68.0242538,44.310421 63.1642075,39.9904137 				"/>
				<polygon class="st6" points="61.3242416,42.4304161 74.4042587,49.9804039 71.7342148,47.600399 62.0442123,42.0103722 				"/>
				<path class="st4" d="M58.3042221,40.6804161l0.1400146,0.0799561l0.8900146,0.5200195l0.3200073,0.1900024l2.5099487-3.0200195
					c0.0900269-0.0999756,0.210022-0.1599731,0.3500366-0.1799927c0.1300049,0,0.2699585,0.0400391,0.3699951,0.1300049
					l13.289978,11.8200073l1.7800293,0.0700073c0.0799561,0,0.1599731,0.0200195,0.2299805,0.0599976l0.6400146,0.3699951
					L60.144249,33.9404259l-0.4400024,0.8800049l1.6400146,1.4499512c0.0199585,0.0200195,0.0299683,0.0500488,0.0499878,0.0700073
					c0.0199585,0.0300293,0.0499878,0.0499878,0.0599976,0.0800171c0.0199585,0.0299683,0.0199585,0.0599976,0.0299683,0.0899658
					c0.0100098,0.0300293,0.0200195,0.0700073,0.0200195,0.1000366c0.0100098,0.0299683,0,0.0599976-0.0100098,0.0899658
					c0,0.0300293,0,0.0700073-0.0100098,0.1000366c-0.0100098,0.0299683-0.0299683,0.0499878-0.039978,0.0800171
					c-0.0200195,0.0299683-0.0300293,0.0599976-0.0499878,0.0899658L58.3042221,40.6804161z"/>
				<path class="st4" d="M79.6542587,50.100399l0.7299805,0.6599731l0.1300049-0.3899536l-0.5900269-0.3400269
					c-0.0299683-0.0200195-0.0499878-0.0299683-0.0700073-0.0499878c-0.0299683,0.039978-0.0700073,0.0700073-0.1099854,0.0900269
					C79.7142563,50.0903893,79.684227,50.100399,79.6542587,50.100399z"/>
				<path class="st4" d="M78.7542343,48.6904259c0,0.3199463,0.25,0.7399902,0.5200195,0.8999634
					c0.1199951,0.0599976,0.1900024,0.0599976,0.2199707,0.0400391c0.039978-0.0200195,0.0700073-0.1000366,0.0700073-0.2000122
					c0-0.3200073-0.2399902-0.7300415-0.5300293-0.9000244c-0.0699463-0.039978-0.1299438-0.0599976-0.1599731-0.0599976
					c-0.0200195,0-0.039978,0.0100098-0.0499878,0.0100098C78.7942123,48.5004234,78.7542343,48.560421,78.7542343,48.6904259z"/>
				<path class="st3" d="M55.5442123,43.0103722l15.4100342,8.9000244l3.1300049,0.1300049
					c0.1599731,0.0100098,0.3099976,0.0499878,0.4499512,0.1300049l10.25,5.9099731v-3.25
					c-0.0499878,0.0599976-0.0999756,0.1199951-0.1599731,0.1600342l-1.960022,1.1199951
					c-0.0699463,0.0499878-0.1599731,0.0700073-0.25,0.0700073c-0.0499878,0-0.0999756-0.0100098-0.1599731-0.0300293
					c-0.0200195-0.0100098-0.0300293-0.0199585-0.0499878-0.0299683c-0.0100098,0-0.0200195,0-0.0400391-0.0100098
					l-2.6599731-1.539978c-0.0100098-0.0100098-0.0200195-0.0200195-0.039978-0.0300293
					c-0.0200195-0.0200195-0.0500488-0.039978-0.0700073-0.0700073c-0.0200195-0.0200195-0.0400391-0.039978-0.0599976-0.0700073
					c-0.0200195-0.0299683-0.0300293-0.0599976-0.0400391-0.0899658c-0.0100098-0.0300293-0.0199585-0.0599976-0.0199585-0.0900269
					c-0.0100098-0.0299683-0.0100098-0.0599976-0.0100098-0.0899658c0-0.0300293,0-0.0700073,0.0100098-0.1000366
					c0.0099487-0.0200195,0-0.0299683,0.0099487-0.0499878l0.5200195-1.539978l-2.0100098-1.1600342l-3.25-0.1300049
					c-0.0799561,0-0.1599731-0.0199585-0.2299805-0.0599976l-15.4799805-8.9400024l-0.0100098-0.0100098l-0.8800049-0.5199585
					c0,0.0100098-0.0100098,0.0100098-0.0100098,0.0100098L55.5442123,43.0103722z"/>
				<polygon class="st6" points="83.3242416,54.5803795 83.9542465,54.2103844 85.0242538,50.9904137 84.434227,51.3303795 				"/>
				<path class="st3" d="M80.3642197,53.9103966l1.7800293,1.0300293l1.039978-3.0599976
					c-0.039978-0.0100098-0.0800171-0.0200195-0.1199951-0.0400391c0,0,0,0-0.0100098,0l-1.6499634-0.9599609L80.3642197,53.9103966
					z"/>
				<polygon class="st6" points="86.2342148,50.5203819 89.5042343,48.640377 89.2942123,48.5203819 86.3342514,50.2304039 				"/>
				<polygon class="st6" points="92.2042465,47.0803795 92.7942123,46.7404137 92.894249,46.4404259 92.3042221,46.7904015 				"/>
				<path class="st1" d="M83.7942123,49.4404259v1.0999756l1.7700195-1.0200195
					c0.0599976-0.0700073,0.1500244-0.1099854,0.2399902-0.1300049l1.5700073-0.9099731v-1.1099854L83.7942123,49.4404259z"/>
				<polygon class="st1" points="88.3742294,46.8004112 88.3742294,47.9003868 92.4542465,45.5504112 92.4542465,44.4503746 				"/>
				<path class="st1" d="M93.4542465,43.8704185v1.0999756c0.0499878-0.0599976,0.1300049-0.0999756,0.2099609-0.1199951
					l3.7200317-2.1500244V41.600399L93.4542465,43.8704185z"/>
				<polygon class="st1" points="90.8242416,41.7703819 92.9542465,43.0004234 96.8842392,40.7404137 94.7442245,39.5103722 				"/>
				<polygon class="st1" points="85.7442245,44.7103844 87.8742294,45.9304161 91.9542465,43.5803795 89.8242416,42.350399 				"/>
				<polygon class="st1" points="81.1742172,47.350399 83.2942123,48.5704308 86.8642197,46.5103722 84.7442245,45.2904015 				"/>
				<polygon class="st7" points="86.7842026,52.5203819 99.2542343,59.7203941 110.9042587,53.1304283 98.3142319,45.8604088 				
					"/>
				<path class="st3" d="M99.2542343,59.7203941l1.75,8.8800011l0.0100098,0.0100098l11.6699829-6.7399864
					c-0.0700073-0.1000366-0.1099854-0.2000122-0.1300049-0.3099976l-0.3699951-1.8699951l-1.2799683-6.5599976
					L99.2542343,59.7203941z"/>
				<polygon class="st8" points="112.0209808,61.4476242 111.6932831,59.7930946 110.5836792,54.1089859 99.8569946,60.1763077 
					101.3247223,67.6248932 				"/>
				<path class="st7" d="M101.0142441,68.610405l2.9400024,3.0499878l2.9699707,3.0900269
					c0.6500244,0.6599731,1.1199951,1.4599609,1.4000244,2.3299561l0.4699707-0.2699585l11.1799927-6.460022
					c-0.2199707-0.7999878-0.6399536-1.5299683-1.2299805-2.1400146l-5.9299927-6.1399498
					c-0.0599976-0.0600586-0.0999756-0.1300049-0.1300049-0.2000122L101.0142441,68.610405z"/>
				<path class="st3" d="M108.3242416,77.0803757c0.1099854,0.3099976,0.1900024,0.6300049,0.2299805,0.9500122
					c0.0499878,0.3099976,0.0800171,0.6300049,0.0800171,0.9500122v1.0299683l0.2700195,0.1600342l1.6900024-0.9700317
					l3.2099609-1.8499756l6.3699951-3.6699829v-1.9299927c0-0.4800415-0.0700073-0.9500122-0.2000122-1.4000244
					l-11.1799927,6.460022L108.3242416,77.0803757z"/>
				<path d="M75.5842514,61.350399c0,0.0800171,0.0299683,0.1799927,0.0799561,0.2600098
					c0.0400391,0.0899658,0.1100464,0.1599731,0.1800537,0.2000122l3.3699951,1.9400024l3.3699951,1.9499474
					c0.0700073,0.0400391,0.1399536,0.0500488,0.1900024,0.0200195c0.0499878-0.0299683,0.0799561-0.0899658,0.0799561-0.1699829
					l0.0100098-4.5200157c0-0.0800171-0.0299683-0.1799927-0.0800171-0.2600098
					c-0.0499878-0.0799561-0.1199951-0.1499634-0.1899414-0.1900024l-3.3700562-1.9499512l-3.3599854-1.9400024
					c-0.0700073-0.0400391-0.1400146-0.0500488-0.1900024-0.0200195c-0.0499878,0.0200195-0.0799561,0.0800171-0.0799561,0.1599731
					L75.5842514,61.350399z M79.4842148,63.3004112l0.0100098-3.9000244l2.8300171,1.6300049l-0.0100098,3.9000206
					L79.4842148,63.3004112z M76.1142197,61.3604088l0.0200195-3.9100342l2.8300171,1.6400146l-0.0100098,3.9000244
					L76.1142197,61.3604088z"/>
				<polygon class="st3" points="76.1142197,61.3604088 78.9542465,62.9904137 78.9642563,59.0903893 76.1342392,57.4503746 				"/>
				<polygon class="st3" points="79.4842148,63.3004112 82.3142319,64.9304123 82.3242416,61.0303917 79.4942245,59.4003868 				"/>
			</g>
			<path class="st3" d="M86.7842026,52.5203819v16.7200279l7.0500488,4.0800171
				c0.3599854-0.9000244,0.9599609-1.5900269,1.75-1.9900513c1.25-0.6300049,2.8099976-0.4699707,4.4099731,0.4400024
				c2.1000366,1.2200317,3.8900146,3.5500488,4.8200073,6.0500488c0.0100098,0.0099487,0.0100098,0,0.0200195,0.0099487
				l3.7999878,2.1799927v-1.0299683c0-1.5800171-0.6099854-3.0999756-1.710022-4.2299805l-5.9199829-6.1500244l-1.75-8.8800011
				L86.7842026,52.5203819z"/>
			<polygon class="st8" points="96.3436432,60.4079018 97.5585861,67.4991074 90.1498947,63.2162132 90.1498947,56.8316917 			"/>
			<g>
				<path class="st9" d="M85.92939,49.8599739"/>
			</g>
			<g>
				<path class="st9" d="M63.7874641,39.2115784"/>
			</g>
			<g>
				<path class="st9" d="M77.2040787,51.1392784"/>
			</g>
			<g>
				<path class="st10" d="M61.9790649,32.19384"/>
			</g>
			<g>
				<g>
					<path class="st0" d="M97.9585876,79.0297165c-0.421402-0.2433014-0.7650681-0.8312225-0.7636948-1.3154297
						c0.0013962-0.4915161,0.3472595-0.6812897,0.7686691-0.4379883c0.4213791,0.2432861,0.7650452,0.8311615,0.763649,1.3226776
						C98.7258453,79.0831757,98.3799744,79.2730026,97.9585876,79.0297165L97.9585876,79.0297165z M98.5836563,77.3550339
						c-1.0917816-0.6303406-1.988533-0.1266098-1.9921112,1.1352386c-0.0035553,1.2545395,0.887413,2.7903595,1.9791946,3.4206924
						c1.0981598,0.6340256,1.9949112,0.1303482,1.9984665-1.1241837
						C100.5727844,79.5249252,99.6818161,77.9890594,98.5836563,77.3550339L98.5836563,77.3550339z"/>
					<path class="st11" d="M97.963562,77.2762985c0.4213791,0.2432861,0.7650452,0.8311615,0.763649,1.3226776
						c-0.0013657,0.4841995-0.3472366,0.6740265-0.7686234,0.4307404c-0.421402-0.2433014-0.7650681-0.8312225-0.7636948-1.3154297
						C97.1962891,77.2227707,97.5421524,77.0329971,97.963562,77.2762985L97.963562,77.2762985z"/>
				</g>
			</g>
			<g>
				<g>
					<path class="st0" d="M57.7419739,55.7990456c-0.4214058-0.2433014-0.7650681-0.8312263-0.7636948-1.3154259
						c0.0013924-0.4915161,0.3472595-0.6812897,0.7686653-0.4379921c0.4213829,0.2432861,0.765049,0.8311615,0.7636528,1.3226776
						C58.5092278,55.8525047,58.1633568,56.0423279,57.7419739,55.7990456L57.7419739,55.7990456z M58.3670387,54.1243629
						c-1.0917778-0.6303368-1.9885292-0.1266098-1.9921074,1.1352425c-0.0035553,1.2545357,0.887413,2.7903557,1.9791908,3.4206924
						c1.0981636,0.6340256,1.994915,0.1303444,1.9984703-1.1241913
						C60.3561707,56.2942581,59.4652023,54.7583885,58.3670387,54.1243629L58.3670387,54.1243629z"/>
					<path class="st11" d="M57.7469444,54.0456276c0.4213829,0.2432861,0.765049,0.8311615,0.7636528,1.3226776
						c-0.0013695,0.4841995-0.3472404,0.6740227-0.7686234,0.4307404c-0.4214058-0.2433014-0.7650681-0.8312263-0.7636948-1.3154259
						C56.9796715,53.9921036,57.3255386,53.80233,57.7469444,54.0456276L57.7469444,54.0456276z"/>
				</g>
			</g>
			<g>
				<path class="st12" d="M56.9782753,40.6337128"/>
			</g>
			<g>
				<path class="st12" d="M57.9680786,38.2952003"/>
			</g>
		</g>
	</g>
	<g>
		<g>
			<path d="M73.1033249,58.6825752l0.1682739-0.7037926l0.0765915,0.04422
				c0.0766373,0.0442467,0.1340179,0.1067772,0.1529846,0.1764832c0.025383,0.0734596,0.0187225,0.1724777-0.0136642,0.3081131
				c-0.0194702,0.1063194-0.0516129,0.1685982-0.0773239,0.2125587l-0.0832977,0.0547676
				c-0.0319748,0.0036163-0.083107-0.0112534-0.1469269-0.0481033L73.1033249,58.6825752 M73.4895859,57.7739334
				l-0.4596558-0.2653847l-0.304245,1.286705l0.4660721,0.2690849c0.0510941,0.0294991,0.1149979,0.051693,0.191658,0.073925
				l0.159996-0.0325623c0.0576248-0.0255356,0.1088562-0.062088,0.1410599-0.1316528
				c0.0449371-0.0622635,0.0835876-0.1575089,0.1159592-0.3004875c0.0194092-0.0843277,0.0324478-0.1723289,0.0391083-0.2566452
				c0.0002518-0.0880623-0.0187073-0.1798363-0.0376511-0.2569084l-0.1081161-0.2167587
				C73.6491928,57.8807831,73.5853653,57.8292313,73.4895859,57.7739334"/>
			<polyline points="72.8447647,57.4016418 72.0211334,56.9261208 71.7232971,58.216526 72.5660858,58.7031097 
				72.630867,58.4098053 72.0945511,58.1001587 72.1528168,57.8472519 72.6380692,58.1274071 72.696373,57.8597717 
				72.217514,57.5833015 72.262886,57.3743248 72.7800446,57.6729088 72.8447647,57.4016418 			"/>
			<polyline points="71.8040543,56.8007927 71.4912033,56.620163 71.1870041,57.9068947 71.4998322,58.0875092 
				71.8040543,56.8007927 			"/>
			<polyline points="71.312439,56.5169563 70.5526581,56.0782967 70.2548218,57.3686981 70.5549088,57.5419502 
				70.6779327,57.0104256 71.0673828,57.2352753 71.1256714,56.9749527 70.7426071,56.7537918 70.7944107,56.5265007 
				71.2477264,56.7882195 71.312439,56.5169563 			"/>
			<polyline points="70.3291931,55.9492798 70.0227432,55.7723503 69.7185287,57.0590668 70.0249939,57.2360077 
				70.3291931,55.9492798 			"/>
			<polyline points="69.8631287,55.6801949 68.9309692,55.1420135 68.8597183,55.4609833 69.172554,55.6415977 
				68.9459686,56.6130295 69.2524338,56.7899704 69.4790192,55.8185387 69.7918777,55.9991646 69.8631287,55.6801949 			"/>
			<path d="M68.1184464,55.260807l0.064682-0.2566338l0.1340714,0.0774078l0.1084442,0.0993881l0.006073,0.1137428
				l-0.0385437,0.0585785l-0.0512161,0.0218582l-0.0894318-0.0369339L68.1184464,55.260807 M68.4457169,54.8618546
				l-0.5107727-0.2948952l-0.2978134,1.2904167l0.3000641,0.1732407l0.1230087-0.5242119l0.0319061,0.018425l0.0701523,0.0699005
				l0.0252151,0.1321182l0.0753479,0.4917679l0.3511505,0.2027397l-0.0626373-0.4623528l-0.0189133-0.0991287l-0.0380707-0.1028099
				l-0.0700836-0.0918922l0.1214523,0.0186882l0.1280975-0.0730057c0.0321045-0.0402718,0.0642242-0.0952339,0.0772247-0.16856
				c0.0130463-0.0880013,0.0196609-0.1650162,0.0006866-0.2420998l-0.089035-0.1762924
				C68.6117096,54.9650612,68.5414963,54.9171524,68.4457169,54.8618546"/>
			<polyline points="67.7434158,54.4563789 66.9197845,53.9808578 66.6219711,55.2712708 67.4647369,55.757843 
				67.5295181,55.4645386 66.999588,55.1585808 67.0514908,54.9019966 67.5367203,55.1821442 67.6014175,54.9181938 
				67.116188,54.6380463 67.167923,54.4327469 67.6850815,54.7313309 67.7434158,54.4563789 			"/>
			<path d="M66.3133163,53.6086845c-0.166008-0.0958443-0.3002625-0.1072273-0.4155121-0.0562057
				c-0.1089249,0.0693741-0.1988602,0.208519-0.2506104,0.4211349c-0.0324554,0.1650047-0.0392609,0.3080406-0.0140228,0.4328461
				c0.0315781,0.1431198,0.0696487,0.2459297,0.1269989,0.3158226c0.0637207,0.0882149,0.1402512,0.1544304,0.255188,0.220787
				c0.0893936,0.0516129,0.166069,0.0738564,0.2299957,0.0813599c0.0703583-0.0034828,0.1279831-0.0289688,0.1856461-0.0691833
				c0.0449142-0.0475273,0.0962372-0.106102,0.1412354-0.190361l-0.248642-0.2684364
				c-0.0258102,0.0806313-0.0643005,0.1245422-0.1091461,0.150074l-0.1470566-0.0114441
				c-0.0638428-0.0368614-0.1020432-0.0956383-0.1210556-0.1580467c-0.0189896-0.0697708-0.0186615-0.1871414,0.0137329-0.3301048
				c0.0322876-0.1136208,0.0580826-0.1869354,0.102951-0.2271614c0.0576859-0.0475273,0.1152878-0.0583725,0.185524-0.0178261
				l0.0765305,0.0735893l0.0508423,0.1101875l0.0061188,0.0990639l0.2875595,0.0778656
				c0.0004349-0.1540871-0.0247803-0.2862053-0.0820312-0.392765
				C66.5303116,53.7633705,66.4410095,53.6824074,66.3133163,53.6086845"/>
		</g>
	</g>
	<g>
		<g>
			<path class="st7" d="M118.872551,71.8738785c0.4987106-0.2879333,0.9022217-0.0533676,0.9038467,0.5196762
				c0.0016098,0.5684357-0.3992538,1.2674026-0.8979645,1.555336s-0.9022217,0.0533676-0.9038315-0.5150681
				C117.9729767,72.8607788,118.3738403,72.1618118,118.872551,71.8738785"/>
		</g>
	</g>
	<g>
		<g>
			<path class="st7" d="M110.7556534,76.5718002c0.4987106-0.2879333,0.9022217-0.0533676,0.9038467,0.5196762
				c0.0016098,0.5684357-0.3992538,1.2674026-0.8979645,1.555336c-0.4987183,0.2879333-0.9022217,0.0533676-0.9038391-0.5150681
				C109.8560715,77.5587006,110.2569351,76.8597336,110.7556534,76.5718002"/>
		</g>
	</g>
</g>
</svg>
