<?xml version="1.0" encoding="utf-8"?>
<!-- Generator: Adobe Illustrator 27.6.1, SVG Export Plug-In . SVG Version: 6.00 Build 0)  -->
<svg version="1.1" id="Layer_1" xmlns="http://www.w3.org/2000/svg" xmlns:xlink="http://www.w3.org/1999/xlink" x="0px" y="0px"
	 viewBox="0 0 172.8999939 90" style="enable-background:new 0 0 172.8999939 90;" xml:space="preserve">
<style type="text/css">
	.st0{fill:#FFFFFF;}
	.st1{fill:#CCCCCC;}
	.st2{fill:#797979;}
	.st3{fill:#F79420;}
	.st4{fill:#999999;}
	.st5{fill:#666666;}
	.st6{fill:#0099FF;}
	.st7{fill:#808080;}
	.st8{fill:#C1272D;}
</style>
<g>
	<g>
		<g>
			<g>
				<rect x="75.8416977" y="29.2188721" class="st0" width="21.210022" height="13.4511108"/>
			</g>
			<g>
				<rect x="75.8416977" y="25.2628174" class="st1" width="21.210022" height="3.9560547"/>
			</g>
			<g>
				<rect x="76.3415146" y="25.7625732" class="st2" width="20.2104492" height="2.9560547"/>
			</g>
			<g>
				<rect x="75.8416977" y="14.7399902" class="st0" width="21.210022" height="10.5228271"/>
			</g>
		</g>
		<g>
			<rect x="74.1717148" y="46.3299561" class="st3" width="7.5199585" height="3.460022"/>
		</g>
		<g>
			<rect x="82.6916733" y="46.3299561" class="st3" width="7.5100098" height="3.460022"/>
		</g>
		<g>
			<rect x="91.201683" y="46.3299561" class="st3" width="7.5100098" height="3.460022"/>
		</g>
		<g>
			<path class="st1" d="M97.0517197,50.789978h-1.1200562v4.0900269c0,0.2799683-0.2199707,0.5-0.5,0.5h-3.5899658
				c-0.1000366,0-0.2000122-0.0300293-0.2800293-0.0800171c-0.1300049-0.0900269-0.2199707-0.2399902-0.2199707-0.4199829V50.789978
				h-9.789978v4.0900269c0,0.2799683-0.2300415,0.5-0.5,0.5h-3.5900269c-0.2800293,0-0.5-0.2200317-0.5-0.5V50.789978h-1.1199951
				v14.3959351h5.1499634v-8.1759033c0-0.3400269,0.1800537-0.6500244,0.4400024-0.8300171
				c0.1600342-0.1099854,0.3500366-0.1699829,0.5599976-0.1699829h8.9100342c0.5499878,0,1,0.4499512,1,1v8.1759033h5.1500244
				V50.789978z"/>
		</g>
		<g>
			<rect x="75.8416977" y="65.1900024" class="st4" width="5.1499634" height="3.4899902"/>
		</g>
		<g>
			<rect x="91.9016953" y="65.1900024" class="st4" width="5.1500244" height="3.4899902"/>
		</g>
		<rect x="88.6117172" y="85.5" class="st5" width="4.9099731" height="1.2699585"/>
		<rect x="79.3617172" y="85.5" class="st5" width="4.9199829" height="1.2699585"/>
		<rect x="87.6916733" y="61.5100098" class="st6" width="0.5400391" height="2.1699829"/>
		<rect x="86.6916733" y="61.5100098" class="st6" width="0.5" height="2.1699829"/>
		<rect x="85.701683" y="61.5100098" class="st6" width="0.4899902" height="2.1699829"/>
		<rect x="84.661705" y="61.5100098" class="st6" width="0.539978" height="2.1699829"/>
		<rect x="84.6516953" y="58.5100098" class="st6" width="3.5899658" height="2.5"/>
		<rect x="82.9916611" y="58.0100098" class="st7" width="0.6600342" height="26.4899902"/>
		<rect x="89.2416611" y="58.0100098" class="st7" width="0.6600342" height="26.4899902"/>
		<rect x="86.6916733" y="64.1799927" class="st6" width="1.5499878" height="19.8200073"/>
		<rect x="84.6516953" y="64.1799927" class="st6" width="1.539978" height="19.8200073"/>
		<rect x="86.6916733" y="85.5" class="st6" width="0.9200439" height="1.539978"/>
		<rect x="85.2817001" y="85.5" class="st6" width="0.9099731" height="1.539978"/>
		<polygon class="st6" points="87.4817123,87.8699951 87.1117172,89 85.7817001,89 85.411705,87.8699951 		"/>
		<rect x="92.3416977" y="50.789978" class="st4" width="2.5899658" height="3.5900269"/>
		<rect x="77.9616928" y="50.789978" class="st4" width="2.5900269" height="3.5900269"/>
		<rect x="91.9016953" y="68.6799927" class="st1" width="5.1500244" height="15.289978"/>
		<rect x="75.8416977" y="68.6799927" class="st1" width="5.1499634" height="15.289978"/>
		<path class="st4" d="M97.0517197,84.9699707v1.2299805h-2.5300293V85c0-0.0100098,0-0.0200195-0.0100098-0.0300293H97.0517197z"/>
		<path class="st4" d="M78.371666,84.9699707C78.3617172,84.9799805,78.3617172,84.9899902,78.3617172,85v1.1999512h-2.5200195
			v-1.2299805H78.371666z"/>
		<path d="M100.1549835,32.4199829V20.0200195h-1.0999756v-6.2800293c0-0.5499878-0.4500122-1-1-1H74.844986
			c-0.5499878,0-1,0.4500122-1,1v6.2800293h-1.0999756v12.3999634h1.0999756v12.9100342h-0.1699829
			c-0.2700195,0-0.5,0.2299805-0.5,0.5v4.4599609c0,0.2700195,0.2299805,0.5,0.5,0.5h0.1699829v22.4000244h-1.0999756v12.3900146
			h1.0999756v1.6199951c0,0.5499878,0.4500122,1,1,1h8.8000488l0.1799927,0.6499634h0.8200073l0.25,0.75
			C84.9450226,89.8399658,85.1549835,90,85.385025,90h2.1300049c0.2299805,0,0.4299927-0.1600342,0.4899902-0.4000244l0.25-0.75
			h0.7299805l0.1699829-0.6499634h8.9000244c0.5499878,0,1-0.4500122,1-1v-1.6199951h1.0999756V73.1900024h-1.0999756V50.789978
			h0.1599731c0.2800293,0,0.5-0.2299805,0.5-0.5v-4.4599609c0-0.2700195-0.2199707-0.5-0.5-0.5h-0.1599731V32.4199829H100.1549835z
			 M75.844986,14.7399902h21.210022v27.9299927H75.844986V14.7399902z M75.844986,44.6699829h21.210022v0.6600342H75.844986
			V44.6699829z M90.2050323,46.3300171v3.4599609h-7.5100098v-3.4599609H90.2050323z M74.1750031,49.789978v-3.4599609h7.5200195
			v3.4599609H74.1750031z M80.5550079,50.789978v3.5900269h-2.5900269V50.789978H80.5550079z M78.3650055,85v1.2000122H75.844986
			v-1.2300415h2.5300293C78.3650055,84.9799805,78.3650055,84.9899902,78.3650055,85z M84.2849884,85.5v1.2700195h-4.9199829V85.5
			H84.2849884z M82.9950104,84.5V58.0100098h0.6599731V84.5H82.9950104z M88.2450104,64.1799927V84h-1.5499878V64.1799927
			H88.2450104z M86.6950226,63.6799927v-2.1699829h0.5v2.1699829H86.6950226z M87.6950226,63.6799927v-2.1699829h0.539978v2.1699829
			H87.6950226z M87.6150055,85.5v1.539978h-0.9199829V85.5H87.6150055z M88.2450104,61.0100098h-3.5900269v-2.5h3.5900269
			V61.0100098z M86.1950226,61.5100098v2.1699829h-0.4899902v-2.1699829H86.1950226z M85.2050323,61.5100098v2.1699829h-0.5400391
			v-2.1699829H85.2050323z M86.1950226,64.1799927V84h-1.5400391V64.1799927H86.1950226z M86.1950226,85.5v1.539978h-0.9100342V85.5
			H86.1950226z M87.1150055,89h-1.3300171l-0.0499878-0.1500244l-0.2600098-0.7999878l-0.0599976-0.1799927h2.0700073
			l-0.0599976,0.1799927l-0.2600098,0.7999878L87.1150055,89z M93.5250397,86.7700195h-4.9100342V85.5h4.9100342V86.7700195z
			 M89.2450104,84.5V58.0100098h0.6599731V84.5H89.2450104z M97.0550079,86.2000122h-2.5299683V85
			c0-0.0100098,0-0.0200195-0.0100098-0.0300293h2.539978V86.2000122z M97.0550079,83.9699707h-5.1500244V57.0100098
			c0-0.5499878-0.4499512-1-1-1h-8.9099731c-0.210022,0-0.4000244,0.0599976-0.5599976,0.1699829
			c-0.2600098,0.1799927-0.4400024,0.4899902-0.4400024,0.8300171v26.9599609H75.844986V50.789978h1.1199951v4.0900269
			c0,0.2799683,0.2200317,0.5,0.5,0.5h3.5900269c0.2700195,0,0.5-0.2200317,0.5-0.5V50.789978h9.789978v4.0900269
			c0,0.1799927,0.0900269,0.3300171,0.2200317,0.4199829c0.0800171,0.0499878,0.1799927,0.0800171,0.2799683,0.0800171h3.5900269
			c0.2799683,0,0.5-0.2200317,0.5-0.5V50.789978h1.1199951V83.9699707z M92.344986,54.3800049V50.789978h2.5900269v3.5900269
			H92.344986z M98.7149811,49.789978h-7.5099487v-3.4599609h7.5099487V49.789978z"/>
		<rect x="75.8416977" y="44.6699829" class="st1" width="21.210022" height="0.6599731"/>
	</g>
	<g>
		<rect x="77.0058441" y="85.7883835" class="st8" width="1.3255149" height="0.4115656"/>
		<rect x="94.5619965" y="85.7883835" class="st8" width="1.3255149" height="0.4115656"/>
	</g>
</g>
</svg>
