<?xml version="1.0" encoding="utf-8"?>
<!-- Generator: Adobe Illustrator 27.6.1, SVG Export Plug-In . SVG Version: 6.00 Build 0)  -->
<svg version="1.1" id="Layer_1" xmlns="http://www.w3.org/2000/svg" xmlns:xlink="http://www.w3.org/1999/xlink" x="0px" y="0px"
	 viewBox="0 0 172.8999939 90" style="enable-background:new 0 0 172.8999939 90;" xml:space="preserve">
<style type="text/css">
	.st0{fill:#888888;}
	.st1{fill:#F79420;}
	.st2{fill:#666666;}
	.st3{fill:#CCCCCC;}
	.st4{fill:#0099FF;}
	.st5{fill:#3751A0;}
	.st6{fill:#999999;}
	.st7{fill:#FFFFFF;}
	.st8{fill:#797979;}
	.st9{fill:none;stroke:#000000;stroke-linecap:round;stroke-linejoin:round;stroke-miterlimit:10;}
	.st10{fill:none;stroke:#000000;stroke-width:0.75;stroke-linecap:round;stroke-linejoin:round;stroke-miterlimit:10;}
	.st11{fill:#BABABA;}
	.st12{fill:none;stroke:#000000;stroke-width:0.5;stroke-linecap:round;stroke-linejoin:round;stroke-miterlimit:10;}
</style>
<g>
	<path class="st0" d="M118.9688187,55.3387222l2.3140869-1.3366089l-2.4389038-1.4082642l-2.3146973,1.3362427l-8.8875122-5.1318359
		L51.318367,81.3135757c-0.4963379,0.2865601-0.4963989,1.0029297-0.0001831,1.2896118l12.2664795,7.0865479
		c0.7160034,0.4136353,1.5983276,0.4136963,2.3143921,0.0001221l56.2727661-32.5016479L118.9688187,55.3387222z"/>
	<g>
		<g>
			<path d="M121.8281479,50.1479378l-1.4799805-7.3399658c-0.0100098-0.0100098-0.0200195-0.0200195-0.0200195-0.0400391
				c-0.0299683-0.1199951-0.0899658-0.2399902-0.1699829-0.3499756c-0.039978-0.0499878-0.0900269-0.0900269-0.1400146-0.1300049
				c-0.0499878-0.0499878-0.0899658-0.1099854-0.1599731-0.1500244l-2.5300293-1.4599609l-0.3599854-1.0700073l0.210022,0.1199951
				c0.039978,0.0200195,0.0799561,0.0299683,0.1199951,0.0299683c0.0499878,0,0.0899658-0.0099487,0.1300049-0.0299683
				l1.25-0.7200317c0.0700073-0.039978,0.1199951-0.1299438,0.1199951-0.2199707v-1.2199707
				c0-0.0600586-0.0300293-0.1100464-0.0599976-0.1500244l-0.0300293-0.0300293
				c-0.0100098-0.0099487-0.0199585-0.0199585-0.0299683-0.0299683l-4.3800049-2.5200195
				c-0.0100098-0.0299683-0.0100098-0.0599976-0.0300293-0.0999756c0-0.0100098,0-0.0200195-0.0100098-0.0300293
				l-0.2399902-0.4899902l1.6300049-0.960022c0.1099854-0.0699463,0.1799927-0.1899414,0.1799927-0.3199463v-0.9400005
				l0.2600098,0.0499859l-0.0599976,0.6199951c-0.0200195,0.210022,0.1300049,0.3900146,0.3300171,0.4099731h0.039978
				c0.1900024,0,0.3599854-0.1399536,0.3800049-0.3299561l0.1000366-0.9600201c0-0.0599976-0.0100098-0.1099854-0.0200195-0.1599731
				c-0.0100098-0.0100098-0.0100098-0.0100098-0.0100098-0.0200195c-0.0300293-0.0800171-0.0900269-0.1400146-0.1500244-0.1799927
				c-0.0099487,0-0.0099487-0.0100098-0.0099487-0.0100098l-1.0500488-0.5999756
				c-0.0299683-0.0200195-0.0700073-0.0400391-0.1099854-0.0500488l-1.1699829-0.2199707l-0.5200195-0.2900391
				c-0.1199951-0.0699463-0.2600098-0.0699463-0.3800049,0l-2.2699585,1.3500366
				c-0.0100098-0.0100098-0.0300293-0.0100098-0.0400391-0.0100098c-0.0299683,0-0.0700073,0-0.0999756,0.0100098
				c-0.0300293,0-0.0599976,0-0.0900269,0.0100098c-0.0299683,0.0100098-0.0499878,0.0199585-0.0799561,0.039978
				c-0.0300293,0.0100098-0.0600586,0.0300293-0.0900269,0.0499878c-0.0100098,0-0.0100098,0.0100098-0.0200195,0.0100098
				l-3.5499878,3.1400127c-0.2799683-0.1199951-0.6099854-0.1199951-0.9000244,0.0499878l-13.3999634,7.7399902
				l-3.6699829,2.1099854l-0.8500366-0.4799805l-5.0700073-2.9400024h-0.0100098l-4.9199829-2.8399658
				c-0.1499634-0.0900269-0.3399658-0.0900269-0.5,0l-3.0599976,1.7699585c-0.1900024,0.0700073-0.3200073,0.25-0.3200073,0.460022
				v2.25c0,0.1799927,0.0900269,0.3499756,0.25,0.4400024l3.9400024,2.2700195l0.0900269,0.289978l-3.710022-2.1400146
				c-0.3099976-0.1799927-0.6900024-0.1799927-1,0l-13.4799805,7.7800293c-0.25,0.1499634-0.4299927,0.3899536-0.4799805,0.6799927
				l-1.6900024,8.5899658l-5.7200317,5.9300575c-1.2799683,1.3299561-1.9899902,3.0799561-1.9899902,4.9299927v4.0299683
				c0,0.0100098,0.0100098,0.0100098,0.0100098,0.0100098c0,0.0100098-0.0100098,0.0100098-0.0100098,0.0100098l0.0299683,1.289978
				c0.0100098,0.8400269,0.460022,1.6199951,1.1900024,2.0400391l10.4700317,6.039978
				c0.5800171,0.3300171,1.2299805,0.5,1.8900146,0.5c0.6499634,0,1.2999878-0.1699829,1.8800049-0.5l2.5099487-1.4500122
				l2.3900146,1.3800049c0.8200073,0.5100098,1.9799805,0.4500122,3.2600098-0.289978
				c2.4799805-1.4299927,4.4899902-4.9100342,4.4799805-7.7800293c-0.0100098-0.4599609-0.0799561-0.8499756-0.1699829-1.2099609
				c0.0900269-0.0300293,0.1699829-0.0600586,0.25-0.1000366l8.710022-5.0299683l20.9799805-12.1199989
				c0.0499878,1.0999756,0.6599731,2.1199951,1.6300049,2.6799927l1.0700073,0.6199951
				c0.8200073,0.5100098,1.9799805,0.4500122,3.2600098-0.2900391c2.4799805-1.4299927,4.4899902-4.9099731,4.4799805-7.7799683
				c0-0.4799805-0.0800171-0.8900146-0.1799927-1.2600098c0.1400146-0.0100098,0.2799683-0.0499878,0.3999634-0.1199951
				l1.1200562-0.6500244l0.9599609-0.5499878C121.7181625,50.9979744,121.908165,50.5679817,121.8281479,50.1479378z
				 M113.198143,37.4379768l0.7400513,0.4199829l0.25,0.7700195L113.198143,37.4379768z"/>
			<polygon class="st1" points="92.2283173,48.2203941 92.2283173,49.310421 90.1083221,50.5303917 90.1083221,49.4404259 			"/>
			<path class="st2" d="M67.488327,80.7803879v1.3300171l-2.3000488,1.3200073
				c-0.5499878,0.3200073-1.2199745,0.3200073-1.7699623,0L52.9482841,77.400383
				c-0.1199951-0.0700073-0.1900024-0.1900024-0.1900024-0.3399658l-0.0199585-1.0700073l10.7599487,6.2099609
				c0.1600342,0.0900269,0.3300171,0.1300049,0.5,0.1300049c0.1900063,0,0.37006-0.0499878,0.5300331-0.1499634l2.9299927-1.6900024
				c0,0,0,0.0100098,0,0.0199585C67.448288,80.6003952,67.4683075,80.6904221,67.488327,80.7803879z"/>
			<path class="st3" d="M118.6583099,44.5704308l-15.9199829,9.1899414
				c-0.1400146,0.0900269-0.3000488,0.1300049-0.460022,0.1400146l-3.1300049,0.1300049L88.1183319,60.390377v7.7000084
				l19.8199463-11.4500084c0.5500488-3.1900024,2.7400513-6.4899902,5.3699951-8
				c1.5600586-0.8999634,3.1000366-1.0599976,4.3400269-0.4599609c0.7700195,0.3800049,1.3599854,1.0199585,1.7299805,1.8599854
				l0.3400269-0.2000122L118.6583099,44.5704308z M97.238327,61.6104088
				c-0.0400391,0.0899658-0.1100464,0.1599731-0.1800537,0.2000122l-3.3699951,1.9400024l-3.3699951,1.9499474
				c-0.0700073,0.0400391-0.1399536,0.0500488-0.1900024,0.0200195c-0.0499878-0.0299683-0.0799561-0.0899658-0.0799561-0.1699829
				l-0.0100098-4.5200157c0-0.0800171,0.0299683-0.1799927,0.0800171-0.2600098
				c0.0499878-0.0799561,0.1199951-0.1499634,0.1899414-0.1900024l3.3700562-1.9499512l3.3599854-1.9400024
				c0.0700073-0.0400391,0.1400146-0.0500488,0.1900024-0.0200195c0.0499878,0.0200195,0.0799561,0.0800171,0.0799561,0.1599731
				l0.0100098,4.5200195C97.3182831,61.4304161,97.2883148,61.5303917,97.238327,61.6104088z"/>
			<path class="st4" d="M116.6783295,40.3004112l-0.2900391-0.1600342c-0.0599976-0.039978-0.1300049-0.039978-0.1900024-0.0499878
				l-0.3800049-1.1400146l0.5,0.2900391L116.6783295,40.3004112z"/>
			<path class="st5" d="M115.6783295,40.100399c-0.0500488,0.0200195-0.0900269,0.0100098-0.1300049,0.039978l-0.0700073,0.0300293
				l-0.4100342-0.4899902l-0.4799805-1.4400024l0.5800171,0.3300171v0.0099487L115.6783295,40.100399z"/>
			<polygon class="st2" points="118.2983246,38.0103722 118.2983246,38.6503868 117.5483246,39.0803795 117.5483246,38.4404259 			
				"/>
			<polygon class="st2" points="117.0483246,38.4404259 117.0483246,39.0803795 116.6382904,38.8403893 112.7183075,36.5803795 
				113.1583099,36.1904259 			"/>
			<polygon class="st2" points="118.0483246,37.5803795 117.2983246,38.0103722 113.5483246,35.8403893 114.1282806,35.3204308 			
				"/>
			<polygon class="st4" points="113.8782806,31.1503868 112.1882782,32.140377 111.9683075,32.0203819 113.6483002,31.0203819 			
				"/>
			<polygon class="st4" points="114.7082977,31.6304283 113.0283051,32.6304283 112.6783295,32.4304161 114.3683319,31.4404259 			
				"/>
			<polygon class="st4" points="115.0782928,32.2803917 115.0782928,32.7203941 113.6783295,33.5504112 113.5082855,33.2103844 			
				"/>
			<path class="st3" d="M93.2082977,47.2603722c0-0.0099487,0-0.0099487,0-0.0199585
				c-0.0100098-0.0300293-0.0200195-0.0700073-0.0299683-0.1000366c-0.0200195-0.0299683-0.0400391-0.0599976-0.0700073-0.0999756
				c-0.0200195-0.0300293-0.0500488-0.0499878-0.0800171-0.0700073c-0.0100098-0.0200195-0.0200195-0.039978-0.0499878-0.0499878
				l-1.7300415-1l2.6700439-1.539978l7.3399658-4.2400513L93.2082977,47.2603722z"/>
			<polygon class="st4" points="111.2983246,32.7803917 94.1882782,48.0004234 94.0082855,47.890377 96.2482758,45.9103966 
				111.1683197,32.7103844 			"/>
			<path class="st4" d="M112.0582733,33.2203941L97.7482758,46.0704308l-0.8299561,0.7399902l-2.2900391,2.0499878
				c0.0200195-0.0599976,0.0200195-0.1199951,0.0200195-0.1699829v-0.0100098
				c-0.0100098-0.1300049-0.039978-0.2399902-0.0900269-0.3400269l17.1900024-15.2999878L112.0582733,33.2203941z"/>
			<polygon class="st6" points="110.5883026,41.0103722 104.8782806,44.310421 109.738327,39.9904137 			"/>
			<polygon class="st6" points="111.5782928,42.4304161 98.4982758,49.9804039 101.1683197,47.600399 110.8583221,42.0103722 			"/>
			<path class="st4" d="M114.5983124,40.6804161l-0.1400146,0.0799561l-0.8900146,0.5200195l-0.3200073,0.1900024
				l-2.5099487-3.0200195c-0.0900269-0.0999756-0.210022-0.1599731-0.3500366-0.1799927
				c-0.1300049,0-0.2699585,0.0400391-0.3699951,0.1300049l-13.289978,11.8200073l-1.7800293,0.0700073
				c-0.0799561,0-0.1599731,0.0200195-0.2299805,0.0599976l-0.6400146,0.3699951l18.6799927-16.7799683l0.4400024,0.8800049
				l-1.6400146,1.4499512c-0.0199585,0.0200195-0.0299683,0.0500488-0.0499878,0.0700073
				c-0.0199585,0.0300293-0.0499878,0.0499878-0.0599976,0.0800171c-0.0199585,0.0299683-0.0199585,0.0599976-0.0299683,0.0899658
				c-0.0100098,0.0300293-0.0200195,0.0700073-0.0200195,0.1000366c-0.0100098,0.0299683,0,0.0599976,0.0100098,0.0899658
				c0,0.0300293,0,0.0700073,0.0100098,0.1000366c0.0100098,0.0299683,0.0299683,0.0499878,0.039978,0.0800171
				c0.0200195,0.0299683,0.0300293,0.0599976,0.0499878,0.0899658L114.5983124,40.6804161z"/>
			<path class="st4" d="M93.2482758,50.100399l-0.7299805,0.6599731l-0.1300049-0.3899536l0.5900269-0.3400269
				c0.0299683-0.0200195,0.0499878-0.0299683,0.0700073-0.0499878c0.0299683,0.039978,0.0700073,0.0700073,0.1099854,0.0900269
				C93.1882782,50.0903893,93.2183075,50.100399,93.2482758,50.100399z"/>
			<path class="st4" d="M94.1483002,48.6904259c0,0.3199463-0.25,0.7399902-0.5200195,0.8999634
				c-0.1199951,0.0599976-0.1900024,0.0599976-0.2199707,0.0400391c-0.039978-0.0200195-0.0700073-0.1000366-0.0700073-0.2000122
				c0-0.3200073,0.2399902-0.7300415,0.5300293-0.9000244c0.0699463-0.039978,0.1299438-0.0599976,0.1599731-0.0599976
				c0.0200195,0,0.039978,0.0100098,0.0499878,0.0100098C94.1083221,48.5004234,94.1483002,48.560421,94.1483002,48.6904259z"/>
			<path class="st3" d="M117.3583221,43.0103722l-15.4100342,8.9000244l-3.1300049,0.1300049
				c-0.1599731,0.0100098-0.3099976,0.0499878-0.4499512,0.1300049l-10.25,5.9099731v-3.25
				c0.0499878,0.0599976,0.0999756,0.1199951,0.1599731,0.1600342l1.960022,1.1199951
				c0.0699463,0.0499878,0.1599731,0.0700073,0.25,0.0700073c0.0499878,0,0.0999756-0.0100098,0.1599731-0.0300293
				c0.0200195-0.0100098,0.0300293-0.0199585,0.0499878-0.0299683c0.0100098,0,0.0200195,0,0.0400391-0.0100098l2.6599731-1.539978
				c0.0100098-0.0100098,0.0200195-0.0200195,0.039978-0.0300293c0.0200195-0.0200195,0.0500488-0.039978,0.0700073-0.0700073
				c0.0200195-0.0200195,0.0400391-0.039978,0.0599976-0.0700073c0.0200195-0.0299683,0.0300293-0.0599976,0.0400391-0.0899658
				c0.0100098-0.0300293,0.0199585-0.0599976,0.0199585-0.0900269c0.0100098-0.0299683,0.0100098-0.0599976,0.0100098-0.0899658
				c0-0.0300293,0-0.0700073-0.0100098-0.1000366c-0.0099487-0.0200195,0-0.0299683-0.0099487-0.0499878l-0.5200195-1.539978
				l2.0100098-1.1600342l3.25-0.1300049c0.0799561,0,0.1599731-0.0199585,0.2299805-0.0599976l15.4799805-8.9400024
				l0.0100098-0.0100098l0.8800049-0.5199585c0,0.0100098,0.0100098,0.0100098,0.0100098,0.0100098L117.3583221,43.0103722z"/>
			<polygon class="st6" points="89.5782928,54.5803795 88.948288,54.2103844 87.8782806,50.9904137 88.4683075,51.3303795 			"/>
			<path class="st3" d="M92.5383148,53.9103966l-1.7800293,1.0300293l-1.039978-3.0599976
				c0.039978-0.0100098,0.0800171-0.0200195,0.1199951-0.0400391c0,0,0,0,0.0100098,0l1.6499634-0.9599609L92.5383148,53.9103966z"
				/>
			<polygon class="st6" points="86.6683197,50.5203819 83.3983002,48.640377 83.6083221,48.5203819 86.5682831,50.2304039 			"/>
			<polygon class="st6" points="80.698288,47.0803795 80.1083221,46.7404137 80.0082855,46.4404259 80.5983124,46.7904015 			"/>
			<path class="st1" d="M89.1083221,49.4404259v1.0999756l-1.7700195-1.0200195
				c-0.0599976-0.0700073-0.1500244-0.1099854-0.2399902-0.1300049l-1.5700073-0.9099731v-1.1099854L89.1083221,49.4404259z"/>
			<polygon class="st1" points="84.5283051,46.8004112 84.5283051,47.9003868 80.448288,45.5504112 80.448288,44.4503746 			"/>
			<path class="st1" d="M79.448288,43.8704185v1.0999756c-0.0499878-0.0599976-0.1300049-0.0999756-0.2099609-0.1199951
				l-3.7200317-2.1500244V41.600399L79.448288,43.8704185z"/>
			<polygon class="st1" points="82.0782928,41.7703819 79.948288,43.0004234 76.0182953,40.7404137 78.1583099,39.5103722 			"/>
			<polygon class="st1" points="87.1583099,44.7103844 85.0283051,45.9304161 80.948288,43.5803795 83.0782928,42.350399 			"/>
			<polygon class="st1" points="91.7283173,47.350399 89.6083221,48.5704308 86.0383148,46.5103722 88.1583099,45.2904015 			"/>
			<polygon class="st7" points="86.1183319,52.5203819 73.6483002,59.7203941 61.9982719,53.1304283 74.5883026,45.8604088 			"/>
			<path class="st3" d="M73.6483002,59.7203941l-1.75,8.8800011l-0.0100098,0.0100098l-11.6699867-6.7399864
				c0.0700073-0.1000366,0.1099854-0.2000122,0.1300049-0.3099976l0.3699951-1.8699951l1.2799683-6.5599976L73.6483002,59.7203941z"
				/>
			<polygon class="st8" points="60.881546,61.4476242 61.2092514,59.7930946 62.3188515,54.1089859 73.0455399,60.1763077 
				71.5778122,67.6248932 			"/>
			<path class="st7" d="M71.8882904,68.610405l-2.9400024,3.0499878l-2.9699707,3.0900269
				c-0.6500244,0.6599731-1.1199951,1.4599609-1.4000244,2.3299561l-0.4699707-0.2699585l-11.1799965-6.460022
				c0.2199707-0.7999878,0.6399536-1.5299683,1.2299805-2.1400146l5.9299927-6.1399498
				c0.0599976-0.0600586,0.0999756-0.1300049,0.1300049-0.2000122L71.8882904,68.610405z"/>
			<path class="st3" d="M64.5782928,77.0803757c-0.1099854,0.3099976-0.1900024,0.6300049-0.2299805,0.9500122
				c-0.0499878,0.3099976-0.0800171,0.6300049-0.0800171,0.9500122v1.0299683l-0.2700233,0.1600342l-1.6900024-0.9700317
				l-3.2099609-1.8499756l-6.3699951-3.6699829v-1.9299927c0-0.4800415,0.0700073-0.9500122,0.2000122-1.4000244
				l11.1799965,6.460022L64.5782928,77.0803757z"/>
			<path d="M97.3082733,56.8303795c0-0.0799561-0.0299683-0.1399536-0.0799561-0.1599731
				c-0.0499878-0.0300293-0.1199951-0.0200195-0.1900024,0.0200195l-3.3599854,1.9400024l-3.3700562,1.9499512
				c-0.0699463,0.0400391-0.1399536,0.1100464-0.1899414,0.1900024c-0.0500488,0.0800171-0.0800171,0.1799927-0.0800171,0.2600098
				l0.0100098,4.5200157c0,0.0800171,0.0299683,0.1400146,0.0799561,0.1699829
				c0.0500488,0.0300293,0.1199951,0.0200195,0.1900024-0.0200195l3.3699951-1.9499474l3.3699951-1.9400024
				c0.0700073-0.0400391,0.1400146-0.1100464,0.1800537-0.2000122c0.0499878-0.0800171,0.0799561-0.1799927,0.0799561-0.2600098
				L97.3082733,56.8303795z M90.5883026,64.9304123l-0.0100098-3.9000206l2.8300171-1.6300049l0.0100098,3.9000244
				L90.5883026,64.9304123z M93.948288,62.9904137l-0.0100098-3.9000244l2.8300171-1.6400146l0.0200195,3.9100342
				L93.948288,62.9904137z"/>
			<polygon class="st3" points="96.7883148,61.3604088 93.948288,62.9904137 93.9382782,59.0903893 96.7682953,57.4503746 			"/>
			<polygon class="st3" points="93.4183197,63.3004112 90.5883026,64.9304123 90.5782928,61.0303917 93.4083099,59.4003868 			"/>
		</g>
		<path class="st3" d="M86.1183319,52.5203819v16.7200279l-7.0500488,4.0800171
			c-0.3599854-0.9000244-0.9599609-1.5900269-1.75-1.9900513c-1.25-0.6300049-2.8099976-0.4699707-4.4099731,0.4400024
			c-2.1000366,1.2200317-3.8900146,3.5500488-4.8200073,6.0500488c-0.0100098,0.0099487-0.0100098,0-0.0200195,0.0099487
			l-3.7999878,2.1799927v-1.0299683c0-1.5800171,0.6099854-3.0999756,1.710022-4.2299805l5.9199829-6.1500244l1.75-8.8800011
			L86.1183319,52.5203819z"/>
		<polygon class="st8" points="76.5588913,60.4079018 75.3439484,67.4991074 82.7526398,63.2162132 82.7526398,56.8316917 		"/>
		<g>
			<path class="st9" d="M86.9731369,49.8599739"/>
		</g>
		<g>
			<path class="st9" d="M109.1150665,39.2115784"/>
		</g>
		<g>
			<path class="st9" d="M95.6984482,51.1392784"/>
		</g>
		<g>
			<path class="st10" d="M110.9234695,32.19384"/>
		</g>
		<g>
			<g>
				<path class="st0" d="M74.9439392,79.0297165c-0.4213791,0.2432861-0.7672501,0.0534592-0.7686234-0.4307404
					c-0.0013885-0.4915161,0.3422699-1.0793915,0.7636566-1.3226776c0.421402-0.2433014,0.7672729-0.0535278,0.7686691,0.4379883
					C75.7090149,78.198494,75.3653488,78.7864151,74.9439392,79.0297165L74.9439392,79.0297165z M74.3188782,77.3550339
					c-1.0981598,0.6340256-1.9891281,2.1698914-1.9855499,3.4317474c0.0035553,1.2545319,0.9003067,1.7582092,1.9984665,1.1241837
					c1.0917816-0.6303329,1.9827499-2.166153,1.979187-3.4206924
					C76.3074036,77.2284241,75.4106598,76.7246933,74.3188782,77.3550339L74.3188782,77.3550339z"/>
				<path class="st11" d="M74.9389725,77.2762985c-0.4213867,0.2432861-0.7650452,0.8311615-0.7636566,1.3226776
					c0.0013733,0.4841995,0.3472443,0.6740265,0.7686234,0.4307404c0.4214096-0.2433014,0.7650757-0.8312225,0.7637024-1.3154297
					C75.7062454,77.2227707,75.3603745,77.0329971,74.9389725,77.2762985L74.9389725,77.2762985z"/>
			</g>
		</g>
		<g>
			<g>
				<path class="st0" d="M115.1605606,55.7990456c-0.4213867,0.2432823-0.7672577,0.0534592-0.768631-0.4307404
					c-0.0013885-0.4915161,0.3422775-1.0793915,0.7636566-1.3226776c0.421402-0.2432976,0.7672729-0.053524,0.7686691,0.4379921
					C115.9256287,54.9678192,115.5819626,55.5557442,115.1605606,55.7990456L115.1605606,55.7990456z M114.5354919,54.1243629
					c-1.0981598,0.6340256-1.9891281,2.1698952-1.9855499,3.4317436c0.0035553,1.2545357,0.9003067,1.7582169,1.9984665,1.1241913
					c1.0917816-0.6303368,1.9827499-2.1661568,1.9791946-3.4206924
					C116.524025,53.9977531,115.6272736,53.4940262,114.5354919,54.1243629L114.5354919,54.1243629z"/>
				<path class="st11" d="M115.1555862,54.0456276c-0.4213791,0.2432861-0.7650452,0.8311615-0.7636566,1.3226776
					c0.0013733,0.4841995,0.3472443,0.6740227,0.768631,0.4307404c0.421402-0.2433014,0.7650681-0.8312263,0.7636948-1.3154259
					C115.9228592,53.9921036,115.5769882,53.80233,115.1555862,54.0456276L115.1555862,54.0456276z"/>
			</g>
		</g>
		<g>
			<path class="st12" d="M115.9242554,40.6337128"/>
		</g>
		<g>
			<path class="st12" d="M114.9344559,38.2952003"/>
		</g>
		<g>
			<g>
				<path d="M106.5256348,54.7757797l0.1573334-0.8918343l0.076622-0.0442352
					c0.0830002-0.0479202,0.1341553-0.0480537,0.1598663-0.0041428c0.0193253,0.0476456,0.0132294,0.154026-0.011879,0.3228607
					c-0.0251923,0.1321068-0.0505066,0.2275543-0.0822754,0.3047028l-0.0826874,0.1506004
					c-0.0254669,0.0441017-0.0765152,0.0809517-0.1403809,0.1178246L106.5256348,54.7757797 M106.9054947,53.4247627
					l-0.4660645,0.2690849l-0.2895584,1.6295319l0.4596863-0.2653961c0.0574799-0.0331841,0.1212769-0.0847244,0.1914444-0.1472626
					l0.1592712-0.2168884c0.0572891-0.0918312,0.1081696-0.1873894,0.1462402-0.2975273
					c0.0380478-0.1101761,0.0760193-0.2496567,0.1074905-0.429493c0.0252762-0.1101265,0.0314102-0.201828,0.037529-0.3008919
					c-0.0002518-0.0880661-0.0132523-0.1613922-0.0389862-0.2126656l-0.1026001-0.0950508
					C107.0587921,53.3583336,106.9948883,53.3731537,106.9054947,53.4247627"/>
				<polyline points="106.2542648,53.8007545 105.4370193,54.2725868 105.141098,55.9057961 105.9838638,55.4192238 
					106.0467758,55.0522499 105.5168457,55.3582077 105.5735092,55.0388908 106.0523529,54.7624283 106.1089554,54.4284477 
					105.6364975,54.7012177 105.6741562,54.451683 106.1913147,54.1531029 106.2542648,53.8007545 				"/>
				<polyline points="105.2135773,54.4015923 104.9007263,54.582222 104.6111679,56.2117538 104.9176331,56.0348129 
					105.2135773,54.4015923 				"/>
				<polyline points="104.7219467,54.6854401 103.9685669,55.1204033 103.6726227,56.753624 103.9790955,56.576683 
					104.0986862,55.9050789 104.4881592,55.6802177 104.5447845,55.3535957 104.1616974,55.5747719 104.2056808,55.299511 
					104.6589966,55.0377884 104.7219467,54.6854401 				"/>
				<polyline points="103.7387161,55.2531052 103.4322433,55.4300461 103.1426926,57.0595779 103.4427719,56.8863258 
					103.7387161,55.2531052 				"/>
				<polyline points="103.2790146,55.5185165 102.3404694,56.0603828 102.2712555,56.4604492 102.5841141,56.2798233 
					102.3637695,57.5092888 102.6702347,57.3323517 102.896965,56.0991974 103.2098007,55.9185829 103.2790146,55.5185165 				"/>
				<path d="M101.5312805,57.1154747l0.0630112-0.330307l0.14048-0.0811081l0.1022491-0.0223045l0.0066986,0.106369
					l-0.0317078,0.0991364l-0.057312,0.0845184l-0.082962,0.0625992L101.5312805,57.1154747 M101.8616257,56.3368416
					l-0.5107727,0.2948952l-0.2959442,1.6332207l0.3064728-0.1769371l0.1196136-0.6642914l0.0255508-0.0147476l0.0703354-0.00383
					l0.0322189,0.0915794l0.0778885,0.4033012l0.3447647-0.1990509l-0.0650482-0.3886337l-0.0193863-0.0770149l-0.0385513-0.0585747
					l-0.0703735-0.0107994l0.1211548-0.1213799l0.1272888-0.2204552c0.0381317-0.080822,0.0634689-0.1689072,0.0760193-0.2569809
					c0.0188828-0.0991135,0.0250244-0.190815-0.0006714-0.234787l-0.0897598-0.0804367
					C102.0212708,56.2520485,101.9510193,56.2852325,101.8616257,56.3368416"/>
				<polyline points="101.1593018,56.7423325 100.3356934,57.2178421 100.0397491,58.8510628 100.882515,58.3644905 
					100.9454269,57.9975166 100.4155121,58.3034592 100.4721603,57.9841537 100.951004,57.707695 101.0139923,57.3700256 
					100.5351486,57.6464844 100.5855789,57.389576 101.1027374,57.090992 101.1593018,56.7423325 				"/>
				<path d="M99.7226944,57.5497284c-0.1596222,0.0921593-0.2998962,0.2392769-0.4080658,0.4266663
					c-0.1145859,0.1910934-0.1970291,0.4297562-0.2474365,0.701355c-0.0377731,0.2055054-0.0437469,0.3559151-0.0114975,0.4475327
					c0.0258789,0.1099968,0.0708084,0.1648865,0.1283951,0.1756935c0.0639648,0.0071716,0.1406631-0.0077095,0.2555847-0.0740547
					c0.0830002-0.0479202,0.1595383-0.1215096,0.2232971-0.1877251c0.0701065-0.0845299,0.1273956-0.1764145,0.1846695-0.2829857
					c0.0508575-0.1028214,0.1016769-0.2203712,0.1396866-0.3525009l-0.2493668,0.0190353
					c-0.0252686,0.1101265-0.063385,0.1982613-0.1015549,0.2717285l-0.1530075,0.1618462
					c-0.0638657,0.0368729-0.0958786,0.0185776-0.1215744-0.0180206c-0.0193024-0.047657-0.0196304-0.1650276,0.0182037-0.3485374
					c0.025177-0.1467972,0.056839-0.2532845,0.0949707-0.3414307c0.0572281-0.1138725,0.1145782-0.1837158,0.1848068-0.2242622
					l0.076683-0.0222435l0.0513,0.0512123l0.0066528,0.0916901l0.2934494-0.257576
					c-0.0004349-0.1540871-0.0326843-0.2530327-0.0903702-0.293232
					C99.9462433,57.4500656,99.8504028,57.4759979,99.7226944,57.5497284"/>
			</g>
		</g>
	</g>
	<g>
		<g>
			<path class="st7" d="M54.2943573,71.9013901c-0.4987144-0.2879333-0.9022255-0.0533676-0.9038506,0.5196762
				c-0.0016098,0.5684357,0.3992538,1.2674026,0.8979645,1.555336c0.4987144,0.2879257,0.9022255,0.0533676,0.9038353-0.5150681
				C55.1939316,72.8882904,54.7930679,72.1893234,54.2943573,71.9013901"/>
		</g>
	</g>
	<g>
		<g>
			<path class="st7" d="M62.4112549,76.5993118c-0.4987144-0.2879333-0.9022217-0.0533752-0.9038467,0.5196686
				c-0.0016098,0.5684433,0.39925,1.2674103,0.8979645,1.5553436c0.4987144,0.2879257,0.9022217,0.0533676,0.9038353-0.5150681
				C63.310833,77.5862122,62.9099693,76.8872375,62.4112549,76.5993118"/>
		</g>
	</g>
</g>
</svg>
