<?xml version="1.0" encoding="utf-8"?>
<!-- Generator: Adobe Illustrator 27.6.1, SVG Export Plug-In . SVG Version: 6.00 Build 0)  -->
<svg version="1.1" id="Layer_1" xmlns="http://www.w3.org/2000/svg" xmlns:xlink="http://www.w3.org/1999/xlink" x="0px" y="0px"
	 viewBox="0 0 172.8999939 90" style="enable-background:new 0 0 172.8999939 90;" xml:space="preserve">
<style type="text/css">
	.st0{fill:#888888;}
	.st1{fill:none;stroke:#000000;stroke-width:2;stroke-linecap:round;stroke-linejoin:round;stroke-miterlimit:10;}
	.st2{fill:#BABABA;}
	.st3{fill:#FFFFFF;}
	.st4{fill:#CCCCCC;}
	.st5{fill:none;}
	.st6{fill:#999999;}
	.st7{fill:#3751A0;}
	.st8{fill:#0099FF;}
	.st9{fill:#666666;}
	.st10{fill:#B3B3B3;}
	.st11{fill:#F79420;}
	.st12{fill:#797979;}
	.st13{fill:#C1272D;}
</style>
<g>
	<path class="st0" d="M120.3799133,82.2099609L65.1399231,50.3199463l-12.6976929,7.3325195
		c-0.3521729,0.2033081-0.3521118,0.7116089,0.000061,0.914917L106.8899231,90l5.7629395-3.3279419l1.7817383,1.0286255
		l2.5390015-1.4661255l-1.7817993-1.0286255L120.3799133,82.2099609z"/>
	<path d="M120.3736496,67.9979782c-0.0100098-0.0300293-0.0200195-0.0500488-0.0300293-0.0800171
		c-0.0100098-0.0700073-0.0299683-0.1400146-0.0499878-0.210022c-0.0300293-0.0499878-0.0499878-0.0999756-0.0800171-0.1499634
		c-0.039978-0.0599976-0.0799561-0.1199951-0.1300049-0.1700439c-0.039978-0.039978-0.0799561-0.0699463-0.1199951-0.1099854
		c-0.0299683-0.0200195-0.0599976-0.0499878-0.0899658-0.0700073l-1.3800049-0.7999878l1.0299683-0.5899658
		c0.1100464-0.0700073,0.1799927-0.1900024,0.1799927-0.3300171V64.047966l0.3099976-0.1900063
		c0.2300415-0.1400146,0.3000488-0.4400024,0.1700439-0.6699829l-1.2200317-2.1400146
		c-0.039978-0.0700073-0.0899658-0.1199951-0.1699829-0.1699829l-2.2399902-1.4400024
		c-0.0200195-0.0100098-0.0400391-0.0200195-0.0700073-0.0300293c-0.0300293-0.0100098-0.0599976-0.0299683-0.0900269-0.039978
		h-0.0299683l-13.8300171-2.2300415c-0.0200195-0.039978-0.0299683-0.0799561-0.0499878-0.1099854
		c0,0-2.1099854-3.0100098-2.1199951-3.0200195c-0.0499878-0.0599976-0.1000366-0.0999756-0.1600342-0.1499634
		c-0.039978-0.039978-0.0799561-0.0900269-0.1499634-0.1300049l-7.2700195-4.2000122l-3.1300049-1.8099976l-0.8999634-2.6699829
		l2.0199585-1.1300049c0.1600342-0.0800171,0.2600098-0.25,0.2600098-0.4299927v-2.4800415
		c0-0.0899658-0.0299683-0.1599731-0.0599976-0.2299805c-0.0100098-0.0200195-0.0200195-0.0299683-0.0299683-0.0499878
		c-0.0400391-0.0499878-0.0800171-0.0999756-0.1400146-0.1300049c-0.0100098-0.0100098-0.0100098-0.0200195-0.0200195-0.0299683
		l-3.2399902-1.8700562c-0.1599731-0.0899658-0.3499756-0.0899658-0.5,0l-0.5300293,0.3099976l-9.5299683-5.5
		c-0.0300293-0.0199585-0.0700073-0.0199585-0.1099854-0.0299683c-0.0700073-0.0300293-0.1300049-0.0599976-0.2000122-0.0700073
		c-0.0599976-0.0100098-0.1199951-0.0100098-0.1900024-0.0100098c-0.0599976,0-0.1199951,0-0.1799927,0.0100098
		c-0.0700073,0.0100098-0.1400146,0.039978-0.2000122,0.0700073c-0.039978,0.0100098-0.0800171,0.0100098-0.1099854,0.0299683
		c0,0-12.7800293,7.3700562-12.7999878,7.3900146c0,0-9.9300537,5.9899902-9.9400024,6
		c-0.0300293,0.0100098-0.0500488,0.0200195-0.0800171,0.0300293c-0.75,0.5700073-1.1900024,1.4299927-1.1900024,2.3699951
		v6.8300171c0,0.3599854,0.1900024,0.6900024,0.5,0.8699951l3.0499878,1.7599487
		c0.1600342,0.0900269,0.3300171,0.1300049,0.5,0.1300049c0.1799927,0,0.3500366-0.039978,0.5100098-0.1399536
		c0.8099976,1.789978,2.1400146,3.4299927,3.6599731,4.2999878c1.2800293,0.7399902,2.4400024,0.789978,3.2800293,0.2600098
		l0.1099854-0.0599976l0.75-0.4299927c0.8400269-0.4800415,1.1699829-1.2000122,1.2800293-2l6.9799805,4.0299721
		L93.273613,76.7779465c0,0.0700073-0.0100098,0.1199951-0.0100098,0.1799927c-0.0099487,2.8600464,2,6.3400269,4.4800415,7.7700195
		c1.289978,0.7399902,2.4400024,0.789978,3.2799683,0.2600098l0.1100464-0.0599976l0.7599487-0.4299927
		c0.8400269-0.4800415,1.1600342-1.2000122,1.2800293-2c0,0,3.460022,2,3.4699707,2
		c0.0300293,0.0199585,0.0599976,0.0299683,0.0900269,0.039978c0.0299683,0.0100098,0.0499878,0.0200195,0.0700073,0.0300293
		c0.1099854,0.039978,0.2199707,0.0599976,0.3399658,0.0599976h0.0599976c0.0200195,0,0.0300293-0.0100098,0.0400391-0.0100098
		c0.0800171-0.0100098,0.1400146-0.0200195,0.2099609-0.0499878c0.0300293-0.0100098,0.0599976-0.0200195,0.0900269-0.0300293
		c0.0200195-0.0100098,0.039978-0.0200195,0.0599976-0.0300293c0.0100098,0,0.0200195,0,0.0300293-0.0099487l7.5-4.3300171
		l0.1999512,0.039978c0.0300293,0.0100098,0.0599976,0.0100098,0.0900269,0.0100098
		c0.0499878,0,0.0999756-0.0100098,0.1400146-0.0200195c0.0599976-0.0199585,0.1300049-0.0499878,0.1799927-0.0899658
		c0.039978-0.0200195,0.0700073-0.039978,0.1099854-0.0599976c0.0999756-0.0599976,0.2000122-0.1199951,0.3099976-0.1799927
		c0.1199951-0.0700073,0.2399902-0.1300049,0.3499756-0.2000122c0.1300049-0.0700073,0.2600098-0.1500244,0.3900146-0.2200317
		c0.1199951-0.0699463,0.2300415-0.1399536,0.2900391-0.2699585c0.0199585-0.0300293,0.039978-0.0499878,0.0499878-0.0900269
		c0.0100098-0.0299683,0.0100098-0.0700073,0.0100098-0.0999756c0-0.0200195,0.0099487-0.0300293,0.0099487-0.0400391
		l3.1600342-1.8199463c0.039978-0.0300293,0.0700073-0.0700073,0.0999756-0.1000366
		c0.0599976-0.039978,0.1199951-0.0800171,0.1700439-0.1400146c0.039978-0.0499878,0.0599976-0.1099854,0.0899658-0.1699829
		c0.0300293-0.0499878,0.0700073-0.0999756,0.0900269-0.1699829c0.0199585-0.0700073,0.0199585-0.1400146,0.0199585-0.210022
		c0.0100098-0.0499878,0.0300293-0.0899658,0.0200195-0.1400146L120.3736496,67.9979782z M99.7436447,80.6379318
		c0,0.0100098,0,0.0100098,0,0.0200195c0,0.1300049-0.0100098,0.25-0.0200195,0.3599854
		c-0.1099854,0.6799927-0.5499878,1.0900269-1.1499634,1.0700073c-0.0500488,0.0100098-0.1100464,0-0.1700439-0.0199585h-0.0299683
		c-0.0499878-0.0100098-0.1000366-0.0200195-0.1600342-0.0400391c-0.0700073-0.0200195-0.1399536-0.039978-0.2199707-0.0800171
		h-0.0100098c-0.0300293-0.0099487-0.0599976-0.0199585-0.0999756-0.0499878
		c-0.0400391-0.0100098-0.0900269-0.0299683-0.1300049-0.0599976c-0.1400146-0.0800171-0.2700195-0.1699829-0.4000244-0.2799683
		c-0.0599976-0.0500488-0.1300049-0.1100464-0.1900024-0.1700439c-0.0999756-0.0899658-0.1900024-0.1900024-0.2799683-0.289978
		c-0.0200195-0.0299683-0.0500488-0.0599976-0.0700073-0.0800171c-0.0599976-0.0700073-0.1100464-0.1399536-0.1700439-0.2099609
		l-0.1499634-0.210022c0-0.0100098,0-0.0100098,0-0.0100098c-0.0499878-0.0800171-0.0900269-0.1499634-0.1400146-0.2199707
		v-0.0100098c-0.0499878-0.0700073-0.0900269-0.1500244-0.1300049-0.2299805
		c-0.0700073-0.1400146-0.1300049-0.2800293-0.1799927-0.4200439c-0.0100098-0.0299683-0.0200195-0.0499878-0.0300293-0.0700073
		c-0.0299683-0.0799561-0.0599976-0.1699829-0.0799561-0.25c-0.0300293-0.0799561-0.0499878-0.1599731-0.0700073-0.2399902
		c-0.0100098-0.039978-0.0100098-0.0700073-0.0200195-0.1099854v-0.0100098
		c-0.0199585-0.0599976-0.0299683-0.1199951-0.0299683-0.1799927c0,0-0.0100098,0-0.0100098-0.0100098c0,0,0,0,0-0.0100098
		c0-0.0199585-0.0100098-0.0499878-0.0100098-0.0700073c0-0.039978-0.0100098-0.0899658-0.0100098-0.1299438
		c-0.0100098-0.0700073-0.0100098-0.1300049-0.0100098-0.2000122c0-0.1099854,0.0100098-0.210022,0.0200195-0.3099976
		c0.0100098-0.0900269,0.0200195-0.1700439,0.0499878-0.25c0.0100098-0.0700073,0.0400391-0.1400146,0.0800171-0.210022
		c0.2199707-0.4699707,0.6599731-0.710022,1.1900024-0.6199951c0.0599976,0.0100098,0.1199951,0.0200195,0.1900024,0.039978
		c0.1400146,0.0400391,0.289978,0.1000366,0.4400024,0.1900024c0.0100098,0,0.0100098,0.0100098,0.0199585,0.0100098
		c0.1300049,0.0800171,0.2600098,0.1600342,0.3900146,0.2700195c0.0599976,0.0499878,0.1300049,0.1099854,0.2000122,0.1699829
		c0.1799927,0.1699829,0.3599854,0.3699951,0.5200195,0.5800171l0.1499634,0.2099609
		c0.0500488,0.0800171,0.0900269,0.1500244,0.1400146,0.2300415c0.0900269,0.1499634,0.1600342,0.2999878,0.2299805,0.4599609
		c0.0100098,0.0100098,0.0100098,0.0100098,0.0100098,0.0200195c0.0599976,0.1300049,0.1099854,0.25,0.1400146,0.3800049
		c0.0200195,0.039978,0.0300293,0.0700073,0.039978,0.1099854c0.0100098,0.0200195,0.0200195,0.0499878,0.0200195,0.0800171
		c0.039978,0.1300049,0.0700073,0.2600098,0.0900269,0.3900146c0.0099487,0.0499878,0.0199585,0.0999756,0.0199585,0.1400146
		c0.0200195,0.0799561,0.0200195,0.1499634,0.0200195,0.2199707c0.0100098,0.0200195,0.0100098,0.039978,0.0100098,0.0599976
		V80.6379318z M114.8836594,64.3179855l-0.8600464-0.4900551c0.0500488-0.0099487,0.1000366-0.0199585,0.1400146-0.0499878
		h0.0300293l0.3999634-0.2399902l0.960022,0.4000244L114.8836594,64.3179855z"/>
	<path class="st1" d="M85.8946915,39.8043518"/>
	<path class="st0" d="M59.6019173,57.2782822c-0.4213829-0.2432861-0.765049-0.8384857-0.7636757-1.3226891
		s0.3472862-0.681324,0.7686691-0.4380417c0.4213829,0.2432861,0.7650452,0.8385391,0.7636719,1.3227386
		C60.3692131,57.3244934,60.0233002,57.5215683,59.6019173,57.2782822L59.6019173,57.2782822z M60.2270012,55.5963364
		c-1.0917778-0.6303368-1.9885292-0.1266556-1.9921036,1.1351929c-0.0035591,1.2545357,0.8874092,2.7904053,1.979187,3.420742
		s1.9885292,0.1266098,1.9920845-1.1279259C62.2097473,57.7624931,61.318779,56.2266769,60.2270012,55.5963364
		L60.2270012,55.5963364z"/>
	<path class="st2" d="M59.6069107,55.5175514c-0.4213829-0.2432823-0.7672958-0.0461617-0.7686691,0.4380417
		s0.3422928,1.0794029,0.7636757,1.3226891s0.7672958,0.0462112,0.7686653-0.4379921
		C60.3719559,56.3560905,60.0282936,55.7608376,59.6069107,55.5175514L59.6069107,55.5175514z"/>
	<path class="st0" d="M97.1468964,78.9588318c-0.4213791-0.2432861-0.7650452-0.8384857-0.7636719-1.3226852
		s0.3472824-0.6813278,0.7686615-0.4380417c0.4213867,0.2432861,0.7650528,0.8385391,0.7636795,1.3227386
		S97.5682831,79.2021179,97.1468964,78.9588318L97.1468964,78.9588318z M97.7719803,77.2768936
		c-1.091774-0.6303406-1.9885254-0.1266632-1.9921036,1.1351852c-0.0035553,1.2545395,0.887413,2.7904053,1.979187,3.4207458
		c1.0917816,0.6303406,1.9885254,0.1266098,1.9920883-1.1279297C99.7547226,79.4430466,98.8637619,77.9072266,97.7719803,77.2768936
		L97.7719803,77.2768936z"/>
	<path class="st2" d="M97.151886,77.1981049c-0.4213791-0.2432861-0.7672882-0.0461578-0.7686615,0.4380417
		s0.3422928,1.0793991,0.7636719,1.3226852c0.4213867,0.2432861,0.7672958,0.0462112,0.7686691-0.4379883
		S97.5732727,77.441391,97.151886,77.1981049L97.151886,77.1981049z"/>
	<polygon class="st3" points="64.5885391,42.3983116 60.2585831,47.7683067 56.218544,47.4382896 64.3985367,42.508297 	"/>
	<path class="st3" d="M83.8885269,39.8082848l-11.2699585,6.5c-0.0400391,0.0200195-0.0599976,0.0599976-0.1000366,0.0800171
		c-0.0499878,0.039978-0.0999756,0.0800171-0.1499634,0.1400146c-0.0400391,0.0499878-0.0700073,0.0999756-0.1099854,0.1499634
		l-7.5400391-4.3499756l11.7700195-6.789978L83.8885269,39.8082848z"/>
	<path class="st4" d="M72.2585831,46.6782799c-0.0300293,0.0599976-0.0600586,0.1100464-0.0800171,0.1700439
		c-0.0200195,0.0700073-0.0300293,0.1300049-0.0400391,0.1999512c0,0.0500488-0.0199585,0.0800171-0.0199585,0.1300049v15.0700073
		l-5.5300293-3.1799927v-0.0800171c-0.4099731-3.1799927-2.5999756-6.5899658-5.2299805-8.1099854
		c-1.5499878-0.8999634-3.0800171-1.0499878-4.3099976-0.3999634c-0.7999878,0.4199829-1.3800049,1.1499634-1.710022,2.0899658
		l-1.3499756-0.7799683V49.298275c0-0.289978,0.1400146-0.5499878,0.3599854-0.7299805l1.8699951-1.1300049l4.0400391,0.3300171
		l4.3299561-5.3699951l0.1300049-0.0700073L72.2585831,46.6782799z"/>
	<polygon class="st4" points="64.718544,42.3283043 64.5885391,42.3983116 64.6685562,42.298275 	"/>
	<path class="st5" d="M82.928566,62.1483116c-0.0100098-0.0200195-0.0300293-0.0300293-0.0400391-0.039978h-0.0099487
		l-2.8400269-1.6400146l-0.5200195-0.2999878c-0.0199585-0.0100098-0.039978-0.0200195-0.0599976-0.0300293l-3.3099976-1.9199829
		c-0.0199585-0.0100098-0.039978-0.0200195-0.0599976-0.0300293l-0.2099609-0.1199951v0.2999878l-0.0100098,4.5200195v0.2999878
		l0.2600098,0.1500244c0,0.0100098,0.0099487,0.0100098,0.0099487,0.0100098l2.8300171,1.6300087l0.5300293,0.3099976
		l0.0100098,0.0099487l1.1499634,0.6600342l1.6799927,0.9699707l0.5300293,0.3099976
		c0.0100098,0,0.0100098,0.0100098,0.0199585,0.0100098l0.25,0.1400146v-0.2999878l0.0100098-4.5200233v-0.2999878
		L82.928566,62.1483116z M79.2385635,64.5183105l-2.8300171-1.6300087l0.0100098-3.9000244l2.8300171,1.6300049
		L79.2385635,64.5183105z M82.5985489,66.4683228l-2.8300171-1.6400146l0.0100098-3.9000282l2.8400269,1.6300049
		L82.5985489,66.4683228z"/>
	<path class="st4" d="M105.6385269,76.0383301L88.678566,66.248291c-0.1300049-0.0799561-0.2399902-0.1699829-0.3200073-0.289978
		l-2.2700195-3.239994l-11.9699707-6.9100342v7.6000366L93.2485733,74.458313
		c0.3399658-0.8400269,0.9099731-1.4899902,1.6599731-1.8699951c1.210022-0.6099854,2.7299805-0.460022,4.2600098,0.4299927
		c2.5900269,1.5,4.710022,4.7299805,5.1900024,7.8499756l1.6599731,0.960022L105.6385269,76.0383301z M83.1385269,67.0883179
		c0,0.0800171-0.0299683,0.1400146-0.0799561,0.1599731c-0.0499878,0.0300293-0.1100464,0.0300293-0.1700439,0
		c-0.0099487,0-0.0099487-0.0100098-0.0199585-0.0100098l-0.5300293-0.3099976l-1.6799927-0.9699707l-1.1499634-0.6600342
		l-0.0100098-0.0099487l-0.5300293-0.3099976l-2.8300171-1.6300087c0,0-0.0099487,0-0.0099487-0.0100098
		c-0.0700073-0.0400391-0.1300049-0.1099854-0.1800537-0.1900024c-0.0499878-0.0800171-0.0799561-0.1799927-0.0799561-0.2600098
		l0.0100098-4.5200195c0-0.0799561,0.0299683-0.1399536,0.0799561-0.1699829
		c0.0300293-0.0200195,0.0800171-0.0200195,0.1300049-0.0100098c0.0200195,0.0100098,0.0400391,0.0200195,0.0599976,0.0300293
		l3.3099976,1.9199829c0.0200195,0.0100098,0.0400391,0.0200195,0.0599976,0.0300293l0.5200195,0.2999878l2.8400269,1.6400146
		h0.0099487c0.0100098,0.0099487,0.0300293,0.0199585,0.0400391,0.039978
		c0.0599976,0.0299683,0.1099854,0.0899658,0.1400146,0.1599731c0.0499878,0.0800171,0.0799561,0.1799927,0.0799561,0.2600098
		L83.1385269,67.0883179z"/>
	<polygon class="st4" points="110.8585587,80.3383179 108.0385513,81.958313 107.6385269,75.998291 110.4585342,74.3682861 	"/>
	<polygon class="st6" points="112.3185806,79.4882812 111.8185806,79.7783203 111.7985611,79.4083252 	"/>
	<path class="st4" d="M117.3785782,68.0682983l-0.75,0.4299927l-0.0599976-0.8800049c0-0.0099487,0-0.0099487,0-0.0199585
		L117.3785782,68.0682983z"/>
	<polygon class="st4" points="118.8926849,75.7069168 117.1326752,76.7169266 117.0826874,75.946907 117.0126801,74.7069168 
		116.7726288,70.7268753 118.4926605,69.7368851 	"/>
	<polygon class="st7" points="112.7685318,72.7283325 112.2885513,69.998291 112.5885391,69.8182983 	"/>
	<path class="st8" d="M114.8885269,79.1083374l-0.7399902-0.1400146l-0.5899658-9.6799927
		c-0.0100098-0.0100098-0.0100098-0.0100098-0.0100098-0.0200195l0.710022-0.4099731L114.8885269,79.1083374z"/>
	<polygon class="st8" points="116.2485733,78.668335 115.8785782,78.8782959 115.2285538,68.2982788 115.5985489,68.0783081 	"/>
	<polygon class="st8" points="119.0785294,63.2683067 118.6085587,63.5682945 117.5285416,62.5183067 118.3585587,61.9982872 	"/>
	<path class="st9" d="M118.9585342,64.5283203v0.75l-7.8399658,4.5199585v-0.6899414l6.3800049-3.6800537
		c0.039978-0.0199585,0.0899658-0.0199585,0.1300049-0.039978l0.9099731-0.5999756L118.9585342,64.5283203z"/>
	<path class="st9" d="M117.7385635,64.1182861l-0.6600342,0.4299927c-0.1300049,0.0900269-0.1999512,0.2300415-0.2199707,0.3800049
		l-6.1099854,3.5300293l-0.7600098-0.4500122l6.4500122-3.710022l0.0999756,0.0300293v0.0100098
		c0.0599976,0.0200195,0.1300049,0.0299683,0.1900024,0.0299683c0.0900269,0,0.1699829-0.0299683,0.2399902-0.0700073h0.0300293
		l0.5599976-0.3599892L117.7385635,64.1182861z"/>
	<polygon class="st9" points="110.3685684,69.1083374 110.3685684,69.7982788 109.6185684,69.3583374 109.6185684,68.668335 	"/>
	<path class="st8" d="M112.7685318,78.5482788l-1.039978-0.1599731l-0.3699951-5.4400024
		c-0.0100098-0.1699829-0.0999756-0.3200073-0.25-0.4000244l-1.210022-0.6999512l-0.2799683-1.6199951l0.9400024,0.5499878
		c0,0,0.0100098,0,0.0199585,0c0.0500488,0.0299683,0.1000366,0.0499878,0.1700439,0.0499878
		c0.0599976,0,0.1099854-0.0200195,0.1699829-0.0499878h0.0100098l0.4400024-0.25L112.7685318,78.5482788z"/>
	<polygon class="st8" points="117.5985489,61.2883263 117.3185806,61.4683189 115.6985245,60.7783165 116.2785416,60.4382896 	"/>
	<polygon class="st8" points="117.0585709,61.6383018 116.678566,61.8682823 114.9885635,61.1782799 115.428566,60.9282799 	"/>
	<polygon class="st8" points="116.2285538,62.7683067 116.2285538,63.1282921 114.3785782,62.3682823 114.3485489,61.9982872 	"/>
	<polygon class="st7" points="112.5085831,65.6983032 111.6185684,66.208313 111.1285782,63.3883018 112.1385269,63.5582848 	"/>
	<polygon class="st8" points="114.8185806,60.1282921 114.468544,60.3283043 111.0685806,59.5183067 	"/>
	<polygon class="st4" points="107.7685318,65.458313 102.5585709,62.4482994 107.3785782,63.2283287 	"/>
	<polygon class="st6" points="108.2585831,68.248291 96.5285416,61.4783287 99.7885513,61.9982872 107.9985733,66.7382812 	"/>
	<polygon class="st6" points="108.7785416,71.1983032 93.7885513,62.5383263 92.5885391,60.8383141 93.7585831,61.0283165 
		108.4785538,69.5383301 	"/>
	<path class="st10" d="M94.7585831,55.8782921l-0.4100342-0.0599976c0-0.0100098,0-0.0100098-0.0100098-0.0100098
		l-0.5999756-0.0899658c0-0.0300293-0.0100098-0.0599976-0.0100098-0.0900269L94.7585831,55.8782921z"/>
	<path class="st10" d="M90.8085709,57.0883141l-0.3500366-0.0599976l0.2000122-0.1199951
		C90.7085342,56.9783287,90.7585831,57.0283165,90.8085709,57.0883141z"/>
	<path class="st8" d="M93.2485733,55.7482872c0,0.1400146-0.0700073,0.1900024-0.0700073,0.1900024l-0.1099854,0.0700073
		c-0.0200195-0.1900024-0.0900269-0.3900146-0.1900024-0.5800171l0.3299561,0.0800171
		C93.2285538,55.5883141,93.2485733,55.6683311,93.2485733,55.7482872z"/>
	<path class="st8" d="M93.0785294,55.2183189l-0.4099731-0.0900269c-0.0900269-0.1099854-0.1900024-0.2000122-0.2999878-0.2600098
		l0.0799561-0.0499878l0.0600586-0.0299683c0.039978-0.0100098,0.1099854-0.0100098,0.2099609,0.0499878
		C92.8585587,54.9183311,92.9885635,55.0582848,93.0785294,55.2183189z"/>
	<path class="st8" d="M92.8285294,56.0983238c0,0.0199585-0.0099487,0.0299683-0.0099487,0.0499878l-0.25,0.1400146
		c-0.0300293-0.4000244-0.2900391-0.8500366-0.6300049-1.0800171l0.5899658,0.1400146
		C92.7085342,55.5682945,92.8285294,55.8483238,92.8285294,56.0983238z"/>
	<path class="st8" d="M92.3385391,56.3883018c0,0.0200195-0.0100098,0.0300293-0.0100098,0.039978l-0.25,0.1500244
		c-0.039978-0.4400024-0.2999878-0.8699951-0.6399536-1.1599731l0.1499634-0.1000366
		c0.0499878,0.0100098,0.1000366,0.0200195,0.1600342,0.0499878C92.0685806,55.548275,92.3385391,56.0183067,92.3385391,56.3883018z
		"/>
	<path class="st8" d="M91.5985489,56.6882896c0,0.1199951-0.039978,0.1799927-0.0599976,0.2000122l-0.0200195,0.0100098
		c-0.0299683,0.0200195-0.0999756,0.0100098-0.2099609-0.0499878c-0.2800293-0.1600342-0.5200195-0.5800171-0.5200195-0.9100342
		c0-0.1199951,0.0300293-0.1799927,0.0599976-0.2000122h0.0100098c0.0100098-0.0099487,0.0200195-0.0099487,0.039978-0.0099487
		c0.0400391,0,0.1000366,0.0099487,0.1700439,0.0599976C91.3485489,55.9482994,91.5985489,56.3682823,91.5985489,56.6882896z"/>
	<path class="st6" d="M91.1385269,54.9982872l-0.5199585,0.2999878c-0.0100098,0-0.0100098,0-0.0100098,0
		c-0.0100098,0.0100098-0.0100098,0.0100098-0.0100098,0.0100098l-0.0100098,0.0100098
		c-0.1900024,0.1199951-0.2999878,0.3400269-0.2999878,0.6199951v0.0300293l-1.5499878,0.8999634
		c0,0-0.0100098,0-0.0100098,0.0100098c-0.039978,0.0200195-0.0700073,0.0499878-0.0999756,0.0800171
		c-0.0100098,0.0200195-0.0300293,0.0299683-0.0500488,0.0499878c-0.0099487,0.0300293-0.0199585,0.0599976-0.039978,0.0900269
		c-0.0100098,0.0299683-0.0299683,0.0599976-0.0299683,0.0999756c0,0-0.0100098,0.0100098-0.0100098,0.0200195
		c-0.0100098,0.0199585,0,0.039978,0,0.0599976v0.1099854c0.0100098,0.0300293,0.0199585,0.0599976,0.0299683,0.0900269
		l-1.2000122-0.7000122l3.460022-1.9899902L91.1385269,54.9982872z"/>
	<path class="st8" d="M114.1485367,60.5183067l-0.4500122,0.2600098L91.8985367,57.258297l1.1300049-0.6499634
		c0,0,0.0100098,0.0099487,0.0200195,0.0099487l1.1400146,0.1799927c0,0,0,0,0.0099487,0l13.5800171,2.1900024
		L114.1485367,60.5183067z"/>
	<path class="st8" d="M110.0285416,62.8782921l0.6699829,3.8599892l-1.5299683,0.8900146l-0.8699951-4.9299965v-0.0100098
		c-0.0100098-0.0299683-0.0200195-0.0599976-0.039978-0.0899658c-0.0100098-0.0400391-0.0200195-0.0700073-0.0400391-0.1000366
		c-0.0100098-0.0100098-0.0200195-0.0199585-0.0299683-0.0299683c-0.0300293-0.0400391-0.0700073-0.0800171-0.1100464-0.1000366
		c-0.0599976-0.039978-0.1199951-0.0599976-0.1799927-0.0700073c-0.0100098,0-0.0100098,0-0.0100098,0l-7.8599854-1.2699585
		c-0.0100098,0-0.0100098,0-0.0100098,0l-6.0299683-0.9700317c0,0,0,0-0.0100098,0l-2.1900024-0.3599854l-0.3400269-0.4799805
		c-0.039978-0.0599976-0.0899658-0.1099854-0.1599731-0.1500244l-2.1500244-1.2399902l24.1900024,3.9000244l0.0800171,1.0199585
		l-2.7700195-0.4500122h-0.039978c-0.0299683-0.0099487-0.0499878,0-0.0700073,0c-0.0299683,0-0.0599976-0.0099487-0.0999756,0
		c-0.0599976,0.0100098-0.1199951,0.0300293-0.1699829,0.0600586c0,0.0099487-0.0100098,0.0099487-0.0100098,0.0099487
		c-0.0500488,0.0300293-0.0800171,0.0599976-0.1100464,0.1000366c-0.0099487,0.0199585-0.0199585,0.0299683-0.0299683,0.039978
		c-0.0200195,0.0300293-0.0300293,0.0599976-0.0499878,0.0900269c-0.0100098,0.0299683-0.0200195,0.0599976-0.0300293,0.0899658
		c0,0.0100098,0,0.0100098,0,0.0200195c-0.0100098,0.0299683,0,0.0499878,0,0.0800171
		C110.0285416,62.8182945,110.0185318,62.8483238,110.0285416,62.8782921z"/>
	<polygon class="st4" points="89.6585464,50.8483238 88.9485245,51.2683067 87.1485367,45.9382896 87.8685684,45.5383263 	"/>
	<polygon class="st6" points="87.7685318,50.9083214 86.0485611,49.9183311 85.0985489,47.0883141 86.2585831,46.4382896 	"/>
	<polygon class="st11" points="90.0385513,41.8682823 90.0385513,43.1882896 86.3085709,45.2683067 86.3085709,44.0183067 	"/>
	<polygon class="st11" points="85.3085709,44.5983238 85.3085709,45.8283043 81.5485611,47.9183311 81.5485611,46.7683067 	"/>
	<path class="st11" d="M80.5485611,47.3383141v1.1400146l-3.7600098,2.0899658
		c-0.039978-0.0100098-0.0800171-0.0200195-0.1300049-0.0200195v-0.9699707L80.5485611,47.3383141z"/>
	<polygon class="st11" points="75.6585464,49.5883141 75.6585464,50.6282921 73.4085464,49.3383141 73.4085464,48.2883263 	"/>
	<polygon class="st11" points="89.5385513,41.008297 85.8085709,43.1583214 83.5585709,41.8682823 87.2985611,39.7083092 	"/>
	<polygon class="st11" points="84.8085709,43.7382774 81.0485611,45.8983116 78.7985611,44.6083336 82.5585709,42.4382896 	"/>
	<polygon class="st11" points="80.0485611,46.4783287 76.1585464,48.7183189 73.9085464,47.4282799 77.7985611,45.1782799 	"/>
	<polygon class="st6" points="75.3685684,51.6182823 74.1185684,52.3383141 74.1185684,50.8983116 	"/>
	<polygon class="st4" points="81.9185562,55.3182945 81.1985245,55.7283287 79.3685684,50.2783165 80.0885391,49.8782921 	"/>
	<polygon class="st6" points="80.0285416,55.3782921 78.3085709,54.3782921 77.3085709,51.4183311 78.4785538,50.7683067 	"/>
	<path class="st4" d="M109.3585587,72.6882935l-2.7600098,1.6000366l-16.7299805-9.6600342l-2.2700195-3.239994
		c-0.0899658-0.1199951-0.2000122-0.2199707-0.3200073-0.289978l-12.1599731-7.0300293l1.7000122-0.9799805l0.5999756,1.789978
		c0,0.0100098,0.0100098,0.0100098,0.0200195,0.0200195c0.0299683,0.0800171,0.0799561,0.1400146,0.1499634,0.2000122
		c0.0100098,0.0100098,0.0200195,0.0199585,0.0300293,0.0299683s0.0199585,0.0200195,0.0299683,0.0200195l3.0300293,1.75
		c0.0700073,0.0499878,0.1599731,0.0700073,0.25,0.0700073c0.0499878,0,0.0999756-0.0100098,0.1599731-0.0300293
		c0.0200195,0,0.0300293-0.0199585,0.0499878-0.0299683c0.0100098,0,0.0200195,0,0.0400391-0.0100098l1.5999756-0.9199829
		l0.0300293-0.0300293c0.0299683-0.0200195,0.0599976-0.0499878,0.0799561-0.0700073
		c0.0200195-0.0199585,0.0400391-0.0499878,0.0500488-0.0700073c0.0199585-0.0299683,0.039978-0.0599976,0.0499878-0.0899658
		c0.0100098-0.0300293,0.0200195-0.0599976,0.0200195-0.0900269c0.0099487-0.0299683,0.0099487-0.0599976,0.0099487-0.0899658
		c0-0.0400391-0.0099487-0.0700073-0.0099487-0.1000366c-0.0100098-0.0199585,0-0.039978-0.0100098-0.0499878l-1.6500244-4.9099731
		l3.210022-1.8500366l0.5999756,1.7800293c0.0100098,0.0100098,0.0200195,0.0199585,0.0200195,0.0299683
		c0.0299683,0.0700073,0.0800171,0.1400146,0.1499634,0.2000122c0.0100098,0.0100098,0.0200195,0.0200195,0.0400391,0.0300293
		c0,0,0.0100098,0.0099487,0.0199585,0.0199585l3.0300293,1.75c0.0700073,0.0400391,0.1599731,0.0700073,0.25,0.0700073
		c0.0499878,0,0.0999756-0.0100098,0.1599731-0.0299683c0.0200195-0.0100098,0.0300293-0.0200195,0.0500488-0.0300293
		c0.0099487-0.0100098,0.0299683-0.0100098,0.039978-0.0100098l1.5999756-0.9299927
		c0.0100098,0,0.0200195-0.0200195,0.0300293-0.0299683c0.0299683-0.0200195,0.0599976-0.0400391,0.0800171-0.0700073
		c0.0199585-0.0200195,0.039978-0.0400391,0.0599976-0.0700073c0.0099487-0.0300293,0.0299683-0.0499878,0.039978-0.0800171
		c0.0100098-0.0299683,0.0200195-0.0599976,0.0200195-0.0899658c0.0100098-0.0400391,0.0100098-0.0700073,0.0100098-0.1000366
		c0-0.0299683-0.0100098-0.0599976-0.0100098-0.0999756c-0.0100098-0.0100098,0-0.0300293-0.0100098-0.0499878l-0.1099854-0.3300171
		l1.1599731,0.6699829l7.0800171,4.0900269l0.9400024,1.3499756l-1.7600098-0.289978l-4.3699951-1.0400391
		c-0.1099854-0.3899536-0.3800049-0.7699585-0.710022-0.9599609c-0.2299805-0.1300049-0.4599609-0.1600342-0.6599731-0.0800171
		l-0.1400146,0.0800171l-1.1199951-0.6400146c-0.0100098-0.0100098-0.0300293-0.0100098-0.0499878-0.0200195
		c-0.0400391-0.0100098-0.0700073-0.0299683-0.1000366-0.0299683c-0.039978-0.0100098-0.0700073-0.0100098-0.0999756-0.0100098
		c-0.0300293,0-0.0599976,0-0.0900269,0.0100098c-0.039978,0-0.0700073,0.0199585-0.0999756,0.0299683
		c-0.0200195,0.0100098-0.039978,0.0100098-0.0599976,0.0200195l-4.4700317,2.5800171
		c-0.0099487,0-0.0099487,0.0100098-0.0199585,0.0199585c-0.0300293,0.0200195-0.0499878,0.0400391-0.0800171,0.0700073
		c-0.0200195,0.0200195-0.039978,0.0400391-0.0599976,0.0700073c-0.0100098,0.0100098-0.0100098,0.0100098-0.0200195,0.0200195
		c-0.0100098,0.0199585-0.0100098,0.039978-0.0199585,0.0599976c-0.0100098,0.0299683-0.0300293,0.0599976-0.0300293,0.0999756
		c-0.0100098,0.0300293-0.0100098,0.0599976-0.0100098,0.1000366c0,0.0299683,0,0.0499878,0.0100098,0.0799561
		c0,0.0400391,0.0200195,0.0700073,0.0300293,0.1100464c0.0099487,0.0099487,0.0099487,0.0299683,0.0199585,0.0499878
		c0,0.0100098,0.0100098,0.0100098,0.0200195,0.0199585c0.039978,0.0600586,0.0900269,0.1200562,0.1599731,0.1600342
		l0.0100098,0.0100098l4.6099854,2.6599731l2.3300171,3.3300171c0.0499878,0.0599976,0.1000366,0.1099854,0.1600342,0.1500244
		L109.3585587,72.6882935z"/>
	<polygon class="st9" points="55.0385513,54.7083092 55.0385513,56.1583214 53.9885635,55.5582848 53.9885635,54.0983238 	"/>
	<path d="M83.0685806,62.3082848c-0.0300293-0.0700073-0.0800171-0.1300049-0.1400146-0.1599731
		c-0.0100098-0.0200195-0.0300293-0.0300293-0.0400391-0.039978h-0.0099487l-2.8400269-1.6400146l-0.5200195-0.2999878
		c-0.0199585-0.0100098-0.039978-0.0200195-0.0599976-0.0300293l-3.3099976-1.9199829
		c-0.0199585-0.0100098-0.039978-0.0200195-0.0599976-0.0300293c-0.0499878-0.0100098-0.0999756-0.0100098-0.1300049,0.0100098
		c-0.0499878,0.0300293-0.0799561,0.0900269-0.0799561,0.1699829l-0.0100098,4.5200195
		c0,0.0800171,0.0299683,0.1799927,0.0799561,0.2600098c0.0500488,0.0800171,0.1100464,0.1499634,0.1800537,0.1900024
		c0,0.0100098,0.0099487,0.0100098,0.0099487,0.0100098l2.8300171,1.6300087l0.5300293,0.3099976l0.0100098,0.0099487
		l1.1499634,0.6600342l1.6799927,0.9699707l0.5300293,0.3099976c0.0100098,0,0.0100098,0.0100098,0.0199585,0.0100098
		c0.0599976,0.0300293,0.1200562,0.0300293,0.1700439,0c0.0499878-0.0199585,0.0799561-0.0799561,0.0799561-0.1599731
		l0.0100098-4.5200233C83.1485367,62.4882774,83.1185684,62.3883018,83.0685806,62.3082848z M79.2385635,64.5183105
		l-2.8300171-1.6300087l0.0100098-3.9000244l2.8300171,1.6300049L79.2385635,64.5183105z M82.5985489,66.4683228
		l-2.8300171-1.6400146l0.0100098-3.9000282l2.8400269,1.6300049L82.5985489,66.4683228z"/>
	<polygon class="st4" points="79.2485733,60.6182823 79.2385635,64.5183105 76.4085464,62.8883018 76.4185562,58.9882774 	"/>
	<polygon class="st4" points="82.6185684,62.5582848 82.5985489,66.4683228 79.7685318,64.8283081 79.7785416,60.9282799 	"/>
	<polygon class="st12" points="69.9730606,47.8163834 69.9730606,53.2972641 62.6089439,49.0498085 65.3992004,45.1782799 	"/>
	<path d="M92.2969589,71.1704636l0.1682739-0.7037964l0.0765991,0.04422
		c0.0766373,0.0442505,0.1340103,0.106781,0.1529846,0.1764832c0.0253754,0.0734634,0.0187225,0.1724777-0.0136719,0.3081131
		c-0.0194702,0.1063232-0.0516052,0.168602-0.0773239,0.2125549l-0.0832901,0.0547714
		c-0.0319748,0.0036163-0.083107-0.0112534-0.1469345-0.0481033L92.2969589,71.1704636 M92.6832275,70.2618179l-0.4596634-0.2653809
		l-0.3042374,1.286705l0.4660645,0.2690811c0.0510941,0.0294952,0.1149979,0.0516968,0.191658,0.0739288l0.159996-0.0325623
		c0.0576248-0.0255432,0.1088638-0.062088,0.1410675-0.1316528c0.0449295-0.0622635,0.08358-0.1575089,0.1159515-0.3004913
		c0.0194092-0.0843277,0.0324554-0.1723251,0.0391083-0.2566452c0.0002518-0.0880585-0.0186996-0.1798325-0.0376511-0.2569046
		l-0.1081161-0.2167587C92.8428268,70.3686676,92.779007,70.3171158,92.6832275,70.2618179"/>
	<polyline points="92.0383987,69.8895264 91.2147751,69.4140091 90.9169388,70.7044144 91.7597275,71.1909943 
		91.8245087,70.8976898 91.2881851,70.5880432 91.3464508,70.3351364 91.8317032,70.6152954 91.8900146,70.3476562 
		91.4111481,70.0711899 91.4565201,69.8622131 91.9736862,70.1607895 92.0383987,69.8895264 	"/>
	<polyline points="90.9976959,69.288681 90.6848373,69.1080475 90.3806381,70.3947754 90.6934738,70.5753937 90.9976959,69.288681 	
		"/>
	<polyline points="90.5060806,69.0048447 89.7462921,68.566185 89.4484634,69.8565826 89.7485428,70.0298386 89.8715744,69.4983139 
		90.2610245,69.7231598 90.319313,69.4628372 89.9362488,69.2416763 89.9880447,69.0143814 90.4413605,69.2761078 
		90.5060806,69.0048447 	"/>
	<polyline points="89.5228271,68.4371643 89.2163849,68.2602386 88.9121628,69.5469513 89.2186279,69.7238922 
		89.5228271,68.4371643 	"/>
	<polyline points="89.0567627,68.1680832 88.1246033,67.6298981 88.05336,67.9488678 88.366188,68.1294861 88.1396027,69.100914 
		88.4460754,69.2778549 88.6726608,68.306427 88.9855118,68.4870529 89.0567627,68.1680832 	"/>
	<path d="M87.312088,67.7486954l0.0646744-0.2566376l0.1340714,0.0774078l0.1084518,0.0993881l0.006073,0.1137466
		l-0.0385513,0.0585709l-0.0512161,0.0218658l-0.0894318-0.0369339L87.312088,67.7486954 M87.6393585,67.3497391
		l-0.5107727-0.2948914l-0.2978134,1.2904129l0.3000565,0.1732407l0.1230087-0.5242081l0.0319138,0.018425l0.0701447,0.0699005
		l0.0252151,0.1321182l0.0753479,0.4917679l0.3511505,0.2027359l-0.0626373-0.4623489l-0.0189056-0.0991287l-0.0380707-0.1028137
		l-0.0700836-0.0918884l0.1214447,0.0186844l0.1281052-0.0730057c0.0320969-0.0402679,0.0642166-0.0952301,0.0772171-0.1685562
		c0.0130463-0.0880051,0.0196609-0.1650162,0.0006866-0.2421036l-0.089035-0.1762924
		C87.8053436,67.4529495,87.7351303,67.4050369,87.6393585,67.3497391"/>
	<polyline points="86.9370499,66.9442673 86.1134262,66.4687424 85.8156128,67.7591553 86.6583786,68.2457275 
		86.7231598,67.9524231 86.193222,67.6464691 86.2451248,67.3898849 86.7303543,67.6700287 86.7950516,67.4060822 
		86.3098221,67.1259308 86.361557,66.9206314 86.8787231,67.2192154 86.9370499,66.9442673 	"/>
	<path d="M85.506958,66.0965729c-0.166008-0.0958481-0.3002701-0.1072311-0.4155197-0.0562057
		c-0.1089249,0.0693741-0.1988525,0.208519-0.2506104,0.4211349c-0.0324554,0.1650009-0.0392532,0.3080368-0.0140228,0.4328461
		c0.0315781,0.1431122,0.0696487,0.2459259,0.1270065,0.3158188c0.0637131,0.0882187,0.1402512,0.1544342,0.255188,0.220787
		c0.089386,0.0516129,0.166069,0.0738602,0.2299957,0.0813599c0.0703583-0.003479,0.1279755-0.0289688,0.1856461-0.0691833
		c0.0449142-0.0475235,0.0962296-0.106102,0.1412277-0.190361l-0.2486343-0.2684326
		c-0.0258179,0.0806274-0.0643005,0.1245422-0.1091537,0.1500702l-0.1470566-0.0114441
		c-0.0638428-0.0368576-0.1020355-0.0956421-0.121048-0.1580429c-0.0189972-0.0697708-0.0186615-0.1871414,0.0137253-0.3301086
		c0.0322876-0.1136169,0.0580826-0.1869354,0.102951-0.2271576c0.0576859-0.0475311,0.1152954-0.0583725,0.185524-0.0178299
		l0.0765305,0.0735931l0.0508423,0.1101837l0.0061188,0.0990677l0.2875595,0.0778656
		c0.0004349-0.1540909-0.0247803-0.2862091-0.0820236-0.3927689C85.7239532,66.2512589,85.6346436,66.1702957,85.506958,66.0965729"
		/>
	<polygon class="st13" points="108.9488525,79.3612366 109.0311432,80.6029205 110.0402451,80.0232239 109.9579544,78.7815247 	"/>
	<polygon class="st13" points="117.9926605,75.4268875 117.0826874,75.946907 117.0126801,74.7069168 117.9126434,74.1868973 	"/>
</g>
</svg>
