<?xml version="1.0" encoding="utf-8"?>
<!-- Generator: Adobe Illustrator 27.6.1, SVG Export Plug-In . SVG Version: 6.00 Build 0)  -->
<svg version="1.1" id="Layer_1" xmlns="http://www.w3.org/2000/svg" xmlns:xlink="http://www.w3.org/1999/xlink" x="0px" y="0px"
	 viewBox="0 0 172.8999939 90" style="enable-background:new 0 0 172.8999939 90;" xml:space="preserve">
<style type="text/css">
	.st0{fill:#888888;}
	.st1{fill:none;stroke:#000000;stroke-width:2;stroke-linecap:round;stroke-linejoin:round;stroke-miterlimit:10;}
	.st2{fill:#BABABA;}
	.st3{fill:#FFFFFF;}
	.st4{fill:#CCCCCC;}
	.st5{fill:none;}
	.st6{fill:#C1272D;}
	.st7{fill:#999999;}
	.st8{fill:#3751A0;}
	.st9{fill:#0099FF;}
	.st10{fill:#666666;}
	.st11{fill:#B3B3B3;}
	.st12{fill:#F79420;}
	.st13{fill:#797979;}
</style>
<g>
	<path class="st0" d="M52.5244598,82.2099609l55.2399902-31.8900146l12.6976929,7.3325195
		c0.3521729,0.2033081,0.3521118,0.7116089-0.000061,0.914917L66.0144501,90l-5.7629395-3.3279419l-1.7817383,1.0286255
		l-2.5390015-1.4661255l1.7817993-1.0286255L52.5244598,82.2099609z"/>
	<path d="M119.7263565,46.9279671c-0.0299683-0.0100098-0.0499878-0.0200195-0.0799561-0.0300293
		c-0.0100098-0.0100098-9.9400024-6-9.9400024-6c-0.0200195-0.0199585-12.7999878-7.3900146-12.7999878-7.3900146
		c-0.0300293-0.0199585-0.0700073-0.0199585-0.1100464-0.0299683c-0.0599976-0.0300293-0.1300049-0.0599976-0.2000122-0.0700073
		c-0.0599976-0.0100098-0.1199951-0.0100098-0.1799927-0.0100098c-0.0700073,0-0.1300049,0-0.1900024,0.0100098
		c-0.0699463,0.0100098-0.1300049,0.039978-0.1999512,0.0700073c-0.0400391,0.0100098-0.0800171,0.0100098-0.1100464,0.0299683
		l-9.5299683,5.5l-0.5300293-0.3099976c-0.1499634-0.0899658-0.3399658-0.0899658-0.5,0l-3.2399902,1.8700562
		c-0.0100098,0.0099487-0.0100098,0.0199585-0.0200195,0.0299683c-0.0599976,0.0300293-0.0999756,0.0800171-0.1399536,0.1300049
		c-0.0100098,0.0200195-0.0200195,0.0299683-0.0300293,0.0499878c-0.0299683,0.0700073-0.0599976,0.1400146-0.0599976,0.2299805
		v2.4800415c0,0.1799927,0.1000366,0.3499756,0.2600098,0.4299927l2.0200195,1.1300049l-0.9000244,2.6699829l-3.1300049,1.8099976
		l-7.2700195,4.2000122c-0.0699463,0.039978-0.1099854,0.0900269-0.1499634,0.1300049
		c-0.0599976,0.0499878-0.1099854,0.0899658-0.1600342,0.1499634c-0.0099487,0.0100098-2.1199951,3.0200195-2.1199951,3.0200195
		c-0.0199585,0.0300293-0.0299683,0.0700073-0.0499878,0.1099854l-13.8300171,2.2300415h-0.0299683
		c-0.0300293,0.0100098-0.0599976,0.0299683-0.0900269,0.039978c-0.0299683,0.0100098-0.0499878,0.0200195-0.0700073,0.0300293
		l-2.2399902,1.4400024c-0.0799561,0.0499878-0.1300049,0.0999756-0.1699829,0.1699829l-1.2199707,2.1400146
		c-0.1300049,0.2299805-0.0599976,0.5299683,0.1699829,0.6699829l0.3099976,0.1900063v1.4400024
		c0,0.1400146,0.0700073,0.2600098,0.1799927,0.3300171l1.0300293,0.5899658l-1.3800049,0.7999878
		c-0.0300293,0.0200195-0.0599976,0.0499878-0.0900269,0.0700073c-0.039978,0.0400391-0.0800171,0.0700073-0.1199951,0.1099854
		c-0.0499878,0.0500488-0.0900269,0.1100464-0.1300049,0.1700439c-0.0299683,0.0499878-0.0499878,0.0999756-0.0800171,0.1499634
		c-0.0199585,0.0700073-0.039978,0.1400146-0.0499878,0.210022c-0.0100098,0.0299683-0.0200195,0.0499878-0.0299683,0.0800171
		l-0.5400391,8.1999512c-0.0100098,0.0500488,0.0100098,0.0900269,0.0200195,0.1400146c0,0.0700073,0,0.1400146,0.0200195,0.210022
		c0.0199585,0.0700073,0.0599976,0.1199951,0.0899658,0.1699829c0.0300293,0.0599976,0.0499878,0.1199951,0.0900269,0.1699829
		c0.0499878,0.0599976,0.1099854,0.1000366,0.1699829,0.1400146c0.0300293,0.0300293,0.0599976,0.0700073,0.0999756,0.1000366
		l3.1600342,1.8199463c0,0.0100098,0.0100098,0.0200195,0.0100098,0.0400391c0,0.0299683,0,0.0700073,0.0100098,0.0999756
		c0.0099487,0.0400391,0.0299683,0.0599976,0.0499878,0.0900269c0.0599976,0.1300049,0.1699829,0.2000122,0.289978,0.2699585
		c0.1300049,0.0700073,0.2600098,0.1500244,0.3900146,0.2200317c0.1099854,0.0700073,0.2299805,0.1300049,0.3499756,0.2000122
		c0.1099854,0.0599976,0.210022,0.1199951,0.3099976,0.1799927c0.0400391,0.0200195,0.0700073,0.039978,0.1100464,0.0599976
		c0.0499878,0.039978,0.1199951,0.0700073,0.1799927,0.0899658c0.039978,0.0100098,0.0899658,0.0200195,0.1399536,0.0200195
		c0.0300293,0,0.0599976,0,0.0900269-0.0100098l0.2000122-0.039978l7.5,4.3300171
		c0.0100098,0.0099487,0.0199585,0.0099487,0.0299683,0.0099487c0.0200195,0.0100098,0.0400391,0.0200195,0.0599976,0.0300293
		c0.0300293,0.0100098,0.0599976,0.0200195,0.0900269,0.0300293c0.0700073,0.0299683,0.1300049,0.039978,0.210022,0.0499878
		c0.0099487,0,0.0199585,0.0100098,0.039978,0.0100098h0.0599976c0.1199951,0,0.2299805-0.0200195,0.3399658-0.0599976
		c0.0200195-0.0100098,0.0400391-0.0200195,0.0700073-0.0300293c0.0300293-0.0100098,0.0599976-0.0200195,0.0900269-0.039978
		c0.0100098,0,0.8699951-0.5,1.7399902-1s1.7299805-1,1.7299805-1c0.1199951,0.7999878,0.4400024,1.5199585,1.2800293,2
		l0.7600098,0.4299927l0.1099854,0.0599976c0.8400269,0.5299683,1.9899902,0.4799805,3.2800293-0.2600098
		c2.4799805-1.4299927,4.4899902-4.9099731,4.4799805-7.7700195c0-0.0599976-0.0100098-0.1099854-0.0100098-0.1799927
		l1.0300293-0.5899658l19.6399536-11.3400269l6.9800415-4.0299721c0.1099854,0.7999878,0.4400024,1.5199585,1.2799683,2
		l0.75,0.4299927l0.1099854,0.0599976c0.8400269,0.5299683,2,0.4799805,3.2800293-0.2600098
		c1.5200195-0.8699951,2.8499756-2.5100098,3.6599731-4.2999878c0.1600342,0.0999756,0.3300171,0.1399536,0.5100098,0.1399536
		c0.1699829,0,0.3400269-0.039978,0.5-0.1300049l3.0499878-1.7599487c0.3099976-0.1799927,0.5-0.5100098,0.5-0.8699951v-6.8300171
		C120.9163589,48.3579597,120.4763565,47.4979744,119.7263565,46.9279671z M58.0163956,64.3179855l-0.6700439-0.3800087
		l0.960022-0.4000244l0.4000244,0.2399902h0.0299683c0.0400391,0.0300293,0.0900269,0.0400391,0.1400146,0.0499878
		L58.0163956,64.3179855z"/>
	<path class="st1" d="M87.0096893,39.8043518"/>
	<path class="st0" d="M113.3024597,57.2782822c-0.4213867,0.2432861-0.7672958,0.0462112-0.7686691-0.4379921
		c-0.0013733-0.4841995,0.3422928-1.0794525,0.7636719-1.3227386c0.4213867-0.2432823,0.7672958-0.0461617,0.7686691,0.4380417
		S113.7238388,57.034996,113.3024597,57.2782822L113.3024597,57.2782822z M112.6773758,55.5963364
		c-1.0917816,0.6303406-1.9827499,2.1661568-1.9791718,3.428009c0.0035553,1.2545357,0.9003067,1.7582626,1.9920807,1.1279259
		c1.0917816-0.6303368,1.9827499-2.1662064,1.9791946-3.420742
		C114.6659012,55.4696808,113.7691498,54.9659996,112.6773758,55.5963364L112.6773758,55.5963364z"/>
	<path class="st2" d="M113.2974625,55.5175514c0.4213867-0.2432823,0.7672958-0.0461617,0.7686691,0.4380417
		s-0.3422928,1.0794029-0.7636719,1.3226891c-0.4213867,0.2432861-0.7672958,0.0462112-0.7686691-0.4379921
		C112.5324173,56.3560905,112.8760834,55.7608376,113.2974625,55.5175514L113.2974625,55.5175514z"/>
	<path class="st0" d="M75.7574768,78.9588318c-0.4213867,0.2432861-0.7672958,0.0462112-0.7686691-0.4379883
		s0.3422928-1.0794525,0.7636795-1.3227386c0.4213791-0.2432861,0.7672958-0.0461578,0.7686615,0.4380417
		C76.522522,78.1203461,76.1788635,78.7155457,75.7574768,78.9588318L75.7574768,78.9588318z M75.1323929,77.2768936
		c-1.091774,0.6303329-1.9827423,2.166153-1.9791718,3.4280014c0.0035629,1.2545395,0.9003067,1.7582703,1.9920883,1.1279297
		c1.091774-0.6303406,1.9827423-2.1662064,1.979187-3.4207458C77.1209183,77.1502304,76.2241669,76.646553,75.1323929,77.2768936
		L75.1323929,77.2768936z"/>
	<path class="st2" d="M75.7524872,77.1981049c0.4213791-0.2432861,0.7672958-0.0461578,0.7686615,0.4380417
		c0.0013733,0.4841995-0.3422852,1.0793991-0.7636719,1.3226852s-0.7672958,0.0462112-0.7686691-0.4379883
		S75.3311005,77.441391,75.7524872,77.1981049L75.7524872,77.1981049z"/>
	<polygon class="st3" points="108.315834,42.3983116 112.6457901,47.7683067 116.6858292,47.4382896 108.5058365,42.508297 	"/>
	<path class="st3" d="M89.0158463,39.8082848l11.2699585,6.5c0.0400391,0.0200195,0.0599976,0.0599976,0.1000366,0.0800171
		c0.0499878,0.039978,0.0999756,0.0800171,0.1499634,0.1400146c0.0400391,0.0499878,0.0700073,0.0999756,0.1099854,0.1499634
		l7.5400391-4.3499756l-11.7700195-6.789978L89.0158463,39.8082848z"/>
	<path class="st4" d="M100.6457901,46.6782799c0.0300293,0.0599976,0.0600586,0.1100464,0.0800171,0.1700439
		c0.0200195,0.0700073,0.0300293,0.1300049,0.0400391,0.1999512c0,0.0500488,0.0199585,0.0800171,0.0199585,0.1300049v15.0700073
		l5.5300293-3.1799927v-0.0800171c0.4099731-3.1799927,2.5999756-6.5899658,5.2299805-8.1099854
		c1.5499878-0.8999634,3.0800171-1.0499878,4.3099976-0.3999634c0.7999878,0.4199829,1.3800049,1.1499634,1.710022,2.0899658
		l1.3499756-0.7799683V49.298275c0-0.289978-0.1400146-0.5499878-0.3599854-0.7299805l-1.8699951-1.1300049l-4.0400391,0.3300171
		l-4.3299561-5.3699951l-0.1300049-0.0700073L100.6457901,46.6782799z"/>
	<polygon class="st4" points="108.1858292,42.3283043 108.315834,42.3983116 108.235817,42.298275 	"/>
	<path class="st5" d="M89.7558365,62.2683067v0.2999878l0.0100098,4.5200233v0.2999878l0.25-0.1400146
		c0.0099487,0,0.0099487-0.0100098,0.0199585-0.0100098l0.5300293-0.3099976l1.6799927-0.9699707l1.1499634-0.6600342
		l0.0100098-0.0099487l0.5300293-0.3099976l2.8300171-1.6300087c0,0,0.0099487,0,0.0099487-0.0100098l0.2600098-0.1500244
		v-0.2999878l-0.0100098-4.5200195v-0.2999878l-0.2099609,0.1199951c-0.0200195,0.0100098-0.0400391,0.0200195-0.0599976,0.0300293
		l-3.3099976,1.9199829c-0.0200195,0.0100098-0.0400391,0.0200195-0.0599976,0.0300293l-0.5200195,0.2999878l-2.8400269,1.6400146
		h-0.0099487c-0.0100098,0.0099487-0.0300293,0.0199585-0.0400391,0.039978L89.7558365,62.2683067z M93.6557999,60.6182823
		l2.8300171-1.6300049l0.0100098,3.9000244l-2.8300171,1.6300087L93.6557999,60.6182823z M90.2858047,62.5582848
		l2.8400269-1.6300049l0.0100098,3.9000282l-2.8300171,1.6400146L90.2858047,62.5582848z"/>
	<path class="st4" d="M66.8858414,81.8283081l1.6599731-0.960022c0.4799805-3.1199951,2.5999756-6.3499756,5.1900024-7.8499756
		c1.5300293-0.8900146,3.0499878-1.039978,4.2600098-0.4299927c0.75,0.3800049,1.3200073,1.0299683,1.6599731,1.8699951
		l19.1300049-11.0499916v-7.6000366L86.815834,62.7183189l-2.2700195,3.239994
		c-0.0800171,0.1199951-0.1900024,0.210022-0.3200073,0.289978l-16.9599609,9.7900391L66.8858414,81.8283081z
		 M89.7558365,62.5682945c0-0.0800171,0.0299683-0.1799927,0.0799561-0.2600098
		c0.0300293-0.0700073,0.0800171-0.1300049,0.1400146-0.1599731c0.0100098-0.0200195,0.0300293-0.0300293,0.0400391-0.039978
		h0.0099487l2.8400269-1.6400146l0.5200195-0.2999878c0.0199585-0.0100098,0.039978-0.0200195,0.0599976-0.0300293
		l3.3099976-1.9199829c0.0199585-0.0100098,0.039978-0.0200195,0.0599976-0.0300293
		c0.0499878-0.0100098,0.0999756-0.0100098,0.1300049,0.0100098c0.0499878,0.0300293,0.0799561,0.0900269,0.0799561,0.1699829
		l0.0100098,4.5200195c0,0.0800171-0.0299683,0.1799927-0.0799561,0.2600098
		c-0.0500488,0.0800171-0.1100464,0.1499634-0.1800537,0.1900024c0,0.0100098-0.0099487,0.0100098-0.0099487,0.0100098
		l-2.8300171,1.6300087l-0.5300293,0.3099976l-0.0100098,0.0099487l-1.1499634,0.6600342l-1.6799927,0.9699707l-0.5300293,0.3099976
		c-0.0100098,0-0.0100098,0.0100098-0.0199585,0.0100098c-0.0599976,0.0300293-0.1200562,0.0300293-0.1700439,0
		c-0.0499878-0.0199585-0.0799561-0.0799561-0.0799561-0.1599731L89.7558365,62.5682945z"/>
	<polygon class="st4" points="62.0458145,80.3383179 64.8658218,81.958313 65.2658463,75.998291 62.4458389,74.3682861 	"/>
	<polygon class="st6" points="64.0915146,79.1976776 64.0092163,80.4393616 63.0001144,79.8596725 63.0824089,78.6179657 	"/>
	<polygon class="st7" points="60.5857925,79.4882812 61.0857925,79.7783203 61.1058121,79.4083252 	"/>
	<path class="st4" d="M55.525795,68.0682983l0.75,0.4299927l0.0599976-0.8800049c0-0.0099487,0-0.0099487,0-0.0199585
		L55.525795,68.0682983z"/>
	<polygon class="st4" points="56.136795,70.7268753 55.9068146,74.4768753 55.8368073,75.7169266 55.7768097,76.7169266 
		54.0167999,75.7069168 54.4167633,69.7368851 	"/>
	<polygon class="st8" points="60.1358414,72.7283325 60.6158218,69.998291 60.315834,69.8182983 	"/>
	<path class="st9" d="M58.0158463,79.1083374l0.7399902-0.1400146l0.5899658-9.6799927
		c0.0100098-0.0100098,0.0100098-0.0100098,0.0100098-0.0200195l-0.710022-0.4099731L58.0158463,79.1083374z"/>
	<polygon class="st9" points="56.6557999,78.668335 57.025795,78.8782959 57.6758194,68.2982788 57.3058243,68.0783081 	"/>
	<polygon class="st9" points="53.8258438,63.2683067 54.2958145,63.5682945 55.3758316,62.5183067 54.5458145,61.9982872 	"/>
	<path class="st10" d="M53.9458389,64.5283203v0.75l7.8399658,4.5199585v-0.6899414l-6.3800049-3.6800537
		c-0.039978-0.0199585-0.0899658-0.0199585-0.1300049-0.039978l-0.9099731-0.5999756L53.9458389,64.5283203z"/>
	<path class="st10" d="M55.1658096,64.1182861l0.6600342,0.4299927c0.1300049,0.0900269,0.1999512,0.2300415,0.2199707,0.3800049
		l6.1099854,3.5300293l0.7600098-0.4500122l-6.4500122-3.710022l-0.0999756,0.0300293v0.0100098
		c-0.0599976,0.0200195-0.1300049,0.0299683-0.1900024,0.0299683c-0.0900269,0-0.1699829-0.0299683-0.2399902-0.0700073h-0.0300293
		l-0.5599976-0.3599892L55.1658096,64.1182861z"/>
	<polygon class="st10" points="62.5358047,69.1083374 62.5358047,69.7982788 63.2858047,69.3583374 63.2858047,68.668335 	"/>
	<path class="st9" d="M60.1358414,78.5482788l1.039978-0.1599731l0.3699951-5.4400024
		c0.0100098-0.1699829,0.0999756-0.3200073,0.25-0.4000244l1.210022-0.6999512l0.2799683-1.6199951l-0.9400024,0.5499878
		c0,0-0.0100098,0-0.0199585,0c-0.0500488,0.0299683-0.1000366,0.0499878-0.1700439,0.0499878
		c-0.0599976,0-0.1099854-0.0200195-0.1699829-0.0499878h-0.0100098l-0.4400024-0.25L60.1358414,78.5482788z"/>
	<polygon class="st9" points="55.3058243,61.2883263 55.5857925,61.4683189 57.2058487,60.7783165 56.6258316,60.4382896 	"/>
	<polygon class="st9" points="55.8458023,61.6383018 56.2258072,61.8682823 57.9158096,61.1782799 57.4758072,60.9282799 	"/>
	<polygon class="st9" points="56.6758194,62.7683067 56.6758194,63.1282921 58.525795,62.3682823 58.5558243,61.9982872 	"/>
	<polygon class="st8" points="60.3957901,65.6983032 61.2858047,66.208313 61.775795,63.3883018 60.7658463,63.5582848 	"/>
	<polygon class="st9" points="58.0857925,60.1282921 58.4358292,60.3283043 61.8357925,59.5183067 	"/>
	<polygon class="st4" points="65.1358414,65.458313 70.3458023,62.4482994 65.525795,63.2283287 	"/>
	<polygon class="st7" points="64.6457901,68.248291 76.3758316,61.4783287 73.1158218,61.9982872 64.9057999,66.7382812 	"/>
	<polygon class="st7" points="64.1258316,71.1983032 79.1158218,62.5383263 80.315834,60.8383141 79.1457901,61.0283165 
		64.4258194,69.5383301 	"/>
	<path class="st11" d="M78.1457901,55.8782921l0.4100342-0.0599976c0-0.0100098,0-0.0100098,0.0100098-0.0100098
		l0.5999756-0.0899658c0-0.0300293,0.0100098-0.0599976,0.0100098-0.0900269L78.1457901,55.8782921z"/>
	<path class="st11" d="M82.0958023,57.0883141l0.3500366-0.0599976l-0.2000122-0.1199951
		C82.1958389,56.9783287,82.1457901,57.0283165,82.0958023,57.0883141z"/>
	<path class="st9" d="M79.6557999,55.7482872c0,0.1400146,0.0700073,0.1900024,0.0700073,0.1900024l0.1099854,0.0700073
		c0.0200195-0.1900024,0.0900269-0.3900146,0.1900024-0.5800171l-0.3299561,0.0800171
		C79.6758194,55.5883141,79.6557999,55.6683311,79.6557999,55.7482872z"/>
	<path class="st9" d="M79.8258438,55.2183189l0.4099731-0.0900269c0.0900269-0.1099854,0.1900024-0.2000122,0.2999878-0.2600098
		l-0.0799561-0.0499878l-0.0600586-0.0299683c-0.039978-0.0100098-0.1099854-0.0100098-0.2099609,0.0499878
		C80.0458145,54.9183311,79.9158096,55.0582848,79.8258438,55.2183189z"/>
	<path class="st9" d="M80.0758438,56.0983238c0,0.0199585,0.0099487,0.0299683,0.0099487,0.0499878l0.25,0.1400146
		c0.0300293-0.4000244,0.2900391-0.8500366,0.6300049-1.0800171l-0.5899658,0.1400146
		C80.1958389,55.5682945,80.0758438,55.8483238,80.0758438,56.0983238z"/>
	<path class="st9" d="M80.565834,56.3883018c0,0.0200195,0.0100098,0.0300293,0.0100098,0.039978l0.25,0.1500244
		c0.039978-0.4400024,0.2999878-0.8699951,0.6399536-1.1599731l-0.1499634-0.1000366
		c-0.0499878,0.0100098-0.1000366,0.0200195-0.1600342,0.0499878C80.8357925,55.548275,80.565834,56.0183067,80.565834,56.3883018z"
		/>
	<path class="st9" d="M81.3058243,56.6882896c0,0.1199951,0.039978,0.1799927,0.0599976,0.2000122l0.0200195,0.0100098
		c0.0299683,0.0200195,0.0999756,0.0100098,0.2099609-0.0499878c0.2800293-0.1600342,0.5200195-0.5800171,0.5200195-0.9100342
		c0-0.1199951-0.0300293-0.1799927-0.0599976-0.2000122h-0.0100098c-0.0100098-0.0099487-0.0200195-0.0099487-0.039978-0.0099487
		c-0.0400391,0-0.1000366,0.0099487-0.1700439,0.0599976C81.5558243,55.9482994,81.3058243,56.3682823,81.3058243,56.6882896z"/>
	<path class="st7" d="M81.7658463,54.9982872l0.5199585,0.2999878c0.0100098,0,0.0100098,0,0.0100098,0
		c0.0100098,0.0100098,0.0100098,0.0100098,0.0100098,0.0100098l0.0100098,0.0100098
		c0.1900024,0.1199951,0.2999878,0.3400269,0.2999878,0.6199951v0.0300293l1.5499878,0.8999634c0,0,0.0100098,0,0.0100098,0.0100098
		c0.039978,0.0200195,0.0700073,0.0499878,0.0999756,0.0800171c0.0100098,0.0200195,0.0300293,0.0299683,0.0500488,0.0499878
		c0.0099487,0.0300293,0.0199585,0.0599976,0.039978,0.0900269c0.0100098,0.0299683,0.0299683,0.0599976,0.0299683,0.0999756
		c0,0,0.0100098,0.0100098,0.0100098,0.0200195c0.0100098,0.0199585,0,0.039978,0,0.0599976v0.1099854
		c-0.0100098,0.0300293-0.0199585,0.0599976-0.0299683,0.0900269l1.2000122-0.7000122l-3.460022-1.9899902L81.7658463,54.9982872z"
		/>
	<path class="st9" d="M58.7558365,60.5183067l0.4500122,0.2600098l21.7999878-3.5200195l-1.1300049-0.6499634
		c0,0-0.0100098,0.0099487-0.0200195,0.0099487l-1.1400146,0.1799927c0,0,0,0-0.0099487,0l-13.5800171,2.1900024
		L58.7558365,60.5183067z"/>
	<path class="st9" d="M62.8758316,62.8782921l-0.6699829,3.8599892l1.5299683,0.8900146l0.8699951-4.9299965v-0.0100098
		c0.0100098-0.0299683,0.0200195-0.0599976,0.039978-0.0899658c0.0100098-0.0400391,0.0200195-0.0700073,0.0400391-0.1000366
		c0.0100098-0.0100098,0.0200195-0.0199585,0.0299683-0.0299683c0.0300293-0.0400391,0.0700073-0.0800171,0.1100464-0.1000366
		c0.0599976-0.039978,0.1199951-0.0599976,0.1799927-0.0700073c0.0100098,0,0.0100098,0,0.0100098,0l7.8599854-1.2699585
		c0.0100098,0,0.0100098,0,0.0100098,0l6.0299683-0.9700317c0,0,0,0,0.0100098,0l2.1900024-0.3599854l0.3400269-0.4799805
		c0.039978-0.0599976,0.0899658-0.1099854,0.1599731-0.1500244l2.1500244-1.2399902l-24.1900024,3.9000244l-0.0800171,1.0199585
		l2.7700195-0.4500122h0.039978c0.0299683-0.0099487,0.0499878,0,0.0700073,0c0.0299683,0,0.0599976-0.0099487,0.0999756,0
		c0.0599976,0.0100098,0.1199951,0.0300293,0.1699829,0.0600586c0,0.0099487,0.0100098,0.0099487,0.0100098,0.0099487
		c0.0500488,0.0300293,0.0800171,0.0599976,0.1100464,0.1000366c0.0099487,0.0199585,0.0199585,0.0299683,0.0299683,0.039978
		c0.0200195,0.0300293,0.0300293,0.0599976,0.0499878,0.0900269c0.0100098,0.0299683,0.0200195,0.0599976,0.0300293,0.0899658
		c0,0.0100098,0,0.0100098,0,0.0200195c0.0100098,0.0299683,0,0.0499878,0,0.0800171
		C62.8758316,62.8182945,62.8858414,62.8483238,62.8758316,62.8782921z"/>
	<polygon class="st4" points="83.2458267,50.8483238 83.9558487,51.2683067 85.7558365,45.9382896 85.0358047,45.5383263 	"/>
	<polygon class="st7" points="85.1358414,50.9083214 86.8558121,49.9183311 87.8058243,47.0883141 86.6457901,46.4382896 	"/>
	<polygon class="st12" points="82.8658218,41.8682823 82.8658218,43.1882896 86.5958023,45.2683067 86.5958023,44.0183067 	"/>
	<polygon class="st12" points="87.5958023,44.5983238 87.5958023,45.8283043 91.3558121,47.9183311 91.3558121,46.7683067 	"/>
	<path class="st12" d="M92.3558121,47.3383141v1.1400146l3.7600098,2.0899658
		c0.039978-0.0100098,0.0800171-0.0200195,0.1300049-0.0200195v-0.9699707L92.3558121,47.3383141z"/>
	<polygon class="st12" points="97.2458267,49.5883141 97.2458267,50.6282921 99.4958267,49.3383141 99.4958267,48.2883263 	"/>
	<polygon class="st12" points="83.3658218,41.008297 87.0958023,43.1583214 89.3458023,41.8682823 85.6058121,39.7083092 	"/>
	<polygon class="st12" points="88.0958023,43.7382774 91.8558121,45.8983116 94.1058121,44.6083336 90.3458023,42.4382896 	"/>
	<polygon class="st12" points="92.8558121,46.4783287 96.7458267,48.7183189 98.9958267,47.4282799 95.1058121,45.1782799 	"/>
	<polygon class="st7" points="97.5358047,51.6182823 98.7858047,52.3383141 98.7858047,50.8983116 	"/>
	<polygon class="st4" points="90.985817,55.3182945 91.7058487,55.7283287 93.5358047,50.2783165 92.815834,49.8782921 	"/>
	<polygon class="st7" points="92.8758316,55.3782921 94.5958023,54.3782921 95.5958023,51.4183311 94.4258194,50.7683067 	"/>
	<path class="st4" d="M63.5458145,72.6882935l2.7600098,1.6000366l16.7299805-9.6600342l2.2700195-3.239994
		c0.0899658-0.1199951,0.2000122-0.2199707,0.3200073-0.289978l12.1599731-7.0300293l-1.7000122-0.9799805l-0.5999756,1.789978
		c0,0.0100098-0.0100098,0.0100098-0.0200195,0.0200195c-0.0299683,0.0800171-0.0799561,0.1400146-0.1499634,0.2000122
		c-0.0100098,0.0100098-0.0200195,0.0199585-0.0300293,0.0299683s-0.0199585,0.0200195-0.0299683,0.0200195l-3.0300293,1.75
		c-0.0700073,0.0499878-0.1599731,0.0700073-0.25,0.0700073c-0.0499878,0-0.0999756-0.0100098-0.1599731-0.0300293
		c-0.0200195,0-0.0300293-0.0199585-0.0499878-0.0299683c-0.0100098,0-0.0200195,0-0.0400391-0.0100098l-1.5999756-0.9199829
		l-0.0300293-0.0300293c-0.0299683-0.0200195-0.0599976-0.0499878-0.0799561-0.0700073
		c-0.0200195-0.0199585-0.0400391-0.0499878-0.0500488-0.0700073c-0.0199585-0.0299683-0.039978-0.0599976-0.0499878-0.0899658
		c-0.0100098-0.0300293-0.0200195-0.0599976-0.0200195-0.0900269c-0.0099487-0.0299683-0.0099487-0.0599976-0.0099487-0.0899658
		c0-0.0400391,0.0099487-0.0700073,0.0099487-0.1000366c0.0100098-0.0199585,0-0.039978,0.0100098-0.0499878l1.6500244-4.9099731
		l-3.210022-1.8500366l-0.5999756,1.7800293c-0.0100098,0.0100098-0.0200195,0.0199585-0.0200195,0.0299683
		c-0.0299683,0.0700073-0.0800171,0.1400146-0.1499634,0.2000122c-0.0100098,0.0100098-0.0200195,0.0200195-0.0400391,0.0300293
		c0,0-0.0100098,0.0099487-0.0199585,0.0199585l-3.0300293,1.75c-0.0700073,0.0400391-0.1599731,0.0700073-0.25,0.0700073
		c-0.0499878,0-0.0999756-0.0100098-0.1599731-0.0299683c-0.0200195-0.0100098-0.0300293-0.0200195-0.0500488-0.0300293
		c-0.0099487-0.0100098-0.0299683-0.0100098-0.039978-0.0100098l-1.5999756-0.9299927
		c-0.0100098,0-0.0200195-0.0200195-0.0300293-0.0299683c-0.0299683-0.0200195-0.0599976-0.0400391-0.0800171-0.0700073
		c-0.0199585-0.0200195-0.039978-0.0400391-0.0599976-0.0700073c-0.0099487-0.0300293-0.0299683-0.0499878-0.039978-0.0800171
		c-0.0100098-0.0299683-0.0200195-0.0599976-0.0200195-0.0899658c-0.0100098-0.0400391-0.0100098-0.0700073-0.0100098-0.1000366
		c0-0.0299683,0.0100098-0.0599976,0.0100098-0.0999756c0.0100098-0.0100098,0-0.0300293,0.0100098-0.0499878l0.1099854-0.3300171
		l-1.1599731,0.6699829l-7.0800171,4.0900269l-0.9400024,1.3499756l1.7600098-0.289978l4.3699951-1.0400391
		c0.1099854-0.3899536,0.3800049-0.7699585,0.710022-0.9599609c0.2299805-0.1300049,0.4599609-0.1600342,0.6599731-0.0800171
		l0.1400146,0.0800171l1.1199951-0.6400146c0.0100098-0.0100098,0.0300293-0.0100098,0.0499878-0.0200195
		c0.0400391-0.0100098,0.0700073-0.0299683,0.1000366-0.0299683c0.039978-0.0100098,0.0700073-0.0100098,0.0999756-0.0100098
		c0.0300293,0,0.0599976,0,0.0900269,0.0100098c0.039978,0,0.0700073,0.0199585,0.0999756,0.0299683
		c0.0200195,0.0100098,0.039978,0.0100098,0.0599976,0.0200195l4.4700317,2.5800171
		c0.0099487,0,0.0099487,0.0100098,0.0199585,0.0199585c0.0300293,0.0200195,0.0499878,0.0400391,0.0800171,0.0700073
		c0.0200195,0.0200195,0.039978,0.0400391,0.0599976,0.0700073c0.0100098,0.0100098,0.0100098,0.0100098,0.0200195,0.0200195
		c0.0100098,0.0199585,0.0100098,0.039978,0.0199585,0.0599976c0.0100098,0.0299683,0.0300293,0.0599976,0.0300293,0.0999756
		c0.0100098,0.0300293,0.0100098,0.0599976,0.0100098,0.1000366c0,0.0299683,0,0.0499878-0.0100098,0.0799561
		c0,0.0400391-0.0200195,0.0700073-0.0300293,0.1100464c-0.0099487,0.0099487-0.0099487,0.0299683-0.0199585,0.0499878
		c0,0.0100098-0.0100098,0.0100098-0.0200195,0.0199585c-0.039978,0.0600586-0.0900269,0.1200562-0.1599731,0.1600342
		l-0.0100098,0.0100098l-4.6099854,2.6599731l-2.3300171,3.3300171c-0.0499878,0.0599976-0.1000366,0.1099854-0.1600342,0.1500244
		L63.5458145,72.6882935z"/>
	<polygon class="st10" points="117.8658218,54.7083092 117.8658218,56.1583214 118.9158096,55.5582848 118.9158096,54.0983238 	"/>
	<path d="M89.7558365,62.5682945l0.0100098,4.5200233c0,0.0800171,0.0299683,0.1400146,0.0799561,0.1599731
		c0.0499878,0.0300293,0.1100464,0.0300293,0.1700439,0c0.0099487,0,0.0099487-0.0100098,0.0199585-0.0100098l0.5300293-0.3099976
		l1.6799927-0.9699707l1.1499634-0.6600342l0.0100098-0.0099487l0.5300293-0.3099976l2.8300171-1.6300087
		c0,0,0.0099487,0,0.0099487-0.0100098c0.0700073-0.0400391,0.1300049-0.1099854,0.1800537-0.1900024
		c0.0499878-0.0800171,0.0799561-0.1799927,0.0799561-0.2600098l-0.0100098-4.5200195
		c0-0.0799561-0.0299683-0.1399536-0.0799561-0.1699829c-0.0300293-0.0200195-0.0800171-0.0200195-0.1300049-0.0100098
		c-0.0200195,0.0100098-0.0400391,0.0200195-0.0599976,0.0300293l-3.3099976,1.9199829
		c-0.0200195,0.0100098-0.0400391,0.0200195-0.0599976,0.0300293l-0.5200195,0.2999878l-2.8400269,1.6400146h-0.0099487
		c-0.0100098,0.0099487-0.0300293,0.0199585-0.0400391,0.039978c-0.0599976,0.0299683-0.1099854,0.0899658-0.1400146,0.1599731
		C89.7858047,62.3883018,89.7558365,62.4882774,89.7558365,62.5682945z M93.6557999,60.6182823l2.8300171-1.6300049
		l0.0100098,3.9000244l-2.8300171,1.6300087L93.6557999,60.6182823z M90.2858047,62.5582848l2.8400269-1.6300049
		l0.0100098,3.9000282l-2.8300171,1.6400146L90.2858047,62.5582848z"/>
	<polygon class="st4" points="93.6557999,60.6182823 93.6658096,64.5183105 96.4958267,62.8883018 96.485817,58.9882774 	"/>
	<polygon class="st4" points="90.2858047,62.5582848 90.3058243,66.4683228 93.1358414,64.8283081 93.1258316,60.9282799 	"/>
	<polygon class="st6" points="55.9068146,74.4768753 55.8368073,75.7169266 54.9867706,75.2268753 55.0667877,73.9868851 	"/>
	<polygon class="st13" points="102.9313126,47.8163834 102.9313126,53.2972641 110.295433,49.0498085 107.5051727,45.1782799 	"/>
	<path d="M87.5152893,67.6786728l0.1573334-0.8918304l0.0766144-0.0442352
		c0.0830078-0.0479279,0.1341629-0.0480576,0.159874-0.0041428c0.0193253,0.0476456,0.0132294,0.1540222-0.011879,0.3228607
		c-0.0251923,0.132103-0.0505066,0.2275543-0.0822754,0.3047028l-0.082695,0.1505966
		c-0.0254593,0.0441055-0.0765076,0.0809555-0.1403732,0.1178284L87.5152893,67.6786728 M87.8951492,66.3276596
		l-0.4660645,0.2690811l-0.2895584,1.6295319l0.4596786-0.2653961c0.0574799-0.0331802,0.1212845-0.0847244,0.191452-0.1472626
		l0.1592712-0.2168884c0.0572891-0.0918274,0.1081696-0.1873856,0.1462402-0.2975235
		c0.0380478-0.1101761,0.0760117-0.2496567,0.1074905-0.4294968c0.0252762-0.1101227,0.0314102-0.201828,0.037529-0.3008881
		c-0.0002518-0.0880661-0.0132523-0.1613922-0.0389862-0.2126694l-0.1026001-0.095047
		C88.0484467,66.2612305,87.9845428,66.2760468,87.8951492,66.3276596"/>
	<polyline points="87.2439194,66.7036514 86.4266739,67.1754837 86.1307526,68.8086929 86.9735184,68.3221207 
		87.0364304,67.9551468 86.5064926,68.2611008 86.5631638,67.9417801 87.0420074,67.6653214 87.0986099,67.3313446 
		86.626152,67.6041107 86.6638107,67.3545761 87.1809692,67.0559921 87.2439194,66.7036514 	"/>
	<polyline points="86.2032318,67.3044891 85.8903732,67.4851151 85.6008224,69.1146469 85.9072876,68.937706 86.2032318,67.3044891 
			"/>
	<polyline points="85.7115936,67.5883331 84.9582214,68.0232925 84.6622772,69.656517 84.9687424,69.4795761 85.0883408,68.8079758 
		85.4778137,68.5831146 85.5344391,68.2564926 85.1513519,68.4776688 85.1953278,68.2024002 85.6486435,67.9406815 
		85.7115936,67.5883331 	"/>
	<polyline points="84.7283707,68.1559982 84.4218979,68.3329391 84.1323471,69.962471 84.4324265,69.7892227 84.7283707,68.1559982 
			"/>
	<polyline points="84.2686691,68.4214096 83.3301239,68.9632797 83.26091,69.3633423 83.5737686,69.1827164 83.3534241,70.4121857 
		83.6598892,70.2352448 83.8866196,69.0020905 84.1994553,68.8214798 84.2686691,68.4214096 	"/>
	<path d="M82.5209351,70.0183716l0.0630112-0.330307l0.14048-0.0811081l0.1022491-0.0223083l0.0066986,0.106369
		l-0.0317078,0.0991364l-0.057312,0.0845184l-0.082962,0.0625992L82.5209351,70.0183716 M82.8512802,69.2397385
		l-0.5107727,0.2948914l-0.2959442,1.6332245l0.3064728-0.1769409l0.1196136-0.6642914l0.0255508-0.0147476l0.0703278-0.00383
		l0.0322266,0.0915833l0.0778885,0.4032974l0.3447647-0.1990509l-0.0650482-0.3886337l-0.0193939-0.0770111l-0.0385437-0.0585785
		l-0.0703812-0.0107956l0.1211624-0.1213837l0.1272888-0.2204514c0.0381317-0.0808258,0.0634689-0.1689072,0.0760193-0.2569809
		c0.0188828-0.0991135,0.0250244-0.1908188-0.0006714-0.234787l-0.0897598-0.0804367
		C83.0109253,69.1549454,82.9406738,69.1881256,82.8512802,69.2397385"/>
	<polyline points="82.1489563,69.6452255 81.3253479,70.1207352 81.0294037,71.7539597 81.8721695,71.2673874 
		81.9350815,70.9004135 81.4051666,71.2063522 81.4618149,70.8870468 81.9406586,70.6105881 82.0036469,70.2729187 
		81.5248032,70.5493774 81.5752335,70.2924728 82.092392,69.9938889 82.1489563,69.6452255 	"/>
	<path d="M80.7123489,70.4526215c-0.1596222,0.0921631-0.2998962,0.2392807-0.4080658,0.4266663
		c-0.1145859,0.1910934-0.1970291,0.4297562-0.2474365,0.701355c-0.0377731,0.2055054-0.0437469,0.3559189-0.0114975,0.4475327
		c0.0258713,0.1100006,0.0708084,0.1648865,0.1283951,0.1756973c0.0639648,0.0071716,0.1406631-0.0077133,0.2555771-0.0740585
		c0.0830078-0.0479202,0.1595383-0.1215134,0.2233047-0.1877213c0.0701065-0.0845337,0.1273956-0.1764145,0.1846619-0.2829895
		c0.0508652-0.1028214,0.1016846-0.2203674,0.1396942-0.3525009l-0.2493668,0.0190353
		c-0.0252762,0.1101303-0.063385,0.1982651-0.1015549,0.2717285l-0.1530075,0.16185
		c-0.0638657,0.0368729-0.0958786,0.0185776-0.1215744-0.0180206c-0.0193024-0.0476608-0.0196381-0.1650314,0.0182037-0.3485413
		c0.0251694-0.1467972,0.0568314-0.2532806,0.0949631-0.3414307c0.0572357-0.1138687,0.1145859-0.1837158,0.1848145-0.2242584
		l0.076683-0.0222473l0.0513,0.0512161l0.0066528,0.0916901l0.2934494-0.257576
		c-0.0004349-0.1540909-0.0326843-0.2530365-0.0903702-0.2932358C80.9358978,70.3529587,80.8400574,70.378891,80.7123489,70.4526215
		"/>
</g>
</svg>
