<?xml version="1.0" encoding="utf-8"?>
<!-- Generator: Adobe Illustrator 27.6.1, SVG Export Plug-In . SVG Version: 6.00 Build 0)  -->
<svg version="1.1" id="Layer_1" xmlns="http://www.w3.org/2000/svg" xmlns:xlink="http://www.w3.org/1999/xlink" x="0px" y="0px"
	 viewBox="0 0 172.8999939 90" style="enable-background:new 0 0 172.8999939 90;" xml:space="preserve">
<style type="text/css">
	.st0{fill:#888888;}
	.st1{fill:#CCCCCC;}
	.st2{fill:#0099FF;}
	.st3{fill:#666666;}
	.st4{fill:#F79420;}
	.st5{fill:#FFFFFF;}
	.st6{opacity:0.97;}
	.st7{fill:#BABABA;}
	.st8{fill:#797979;}
</style>
<g>
	<path class="st0" d="M46.7544403,87.7115479h3.8011475v-0.803833h74.3200073c0.701355,0,1.2699585,0.5685425,1.2699585,1.2699585
		v0.5523682c0,0.701355-0.5686035,1.2699585-1.2699585,1.2699585H50.5555878v-1.0184937h-3.8011475V87.7115479z"/>
	<g>
		<g>
			<path d="M47.4555511,74.5099411c-0.0299683,0.0900269-0.0199585,0.2000122,0.0200195,0.2900391
				c0.039978,0.0899658,0.1199951,0.1599731,0.2199707,0.1900024l1.5900269,0.5499878
				c0.0200195,0.0100098,0.0499878,0.0100098,0.0800171,0.0100098c0.039978,0.0599976,0.0899658,0.1099854,0.1599731,0.1499634
				l1.2299805,0.7000122l-0.0899658,0.7999878c-0.0100098,0.0400391-0.0100098,0.0800171-0.0100098,0.1199951v4.7200317
				c0,0.0999756,0.0200195,0.2000122,0.0499878,0.289978c0,0.0200195,0.0100098,0.0300293,0.0200195,0.0499878
				c0.0299683,0.0900269,0.0800171,0.1700439,0.1400146,0.25c0.0199585,0.0200195,0.0199585,0.0500488,0.039978,0.0800171
				c0.0200195,0.0200195,0.039978,0.0200195,0.0599976,0.0400391c0.0499878,0.039978,0.1000366,0.0799561,0.1600342,0.1099854
				c0.1599731,0.1099854,0.3399658,0.1799927,0.5299683,0.1799927h2.9500122c0.1300049,0,0.25-0.0300293,0.3699951-0.0700073
				c0.039978-0.0200195,0.0700073-0.039978,0.1099854-0.0599976c0.0300293-0.0200195,0.0700073-0.039978,0.1000366-0.0599976
				c-0.0300293,0.2600098-0.0599976,0.5299683-0.0599976,0.7999878c0,3.5,2.8399658,6.3500366,6.3499756,6.3500366
				s6.3499756-2.8500366,6.3499756-6.3500366c0-0.2700195-0.0199585-0.5299683-0.0599976-0.789978
				c0.0400391,0.0199585,0.0700073,0.0299683,0.1100464,0.0499878c0.0499878,0.0300293,0.0999756,0.0499878,0.1599731,0.0700073
				c0.0700073,0.0200195,0.1300049,0.0299683,0.2000122,0.039978c0.039978,0.0100098,0.0700073,0.0200195,0.1099854,0.0200195
				h38.4899902c0.2800293,0,0.5400391-0.1199951,0.7200317-0.3099976c-0.0500488,0.2999878-0.0800171,0.6099854-0.0800171,0.9199829
				c0,3.5,2.8499756,6.3500366,6.3499756,6.3500366c3.1000366,0,5.6700439-2.2200317,6.2300415-5.1500244
				c0.1799927,0.1500244,0.3899536,0.25,0.6399536,0.25h4.4500122c0.5499878,0,1-0.4500122,1-1V73.0799484
				c0-2.8099976-2.0999756-5.2399902-4.8900146-5.6499634l-6.9699707-0.9899902l-5.710022-6.9100342
				c-0.1900024-0.2299805-0.4699707-0.3599854-0.7699585-0.3599854H94.0055389c-0.5599976,0-1,0.4500122-1,1v5.3200073h-1.4699707
				l0.1900024-0.6300049h0.4699707c0.2800293,0,0.5-0.2200317,0.5-0.5v-6.2900391c0-0.2699585-0.2199707-0.5-0.5-0.5h-4.6699829
				c-0.2799683,0-0.5,0.2300415-0.5,0.5v6.2900391c0,0.0999756,0.0400391,0.1900024,0.0900269,0.2699585l-0.2600098,0.8700562
				c-0.0100098,0-0.0300293-0.0100098-0.0499878-0.0100098h-6.8500366c-0.2699585-0.2999878-0.6599731-0.5-1.0999756-0.5
				c-0.3099976,0-0.6000366,0.0999756-0.8300171,0.2600098l-24.0499878-6.2800293
				c-0.1300049-0.0299683-0.2600098,0.0499878-0.2999878,0.1699829l-1.4100342-0.289978
				c-0.2099609-0.039978-0.3999634,0.0900269-0.4499512,0.289978v0.0200195l-1.8400269,1.1900024
				c-0.0900269,0.0599976-0.1500244,0.1500244-0.1599731,0.2600098c-0.0200195,0.0999756,0.0099487,0.2099609,0.0699463,0.289978
				l1.1100464,1.3900146c0.0799561,0.0999756,0.1900024,0.1500244,0.2999878,0.1500244
				c0.0599976,0,0.1300049-0.0200195,0.1900024-0.0600586c0.1599731-0.0899658,0.2199707-0.289978,0.1499634-0.4599609
				l-0.4199829-1.0599976l0.3800049-0.2600098c0.0300293,0.1300049,0.1400146,0.2399902,0.2800293,0.2700195l1.7799683,0.3699951
				l-0.2299805,0.4599609c-0.1300049,0.2400513-0.0400391,0.5400391,0.2099609,0.6700439
				c0.0599976,0.0599976,0.1300049,0.1199951,0.210022,0.1399536l2.4099731,0.7600098l-2.5699463,4.210022h-0.9700317
				c-0.0999756,0-0.1799927,0.0200195-0.2700195,0.0499878l0.1900024-0.5599976c0.0100098-0.0100098,0-0.0299683,0.0100098-0.039978
				h0.0100098c0.1099854,0,0.210022-0.0700073,0.2399902-0.1700439l0.5499878-1.5899658l0.3800049-1.1000366
				c0.0500488-0.1299438-0.0199585-0.2799683-0.1499634-0.3199463l-2.1700439-0.75
				c-0.0599976-0.0200195-0.1299438-0.0200195-0.1899414,0.0099487c-0.0600586,0.0300293-0.1000366,0.0800171-0.1200562,0.1500244
				l-0.3899536,1.0999756l-0.5400391,1.5900269c-0.0299683,0.0700073-0.0199585,0.1300049,0.0100098,0.1900024l-2.8200073,8.1599731
				c-0.0299683,0.1000366-0.0199585,0.2000122,0.0100098,0.2800293L47.4555511,74.5099411z M80.3655853,67.4899826h0.9099731
				l0.6799927,0.5L80.3655853,67.4899826z M77.295578,66.5299606L59.1755829,60.849968l18.4500122,4.8200073
				c-0.1500244,0.2299805-0.2400513,0.5-0.2400513,0.7999878c0,0.0300293,0.0100098,0.0900269,0.0100098,0.1300049
				c0,0.0100098,0,0.0100098,0,0.0100098C77.3555756,66.5799484,77.335556,66.5399704,77.295578,66.5299606z M59.4355927,65.2999802
				l6.9599609,2.1799927h-8.2799683L59.4355927,65.2999802z M56.3855438,70.3199387l0.5100098-0.8399658h15.8800049
				l2.7000122,0.8399658H56.3855438z M50.5555878,72.9999924l0.9299927-2.7000122l-0.1699829,1.4599609L50.5555878,72.9999924z"/>
			<path class="st1" d="M80.171051,72.2091522l-3.0600586,1.8500366c-0.1599731,0.0899658-0.3399658,0.1400146-0.5199585,0.1400146
				H53.6109924l-0.8199463,6.8399658h1.039978c0.9799805-3.3599854,4.0700073-5.7199707,7.6500244-5.7199707
				c3.5799561,0,6.6699829,2.3599854,7.6599731,5.7199707h23.8699951v-8.8300171H80.171051z M91.4410095,79.5491791
				c0,0.2700195-0.2199707,0.5-0.5,0.5h-9.7600098c-0.2799683,0-0.5-0.2299805-0.5-0.5v-5.3400269
				c0-0.2799683,0.2200317-0.5,0.5-0.5h9.7600098c0.2800293,0,0.5,0.2200317,0.5,0.5V79.5491791z"/>
			<polygon class="st1" points="80.3655853,67.4899826 81.9555511,67.9899826 81.2755585,67.4899826 			"/>
			<polygon class="st2" points="50.467308,75.0801544 50.887352,75.3201447 51.0273056,74.1501007 			"/>
			<polygon class="st2" points="52.42733,60.0701485 54.0473251,60.4001045 54.1973495,60.1601143 52.4773178,59.8101387 			"/>
			<path class="st2" d="M48.2873154,74.4001007l0.8900146,0.3099976l2.75-7.9799805
				c0.0100098-0.0100098,0.0200195-0.0200195,0.0200195-0.0299683l-0.8900146-0.3099976c0,0,0,0,0,0.0099487L48.2873154,74.4001007z
				"/>
			<polygon class="st3" points="51.3673325,64.1901398 52.2073593,64.4801178 53.0573349,64.7701569 53.2773056,64.140152 
				51.5873032,63.5601387 			"/>
			<polygon class="st3" points="50.8173447,65.7801056 52.5073471,66.3601227 52.8973007,65.2401276 52.0473251,64.9501495 
				51.2073593,64.6601105 			"/>
			<path class="st2" d="M78.137352,66.6901398v0.0700073c0,0.3999634,0.3200073,0.7199707,0.7199707,0.7199707
				c0.4000244,0,0.7200317-0.3200073,0.710022-0.8099976c-0.0400391-0.3599854-0.3500366-0.6300049-0.710022-0.6300049
				S78.1873398,66.3201447,78.137352,66.6901398z"/>
			<path class="st2" d="M53.3573227,70.3201447h1.8599854l3.5700073-5.8800049
				c0.1199951-0.1900024,0.3599854-0.2800293,0.5800171-0.2200317l17.8900146,5.6100464l2.0700073-1.2400513l-1.6400146-0.5199585
				l-22.5800171-7.0800133l-0.3900146,0.75l2.6300049,0.8200073c0.1500244,0.0499878,0.2700195,0.1599731,0.3200073,0.2999878
				c0.0599976,0.1500244,0.0400391,0.3099976-0.039978,0.4400024L53.3573227,70.3201447z"/>
			<polygon class="st1" points="56.387352,70.3201447 75.4773178,70.3201447 72.7773056,69.4801178 56.8973007,69.4801178 			"/>
			<rect x="121.6973495" y="81.0001373" class="st3" width="2.4499512" height="2.0999756"/>
			<g>
				<path d="M79.7320251,76.6601105c-0.0299683-0.0799561-0.0800171-0.1399536-0.1499634-0.1900024
					c-0.0700073-0.039978-0.1600342-0.0599976-0.2900391-0.0599976h-0.6499634l-0.4200439,1.7900391h0.6500244
					c0.0800171,0,0.1699829-0.0200195,0.2700195-0.0500488c0.0799561-0.0299683,0.1499634-0.0699463,0.2299805-0.1499634
					c0.0800171-0.0700073,0.1499634-0.1500244,0.2000122-0.2600098c0.0599976-0.1099854,0.1099854-0.25,0.1599731-0.4500122
					c0.0300293-0.1199951,0.039978-0.2299805,0.0499878-0.3399658
					C79.7820129,76.8401031,79.7620544,76.7401276,79.7320251,76.6601105z M79.2920227,77.3101349
					c-0.0299683,0.1400146-0.0700073,0.2399902-0.1099854,0.3099976c-0.0300293,0.0599976-0.0700073,0.1099854-0.1199951,0.1300049
					c-0.0400391,0.0299683-0.1099854,0.039978-0.2000122,0.039978h-0.1099854l0.2299805-0.9799805h0.1099854
					c0.1100464,0,0.1900024,0.039978,0.2200317,0.1099854C79.3420105,76.9901276,79.3320618,77.1201324,79.2920227,77.3101349z"/>
				<polygon points="77.5620422,76.7901154 77.5020447,77.0701447 78.1720276,77.0701447 78.0920105,77.4401398 
					77.4120178,77.4401398 77.3320618,77.7901154 78.0820618,77.7901154 77.9920349,78.2001495 76.8020325,78.2001495 
					77.2220154,76.4101105 78.3820496,76.4101105 78.2920227,76.7901154 				"/>
				<polygon points="76.9120178,76.4101105 76.4920349,78.2001495 76.0520325,78.2001495 76.4720154,76.4101105 				"/>
				<polygon points="75.4920349,76.7901154 75.4220276,77.1001129 75.9620056,77.1001129 75.8820496,77.4600983 
					75.3320618,77.4600983 75.1620178,78.2001495 74.7320251,78.2001495 75.1520081,76.4101105 76.2220154,76.4101105 
					76.1320496,76.7901154 				"/>
				<polygon points="74.8320618,76.4101105 74.4120178,78.2001495 73.9820251,78.2001495 74.4020081,76.4101105 				"/>
				<polygon points="74.1820374,76.4101105 74.0820618,76.8501129 73.6420593,76.8501129 73.322052,78.2001495 
					72.8920593,78.2001495 73.2020569,76.8501129 72.7620544,76.8501129 72.86203,76.4101105 				"/>
				<path d="M72.61203,76.6101227c-0.0200195-0.0800171-0.0700073-0.1300049-0.1300049-0.1599731
					c-0.0700073-0.0300293-0.1699829-0.0400391-0.2999878-0.0400391h-0.7200317l-0.4199829,1.7900391h0.4299927l0.1700439-0.7300415
					h0.039978c0.039978,0,0.0700073,0.0100098,0.0999756,0.0400391c0.0200195,0.0199585,0.0300293,0.0700073,0.0400391,0.1399536
					l0.1099854,0.5500488h0.4899902L72.3320618,77.68013c0-0.0300293-0.0100098-0.0700073-0.0300293-0.1099854
					c-0.0200195-0.0499878-0.039978-0.0800171-0.0499878-0.1000366c-0.0200195-0.0199585-0.0499878-0.039978-0.1000366-0.0599976
					c0.0700073-0.0199585,0.1300049-0.0499878,0.1700439-0.0700073c0.0700073-0.0499878,0.1300049-0.1099854,0.1799927-0.1799927
					s0.0899658-0.1599731,0.1099854-0.2600098C72.6320496,76.7901154,72.6420593,76.6901398,72.61203,76.6101227z
					 M72.11203,77.0501251c-0.0299683,0.0300293-0.0499878,0.0499878-0.0800171,0.0599976
					c-0.0599976,0.0100098-0.0999756,0.0200195-0.1199951,0.0200195h-0.1900024l0.0900269-0.3599854h0.1900024
					c0.0800171,0,0.1300049,0.0099487,0.1499634,0.039978c0.0200195,0.0299683,0.0300293,0.0800171,0.0100098,0.1400146
					C72.1520081,76.9901276,72.1420593,77.0201569,72.11203,77.0501251z"/>
				<polygon points="70.3820496,76.7901154 70.3120422,77.0701447 70.9920349,77.0701447 70.9020081,77.4401398 
					70.2220154,77.4401398 70.1420593,77.7901154 70.8920593,77.7901154 70.8020325,78.2001495 69.61203,78.2001495 
					70.0320129,76.4101105 71.1920471,76.4101105 71.11203,76.7901154 				"/>
				<path d="M69.1920471,77.4600983l0.3499756,0.1500244c-0.0599976,0.1400146-0.1300049,0.25-0.2000122,0.3400269
					c-0.0799561,0.0899658-0.1599731,0.1599731-0.2599487,0.2099609c-0.0900269,0.0400391-0.2000122,0.0700073-0.3200073,0.0700073
					c-0.1600342,0-0.2700195-0.0299683-0.3600464-0.0899658c-0.0799561-0.0500488-0.1399536-0.1500244-0.1799927-0.3000488
					c-0.039978-0.1399536-0.0299683-0.3199463,0.0200195-0.539978c0.0700073-0.2999878,0.1900024-0.5299683,0.3499756-0.6900024
					c0.1600342-0.1500244,0.3500366-0.2299805,0.5800171-0.2299805c0.1799927,0,0.3099976,0.039978,0.3900146,0.1300049
					c0.0800171,0.0899658,0.1199951,0.2299805,0.1199951,0.4199829l-0.4100342,0.1099854
					c0-0.0499878,0-0.0899658-0.0099487-0.1199951c-0.0100098-0.039978-0.0400391-0.0700073-0.0700073-0.0999756
					c-0.0300293-0.0200195-0.0599976-0.0300293-0.1099854-0.0300293c-0.1000366,0-0.1800537,0.0499878-0.2600098,0.1500244
					c-0.0599976,0.0800171-0.1000366,0.1900024-0.1400146,0.3499756c-0.0499878,0.2000122-0.0499878,0.3400269-0.0200195,0.4100342
					c0.0300293,0.0700073,0.0800171,0.1099854,0.1700439,0.1099854c0.0799561,0,0.1499634-0.0300293,0.2099609-0.0900269
					S69.1520081,77.5801544,69.1920471,77.4600983z"/>
			</g>
			<rect x="81.67733" y="74.7100983" class="st1" width="3.8800049" height="4.3400269"/>
			<rect x="86.5573349" y="74.7100983" class="st1" width="3.8800049" height="4.3400269"/>
			<path class="st1" d="M53.0773544,72.2001495h23.2299805l3.0599976-1.8400269
				c0.1599731-0.0999756,0.3400269-0.1500244,0.5200195-0.1500244h13.1199951v-2.7199707h-2.0599976l-0.6400146,2.2000122
				c-0.0700073,0.2199707-0.2600098,0.3599854-0.4799805,0.3599854h-3.0200195
				c-0.1500244,0-0.2999878-0.0700073-0.4000244-0.2000122c-0.0899658-0.1199951-0.1199951-0.289978-0.0799561-0.4400024
				l0.4299927-1.4599609c-0.0300293-0.0100098-0.0599976-0.0100098-0.0900269-0.0200195
				c-0.2000122-0.0599976-0.3399658-0.2399902-0.3499756-0.4400024h-4.1900024l1.1400146,0.8400269h0.5999756
				c0.2799683,0,0.5,0.2299805,0.5,0.5v0.2599487c0,0.2800293-0.2200317,0.5-0.5,0.5h-3.8400269l-3.1799927,1.9200439
				c-0.0799561,0.0499878-0.1699829,0.0700073-0.2600098,0.0700073H53.1573105L53.0773544,72.2001495z"/>
			<polygon class="st1" points="87.4773178,69.0501251 89.4473495,69.0501251 90.67733,64.8601227 88.7073593,64.8601227 			"/>
			<rect x="88.0273056" y="62.7601509" class="st4" width="3.6700439" height="1.0999756"/>
			<rect x="88.0273056" y="58.5701485" class="st4" width="3.6700439" height="3.1900024"/>
			<path class="st5" d="M95.0073471,61.1701241v3.1899986h12.7999878l5.960022,7.2000122l7.3499756,1.0599976
				c1.2399902,0.1799927,2.2999878,0.8300171,3.0299683,1.75v-1.289978c0-1.8300171-1.3699951-3.4000244-3.1699829-3.6700439
				l-7.3499756-1.0499878c-0.25-0.0299683-0.4700317-0.1599731-0.6300049-0.3499756l-5.6600342-6.840023H95.0073471z"/>
		</g>
		<g class="st6">
			<path class="st1" d="M95.0073471,64.3601227v2.1300049c0,0.0100098,0,0.0100098,0,0.0100098v4.7099609
				c0,0.0100098,0,0.0100098,0,0.0200195v9.8099976h10.8899536c0.4900513-3.9299927,3.8600464-6.9899902,7.9300537-6.9899902
				c0.2799683,0,0.5699463,0.0100098,0.7699585,0.039978c0.2000122,0.0200195,0.4100342,0.0500488,0.6199951,0.0900269
				c0.1300049,0.0200195,0.2600098,0.0499878,0.4000244,0.0800171c0.0900269,0.0100098,0.1900024,0.039978,0.289978,0.0700073
				c0.1600342,0.039978,0.3200073,0.0799561,0.4700317,0.1399536c0.6199951,0.2000122,1.2199707,0.4899902,1.789978,0.8699951
				l0.3099976,0.210022c0.1199951,0.0800171,0.25,0.1699829,0.2999878,0.2200317
				c0.2600098,0.1999512,0.5,0.4199829,0.6700439,0.5999756c0.1900024,0.1799927,0.3699951,0.3699951,0.5499878,0.5899658
				c0.1300049,0.1700439,0.2700195,0.3500366,0.3699951,0.4900513c0.0700073,0.0999756,0.1400146,0.2099609,0.210022,0.3200073
				c0.0699463,0.1099854,0.1399536,0.2299805,0.1999512,0.3399658s0.1199951,0.210022,0.1600342,0.2800293
				c0.0999756,0.2099609,0.2000122,0.4099731,0.2799683,0.6099854h2.9299927v-4.6300049
				c-0.7299805-0.9199829-1.789978-1.5700073-3.0299683-1.75l-7.3499756-1.0599976l-5.960022-7.2000122H95.0073471z"/>
		</g>
		<g>
			<g>
				<path class="st0" d="M58.6778603,83.6540222c0,1.539978,1.2600098,2.789978,2.7999878,2.789978
					s2.7999916-1.25,2.7999916-2.789978c0-1.5499878-1.2600136-2.7999878-2.7999916-2.7999878
					S58.6778603,82.1040344,58.6778603,83.6540222z"/>
			</g>
			<g>
				<path class="st7" d="M59.5213242,82.2756653c0,0.5936737,0.4857216,1.075531,1.0793915,1.075531
					c0.593647,0,1.0793686-0.4818573,1.0793686-1.075531c0-0.5975037-0.4857216-1.0793686-1.0793686-1.0793686
					C60.0070457,81.1962967,59.5213242,81.6781616,59.5213242,82.2756653z"/>
			</g>
		</g>
		<g>
			<g>
				<path class="st0" d="M111.0295105,83.6540222c0,1.539978,1.2600098,2.789978,2.7999878,2.789978
					s2.7999878-1.25,2.7999878-2.789978c0-1.5499878-1.2600098-2.7999878-2.7999878-2.7999878
					S111.0295105,82.1040344,111.0295105,83.6540222z"/>
			</g>
			<g>
				<path class="st7" d="M111.8729706,82.2756653c0,0.5936737,0.4857254,1.075531,1.0793915,1.075531
					c0.5936508,0,1.0793686-0.4818573,1.0793686-1.075531c0-0.5975037-0.4857178-1.0793686-1.0793686-1.0793686
					C112.358696,81.1962967,111.8729706,81.6781616,111.8729706,82.2756653z"/>
			</g>
		</g>
		<g>
			<polygon class="st8" points="106.2674561,66.7623749 98.9487762,66.7623749 98.9487762,72.0167389 110.1740494,72.0167389 			"/>
		</g>
	</g>
</g>
</svg>
