<?xml version="1.0" encoding="utf-8"?>
<!-- Generator: Adobe Illustrator 27.6.1, SVG Export Plug-In . SVG Version: 6.00 Build 0)  -->
<svg version="1.1" id="Layer_1" xmlns="http://www.w3.org/2000/svg" xmlns:xlink="http://www.w3.org/1999/xlink" x="0px" y="0px"
	 viewBox="0 0 172.8999939 90" style="enable-background:new 0 0 172.8999939 90;" xml:space="preserve">
<style type="text/css">
	.st0{fill:#FFFFFF;}
	.st1{fill:#CCCCCC;}
	.st2{fill:#797979;}
	.st3{fill:#F79420;}
	.st4{fill:#999999;}
	.st5{fill:#666666;}
	.st6{fill:#0099FF;}
	.st7{fill:#808080;}
	.st8{fill:#C1272D;}
</style>
<g>
	<g>
		<g>
			<g>
				<rect x="75.8482742" y="60.0700073" class="st0" width="21.210022" height="13.4511108"/>
			</g>
			<g>
				<rect x="75.8482742" y="73.5211182" class="st1" width="21.210022" height="3.9560547"/>
			</g>
			<g>
				<rect x="76.3480301" y="74.0213623" class="st2" width="20.2104492" height="2.9560547"/>
			</g>
			<g>
				<rect x="75.8482742" y="77.4771729" class="st0" width="21.210022" height="10.5228271"/>
			</g>
		</g>
		<g>
			<rect x="91.2083206" y="52.9500122" class="st3" width="7.5199585" height="3.460022"/>
		</g>
		<g>
			<rect x="82.6983109" y="52.9500122" class="st3" width="7.5100098" height="3.460022"/>
		</g>
		<g>
			<rect x="74.1883011" y="52.9500122" class="st3" width="7.5100098" height="3.460022"/>
		</g>
		<g>
			<path class="st1" d="M75.8482742,51.9500122h1.1200562v-4.0900269c0-0.2799683,0.2199707-0.5,0.5-0.5h3.5899658
				c0.1000366,0,0.2000122,0.0300293,0.2800293,0.0800171c0.1300049,0.0900269,0.2199707,0.2399902,0.2199707,0.4199829v4.0900269
				h9.789978v-4.0900269c0-0.2799683,0.2300415-0.5,0.5-0.5h3.5900269c0.2800293,0,0.5,0.2200317,0.5,0.5v4.0900269h1.1199951
				V37.5540771h-5.1499634v8.1759033c0,0.3400269-0.1800537,0.6500244-0.4400024,0.8300171
				c-0.1600342,0.1099854-0.3500366,0.1699829-0.5599976,0.1699829h-8.9100342c-0.5499878,0-1-0.4499512-1-1v-8.1759033h-5.1500244
				V51.9500122z"/>
		</g>
		<g>
			<rect x="91.9083328" y="34.0599976" class="st4" width="5.1499634" height="3.4899902"/>
		</g>
		<g>
			<rect x="75.8482742" y="34.0599976" class="st4" width="5.1500244" height="3.4899902"/>
		</g>
		<rect x="79.3783035" y="15.9700317" class="st5" width="4.9099731" height="1.2699585"/>
		<rect x="88.6182938" y="15.9700317" class="st5" width="4.9199829" height="1.2699585"/>
		<rect x="84.6682816" y="39.0599976" class="st6" width="0.5400391" height="2.1699829"/>
		<rect x="85.7083206" y="39.0599976" class="st6" width="0.5" height="2.1699829"/>
		<rect x="86.7083206" y="39.0599976" class="st6" width="0.4899902" height="2.1699829"/>
		<rect x="87.6983109" y="39.0599976" class="st6" width="0.539978" height="2.1699829"/>
		<rect x="84.6583328" y="41.7299805" class="st6" width="3.5899658" height="2.5"/>
		<rect x="89.2482986" y="18.2399902" class="st7" width="0.6600342" height="26.4899902"/>
		<rect x="82.9982986" y="18.2399902" class="st7" width="0.6600342" height="26.4899902"/>
		<rect x="84.6583328" y="18.7399902" class="st6" width="1.5499878" height="19.8200073"/>
		<rect x="86.7083206" y="18.7399902" class="st6" width="1.539978" height="19.8200073"/>
		<rect x="85.2882767" y="15.7000122" class="st6" width="0.9200439" height="1.539978"/>
		<rect x="86.7083206" y="15.7000122" class="st6" width="0.9099731" height="1.539978"/>
		<polygon class="st6" points="85.4182816,14.8699951 85.7882767,13.7399902 87.1182938,13.7399902 87.4882889,14.8699951 		"/>
		<rect x="77.9683304" y="48.3599854" class="st4" width="2.5899658" height="3.5900269"/>
		<rect x="92.3482742" y="48.3599854" class="st4" width="2.5900269" height="3.5900269"/>
		<rect x="75.8482742" y="18.7700195" class="st1" width="5.1500244" height="15.289978"/>
		<rect x="91.9083328" y="18.7700195" class="st1" width="5.1499634" height="15.289978"/>
		<path class="st4" d="M75.8482742,17.7700195v-1.2299805h2.5300293v1.1999512c0,0.0100098,0,0.0200195,0.0100098,0.0300293
			H75.8482742z"/>
		<path class="st4" d="M94.5283279,17.7700195c0.0099487-0.0100098,0.0099487-0.0200195,0.0099487-0.0300293v-1.1999512h2.5200195
			v1.2299805H94.5283279z"/>
		<path d="M72.7450104,70.3200073v12.3999634h1.0999756V89c0,0.5499878,0.4500122,1,1,1h23.210022c0.5499878,0,1-0.4500122,1-1
			v-6.2800293h1.0999756V70.3200073h-1.0999756V57.4099731h0.1699829c0.2700195,0,0.5-0.2299805,0.5-0.5v-4.4599609
			c0-0.2700195-0.2299805-0.5-0.5-0.5h-0.1699829V29.5499878h1.0999756V17.1599731h-1.0999756V15.539978
			c0-0.5499878-0.4500122-1-1-1h-8.8000488l-0.1799927-0.6499634h-0.8200073l-0.25-0.75
			c-0.0499878-0.2399902-0.2599487-0.4000244-0.4899902-0.4000244H85.384964c-0.2299805,0-0.4299927,0.1600342-0.4899902,0.4000244
			l-0.25,0.75h-0.7299805l-0.1699829,0.6499634H74.844986c-0.5499878,0-1,0.4500122-1,1v1.6199951h-1.0999756v12.3900146h1.0999756
			v22.4000244h-0.1599731c-0.2800293,0-0.5,0.2299805-0.5,0.5v4.4599609c0,0.2700195,0.2199707,0.5,0.5,0.5h0.1599731v12.9100342
			H72.7450104z M97.0550079,88H75.844986V60.0700073h21.210022V88z M97.0550079,58.0700073H75.844986v-0.6600342h21.210022
			V58.0700073z M82.6949615,56.4099731v-3.4599609h7.5100098v3.4599609H82.6949615z M98.7249908,52.9500122v3.4599609h-7.5200195
			v-3.4599609H98.7249908z M92.344986,51.9500122v-3.5900269h2.5900269v3.5900269H92.344986z M94.5349884,17.7399902V16.539978
			h2.5200195v1.2300415h-2.5300293C94.5349884,17.7600098,94.5349884,17.75,94.5349884,17.7399902z M88.6150055,17.2399902
			v-1.2700195h4.9199829v1.2700195H88.6150055z M89.9049835,18.2399902v26.4899902h-0.6599731V18.2399902H89.9049835z
			 M84.6549835,38.5599976V18.7399902h1.5499878v19.8200073H84.6549835z M86.2049713,39.0599976v2.1699829h-0.5v-2.1699829
			H86.2049713z M85.2049713,39.0599976v2.1699829h-0.539978v-2.1699829H85.2049713z M85.2849884,17.2399902v-1.539978h0.9199829
			v1.539978H85.2849884z M84.6549835,41.7299805h3.5900269v2.5h-3.5900269V41.7299805z M86.7049713,41.2299805v-2.1699829h0.4899902
			v2.1699829H86.7049713z M87.6949615,41.2299805v-2.1699829h0.5400391v2.1699829H87.6949615z M86.7049713,38.5599976V18.7399902
			h1.5400391v19.8200073H86.7049713z M86.7049713,17.2399902v-1.539978h0.9100342v1.539978H86.7049713z M85.7849884,13.7399902
			h1.3300171l0.0499878,0.1500244l0.2600098,0.7999878l0.0599976,0.1799927h-2.0700073l0.0599976-0.1799927l0.2600098-0.7999878
			L85.7849884,13.7399902z M79.3749542,15.9699707h4.9100342v1.2700195h-4.9100342V15.9699707z M83.6549835,18.2399902v26.4899902
			h-0.6599731V18.2399902H83.6549835z M75.844986,16.539978h2.5299683v1.2000122c0,0.0100098,0,0.0200195,0.0100098,0.0300293
			h-2.539978V16.539978z M75.844986,18.7700195h5.1500244v26.9599609c0,0.5499878,0.4499512,1,1,1h8.9099731
			c0.210022,0,0.4000244-0.0599976,0.5599976-0.1699829c0.2600098-0.1799927,0.4400024-0.4899902,0.4400024-0.8300171V18.7700195
			h5.1500244v33.1799927h-1.1199951v-4.0900269c0-0.2799683-0.2200317-0.5-0.5-0.5H91.844986c-0.2700195,0-0.5,0.2200317-0.5,0.5
			v4.0900269h-9.789978v-4.0900269c0-0.1799927-0.0900269-0.3300171-0.2200317-0.4199829
			c-0.0800171-0.0499878-0.1799927-0.0800171-0.2799683-0.0800171h-3.5900269c-0.2799683,0-0.5,0.2200317-0.5,0.5v4.0900269
			H75.844986V18.7700195z M80.5550079,48.3599854v3.5900269h-2.5900269v-3.5900269H80.5550079z M74.1850128,52.9500122h7.5099487
			v3.4599609h-7.5099487V52.9500122z"/>
		<rect x="75.8482742" y="57.4100342" class="st1" width="21.210022" height="0.6599731"/>
	</g>
	<g>
		
			<rect x="94.568634" y="16.5400391" transform="matrix(-1 -1.224647e-16 1.224647e-16 -1 190.4627838 33.491642)" class="st8" width="1.3255149" height="0.4115656"/>
		
			<rect x="77.0124817" y="16.5400391" transform="matrix(-1 -1.224647e-16 1.224647e-16 -1 155.3504791 33.491642)" class="st8" width="1.3255149" height="0.4115656"/>
	</g>
</g>
</svg>
