<?xml version="1.0" encoding="utf-8"?>
<!-- Generator: Adobe Illustrator 27.6.1, SVG Export Plug-In . SVG Version: 6.00 Build 0)  -->
<svg version="1.1" id="Layer_1" xmlns="http://www.w3.org/2000/svg" xmlns:xlink="http://www.w3.org/1999/xlink" x="0px" y="0px"
	 viewBox="0 0 172.8999939 90" style="enable-background:new 0 0 172.8999939 90;" xml:space="preserve">
<style type="text/css">
	.st0{fill:#888888;}
	.st1{fill:#CCCCCC;}
	.st2{fill:#0099FF;}
	.st3{fill:#666666;}
	.st4{fill:#F79420;}
	.st5{fill:#FFFFFF;}
	.st6{opacity:0.97;}
	.st7{fill:#BABABA;}
	.st8{fill:#797979;}
</style>
<g>
	<path class="st0" d="M126.1455536,87.7115479h-3.8011475v-0.803833H48.0243988
		c-0.701355,0-1.2699585,0.5685425-1.2699585,1.2699585v0.5523682C46.7544403,89.4313965,47.3230438,90,48.0243988,90h74.3200073
		v-1.0184937h3.8011475V87.7115479z"/>
	<g>
		<g>
			<path d="M125.434433,74.4799728c0.0299683-0.0800171,0.039978-0.1799927,0.0100098-0.2800293l-2.8200073-8.1599731
				c0.0299683-0.0599976,0.039978-0.1199951,0.0100098-0.1900024l-0.5400391-1.5900269l-0.3899536-1.0999756
				c-0.0200195-0.0700073-0.0599976-0.1199951-0.1200562-0.1500244c-0.0599976-0.0299683-0.1299438-0.0299683-0.1899414-0.0099487
				l-2.1700439,0.75c-0.1300049,0.039978-0.2000122,0.1900024-0.1499634,0.3199463l0.3800049,1.1000366l0.5499878,1.5899658
				c0.0299683,0.1000366,0.1300049,0.1700439,0.2399902,0.1700439h0.0100098c0.0100098,0.0100098,0,0.0299683,0.0100098,0.039978
				l0.1900024,0.5599976c-0.0900269-0.0299683-0.1700439-0.0499878-0.2700195-0.0499878h-0.9700317l-2.5699463-4.210022
				l2.4099731-0.7600098c0.0800171-0.0199585,0.1500244-0.0799561,0.210022-0.1399536
				c0.25-0.1300049,0.3399658-0.4299927,0.2099609-0.6700439l-0.2299805-0.4599609l1.7799683-0.3699951
				c0.1400146-0.0300293,0.25-0.1400146,0.2800293-0.2700195l0.3800049,0.2600098l-0.4199829,1.0599976
				c-0.0700073,0.1699829-0.0100098,0.3699951,0.1499634,0.4599609c0.0599976,0.0400391,0.1300049,0.0600586,0.1900024,0.0600586
				c0.1099854,0,0.2200317-0.0500488,0.2999878-0.1500244l1.1100464-1.3900146
				c0.0599976-0.0800171,0.0899658-0.1900024,0.0699463-0.289978c-0.0099487-0.1099854-0.0699463-0.2000122-0.1599731-0.2600098
				l-1.8400269-1.1900024V59.139946c-0.0499878-0.1999512-0.2399902-0.3299561-0.4499512-0.289978l-1.4100342,0.289978
				c-0.039978-0.1199951-0.1699829-0.1999512-0.2999878-0.1699829l-24.0499878,6.2800293
				c-0.2299805-0.1600342-0.5200195-0.2600098-0.8300171-0.2600098c-0.4400024,0-0.8300171,0.2000122-1.0999756,0.5h-6.8500366
				c-0.0199585,0-0.039978,0.0100098-0.0499878,0.0100098l-0.2600098-0.8700562
				c0.0499878-0.0799561,0.0900269-0.1699829,0.0900269-0.2699585v-6.2900391c0-0.2699585-0.2200317-0.5-0.5-0.5h-4.6699829
				c-0.2800293,0-0.5,0.2300415-0.5,0.5v6.2900391c0,0.2799683,0.2199707,0.5,0.5,0.5h0.4699707l0.1900024,0.6300049H79.894455
				v-5.3200073c0-0.5499878-0.4400024-1-1-1H65.0944061c-0.2999878,0-0.5799561,0.1300049-0.7699585,0.3599854l-5.710022,6.9100342
				L51.644455,67.429985c-2.7900391,0.4099731-4.8900146,2.8399658-4.8900146,5.6499634V84.099968c0,0.5499878,0.4500122,1,1,1
				h4.4500122c0.25,0,0.4599609-0.0999756,0.6399536-0.25c0.5599976,2.9299927,3.1300049,5.1500244,6.2300415,5.1500244
				c3.5,0,6.3499756-2.8500366,6.3499756-6.3500366c0-0.3099976-0.0299683-0.6199951-0.0800171-0.9199829
				c0.1799927,0.1900024,0.4400024,0.3099976,0.7200317,0.3099976h38.4899902c0.039978,0,0.0700073-0.0100098,0.1099854-0.0200195
				c0.0700073-0.0100098,0.1300049-0.0199585,0.2000122-0.039978c0.0599976-0.0200195,0.1099854-0.039978,0.1599731-0.0700073
				c0.0400391-0.0200195,0.0700073-0.0300293,0.1100464-0.0499878c-0.0400391,0.2600098-0.0599976,0.5199585-0.0599976,0.789978
				c0,3.5,2.8399658,6.3500366,6.3499756,6.3500366s6.3499756-2.8500366,6.3499756-6.3500366
				c0-0.2700195-0.0299683-0.539978-0.0599976-0.7999878c0.0300293,0.0200195,0.0700073,0.039978,0.1000366,0.0599976
				c0.039978,0.0200195,0.0700073,0.039978,0.1099854,0.0599976c0.1199951,0.039978,0.2399902,0.0700073,0.3699951,0.0700073
				h2.9500122c0.1900024,0,0.3699951-0.0700073,0.5299683-0.1799927c0.0599976-0.0300293,0.1100464-0.0700073,0.1600342-0.1099854
				c0.0200195-0.0200195,0.039978-0.0200195,0.0599976-0.0400391c0.0200195-0.0299683,0.0200195-0.0599976,0.039978-0.0800171
				c0.0599976-0.0799561,0.1100464-0.1599731,0.1400146-0.25c0.0100098-0.0199585,0.0200195-0.0299683,0.0200195-0.0499878
				c0.0299683-0.0899658,0.0499878-0.1900024,0.0499878-0.289978v-4.7200317c0-0.039978,0-0.0799561-0.0100098-0.1199951
				l-0.0899658-0.7999878l1.2299805-0.7000122c0.0700073-0.039978,0.1199951-0.0899658,0.1599731-0.1499634
				c0.0300293,0,0.0599976,0,0.0800171-0.0100098l1.5900269-0.5499878c0.0999756-0.0300293,0.1799927-0.1000366,0.2199707-0.1900024
				c0.039978-0.0900269,0.0499878-0.2000122,0.0200195-0.2900391L125.434433,74.4799728z M90.9444427,67.9899826l0.6799927-0.5
				h0.9099731L90.9444427,67.9899826z M95.5044403,66.6099777c0,0,0,0,0-0.0100098
				c0-0.039978,0.0100098-0.0999756,0.0100098-0.1300049c0-0.2999878-0.0900269-0.5700073-0.2400513-0.7999878l18.4500122-4.8200073
				l-18.1199951,5.6799927C95.5644379,66.5399704,95.5444183,66.5799484,95.5044403,66.6099777z M114.7844086,67.4799728h-8.2799683
				l6.9599609-2.1799927L114.7844086,67.4799728z M97.4244232,70.3199387l2.7000122-0.8399658h15.8800049l0.5100098,0.8399658
				H97.4244232z M121.5843964,71.7599411l-0.1699829-1.4599609l0.9299927,2.7000122L121.5843964,71.7599411z"/>
			<path class="st1" d="M97.0726395,76.8101349c-0.0199585-0.0300293-0.0699463-0.039978-0.1499634-0.039978h-0.1900024
				l-0.0900269,0.3599854h0.1900024c0.0200195,0,0.0599976-0.0100098,0.1199951-0.0200195
				c0.0300293-0.0100098,0.0500488-0.0299683,0.0800171-0.0599976c0.0300293-0.0299683,0.039978-0.0599976,0.0499878-0.0999756
				C97.1026688,76.890152,97.092659,76.8401031,97.0726395,76.8101349z M97.0726395,76.8101349
				c-0.0199585-0.0300293-0.0699463-0.039978-0.1499634-0.039978h-0.1900024l-0.0900269,0.3599854h0.1900024
				c0.0200195,0,0.0599976-0.0100098,0.1199951-0.0200195c0.0300293-0.0100098,0.0500488-0.0299683,0.0800171-0.0599976
				c0.0300293-0.0299683,0.039978-0.0599976,0.0499878-0.0999756C97.1026688,76.890152,97.092659,76.8401031,97.0726395,76.8101349z
				 M97.0726395,76.8101349c-0.0199585-0.0300293-0.0699463-0.039978-0.1499634-0.039978h-0.1900024l-0.0900269,0.3599854h0.1900024
				c0.0200195,0,0.0599976-0.0100098,0.1199951-0.0200195c0.0300293-0.0100098,0.0500488-0.0299683,0.0800171-0.0599976
				c0.0300293-0.0299683,0.039978-0.0599976,0.0499878-0.0999756C97.1026688,76.890152,97.092659,76.8401031,97.0726395,76.8101349z
				 M97.0726395,76.8101349c-0.0199585-0.0300293-0.0699463-0.039978-0.1499634-0.039978h-0.1900024l-0.0900269,0.3599854h0.1900024
				c0.0200195,0,0.0599976-0.0100098,0.1199951-0.0200195c0.0300293-0.0100098,0.0500488-0.0299683,0.0800171-0.0599976
				c0.0300293-0.0299683,0.039978-0.0599976,0.0499878-0.0999756C97.1026688,76.890152,97.092659,76.8401031,97.0726395,76.8101349z
				 M97.0726395,76.8101349c-0.0199585-0.0300293-0.0699463-0.039978-0.1499634-0.039978h-0.1900024l-0.0900269,0.3599854h0.1900024
				c0.0200195,0,0.0599976-0.0100098,0.1199951-0.0200195c0.0300293-0.0100098,0.0500488-0.0299683,0.0800171-0.0599976
				c0.0300293-0.0299683,0.039978-0.0599976,0.0499878-0.0999756C97.1026688,76.890152,97.092659,76.8401031,97.0726395,76.8101349z
				 M97.0726395,76.8101349c-0.0199585-0.0300293-0.0699463-0.039978-0.1499634-0.039978h-0.1900024l-0.0900269,0.3599854h0.1900024
				c0.0200195,0,0.0599976-0.0100098,0.1199951-0.0200195c0.0300293-0.0100098,0.0500488-0.0299683,0.0800171-0.0599976
				c0.0300293-0.0299683,0.039978-0.0599976,0.0499878-0.0999756C97.1026688,76.890152,97.092659,76.8401031,97.0726395,76.8101349z
				 M97.0726395,76.8101349c-0.0199585-0.0300293-0.0699463-0.039978-0.1499634-0.039978h-0.1900024l-0.0900269,0.3599854h0.1900024
				c0.0200195,0,0.0599976-0.0100098,0.1199951-0.0200195c0.0300293-0.0100098,0.0500488-0.0299683,0.0800171-0.0599976
				c0.0300293-0.0299683,0.039978-0.0599976,0.0499878-0.0999756C97.1026688,76.890152,97.092659,76.8401031,97.0726395,76.8101349z
				 M97.0726395,76.8101349c-0.0199585-0.0300293-0.0699463-0.039978-0.1499634-0.039978h-0.1900024l-0.0900269,0.3599854h0.1900024
				c0.0200195,0,0.0599976-0.0100098,0.1199951-0.0200195c0.0300293-0.0100098,0.0500488-0.0299683,0.0800171-0.0599976
				c0.0300293-0.0299683,0.039978-0.0599976,0.0499878-0.0999756C97.1026688,76.890152,97.092659,76.8401031,97.0726395,76.8101349z
				 M97.0726395,76.8101349c-0.0199585-0.0300293-0.0699463-0.039978-0.1499634-0.039978h-0.1900024l-0.0900269,0.3599854h0.1900024
				c0.0200195,0,0.0599976-0.0100098,0.1199951-0.0200195c0.0300293-0.0100098,0.0500488-0.0299683,0.0800171-0.0599976
				c0.0300293-0.0299683,0.039978-0.0599976,0.0499878-0.0999756C97.1026688,76.890152,97.092659,76.8401031,97.0726395,76.8101349z
				 M104.0126419,76.8101349h-0.1099854l-0.2299805,0.9799805h0.1099854c0.0900269,0,0.1599731-0.0100098,0.2000122-0.039978
				c0.0499878-0.0200195,0.0899658-0.0700073,0.1199951-0.1300049c0.039978-0.0700073,0.0800171-0.1699829,0.1099854-0.3099976
				c0.0400391-0.1900024,0.0499878-0.3200073,0.0200195-0.3900146
				C104.2026443,76.8501129,104.1226883,76.8101349,104.0126419,76.8101349z M96.9226761,76.7701569h-0.1900024
				l-0.0900269,0.3599854h0.1900024c0.0200195,0,0.0599976-0.0100098,0.1199951-0.0200195
				c0.0300293-0.0100098,0.0500488-0.0299683,0.0800171-0.0599976c0.0300293-0.0299683,0.039978-0.0599976,0.0499878-0.0999756
				c0.0200195-0.0599976,0.0100098-0.1100464-0.0100098-0.1400146
				C97.052681,76.7801056,97.0026932,76.7701569,96.9226761,76.7701569z M119.2926712,74.2001495H96.3126907
				c-0.1800537,0-0.3600464-0.0500488-0.5200195-0.1400146l-3.0599976-1.8500366H79.8926468v8.8300171h23.8699951
				c0.9900513-3.3599854,4.0800171-5.7199707,7.6600342-5.7199707s6.6699829,2.3599854,7.6499634,5.7199707h1.0400391
				L119.2926712,74.2001495z M92.2226639,79.5501251c0,0.2700195-0.2199707,0.5-0.5,0.5h-9.7600098
				c-0.2799683,0-0.5-0.2299805-0.5-0.5v-5.3400269c0-0.2799683,0.2200317-0.5,0.5-0.5h9.7600098c0.2800293,0,0.5,0.2200317,0.5,0.5
				V79.5501251z M94.2626419,77.9501495c-0.0799561,0.0899658-0.1599731,0.1599731-0.2599487,0.2099609
				c-0.0900269,0.0400391-0.2000122,0.0700073-0.3200073,0.0700073c-0.1600342,0-0.2700195-0.0299683-0.3600464-0.0899658
				c-0.0799561-0.0500488-0.1399536-0.1500244-0.1799927-0.3000488c-0.039978-0.1399536-0.0299683-0.3199463,0.0200195-0.539978
				c0.0700073-0.2999878,0.1900024-0.5299683,0.3499756-0.6900024c0.1600342-0.1500244,0.3500366-0.2299805,0.5800171-0.2299805
				c0.1799927,0,0.3099976,0.039978,0.3900146,0.1300049c0.0800171,0.0899658,0.1199951,0.2299805,0.1199951,0.4199829
				l-0.4100342,0.1099854c0-0.0499878,0-0.0899658-0.0099487-0.1199951
				c-0.0100098-0.039978-0.0400391-0.0700073-0.0700073-0.0999756c-0.0300293-0.0200195-0.0599976-0.0300293-0.1099854-0.0300293
				c-0.1000366,0-0.1800537,0.0499878-0.2600098,0.1500244c-0.0599976,0.0800171-0.1000366,0.1900024-0.1400146,0.3499756
				c-0.0499878,0.2000122-0.0499878,0.3400269-0.0200195,0.4100342c0.0300293,0.0700073,0.0800171,0.1099854,0.1700439,0.1099854
				c0.0799561,0,0.1499634-0.0300293,0.2099609-0.0900269s0.1099854-0.1399536,0.1500244-0.2600098l0.3499756,0.1500244
				C94.4026566,77.7501373,94.3326492,77.8601227,94.2626419,77.9501495z M95.8226395,77.4401398h-0.6799927l-0.0799561,0.3499756
				h0.75l-0.0900269,0.4100342h-1.1900024l0.4199829-1.7900391h1.1600342l-0.0800171,0.3800049H95.302681l-0.0700073,0.2800293
				h0.6799927L95.8226395,77.4401398z M97.5326614,76.9001007c-0.0200195,0.1000366-0.0599976,0.1900024-0.1099854,0.2600098
				s-0.1099854,0.1300049-0.1799927,0.1799927c-0.0400391,0.0200195-0.1000366,0.0500488-0.1700439,0.0700073
				c0.0500488,0.0200195,0.0800171,0.0400391,0.1000366,0.0599976c0.0100098,0.0200195,0.0299683,0.0500488,0.0499878,0.1000366
				c0.0200195,0.039978,0.0300293,0.0799561,0.0300293,0.1099854l0.0899658,0.5200195h-0.4899902l-0.1099854-0.5500488
				c-0.0100098-0.0699463-0.0200195-0.1199951-0.0400391-0.1399536c-0.0299683-0.0300293-0.0599976-0.0400391-0.0999756-0.0400391
				h-0.039978l-0.1700439,0.7300415h-0.4299927l0.4199829-1.7900391h0.7200317c0.1300049,0,0.2299805,0.0100098,0.2999878,0.0400391
				c0.0599976,0.0299683,0.1099854,0.0799561,0.1300049,0.1599731
				C97.5626907,76.6901398,97.552681,76.7901154,97.5326614,76.9001007z M98.2426834,78.2001495h-0.4299927l0.3099976-1.3500366
				h-0.4400024l0.0999756-0.4400024h1.3200073l-0.0999756,0.4400024h-0.4400024L98.2426834,78.2001495z M98.9026566,78.2001495
				l0.4199829-1.7900391h0.4300537l-0.4200439,1.7900391H98.9026566z M100.802681,77.4600983h-0.5499878l-0.1700439,0.7400513
				h-0.4299927l0.4199829-1.7900391h1.0700073l-0.0899658,0.3800049h-0.6400146l-0.0700073,0.3099976h0.539978
				L100.802681,77.4600983z M100.9726639,78.2001495l0.4199829-1.7900391h0.4400024l-0.4199829,1.7900391H100.9726639z
				 M103.0126419,77.4401398h-0.6799927l-0.0799561,0.3499756h0.75l-0.0900269,0.4100342h-1.1900024l0.4199829-1.7900391h1.1600342
				l-0.0900269,0.3800049h-0.7299805l-0.0599976,0.2800293h0.6699829L103.0126419,77.4401398z M104.6526566,77.2901154
				c-0.0499878,0.2000122-0.0999756,0.3400269-0.1599731,0.4500122c-0.0500488,0.1099854-0.1199951,0.1900024-0.2000122,0.2600098
				c-0.0800171,0.0800171-0.1500244,0.1199951-0.2299805,0.1499634c-0.1000366,0.0300293-0.1900024,0.0500488-0.2700195,0.0500488
				h-0.6500244l0.4200439-1.7900391h0.6499634c0.1300049,0,0.2200317,0.0200195,0.2900391,0.0599976
				c0.0699463,0.0500488,0.1199951,0.1100464,0.1499634,0.1900024c0.0300293,0.0800171,0.0499878,0.1799927,0.0499878,0.2900391
				C104.6926346,77.0601349,104.6826859,77.1701202,104.6526566,77.2901154z M97.0726395,76.8101349
				c-0.0199585-0.0300293-0.0699463-0.039978-0.1499634-0.039978h-0.1900024l-0.0900269,0.3599854h0.1900024
				c0.0200195,0,0.0599976-0.0100098,0.1199951-0.0200195c0.0300293-0.0100098,0.0500488-0.0299683,0.0800171-0.0599976
				c0.0300293-0.0299683,0.039978-0.0599976,0.0499878-0.0999756C97.1026688,76.890152,97.092659,76.8401031,97.0726395,76.8101349z
				 M97.0726395,76.8101349c-0.0199585-0.0300293-0.0699463-0.039978-0.1499634-0.039978h-0.1900024l-0.0900269,0.3599854h0.1900024
				c0.0200195,0,0.0599976-0.0100098,0.1199951-0.0200195c0.0300293-0.0100098,0.0500488-0.0299683,0.0800171-0.0599976
				c0.0300293-0.0299683,0.039978-0.0599976,0.0499878-0.0999756C97.1026688,76.890152,97.092659,76.8401031,97.0726395,76.8101349z
				 M97.0726395,76.8101349c-0.0199585-0.0300293-0.0699463-0.039978-0.1499634-0.039978h-0.1900024l-0.0900269,0.3599854h0.1900024
				c0.0200195,0,0.0599976-0.0100098,0.1199951-0.0200195c0.0300293-0.0100098,0.0500488-0.0299683,0.0800171-0.0599976
				c0.0300293-0.0299683,0.039978-0.0599976,0.0499878-0.0999756C97.1026688,76.890152,97.092659,76.8401031,97.0726395,76.8101349z
				 M97.0726395,76.8101349c-0.0199585-0.0300293-0.0699463-0.039978-0.1499634-0.039978h-0.1900024l-0.0900269,0.3599854h0.1900024
				c0.0200195,0,0.0599976-0.0100098,0.1199951-0.0200195c0.0300293-0.0100098,0.0500488-0.0299683,0.0800171-0.0599976
				c0.0300293-0.0299683,0.039978-0.0599976,0.0499878-0.0999756C97.1026688,76.890152,97.092659,76.8401031,97.0726395,76.8101349z
				 M97.0726395,76.8101349c-0.0199585-0.0300293-0.0699463-0.039978-0.1499634-0.039978h-0.1900024l-0.0900269,0.3599854h0.1900024
				c0.0200195,0,0.0599976-0.0100098,0.1199951-0.0200195c0.0300293-0.0100098,0.0500488-0.0299683,0.0800171-0.0599976
				c0.0300293-0.0299683,0.039978-0.0599976,0.0499878-0.0999756C97.1026688,76.890152,97.092659,76.8401031,97.0726395,76.8101349z
				 M97.0726395,76.8101349c-0.0199585-0.0300293-0.0699463-0.039978-0.1499634-0.039978h-0.1900024l-0.0900269,0.3599854h0.1900024
				c0.0200195,0,0.0599976-0.0100098,0.1199951-0.0200195c0.0300293-0.0100098,0.0500488-0.0299683,0.0800171-0.0599976
				c0.0300293-0.0299683,0.039978-0.0599976,0.0499878-0.0999756C97.1026688,76.890152,97.092659,76.8401031,97.0726395,76.8101349z
				 M97.0726395,76.8101349c-0.0199585-0.0300293-0.0699463-0.039978-0.1499634-0.039978h-0.1900024l-0.0900269,0.3599854h0.1900024
				c0.0200195,0,0.0599976-0.0100098,0.1199951-0.0200195c0.0300293-0.0100098,0.0500488-0.0299683,0.0800171-0.0599976
				c0.0300293-0.0299683,0.039978-0.0599976,0.0499878-0.0999756C97.1026688,76.890152,97.092659,76.8401031,97.0726395,76.8101349z
				 M97.0726395,76.8101349c-0.0199585-0.0300293-0.0699463-0.039978-0.1499634-0.039978h-0.1900024l-0.0900269,0.3599854h0.1900024
				c0.0200195,0,0.0599976-0.0100098,0.1199951-0.0200195c0.0300293-0.0100098,0.0500488-0.0299683,0.0800171-0.0599976
				c0.0300293-0.0299683,0.039978-0.0599976,0.0499878-0.0999756C97.1026688,76.890152,97.092659,76.8401031,97.0726395,76.8101349z
				"/>
			<polygon class="st1" points="92.5344086,67.4899826 90.9444427,67.9899826 91.6244354,67.4899826 			"/>
			<polygon class="st2" points="122.4326859,75.0801544 122.0126419,75.3201447 121.8726883,74.1501007 			"/>
			<polygon class="st2" points="120.4726639,60.0701485 118.8526688,60.4001045 118.7026443,60.1601143 120.4226761,59.8101387 			
				"/>
			<path class="st2" d="M124.6126785,74.4001007l-0.8900146,0.3099976l-2.75-7.9799805
				c-0.0100098-0.0100098-0.0200195-0.0200195-0.0200195-0.0299683l0.8900146-0.3099976c0,0,0,0,0,0.0099487L124.6126785,74.4001007
				z"/>
			<polygon class="st3" points="121.5326614,64.1901398 120.6926346,64.4801178 119.842659,64.7701569 119.6226883,64.140152 
				121.3126907,63.5601387 			"/>
			<polygon class="st3" points="122.0826492,65.7801056 120.3926468,66.3601227 120.0026932,65.2401276 120.8526688,64.9501495 
				121.6926346,64.6601105 			"/>
			<path class="st2" d="M94.7626419,66.6901398v0.0700073c0,0.3999634-0.3200073,0.7199707-0.7199707,0.7199707
				c-0.4000244,0-0.7200317-0.3200073-0.710022-0.8099976c0.0400391-0.3599854,0.3500366-0.6300049,0.710022-0.6300049
				S94.7126541,66.3201447,94.7626419,66.6901398z"/>
			<path class="st2" d="M119.5426712,70.3201447h-1.8599854l-3.5700073-5.8800049
				c-0.1199951-0.1900024-0.3599854-0.2800293-0.5800171-0.2200317l-17.8900146,5.6100464l-2.0700073-1.2400513l1.6400146-0.5199585
				l22.5800171-7.0800133l0.3900146,0.75l-2.6300049,0.8200073c-0.1500244,0.0499878-0.2700195,0.1599731-0.3200073,0.2999878
				c-0.0599976,0.1500244-0.0400391,0.3099976,0.039978,0.4400024L119.5426712,70.3201447z"/>
			<polygon class="st1" points="116.5126419,70.3201447 97.4226761,70.3201447 100.1226883,69.4801178 116.0026932,69.4801178 			
				"/>
			<rect x="48.7526932" y="81.0001373" class="st3" width="2.4499512" height="2.0999756"/>
			<g>
				<path d="M104.6526566,76.6601105c-0.0299683-0.0799561-0.0800171-0.1399536-0.1499634-0.1900024
					c-0.0700073-0.039978-0.1600342-0.0599976-0.2900391-0.0599976h-0.6499634l-0.4200439,1.7900391h0.6500244
					c0.0800171,0,0.1699829-0.0200195,0.2700195-0.0500488c0.0799561-0.0299683,0.1499634-0.0699463,0.2299805-0.1499634
					c0.0800171-0.0700073,0.1499634-0.1500244,0.2000122-0.2600098c0.0599976-0.1099854,0.1099854-0.25,0.1599731-0.4500122
					c0.0300293-0.1199951,0.039978-0.2299805,0.0499878-0.3399658
					C104.7026443,76.8401031,104.6826859,76.7401276,104.6526566,76.6601105z M104.2126541,77.3101349
					c-0.0299683,0.1400146-0.0700073,0.2399902-0.1099854,0.3099976c-0.0300293,0.0599976-0.0700073,0.1099854-0.1199951,0.1300049
					c-0.0400391,0.0299683-0.1099854,0.039978-0.2000122,0.039978h-0.1099854l0.2299805-0.9799805h0.1099854
					c0.1100464,0,0.1900024,0.039978,0.2200317,0.1099854C104.2626419,76.9901276,104.2526932,77.1201324,104.2126541,77.3101349z"
					/>
				<polygon points="102.4826736,76.7901154 102.4226761,77.0701447 103.092659,77.0701447 103.0126419,77.4401398 
					102.3326492,77.4401398 102.2526932,77.7901154 103.0026932,77.7901154 102.9126663,78.2001495 101.7226639,78.2001495 
					102.1426468,76.4101105 103.302681,76.4101105 103.2126541,76.7901154 				"/>
				<polygon points="101.8326492,76.4101105 101.4126663,78.2001495 100.9726639,78.2001495 101.3926468,76.4101105 				"/>
				<polygon points="100.4126663,76.7901154 100.342659,77.1001129 100.882637,77.1001129 100.802681,77.4600983 
					100.2526932,77.4600983 100.0826492,78.2001495 99.6526566,78.2001495 100.0726395,76.4101105 101.1426468,76.4101105 
					101.052681,76.7901154 				"/>
				<polygon points="99.7526932,76.4101105 99.3326492,78.2001495 98.9026566,78.2001495 99.3226395,76.4101105 				"/>
				<polygon points="99.1026688,76.4101105 99.0026932,76.8501129 98.5626907,76.8501129 98.2426834,78.2001495 
					97.8126907,78.2001495 98.1226883,76.8501129 97.6826859,76.8501129 97.7826614,76.4101105 				"/>
				<path d="M97.5326614,76.6101227c-0.0200195-0.0800171-0.0700073-0.1300049-0.1300049-0.1599731
					c-0.0700073-0.0300293-0.1699829-0.0400391-0.2999878-0.0400391H96.382637l-0.4199829,1.7900391h0.4299927l0.1700439-0.7300415
					h0.039978c0.039978,0,0.0700073,0.0100098,0.0999756,0.0400391c0.0200195,0.0199585,0.0300293,0.0700073,0.0400391,0.1399536
					l0.1099854,0.5500488h0.4899902L97.2526932,77.68013c0-0.0300293-0.0100098-0.0700073-0.0300293-0.1099854
					c-0.0200195-0.0499878-0.039978-0.0800171-0.0499878-0.1000366c-0.0200195-0.0199585-0.0499878-0.039978-0.1000366-0.0599976
					c0.0700073-0.0199585,0.1300049-0.0499878,0.1700439-0.0700073c0.0700073-0.0499878,0.1300049-0.1099854,0.1799927-0.1799927
					s0.0899658-0.1599731,0.1099854-0.2600098C97.552681,76.7901154,97.5626907,76.6901398,97.5326614,76.6101227z
					 M97.0326614,77.0501251c-0.0299683,0.0300293-0.0499878,0.0499878-0.0800171,0.0599976
					c-0.0599976,0.0100098-0.0999756,0.0200195-0.1199951,0.0200195h-0.1900024l0.0900269-0.3599854h0.1900024
					c0.0800171,0,0.1300049,0.0099487,0.1499634,0.039978c0.0200195,0.0299683,0.0300293,0.0800171,0.0100098,0.1400146
					C97.0726395,76.9901276,97.0626907,77.0201569,97.0326614,77.0501251z"/>
				<polygon points="95.302681,76.7901154 95.2326736,77.0701447 95.9126663,77.0701447 95.8226395,77.4401398 
					95.1426468,77.4401398 95.0626907,77.7901154 95.8126907,77.7901154 95.7226639,78.2001495 94.5326614,78.2001495 
					94.9526443,76.4101105 96.1126785,76.4101105 96.0326614,76.7901154 				"/>
				<path d="M94.1126785,77.4600983l0.3499756,0.1500244c-0.0599976,0.1400146-0.1300049,0.25-0.2000122,0.3400269
					c-0.0799561,0.0899658-0.1599731,0.1599731-0.2599487,0.2099609c-0.0900269,0.0400391-0.2000122,0.0700073-0.3200073,0.0700073
					c-0.1600342,0-0.2700195-0.0299683-0.3600464-0.0899658c-0.0799561-0.0500488-0.1399536-0.1500244-0.1799927-0.3000488
					c-0.039978-0.1399536-0.0299683-0.3199463,0.0200195-0.539978c0.0700073-0.2999878,0.1900024-0.5299683,0.3499756-0.6900024
					c0.1600342-0.1500244,0.3500366-0.2299805,0.5800171-0.2299805c0.1799927,0,0.3099976,0.039978,0.3900146,0.1300049
					c0.0800171,0.0899658,0.1199951,0.2299805,0.1199951,0.4199829l-0.4100342,0.1099854
					c0-0.0499878,0-0.0899658-0.0099487-0.1199951c-0.0100098-0.039978-0.0400391-0.0700073-0.0700073-0.0999756
					c-0.0300293-0.0200195-0.0599976-0.0300293-0.1099854-0.0300293c-0.1000366,0-0.1800537,0.0499878-0.2600098,0.1500244
					c-0.0599976,0.0800171-0.1000366,0.1900024-0.1400146,0.3499756c-0.0499878,0.2000122-0.0499878,0.3400269-0.0200195,0.4100342
					c0.0300293,0.0700073,0.0800171,0.1099854,0.1700439,0.1099854c0.0799561,0,0.1499634-0.0300293,0.2099609-0.0900269
					S94.0726395,77.5801544,94.1126785,77.4600983z"/>
			</g>
			<rect x="87.342659" y="74.7100983" class="st1" width="3.8800049" height="4.3400269"/>
			<rect x="82.4626541" y="74.7100983" class="st1" width="3.8800049" height="4.3400269"/>
			<path class="st1" d="M119.8226395,72.2001495H96.592659l-3.0599976-1.8400269
				c-0.1599731-0.0999756-0.3400269-0.1500244-0.5200195-0.1500244H79.8926468v-2.7199707h2.0599976l0.6400146,2.2000122
				c0.0700073,0.2199707,0.2600098,0.3599854,0.4799805,0.3599854h3.0200195c0.1500244,0,0.2999878-0.0700073,0.4000244-0.2000122
				c0.0899658-0.1199951,0.1199951-0.289978,0.0799561-0.4400024l-0.4299927-1.4599609
				c0.0300293-0.0100098,0.0599976-0.0100098,0.0900269-0.0200195c0.2000122-0.0599976,0.3399658-0.2399902,0.3499756-0.4400024
				h4.1900024l-1.1400146,0.8400269h-0.5999756c-0.2799683,0-0.5,0.2299805-0.5,0.5v0.2599487c0,0.2800293,0.2200317,0.5,0.5,0.5
				h3.8400269l3.1799927,1.9200439c0.0799561,0.0499878,0.1699829,0.0700073,0.2600098,0.0700073h23.4299927L119.8226395,72.2001495
				z"/>
			<polygon class="st1" points="85.4226761,69.0501251 83.4526443,69.0501251 82.2226639,64.8601227 84.1926346,64.8601227 			"/>
			<rect x="81.2026443" y="62.7601509" class="st4" width="3.6700439" height="1.0999756"/>
			<rect x="81.2026443" y="58.5701485" class="st4" width="3.6700439" height="3.1900024"/>
			<path class="st5" d="M77.8926468,61.1701241v3.1899986H65.092659l-5.960022,7.2000122l-7.3499756,1.0599976
				c-1.2399902,0.1799927-2.2999878,0.8300171-3.0299683,1.75v-1.289978c0-1.8300171,1.3699951-3.4000244,3.1699829-3.6700439
				l7.3499756-1.0499878c0.25-0.0299683,0.4700317-0.1599731,0.6300049-0.3499756l5.6600342-6.840023H77.8926468z"/>
		</g>
		<g class="st6">
			<path class="st1" d="M77.8926468,64.3601227v2.1300049c0,0.0100098,0,0.0100098,0,0.0100098v4.7099609
				c0,0.0100098,0,0.0100098,0,0.0200195v9.8099976H67.0026932c-0.4900513-3.9299927-3.8600464-6.9899902-7.9300537-6.9899902
				c-0.2799683,0-0.5699463,0.0100098-0.7699585,0.039978c-0.2000122,0.0200195-0.4100342,0.0500488-0.6199951,0.0900269
				c-0.1300049,0.0200195-0.2600098,0.0499878-0.4000244,0.0800171c-0.0900269,0.0100098-0.1900024,0.039978-0.289978,0.0700073
				c-0.1600342,0.039978-0.3200073,0.0799561-0.4700317,0.1399536c-0.6199951,0.2000122-1.2199707,0.4899902-1.789978,0.8699951
				l-0.3099976,0.210022c-0.1199951,0.0800171-0.25,0.1699829-0.2999878,0.2200317
				c-0.2600098,0.1999512-0.5,0.4199829-0.6700439,0.5999756c-0.1900024,0.1799927-0.3699951,0.3699951-0.5499878,0.5899658
				c-0.1300049,0.1700439-0.2700195,0.3500366-0.3699951,0.4900513c-0.0700073,0.0999756-0.1400146,0.2099609-0.210022,0.3200073
				c-0.0699463,0.1099854-0.1399536,0.2299805-0.1999512,0.3399658s-0.1199951,0.210022-0.1600342,0.2800293
				c-0.0999756,0.2099609-0.2000122,0.4099731-0.2799683,0.6099854h-2.9299927v-4.6300049
				c0.7299805-0.9199829,1.789978-1.5700073,3.0299683-1.75l7.3499756-1.0599976l5.960022-7.2000122H77.8926468z"/>
		</g>
		<g>
			<g>
				<path class="st0" d="M114.2221298,83.6540222c0,1.539978-1.2600098,2.789978-2.7999878,2.789978
					s-2.7999878-1.25-2.7999878-2.789978c0-1.5499878,1.2600098-2.7999878,2.7999878-2.7999878
					S114.2221298,82.1040344,114.2221298,83.6540222z"/>
			</g>
			<g>
				<path class="st7" d="M112.2992783,81.1962967c-0.5936432,0-1.0793686,0.4818649-1.0793686,1.0793686
					c0,0.5936737,0.4857254,1.075531,1.0793686,1.075531c0.5936737,0,1.0793915-0.4818573,1.0793915-1.075531
					C113.3786697,81.6781616,112.892952,81.1962967,112.2992783,81.1962967z"/>
			</g>
		</g>
		<g>
			<g>
				<path class="st0" d="M61.8704834,83.6540222c0,1.539978-1.2600098,2.789978-2.7999878,2.789978
					s-2.7999878-1.25-2.7999878-2.789978c0-1.5499878,1.2600098-2.7999878,2.7999878-2.7999878
					S61.8704834,82.1040344,61.8704834,83.6540222z"/>
			</g>
			<g>
				<path class="st7" d="M59.9476318,81.1962967c-0.593647,0-1.0793724,0.4818649-1.0793724,1.0793686
					c0,0.5936737,0.4857254,1.075531,1.0793724,1.075531c0.5936699,0,1.0793915-0.4818573,1.0793915-1.075531
					C61.0270233,81.6781616,60.5413017,81.1962967,59.9476318,81.1962967z"/>
			</g>
		</g>
		<g>
			<polygon class="st8" points="66.6325378,66.7623749 73.9512177,66.7623749 73.9512177,72.0167389 62.7259445,72.0167389 			"/>
		</g>
	</g>
</g>
</svg>
